<?xml version="1.0" encoding="utf-8"?>
<!-- Generator: Adobe Illustrator 26.5.2, SVG Export Plug-In . SVG Version: 6.00 Build 0)  -->
<svg version="1.1" id="cluster01" xmlns="http://www.w3.org/2000/svg" xmlns:xlink="http://www.w3.org/1999/xlink" x="0px" y="0px"
	 viewBox="0 0 1920 829" style="enable-background:new 0 0 1920 829;" xml:space="preserve">
<style type="text/css">
	.st0{fill:#E6E6E6;stroke:#000000;stroke-width:6;stroke-miterlimit:10;}
	.st1{fill:#FFFFFF;}
	.st2{fill:#FFFFFF;stroke:#000000;stroke-width:4;stroke-miterlimit:10;}
	.st3{fill:#666666;}
	.st4{fill:none;stroke:#000000;stroke-width:4;stroke-linecap:round;stroke-linejoin:round;stroke-miterlimit:10;}
	.st5{fill:none;stroke:#000000;stroke-width:8;stroke-linecap:round;stroke-linejoin:round;stroke-miterlimit:10;}
	.st6{fill-rule:evenodd;clip-rule:evenodd;fill:#FFFFFF;stroke:#000000;stroke-width:4;stroke-miterlimit:10;}
	.st7{fill:#FFFFFF;stroke:#000000;stroke-width:4;stroke-linecap:round;stroke-miterlimit:10;}
	.st8{fill:none;stroke:#003E6E;stroke-width:4;stroke-linecap:round;stroke-linejoin:round;}
	.st9{fill:#003E6E;}
	.st10{fill:none;stroke:#F7931E;stroke-width:4;stroke-linecap:round;stroke-linejoin:round;}
	.st11{fill:#F7931E;}
</style>
<circle class="st0" cx="164.6" cy="439.22" r="129.22"/>
<circle class="st0" cx="1755.94" cy="248.16" r="107.94"/>
<g>
	<rect x="40.09" y="35.53" width="270.54" height="56.76"/>
	<g>
		<path class="st1" d="M78.34,51.18l6.91,19.51l6.87-19.51h7.28v26.9h-5.56v-7.35l0.55-12.69l-7.26,20.05h-3.81l-7.24-20.03
			l0.55,12.67v7.35H71.1v-26.9H78.34z"/>
		<path class="st1" d="M126.3,65.24c0,2.51-0.41,4.7-1.22,6.55c-0.81,1.85-1.94,3.34-3.38,4.46l4.47,3.51l-3.53,3.12l-5.73-4.6
			c-0.65,0.11-1.33,0.17-2.03,0.17c-2.23,0-4.22-0.54-5.97-1.61c-1.75-1.07-3.1-2.6-4.06-4.59c-0.96-1.99-1.45-4.28-1.46-6.86v-1.33
			c0-2.65,0.48-4.98,1.43-6.99c0.96-2.01,2.3-3.56,4.05-4.64c1.74-1.08,3.73-1.62,5.98-1.62c2.24,0,4.23,0.54,5.98,1.62
			c1.74,1.08,3.09,2.62,4.05,4.64c0.96,2.01,1.43,4.34,1.43,6.97V65.24z M120.69,64.02c0-2.82-0.5-4.96-1.51-6.43
			s-2.45-2.2-4.32-2.2c-1.86,0-3.29,0.72-4.3,2.17c-1.01,1.45-1.52,3.57-1.53,6.36v1.31c0,2.75,0.5,4.88,1.51,6.39
			c1.01,1.51,2.46,2.27,4.36,2.27c1.86,0,3.29-0.73,4.29-2.19s1.5-3.59,1.51-6.38V64.02z"/>
		<path class="st1" d="M150.01,55.67h-8.24v22.41h-5.54V55.67h-8.13v-4.49h21.91V55.67z"/>
		<path class="st1" d="M173.71,55.67h-8.24v22.41h-5.54V55.67h-8.13v-4.49h21.91V55.67z"/>
		<path class="st1" d="M206.3,69.12c-0.21,2.89-1.28,5.17-3.21,6.84c-1.93,1.66-4.47,2.49-7.62,2.49c-3.45,0-6.16-1.16-8.14-3.48
			c-1.98-2.32-2.97-5.51-2.97-9.56v-1.64c0-2.59,0.46-4.87,1.37-6.84c0.91-1.97,2.21-3.48,3.91-4.54c1.69-1.05,3.66-1.58,5.9-1.58
			c3.1,0,5.6,0.83,7.5,2.49c1.9,1.66,2.99,4,3.29,7h-5.54c-0.14-1.74-0.62-3-1.45-3.78c-0.83-0.78-2.1-1.17-3.8-1.17
			c-1.85,0-3.23,0.66-4.15,1.99c-0.92,1.32-1.39,3.38-1.41,6.16v2.03c0,2.91,0.44,5.03,1.32,6.37c0.88,1.34,2.27,2.01,4.17,2.01
			c1.71,0,2.99-0.39,3.83-1.17s1.33-1.99,1.45-3.63H206.3z"/>
		<path class="st1" d="M215.23,78.08h-5.36V49.7h5.36V78.08z"/>
		<path class="st1" d="M219.59,52.92c0-0.8,0.27-1.46,0.8-1.98c0.54-0.52,1.27-0.78,2.19-0.78c0.91,0,1.64,0.26,2.18,0.78
			c0.54,0.52,0.81,1.18,0.81,1.98c0,0.81-0.27,1.48-0.82,2c-0.55,0.52-1.27,0.78-2.17,0.78s-1.62-0.26-2.17-0.78
			C219.86,54.4,219.59,53.73,219.59,52.92z M225.26,78.08h-5.36V58.09h5.36V78.08z"/>
		<path class="st1" d="M238.86,78.45c-2.93,0-5.32-0.9-7.16-2.7c-1.84-1.8-2.76-4.19-2.76-7.19v-0.52c0-2.01,0.39-3.8,1.16-5.39
			c0.78-1.58,1.88-2.8,3.3-3.66c1.42-0.86,3.04-1.28,4.87-1.28c2.73,0,4.89,0.86,6.46,2.59c1.57,1.72,2.36,4.17,2.36,7.33v2.18
			h-12.73c0.17,1.31,0.69,2.35,1.56,3.14c0.87,0.79,1.97,1.18,3.3,1.18c2.06,0,3.66-0.75,4.82-2.24l2.62,2.94
			c-0.8,1.13-1.88,2.02-3.25,2.65S240.52,78.45,238.86,78.45z M238.25,62.03c-1.06,0-1.92,0.36-2.58,1.08
			c-0.66,0.72-1.08,1.74-1.27,3.08h7.43v-0.43c-0.03-1.19-0.35-2.11-0.96-2.76C240.25,62.35,239.38,62.03,238.25,62.03z"/>
		<path class="st1" d="M255.02,58.09l0.17,2.31c1.43-1.79,3.34-2.68,5.75-2.68c2.12,0,3.69,0.62,4.73,1.87
			c1.03,1.24,1.56,3.1,1.59,5.58v12.91h-5.34V65.3c0-1.13-0.25-1.96-0.74-2.47c-0.49-0.51-1.31-0.77-2.46-0.77
			c-1.5,0-2.63,0.64-3.38,1.92v14.1H250V58.09H255.02z"/>
		<path class="st1" d="M277.69,53.18v4.91h3.42v3.92h-3.42v9.98c0,0.74,0.14,1.27,0.42,1.59s0.83,0.48,1.63,0.48
			c0.59,0,1.11-0.04,1.57-0.13v4.05c-1.05,0.32-2.12,0.48-3.23,0.48c-3.74,0-5.65-1.89-5.73-5.67V62.01h-2.92v-3.92h2.92v-4.91
			H277.69z"/>
	</g>
</g>
<g>
	<rect x="1624.46" y="35.53" width="270.54" height="56.76"/>
	<g>
		<path class="st1" d="M1652.98,51.18l6.91,19.51l6.87-19.51h7.28v26.9h-5.56v-7.35l0.55-12.69l-7.26,20.05h-3.81l-7.24-20.03
			l0.55,12.67v7.35h-5.54v-26.9H1652.98z"/>
		<path class="st1" d="M1700.94,65.24c0,2.51-0.41,4.7-1.22,6.55c-0.81,1.85-1.94,3.34-3.38,4.46l4.47,3.51l-3.53,3.12l-5.73-4.6
			c-0.65,0.11-1.33,0.17-2.03,0.17c-2.23,0-4.22-0.54-5.97-1.61c-1.75-1.07-3.1-2.6-4.06-4.59c-0.96-1.99-1.45-4.28-1.46-6.86v-1.33
			c0-2.65,0.48-4.98,1.43-6.99c0.96-2.01,2.3-3.56,4.05-4.64c1.74-1.08,3.73-1.62,5.98-1.62c2.24,0,4.23,0.54,5.98,1.62
			c1.74,1.08,3.09,2.62,4.05,4.64c0.96,2.01,1.43,4.34,1.43,6.97V65.24z M1695.32,64.02c0-2.82-0.5-4.96-1.51-6.43
			s-2.45-2.2-4.32-2.2c-1.86,0-3.29,0.72-4.3,2.17c-1.01,1.45-1.52,3.57-1.53,6.36v1.31c0,2.75,0.5,4.88,1.51,6.39
			c1.01,1.51,2.46,2.27,4.36,2.27c1.86,0,3.29-0.73,4.29-2.19s1.5-3.59,1.51-6.38V64.02z"/>
		<path class="st1" d="M1724.64,55.67h-8.24v22.41h-5.54V55.67h-8.13v-4.49h21.91V55.67z"/>
		<path class="st1" d="M1748.35,55.67h-8.24v22.41h-5.54V55.67h-8.13v-4.49h21.91V55.67z"/>
		<path class="st1" d="M1780.94,69.12c-0.21,2.89-1.28,5.17-3.21,6.84c-1.93,1.66-4.47,2.49-7.62,2.49c-3.45,0-6.16-1.16-8.14-3.48
			c-1.98-2.32-2.97-5.51-2.97-9.56v-1.64c0-2.59,0.46-4.87,1.37-6.84c0.91-1.97,2.21-3.48,3.91-4.54c1.69-1.05,3.66-1.58,5.9-1.58
			c3.1,0,5.6,0.83,7.5,2.49c1.9,1.66,2.99,4,3.29,7h-5.54c-0.14-1.74-0.62-3-1.45-3.78c-0.83-0.78-2.1-1.17-3.8-1.17
			c-1.85,0-3.23,0.66-4.15,1.99c-0.92,1.32-1.39,3.38-1.41,6.16v2.03c0,2.91,0.44,5.03,1.32,6.37c0.88,1.34,2.27,2.01,4.17,2.01
			c1.71,0,2.99-0.39,3.83-1.17s1.33-1.99,1.45-3.63H1780.94z"/>
		<path class="st1" d="M1789.86,78.08h-5.36V49.7h5.36V78.08z"/>
		<path class="st1" d="M1794.22,52.92c0-0.8,0.27-1.46,0.8-1.98c0.54-0.52,1.27-0.78,2.19-0.78c0.91,0,1.64,0.26,2.18,0.78
			c0.54,0.52,0.81,1.18,0.81,1.98c0,0.81-0.27,1.48-0.82,2c-0.55,0.52-1.27,0.78-2.17,0.78s-1.62-0.26-2.17-0.78
			C1794.5,54.4,1794.22,53.73,1794.22,52.92z M1799.89,78.08h-5.36V58.09h5.36V78.08z"/>
		<path class="st1" d="M1813.49,78.45c-2.93,0-5.32-0.9-7.16-2.7c-1.84-1.8-2.76-4.19-2.76-7.19v-0.52c0-2.01,0.39-3.8,1.16-5.39
			c0.78-1.58,1.88-2.8,3.3-3.66c1.42-0.86,3.04-1.28,4.87-1.28c2.73,0,4.89,0.86,6.46,2.59c1.57,1.72,2.36,4.17,2.36,7.33v2.18
			h-12.73c0.17,1.31,0.69,2.35,1.56,3.14c0.87,0.79,1.97,1.18,3.3,1.18c2.06,0,3.66-0.75,4.82-2.24l2.62,2.94
			c-0.8,1.13-1.88,2.02-3.25,2.65S1815.15,78.45,1813.49,78.45z M1812.88,62.03c-1.06,0-1.92,0.36-2.58,1.08
			c-0.66,0.72-1.08,1.74-1.27,3.08h7.43v-0.43c-0.03-1.19-0.35-2.11-0.96-2.76C1814.89,62.35,1814.02,62.03,1812.88,62.03z"/>
		<path class="st1" d="M1829.66,58.09l0.17,2.31c1.43-1.79,3.34-2.68,5.75-2.68c2.12,0,3.69,0.62,4.73,1.87
			c1.03,1.24,1.56,3.1,1.59,5.58v12.91h-5.34V65.3c0-1.13-0.25-1.96-0.74-2.47c-0.49-0.51-1.31-0.77-2.46-0.77
			c-1.5,0-2.63,0.64-3.38,1.92v14.1h-5.34V58.09H1829.66z"/>
		<path class="st1" d="M1852.33,53.18v4.91h3.42v3.92h-3.42v9.98c0,0.74,0.14,1.27,0.42,1.59s0.83,0.48,1.63,0.48
			c0.59,0,1.11-0.04,1.57-0.13v4.05c-1.05,0.32-2.12,0.48-3.23,0.48c-3.74,0-5.65-1.89-5.73-5.67V62.01h-2.92v-3.92h2.92v-4.91
			H1852.33z"/>
		<path class="st1" d="M1869.55,72.56c0-0.65-0.32-1.17-0.97-1.54c-0.65-0.38-1.68-0.71-3.11-1.01c-4.75-1-7.13-3.02-7.13-6.06
			c0-1.77,0.74-3.25,2.21-4.44c1.47-1.19,3.4-1.78,5.77-1.78c2.54,0,4.57,0.6,6.09,1.79c1.52,1.19,2.28,2.75,2.28,4.66h-5.34
			c0-0.76-0.25-1.4-0.74-1.89c-0.49-0.5-1.26-0.75-2.31-0.75c-0.9,0-1.6,0.2-2.09,0.61c-0.49,0.41-0.74,0.92-0.74,1.55
			c0,0.59,0.28,1.07,0.84,1.43s1.51,0.68,2.84,0.94c1.33,0.27,2.45,0.56,3.36,0.9c2.82,1.03,4.23,2.83,4.23,5.38
			c0,1.82-0.78,3.3-2.35,4.43c-1.56,1.13-3.58,1.69-6.06,1.69c-1.68,0-3.16-0.3-4.46-0.9c-1.3-0.6-2.32-1.42-3.06-2.46
			c-0.74-1.04-1.11-2.16-1.11-3.37h5.06c0.05,0.95,0.4,1.68,1.05,2.18c0.65,0.5,1.53,0.76,2.62,0.76c1.02,0,1.79-0.19,2.32-0.58
			C1869.28,73.7,1869.55,73.19,1869.55,72.56z"/>
	</g>
</g>
<g>
	<path class="st2" d="M1823.19,236.52h-133.65c-4.4,0-8-3.6-8-8v-26.25c0-4.4,3.6-8,8-8h133.65c4.4,0,8,3.6,8,8v26.25
		C1831.19,232.92,1827.59,236.52,1823.19,236.52z"/>
	<circle cx="1706.19" cy="216.42" r="5.28"/>
	<circle cx="1724.67" cy="216.42" r="5.28"/>
	<circle class="st3" cx="1743.16" cy="216.42" r="5.28"/>
	<path class="st2" d="M1823.19,289.34h-133.65c-4.4,0-8-3.6-8-8v-26.25c0-4.4,3.6-8,8-8h133.65c4.4,0,8,3.6,8,8v26.25
		C1831.19,285.74,1827.59,289.34,1823.19,289.34z"/>
	<circle cx="1706.19" cy="269.24" r="5.28"/>
	<circle cx="1724.67" cy="269.24" r="5.28"/>
	<circle class="st3" cx="1743.16" cy="269.24" r="5.28"/>
	<line class="st4" x1="1700.03" y1="300.34" x2="1700.03" y2="289.78"/>
	<line class="st4" x1="1814.46" y1="300.34" x2="1814.46" y2="289.78"/>
</g>
<rect x="791.13" y="312.76" class="st5" width="291.68" height="291.68"/>
<circle class="st0" cx="802.93" cy="323.59" r="125.87"/>
<g>
	<rect x="812.04" y="35.53" width="297.03" height="56.76"/>
	<g>
		<path class="st1" d="M857.67,51.18l6.91,19.51l6.87-19.51h7.28v26.9h-5.56v-7.35l0.55-12.69l-7.26,20.05h-3.81l-7.24-20.03
			l0.55,12.67v7.35h-5.54v-26.9H857.67z"/>
		<path class="st1" d="M905.63,65.24c0,2.51-0.41,4.7-1.22,6.55c-0.81,1.85-1.94,3.34-3.38,4.46l4.47,3.51l-3.53,3.12l-5.73-4.6
			c-0.65,0.11-1.33,0.17-2.03,0.17c-2.23,0-4.22-0.54-5.97-1.61c-1.75-1.07-3.1-2.6-4.06-4.59c-0.96-1.99-1.45-4.28-1.46-6.86v-1.33
			c0-2.65,0.48-4.98,1.43-6.99c0.96-2.01,2.3-3.56,4.05-4.64c1.74-1.08,3.73-1.62,5.98-1.62c2.24,0,4.23,0.54,5.98,1.62
			c1.74,1.08,3.09,2.62,4.05,4.64c0.96,2.01,1.43,4.34,1.43,6.97V65.24z M900.01,64.02c0-2.82-0.5-4.96-1.51-6.43
			s-2.45-2.2-4.32-2.2c-1.86,0-3.29,0.72-4.3,2.17c-1.01,1.45-1.52,3.57-1.53,6.36v1.31c0,2.75,0.5,4.88,1.51,6.39
			c1.01,1.51,2.46,2.27,4.36,2.27c1.86,0,3.29-0.73,4.29-2.19s1.5-3.59,1.51-6.38V64.02z"/>
		<path class="st1" d="M929.33,55.67h-8.24v22.41h-5.54V55.67h-8.13v-4.49h21.91V55.67z"/>
		<path class="st1" d="M953.04,55.67h-8.24v22.41h-5.54V55.67h-8.13v-4.49h21.91V55.67z"/>
		<path class="st1" d="M978.46,71.03c0-1.05-0.37-1.85-1.11-2.41c-0.74-0.56-2.07-1.15-3.99-1.77c-1.92-0.62-3.44-1.23-4.56-1.84
			c-3.05-1.65-4.58-3.87-4.58-6.67c0-1.45,0.41-2.75,1.23-3.89c0.82-1.14,2-2.03,3.53-2.67c1.53-0.64,3.25-0.96,5.16-0.96
			c1.92,0,3.63,0.35,5.14,1.04c1.5,0.7,2.67,1.68,3.5,2.95c0.83,1.27,1.25,2.71,1.25,4.32h-5.54c0-1.23-0.39-2.19-1.16-2.87
			c-0.78-0.68-1.87-1.03-3.27-1.03c-1.36,0-2.41,0.29-3.16,0.86c-0.75,0.57-1.13,1.33-1.13,2.26c0,0.88,0.44,1.61,1.32,2.2
			s2.18,1.15,3.89,1.66c3.15,0.95,5.45,2.12,6.89,3.53c1.44,1.4,2.16,3.15,2.16,5.25c0,2.33-0.88,4.15-2.64,5.48
			c-1.76,1.32-4.13,1.99-7.11,1.99c-2.07,0-3.95-0.38-5.65-1.14c-1.7-0.76-3-1.79-3.89-3.11c-0.89-1.32-1.34-2.85-1.34-4.58h5.56
			c0,2.97,1.77,4.45,5.32,4.45c1.32,0,2.35-0.27,3.08-0.8C978.09,72.73,978.46,71.99,978.46,71.03z"/>
		<path class="st1" d="M996.62,78.45c-2.93,0-5.32-0.9-7.16-2.7c-1.84-1.8-2.76-4.19-2.76-7.19v-0.52c0-2.01,0.39-3.8,1.16-5.39
			c0.78-1.58,1.88-2.8,3.3-3.66c1.42-0.86,3.04-1.28,4.87-1.28c2.73,0,4.89,0.86,6.46,2.59c1.57,1.72,2.36,4.17,2.36,7.33v2.18
			h-12.73c0.17,1.31,0.69,2.35,1.56,3.14c0.87,0.79,1.97,1.18,3.3,1.18c2.06,0,3.66-0.75,4.82-2.24l2.62,2.94
			c-0.8,1.13-1.88,2.02-3.25,2.65S998.28,78.45,996.62,78.45z M996.01,62.03c-1.06,0-1.92,0.36-2.58,1.08
			c-0.66,0.72-1.08,1.74-1.27,3.08h7.43v-0.43c-0.03-1.19-0.35-2.11-0.96-2.76C998.02,62.35,997.14,62.03,996.01,62.03z"/>
		<path class="st1" d="M1019.11,63.1c-0.73-0.1-1.37-0.15-1.92-0.15c-2.02,0-3.34,0.68-3.97,2.05v13.08h-5.34V58.09h5.04l0.15,2.38
			c1.07-1.83,2.56-2.75,4.45-2.75c0.59,0,1.15,0.08,1.66,0.24L1019.11,63.1z"/>
		<path class="st1" d="M1029.49,71.56l3.71-13.47h5.58l-6.74,19.99h-5.1l-6.74-19.99h5.58L1029.49,71.56z"/>
		<path class="st1" d="M1050.09,78.45c-2.93,0-5.32-0.9-7.16-2.7c-1.84-1.8-2.76-4.19-2.76-7.19v-0.52c0-2.01,0.39-3.8,1.16-5.39
			c0.78-1.58,1.88-2.8,3.3-3.66c1.42-0.86,3.04-1.28,4.87-1.28c2.73,0,4.89,0.86,6.46,2.59c1.57,1.72,2.36,4.17,2.36,7.33v2.18
			h-12.73c0.17,1.31,0.69,2.35,1.56,3.14c0.87,0.79,1.97,1.18,3.3,1.18c2.06,0,3.66-0.75,4.82-2.24l2.62,2.94
			c-0.8,1.13-1.88,2.02-3.25,2.65S1051.75,78.45,1050.09,78.45z M1049.48,62.03c-1.06,0-1.92,0.36-2.58,1.08
			c-0.66,0.72-1.08,1.74-1.27,3.08h7.43v-0.43c-0.03-1.19-0.35-2.11-0.96-2.76C1051.49,62.35,1050.61,62.03,1049.48,62.03z"/>
		<path class="st1" d="M1072.57,63.1c-0.73-0.1-1.37-0.15-1.92-0.15c-2.02,0-3.34,0.68-3.97,2.05v13.08h-5.34V58.09h5.04l0.15,2.38
			c1.07-1.83,2.56-2.75,4.45-2.75c0.59,0,1.15,0.08,1.66,0.24L1072.57,63.1z"/>
	</g>
</g>
<g>
	<g>
		<path class="st2" d="M786.56,365.9h-74.37c-5.74,0-10.41-4.67-10.41-10.42v-73.22c0-5.75,4.67-10.42,10.41-10.42h74.37
			c5.74,0,10.42,4.67,10.42,10.42v73.22C796.98,361.22,792.31,365.9,786.56,365.9z"/>
	</g>
	<g>
		<path class="st6" d="M707.92,342.17c0-2.94,2.67-5.32,5.95-5.32h71.02c3.29,0,5.96,2.38,5.96,5.32v10.64
			c0,2.94-2.67,5.32-5.96,5.32h-71.02c-3.29,0-5.95-2.38-5.95-5.32V342.17L707.92,342.17z M779.24,344.17
			c-1.83,0-3.31,1.48-3.31,3.31c0,1.83,1.48,3.3,3.31,3.3c1.83,0,3.31-1.48,3.31-3.3C782.55,345.66,781.07,344.17,779.24,344.17
			L779.24,344.17z"/>
	</g>
	<g>
		<path class="st6" d="M707.92,313.09c0-2.94,2.67-5.32,5.95-5.32h71.02c3.29,0,5.96,2.38,5.96,5.32v10.64
			c0,2.94-2.67,5.32-5.96,5.32h-71.02c-3.29,0-5.95-2.38-5.95-5.32V313.09L707.92,313.09z M779.24,315.1
			c-1.83,0-3.31,1.48-3.31,3.31c0,1.83,1.48,3.3,3.31,3.3c1.83,0,3.31-1.48,3.31-3.3C782.55,316.58,781.07,315.1,779.24,315.1
			L779.24,315.1z"/>
	</g>
	<g>
		<path class="st6" d="M707.92,284.02c0-2.94,2.67-5.32,5.95-5.32h71.02c3.29,0,5.96,2.38,5.96,5.32v10.64
			c0,2.94-2.67,5.32-5.96,5.32h-71.02c-3.29,0-5.95-2.38-5.95-5.32V284.02L707.92,284.02z M779.24,286.03
			c-1.83,0-3.31,1.48-3.31,3.31c0,1.83,1.48,3.3,3.31,3.3c1.83,0,3.31-1.48,3.31-3.3C782.55,287.51,781.07,286.03,779.24,286.03
			L779.24,286.03z"/>
	</g>
	<g>
		<path class="st6" d="M749.38,375.15c3.07,0,5.55,2.48,5.55,5.55c0,3.06-2.48,5.55-5.55,5.55c-3.07,0-5.55-2.49-5.55-5.55
			C743.83,377.63,746.31,375.15,749.38,375.15L749.38,375.15z"/>
	</g>
	<line class="st7" x1="728.43" y1="380.63" x2="743.44" y2="380.63"/>
	<line class="st7" x1="755.94" y1="380.63" x2="770.95" y2="380.63"/>
	<line class="st7" x1="749.38" y1="366.25" x2="749.38" y2="375"/>
</g>
<g>
	<g>
		<path class="st2" d="M892.85,365.9h-74.37c-5.74,0-10.41-4.67-10.41-10.42v-73.22c0-5.75,4.67-10.42,10.41-10.42h74.37
			c5.74,0,10.42,4.67,10.42,10.42v73.22C903.27,361.22,898.6,365.9,892.85,365.9z"/>
	</g>
	<g>
		<path class="st6" d="M814.2,342.17c0-2.94,2.67-5.32,5.95-5.32h71.02c3.29,0,5.96,2.38,5.96,5.32v10.64
			c0,2.94-2.67,5.32-5.96,5.32h-71.02c-3.29,0-5.95-2.38-5.95-5.32V342.17L814.2,342.17z M885.53,344.17
			c-1.83,0-3.31,1.48-3.31,3.31c0,1.83,1.48,3.3,3.31,3.3c1.83,0,3.31-1.48,3.31-3.3C888.84,345.66,887.35,344.17,885.53,344.17
			L885.53,344.17z"/>
	</g>
	<g>
		<path class="st6" d="M814.2,313.09c0-2.94,2.67-5.32,5.95-5.32h71.02c3.29,0,5.96,2.38,5.96,5.32v10.64
			c0,2.94-2.67,5.32-5.96,5.32h-71.02c-3.29,0-5.95-2.38-5.95-5.32V313.09L814.2,313.09z M885.53,315.1c-1.83,0-3.31,1.48-3.31,3.31
			c0,1.83,1.48,3.3,3.31,3.3c1.83,0,3.31-1.48,3.31-3.3C888.84,316.58,887.35,315.1,885.53,315.1L885.53,315.1z"/>
	</g>
	<g>
		<path class="st6" d="M814.2,284.02c0-2.94,2.67-5.32,5.95-5.32h71.02c3.29,0,5.96,2.38,5.96,5.32v10.64
			c0,2.94-2.67,5.32-5.96,5.32h-71.02c-3.29,0-5.95-2.38-5.95-5.32V284.02L814.2,284.02z M885.53,286.03
			c-1.83,0-3.31,1.48-3.31,3.31c0,1.83,1.48,3.3,3.31,3.3c1.83,0,3.31-1.48,3.31-3.3C888.84,287.51,887.35,286.03,885.53,286.03
			L885.53,286.03z"/>
	</g>
	<g>
		<path class="st6" d="M855.67,375.15c3.07,0,5.55,2.48,5.55,5.55c0,3.06-2.48,5.55-5.55,5.55c-3.07,0-5.55-2.49-5.55-5.55
			C850.12,377.63,852.6,375.15,855.67,375.15L855.67,375.15z"/>
	</g>
	<line class="st7" x1="834.72" y1="380.63" x2="849.73" y2="380.63"/>
	<line class="st7" x1="862.23" y1="380.63" x2="877.24" y2="380.63"/>
	<line class="st7" x1="855.67" y1="366.25" x2="855.67" y2="375"/>
</g>
<circle class="st0" cx="1072.47" cy="323.59" r="125.87"/>
<g>
	<g>
		<path class="st2" d="M1056.1,365.9h-74.37c-5.74,0-10.41-4.67-10.41-10.42v-73.22c0-5.75,4.67-10.42,10.41-10.42h74.37
			c5.74,0,10.42,4.67,10.42,10.42v73.22C1066.52,361.22,1061.85,365.9,1056.1,365.9z"/>
	</g>
	<g>
		<path class="st6" d="M977.46,342.17c0-2.94,2.67-5.32,5.95-5.32h71.02c3.29,0,5.96,2.38,5.96,5.32v10.64
			c0,2.94-2.67,5.32-5.96,5.32h-71.02c-3.29,0-5.95-2.38-5.95-5.32V342.17L977.46,342.17z M1048.78,344.17
			c-1.83,0-3.31,1.48-3.31,3.31c0,1.83,1.48,3.3,3.31,3.3c1.83,0,3.31-1.48,3.31-3.3C1052.09,345.66,1050.61,344.17,1048.78,344.17
			L1048.78,344.17z"/>
	</g>
	<g>
		<path class="st6" d="M977.46,313.09c0-2.94,2.67-5.32,5.95-5.32h71.02c3.29,0,5.96,2.38,5.96,5.32v10.64
			c0,2.94-2.67,5.32-5.96,5.32h-71.02c-3.29,0-5.95-2.38-5.95-5.32V313.09L977.46,313.09z M1048.78,315.1
			c-1.83,0-3.31,1.48-3.31,3.31c0,1.83,1.48,3.3,3.31,3.3c1.83,0,3.31-1.48,3.31-3.3C1052.09,316.58,1050.61,315.1,1048.78,315.1
			L1048.78,315.1z"/>
	</g>
	<g>
		<path class="st6" d="M977.46,284.02c0-2.94,2.67-5.32,5.95-5.32h71.02c3.29,0,5.96,2.38,5.96,5.32v10.64
			c0,2.94-2.67,5.32-5.96,5.32h-71.02c-3.29,0-5.95-2.38-5.95-5.32V284.02L977.46,284.02z M1048.78,286.03
			c-1.83,0-3.31,1.48-3.31,3.31c0,1.83,1.48,3.3,3.31,3.3c1.83,0,3.31-1.48,3.31-3.3C1052.09,287.51,1050.61,286.03,1048.78,286.03
			L1048.78,286.03z"/>
	</g>
	<g>
		<path class="st6" d="M1018.92,375.15c3.07,0,5.55,2.48,5.55,5.55c0,3.06-2.48,5.55-5.55,5.55c-3.07,0-5.55-2.49-5.55-5.55
			C1013.37,377.63,1015.85,375.15,1018.92,375.15L1018.92,375.15z"/>
	</g>
	<line class="st7" x1="997.98" y1="380.63" x2="1012.98" y2="380.63"/>
	<line class="st7" x1="1025.49" y1="380.63" x2="1040.49" y2="380.63"/>
	<line class="st7" x1="1018.92" y1="366.25" x2="1018.92" y2="375"/>
</g>
<g>
	<g>
		<path class="st2" d="M1162.39,365.9h-74.37c-5.74,0-10.41-4.67-10.41-10.42v-73.22c0-5.75,4.67-10.42,10.41-10.42h74.37
			c5.74,0,10.42,4.67,10.42,10.42v73.22C1172.81,361.22,1168.14,365.9,1162.39,365.9z"/>
	</g>
	<g>
		<path class="st6" d="M1083.74,342.17c0-2.94,2.67-5.32,5.95-5.32h71.02c3.29,0,5.96,2.38,5.96,5.32v10.64
			c0,2.94-2.67,5.32-5.96,5.32h-71.02c-3.29,0-5.95-2.38-5.95-5.32V342.17L1083.74,342.17z M1155.07,344.17
			c-1.83,0-3.31,1.48-3.31,3.31c0,1.83,1.48,3.3,3.31,3.3c1.83,0,3.31-1.48,3.31-3.3C1158.38,345.66,1156.9,344.17,1155.07,344.17
			L1155.07,344.17z"/>
	</g>
	<g>
		<path class="st6" d="M1083.74,313.09c0-2.94,2.67-5.32,5.95-5.32h71.02c3.29,0,5.96,2.38,5.96,5.32v10.64
			c0,2.94-2.67,5.32-5.96,5.32h-71.02c-3.29,0-5.95-2.38-5.95-5.32V313.09L1083.74,313.09z M1155.07,315.1
			c-1.83,0-3.31,1.48-3.31,3.31c0,1.83,1.48,3.3,3.31,3.3c1.83,0,3.31-1.48,3.31-3.3C1158.38,316.58,1156.9,315.1,1155.07,315.1
			L1155.07,315.1z"/>
	</g>
	<g>
		<path class="st6" d="M1083.74,284.02c0-2.94,2.67-5.32,5.95-5.32h71.02c3.29,0,5.96,2.38,5.96,5.32v10.64
			c0,2.94-2.67,5.32-5.96,5.32h-71.02c-3.29,0-5.95-2.38-5.95-5.32V284.02L1083.74,284.02z M1155.07,286.03
			c-1.83,0-3.31,1.48-3.31,3.31c0,1.83,1.48,3.3,3.31,3.3c1.83,0,3.31-1.48,3.31-3.3C1158.38,287.51,1156.9,286.03,1155.07,286.03
			L1155.07,286.03z"/>
	</g>
	<g>
		<path class="st6" d="M1125.21,375.15c3.07,0,5.55,2.48,5.55,5.55c0,3.06-2.48,5.55-5.55,5.55c-3.07,0-5.55-2.49-5.55-5.55
			C1119.66,377.63,1122.14,375.15,1125.21,375.15L1125.21,375.15z"/>
	</g>
	<line class="st7" x1="1104.26" y1="380.63" x2="1119.27" y2="380.63"/>
	<line class="st7" x1="1131.77" y1="380.63" x2="1146.78" y2="380.63"/>
	<line class="st7" x1="1125.21" y1="366.25" x2="1125.21" y2="375"/>
</g>
<circle class="st0" cx="802.93" cy="593.13" r="125.87"/>
<g>
	<g>
		<path class="st2" d="M786.56,635.44h-74.37c-5.74,0-10.41-4.67-10.41-10.42V551.8c0-5.75,4.67-10.42,10.41-10.42h74.37
			c5.74,0,10.42,4.67,10.42,10.42v73.22C796.98,630.76,792.31,635.44,786.56,635.44z"/>
	</g>
	<g>
		<path class="st6" d="M707.92,611.71c0-2.93,2.67-5.32,5.95-5.32h71.02c3.29,0,5.96,2.38,5.96,5.32v10.64
			c0,2.94-2.67,5.32-5.96,5.32h-71.02c-3.29,0-5.95-2.38-5.95-5.32V611.71L707.92,611.71z M779.24,613.71
			c-1.83,0-3.31,1.48-3.31,3.31c0,1.83,1.48,3.3,3.31,3.3c1.83,0,3.31-1.48,3.31-3.3C782.55,615.2,781.07,613.71,779.24,613.71
			L779.24,613.71z"/>
	</g>
	<g>
		<path class="st6" d="M707.92,582.63c0-2.94,2.67-5.32,5.95-5.32h71.02c3.29,0,5.96,2.38,5.96,5.32v10.64
			c0,2.94-2.67,5.32-5.96,5.32h-71.02c-3.29,0-5.95-2.38-5.95-5.32V582.63L707.92,582.63z M779.24,584.64
			c-1.83,0-3.31,1.48-3.31,3.31c0,1.83,1.48,3.3,3.31,3.3c1.83,0,3.31-1.48,3.31-3.3C782.55,586.12,781.07,584.64,779.24,584.64
			L779.24,584.64z"/>
	</g>
	<g>
		<path class="st6" d="M707.92,553.56c0-2.94,2.67-5.32,5.95-5.32h71.02c3.29,0,5.96,2.38,5.96,5.32v10.64
			c0,2.94-2.67,5.32-5.96,5.32h-71.02c-3.29,0-5.95-2.38-5.95-5.32V553.56L707.92,553.56z M779.24,555.57
			c-1.83,0-3.31,1.48-3.31,3.31c0,1.83,1.48,3.3,3.31,3.3c1.83,0,3.31-1.48,3.31-3.3C782.55,557.05,781.07,555.57,779.24,555.57
			L779.24,555.57z"/>
	</g>
	<g>
		<path class="st6" d="M749.38,644.69c3.07,0,5.55,2.48,5.55,5.55c0,3.06-2.48,5.55-5.55,5.55c-3.07,0-5.55-2.49-5.55-5.55
			C743.83,647.18,746.31,644.69,749.38,644.69L749.38,644.69z"/>
	</g>
	<line class="st7" x1="728.43" y1="650.17" x2="743.44" y2="650.17"/>
	<line class="st7" x1="755.94" y1="650.17" x2="770.95" y2="650.17"/>
	<line class="st7" x1="749.38" y1="635.79" x2="749.38" y2="644.54"/>
</g>
<g>
	<g>
		<path class="st2" d="M892.85,635.44h-74.37c-5.74,0-10.41-4.67-10.41-10.42V551.8c0-5.75,4.67-10.42,10.41-10.42h74.37
			c5.74,0,10.42,4.67,10.42,10.42v73.22C903.27,630.76,898.6,635.44,892.85,635.44z"/>
	</g>
	<g>
		<path class="st6" d="M814.2,611.71c0-2.93,2.67-5.32,5.95-5.32h71.02c3.29,0,5.96,2.38,5.96,5.32v10.64
			c0,2.94-2.67,5.32-5.96,5.32h-71.02c-3.29,0-5.95-2.38-5.95-5.32V611.71L814.2,611.71z M885.53,613.71
			c-1.83,0-3.31,1.48-3.31,3.31c0,1.83,1.48,3.3,3.31,3.3c1.83,0,3.31-1.48,3.31-3.3C888.84,615.2,887.35,613.71,885.53,613.71
			L885.53,613.71z"/>
	</g>
	<g>
		<path class="st6" d="M814.2,582.63c0-2.94,2.67-5.32,5.95-5.32h71.02c3.29,0,5.96,2.38,5.96,5.32v10.64
			c0,2.94-2.67,5.32-5.96,5.32h-71.02c-3.29,0-5.95-2.38-5.95-5.32V582.63L814.2,582.63z M885.53,584.64
			c-1.83,0-3.31,1.48-3.31,3.31c0,1.83,1.48,3.3,3.31,3.3c1.83,0,3.31-1.48,3.31-3.3C888.84,586.12,887.35,584.64,885.53,584.64
			L885.53,584.64z"/>
	</g>
	<g>
		<path class="st6" d="M814.2,553.56c0-2.94,2.67-5.32,5.95-5.32h71.02c3.29,0,5.96,2.38,5.96,5.32v10.64
			c0,2.94-2.67,5.32-5.96,5.32h-71.02c-3.29,0-5.95-2.38-5.95-5.32V553.56L814.2,553.56z M885.53,555.57
			c-1.83,0-3.31,1.48-3.31,3.31c0,1.83,1.48,3.3,3.31,3.3c1.83,0,3.31-1.48,3.31-3.3C888.84,557.05,887.35,555.57,885.53,555.57
			L885.53,555.57z"/>
	</g>
	<g>
		<path class="st6" d="M855.67,644.69c3.07,0,5.55,2.48,5.55,5.55c0,3.06-2.48,5.55-5.55,5.55c-3.07,0-5.55-2.49-5.55-5.55
			C850.12,647.18,852.6,644.69,855.67,644.69L855.67,644.69z"/>
	</g>
	<line class="st7" x1="834.72" y1="650.17" x2="849.73" y2="650.17"/>
	<line class="st7" x1="862.23" y1="650.17" x2="877.24" y2="650.17"/>
	<line class="st7" x1="855.67" y1="635.79" x2="855.67" y2="644.54"/>
</g>
<circle class="st0" cx="1072.47" cy="593.13" r="125.87"/>
<g>
	<g>
		<path class="st2" d="M1056.1,635.44h-74.37c-5.74,0-10.41-4.67-10.41-10.42V551.8c0-5.75,4.67-10.42,10.41-10.42h74.37
			c5.74,0,10.42,4.67,10.42,10.42v73.22C1066.52,630.76,1061.85,635.44,1056.1,635.44z"/>
	</g>
	<g>
		<path class="st6" d="M977.46,611.71c0-2.93,2.67-5.32,5.95-5.32h71.02c3.29,0,5.96,2.38,5.96,5.32v10.64
			c0,2.94-2.67,5.32-5.96,5.32h-71.02c-3.29,0-5.95-2.38-5.95-5.32V611.71L977.46,611.71z M1048.78,613.71
			c-1.83,0-3.31,1.48-3.31,3.31c0,1.83,1.48,3.3,3.31,3.3c1.83,0,3.31-1.48,3.31-3.3C1052.09,615.2,1050.61,613.71,1048.78,613.71
			L1048.78,613.71z"/>
	</g>
	<g>
		<path class="st6" d="M977.46,582.63c0-2.94,2.67-5.32,5.95-5.32h71.02c3.29,0,5.96,2.38,5.96,5.32v10.64
			c0,2.94-2.67,5.32-5.96,5.32h-71.02c-3.29,0-5.95-2.38-5.95-5.32V582.63L977.46,582.63z M1048.78,584.64
			c-1.83,0-3.31,1.48-3.31,3.31c0,1.83,1.48,3.3,3.31,3.3c1.83,0,3.31-1.48,3.31-3.3C1052.09,586.12,1050.61,584.64,1048.78,584.64
			L1048.78,584.64z"/>
	</g>
	<g>
		<path class="st6" d="M977.46,553.56c0-2.94,2.67-5.32,5.95-5.32h71.02c3.29,0,5.96,2.38,5.96,5.32v10.64
			c0,2.94-2.67,5.32-5.96,5.32h-71.02c-3.29,0-5.95-2.38-5.95-5.32V553.56L977.46,553.56z M1048.78,555.57
			c-1.83,0-3.31,1.48-3.31,3.31c0,1.83,1.48,3.3,3.31,3.3c1.83,0,3.31-1.48,3.31-3.3C1052.09,557.05,1050.61,555.57,1048.78,555.57
			L1048.78,555.57z"/>
	</g>
	<g>
		<path class="st6" d="M1018.92,644.69c3.07,0,5.55,2.48,5.55,5.55c0,3.06-2.48,5.55-5.55,5.55c-3.07,0-5.55-2.49-5.55-5.55
			C1013.37,647.18,1015.85,644.69,1018.92,644.69L1018.92,644.69z"/>
	</g>
	<line class="st7" x1="997.98" y1="650.17" x2="1012.98" y2="650.17"/>
	<line class="st7" x1="1025.49" y1="650.17" x2="1040.49" y2="650.17"/>
	<line class="st7" x1="1018.92" y1="635.79" x2="1018.92" y2="644.54"/>
</g>
<g>
	<g>
		<path class="st2" d="M1162.39,635.44h-74.37c-5.74,0-10.41-4.67-10.41-10.42V551.8c0-5.75,4.67-10.42,10.41-10.42h74.37
			c5.74,0,10.42,4.67,10.42,10.42v73.22C1172.81,630.76,1168.14,635.44,1162.39,635.44z"/>
	</g>
	<g>
		<path class="st6" d="M1083.74,611.71c0-2.93,2.67-5.32,5.95-5.32h71.02c3.29,0,5.96,2.38,5.96,5.32v10.64
			c0,2.94-2.67,5.32-5.96,5.32h-71.02c-3.29,0-5.95-2.38-5.95-5.32V611.71L1083.74,611.71z M1155.07,613.71
			c-1.83,0-3.31,1.48-3.31,3.31c0,1.83,1.48,3.3,3.31,3.3c1.83,0,3.31-1.48,3.31-3.3C1158.38,615.2,1156.9,613.71,1155.07,613.71
			L1155.07,613.71z"/>
	</g>
	<g>
		<path class="st6" d="M1083.74,582.63c0-2.94,2.67-5.32,5.95-5.32h71.02c3.29,0,5.96,2.38,5.96,5.32v10.64
			c0,2.94-2.67,5.32-5.96,5.32h-71.02c-3.29,0-5.95-2.38-5.95-5.32V582.63L1083.74,582.63z M1155.07,584.64
			c-1.83,0-3.31,1.48-3.31,3.31c0,1.83,1.48,3.3,3.31,3.3c1.83,0,3.31-1.48,3.31-3.3C1158.38,586.12,1156.9,584.64,1155.07,584.64
			L1155.07,584.64z"/>
	</g>
	<g>
		<path class="st6" d="M1083.74,553.56c0-2.94,2.67-5.32,5.95-5.32h71.02c3.29,0,5.96,2.38,5.96,5.32v10.64
			c0,2.94-2.67,5.32-5.96,5.32h-71.02c-3.29,0-5.95-2.38-5.95-5.32V553.56L1083.74,553.56z M1155.07,555.57
			c-1.83,0-3.31,1.48-3.31,3.31c0,1.83,1.48,3.3,3.31,3.3c1.83,0,3.31-1.48,3.31-3.3C1158.38,557.05,1156.9,555.57,1155.07,555.57
			L1155.07,555.57z"/>
	</g>
	<g>
		<path class="st6" d="M1125.21,644.69c3.07,0,5.55,2.48,5.55,5.55c0,3.06-2.48,5.55-5.55,5.55c-3.07,0-5.55-2.49-5.55-5.55
			C1119.66,647.18,1122.14,644.69,1125.21,644.69L1125.21,644.69z"/>
	</g>
	<line class="st7" x1="1104.26" y1="650.17" x2="1119.27" y2="650.17"/>
	<line class="st7" x1="1131.77" y1="650.17" x2="1146.78" y2="650.17"/>
	<line class="st7" x1="1125.21" y1="635.79" x2="1125.21" y2="644.54"/>
</g>
<g>
	<line class="st8" x1="1241.46" y1="241.9" x2="1583.85" y2="241.9"/>
	<g>
		<polygon class="st9" points="1578.01,261.84 1612.55,241.9 1578.01,221.95 		"/>
	</g>
</g>
<g>
	<path class="st9" d="M1252.92,214.65v11.02h-3.71v-28.16h10.39c3.08,0,5.5,0.79,7.24,2.36c1.75,1.57,2.62,3.66,2.62,6.25
		c0,2.73-0.85,4.84-2.56,6.31c-1.71,1.48-4.16,2.21-7.34,2.21H1252.92z M1252.92,211.62h6.67c1.99,0,3.51-0.47,4.56-1.4
		c1.06-0.94,1.59-2.29,1.59-4.06c0-1.68-0.53-3.02-1.59-4.03c-1.06-1.01-2.51-1.53-4.35-1.57h-6.89V211.62z"/>
	<path class="st9" d="M1294.03,197.52v19.15c-0.01,2.66-0.85,4.83-2.5,6.52c-1.66,1.69-3.9,2.64-6.74,2.84l-0.99,0.04
		c-3.08,0-5.54-0.83-7.37-2.5c-1.83-1.66-2.76-3.95-2.79-6.87v-19.19h3.67v19.07c0,2.04,0.56,3.62,1.68,4.75
		c1.12,1.13,2.72,1.69,4.8,1.69c2.1,0,3.71-0.56,4.83-1.68c1.12-1.12,1.67-2.7,1.67-4.74v-19.09H1294.03z"/>
	<path class="st9" d="M1299.89,225.68v-28.16h9.21c3.06,0,5.35,0.63,6.9,1.9c1.54,1.26,2.31,3.13,2.31,5.61
		c0,1.32-0.37,2.48-1.12,3.49c-0.75,1.01-1.77,1.8-3.06,2.35c1.52,0.43,2.72,1.23,3.61,2.43c0.88,1.19,1.33,2.61,1.33,4.27
		c0,2.53-0.82,4.51-2.46,5.96c-1.64,1.44-3.95,2.17-6.94,2.17H1299.89z M1303.6,209.53h5.61c1.62,0,2.92-0.41,3.9-1.22
		c0.97-0.81,1.46-1.92,1.46-3.31c0-1.55-0.45-2.68-1.35-3.38c-0.9-0.7-2.28-1.06-4.12-1.06h-5.49V209.53z M1303.6,212.51v10.14h6.13
		c1.73,0,3.09-0.45,4.09-1.34c1-0.9,1.5-2.13,1.5-3.7c0-3.39-1.84-5.09-5.53-5.09H1303.6z"/>
	<path class="st9" d="M1328.28,222.64h13.35v3.04h-17.08v-28.16h3.73V222.64z"/>
	<path class="st9" d="M1349.85,225.68h-3.71v-28.16h3.71V225.68z"/>
	<path class="st9" d="M1364.93,213.13c-3.18-0.92-5.5-2.04-6.95-3.38c-1.45-1.33-2.18-2.98-2.18-4.94c0-2.22,0.89-4.05,2.66-5.5
		c1.77-1.45,4.08-2.18,6.92-2.18c1.93,0,3.66,0.37,5.17,1.12c1.51,0.75,2.69,1.78,3.52,3.09c0.83,1.31,1.25,2.75,1.25,4.31h-3.73
		c0-1.71-0.54-3.05-1.62-4.03c-1.08-0.98-2.61-1.47-4.58-1.47c-1.83,0-3.26,0.4-4.28,1.21c-1.03,0.81-1.54,1.93-1.54,3.36
		c0,1.15,0.49,2.12,1.46,2.92c0.97,0.79,2.63,1.52,4.97,2.18c2.34,0.66,4.17,1.38,5.49,2.18c1.32,0.79,2.3,1.72,2.94,2.78
		c0.64,1.06,0.96,2.3,0.96,3.73c0,2.28-0.89,4.11-2.67,5.48c-1.78,1.37-4.16,2.06-7.14,2.06c-1.93,0-3.74-0.37-5.42-1.11
		c-1.68-0.74-2.97-1.76-3.88-3.05s-1.36-2.75-1.36-4.39h3.73c0,1.7,0.63,3.05,1.89,4.03c1.26,0.99,2.94,1.48,5.04,1.48
		c1.96,0,3.46-0.4,4.51-1.2c1.04-0.8,1.57-1.89,1.57-3.27s-0.48-2.45-1.45-3.2C1369.23,214.61,1367.47,213.86,1364.93,213.13z"/>
	<path class="st9" d="M1401.78,225.68h-3.73v-13.02h-14.2v13.02h-3.71v-28.16h3.71v12.11h14.2v-12.11h3.73V225.68z"/>
	<path class="st9" d="M1417.49,214.25c0-2.91,0.39-5.71,1.17-8.39c0.78-2.68,1.94-5.12,3.49-7.31c1.55-2.19,3.15-3.74,4.82-4.64
		l0.74,2.36c-1.88,1.44-3.43,3.65-4.63,6.61c-1.21,2.97-1.87,6.29-1.98,9.96l-0.02,1.64c0,4.98,0.91,9.3,2.73,12.96
		c1.1,2.19,2.4,3.91,3.91,5.15l-0.74,2.19c-1.71-0.95-3.35-2.55-4.91-4.8C1419.01,225.59,1417.49,220.35,1417.49,214.25z"/>
	<path class="st9" d="M1453.23,212.51c0,2.72-0.43,5.06-1.3,7.03c-0.86,1.97-2.08,3.5-3.64,4.61l5.03,3.95l-2.53,2.34l-5.94-4.72
		c-0.93,0.23-1.91,0.35-2.94,0.35c-2.22,0-4.18-0.54-5.9-1.63c-1.71-1.09-3.05-2.64-3.99-4.66c-0.95-2.02-1.43-4.35-1.46-7.01v-2.03
		c0-2.71,0.47-5.1,1.41-7.18c0.94-2.08,2.27-3.67,3.99-4.77c1.72-1.1,3.69-1.65,5.91-1.65c2.27,0,4.27,0.55,5.99,1.64
		c1.72,1.1,3.05,2.67,3.98,4.73c0.93,2.06,1.39,4.46,1.39,7.2V212.51z M1449.52,210.69c0-3.31-0.66-5.87-1.98-7.67
		c-1.32-1.8-3.21-2.7-5.66-2.7c-2.33,0-4.17,0.89-5.52,2.68c-1.35,1.79-2.04,4.26-2.08,7.44v2.07c0,3.22,0.67,5.76,2.02,7.62
		c1.35,1.86,3.22,2.79,5.62,2.79s4.25-0.87,5.57-2.62c1.32-1.75,1.99-4.25,2.03-7.51V210.69z"/>
	<path class="st9" d="M1457.45,215.02c0-2.05,0.4-3.89,1.21-5.53s1.93-2.9,3.37-3.79c1.44-0.89,3.08-1.33,4.92-1.33
		c2.85,0,5.15,0.99,6.92,2.96c1.76,1.97,2.64,4.6,2.64,7.87v0.25c0,2.04-0.39,3.87-1.17,5.48c-0.78,1.62-1.9,2.88-3.35,3.78
		c-1.45,0.9-3.12,1.35-5,1.35c-2.84,0-5.14-0.99-6.9-2.96c-1.76-1.97-2.64-4.58-2.64-7.83V215.02z M1461.04,215.45
		c0,2.32,0.54,4.18,1.62,5.59c1.08,1.41,2.52,2.11,4.32,2.11c1.82,0,3.26-0.71,4.33-2.14s1.61-3.42,1.61-5.99
		c0-2.3-0.54-4.16-1.63-5.58c-1.09-1.42-2.54-2.14-4.34-2.14c-1.77,0-3.19,0.7-4.27,2.11
		C1461.58,210.82,1461.04,212.83,1461.04,215.45z"/>
	<path class="st9" d="M1489.84,213.13c-3.18-0.92-5.5-2.04-6.95-3.38c-1.45-1.33-2.18-2.98-2.18-4.94c0-2.22,0.89-4.05,2.66-5.5
		c1.77-1.45,4.08-2.18,6.92-2.18c1.93,0,3.66,0.37,5.17,1.12c1.51,0.75,2.69,1.78,3.52,3.09c0.83,1.31,1.25,2.75,1.25,4.31h-3.73
		c0-1.71-0.54-3.05-1.62-4.03c-1.08-0.98-2.61-1.47-4.58-1.47c-1.83,0-3.26,0.4-4.28,1.21c-1.03,0.81-1.54,1.93-1.54,3.36
		c0,1.15,0.49,2.12,1.46,2.92c0.97,0.79,2.63,1.52,4.97,2.18c2.34,0.66,4.17,1.38,5.49,2.18c1.32,0.79,2.3,1.72,2.94,2.78
		c0.64,1.06,0.96,2.3,0.96,3.73c0,2.28-0.89,4.11-2.67,5.48c-1.78,1.37-4.16,2.06-7.14,2.06c-1.93,0-3.74-0.37-5.42-1.11
		c-1.68-0.74-2.97-1.76-3.88-3.05s-1.36-2.75-1.36-4.39h3.73c0,1.7,0.63,3.05,1.89,4.03c1.26,0.99,2.94,1.48,5.04,1.48
		c1.96,0,3.46-0.4,4.51-1.2c1.04-0.8,1.57-1.89,1.57-3.27s-0.48-2.45-1.45-3.2C1494.14,214.61,1492.38,213.86,1489.84,213.13z"/>
	<path class="st9" d="M1525.68,225.68h-3.6v-23.85l-7.21,2.65v-3.25l10.25-3.85h0.56V225.68z"/>
	<path class="st9" d="M1544.79,214.44c0,2.88-0.38,5.63-1.13,8.27c-0.75,2.64-1.91,5.07-3.46,7.3s-3.18,3.82-4.88,4.76l-0.75-2.19
		c1.99-1.52,3.58-3.88,4.79-7.09c1.21-3.2,1.82-6.76,1.85-10.67v-0.62c0-2.71-0.28-5.23-0.85-7.55c-0.57-2.33-1.36-4.41-2.37-6.26
		c-1.01-1.84-2.15-3.28-3.41-4.31l0.75-2.19c1.7,0.94,3.32,2.51,4.86,4.72c1.54,2.2,2.7,4.64,3.46,7.29
		C1544.41,208.57,1544.79,211.41,1544.79,214.44z"/>
</g>
<g>
	<path d="M1640.21,393.13c-3.18-0.92-5.5-2.04-6.95-3.38c-1.45-1.33-2.18-2.98-2.18-4.94c0-2.22,0.89-4.05,2.66-5.5
		c1.77-1.45,4.08-2.18,6.92-2.18c1.93,0,3.66,0.37,5.17,1.12c1.51,0.75,2.69,1.78,3.52,3.09c0.83,1.31,1.25,2.75,1.25,4.31h-3.73
		c0-1.71-0.54-3.05-1.62-4.03c-1.08-0.98-2.61-1.47-4.58-1.47c-1.83,0-3.26,0.4-4.28,1.21c-1.03,0.81-1.54,1.93-1.54,3.36
		c0,1.15,0.49,2.12,1.46,2.92c0.97,0.79,2.63,1.52,4.97,2.18c2.34,0.66,4.17,1.38,5.49,2.18c1.32,0.79,2.3,1.72,2.94,2.78
		c0.64,1.06,0.96,2.3,0.96,3.73c0,2.28-0.89,4.11-2.67,5.48c-1.78,1.37-4.16,2.06-7.14,2.06c-1.93,0-3.74-0.37-5.42-1.11
		c-1.68-0.74-2.97-1.76-3.88-3.05s-1.36-2.75-1.36-4.39h3.73c0,1.7,0.63,3.05,1.89,4.03c1.26,0.99,2.94,1.48,5.04,1.48
		c1.96,0,3.46-0.4,4.51-1.2c1.04-0.8,1.57-1.89,1.57-3.27s-0.48-2.45-1.45-3.2C1644.5,394.61,1642.75,393.86,1640.21,393.13z"/>
	<path d="M1667.77,403.61c-1.39,1.64-3.44,2.46-6.13,2.46c-2.23,0-3.93-0.65-5.1-1.94s-1.76-3.21-1.77-5.75v-13.62h3.58v13.52
		c0,3.17,1.29,4.76,3.87,4.76c2.73,0,4.55-1.02,5.45-3.06v-15.22h3.58v20.93h-3.4L1667.77,403.61z"/>
	<path d="M1694.41,395.45c0,3.2-0.73,5.77-2.21,7.71c-1.47,1.94-3.44,2.91-5.92,2.91c-2.64,0-4.69-0.93-6.13-2.8l-0.17,2.42h-3.29
		v-29.71h3.58v11.08c1.44-1.79,3.44-2.69,5.98-2.69s4.54,0.96,5.99,2.88c1.45,1.92,2.18,4.55,2.18,7.89V395.45z M1690.83,395.04
		c0-2.44-0.47-4.32-1.41-5.65s-2.29-1.99-4.06-1.99c-2.36,0-4.06,1.1-5.09,3.29v9.05c1.1,2.19,2.8,3.29,5.13,3.29
		c1.71,0,3.05-0.66,4-1.99S1690.83,397.71,1690.83,395.04z"/>
	<path d="M1711.1,400.13c0-0.97-0.37-1.72-1.09-2.25c-0.73-0.53-2-1-3.81-1.38s-3.25-0.85-4.31-1.39s-1.85-1.19-2.36-1.93
		c-0.51-0.75-0.76-1.64-0.76-2.67c0-1.71,0.73-3.17,2.18-4.35c1.45-1.19,3.3-1.78,5.56-1.78c2.37,0,4.3,0.61,5.77,1.84
		s2.21,2.79,2.21,4.7h-3.6c0-0.98-0.42-1.82-1.25-2.53c-0.83-0.71-1.88-1.06-3.14-1.06c-1.3,0-2.32,0.28-3.06,0.85
		c-0.73,0.57-1.1,1.31-1.1,2.22c0,0.86,0.34,1.52,1.02,1.95s1.92,0.86,3.7,1.26c1.79,0.4,3.23,0.88,4.34,1.43
		c1.11,0.55,1.93,1.22,2.47,2s0.8,1.73,0.8,2.85c0,1.87-0.75,3.37-2.24,4.5c-1.5,1.13-3.44,1.69-5.82,1.69
		c-1.68,0-3.16-0.3-4.45-0.89s-2.3-1.42-3.03-2.49c-0.73-1.06-1.09-2.21-1.09-3.45h3.58c0.06,1.2,0.54,2.15,1.44,2.85
		c0.9,0.7,2.08,1.05,3.55,1.05c1.35,0,2.44-0.27,3.26-0.82C1710.69,401.78,1711.1,401.04,1711.1,400.13z"/>
	<path d="M1727.73,403.15c1.28,0,2.39-0.39,3.35-1.16c0.95-0.77,1.48-1.74,1.59-2.9h3.38c-0.06,1.2-0.48,2.34-1.24,3.42
		c-0.76,1.08-1.78,1.95-3.05,2.59c-1.27,0.64-2.61,0.97-4.03,0.97c-2.85,0-5.12-0.95-6.8-2.85c-1.68-1.9-2.52-4.5-2.52-7.8v-0.6
		c0-2.04,0.37-3.85,1.12-5.44s1.82-2.82,3.22-3.69c1.4-0.88,3.05-1.32,4.96-1.32c2.35,0,4.3,0.7,5.85,2.11
		c1.55,1.41,2.38,3.23,2.49,5.47h-3.38c-0.1-1.35-0.62-2.47-1.54-3.34c-0.92-0.87-2.06-1.31-3.41-1.31c-1.82,0-3.23,0.65-4.23,1.96
		c-1,1.31-1.5,3.2-1.5,5.68v0.68c0,2.41,0.5,4.27,1.49,5.57C1724.47,402.5,1725.89,403.15,1727.73,403.15z"/>
	<path d="M1750.19,387.96c-0.54-0.09-1.13-0.14-1.76-0.14c-2.35,0-3.94,1-4.78,3v14.85h-3.58v-20.93h3.48l0.06,2.42
		c1.17-1.87,2.84-2.8,4.99-2.8c0.7,0,1.23,0.09,1.59,0.27V387.96z"/>
	<path d="M1753.5,379.2c0-0.58,0.18-1.07,0.53-1.47c0.35-0.4,0.88-0.6,1.58-0.6s1.22,0.2,1.59,0.6c0.36,0.4,0.54,0.89,0.54,1.47
		s-0.18,1.06-0.54,1.45c-0.36,0.39-0.89,0.58-1.59,0.58s-1.22-0.19-1.58-0.58S1753.5,379.78,1753.5,379.2z M1757.36,405.68h-3.58
		v-20.93h3.58V405.68z"/>
	<path d="M1780.81,395.45c0,3.2-0.73,5.77-2.21,7.71c-1.47,1.94-3.44,2.91-5.92,2.91c-2.64,0-4.69-0.93-6.13-2.8l-0.17,2.42h-3.29
		v-29.71h3.58v11.08c1.44-1.79,3.44-2.69,5.98-2.69s4.54,0.96,5.99,2.88c1.45,1.92,2.18,4.55,2.18,7.89V395.45z M1777.23,395.04
		c0-2.44-0.47-4.32-1.41-5.65s-2.29-1.99-4.06-1.99c-2.36,0-4.06,1.1-5.09,3.29v9.05c1.1,2.19,2.8,3.29,5.13,3.29
		c1.71,0,3.05-0.66,4-1.99S1777.23,397.71,1777.23,395.04z"/>
	<path d="M1794,406.07c-2.84,0-5.15-0.93-6.92-2.79c-1.78-1.86-2.67-4.35-2.67-7.48v-0.66c0-2.08,0.4-3.93,1.19-5.56
		s1.9-2.91,3.33-3.83s2.97-1.38,4.63-1.38c2.72,0,4.84,0.9,6.34,2.69c1.51,1.79,2.26,4.36,2.26,7.7v1.49h-14.18
		c0.05,2.06,0.65,3.73,1.81,5s2.62,1.91,4.4,1.91c1.26,0,2.33-0.26,3.21-0.77c0.88-0.52,1.64-1.2,2.3-2.05l2.19,1.7
		C1800.13,404.72,1797.5,406.07,1794,406.07z M1793.55,387.3c-1.44,0-2.66,0.53-3.64,1.58c-0.98,1.05-1.59,2.52-1.82,4.42h10.48
		v-0.27c-0.1-1.82-0.59-3.23-1.47-4.23C1796.23,387.8,1795.05,387.3,1793.55,387.3z"/>
	<path d="M1816.41,387.96c-0.54-0.09-1.13-0.14-1.76-0.14c-2.35,0-3.94,1-4.78,3v14.85h-3.58v-20.93h3.48l0.06,2.42
		c1.17-1.87,2.84-2.8,4.99-2.8c0.7,0,1.23,0.09,1.59,0.27V387.96z"/>
	<path d="M1841.6,397.77h-5.11l-1.55,7.91h-2.77l1.55-7.91h-4.62v-2.67h5.13l1.33-6.87h-4.99v-2.67h5.51l1.59-8.05h2.77l-1.59,8.05
		h5.11l1.59-8.05h2.79l-1.59,8.05h3.95v2.67h-4.47l-1.33,6.87h4.35v2.67h-4.85l-1.55,7.91h-2.79L1841.6,397.77z M1837,395.1h5.11
		l1.33-6.87h-5.11L1837,395.1z"/>
	<path d="M1865.29,405.68h-3.6v-23.85l-7.21,2.65v-3.25l10.25-3.85h0.56V405.68z"/>
	<path d="M1728.03,440.04c0,2.72-0.43,5.06-1.3,7.03c-0.86,1.97-2.08,3.5-3.64,4.61l5.03,3.95l-2.53,2.34l-5.94-4.72
		c-0.93,0.23-1.91,0.35-2.94,0.35c-2.22,0-4.18-0.54-5.9-1.63c-1.71-1.09-3.05-2.64-3.99-4.66c-0.95-2.02-1.43-4.35-1.46-7.01v-2.03
		c0-2.71,0.47-5.1,1.41-7.18c0.94-2.08,2.27-3.67,3.99-4.77c1.72-1.1,3.69-1.65,5.91-1.65c2.27,0,4.27,0.55,5.99,1.64
		c1.72,1.1,3.05,2.67,3.98,4.73c0.93,2.06,1.39,4.46,1.39,7.2V440.04z M1724.32,438.22c0-3.31-0.66-5.87-1.98-7.67
		c-1.32-1.8-3.21-2.7-5.66-2.7c-2.33,0-4.17,0.89-5.52,2.68c-1.35,1.79-2.04,4.26-2.08,7.44v2.07c0,3.22,0.67,5.76,2.02,7.62
		c1.35,1.86,3.22,2.79,5.62,2.79s4.25-0.87,5.57-2.62c1.32-1.75,1.99-4.25,2.03-7.51V438.22z"/>
	<path d="M1732.25,442.56c0-2.05,0.4-3.89,1.21-5.53s1.93-2.9,3.37-3.79c1.44-0.89,3.08-1.33,4.92-1.33c2.85,0,5.15,0.99,6.92,2.96
		c1.76,1.97,2.64,4.6,2.64,7.87v0.25c0,2.04-0.39,3.87-1.17,5.48c-0.78,1.62-1.9,2.88-3.35,3.78c-1.45,0.9-3.12,1.35-5,1.35
		c-2.84,0-5.14-0.99-6.9-2.96c-1.76-1.97-2.64-4.58-2.64-7.83V442.56z M1735.85,442.98c0,2.32,0.54,4.18,1.62,5.59
		c1.08,1.41,2.52,2.11,4.32,2.11c1.82,0,3.26-0.71,4.33-2.14s1.61-3.42,1.61-5.99c0-2.3-0.54-4.16-1.63-5.58
		c-1.09-1.42-2.54-2.14-4.34-2.14c-1.77,0-3.19,0.7-4.27,2.11C1736.39,438.35,1735.85,440.36,1735.85,442.98z"/>
	<path d="M1764.65,440.66c-3.18-0.92-5.5-2.04-6.95-3.38c-1.45-1.33-2.18-2.98-2.18-4.94c0-2.22,0.89-4.05,2.66-5.5
		c1.77-1.45,4.08-2.18,6.92-2.18c1.93,0,3.66,0.37,5.17,1.12c1.51,0.75,2.69,1.78,3.52,3.09c0.83,1.31,1.25,2.75,1.25,4.31h-3.73
		c0-1.71-0.54-3.05-1.62-4.03c-1.08-0.98-2.61-1.47-4.58-1.47c-1.83,0-3.26,0.4-4.28,1.21c-1.03,0.81-1.54,1.93-1.54,3.36
		c0,1.15,0.49,2.12,1.46,2.92c0.97,0.79,2.63,1.52,4.97,2.18c2.34,0.66,4.17,1.38,5.49,2.18c1.32,0.79,2.3,1.72,2.94,2.78
		c0.64,1.06,0.96,2.3,0.96,3.73c0,2.28-0.89,4.11-2.67,5.48c-1.78,1.37-4.16,2.06-7.14,2.06c-1.93,0-3.74-0.37-5.42-1.11
		c-1.68-0.74-2.97-1.76-3.88-3.05s-1.36-2.75-1.36-4.39h3.73c0,1.7,0.63,3.05,1.89,4.03c1.26,0.99,2.94,1.48,5.04,1.48
		c1.96,0,3.46-0.4,4.51-1.2c1.04-0.8,1.57-1.89,1.57-3.27s-0.48-2.45-1.45-3.2C1768.94,442.14,1767.19,441.4,1764.65,440.66z"/>
	<path d="M1800.49,453.21h-3.6v-23.85l-7.21,2.65v-3.25l10.25-3.85h0.56V453.21z"/>
</g>
<circle class="st0" cx="1755.94" cy="598.16" r="107.94"/>
<g>
	<path class="st2" d="M1823.19,586.52h-133.65c-4.4,0-8-3.6-8-8v-26.25c0-4.4,3.6-8,8-8h133.65c4.4,0,8,3.6,8,8v26.25
		C1831.19,582.92,1827.59,586.52,1823.19,586.52z"/>
	<circle cx="1706.19" cy="566.42" r="5.28"/>
	<circle cx="1724.67" cy="566.42" r="5.28"/>
	<circle class="st3" cx="1743.16" cy="566.42" r="5.28"/>
	<path class="st2" d="M1823.19,639.34h-133.65c-4.4,0-8-3.6-8-8v-26.25c0-4.4,3.6-8,8-8h133.65c4.4,0,8,3.6,8,8v26.25
		C1831.19,635.74,1827.59,639.34,1823.19,639.34z"/>
	<circle cx="1706.19" cy="619.24" r="5.28"/>
	<circle cx="1724.67" cy="619.24" r="5.28"/>
	<circle class="st3" cx="1743.16" cy="619.24" r="5.28"/>
	<line class="st4" x1="1700.03" y1="650.34" x2="1700.03" y2="639.78"/>
	<line class="st4" x1="1814.46" y1="650.34" x2="1814.46" y2="639.78"/>
</g>
<g>
	<path d="M1640.21,743.13c-3.18-0.92-5.5-2.04-6.95-3.38c-1.45-1.33-2.18-2.98-2.18-4.94c0-2.22,0.89-4.05,2.66-5.5
		c1.77-1.45,4.08-2.18,6.92-2.18c1.93,0,3.66,0.37,5.17,1.12c1.51,0.75,2.69,1.78,3.52,3.09c0.83,1.31,1.25,2.75,1.25,4.31h-3.73
		c0-1.71-0.54-3.05-1.62-4.03c-1.08-0.98-2.61-1.47-4.58-1.47c-1.83,0-3.26,0.4-4.28,1.21c-1.03,0.81-1.54,1.93-1.54,3.36
		c0,1.15,0.49,2.12,1.46,2.92c0.97,0.79,2.63,1.52,4.97,2.18c2.34,0.66,4.17,1.38,5.49,2.18c1.32,0.79,2.3,1.72,2.94,2.78
		c0.64,1.06,0.96,2.3,0.96,3.73c0,2.28-0.89,4.11-2.67,5.48c-1.78,1.37-4.16,2.06-7.14,2.06c-1.93,0-3.74-0.37-5.42-1.11
		c-1.68-0.74-2.97-1.76-3.88-3.05s-1.36-2.75-1.36-4.39h3.73c0,1.7,0.63,3.05,1.89,4.03c1.26,0.99,2.94,1.48,5.04,1.48
		c1.96,0,3.46-0.4,4.51-1.2c1.04-0.8,1.57-1.89,1.57-3.27s-0.48-2.45-1.45-3.2C1644.5,744.61,1642.75,743.86,1640.21,743.13z"/>
	<path d="M1667.77,753.61c-1.39,1.64-3.44,2.46-6.13,2.46c-2.23,0-3.93-0.65-5.1-1.94s-1.76-3.21-1.77-5.75v-13.62h3.58v13.52
		c0,3.17,1.29,4.76,3.87,4.76c2.73,0,4.55-1.02,5.45-3.06v-15.22h3.58v20.93h-3.4L1667.77,753.61z"/>
	<path d="M1694.41,745.45c0,3.2-0.73,5.77-2.21,7.71c-1.47,1.94-3.44,2.91-5.92,2.91c-2.64,0-4.69-0.93-6.13-2.8l-0.17,2.42h-3.29
		v-29.71h3.58v11.08c1.44-1.79,3.44-2.69,5.98-2.69s4.54,0.96,5.99,2.88c1.45,1.92,2.18,4.55,2.18,7.89V745.45z M1690.83,745.04
		c0-2.44-0.47-4.32-1.41-5.65s-2.29-1.99-4.06-1.99c-2.36,0-4.06,1.1-5.09,3.29v9.05c1.1,2.19,2.8,3.29,5.13,3.29
		c1.71,0,3.05-0.66,4-1.99S1690.83,747.71,1690.83,745.04z"/>
	<path d="M1711.1,750.13c0-0.97-0.37-1.72-1.09-2.25c-0.73-0.53-2-1-3.81-1.38s-3.25-0.85-4.31-1.39s-1.85-1.19-2.36-1.93
		c-0.51-0.75-0.76-1.64-0.76-2.67c0-1.71,0.73-3.17,2.18-4.35c1.45-1.19,3.3-1.78,5.56-1.78c2.37,0,4.3,0.61,5.77,1.84
		s2.21,2.79,2.21,4.7h-3.6c0-0.98-0.42-1.82-1.25-2.53c-0.83-0.71-1.88-1.06-3.14-1.06c-1.3,0-2.32,0.28-3.06,0.85
		c-0.73,0.57-1.1,1.31-1.1,2.22c0,0.86,0.34,1.52,1.02,1.95s1.92,0.86,3.7,1.26c1.79,0.4,3.23,0.88,4.34,1.43
		c1.11,0.55,1.93,1.22,2.47,2s0.8,1.73,0.8,2.85c0,1.87-0.75,3.37-2.24,4.5c-1.5,1.13-3.44,1.69-5.82,1.69
		c-1.68,0-3.16-0.3-4.45-0.89s-2.3-1.42-3.03-2.49c-0.73-1.06-1.09-2.21-1.09-3.45h3.58c0.06,1.2,0.54,2.15,1.44,2.85
		c0.9,0.7,2.08,1.05,3.55,1.05c1.35,0,2.44-0.27,3.26-0.82C1710.69,751.78,1711.1,751.04,1711.1,750.13z"/>
	<path d="M1727.73,753.15c1.28,0,2.39-0.39,3.35-1.16c0.95-0.77,1.48-1.74,1.59-2.9h3.38c-0.06,1.2-0.48,2.34-1.24,3.42
		c-0.76,1.08-1.78,1.95-3.05,2.59c-1.27,0.64-2.61,0.97-4.03,0.97c-2.85,0-5.12-0.95-6.8-2.85c-1.68-1.9-2.52-4.5-2.52-7.8v-0.6
		c0-2.04,0.37-3.85,1.12-5.44s1.82-2.82,3.22-3.69c1.4-0.88,3.05-1.32,4.96-1.32c2.35,0,4.3,0.7,5.85,2.11
		c1.55,1.41,2.38,3.23,2.49,5.47h-3.38c-0.1-1.35-0.62-2.47-1.54-3.34c-0.92-0.87-2.06-1.31-3.41-1.31c-1.82,0-3.23,0.65-4.23,1.96
		c-1,1.31-1.5,3.2-1.5,5.68v0.68c0,2.41,0.5,4.27,1.49,5.57C1724.47,752.5,1725.89,753.15,1727.73,753.15z"/>
	<path d="M1750.19,737.96c-0.54-0.09-1.13-0.14-1.76-0.14c-2.35,0-3.94,1-4.78,3v14.85h-3.58v-20.93h3.48l0.06,2.42
		c1.17-1.87,2.84-2.8,4.99-2.8c0.7,0,1.23,0.09,1.59,0.27V737.96z"/>
	<path d="M1753.5,729.2c0-0.58,0.18-1.07,0.53-1.47c0.35-0.4,0.88-0.6,1.58-0.6s1.22,0.2,1.59,0.6c0.36,0.4,0.54,0.89,0.54,1.47
		s-0.18,1.06-0.54,1.45c-0.36,0.39-0.89,0.58-1.59,0.58s-1.22-0.19-1.58-0.58S1753.5,729.78,1753.5,729.2z M1757.36,755.68h-3.58
		v-20.93h3.58V755.68z"/>
	<path d="M1780.81,745.45c0,3.2-0.73,5.77-2.21,7.71c-1.47,1.94-3.44,2.91-5.92,2.91c-2.64,0-4.69-0.93-6.13-2.8l-0.17,2.42h-3.29
		v-29.71h3.58v11.08c1.44-1.79,3.44-2.69,5.98-2.69s4.54,0.96,5.99,2.88c1.45,1.92,2.18,4.55,2.18,7.89V745.45z M1777.23,745.04
		c0-2.44-0.47-4.32-1.41-5.65s-2.29-1.99-4.06-1.99c-2.36,0-4.06,1.1-5.09,3.29v9.05c1.1,2.19,2.8,3.29,5.13,3.29
		c1.71,0,3.05-0.66,4-1.99S1777.23,747.71,1777.23,745.04z"/>
	<path d="M1794,756.07c-2.84,0-5.15-0.93-6.92-2.79c-1.78-1.86-2.67-4.35-2.67-7.48v-0.66c0-2.08,0.4-3.93,1.19-5.56
		s1.9-2.91,3.33-3.83s2.97-1.38,4.63-1.38c2.72,0,4.84,0.9,6.34,2.69c1.51,1.79,2.26,4.36,2.26,7.7v1.49h-14.18
		c0.05,2.06,0.65,3.73,1.81,5s2.62,1.91,4.4,1.91c1.26,0,2.33-0.26,3.21-0.77c0.88-0.52,1.64-1.2,2.3-2.05l2.19,1.7
		C1800.13,754.72,1797.5,756.07,1794,756.07z M1793.55,737.3c-1.44,0-2.66,0.53-3.64,1.58c-0.98,1.05-1.59,2.52-1.82,4.42h10.48
		v-0.27c-0.1-1.82-0.59-3.23-1.47-4.23C1796.23,737.8,1795.05,737.3,1793.55,737.3z"/>
	<path d="M1816.41,737.96c-0.54-0.09-1.13-0.14-1.76-0.14c-2.35,0-3.94,1-4.78,3v14.85h-3.58v-20.93h3.48l0.06,2.42
		c1.17-1.87,2.84-2.8,4.99-2.8c0.7,0,1.23,0.09,1.59,0.27V737.96z"/>
	<path d="M1841.6,747.77h-5.11l-1.55,7.91h-2.77l1.55-7.91h-4.62v-2.67h5.13l1.33-6.87h-4.99v-2.67h5.51l1.59-8.05h2.77l-1.59,8.05
		h5.11l1.59-8.05h2.79l-1.59,8.05h3.95v2.67h-4.47l-1.33,6.87h4.35v2.67h-4.85l-1.55,7.91h-2.79L1841.6,747.77z M1837,745.1h5.11
		l1.33-6.87h-5.11L1837,745.1z"/>
	<path d="M1871.98,755.68h-18.45v-2.57l9.75-10.83c1.44-1.64,2.44-2.97,2.99-3.99c0.55-1.03,0.82-2.09,0.82-3.18
		c0-1.47-0.45-2.68-1.33-3.62c-0.89-0.94-2.08-1.41-3.56-1.41c-1.78,0-3.16,0.51-4.15,1.52s-1.48,2.42-1.48,4.23h-3.58
		c0-2.59,0.83-4.69,2.5-6.29c1.67-1.6,3.9-2.4,6.7-2.4c2.62,0,4.69,0.69,6.21,2.06c1.52,1.37,2.28,3.2,2.28,5.48
		c0,2.77-1.77,6.07-5.3,9.9l-7.54,8.18h14.14V755.68z"/>
	<path d="M1728.03,790.04c0,2.72-0.43,5.06-1.3,7.03c-0.86,1.97-2.08,3.5-3.64,4.61l5.03,3.95l-2.53,2.34l-5.94-4.72
		c-0.93,0.23-1.91,0.35-2.94,0.35c-2.22,0-4.18-0.54-5.9-1.63c-1.71-1.09-3.05-2.64-3.99-4.66c-0.95-2.02-1.43-4.35-1.46-7.01v-2.03
		c0-2.71,0.47-5.1,1.41-7.18c0.94-2.08,2.27-3.67,3.99-4.77c1.72-1.1,3.69-1.65,5.91-1.65c2.27,0,4.27,0.55,5.99,1.64
		c1.72,1.1,3.05,2.67,3.98,4.73c0.93,2.06,1.39,4.46,1.39,7.2V790.04z M1724.32,788.22c0-3.31-0.66-5.87-1.98-7.67
		c-1.32-1.8-3.21-2.7-5.66-2.7c-2.33,0-4.17,0.89-5.52,2.68c-1.35,1.79-2.04,4.26-2.08,7.44v2.07c0,3.22,0.67,5.76,2.02,7.62
		c1.35,1.86,3.22,2.79,5.62,2.79s4.25-0.87,5.57-2.62c1.32-1.75,1.99-4.25,2.03-7.51V788.22z"/>
	<path d="M1732.25,792.56c0-2.05,0.4-3.89,1.21-5.53s1.93-2.9,3.37-3.79c1.44-0.89,3.08-1.33,4.92-1.33c2.85,0,5.15,0.99,6.92,2.96
		c1.76,1.97,2.64,4.6,2.64,7.87v0.25c0,2.04-0.39,3.87-1.17,5.48c-0.78,1.62-1.9,2.88-3.35,3.78c-1.45,0.9-3.12,1.35-5,1.35
		c-2.84,0-5.14-0.99-6.9-2.96c-1.76-1.97-2.64-4.58-2.64-7.83V792.56z M1735.85,792.98c0,2.32,0.54,4.18,1.62,5.59
		c1.08,1.41,2.52,2.11,4.32,2.11c1.82,0,3.26-0.71,4.33-2.14s1.61-3.42,1.61-5.99c0-2.3-0.54-4.16-1.63-5.58
		c-1.09-1.42-2.54-2.14-4.34-2.14c-1.77,0-3.19,0.7-4.27,2.11C1736.39,788.35,1735.85,790.36,1735.85,792.98z"/>
	<path d="M1764.65,790.66c-3.18-0.92-5.5-2.04-6.95-3.38c-1.45-1.33-2.18-2.98-2.18-4.94c0-2.22,0.89-4.05,2.66-5.5
		c1.77-1.45,4.08-2.18,6.92-2.18c1.93,0,3.66,0.37,5.17,1.12c1.51,0.75,2.69,1.78,3.52,3.09c0.83,1.31,1.25,2.75,1.25,4.31h-3.73
		c0-1.71-0.54-3.05-1.62-4.03c-1.08-0.98-2.61-1.47-4.58-1.47c-1.83,0-3.26,0.4-4.28,1.21c-1.03,0.81-1.54,1.93-1.54,3.36
		c0,1.15,0.49,2.12,1.46,2.92c0.97,0.79,2.63,1.52,4.97,2.18c2.34,0.66,4.17,1.38,5.49,2.18c1.32,0.79,2.3,1.72,2.94,2.78
		c0.64,1.06,0.96,2.3,0.96,3.73c0,2.28-0.89,4.11-2.67,5.48c-1.78,1.37-4.16,2.06-7.14,2.06c-1.93,0-3.74-0.37-5.42-1.11
		c-1.68-0.74-2.97-1.76-3.88-3.05s-1.36-2.75-1.36-4.39h3.73c0,1.7,0.63,3.05,1.89,4.03c1.26,0.99,2.94,1.48,5.04,1.48
		c1.96,0,3.46-0.4,4.51-1.2c1.04-0.8,1.57-1.89,1.57-3.27s-0.48-2.45-1.45-3.2C1768.94,792.14,1767.19,791.4,1764.65,790.66z"/>
	<path d="M1800.49,803.21h-3.6v-23.85l-7.21,2.65v-3.25l10.25-3.85h0.56V803.21z"/>
</g>
<g>
	<path d="M87.78,611.65v11.02h-3.71v-28.16h10.39c3.08,0,5.5,0.79,7.24,2.36c1.75,1.57,2.62,3.66,2.62,6.25
		c0,2.73-0.85,4.84-2.56,6.31c-1.71,1.48-4.16,2.21-7.34,2.21H87.78z M87.78,608.62h6.67c1.99,0,3.51-0.47,4.56-1.4
		c1.06-0.94,1.59-2.29,1.59-4.06c0-1.68-0.53-3.02-1.59-4.03c-1.06-1.01-2.51-1.53-4.35-1.57h-6.89V608.62z"/>
	<path d="M121.42,620.61c-1.39,1.64-3.44,2.46-6.13,2.46c-2.23,0-3.93-0.65-5.1-1.94s-1.76-3.21-1.77-5.75v-13.62H112v13.52
		c0,3.17,1.29,4.76,3.87,4.76c2.73,0,4.55-1.02,5.45-3.06v-15.22h3.58v20.93h-3.4L121.42,620.61z"/>
	<path d="M148.05,612.45c0,3.2-0.73,5.77-2.21,7.71c-1.47,1.94-3.44,2.91-5.92,2.91c-2.64,0-4.69-0.93-6.13-2.8l-0.17,2.42h-3.29
		v-29.71h3.58v11.08c1.44-1.79,3.44-2.69,5.98-2.69s4.54,0.96,5.99,2.88c1.45,1.92,2.18,4.55,2.18,7.89V612.45z M144.47,612.04
		c0-2.44-0.47-4.32-1.41-5.65s-2.29-1.99-4.06-1.99c-2.36,0-4.06,1.1-5.09,3.29v9.05c1.1,2.19,2.8,3.29,5.13,3.29
		c1.71,0,3.05-0.66,4-1.99S144.47,614.71,144.47,612.04z"/>
	<path d="M156.45,622.68h-3.58v-29.71h3.58V622.68z"/>
	<path d="M162.19,596.2c0-0.58,0.18-1.07,0.53-1.47c0.35-0.4,0.88-0.6,1.58-0.6s1.22,0.2,1.59,0.6c0.36,0.4,0.54,0.89,0.54,1.47
		s-0.18,1.06-0.54,1.45c-0.36,0.39-0.89,0.58-1.59,0.58s-1.22-0.19-1.58-0.58S162.19,596.78,162.19,596.2z M166.06,622.68h-3.58
		v-20.93h3.58V622.68z"/>
	<path d="M183.97,617.13c0-0.97-0.37-1.72-1.09-2.25c-0.73-0.53-2-1-3.81-1.38s-3.25-0.85-4.31-1.39s-1.85-1.19-2.36-1.93
		c-0.51-0.75-0.76-1.64-0.76-2.67c0-1.71,0.73-3.17,2.18-4.35c1.45-1.19,3.3-1.78,5.56-1.78c2.37,0,4.3,0.61,5.77,1.84
		s2.21,2.79,2.21,4.7h-3.6c0-0.98-0.42-1.82-1.25-2.53c-0.83-0.71-1.88-1.06-3.14-1.06c-1.3,0-2.32,0.28-3.06,0.85
		c-0.73,0.57-1.1,1.31-1.1,2.22c0,0.86,0.34,1.52,1.02,1.95s1.92,0.86,3.7,1.26c1.79,0.4,3.23,0.88,4.34,1.43
		c1.11,0.55,1.93,1.22,2.47,2s0.8,1.73,0.8,2.85c0,1.87-0.75,3.37-2.24,4.5c-1.5,1.13-3.44,1.69-5.82,1.69
		c-1.68,0-3.16-0.3-4.45-0.89s-2.3-1.42-3.03-2.49c-0.73-1.06-1.09-2.21-1.09-3.45h3.58c0.06,1.2,0.54,2.15,1.44,2.85
		c0.9,0.7,2.08,1.05,3.55,1.05c1.35,0,2.44-0.27,3.26-0.82C183.56,618.78,183.97,618.04,183.97,617.13z"/>
	<path d="M195.79,604.29c1.59-1.95,3.65-2.92,6.19-2.92c4.42,0,6.65,2.5,6.69,7.49v13.83h-3.58v-13.85
		c-0.01-1.51-0.36-2.62-1.04-3.35s-1.73-1.08-3.16-1.08c-1.16,0-2.18,0.31-3.06,0.93c-0.88,0.62-1.56,1.43-2.05,2.44v14.91h-3.58
		v-29.71h3.58V604.29z"/>
	<path d="M222.71,623.07c-2.84,0-5.15-0.93-6.92-2.79c-1.78-1.86-2.67-4.35-2.67-7.48v-0.66c0-2.08,0.4-3.93,1.19-5.56
		s1.9-2.91,3.33-3.83s2.97-1.38,4.63-1.38c2.72,0,4.84,0.9,6.34,2.69c1.51,1.79,2.26,4.36,2.26,7.7v1.49H216.7
		c0.05,2.06,0.65,3.73,1.81,5s2.62,1.91,4.4,1.91c1.26,0,2.33-0.26,3.21-0.77c0.88-0.52,1.64-1.2,2.3-2.05l2.19,1.7
		C228.85,621.72,226.22,623.07,222.71,623.07z M222.27,604.3c-1.44,0-2.66,0.53-3.64,1.58c-0.98,1.05-1.59,2.52-1.82,4.42h10.48
		v-0.27c-0.1-1.82-0.59-3.23-1.47-4.23C224.95,604.8,223.76,604.3,222.27,604.3z"/>
	<path d="M245.13,604.96c-0.54-0.09-1.13-0.14-1.76-0.14c-2.35,0-3.94,1-4.78,3v14.85h-3.58v-20.93h3.48l0.06,2.42
		c1.17-1.87,2.84-2.8,4.99-2.8c0.7,0,1.23,0.09,1.59,0.27V604.96z"/>
</g>
<g>
	<line class="st10" x1="1610" y1="302.36" x2="1252.71" y2="302.36"/>
	<g>
		<polygon class="st11" points="1258.55,282.41 1224.01,302.36 1258.55,322.3 		"/>
	</g>
</g>
<g>
	<path class="st11" d="M1346.55,278.99v11.02h-3.71v-28.16h10.39c3.08,0,5.5,0.79,7.24,2.36c1.75,1.57,2.62,3.66,2.62,6.25
		c0,2.73-0.85,4.84-2.56,6.31c-1.71,1.48-4.16,2.21-7.34,2.21H1346.55z M1346.55,275.96h6.67c1.99,0,3.51-0.47,4.56-1.4
		c1.06-0.94,1.59-2.29,1.59-4.06c0-1.68-0.53-3.02-1.59-4.03c-1.06-1.01-2.51-1.53-4.35-1.57h-6.89V275.96z"/>
	<path class="st11" d="M1387.65,261.86v19.15c-0.01,2.66-0.85,4.83-2.5,6.52c-1.66,1.69-3.9,2.64-6.74,2.84l-0.99,0.04
		c-3.08,0-5.54-0.83-7.37-2.5c-1.83-1.66-2.76-3.95-2.79-6.87v-19.19h3.67v19.07c0,2.04,0.56,3.62,1.68,4.75
		c1.12,1.13,2.72,1.69,4.8,1.69c2.1,0,3.71-0.56,4.83-1.68c1.12-1.12,1.67-2.7,1.67-4.74v-19.09H1387.65z"/>
	<path class="st11" d="M1393.51,290.02v-28.16h9.21c3.06,0,5.35,0.63,6.9,1.9c1.54,1.26,2.31,3.13,2.31,5.61
		c0,1.32-0.37,2.48-1.12,3.49c-0.75,1.01-1.77,1.8-3.06,2.35c1.52,0.43,2.72,1.23,3.61,2.43c0.88,1.19,1.33,2.61,1.33,4.27
		c0,2.53-0.82,4.51-2.46,5.96c-1.64,1.44-3.95,2.17-6.94,2.17H1393.51z M1397.23,273.87h5.61c1.62,0,2.92-0.41,3.9-1.22
		c0.97-0.81,1.46-1.92,1.46-3.31c0-1.55-0.45-2.68-1.35-3.38c-0.9-0.7-2.28-1.06-4.12-1.06h-5.49V273.87z M1397.23,276.85v10.14
		h6.13c1.73,0,3.09-0.45,4.09-1.34c1-0.9,1.5-2.13,1.5-3.7c0-3.39-1.84-5.09-5.53-5.09H1397.23z"/>
	<path class="st11" d="M1433.72,282.65h-11.8l-2.65,7.37h-3.83l10.75-28.16h3.25l10.77,28.16h-3.81L1433.72,282.65z M1423.05,279.61
		h9.57l-4.8-13.17L1423.05,279.61z"/>
	<path class="st11" d="M1464.52,281.08c-0.35,2.98-1.45,5.28-3.3,6.9c-1.85,1.62-4.31,2.43-7.38,2.43c-3.33,0-5.99-1.19-8-3.58
		c-2.01-2.39-3.01-5.58-3.01-9.57v-2.71c0-2.62,0.47-4.92,1.4-6.9c0.93-1.99,2.26-3.51,3.97-4.57c1.71-1.06,3.7-1.6,5.96-1.6
		c2.99,0,5.39,0.84,7.2,2.5c1.81,1.67,2.86,3.98,3.15,6.93h-3.73c-0.32-2.25-1.02-3.88-2.1-4.89c-1.08-1.01-2.58-1.51-4.52-1.51
		c-2.37,0-4.23,0.88-5.58,2.63s-2.02,4.25-2.02,7.49v2.73c0,3.06,0.64,5.49,1.91,7.3c1.28,1.81,3.06,2.71,5.36,2.71
		c2.06,0,3.65-0.47,4.75-1.4c1.1-0.93,1.83-2.56,2.2-4.88H1464.52z"/>
	<path class="st11" d="M1476.74,276.92l-3.44,3.58v9.52h-3.71v-28.16h3.71v13.93l12.51-13.93h4.49l-11.08,12.44l11.95,15.73h-4.45
		L1476.74,276.92z"/>
</g>
<g>
	<line class="st8" x1="1241.46" y1="601.9" x2="1583.85" y2="601.9"/>
	<g>
		<polygon class="st9" points="1578.01,621.84 1612.55,601.9 1578.01,581.95 		"/>
	</g>
</g>
<g>
	<path class="st9" d="M1252.92,574.65v11.02h-3.71v-28.16h10.39c3.08,0,5.5,0.79,7.24,2.36c1.75,1.57,2.62,3.66,2.62,6.25
		c0,2.73-0.85,4.84-2.56,6.31c-1.71,1.48-4.16,2.21-7.34,2.21H1252.92z M1252.92,571.62h6.67c1.99,0,3.51-0.47,4.56-1.4
		c1.06-0.94,1.59-2.29,1.59-4.06c0-1.68-0.53-3.02-1.59-4.03c-1.06-1.01-2.51-1.53-4.35-1.57h-6.89V571.62z"/>
	<path class="st9" d="M1294.03,557.52v19.15c-0.01,2.66-0.85,4.83-2.5,6.52c-1.66,1.69-3.9,2.64-6.74,2.84l-0.99,0.04
		c-3.08,0-5.54-0.83-7.37-2.5c-1.83-1.66-2.76-3.95-2.79-6.87v-19.19h3.67v19.07c0,2.04,0.56,3.62,1.68,4.75
		c1.12,1.13,2.72,1.69,4.8,1.69c2.1,0,3.71-0.56,4.83-1.68c1.12-1.12,1.67-2.7,1.67-4.74v-19.09H1294.03z"/>
	<path class="st9" d="M1299.89,585.68v-28.16h9.21c3.06,0,5.35,0.63,6.9,1.9c1.54,1.26,2.31,3.13,2.31,5.61
		c0,1.32-0.37,2.48-1.12,3.49c-0.75,1.01-1.77,1.8-3.06,2.35c1.52,0.43,2.72,1.23,3.61,2.43c0.88,1.19,1.33,2.61,1.33,4.27
		c0,2.53-0.82,4.51-2.46,5.96c-1.64,1.44-3.95,2.17-6.94,2.17H1299.89z M1303.6,569.53h5.61c1.62,0,2.92-0.41,3.9-1.22
		c0.97-0.81,1.46-1.92,1.46-3.31c0-1.55-0.45-2.68-1.35-3.38c-0.9-0.7-2.28-1.06-4.12-1.06h-5.49V569.53z M1303.6,572.51v10.14h6.13
		c1.73,0,3.09-0.45,4.09-1.34c1-0.9,1.5-2.13,1.5-3.7c0-3.39-1.84-5.09-5.53-5.09H1303.6z"/>
	<path class="st9" d="M1328.28,582.64h13.35v3.04h-17.08v-28.16h3.73V582.64z"/>
	<path class="st9" d="M1349.85,585.68h-3.71v-28.16h3.71V585.68z"/>
	<path class="st9" d="M1364.93,573.13c-3.18-0.92-5.5-2.04-6.95-3.38c-1.45-1.33-2.18-2.98-2.18-4.94c0-2.22,0.89-4.05,2.66-5.5
		c1.77-1.45,4.08-2.18,6.92-2.18c1.93,0,3.66,0.37,5.17,1.12c1.51,0.75,2.69,1.78,3.52,3.09c0.83,1.31,1.25,2.75,1.25,4.31h-3.73
		c0-1.71-0.54-3.05-1.62-4.03c-1.08-0.98-2.61-1.47-4.58-1.47c-1.83,0-3.26,0.4-4.28,1.21c-1.03,0.81-1.54,1.93-1.54,3.36
		c0,1.15,0.49,2.12,1.46,2.92c0.97,0.79,2.63,1.52,4.97,2.18c2.34,0.66,4.17,1.38,5.49,2.18c1.32,0.79,2.3,1.72,2.94,2.78
		c0.64,1.06,0.96,2.3,0.96,3.73c0,2.28-0.89,4.11-2.67,5.48c-1.78,1.37-4.16,2.06-7.14,2.06c-1.93,0-3.74-0.37-5.42-1.11
		c-1.68-0.74-2.97-1.76-3.88-3.05s-1.36-2.75-1.36-4.39h3.73c0,1.7,0.63,3.05,1.89,4.03c1.26,0.99,2.94,1.48,5.04,1.48
		c1.96,0,3.46-0.4,4.51-1.2c1.04-0.8,1.57-1.89,1.57-3.27s-0.48-2.45-1.45-3.2C1369.23,574.61,1367.47,573.86,1364.93,573.13z"/>
	<path class="st9" d="M1401.78,585.68h-3.73v-13.02h-14.2v13.02h-3.71v-28.16h3.71v12.11h14.2v-12.11h3.73V585.68z"/>
	<path class="st9" d="M1417.49,574.25c0-2.91,0.39-5.71,1.17-8.39c0.78-2.68,1.94-5.12,3.49-7.31c1.55-2.19,3.15-3.74,4.82-4.64
		l0.74,2.36c-1.88,1.44-3.43,3.65-4.63,6.61c-1.21,2.97-1.87,6.29-1.98,9.96l-0.02,1.64c0,4.98,0.91,9.3,2.73,12.96
		c1.1,2.19,2.4,3.91,3.91,5.15l-0.74,2.19c-1.71-0.95-3.35-2.55-4.91-4.8C1419.01,585.59,1417.49,580.35,1417.49,574.25z"/>
	<path class="st9" d="M1453.23,572.51c0,2.72-0.43,5.06-1.3,7.03c-0.86,1.97-2.08,3.5-3.64,4.61l5.03,3.95l-2.53,2.34l-5.94-4.72
		c-0.93,0.23-1.91,0.35-2.94,0.35c-2.22,0-4.18-0.54-5.9-1.63c-1.71-1.09-3.05-2.64-3.99-4.66c-0.95-2.02-1.43-4.35-1.46-7.01v-2.03
		c0-2.71,0.47-5.1,1.41-7.18c0.94-2.08,2.27-3.67,3.99-4.77c1.72-1.1,3.69-1.65,5.91-1.65c2.27,0,4.27,0.55,5.99,1.64
		c1.72,1.1,3.05,2.67,3.98,4.73c0.93,2.06,1.39,4.46,1.39,7.2V572.51z M1449.52,570.69c0-3.31-0.66-5.87-1.98-7.67
		c-1.32-1.8-3.21-2.7-5.66-2.7c-2.33,0-4.17,0.89-5.52,2.68c-1.35,1.79-2.04,4.26-2.08,7.44v2.07c0,3.22,0.67,5.76,2.02,7.62
		c1.35,1.86,3.22,2.79,5.62,2.79s4.25-0.87,5.57-2.62c1.32-1.75,1.99-4.25,2.03-7.51V570.69z"/>
	<path class="st9" d="M1457.45,575.02c0-2.05,0.4-3.89,1.21-5.53s1.93-2.9,3.37-3.79c1.44-0.89,3.08-1.33,4.92-1.33
		c2.85,0,5.15,0.99,6.92,2.96c1.76,1.97,2.64,4.6,2.64,7.87v0.25c0,2.04-0.39,3.87-1.17,5.48c-0.78,1.62-1.9,2.88-3.35,3.78
		c-1.45,0.9-3.12,1.35-5,1.35c-2.84,0-5.14-0.99-6.9-2.96c-1.76-1.97-2.64-4.58-2.64-7.83V575.02z M1461.04,575.45
		c0,2.32,0.54,4.18,1.62,5.59c1.08,1.41,2.52,2.11,4.32,2.11c1.82,0,3.26-0.71,4.33-2.14s1.61-3.42,1.61-5.99
		c0-2.3-0.54-4.16-1.63-5.58c-1.09-1.42-2.54-2.14-4.34-2.14c-1.77,0-3.19,0.7-4.27,2.11
		C1461.58,570.82,1461.04,572.83,1461.04,575.45z"/>
	<path class="st9" d="M1489.84,573.13c-3.18-0.92-5.5-2.04-6.95-3.38c-1.45-1.33-2.18-2.98-2.18-4.94c0-2.22,0.89-4.05,2.66-5.5
		c1.77-1.45,4.08-2.18,6.92-2.18c1.93,0,3.66,0.37,5.17,1.12c1.51,0.75,2.69,1.78,3.52,3.09c0.83,1.31,1.25,2.75,1.25,4.31h-3.73
		c0-1.71-0.54-3.05-1.62-4.03c-1.08-0.98-2.61-1.47-4.58-1.47c-1.83,0-3.26,0.4-4.28,1.21c-1.03,0.81-1.54,1.93-1.54,3.36
		c0,1.15,0.49,2.12,1.46,2.92c0.97,0.79,2.63,1.52,4.97,2.18c2.34,0.66,4.17,1.38,5.49,2.18c1.32,0.79,2.3,1.72,2.94,2.78
		c0.64,1.06,0.96,2.3,0.96,3.73c0,2.28-0.89,4.11-2.67,5.48c-1.78,1.37-4.16,2.06-7.14,2.06c-1.93,0-3.74-0.37-5.42-1.11
		c-1.68-0.74-2.97-1.76-3.88-3.05s-1.36-2.75-1.36-4.39h3.73c0,1.7,0.63,3.05,1.89,4.03c1.26,0.99,2.94,1.48,5.04,1.48
		c1.96,0,3.46-0.4,4.51-1.2c1.04-0.8,1.57-1.89,1.57-3.27s-0.48-2.45-1.45-3.2C1494.14,574.61,1492.38,573.86,1489.84,573.13z"/>
	<path class="st9" d="M1525.68,585.68h-3.6v-23.85l-7.21,2.65v-3.25l10.25-3.85h0.56V585.68z"/>
	<path class="st9" d="M1544.79,574.44c0,2.88-0.38,5.63-1.13,8.27c-0.75,2.64-1.91,5.07-3.46,7.3s-3.18,3.82-4.88,4.76l-0.75-2.19
		c1.99-1.52,3.58-3.88,4.79-7.09c1.21-3.2,1.82-6.76,1.85-10.67v-0.62c0-2.71-0.28-5.23-0.85-7.55c-0.57-2.33-1.36-4.41-2.37-6.26
		c-1.01-1.84-2.15-3.28-3.41-4.31l0.75-2.19c1.7,0.94,3.32,2.51,4.86,4.72c1.54,2.2,2.7,4.64,3.46,7.29
		C1544.41,568.57,1544.79,571.41,1544.79,574.44z"/>
</g>
<g>
	<line class="st10" x1="1610" y1="662.36" x2="1252.71" y2="662.36"/>
	<g>
		<polygon class="st11" points="1258.55,642.41 1224.01,662.36 1258.55,682.3 		"/>
	</g>
</g>
<g>
	<path class="st11" d="M1346.55,638.99v11.02h-3.71v-28.16h10.39c3.08,0,5.5,0.79,7.24,2.36c1.75,1.57,2.62,3.66,2.62,6.25
		c0,2.73-0.85,4.84-2.56,6.31c-1.71,1.48-4.16,2.21-7.34,2.21H1346.55z M1346.55,635.96h6.67c1.99,0,3.51-0.47,4.56-1.4
		c1.06-0.94,1.59-2.29,1.59-4.06c0-1.68-0.53-3.02-1.59-4.03c-1.06-1.01-2.51-1.53-4.35-1.57h-6.89V635.96z"/>
	<path class="st11" d="M1387.65,621.86v19.15c-0.01,2.66-0.85,4.83-2.5,6.52c-1.66,1.69-3.9,2.64-6.74,2.84l-0.99,0.04
		c-3.08,0-5.54-0.83-7.37-2.5c-1.83-1.66-2.76-3.95-2.79-6.87v-19.19h3.67v19.07c0,2.04,0.56,3.62,1.68,4.75
		c1.12,1.13,2.72,1.69,4.8,1.69c2.1,0,3.71-0.56,4.83-1.68c1.12-1.12,1.67-2.7,1.67-4.74v-19.09H1387.65z"/>
	<path class="st11" d="M1393.51,650.02v-28.16h9.21c3.06,0,5.35,0.63,6.9,1.9c1.54,1.26,2.31,3.13,2.31,5.61
		c0,1.32-0.37,2.48-1.12,3.49c-0.75,1.01-1.77,1.8-3.06,2.35c1.52,0.43,2.72,1.23,3.61,2.43c0.88,1.19,1.33,2.61,1.33,4.27
		c0,2.53-0.82,4.51-2.46,5.96c-1.64,1.44-3.95,2.17-6.94,2.17H1393.51z M1397.23,633.87h5.61c1.62,0,2.92-0.41,3.9-1.22
		c0.97-0.81,1.46-1.92,1.46-3.31c0-1.55-0.45-2.68-1.35-3.38c-0.9-0.7-2.28-1.06-4.12-1.06h-5.49V633.87z M1397.23,636.85v10.14
		h6.13c1.73,0,3.09-0.45,4.09-1.34c1-0.9,1.5-2.13,1.5-3.7c0-3.39-1.84-5.09-5.53-5.09H1397.23z"/>
	<path class="st11" d="M1433.72,642.65h-11.8l-2.65,7.37h-3.83l10.75-28.16h3.25l10.77,28.16h-3.81L1433.72,642.65z M1423.05,639.61
		h9.57l-4.8-13.17L1423.05,639.61z"/>
	<path class="st11" d="M1464.52,641.08c-0.35,2.98-1.45,5.28-3.3,6.9c-1.85,1.62-4.31,2.43-7.38,2.43c-3.33,0-5.99-1.19-8-3.58
		c-2.01-2.39-3.01-5.58-3.01-9.57v-2.71c0-2.62,0.47-4.92,1.4-6.9c0.93-1.99,2.26-3.51,3.97-4.57c1.71-1.06,3.7-1.6,5.96-1.6
		c2.99,0,5.39,0.84,7.2,2.5c1.81,1.67,2.86,3.98,3.15,6.93h-3.73c-0.32-2.25-1.02-3.88-2.1-4.89c-1.08-1.01-2.58-1.51-4.52-1.51
		c-2.37,0-4.23,0.88-5.58,2.63s-2.02,4.25-2.02,7.49v2.73c0,3.06,0.64,5.49,1.91,7.3c1.28,1.81,3.06,2.71,5.36,2.71
		c2.06,0,3.65-0.47,4.75-1.4c1.1-0.93,1.83-2.56,2.2-4.88H1464.52z"/>
	<path class="st11" d="M1476.74,636.92l-3.44,3.58v9.52h-3.71v-28.16h3.71v13.93l12.51-13.93h4.49l-11.08,12.44l11.95,15.73h-4.45
		L1476.74,636.92z"/>
</g>
<g>
	<line class="st8" x1="321.46" y1="425.9" x2="663.85" y2="425.9"/>
	<g>
		<polygon class="st9" points="658.01,445.84 692.55,425.9 658.01,405.95 		"/>
	</g>
</g>
<g>
	<path class="st9" d="M336.92,396.65v11.02h-3.71v-28.16h10.39c3.08,0,5.5,0.79,7.24,2.36c1.75,1.57,2.62,3.66,2.62,6.25
		c0,2.73-0.85,4.84-2.56,6.31c-1.71,1.48-4.16,2.21-7.34,2.21H336.92z M336.92,393.62h6.67c1.99,0,3.51-0.47,4.56-1.4
		c1.06-0.94,1.59-2.29,1.59-4.06c0-1.68-0.53-3.02-1.59-4.03c-1.06-1.01-2.51-1.53-4.35-1.57h-6.89V393.62z"/>
	<path class="st9" d="M378.03,379.52v19.15c-0.01,2.66-0.85,4.83-2.5,6.52c-1.66,1.69-3.9,2.64-6.74,2.84l-0.99,0.04
		c-3.08,0-5.54-0.83-7.37-2.5c-1.83-1.66-2.76-3.95-2.79-6.87v-19.19h3.67v19.07c0,2.04,0.56,3.62,1.68,4.75
		c1.12,1.13,2.72,1.69,4.8,1.69c2.1,0,3.71-0.56,4.83-1.68c1.12-1.12,1.67-2.7,1.67-4.74v-19.09H378.03z"/>
	<path class="st9" d="M383.89,407.68v-28.16h9.21c3.06,0,5.35,0.63,6.9,1.9c1.54,1.26,2.31,3.13,2.31,5.61
		c0,1.32-0.37,2.48-1.12,3.49c-0.75,1.01-1.77,1.8-3.06,2.35c1.52,0.43,2.72,1.23,3.61,2.43c0.88,1.19,1.33,2.61,1.33,4.27
		c0,2.53-0.82,4.51-2.46,5.96c-1.64,1.44-3.95,2.17-6.94,2.17H383.89z M387.6,391.53h5.61c1.62,0,2.92-0.41,3.9-1.22
		c0.97-0.81,1.46-1.92,1.46-3.31c0-1.55-0.45-2.68-1.35-3.38c-0.9-0.7-2.28-1.06-4.12-1.06h-5.49V391.53z M387.6,394.51v10.14h6.13
		c1.73,0,3.09-0.45,4.09-1.34c1-0.9,1.5-2.13,1.5-3.7c0-3.39-1.84-5.09-5.53-5.09H387.6z"/>
	<path class="st9" d="M412.28,404.64h13.35v3.04h-17.08v-28.16h3.73V404.64z"/>
	<path class="st9" d="M433.85,407.68h-3.71v-28.16h3.71V407.68z"/>
	<path class="st9" d="M448.93,395.13c-3.18-0.92-5.5-2.04-6.95-3.38c-1.45-1.33-2.18-2.98-2.18-4.94c0-2.22,0.89-4.05,2.66-5.5
		c1.77-1.45,4.08-2.18,6.92-2.18c1.93,0,3.66,0.37,5.17,1.12c1.51,0.75,2.69,1.78,3.52,3.09c0.83,1.31,1.25,2.75,1.25,4.31h-3.73
		c0-1.71-0.54-3.05-1.62-4.03c-1.08-0.98-2.61-1.47-4.58-1.47c-1.83,0-3.26,0.4-4.28,1.21c-1.03,0.81-1.54,1.93-1.54,3.36
		c0,1.15,0.49,2.12,1.46,2.92c0.97,0.79,2.63,1.52,4.97,2.18c2.34,0.66,4.17,1.38,5.49,2.18c1.32,0.79,2.3,1.72,2.94,2.78
		c0.64,1.06,0.96,2.3,0.96,3.73c0,2.28-0.89,4.11-2.67,5.48c-1.78,1.37-4.16,2.06-7.14,2.06c-1.93,0-3.74-0.37-5.42-1.11
		c-1.68-0.74-2.97-1.76-3.88-3.05s-1.36-2.75-1.36-4.39h3.73c0,1.7,0.63,3.05,1.89,4.03c1.26,0.99,2.94,1.48,5.04,1.48
		c1.96,0,3.46-0.4,4.51-1.2c1.04-0.8,1.57-1.89,1.57-3.27s-0.48-2.45-1.45-3.2C453.23,396.61,451.47,395.86,448.93,395.13z"/>
	<path class="st9" d="M485.78,407.68h-3.73v-13.02h-14.2v13.02h-3.71v-28.16h3.71v12.11h14.2v-12.11h3.73V407.68z"/>
	<path class="st9" d="M501.49,396.25c0-2.91,0.39-5.71,1.17-8.39c0.78-2.68,1.94-5.12,3.49-7.31c1.55-2.19,3.15-3.74,4.82-4.64
		l0.74,2.36c-1.88,1.44-3.43,3.65-4.63,6.61c-1.21,2.97-1.87,6.29-1.98,9.96l-0.02,1.64c0,4.98,0.91,9.3,2.73,12.96
		c1.1,2.19,2.4,3.91,3.91,5.15l-0.74,2.19c-1.71-0.95-3.35-2.55-4.91-4.8C503.01,407.59,501.49,402.35,501.49,396.25z"/>
	<path class="st9" d="M537.23,394.51c0,2.72-0.43,5.06-1.3,7.03c-0.86,1.97-2.08,3.5-3.64,4.61l5.03,3.95l-2.53,2.34l-5.94-4.72
		c-0.93,0.23-1.91,0.35-2.94,0.35c-2.22,0-4.18-0.54-5.9-1.63c-1.71-1.09-3.05-2.64-3.99-4.66c-0.95-2.02-1.43-4.35-1.46-7.01v-2.03
		c0-2.71,0.47-5.1,1.41-7.18c0.94-2.08,2.27-3.67,3.99-4.77c1.72-1.1,3.69-1.65,5.91-1.65c2.27,0,4.27,0.55,5.99,1.64
		c1.72,1.1,3.05,2.67,3.98,4.73c0.93,2.06,1.39,4.46,1.39,7.2V394.51z M533.52,392.69c0-3.31-0.66-5.87-1.98-7.67
		c-1.32-1.8-3.21-2.7-5.66-2.7c-2.33,0-4.17,0.89-5.52,2.68c-1.35,1.79-2.04,4.26-2.08,7.44v2.07c0,3.22,0.67,5.76,2.02,7.62
		c1.35,1.86,3.22,2.79,5.62,2.79s4.25-0.87,5.57-2.62c1.32-1.75,1.99-4.25,2.03-7.51V392.69z"/>
	<path class="st9" d="M541.45,397.02c0-2.05,0.4-3.89,1.21-5.53s1.93-2.9,3.37-3.79c1.44-0.89,3.08-1.33,4.92-1.33
		c2.85,0,5.15,0.99,6.92,2.96c1.76,1.97,2.64,4.6,2.64,7.87v0.25c0,2.04-0.39,3.87-1.17,5.48c-0.78,1.62-1.9,2.88-3.35,3.78
		c-1.45,0.9-3.12,1.35-5,1.35c-2.84,0-5.14-0.99-6.9-2.96c-1.76-1.97-2.64-4.58-2.64-7.83V397.02z M545.04,397.45
		c0,2.32,0.54,4.18,1.62,5.59c1.08,1.41,2.52,2.11,4.32,2.11c1.82,0,3.26-0.71,4.33-2.14s1.61-3.42,1.61-5.99
		c0-2.3-0.54-4.16-1.63-5.58c-1.09-1.42-2.54-2.14-4.34-2.14c-1.77,0-3.19,0.7-4.27,2.11C545.58,392.82,545.04,394.83,545.04,397.45
		z"/>
	<path class="st9" d="M573.84,395.13c-3.18-0.92-5.5-2.04-6.95-3.38c-1.45-1.33-2.18-2.98-2.18-4.94c0-2.22,0.89-4.05,2.66-5.5
		c1.77-1.45,4.08-2.18,6.92-2.18c1.93,0,3.66,0.37,5.17,1.12c1.51,0.75,2.69,1.78,3.52,3.09c0.83,1.31,1.25,2.75,1.25,4.31h-3.73
		c0-1.71-0.54-3.05-1.62-4.03c-1.08-0.98-2.61-1.47-4.58-1.47c-1.83,0-3.26,0.4-4.28,1.21c-1.03,0.81-1.54,1.93-1.54,3.36
		c0,1.15,0.49,2.12,1.46,2.92c0.97,0.79,2.63,1.52,4.97,2.18c2.34,0.66,4.17,1.38,5.49,2.18c1.32,0.79,2.3,1.72,2.94,2.78
		c0.64,1.06,0.96,2.3,0.96,3.73c0,2.28-0.89,4.11-2.67,5.48c-1.78,1.37-4.16,2.06-7.14,2.06c-1.93,0-3.74-0.37-5.42-1.11
		c-1.68-0.74-2.97-1.76-3.88-3.05s-1.36-2.75-1.36-4.39h3.73c0,1.7,0.63,3.05,1.89,4.03c1.26,0.99,2.94,1.48,5.04,1.48
		c1.96,0,3.46-0.4,4.51-1.2c1.04-0.8,1.57-1.89,1.57-3.27s-0.48-2.45-1.45-3.2C578.14,396.61,576.38,395.86,573.84,395.13z"/>
	<path class="st9" d="M609.68,407.68h-3.6v-23.85l-7.21,2.65v-3.25l10.25-3.85h0.56V407.68z"/>
	<path class="st9" d="M628.79,396.44c0,2.88-0.38,5.63-1.13,8.27c-0.75,2.64-1.91,5.07-3.46,7.3s-3.18,3.82-4.88,4.76l-0.75-2.19
		c1.99-1.52,3.58-3.88,4.79-7.09c1.21-3.2,1.82-6.76,1.85-10.67v-0.62c0-2.71-0.28-5.23-0.85-7.55c-0.57-2.33-1.36-4.41-2.37-6.26
		c-1.01-1.84-2.15-3.28-3.41-4.31l0.75-2.19c1.7,0.94,3.32,2.51,4.86,4.72c1.54,2.2,2.7,4.64,3.46,7.29
		C628.41,390.57,628.79,393.41,628.79,396.44z"/>
</g>
<g>
	<line class="st10" x1="690" y1="486.36" x2="332.71" y2="486.36"/>
	<g>
		<polygon class="st11" points="338.55,466.41 304.01,486.36 338.55,506.3 		"/>
	</g>
</g>
<g>
	<path class="st11" d="M426.55,462.99v11.02h-3.71v-28.16h10.39c3.08,0,5.5,0.79,7.24,2.36c1.75,1.57,2.62,3.66,2.62,6.25
		c0,2.73-0.85,4.84-2.56,6.31c-1.71,1.48-4.16,2.21-7.34,2.21H426.55z M426.55,459.96h6.67c1.99,0,3.51-0.47,4.56-1.4
		c1.06-0.94,1.59-2.29,1.59-4.06c0-1.68-0.53-3.02-1.59-4.03c-1.06-1.01-2.51-1.53-4.35-1.57h-6.89V459.96z"/>
	<path class="st11" d="M467.65,445.86v19.15c-0.01,2.66-0.85,4.83-2.5,6.52c-1.66,1.69-3.9,2.64-6.74,2.84l-0.99,0.04
		c-3.08,0-5.54-0.83-7.37-2.5c-1.83-1.66-2.76-3.95-2.79-6.87v-19.19h3.67v19.07c0,2.04,0.56,3.62,1.68,4.75
		c1.12,1.13,2.72,1.69,4.8,1.69c2.1,0,3.71-0.56,4.83-1.68c1.12-1.12,1.67-2.7,1.67-4.74v-19.09H467.65z"/>
	<path class="st11" d="M473.51,474.02v-28.16h9.21c3.06,0,5.35,0.63,6.9,1.9c1.54,1.26,2.31,3.13,2.31,5.61
		c0,1.32-0.37,2.48-1.12,3.49c-0.75,1.01-1.77,1.8-3.06,2.35c1.52,0.43,2.72,1.23,3.61,2.43c0.88,1.19,1.33,2.61,1.33,4.27
		c0,2.53-0.82,4.51-2.46,5.96c-1.64,1.44-3.95,2.17-6.94,2.17H473.51z M477.23,457.87h5.61c1.62,0,2.92-0.41,3.9-1.22
		c0.97-0.81,1.46-1.92,1.46-3.31c0-1.55-0.45-2.68-1.35-3.38c-0.9-0.7-2.28-1.06-4.12-1.06h-5.49V457.87z M477.23,460.85v10.14h6.13
		c1.73,0,3.09-0.45,4.09-1.34c1-0.9,1.5-2.13,1.5-3.7c0-3.39-1.84-5.09-5.53-5.09H477.23z"/>
	<path class="st11" d="M513.72,466.65h-11.8l-2.65,7.37h-3.83l10.75-28.16h3.25l10.77,28.16h-3.81L513.72,466.65z M503.05,463.61
		h9.57l-4.8-13.17L503.05,463.61z"/>
	<path class="st11" d="M544.52,465.08c-0.35,2.98-1.45,5.28-3.3,6.9c-1.85,1.62-4.31,2.43-7.38,2.43c-3.33,0-5.99-1.19-8-3.58
		c-2.01-2.39-3.01-5.58-3.01-9.57v-2.71c0-2.62,0.47-4.92,1.4-6.9c0.93-1.99,2.26-3.51,3.97-4.57c1.71-1.06,3.7-1.6,5.96-1.6
		c2.99,0,5.39,0.84,7.2,2.5c1.81,1.67,2.86,3.98,3.15,6.93h-3.73c-0.32-2.25-1.02-3.88-2.1-4.89c-1.08-1.01-2.58-1.51-4.52-1.51
		c-2.37,0-4.23,0.88-5.58,2.63s-2.02,4.25-2.02,7.49v2.73c0,3.06,0.64,5.49,1.91,7.3c1.28,1.81,3.06,2.71,5.36,2.71
		c2.06,0,3.65-0.47,4.75-1.4c1.1-0.93,1.83-2.56,2.2-4.88H544.52z"/>
	<path class="st11" d="M556.74,460.92l-3.44,3.58v9.52h-3.71v-28.16h3.71v13.93l12.51-13.93h4.49l-11.08,12.44l11.95,15.73h-4.45
		L556.74,460.92z"/>
</g>
<g>
	<g>
		<path class="st1" d="M91.38,518.46c-5.4,0-9.79-4.39-9.79-9.79V366.25c0-5.4,4.39-9.79,9.79-9.79h142.43
			c5.4,0,9.79,4.39,9.79,9.79v142.43c0,5.4-4.39,9.79-9.79,9.79H91.38z"/>
		<path d="M233.81,358.46c4.29,0,7.79,3.49,7.79,7.79v142.43c0,4.29-3.49,7.79-7.79,7.79H91.38c-4.29,0-7.79-3.49-7.79-7.79V366.25
			c0-4.29,3.49-7.79,7.79-7.79H233.81 M233.81,354.46H91.38c-6.48,0-11.79,5.3-11.79,11.79v142.43c0,6.48,5.3,11.79,11.79,11.79
			h142.43c6.48,0,11.79-5.3,11.79-11.79V366.25C245.6,359.77,240.29,354.46,233.81,354.46L233.81,354.46z"/>
	</g>
	<g>
		<path class="st1" d="M216.6,439.46c-2.21,0-4-1.79-4-4v-29c0-2.21,1.79-4,4-4h36c2.21,0,4,1.79,4,4v29c0,2.21-1.79,4-4,4H216.6z"
			/>
		<path d="M252.6,404.46c1.08,0,2,0.92,2,2v29c0,1.08-0.92,2-2,2h-36c-1.08,0-2-0.92-2-2v-29c0-1.08,0.92-2,2-2H252.6 M252.6,400.46
			h-36c-3.3,0-6,2.7-6,6v29c0,3.3,2.7,6,6,6h36c3.3,0,6-2.7,6-6v-29C258.6,403.16,255.9,400.46,252.6,400.46L252.6,400.46z"/>
	</g>
	<g>
		<path class="st1" d="M125.28,530.46c-2.03,0-3.68-1.65-3.68-3.68v-31.64c0-2.03,1.65-3.68,3.68-3.68h29.64
			c2.03,0,3.68,1.65,3.68,3.68v31.64c0,2.03-1.65,3.68-3.68,3.68H125.28z"/>
		<path d="M154.92,493.46c0.91,0,1.68,0.77,1.68,1.68v31.64c0,0.91-0.77,1.68-1.68,1.68h-29.64c-0.91,0-1.68-0.77-1.68-1.68v-31.64
			c0-0.91,0.77-1.68,1.68-1.68H154.92 M154.92,489.46h-29.64c-3.12,0-5.68,2.56-5.68,5.68v31.64c0,3.12,2.56,5.68,5.68,5.68h29.64
			c3.12,0,5.68-2.56,5.68-5.68v-31.64C160.6,492.02,158.04,489.46,154.92,489.46L154.92,489.46z"/>
	</g>
	<g>
		<path class="st1" d="M174.49,530.46c-2.4,0-4.35-1.95-4.35-4.35v-50.31c0-2.4,1.95-4.35,4.35-4.35h22.26
			c2.4,0,4.35,1.95,4.35,4.35v50.31c0,2.4-1.95,4.35-4.35,4.35H174.49z"/>
		<path d="M196.75,473.46c1.27,0,2.35,1.07,2.35,2.35v50.31c0,1.27-1.07,2.35-2.35,2.35h-22.26c-1.27,0-2.35-1.07-2.35-2.35v-50.31
			c0-1.27,1.07-2.35,2.35-2.35H196.75 M196.75,469.46h-22.26c-3.49,0-6.35,2.86-6.35,6.35v50.31c0,3.49,2.86,6.35,6.35,6.35h22.26
			c3.49,0,6.35-2.86,6.35-6.35v-50.31C203.1,472.32,200.24,469.46,196.75,469.46L196.75,469.46z"/>
	</g>
	<g>
		<path class="st1" d="M142.36,457.96c-2.63,0-4.76-2.14-4.76-4.76v-36.48c0-2.63,2.14-4.76,4.76-4.76h36.47
			c2.63,0,4.76,2.14,4.76,4.76v36.48c0,2.63-2.14,4.76-4.76,4.76H142.36z"/>
		<path d="M178.83,413.96c1.5,0,2.76,1.27,2.76,2.76v36.47c0,1.5-1.27,2.76-2.76,2.76h-36.48c-1.5,0-2.76-1.27-2.76-2.76v-36.47
			c0-1.5,1.27-2.76,2.76-2.76H178.83 M178.83,409.96h-36.48c-3.72,0-6.76,3.04-6.76,6.76v36.47c0,3.72,3.04,6.76,6.76,6.76h36.48
			c3.72,0,6.76-3.04,6.76-6.76v-36.47C185.6,413,182.55,409.96,178.83,409.96L178.83,409.96z"/>
	</g>
	<g>
		<g>
			<path class="st1" d="M77.28,457.46c-2.58,0-4.68-1.79-4.68-4v-29c0-2.21,2.1-4,4.68-4H93.1v37H77.28z"/>
			<path d="M91.1,422.46v33H77.28c-1.43,0-2.68-0.93-2.68-2v-29c0-1.07,1.25-2,2.68-2H91.1 M95.1,418.46H77.28
				c-3.68,0-6.68,2.7-6.68,6v29c0,3.3,3.01,6,6.68,6H95.1V418.46L95.1,418.46z"/>
		</g>
	</g>
	<rect x="92.6" y="398.46" class="st2" width="17" height="76"/>
	<g>
		<circle class="st1" cx="101.6" cy="375.46" r="8"/>
		<path d="M101.6,369.46c3.31,0,6,2.69,6,6s-2.69,6-6,6s-6-2.69-6-6S98.29,369.46,101.6,369.46 M101.6,365.46c-5.52,0-10,4.48-10,10
			c0,5.52,4.48,10,10,10s10-4.48,10-10C111.6,369.94,107.12,365.46,101.6,365.46L101.6,365.46z"/>
	</g>
	<g>
		<circle class="st1" cx="223.6" cy="375.46" r="8"/>
		<path d="M223.6,369.46c3.31,0,6,2.69,6,6s-2.69,6-6,6s-6-2.69-6-6S220.29,369.46,223.6,369.46 M223.6,365.46
			c-5.52,0-10,4.48-10,10c0,5.52,4.48,10,10,10s10-4.48,10-10C233.6,369.94,229.12,365.46,223.6,365.46L223.6,365.46z"/>
	</g>
	<g>
		<circle class="st1" cx="101.6" cy="501.46" r="8"/>
		<path d="M101.6,495.46c3.31,0,6,2.69,6,6s-2.69,6-6,6s-6-2.69-6-6S98.29,495.46,101.6,495.46 M101.6,491.46c-5.52,0-10,4.48-10,10
			c0,5.52,4.48,10,10,10s10-4.48,10-10C111.6,495.94,107.12,491.46,101.6,491.46L101.6,491.46z"/>
	</g>
	<g>
		<circle class="st1" cx="223.6" cy="501.46" r="8"/>
		<path d="M223.6,495.46c3.31,0,6,2.69,6,6s-2.69,6-6,6s-6-2.69-6-6S220.29,495.46,223.6,495.46 M223.6,491.46
			c-5.52,0-10,4.48-10,10c0,5.52,4.48,10,10,10s10-4.48,10-10C233.6,495.94,229.12,491.46,223.6,491.46L223.6,491.46z"/>
	</g>
	<line class="st2" x1="217.1" y1="412.46" x2="234.6" y2="412.46"/>
	<line class="st2" x1="217.97" y1="428.46" x2="234.6" y2="428.46"/>
	<line class="st2" x1="169.31" y1="506.46" x2="201.93" y2="506.46"/>
	<line class="st2" x1="185.62" y1="489.46" x2="185.62" y2="506.46"/>
	<line class="st2" x1="134.97" y1="504.46" x2="134.97" y2="516.46"/>
	<line class="st2" x1="146.67" y1="504.13" x2="146.67" y2="516.13"/>
	<line class="st2" x1="109.67" y1="474.13" x2="120.6" y2="474.13"/>
	<line class="st2" x1="109.67" y1="461.63" x2="120.6" y2="461.63"/>
	<line class="st2" x1="109.67" y1="449.13" x2="120.6" y2="449.13"/>
	<line class="st2" x1="109.67" y1="436.63" x2="120.6" y2="436.63"/>
	<line class="st2" x1="109.67" y1="424.13" x2="120.6" y2="424.13"/>
	<line class="st2" x1="109.67" y1="411.63" x2="120.6" y2="411.63"/>
	<line class="st2" x1="109.67" y1="399.13" x2="120.6" y2="399.13"/>
	<g>
		<circle class="st1" cx="120.1" cy="367.96" r="1"/>
		<path d="M120.1,364.96c-1.66,0-3,1.34-3,3c0,1.66,1.34,3,3,3c1.66,0,3-1.34,3-3C123.1,366.3,121.75,364.96,120.1,364.96
			L120.1,364.96z"/>
	</g>
	<g>
		<circle class="st1" cx="132.24" cy="367.96" r="1"/>
		<path d="M132.24,364.96c-1.66,0-3,1.34-3,3c0,1.66,1.34,3,3,3c1.66,0,3-1.34,3-3C135.24,366.3,133.9,364.96,132.24,364.96
			L132.24,364.96z"/>
	</g>
	<g>
		<circle class="st1" cx="144.38" cy="367.96" r="1"/>
		<path d="M144.38,364.96c-1.66,0-3,1.34-3,3c0,1.66,1.34,3,3,3c1.66,0,3-1.34,3-3C147.38,366.3,146.04,364.96,144.38,364.96
			L144.38,364.96z"/>
	</g>
	<g>
		<circle class="st1" cx="156.53" cy="367.96" r="1"/>
		<path d="M156.53,364.96c-1.66,0-3,1.34-3,3c0,1.66,1.34,3,3,3c1.66,0,3-1.34,3-3C159.53,366.3,158.18,364.96,156.53,364.96
			L156.53,364.96z"/>
	</g>
	<g>
		<circle class="st1" cx="168.67" cy="367.96" r="1"/>
		<path d="M168.67,364.96c-1.66,0-3,1.34-3,3c0,1.66,1.34,3,3,3c1.66,0,3-1.34,3-3C171.67,366.3,170.32,364.96,168.67,364.96
			L168.67,364.96z"/>
	</g>
	<g>
		<circle class="st1" cx="180.81" cy="367.96" r="1"/>
		<path d="M180.81,364.96c-1.66,0-3,1.34-3,3c0,1.66,1.34,3,3,3c1.66,0,3-1.34,3-3C183.81,366.3,182.47,364.96,180.81,364.96
			L180.81,364.96z"/>
	</g>
	<g>
		<circle class="st1" cx="192.95" cy="367.96" r="1"/>
		<path d="M192.95,364.96c-1.66,0-3,1.34-3,3c0,1.66,1.34,3,3,3c1.66,0,3-1.34,3-3C195.95,366.3,194.61,364.96,192.95,364.96
			L192.95,364.96z"/>
	</g>
	<g>
		<circle class="st1" cx="205.1" cy="367.96" r="1"/>
		<path d="M205.1,364.96c-1.66,0-3,1.34-3,3c0,1.66,1.34,3,3,3c1.66,0,3-1.34,3-3C208.1,366.3,206.75,364.96,205.1,364.96
			L205.1,364.96z"/>
	</g>
	<g>
		<circle class="st1" cx="120.1" cy="379.96" r="1"/>
		<path d="M120.1,376.96c-1.66,0-3,1.34-3,3c0,1.66,1.34,3,3,3c1.66,0,3-1.34,3-3C123.1,378.3,121.75,376.96,120.1,376.96
			L120.1,376.96z"/>
	</g>
	<g>
		<circle class="st1" cx="132.24" cy="379.96" r="1"/>
		<path d="M132.24,376.96c-1.66,0-3,1.34-3,3c0,1.66,1.34,3,3,3c1.66,0,3-1.34,3-3C135.24,378.3,133.9,376.96,132.24,376.96
			L132.24,376.96z"/>
	</g>
	<g>
		<circle class="st1" cx="144.38" cy="379.96" r="1"/>
		<path d="M144.38,376.96c-1.66,0-3,1.34-3,3c0,1.66,1.34,3,3,3c1.66,0,3-1.34,3-3C147.38,378.3,146.04,376.96,144.38,376.96
			L144.38,376.96z"/>
	</g>
	<g>
		<circle class="st1" cx="156.53" cy="379.96" r="1"/>
		<path d="M156.53,376.96c-1.66,0-3,1.34-3,3c0,1.66,1.34,3,3,3c1.66,0,3-1.34,3-3C159.53,378.3,158.18,376.96,156.53,376.96
			L156.53,376.96z"/>
	</g>
	<g>
		<circle class="st1" cx="168.67" cy="379.96" r="1"/>
		<path d="M168.67,376.96c-1.66,0-3,1.34-3,3c0,1.66,1.34,3,3,3c1.66,0,3-1.34,3-3C171.67,378.3,170.32,376.96,168.67,376.96
			L168.67,376.96z"/>
	</g>
	<g>
		<circle class="st1" cx="180.81" cy="379.96" r="1"/>
		<path d="M180.81,376.96c-1.66,0-3,1.34-3,3c0,1.66,1.34,3,3,3c1.66,0,3-1.34,3-3C183.81,378.3,182.47,376.96,180.81,376.96
			L180.81,376.96z"/>
	</g>
	<g>
		<circle class="st1" cx="192.95" cy="379.96" r="1"/>
		<path d="M192.95,376.96c-1.66,0-3,1.34-3,3c0,1.66,1.34,3,3,3c1.66,0,3-1.34,3-3C195.95,378.3,194.61,376.96,192.95,376.96
			L192.95,376.96z"/>
	</g>
	<g>
		<circle class="st1" cx="205.1" cy="379.96" r="1"/>
		<path d="M205.1,376.96c-1.66,0-3,1.34-3,3c0,1.66,1.34,3,3,3c1.66,0,3-1.34,3-3C208.1,378.3,206.75,376.96,205.1,376.96
			L205.1,376.96z"/>
	</g>
</g>
</svg>
