<?xml version="1.0" encoding="UTF-8"?><svg id="Ebene_1" xmlns="http://www.w3.org/2000/svg" viewBox="0 0 395 152.19"><defs><style>.cls-1{fill:#ffc000;}.cls-2{fill:#fff;fill-rule:evenodd;}.cls-3{fill:none;stroke:#000;}</style></defs><path class="cls-3" d="m92.85,93.7h16.46v23.24h-16.46v31.42h-28.83v-31.42H4.47l-1.3-18.15L63.72,3.13h29.13v90.57Zm-60.95,0h32.12v-51.27l-1.89,3.29-30.22,47.98Z"/><path d="m95.96,151.47h-35.05v-31.42H1.58l-1.58-22.07L62.01.02h33.95v90.57h16.46v29.47h-16.46v31.42Zm-28.83-6.23h22.6v-31.42h16.46v-17.02h-16.46V6.24h-24.3L6.36,99.59l1.02,14.24h59.76v31.42Zm0-48.44H26.27l33.23-52.75,7.64-13.28v66.03Zm-29.59-6.23h23.37v-37.1l-23.37,37.1Z"/><circle class="cls-1" cx="198.82" cy="77.03" r="69.16"/><path d="m198.78,152.19c-41.31,0-74.91-33.61-74.91-74.91S157.47,2.36,198.78,2.36s74.91,33.61,74.91,74.91-33.61,74.91-74.91,74.91Zm0-143.5c-37.82,0-68.58,30.77-68.58,68.58s30.77,68.58,68.58,68.58,68.58-30.77,68.58-68.58S236.59,8.69,198.78,8.69Z"/><path class="cls-2" d="m210.05,54.64c-4.54-2.11-7.15-7.04-6.36-11.98,4.53,2.1,7.15,7.04,6.36,11.98Z"/><path d="m199.04,118.22c3.04-5.48,4.62-7.36,6.64-9.48h-13.29c2.03,2.12,3.61,4,6.64,9.48Z"/><path d="m233.55,72.09c-.74.7-.78,1.87-.09,2.62l.25.28c10.71-9.14,17.15-16.22,13.94-21.79-3.54-4.93-18.43-2.59-36.7,5.63.92-1.86,1.38-3.9,1.38-5.93,0-.75-.06-1.5-.19-2.25-.44-2.62-1.67-5.14-3.69-7.15-1.1-1.11-2.36-1.97-3.7-2.6l.06-.14h.01l1.4-3.05c.22-.49.01-1.07-.48-1.29-.49-.22-1.07-.01-1.29.48l-1.52,3.3c-2.53-.77-5.25-.77-7.78,0l-1.52-3.3c-.22-.49-.8-.7-1.29-.48-.49.22-.7.8-.48,1.29l1.36,2.95.11.23c-1.34.64-2.59,1.5-3.7,2.61-2.65,2.65-3.94,6.16-3.87,9.65.03,1.89.46,3.77,1.29,5.52-4.72-2.11-30.95-12.97-36.23-5.57-4.79,6.74,9.92,18.53,13.85,21.9l.25-.28c.69-.75.65-1.92-.08-2.62-1.93-1.82-4.96-4.82-7.07-7.74-2.77-3.84-2.84-6.11-1.5-7.37,4.18-3.92,19.67,1.27,24.48,3.1,4.61,1.77,9.59,4.02,14.72,6.73-24.56,14.23-41.24,31.24-37.3,38.06,2.47,4.28,12.74,3.72,25.94-.93l-.48-.78c-.45-.74-1.31-1.08-2.14-.82-9.15,2.77-14.85,4.09-16.83,1.15-2.75-4.77,11.21-21.18,32.9-33.7l1.63-.93c.55.3,1.1.62,1.64.93,21.69,12.52,35.65,28.94,32.9,33.7-1.97,2.95-7.67,1.63-16.83-1.15-.83-.25-1.7.08-2.14.82l-.48.78c13.2,4.65,23.47,5.21,25.94.93,3.93-6.82-12.74-23.83-37.3-38.06,17.28-9.11,32.86-13.17,38.57-10.26,5.13,2.61-3.87,11.69-7.93,15.55Zm-45.6-17.46c-.79-4.94,1.82-9.88,6.36-11.98.79,4.94-1.83,9.87-6.36,11.98Zm22.1,0c-4.54-2.11-7.15-7.04-6.36-11.98,4.53,2.1,7.15,7.04,6.36,11.98Z"/><path d="m183.79,96.37c.73,2.44,1.89,4.73,3.46,6.73h23.57c1.59-1.99,2.73-4.29,3.46-6.73h-30.5Z"/><path d="m214.02,82.64c-4.51-3.3-9.55-6.61-14.98-9.78-5.43,3.17-10.47,6.48-14.97,9.78-.89,2.58-1.29,5.35-1.2,8.1h32.33c.09-2.74-.3-5.52-1.19-8.1Z"/><path class="cls-2" d="m187.95,54.63c-.79-4.94,1.82-9.88,6.36-11.98.79,4.94-1.83,9.87-6.36,11.98Z"/><path class="cls-2" d="m165.32,73.8s.39-.95-.52-1.81c-4.07-3.84-13.07-12.93-7.94-15.55,5.71-2.91,21.32,1.25,38.6,10.36-8.72,5.05-14.7,9.22-21,14.31-6.98-5.11-8.23-6.25-9.14-7.31Z"/><path class="cls-2" d="m233.68,103.57c-1.97,2.95-7.67,1.63-16.83-1.15-.42-.12-.83-.11-1.21.04,2.79-4.05,3.4-11.52,2.43-16.97-.01-.02-.01-.05-.01-.08-.01-.02-.01-.03-.01-.04-.29-2.13-.76-3.82-1.3-4.57,12.16,9.78,18.94,19.33,16.93,22.77Z"/><path class="cls-2" d="m224.05,81.22c-6.16-5.17-12.42-9.36-21.14-14.41,17.28-9.11,32.86-13.17,38.57-10.26,5.13,2.61-3.87,11.69-7.94,15.55-.72.68-.55.99-.52,1.81-.91,1.06-1.99,2.2-8.97,7.31Z"/><path class="cls-2" d="m181.61,80.67c-.54.75-1.01,2.44-1.3,4.57,0,.01,0,.02-.01.04,0,.03,0,.06-.01.08-.98,5.45-.37,12.91,2.43,16.97-.38-.15-.79-.16-1.21-.04-9.15,2.77-14.85,4.09-16.83,1.15-2.01-3.43,4.77-12.98,16.93-22.77Z"/><path d="m378.5,151.86h-35.15v-31.5h-59.49l-1.58-22.13.55-.87L344.46,0h34.04v90.81h16.5v29.54h-16.5v31.5Zm-28.9-6.24h22.66v-31.5h16.5v-17.06h-16.5V6.24h-24.36l-59.24,93.59,1.02,14.28h59.92v31.5Zm0-48.56h-40.98l33.32-52.89,7.66-13.31v66.2Zm-29.67-6.24h23.43v-37.2l-23.43,37.2Z"/></svg>