<?xml version="1.0" encoding="UTF-8"?>
<svg id="Icon" xmlns="http://www.w3.org/2000/svg" viewBox="0 0 200 200">
  <path d="m130,36.69c1,0,1.94.39,2.65,1.1l57.54,57.54c.71.71,1.1,1.65,1.1,2.65s-.39,1.94-1.1,2.65l-57.54,57.54c-.71.71-1.65,1.1-2.65,1.1-.52,0-1.02-.1-1.48-.3v-42.99h-57.04v42.99c-.46.2-.96.3-1.48.3-1,0-1.94-.39-2.65-1.1L9.81,100.63c-1.46-1.46-1.46-3.84,0-5.3l57.54-57.54c.71-.71,1.65-1.1,2.65-1.1.52,0,1.02.1,1.48.3v42.99h57.04v-42.99c.46-.2.96-.3,1.48-.3m0-4c-1.98,0-3.97.76-5.48,2.27v41.02h-49.04v-41.02c-1.51-1.51-3.5-2.27-5.48-2.27s-3.97.76-5.48,2.27L6.98,92.5c-3.03,3.03-3.03,7.93,0,10.96l57.54,57.54c1.51,1.51,3.5,2.27,5.48,2.27s3.97-.76,5.48-2.27v-41.02h49.04v41.02c1.51,1.51,3.5,2.27,5.48,2.27s3.97-.76,5.48-2.27l57.54-57.54c3.03-3.03,3.03-7.93,0-10.96l-57.54-57.54c-1.51-1.51-3.5-2.27-5.48-2.27h0Z"/>
</svg>