<svg xmlns="http://www.w3.org/2000/svg" xmlns:xlink="http://www.w3.org/1999/xlink" viewBox="0 0 431 374"><defs><linearGradient id="Unbenannter_Verlauf_19" x1="206.38" y1="40.21" x2="206.38" y2="252.57" gradientUnits="userSpaceOnUse"><stop offset="0" stop-color="#003e6e"/><stop offset="1" stop-color="#668ba8"/></linearGradient><radialGradient id="Unbenannter_Verlauf_7" cx="212.55" cy="342.72" r="194.79" gradientTransform="translate(0 297.91) scale(1 0.13)" gradientUnits="userSpaceOnUse"><stop offset="0" stop-color="#ccc"/><stop offset="1" stop-color="#fff"/></radialGradient></defs><g id="Ebene_2" data-name="Ebene 2"><path d="M327.22,157.76a39.24,39.24,0,0,0-12.37,2,61.68,61.68,0,0,0-74.35-58.63,66.59,66.59,0,0,0-132.77,7.31c0,1.24,0,2.48.11,3.7h-.11a61.66,61.66,0,0,0,0,123.31c33.71,0,202.48,1.23,219.49,1.23a39.46,39.46,0,1,0,0-78.91Z" style="fill:url(#Unbenannter_Verlauf_19)"/><path d="M327.22,267.5c-7.16,0-40.63-.21-79.38-.46-53.69-.34-120.5-.77-140.11-.77A92.49,92.49,0,0,1,79.59,85.68a97.46,97.46,0,0,1,184.1-16.13A92.67,92.67,0,0,1,339.48,128a70.29,70.29,0,0,1-12.26,139.5Z" style="fill:none;stroke:#666;stroke-miterlimit:10;stroke-width:1.41732287406921px"/><ellipse cx="212.55" cy="342.72" rx="199.15" ry="25.28" style="fill:url(#Unbenannter_Verlauf_7)"/></g><g id="Ebene_3" data-name="Ebene 3"><polygon points="76.9 85 170 102.88 260.64 68.97 237.82 167 216.86 266.88 104.65 176.87 14.63 179.33 76.9 85" style="fill:none;stroke:#ccc;stroke-miterlimit:10;stroke-width:1.41732287406921px"/><path d="M260.64,69,164.45,12.25l72.76,154.14S365.45,250.24,366.68,249s29.6-49.33,29.6-49.33l-56.72-70.29" style="fill:none;stroke:#ccc;stroke-miterlimit:10;stroke-width:1.41732287406921px"/><polyline points="105.27 176.25 163.22 12.25 170.62 102.27 106.37 173.6 104.03 176.25 237.21 166.39" style="fill:none;stroke:#ccc;stroke-miterlimit:10;stroke-width:1.41732287406921px"/><polyline points="76.9 85 105.04 175.2 80.6 260.1 238.63 165.75 339.56 129.39" style="fill:none;stroke:#ccc;stroke-miterlimit:10;stroke-width:1.41732287406921px"/><polyline points="367.92 251.47 339.56 129.39 217.48 266.27" style="fill:none;stroke:#ccc;stroke-miterlimit:10;stroke-width:1.41732287406921px"/><line x1="79.37" y1="258.87" x2="14.02" y2="178.72" style="fill:none;stroke:#ccc;stroke-miterlimit:10;stroke-width:1.41732287406921px"/><polyline points="371.62 251.47 106.27 176.44 260.64 68.97" style="fill:none;stroke:#ccc;stroke-miterlimit:10;stroke-width:1.41732287406921px"/><line x1="170.62" y1="102.27" x2="234.74" y2="163.92" style="fill:none;stroke:#ccc;stroke-miterlimit:10;stroke-width:1.41732287406921px"/><line x1="161.99" y1="12.25" x2="78.14" y2="85" style="fill:none;stroke:#ccc;stroke-miterlimit:10;stroke-width:1.41732287406921px"/><line x1="311.81" y1="86.85" x2="239.06" y2="165.77" style="fill:none;stroke:#ccc;stroke-miterlimit:10;stroke-width:1.41732287406921px"/><path d="M14,185.32a6.6,6.6,0,1,1,6.59-6.6A6.61,6.61,0,0,1,14,185.32Z" style="fill:#fff"/><path d="M14,173.54a5.18,5.18,0,1,1-5.19,5.18A5.19,5.19,0,0,1,14,173.54m0-2.84a8,8,0,1,0,8,8,8,8,0,0,0-8-8Z" style="fill:#ffc000"/><path d="M76.9,91.6A6.6,6.6,0,1,1,83.5,85,6.6,6.6,0,0,1,76.9,91.6Z" style="fill:#fff"/><path d="M76.9,79.82A5.18,5.18,0,1,1,71.72,85a5.19,5.19,0,0,1,5.18-5.18m0-2.83a8,8,0,1,0,8,8,8,8,0,0,0-8-8Z" style="fill:#ffc000"/><path d="M163.22,17.61a6.6,6.6,0,1,1,6.6-6.59A6.6,6.6,0,0,1,163.22,17.61Z" style="fill:#fff"/><path d="M163.22,5.83A5.19,5.19,0,1,1,158,11a5.19,5.19,0,0,1,5.18-5.19m0-2.83a8,8,0,1,0,8,8,8,8,0,0,0-8-8Z" style="fill:#ffc000"/><path d="M261.87,75.57a6.6,6.6,0,1,1,6.6-6.6A6.61,6.61,0,0,1,261.87,75.57Z" style="fill:#fff"/><path d="M261.87,63.79A5.18,5.18,0,1,1,256.69,69a5.18,5.18,0,0,1,5.18-5.18m0-2.83a8,8,0,1,0,8,8,8,8,0,0,0-8-8Z" style="fill:#ffc000"/><path d="M310,95.3a6.6,6.6,0,1,1,6.6-6.6A6.61,6.61,0,0,1,310,95.3Z" style="fill:#fff"/><path d="M310,83.52a5.18,5.18,0,1,1-5.18,5.18A5.18,5.18,0,0,1,310,83.52m0-2.83a8,8,0,1,0,8,8,8,8,0,0,0-8-8Z" style="fill:#ffc000"/><path d="M339.56,134.76a6.6,6.6,0,1,1,6.59-6.6A6.61,6.61,0,0,1,339.56,134.76Z" style="fill:#fff"/><path d="M339.56,123a5.18,5.18,0,1,1-5.18,5.18,5.19,5.19,0,0,1,5.18-5.18m0-2.83a8,8,0,1,0,8,8,8,8,0,0,0-8-8Z" style="fill:#ffc000"/><path d="M396.28,206.28a6.6,6.6,0,1,1,6.6-6.6A6.61,6.61,0,0,1,396.28,206.28Z" style="fill:#fff"/><path d="M396.28,194.5a5.18,5.18,0,1,1-5.18,5.18,5.18,5.18,0,0,1,5.18-5.18m0-2.83a8,8,0,1,0,8,8,8,8,0,0,0-8-8Z" style="fill:#ffc000"/><path d="M367.92,260.54a6.6,6.6,0,1,1,6.6-6.6A6.61,6.61,0,0,1,367.92,260.54Z" style="fill:#fff"/><path d="M367.92,248.76a5.18,5.18,0,1,1-5.18,5.18,5.19,5.19,0,0,1,5.18-5.18m0-2.84a8,8,0,1,0,8,8,8,8,0,0,0-8-8Z" style="fill:#ffc000"/><path d="M216.25,272.87a6.6,6.6,0,1,1,6.59-6.6A6.61,6.61,0,0,1,216.25,272.87Z" style="fill:#fff"/><path d="M216.24,261.09a5.18,5.18,0,1,1-5.18,5.18,5.19,5.19,0,0,1,5.18-5.18m0-2.84a8,8,0,1,0,8,8,8,8,0,0,0-8-8Z" style="fill:#ffc000"/><path d="M79.37,267.93a6.6,6.6,0,1,1,6.6-6.59A6.6,6.6,0,0,1,79.37,267.93Z" style="fill:#fff"/><path d="M79.37,256.16a5.18,5.18,0,1,1-5.18,5.18,5.18,5.18,0,0,1,5.18-5.18m0-2.84a8,8,0,1,0,8,8,8,8,0,0,0-8-8Z" style="fill:#ffc000"/><path d="M105,183a6.6,6.6,0,1,1,6.6-6.6A6.61,6.61,0,0,1,105,183Z" style="fill:#fff"/><path d="M105,171.26a5.18,5.18,0,1,1-5.18,5.18,5.18,5.18,0,0,1,5.18-5.18m0-2.84a8,8,0,1,0,8,8,8,8,0,0,0-8-8Z" style="fill:#ffc000"/><path d="M170.39,109.05a6.6,6.6,0,1,1,6.6-6.6A6.6,6.6,0,0,1,170.39,109.05Z" style="fill:#fff"/><path d="M170.39,97.27a5.18,5.18,0,1,1-5.18,5.18,5.18,5.18,0,0,1,5.18-5.18m0-2.83a8,8,0,1,0,8,8,8,8,0,0,0-8-8Z" style="fill:#ffc000"/><path d="M238.21,173.17a6.6,6.6,0,1,1,6.6-6.6A6.6,6.6,0,0,1,238.21,173.17Z" style="fill:#fff"/><path d="M238.22,161.39a5.18,5.18,0,1,1-5.19,5.18,5.19,5.19,0,0,1,5.19-5.18m0-2.83a8,8,0,1,0,8,8,8,8,0,0,0-8-8Z" style="fill:#ffc000"/></g></svg>