<svg xmlns="http://www.w3.org/2000/svg" xmlns:xlink="http://www.w3.org/1999/xlink" viewBox="0 0 415 374"><defs><linearGradient id="Unbenannter_Verlauf_19" x1="82.18" y1="178.38" x2="82.18" y2="258.76" gradientUnits="userSpaceOnUse"><stop offset="0" stop-color="#003e6e"/><stop offset="1" stop-color="#668ba8"/></linearGradient><linearGradient id="Unbenannter_Verlauf_19-2" x1="158.25" y1="125.35" x2="158.25" y2="232.32" xlink:href="#Unbenannter_Verlauf_19"/><linearGradient id="Unbenannter_Verlauf_19-3" x1="271.75" y1="45.22" x2="271.75" y2="212.47" xlink:href="#Unbenannter_Verlauf_19"/><radialGradient id="Unbenannter_Verlauf_7" cx="201.55" cy="342.72" r="194.79" gradientTransform="translate(0 297.91) scale(1 0.13)" gradientUnits="userSpaceOnUse"><stop offset="0" stop-color="#ccc"/><stop offset="1" stop-color="#fff"/></radialGradient></defs><g id="Ebene_2" data-name="Ebene 2"><path d="M127.91,222.87a14.81,14.81,0,0,0-4.68.76,23.34,23.34,0,0,0-28.14-22.19,25.2,25.2,0,0,0-50.25,2.76c0,.47,0,.94,0,1.4h0a23.34,23.34,0,0,0,0,46.68c12.75,0,76.64.46,83.07.46a14.94,14.94,0,1,0,0-29.87Z" style="fill:url(#Unbenannter_Verlauf_19)"/><path d="M219.12,184.56a20,20,0,0,0-6.23,1,31,31,0,0,0-31-30.19,31.46,31.46,0,0,0-6.41.66,33.54,33.54,0,0,0-66.88,3.69c0,.62,0,1.24,0,1.86h0a31.06,31.06,0,1,0,0,62.11c17,0,102,.63,110.56.63a19.88,19.88,0,0,0,0-39.76Z" style="stroke:#fff;stroke-miterlimit:10;fill:url(#Unbenannter_Verlauf_19-2)"/><path d="M366.92,137.8a31.05,31.05,0,0,0-9.74,1.57A48.58,48.58,0,0,0,298.62,93.2,52.44,52.44,0,0,0,194.06,99c0,1,0,2,.08,2.92h-.08a48.56,48.56,0,1,0,0,97.11c26.54,0,159.47,1,172.86,1a31.08,31.08,0,1,0,0-62.15Z" style="stroke:#fff;stroke-miterlimit:10;stroke-width:2px;fill:url(#Unbenannter_Verlauf_19-3)"/><ellipse cx="201.55" cy="342.72" rx="199.15" ry="25.28" style="fill:url(#Unbenannter_Verlauf_7)"/></g><g id="Ebene_3" data-name="Ebene 3"><line x1="54.5" y1="236.5" x2="267.5" y2="146.5" style="fill:none;stroke:#ccc;stroke-miterlimit:10;stroke-width:1.41732287406921px"/><ellipse cx="132.67" cy="200.5" rx="8.91" ry="9.02" style="fill:#fff"/><path d="M132.67,192.89a7.61,7.61,0,1,1-7.49,7.61,7.57,7.57,0,0,1,7.49-7.61m0-2.83A10.44,10.44,0,1,0,143,200.5a10.38,10.38,0,0,0-10.33-10.44Z" style="fill:#ffc000"/><circle cx="261.67" cy="146.35" r="21.94" style="fill:#fff"/><path d="M261.67,125.83a20.52,20.52,0,1,1-20.51,20.52,20.54,20.54,0,0,1,20.51-20.52m0-2.83A23.36,23.36,0,1,0,285,146.35,23.36,23.36,0,0,0,261.67,123Z" style="fill:#ffc000"/><circle cx="54.34" cy="236.69" r="6.6" style="fill:#fff"/><path d="M54.34,231.51a5.18,5.18,0,1,1-5.18,5.18,5.19,5.19,0,0,1,5.18-5.18m0-2.84a8,8,0,1,0,8,8,8,8,0,0,0-8-8Z" style="fill:#ffc000"/></g></svg>