<svg xmlns="http://www.w3.org/2000/svg" xmlns:xlink="http://www.w3.org/1999/xlink" viewBox="0 0 510 374"><defs><linearGradient id="Unbenannter_Verlauf_19" x1="380.25" y1="9.27" x2="380.25" y2="100.35" gradientUnits="userSpaceOnUse"><stop offset="0" stop-color="#003e6e"/><stop offset="1" stop-color="#668ba8"/></linearGradient><radialGradient id="Unbenannter_Verlauf_7" cx="111.35" cy="329.91" r="88.37" gradientTransform="translate(0 286.77) scale(1 0.13)" gradientUnits="userSpaceOnUse"><stop offset="0" stop-color="#ccc"/><stop offset="1" stop-color="#fff"/></radialGradient><linearGradient id="Unbenannter_Verlauf_19-2" x1="397.88" y1="161.24" x2="467.5" y2="161.24" xlink:href="#Unbenannter_Verlauf_19"/><linearGradient id="Unbenannter_Verlauf_19-3" x1="369.51" y1="239.43" x2="441.35" y2="239.43" xlink:href="#Unbenannter_Verlauf_19"/><linearGradient id="Unbenannter_Verlauf_19-4" x1="379.93" y1="293.21" x2="432.65" y2="293.21" xlink:href="#Unbenannter_Verlauf_19"/><linearGradient id="Unbenannter_Verlauf_19-5" x1="336.9" y1="340.97" x2="366.74" y2="340.97" xlink:href="#Unbenannter_Verlauf_19"/></defs><g id="Ebene_2" data-name="Ebene 2"><path d="M432.08,59.68a16.93,16.93,0,0,0-5.31.86,26.44,26.44,0,0,0-26.42-25.71,26,26,0,0,0-5.47.57,28.56,28.56,0,0,0-56.94,3.13c0,.53,0,1.06.05,1.59h-.05a26.44,26.44,0,0,0,0,52.88c14.46,0,86.84.53,94.14.53a16.93,16.93,0,0,0,0-33.85Z" style="stroke:#000;stroke-miterlimit:10;fill:url(#Unbenannter_Verlauf_19)"/><ellipse cx="111.35" cy="329.91" rx="90.35" ry="11.47" style="fill:url(#Unbenannter_Verlauf_7)"/><path d="M116.55,256.14A107.46,107.46,0,1,1,224,148.68,107.58,107.58,0,0,1,116.55,256.14Zm0-205.81a98.36,98.36,0,1,0,98.37,98.35,98.5,98.5,0,0,0-98.37-98.35Z"/><circle cx="116.61" cy="148.33" r="99.2" style="fill:#ffc000"/><path d="M100.57,99.13A16.1,16.1,0,0,1,109.66,82,16.15,16.15,0,0,1,100.57,99.13Z" style="fill:#fff;fill-rule:evenodd"/><path d="M68.23,126.52a2.38,2.38,0,0,0-.73-2.58c-5.82-5.5-18.68-18.49-11.35-22.22,8.16-4.16,30.48,1.78,55.18,14.81A221.24,221.24,0,0,0,81.3,137C71.31,129.66,69.53,128,68.23,126.52Z" style="fill:#fff;fill-rule:evenodd"/><path d="M165.92,169.08c-2.81,4.21-11,2.32-24-1.65a2.7,2.7,0,0,0-1.73.06c4-5.79,4.86-16.47,3.47-24.25a.2.2,0,0,1,0-.11.06.06,0,0,1,0-.06c-.43-3.06-1.09-5.47-1.86-6.54C159.11,150.52,168.8,164.17,165.92,169.08Z" style="fill:#fff;fill-rule:evenodd"/><path d="M152.17,137.13c-8.79-7.39-17.75-13.37-30.21-20.59,24.7-13,47-18.82,55.12-14.65,7.33,3.73-5.53,16.72-11.34,22.22-1,1-.78,1.42-.74,2.58C163.72,128.19,162.15,129.83,152.17,137.13Z" style="fill:#fff;fill-rule:evenodd"/><path d="M91.51,136.35c-.77,1.07-1.47,3.48-1.86,6.53v.06a.24.24,0,0,1,0,.12c-1.39,7.78-.52,18.46,3.47,24.25a2.57,2.57,0,0,0-1.73-.06c-13.09,4-21.24,5.86-24,1.64C64.44,164,74.12,150.33,91.51,136.35Z" style="fill:#fff;fill-rule:evenodd"/><path d="M116.42,190c4.35-7.83,6.6-10.51,9.53-13.55h-19C109.83,179.5,112.08,182.18,116.42,190Z"/><path d="M94.63,158.78a28.86,28.86,0,0,0,5,9.62h33.69a28.4,28.4,0,0,0,4.95-9.62Z"/><path d="M137.83,139.15a249.62,249.62,0,0,0-21.41-14,246.77,246.77,0,0,0-21.38,14,32.1,32.1,0,0,0-1.72,11.58h46.23A32.54,32.54,0,0,0,137.83,139.15Z"/><path d="M165.74,124.11a2.68,2.68,0,0,0-.13,3.75l.36.41c15.31-13.07,24.52-23.18,19.92-31.15-5-7-26.36-3.67-52.44,8a19,19,0,0,0,2-8.48,17.33,17.33,0,0,0-.28-3.21,18.85,18.85,0,0,0-10.56-14l.09-.2h0l2-4.39a1.4,1.4,0,0,0-2.51-1.15L122,78.5a19,19,0,0,0-11.12,0l-2.2-4.73a1.39,1.39,0,0,0-2.53,1.17l2,4.21.16.33a19.13,19.13,0,0,0-9,25.41c-6.75-3-44.23-18.54-51.78-8-6.81,9.6,14.19,26.48,19.8,31.29l.37-.4a2.69,2.69,0,0,0-.12-3.75A86.74,86.74,0,0,1,57.44,113c-4-5.5-4.07-8.73-2.15-10.54,6-5.6,28.11,1.82,35,4.4a197.51,197.51,0,0,1,21,9.61c-35.09,20.34-58.94,44.68-53.3,54.4,3.52,6.11,18.21,5.31,37.06-1.34l-.68-1.11a2.63,2.63,0,0,0-3.06-1.18c-13.09,4-21.24,5.86-24,1.64-3.94-6.81,16-30.28,47-48.17l2.32-1.33c.78.43,1.57.88,2.34,1.33,31,17.89,50.95,41.36,47,48.17-2.82,4.21-11,2.32-24.05-1.64a2.65,2.65,0,0,0-3.07,1.18l-.68,1.11c18.87,6.65,33.55,7.45,37.08,1.34,5.61-9.75-18.21-34.06-53.31-54.4,24.7-13,47-18.82,55.12-14.65C184.41,105.59,171.55,118.58,165.74,124.11ZM100.55,99.17A16.13,16.13,0,0,1,109.64,82a16.14,16.14,0,0,1-9.07,17.09Zm31.58,0A16.14,16.14,0,0,1,123.05,82a16.13,16.13,0,0,1,9.1,17.11Z" style="fill-rule:evenodd"/><path d="M132.15,99.15A16.16,16.16,0,0,1,123.06,82,16.11,16.11,0,0,1,132.15,99.15Z" style="fill:#fff;fill-rule:evenodd"/><path d="M115.82,268.52a191.32,191.32,0,0,1-43.48-5.44h0c-20-4.88-31.59-15.82-31.78-27.46,0-10.74,8.16-16.17,23.18-17.53,2.57-8.89,13.56-17.44,26.44-17.62a21.44,21.44,0,0,1,11.32,3.61c8.54-7,18.31-13.18,30.88-13.18,21.24,0,39.79,11.62,43.85,27.27,11.47,4,18,9.82,18,18.71,0,6-3.78,13.22-10.92,18-5.5,3.67-16.68,7.72-24,9.26A205.65,205.65,0,0,1,115.82,268.52Z"/><path d="M113.44,262.66a188,188,0,0,1-40.76-4.94C56,253.77,45.11,245.05,45,235.5c0-3,0-11.15,19-12.81l2.37-.22.67-2.23c1.94-6.59,10.89-13.73,22-13.88h.15a17.56,17.56,0,0,1,8.71,2.79l2.19,1.39,2-1.59c7.13-5.67,16-11.46,27.32-11.46,18.51,0,35.08,9.77,38.55,22.7l.47,1.76,1.76.6c13.34,4.5,14.88,10.25,14.88,14.14,0,4.92-3.48,10.36-8.89,13.87-4.87,3.17-15.18,6.73-21.73,8.06A198.78,198.78,0,0,1,113.44,262.66Z" style="fill:#fff"/></g><g id="Ebene_3" data-name="Ebene 3"><line x1="362.37" y1="65.28" x2="253.5" y2="104.5" style="fill:none;stroke:#ccc;stroke-miterlimit:10;stroke-width:1.41732287406921px"/><path d="M248.87,113.57a6.6,6.6,0,1,1,6.6-6.6A6.61,6.61,0,0,1,248.87,113.57Z" style="fill:#fff"/><path d="M248.87,101.79a5.18,5.18,0,1,1-5.18,5.18,5.18,5.18,0,0,1,5.18-5.18m0-2.83a8,8,0,1,0,8,8,8,8,0,0,0-8-8Z" style="fill:#ffc000"/><path d="M366.21,70.17a6.6,6.6,0,1,1,6.6-6.6A6.6,6.6,0,0,1,366.21,70.17Z" style="fill:#fff"/><path d="M366.22,58.39A5.18,5.18,0,1,1,361,63.57a5.19,5.19,0,0,1,5.19-5.18m0-2.83a8,8,0,1,0,8,8,8,8,0,0,0-8-8Z" style="fill:#ffc000"/><line x1="371.18" y1="151.78" x2="255.46" y2="151.4" style="fill:none;stroke:#ccc;stroke-miterlimit:10;stroke-width:1.41732287406921px"/><path d="M250.26,158.73a6.49,6.49,0,0,1-2.26-.4,6.59,6.59,0,0,1-3.94-8.45,6.63,6.63,0,0,1,6.2-4.35,6.73,6.73,0,0,1,2.26.4,6.6,6.6,0,0,1-2.26,12.8Z" style="fill:#fff"/><path d="M250.26,147h0a5.2,5.2,0,0,1,4.87,7,5.2,5.2,0,0,1-4.87,3.41,5.2,5.2,0,0,1-4.87-7,5.21,5.21,0,0,1,4.87-3.41m0-2.83a8,8,0,1,0,2.74.48,8,8,0,0,0-2.74-.48Z" style="fill:#ffc000"/><path d="M375.37,158.09a6.6,6.6,0,0,1,0-13.2,6.6,6.6,0,0,1,6.2,8.85A6.61,6.61,0,0,1,375.37,158.09Z" style="fill:#fff"/><path d="M375.38,146.3h0a5.19,5.19,0,0,1,0,10.37,5.41,5.41,0,0,1-1.77-.31,5.19,5.19,0,0,1,1.78-10.06m0-2.83a8,8,0,1,0,2.74.49,8,8,0,0,0-2.74-.49Z" style="fill:#ffc000"/><line x1="371.18" y1="151.78" x2="255.46" y2="151.4" style="fill:none;stroke:#ccc;stroke-miterlimit:10;stroke-width:1.41732287406921px"/><path d="M250.26,158.73a6.49,6.49,0,0,1-2.26-.4,6.59,6.59,0,0,1-3.94-8.45,6.63,6.63,0,0,1,6.2-4.35,6.73,6.73,0,0,1,2.26.4,6.6,6.6,0,0,1-2.26,12.8Z" style="fill:#fff"/><path d="M250.26,147h0a5.2,5.2,0,0,1,4.87,7,5.2,5.2,0,0,1-4.87,3.41,5.2,5.2,0,0,1-4.87-7,5.21,5.21,0,0,1,4.87-3.41m0-2.83a8,8,0,1,0,2.74.48,8,8,0,0,0-2.74-.48Z" style="fill:#ffc000"/><path d="M375.37,158.09a6.6,6.6,0,0,1,0-13.2,6.6,6.6,0,0,1,6.2,8.85A6.61,6.61,0,0,1,375.37,158.09Z" style="fill:#fff"/><path d="M375.38,146.3h0a5.19,5.19,0,0,1,0,10.37,5.41,5.41,0,0,1-1.77-.31,5.19,5.19,0,0,1,1.78-10.06m0-2.83a8,8,0,1,0,2.74.49,8,8,0,0,0-2.74-.49Z" style="fill:#ffc000"/><line x1="351.87" y1="236.07" x2="243.26" y2="196.13" style="fill:none;stroke:#ccc;stroke-miterlimit:10;stroke-width:1.41732287406921px"/><path d="M238.12,201.65a6.59,6.59,0,1,1,5.06-2.36A6.59,6.59,0,0,1,238.12,201.65Z" style="fill:#fff"/><path d="M238.13,189.87h0a5.18,5.18,0,0,1,4,8.51,5.18,5.18,0,1,1-4-8.51m0-2.84a8,8,0,1,0,5.15,1.88,8,8,0,0,0-5.15-1.88Z" style="fill:#ffc000"/><path d="M355.91,243.83a6.64,6.64,0,0,1-4.24-1.54,6.6,6.6,0,1,1,10.81-5.63,6.6,6.6,0,0,1-6.57,7.17Z" style="fill:#fff"/><path d="M355.92,232.05h0a5.18,5.18,0,0,1,4,8.51,5.18,5.18,0,1,1-4-8.51m0-2.83a8,8,0,1,0,5.14,1.87,8,8,0,0,0-5.14-1.87Z" style="fill:#ffc000"/><line x1="311.01" y1="307.99" x2="222.61" y2="233.32" style="fill:none;stroke:#ccc;stroke-miterlimit:10;stroke-width:1.41732287406921px"/><path d="M218.17,237.14a6.6,6.6,0,0,1-5.72-3.3,6.59,6.59,0,0,1,2.41-9,6.6,6.6,0,1,1,3.31,12.31Z" style="fill:#fff"/><path d="M218.15,225.36h0a5.21,5.21,0,0,1,4.5,2.59,5.2,5.2,0,0,1-1.9,7.08,5.19,5.19,0,0,1-7.08-1.9,5.2,5.2,0,0,1,1.9-7.08,5.22,5.22,0,0,1,2.58-.69m0-2.84a8,8,0,1,0,6.95,4,8,8,0,0,0-6.95-4Z" style="fill:#ffc000"/><path d="M314.42,317.06a6.59,6.59,0,1,1,3.29-.88A6.62,6.62,0,0,1,314.42,317.06Z" style="fill:#fff"/><path d="M314.41,305.28h0A5.19,5.19,0,0,1,317,315a5.14,5.14,0,0,1-2.59.7,5.19,5.19,0,0,1-5-6.53,5.16,5.16,0,0,1,2.42-3.14,5.1,5.1,0,0,1,2.58-.7m0-2.83a8,8,0,0,0,0,16,8,8,0,1,0,0-16Z" style="fill:#ffc000"/><path d="M461.49,174.3l-57.37,0s-3.23.4-4.44-.81a6.74,6.74,0,0,1-1.62-2.83l-.18-13.26a13.11,13.11,0,0,1,4.62-9.37h60.21c2.63,2.16,4.64,6,4.65,12.6l.14,9.62s-.34,2.83-2,3.64C464.44,174.48,461.49,174.3,461.49,174.3Z" style="stroke:#000;stroke-miterlimit:10;fill:url(#Unbenannter_Verlauf_19-2)"/><path d="M467.24,159.05l-6.49,1.44a7.86,7.86,0,0,1-1.68.18c-1.43.05-2.22-.28-4.47-1.57l-1.69-1.53c2.48-4,4.53-4.65,11-5.86,0,0,1.62-.41,2,.4a21.1,21.1,0,0,1,1.19,3.67Z" style="fill:#fff;stroke:#000;stroke-miterlimit:10"/><path d="M463.2,148.65h5a1.76,1.76,0,0,0,1.76-1.76,6.15,6.15,0,0,0-6.15-6.15h-2.64a2.65,2.65,0,0,0-2.56,2" style="fill:none;stroke:#000;stroke-miterlimit:10"/><path d="M402.05,148.65H397a1.75,1.75,0,0,1-1.75-1.76,6.15,6.15,0,0,1,6.15-6.15H404a2.63,2.63,0,0,1,2.56,2" style="fill:none;stroke:#000;stroke-miterlimit:10"/><path d="M411,174.34l.07,3.31a2.62,2.62,0,0,1-2.5,2.75h-7.67a3,3,0,0,1-2.83-2.83v-8.08s.4,4.85,3.23,4.85Z" style="fill:none;stroke:#000;stroke-linejoin:bevel"/><path d="M411,174.34l.79-1.48a8.18,8.18,0,0,1,6.65-3.36h28.39a8.2,8.2,0,0,1,6.65,3.36l.92,1.27" style="fill:none;stroke:#000;stroke-miterlimit:10"/><path d="M453,157.77H412.2S409,161,406.14,160.6c-2.43-.35-8.18-1.55-8.18-1.55" style="fill:none;stroke:#000;stroke-miterlimit:10"/><path d="M398,159.05l6.48,1.44a7.86,7.86,0,0,0,1.68.18,7.2,7.2,0,0,0,4.47-1.57l1.69-1.53c-2.47-4-4.52-4.65-11-5.86,0,0-1.61-.41-2,.4a21.1,21.1,0,0,0-1.19,3.67Z" style="fill:#fff;stroke:#000;stroke-miterlimit:10"/><path d="M462.71,148.07a26.7,26.7,0,0,1-4.06-5.31c-1.43-2.7-6.69-9.93-10-9.93H416.57c-3.28,0-8.55,7.23-10,9.93a25.91,25.91,0,0,1-4.09,5.31Z" style="fill:none;stroke:#000;stroke-miterlimit:10"/><path d="M454.12,174.34l-.07,3.31a2.71,2.71,0,0,0,2.6,2.75h8.49a2.64,2.64,0,0,0,2.42-2.83V170.3s-.81,4-4.14,4Z" style="fill:none;stroke:#000;stroke-linejoin:bevel"/><g id="Robot"><path d="M391.57,281.59l5.19-22-24.91-24.91a8,8,0,0,1,0-11.32,7.84,7.84,0,0,1,4.47-2.22L398,199.5a7.58,7.58,0,0,1,12.93,5.83L422.06,215h14.83l4.46,19.69-2,.86-8.32-12h-6.62a5.75,5.75,0,0,1-1.39,2.27,5.82,5.82,0,0,1-2.74,1.52v6.75l12,8.31-.86,2-19.81-4.48,1.7-13.94L403.92,215l-14.55,14.56,20.24,20.24h5.17l7.5,31.78Z" style="stroke:#000;stroke-miterlimit:10;fill-rule:evenodd;fill:url(#Unbenannter_Verlauf_19-3)"/></g><path d="M417.87,222.93a2.28,2.28,0,0,1-.69-.13,2.39,2.39,0,0,1-.67-.38l-.09-.07a2.33,2.33,0,0,1-.43-.51l-.05-.09a2.31,2.31,0,0,1-.26-.66,2.5,2.5,0,0,1-.05-.47,2.32,2.32,0,0,1,2.32-2.31,3.42,3.42,0,0,1,.45,0,2.7,2.7,0,0,1,.67.26l.09,0a2.44,2.44,0,0,1,.52.45l.08.09a2.06,2.06,0,0,1,.34.59,2.53,2.53,0,0,1,.16.83,2.32,2.32,0,0,1-2.3,2.32Z" style="fill:#fff"/><path d="M418,218.81a1.5,1.5,0,0,1,.35,0,1.6,1.6,0,0,1,.51.19l.09,0a2.18,2.18,0,0,1,.4.35l.06.08a1.94,1.94,0,0,1,.27.44l0,.07v0a1.8,1.8,0,0,1-1.67,2.39h-.1a1.68,1.68,0,0,1-.54-.11h-.06a1.94,1.94,0,0,1-.47-.28l-.06-.05a1.77,1.77,0,0,1-.34-.4l0-.08a1.53,1.53,0,0,1-.21-.51,2.33,2.33,0,0,1,0-.37,1.82,1.82,0,0,1,1.82-1.81m0-1a2.81,2.81,0,0,0-2.82,2.81,2.53,2.53,0,0,0,.06.56,2.83,2.83,0,0,0,.31.81l.06.12a3.16,3.16,0,0,0,.53.62l.11.09a3.23,3.23,0,0,0,.72.42l.09,0a3,3,0,0,0,.84.16h.1a2.81,2.81,0,0,0,2.81-2.82,2.75,2.75,0,0,0-.16-.9l0-.11a2.72,2.72,0,0,0-.42-.72l-.09-.12a3.17,3.17,0,0,0-.63-.53l-.12-.07a2.79,2.79,0,0,0-.82-.31,3.19,3.19,0,0,0-.54-.05Z"/><path d="M402.72,208.63a2.86,2.86,0,1,1,2.85-2.86A2.86,2.86,0,0,1,402.72,208.63Z" style="fill:#fff"/><path d="M402.72,203.42a2.36,2.36,0,1,1-2.35,2.35,2.35,2.35,0,0,1,2.35-2.35m0-1a3.36,3.36,0,1,0,3.35,3.35,3.35,3.35,0,0,0-3.35-3.35Z"/><path d="M378.36,233.25a3.75,3.75,0,1,1,3.74-3.74A3.75,3.75,0,0,1,378.36,233.25Z" style="fill:#fff"/><path d="M378.36,226.26a3.25,3.25,0,1,1-3.25,3.25,3.24,3.24,0,0,1,3.25-3.25m0-1a4.25,4.25,0,1,0,4.24,4.25,4.25,4.25,0,0,0-4.24-4.25Z"/><path d="M405.62,261.31a2.86,2.86,0,1,1,2.85-2.86A2.86,2.86,0,0,1,405.62,261.31Z" style="fill:#fff"/><path d="M405.62,256.1a2.36,2.36,0,1,1-2.35,2.35,2.36,2.36,0,0,1,2.35-2.35m0-1a3.36,3.36,0,1,0,3.36,3.35,3.35,3.35,0,0,0-3.36-3.35Z"/><path d="M429.63,300H383a3,3,0,0,1-3-3l1.63-7.55a3,3,0,0,1,3-3H428a3,3,0,0,1,3,3l1.63,7.55A3,3,0,0,1,429.63,300Z" style="stroke:#000;stroke-miterlimit:10;fill-rule:evenodd;fill:url(#Unbenannter_Verlauf_19-4)"/><path d="M351.82,363.49a14.7,14.7,0,0,1-14.92-14.43,14.36,14.36,0,0,1,5.89-11.49l1.33-1V318.45h15.39v18.14l1.33,1a14.37,14.37,0,0,1,5.9,11.49A14.71,14.71,0,0,1,351.82,363.49Z" style="stroke:#000;stroke-miterlimit:10;fill:url(#Unbenannter_Verlauf_19-5)"/><path d="M351.82,366.75a18,18,0,0,1-18.19-17.69,17.57,17.57,0,0,1,7.23-14.12v-32.8a8.94,8.94,0,0,1,9.05-8.81h3.82a8.94,8.94,0,0,1,9,8.81v32.8A17.59,17.59,0,0,1,370,349.06,18,18,0,0,1,351.82,366.75Z" style="fill:none;stroke:#000;stroke-miterlimit:10"/><line x1="350.23" y1="332.54" x2="362.88" y2="332.54" style="fill:none;stroke:#000;stroke-miterlimit:10"/><line x1="350.23" y1="323.22" x2="362.88" y2="323.22" style="fill:none;stroke:#000;stroke-miterlimit:10"/><line x1="350.23" y1="313.9" x2="362.88" y2="313.9" style="fill:none;stroke:#000;stroke-miterlimit:10"/><line x1="350.23" y1="304.58" x2="362.88" y2="304.58" style="fill:none;stroke:#000;stroke-miterlimit:10"/><path d="M351.82,366.75a18,18,0,0,1-18.19-17.69,17.57,17.57,0,0,1,7.23-14.12v-32.8a8.94,8.94,0,0,1,9.05-8.81h3.82a8.94,8.94,0,0,1,9,8.81v32.8A17.59,17.59,0,0,1,370,349.06,18,18,0,0,1,351.82,366.75Z" style="fill:none;stroke:#000;stroke-miterlimit:10"/></g></svg>