<?xml version="1.0" encoding="UTF-8"?><svg xmlns="http://www.w3.org/2000/svg" xmlns:xlink="http://www.w3.org/1999/xlink" viewBox="0 0 415 374"><defs><radialGradient id="Unbenannter_Verlauf_7" cx="207.5" cy="330.49" fx="207.5" fy="330.49" r="122.96" gradientTransform="translate(0 287.27) scale(1 .13)" gradientUnits="userSpaceOnUse"><stop offset="0" stop-color="#ccc"/><stop offset="1" stop-color="#fff"/></radialGradient><linearGradient id="Unbenannter_Verlauf_19" x1="83.82" y1="143.87" x2="326.25" y2="143.87" gradientUnits="userSpaceOnUse"><stop offset="0" stop-color="#003e6e"/><stop offset="1" stop-color="#668ba8"/></linearGradient></defs><g id="Ebene_2"><ellipse cx="207.5" cy="330.49" rx="125.7" ry="15.96" style="fill:url(#Unbenannter_Verlauf_7);"/></g><g id="Ebene_3"><g id="Ebene_3-2"><path d="M205.07,22.69c-66.97,0-121.25,54.21-121.25,121.18s54.28,121.18,121.25,121.18,121.18-54.28,121.18-121.18S271.97,22.69,205.07,22.69Zm0,192.99c-39.69,0-71.81-32.19-71.81-71.81s32.12-71.81,71.81-71.81,71.81,32.19,71.81,71.81-32.19,71.81-71.81,71.81Z" style="fill:url(#Unbenannter_Verlauf_19); stroke:#000; stroke-miterlimit:10;"/><g><path d="M160.82,40.43l13.67,19.71-2.31-23.84,7.92-2.88,11.01,30.15-6.1,2.24-3.02-8.13-4.07-12.76,1.54,22.93-4.14,1.54-13.6-18.51,5.12,12.34,3.02,8.13-6.1,2.24-11.01-30.15,8.06-3.02Z" style="fill:#fff;"/><path d="M216.29,49.9c.07,5.33-1.26,9.19-4.14,11.64l4.49,3.93-4,3.79-6.03-5.33-1.68,.14c-3.65,.07-6.52-1.12-8.56-3.58-2.03-2.45-3.16-5.82-3.3-10.17l-.07-5.05c-.07-4.42,.91-7.85,2.88-10.38,2.03-2.52,4.84-3.79,8.49-3.86,3.58-.07,6.38,1.12,8.49,3.44,2.1,2.31,3.23,5.68,3.37,9.96l.07,5.47Zm-6.52-4.91c-.07-2.95-.49-5.05-1.33-6.45-.84-1.4-2.17-2.03-3.86-2.03s-3.02,.7-3.79,2.1c-.77,1.4-1.19,3.44-1.19,6.24l.07,5.33c.07,2.95,.49,5.12,1.4,6.45,.84,1.4,2.17,2.03,3.93,2.03s2.95-.77,3.72-2.17,1.19-3.51,1.19-6.38l-.14-5.12Z" style="fill:#fff;"/><path d="M245.81,44.36l-7.64-2.24-7.5,25.67-6.24-1.82,7.5-25.67-7.5-2.17,1.54-5.19,21.39,6.24-1.54,5.19Z" style="fill:#fff;"/><path d="M271.97,59.79l-6.66-4.28-14.38,22.51-5.47-3.51,14.38-22.51-6.59-4.21,2.95-4.56,18.72,11.99-2.95,4.56Z" style="fill:#fff;"/></g><circle cx="205.07" cy="143.87" r="127.07" style="fill:none; stroke:#003e6e; stroke-miterlimit:10; stroke-width:4px;"/><g><path d="M137.33,221.78c.84-.91,1.26-1.89,1.26-2.81s-.42-2.24-1.19-3.93c-1.47-3.02-2.17-5.61-2.1-7.71,.07-2.1,.91-4,2.38-5.54,1.82-1.96,3.93-2.81,6.38-2.73,2.45,.14,4.77,1.19,6.87,3.16,1.4,1.33,2.38,2.81,2.95,4.42,.56,1.61,.63,3.23,.21,4.91-.42,1.61-1.26,3.16-2.59,4.49l-4.63-4.35c.98-1.05,1.54-2.1,1.61-3.09,.07-.98-.35-1.89-1.19-2.66-.84-.77-1.68-1.12-2.52-1.05-.91,.07-1.75,.49-2.45,1.26-.56,.63-.84,1.4-.84,2.38s.42,2.31,1.19,4.07c1.47,2.88,2.17,5.4,2.1,7.5-.07,2.1-.98,4.07-2.66,5.89-1.89,1.96-3.93,2.95-6.31,2.88s-4.56-1.12-6.73-3.16c-1.47-1.4-2.52-2.95-3.16-4.7s-.77-3.51-.42-5.26,1.26-3.44,2.73-4.98l4.63,4.35c-1.26,1.33-1.89,2.52-1.89,3.58-.07,1.05,.49,2.17,1.68,3.23,1.47,1.68,3.09,1.54,4.7-.14Z" style="fill:#fff;"/><path d="M178.77,220.17l-9.68,19.5c-1.47,2.88-3.37,4.77-5.75,5.54s-4.98,.42-7.99-1.05c-3.02-1.47-4.91-3.44-5.75-5.75-.84-2.38-.49-5.05,.98-7.99l9.61-19.35,5.75,2.81-9.61,19.35c-.77,1.61-1.12,2.88-.91,3.79s.91,1.75,2.31,2.38c1.33,.7,2.45,.77,3.3,.35s1.61-1.4,2.45-2.95l9.61-19.43,5.68,2.81Z" style="fill:#fff;"/><path d="M185.57,242.4l-1.75,10.87-6.24-.98,4.91-31,10.59,1.68c3.09,.49,5.33,1.82,6.87,4s2.03,4.84,1.54,7.85c-.49,3.02-1.75,5.26-3.86,6.73-2.1,1.47-4.7,1.96-7.92,1.47l-4.14-.63Zm.77-5.19l4.28,.7c1.19,.21,2.17-.07,2.95-.7s1.26-1.75,1.54-3.23c.28-1.54,.14-2.81-.42-3.86-.49-1.05-1.33-1.61-2.45-1.82l-4.35-.7-1.54,9.61Z" style="fill:#fff;"/><path d="M215.52,243.73l1.54,10.94-6.24,.91-4.42-31.07,10.59-1.47c3.09-.42,5.68,.14,7.78,1.82,2.1,1.61,3.37,4,3.79,7.01,.42,3.02-.14,5.61-1.68,7.57-1.54,2.03-3.93,3.23-7.15,3.72l-4.21,.56Zm-.7-5.19l4.28-.63c1.19-.14,2.03-.7,2.59-1.54s.7-2.03,.49-3.58c-.21-1.54-.7-2.73-1.54-3.58-.77-.84-1.75-1.19-2.88-1.05l-4.35,.63,1.4,9.75Z" style="fill:#fff;"/><path d="M258.16,227.6c1.82,3.79,2.38,7.15,1.61,10.1s-2.73,5.19-5.96,6.73c-3.16,1.54-6.17,1.68-8.98,.49-2.81-1.19-5.12-3.65-7.01-7.36l-2.31-4.84c-1.89-3.86-2.45-7.36-1.68-10.38s2.73-5.33,5.89-6.87c3.16-1.54,6.1-1.68,8.98-.42,2.88,1.26,5.19,3.79,7.15,7.64l2.31,4.91Zm-7.99-1.96c-1.26-2.52-2.52-4.28-3.86-5.19s-2.73-.98-4.28-.21c-1.54,.7-2.31,1.89-2.45,3.44-.14,1.54,.35,3.58,1.54,6.03l2.45,5.05c1.19,2.45,2.45,4.14,3.79,4.91,1.33,.84,2.73,.84,4.28,.07,1.47-.7,2.31-1.82,2.45-3.3s-.35-3.44-1.47-5.89l-2.45-4.91Z" style="fill:#fff;"/><path d="M273.51,216.66l-2.31,2.17,7.85,8.35-4.63,4.35-21.53-22.79,7.36-6.94c2.31-2.17,4.63-3.3,7.01-3.23,2.38,0,4.63,1.12,6.73,3.3,2.88,3.02,3.79,6.17,2.73,9.47l12.83,5.54,.21,.21-4.98,4.7-11.29-5.12Zm-5.96-1.68l2.59-2.45c.91-.84,1.33-1.82,1.19-2.88-.14-1.05-.63-2.1-1.61-3.09-2.17-2.31-4.14-2.59-5.89-.91l-2.66,2.52,6.38,6.8Z" style="fill:#fff;"/><path d="M283.89,178.23l-4,6.66,22.37,13.39-3.23,5.47-22.37-13.39-3.93,6.52-4.56-2.73,11.15-18.65,4.56,2.73Z" style="fill:#fff;"/></g><g><path d="M174.71,184.34h-6.21v-24.34l-6.06,2.33v-5.17l11.62-4.77h.65v31.94Z"/><path d="M198.66,171.18c0,4.42-.79,7.75-2.38,10.08s-3.87,3.48-6.86,3.48-5.22-1.14-6.81-3.38c-1.59-2.29-2.43-5.51-2.48-9.74v-6.01c0-4.37,.79-7.75,2.38-10.08s3.87-3.48,6.86-3.48,5.27,1.14,6.86,3.48c1.59,2.33,2.38,5.61,2.43,9.89v5.76Zm-6.21-6.46c0-2.48-.25-4.37-.75-5.66-.5-1.24-1.29-1.89-2.33-1.89-1.99,0-2.98,2.29-3.08,6.91v7.95c0,2.58,.25,4.47,.75,5.71s1.29,1.89,2.33,1.89,1.74-.6,2.24-1.74c.5-1.19,.75-2.98,.79-5.42v-7.75h.05Z"/><path d="M221.31,171.18c0,4.42-.79,7.75-2.38,10.08s-3.87,3.48-6.86,3.48-5.22-1.14-6.81-3.38c-1.59-2.29-2.43-5.51-2.48-9.74v-6.01c0-4.37,.79-7.75,2.38-10.08s3.87-3.48,6.86-3.48,5.27,1.14,6.86,3.48,2.38,5.61,2.43,9.89v5.76Zm-6.21-6.46c0-2.48-.25-4.37-.75-5.66-.5-1.24-1.29-1.89-2.33-1.89-1.99,0-2.98,2.29-3.08,6.91v7.95c0,2.58,.25,4.47,.75,5.71,.5,1.24,1.29,1.89,2.33,1.89s1.74-.6,2.24-1.74c.5-1.19,.75-2.98,.79-5.42v-7.75h.05Z"/><path d="M225.53,158.61c0-1.94,.55-3.53,1.59-4.77,1.04-1.24,2.53-1.84,4.32-1.84s3.28,.6,4.37,1.79c1.09,1.19,1.64,2.83,1.64,4.87v1.59c0,1.99-.55,3.53-1.64,4.77-1.09,1.19-2.53,1.79-4.32,1.79s-3.23-.6-4.32-1.79c-1.09-1.19-1.64-2.83-1.64-4.87v-1.54h0Zm4.02,1.69c0,.89,.2,1.59,.55,2.09,.35,.5,.84,.79,1.39,.79,.6,0,1.04-.25,1.39-.79,.35-.55,.5-1.24,.5-2.14v-1.64c0-.84-.2-1.54-.55-2.09-.35-.55-.84-.84-1.44-.84s-1.04,.3-1.39,.84c-.35,.55-.55,1.24-.55,2.14v1.64h.1Zm3.08,21.66l-2.93-1.64,13.07-24.89,2.93,1.64-13.07,24.89Zm5.46-5.42c0-1.99,.55-3.58,1.64-4.77s2.53-1.79,4.32-1.79,3.28,.6,4.37,1.79c1.09,1.19,1.64,2.83,1.64,4.87v1.59c0,1.94-.55,3.53-1.59,4.72-1.04,1.19-2.53,1.79-4.37,1.79s-3.33-.6-4.37-1.84c-1.09-1.19-1.64-2.83-1.64-4.82v-1.54Zm4.02,1.69c0,.79,.2,1.49,.6,2.04,.4,.55,.84,.84,1.39,.84,1.19,0,1.84-.84,1.89-2.58v-1.99c0-.84-.2-1.54-.55-2.09-.35-.55-.84-.79-1.39-.79-1.29,0-1.94,1.09-1.94,3.33v1.24Z"/></g><polygon points="114.54 87.84 121.69 89.24 126.95 84.12 127.86 91.34 134.31 94.71 127.72 97.87 126.46 105.09 121.48 99.69 114.26 100.81 117.76 94.36 114.54 87.84" style="fill:#ffc000;"/><polygon points="104.3 118.06 111.45 119.46 116.71 114.35 117.55 121.57 124.07 124.93 117.41 128.09 116.22 135.31 111.24 129.91 104.02 131.04 107.52 124.58 104.3 118.06" style="fill:#ffc000;"/><polygon points="103.39 154.25 110.61 155.65 115.8 150.53 116.71 157.82 123.23 161.19 116.57 164.28 115.38 171.5 110.4 166.17 103.11 167.22 106.68 160.84 103.39 154.25" style="fill:#ffc000;"/><polygon points="309.07 158.45 301.91 159.86 298.97 166.59 295.39 160.21 288.17 159.51 293.15 154.18 291.54 147.02 298.13 150.11 304.44 146.39 303.6 153.62 309.07 158.45" style="fill:#ffc000;"/><polygon points="307.17 126.62 300.02 128.02 297.08 134.75 293.57 128.37 286.28 127.67 291.26 122.27 289.64 115.19 296.3 118.2 302.55 114.49 301.7 121.78 307.17 126.62" style="fill:#ffc000;"/><polygon points="294.34 92.75 287.19 94.15 284.24 100.88 280.67 94.5 273.44 93.8 278.42 88.47 276.81 81.32 283.4 84.33 289.71 80.61 288.87 87.91 294.34 92.75" style="fill:#ffc000;"/><path d="M180.28,116.2v19.03c0,1.41,1.06,2.47,2.47,2.47h19.39c-.23-11.87-9.99-21.5-21.85-21.5Zm0-15.63v8.11c16.1,.12,29.14,13.16,29.25,29.02h8.34c-.12-20.56-16.92-37.13-37.6-37.13h0Zm49.58,34.66v-16.92c-5.76-14.1-17.15-25.14-31.49-30.31h-15.63c-1.41,0-2.47,1.06-2.47,2.47v2.47c24.79,.12,44.88,20.09,45,44.76h2.11c1.29,0,2.47-1.17,2.47-2.47h0Zm-6.58-40.3c2.35,2.47,4.58,5.05,6.58,7.75v-12.22c0-1.41-1.06-2.47-2.47-2.47h-12.57c3.05,2.11,5.87,4.46,8.46,6.93h0Z"/></g></g></svg>