<?xml version="1.0" encoding="utf-8"?>
<!-- Generator: Adobe Illustrator 24.2.1, SVG Export Plug-In . SVG Version: 6.00 Build 0)  -->
<svg version="1.2" baseProfile="tiny" id="Ebene_2" xmlns="http://www.w3.org/2000/svg" xmlns:xlink="http://www.w3.org/1999/xlink"
	 x="0px" y="0px" viewBox="0 0 375.5 301.5" overflow="visible" xml:space="preserve">
<g>
	<path d="M363.3,212.2c-0.1,0-0.3,0-0.4-0.1c-0.1-0.1-0.2-0.1-0.3-0.2c-0.1-0.1-0.2-0.2-0.2-0.3c-0.1-0.1-0.1-0.2-0.1-0.4
		c0-0.3,0.1-0.5,0.3-0.7c0.1-0.1,0.2-0.2,0.3-0.2c0.2-0.1,0.5-0.1,0.8,0c0.1,0,0.2,0.1,0.3,0.2c0.1,0.1,0.2,0.2,0.2,0.3
		c0.1,0.1,0.1,0.2,0.1,0.4c0,0.1,0,0.3-0.1,0.4c-0.1,0.1-0.1,0.2-0.2,0.3c-0.1,0.1-0.2,0.2-0.3,0.2
		C363.6,212.2,363.5,212.2,363.3,212.2z"/>
	<path d="M357.4,211.2c0-0.5,0.5-1,1-1l0,0c0.6,0,1,0.5,1,1l0,0c0,0.6-0.4,1-1,1l0,0C357.8,212.2,357.4,211.8,357.4,211.2z
		 M352.4,211.2c0-0.5,0.4-1,1-1l0,0c0.6,0,1,0.5,1,1l0,0c0,0.6-0.4,1-1,1l0,0C352.8,212.2,352.4,211.8,352.4,211.2z M347.4,211.2
		c0-0.5,0.4-1,1-1l0,0c0.5,0,1,0.5,1,1l0,0c0,0.6-0.5,1-1,1l0,0C347.9,212.2,347.4,211.8,347.4,211.2z M342.5,211.2c0-0.5,0.5-1,1-1
		l0,0c0.6,0,1,0.5,1,1l0,0c0,0.6-0.4,1-1,1l0,0C342.9,212.2,342.5,211.8,342.5,211.2z M298.8,211.2c0-0.5,0.4-1,1-1l0,0
		c0.5,0,1,0.5,1,1l0,0c0,0.6-0.5,1-1,1l0,0C299.2,212.2,298.8,211.8,298.8,211.2z M293.8,211.2c0-0.5,0.5-1,1-1l0,0c0.6,0,1,0.5,1,1
		l0,0c0,0.6-0.4,1-1,1l0,0C294.2,212.2,293.8,211.8,293.8,211.2z M288.8,211.2c0-0.5,0.4-1,1-1l0,0c0.5,0,1,0.5,1,1l0,0
		c0,0.6-0.5,1-1,1l0,0C289.3,212.2,288.8,211.8,288.8,211.2z M283.9,211.2c0-0.5,0.5-1,1-1l0,0c0.6,0,1,0.5,1,1l0,0c0,0.6-0.4,1-1,1
		l0,0C284.3,212.2,283.9,211.8,283.9,211.2z M278.9,211.2c0-0.5,0.4-1,1-1l0,0c0.5,0,1,0.5,1,1l0,0c0,0.6-0.5,1-1,1l0,0
		C279.3,212.2,278.9,211.8,278.9,211.2z M273.9,211.2c0-0.5,0.4-1,1-1l0,0c0.5,0,1,0.5,1,1l0,0c0,0.6-0.5,1-1,1l0,0
		C274.4,212.2,273.9,211.8,273.9,211.2z M269,211.2c0-0.5,0.5-1,1-1l0,0c0.6,0,1,0.5,1,1l0,0c0,0.6-0.4,1-1,1l0,0
		C269.4,212.2,269,211.8,269,211.2z M226.2,211.2c0-0.5,0.4-1,1-1l0,0c0.5,0,1,0.5,1,1l0,0c0,0.6-0.5,1-1,1l0,0
		C226.7,212.2,226.2,211.8,226.2,211.2z M221.3,211.2c0-0.5,0.5-1,1-1l0,0c0.5,0,1,0.5,1,1l0,0c0,0.6-0.5,1-1,1l0,0
		C221.7,212.2,221.3,211.8,221.3,211.2z M216.3,211.2c0-0.5,0.5-1,1-1l0,0c0.5,0,1,0.5,1,1l0,0c0,0.6-0.5,1-1,1l0,0
		C216.7,212.2,216.3,211.8,216.3,211.2z M211.3,211.2c0-0.5,0.4-1,1-1l0,0c0.5,0,1,0.5,1,1l0,0c0,0.6-0.5,1-1,1l0,0
		C211.8,212.2,211.3,211.8,211.3,211.2z M206.4,211.2c0-0.5,0.4-1,1-1l0,0c0.6,0,1,0.5,1,1l0,0c0,0.6-0.4,1-1,1l0,0
		C206.8,212.2,206.4,211.8,206.4,211.2z M201.4,211.2c0-0.5,0.4-1,1-1l0,0c0.5,0,1,0.5,1,1l0,0c0,0.6-0.5,1-1,1l0,0
		C201.8,212.2,201.4,211.8,201.4,211.2z M196.4,211.2c0-0.5,0.5-1,1-1l0,0c0.6,0,1,0.5,1,1l0,0c0,0.6-0.4,1-1,1l0,0
		C196.9,212.2,196.4,211.8,196.4,211.2z M153.7,211.2c0-0.5,0.4-1,1-1l0,0c0.5,0,1,0.5,1,1l0,0c0,0.6-0.5,1-1,1l0,0
		C154.2,212.2,153.7,211.8,153.7,211.2z M148.8,211.2c0-0.5,0.5-1,1-1l0,0c0.6,0,1,0.5,1,1l0,0c0,0.6-0.4,1-1,1l0,0
		C149.2,212.2,148.8,211.8,148.8,211.2z M143.8,211.2c0-0.5,0.4-1,1-1l0,0c0.5,0,1,0.5,1,1l0,0c0,0.6-0.4,1-1,1l0,0
		C144.2,212.2,143.8,211.8,143.8,211.2z M138.8,211.2c0-0.5,0.4-1,1-1l0,0c0.5,0,1,0.5,1,1l0,0c0,0.6-0.5,1-1,1l0,0
		C139.3,212.2,138.8,211.8,138.8,211.2z M133.9,211.2c0-0.5,0.5-1,1-1l0,0c0.5,0,1,0.5,1,1l0,0c0,0.6-0.5,1-1,1l0,0
		C134.3,212.2,133.9,211.8,133.9,211.2z M128.9,211.2c0-0.5,0.5-1,1-1l0,0c0.6,0,1,0.5,1,1l0,0c0,0.6-0.4,1-1,1l0,0
		C129.3,212.2,128.9,211.8,128.9,211.2z M123.9,211.2c0-0.5,0.4-1,1-1l0,0c0.6,0,1,0.5,1,1l0,0c0,0.6-0.4,1-1,1l0,0
		C124.4,212.2,123.9,211.8,123.9,211.2z M119,211.2c0-0.5,0.4-1,1-1l0,0c0.5,0,1,0.5,1,1l0,0c0,0.6-0.5,1-1,1l0,0
		C119.4,212.2,119,211.8,119,211.2z M114,211.2c0-0.5,0.5-1,1-1l0,0c0.6,0,1,0.5,1,1l0,0c0,0.6-0.4,1-1,1l0,0
		C114.4,212.2,114,211.8,114,211.2z M109,211.2c0-0.5,0.4-1,1-1l0,0c0.6,0,1,0.5,1,1l0,0c0,0.6-0.4,1-1,1l0,0
		C109.5,212.2,109,211.8,109,211.2z M104.1,211.2c0-0.5,0.4-1,1-1l0,0c0.5,0,1,0.5,1,1l0,0c0,0.6-0.5,1-1,1l0,0
		C104.5,212.2,104.1,211.8,104.1,211.2z M99.1,211.2c0-0.5,0.5-1,1-1l0,0c0.5,0,1,0.5,1,1l0,0c0,0.6-0.5,1-1,1l0,0
		C99.5,212.2,99.1,211.8,99.1,211.2z M94.1,211.2c0-0.5,0.5-1,1-1l0,0c0.6,0,1,0.5,1,1l0,0c0,0.6-0.4,1-1,1l0,0
		C94.6,212.2,94.1,211.8,94.1,211.2z M89.2,211.2c0-0.5,0.4-1,1-1l0,0c0.6,0,1,0.5,1,1l0,0c0,0.6-0.4,1-1,1l0,0
		C89.6,212.2,89.2,211.8,89.2,211.2z M84.2,211.2c0-0.5,0.4-1,1-1l0,0c0.5,0,1,0.5,1,1l0,0c0,0.6-0.5,1-1,1l0,0
		C84.6,212.2,84.2,211.8,84.2,211.2z M79.2,211.2c0-0.5,0.5-1,1-1l0,0c0.6,0,1,0.5,1,1l0,0c0,0.6-0.4,1-1,1l0,0
		C79.7,212.2,79.2,211.8,79.2,211.2z M74.3,211.2c0-0.5,0.4-1,1-1l0,0c0.6,0,1,0.5,1,1l0,0c0,0.6-0.4,1-1,1l0,0
		C74.7,212.2,74.3,211.8,74.3,211.2z M69.3,211.2c0-0.5,0.4-1,1-1l0,0c0.5,0,1,0.5,1,1l0,0c0,0.6-0.5,1-1,1l0,0
		C69.7,212.2,69.3,211.8,69.3,211.2z M64.3,211.2c0-0.5,0.5-1,1-1l0,0c0.6,0,1,0.5,1,1l0,0c0,0.6-0.4,1-1,1l0,0
		C64.8,212.2,64.3,211.8,64.3,211.2z M59.4,211.2c0-0.5,0.4-1,1-1l0,0c0.5,0,1,0.5,1,1l0,0c0,0.6-0.4,1-1,1l0,0
		C59.8,212.2,59.4,211.8,59.4,211.2z M54.4,211.2c0-0.5,0.4-1,1-1l0,0c0.6,0,1,0.5,1,1l0,0c0,0.6-0.4,1-1,1l0,0
		C54.8,212.2,54.4,211.8,54.4,211.2z M49.4,211.2c0-0.5,0.4-1,1-1l0,0c0.5,0,1,0.5,1,1l0,0c0,0.6-0.5,1-1,1l0,0
		C49.9,212.2,49.4,211.8,49.4,211.2z M44.5,211.2c0-0.5,0.4-1,1-1l0,0c0.6,0,1,0.5,1,1l0,0c0,0.6-0.4,1-1,1l0,0
		C44.9,212.2,44.5,211.8,44.5,211.2z M39.5,211.2c0-0.5,0.4-1,1-1l0,0c0.6,0,1,0.5,1,1l0,0c0,0.6-0.4,1-1,1l0,0
		C39.9,212.2,39.5,211.8,39.5,211.2z M34.5,211.2c0-0.5,0.4-1,1-1l0,0c0.5,0,1,0.5,1,1l0,0c0,0.6-0.5,1-1,1l0,0
		C35,212.2,34.5,211.8,34.5,211.2z M29.5,211.2c0-0.5,0.5-1,1-1l0,0c0.6,0,1,0.5,1,1l0,0c0,0.6-0.4,1-1,1l0,0
		C30,212.2,29.5,211.8,29.5,211.2z M24.6,211.2c0-0.5,0.5-1,1-1l0,0c0.5,0,1,0.5,1,1l0,0c0,0.6-0.5,1-1,1l0,0
		C25,212.2,24.6,211.8,24.6,211.2z M19.6,211.2c0-0.5,0.5-1,1-1l0,0c0.6,0,1,0.5,1,1l0,0c0,0.6-0.4,1-1,1l0,0
		C20.1,212.2,19.6,211.8,19.6,211.2z M14.6,211.2c0-0.5,0.4-1,1-1l0,0c0.6,0,1,0.5,1,1l0,0c0,0.6-0.4,1-1,1l0,0
		C15.1,212.2,14.6,211.8,14.6,211.2z M9.7,211.2c0-0.5,0.4-1,1-1l0,0c0.5,0,1,0.5,1,1l0,0c0,0.6-0.5,1-1,1l0,0
		C10.1,212.2,9.7,211.8,9.7,211.2z"/>
	<path d="M5.7,212.2c-0.1,0-0.3,0-0.4-0.1C5.2,212.1,5.1,212,5,212c-0.1-0.1-0.2-0.2-0.2-0.3c-0.1-0.1-0.1-0.2-0.1-0.4
		c0-0.1,0-0.3,0.1-0.4c0-0.1,0.1-0.2,0.2-0.3c0.1-0.1,0.2-0.2,0.3-0.2c0.2-0.1,0.5-0.1,0.8,0c0.1,0,0.2,0.1,0.3,0.2
		c0.2,0.2,0.3,0.4,0.3,0.7c0,0.1,0,0.3-0.1,0.4c0,0.1-0.1,0.2-0.2,0.3c-0.1,0.1-0.2,0.2-0.3,0.2C6,212.2,5.8,212.2,5.7,212.2z"/>
</g>
<g>
	<path d="M360.8,96.2c-0.1,0-0.3,0-0.4-0.1c-0.1-0.1-0.2-0.1-0.3-0.2c-0.2-0.2-0.3-0.4-0.3-0.7c0-0.3,0.1-0.5,0.3-0.7
		c0.1-0.1,0.2-0.2,0.3-0.2c0.2-0.1,0.4-0.1,0.6-0.1c0.1,0,0.1,0,0.2,0.1c0.1,0,0.1,0.1,0.2,0.1c0.1,0,0.1,0.1,0.2,0.1
		c0.2,0.2,0.3,0.4,0.3,0.7c0,0.3-0.1,0.5-0.3,0.7C361.4,96.1,361.1,96.2,360.8,96.2z"/>
	<path d="M354.8,95.2c0-0.5,0.4-1,1-1l0,0c0.6,0,1,0.5,1,1l0,0c0,0.6-0.4,1-1,1l0,0C355.3,96.2,354.8,95.8,354.8,95.2z M349.8,95.2
		c0-0.5,0.4-1,1-1l0,0c0.6,0,1,0.5,1,1l0,0c0,0.6-0.4,1-1,1l0,0C350.3,96.2,349.8,95.8,349.8,95.2z M344.8,95.2c0-0.5,0.4-1,1-1l0,0
		c0.5,0,1,0.5,1,1l0,0c0,0.6-0.5,1-1,1l0,0C345.3,96.2,344.8,95.8,344.8,95.2z M339.8,95.2c0-0.5,0.4-1,1-1l0,0c0.5,0,1,0.5,1,1l0,0
		c0,0.6-0.5,1-1,1l0,0C340.3,96.2,339.8,95.8,339.8,95.2z M334.8,95.2c0-0.5,0.4-1,1-1l0,0c0.5,0,1,0.5,1,1l0,0c0,0.6-0.5,1-1,1l0,0
		C335.3,96.2,334.8,95.8,334.8,95.2z M329.8,95.2c0-0.5,0.4-1,1-1l0,0c0.5,0,1,0.5,1,1l0,0c0,0.6-0.5,1-1,1l0,0
		C330.3,96.2,329.8,95.8,329.8,95.2z M324.8,95.2c0-0.5,0.5-1,1-1l0,0c0.6,0,1,0.5,1,1l0,0c0,0.6-0.4,1-1,1l0,0
		C325.3,96.2,324.8,95.8,324.8,95.2z M319.8,95.2c0-0.5,0.5-1,1-1l0,0c0.6,0,1,0.5,1,1l0,0c0,0.6-0.4,1-1,1l0,0
		C320.3,96.2,319.8,95.8,319.8,95.2z M314.8,95.2c0-0.5,0.5-1,1-1l0,0c0.5,0,1,0.5,1,1l0,0c0,0.6-0.5,1-1,1l0,0
		C315.3,96.2,314.8,95.8,314.8,95.2z M309.8,95.2c0-0.5,0.5-1,1-1l0,0c0.5,0,1,0.5,1,1l0,0c0,0.6-0.5,1-1,1l0,0
		C310.3,96.2,309.8,95.8,309.8,95.2z M304.8,95.2c0-0.5,0.5-1,1-1l0,0c0.5,0,1,0.5,1,1l0,0c0,0.6-0.5,1-1,1l0,0
		C305.3,96.2,304.8,95.8,304.8,95.2z M299.8,95.2c0-0.5,0.4-1,1-1l0,0c0.5,0,1,0.5,1,1l0,0c0,0.6-0.5,1-1,1l0,0
		C300.3,96.2,299.8,95.8,299.8,95.2z M294.8,95.2c0-0.5,0.4-1,1-1l0,0c0.6,0,1,0.5,1,1l0,0c0,0.6-0.4,1-1,1l0,0
		C295.3,96.2,294.8,95.8,294.8,95.2z M289.8,95.2c0-0.5,0.4-1,1-1l0,0c0.6,0,1,0.5,1,1l0,0c0,0.6-0.4,1-1,1l0,0
		C290.3,96.2,289.8,95.8,289.8,95.2z M284.8,95.2c0-0.5,0.4-1,1-1l0,0c0.5,0,1,0.5,1,1l0,0c0,0.6-0.5,1-1,1l0,0
		C285.3,96.2,284.8,95.8,284.8,95.2z M279.8,95.2c0-0.5,0.4-1,1-1l0,0c0.5,0,1,0.5,1,1l0,0c0,0.6-0.5,1-1,1l0,0
		C280.3,96.2,279.8,95.8,279.8,95.2z M274.8,95.2c0-0.5,0.4-1,1-1l0,0c0.5,0,1,0.5,1,1l0,0c0,0.6-0.5,1-1,1l0,0
		C275.3,96.2,274.8,95.8,274.8,95.2z M269.8,95.2c0-0.5,0.4-1,1-1l0,0c0.5,0,1,0.5,1,1l0,0c0,0.6-0.5,1-1,1l0,0
		C270.2,96.2,269.8,95.8,269.8,95.2z M264.8,95.2c0-0.5,0.4-1,1-1l0,0c0.5,0,1,0.5,1,1l0,0c0,0.6-0.5,1-1,1l0,0
		C265.2,96.2,264.8,95.8,264.8,95.2z M259.8,95.2c0-0.5,0.5-1,1-1l0,0c0.6,0,1,0.5,1,1l0,0c0,0.6-0.4,1-1,1l0,0
		C260.2,96.2,259.8,95.8,259.8,95.2z M254.8,95.2c0-0.5,0.5-1,1-1l0,0c0.5,0,1,0.5,1,1l0,0c0,0.6-0.5,1-1,1l0,0
		C255.2,96.2,254.8,95.8,254.8,95.2z M239.8,95.2c0-0.5,0.4-1,1-1l0,0c0.5,0,1,0.5,1,1l0,0c0,0.6-0.5,1-1,1l0,0
		C240.2,96.2,239.8,95.8,239.8,95.2z M234.8,95.2c0-0.5,0.4-1,1-1l0,0c0.5,0,1,0.5,1,1l0,0c0,0.6-0.5,1-1,1l0,0
		C235.2,96.2,234.8,95.8,234.8,95.2z M229.8,95.2c0-0.5,0.4-1,1-1l0,0c0.6,0,1,0.5,1,1l0,0c0,0.6-0.4,1-1,1l0,0
		C230.2,96.2,229.8,95.8,229.8,95.2z M224.8,95.2c0-0.5,0.4-1,1-1l0,0c0.5,0,1,0.5,1,1l0,0c0,0.6-0.5,1-1,1l0,0
		C225.2,96.2,224.8,95.8,224.8,95.2z M219.8,95.2c0-0.5,0.4-1,1-1l0,0c0.5,0,1,0.5,1,1l0,0c0,0.6-0.5,1-1,1l0,0
		C220.2,96.2,219.8,95.8,219.8,95.2z M214.8,95.2c0-0.5,0.4-1,1-1l0,0c0.5,0,1,0.5,1,1l0,0c0,0.6-0.5,1-1,1l0,0
		C215.2,96.2,214.8,95.8,214.8,95.2z M209.8,95.2c0-0.5,0.4-1,1-1l0,0c0.5,0,1,0.5,1,1l0,0c0,0.6-0.5,1-1,1l0,0
		C210.2,96.2,209.8,95.8,209.8,95.2z M204.8,95.2c0-0.5,0.4-1,1-1l0,0c0.5,0,1,0.5,1,1l0,0c0,0.6-0.5,1-1,1l0,0
		C205.2,96.2,204.8,95.8,204.8,95.2z M199.8,95.2c0-0.5,0.5-1,1-1l0,0c0.6,0,1,0.5,1,1l0,0c0,0.6-0.4,1-1,1l0,0
		C200.2,96.2,199.8,95.8,199.8,95.2z M194.8,95.2c0-0.5,0.5-1,1-1l0,0c0.6,0,1,0.5,1,1l0,0c0,0.6-0.4,1-1,1l0,0
		C195.2,96.2,194.8,95.8,194.8,95.2z M189.8,95.2c0-0.5,0.5-1,1-1l0,0c0.6,0,1,0.5,1,1l0,0c0,0.6-0.4,1-1,1l0,0
		C190.2,96.2,189.8,95.8,189.8,95.2z M184.8,95.2c0-0.5,0.5-1,1-1l0,0c0.6,0,1,0.5,1,1l0,0c0,0.6-0.4,1-1,1l0,0
		C185.2,96.2,184.8,95.8,184.8,95.2z M179.8,95.2c0-0.5,0.4-1,1-1l0,0c0.6,0,1,0.5,1,1l0,0c0,0.6-0.4,1-1,1l0,0
		C180.2,96.2,179.8,95.8,179.8,95.2z M174.8,95.2c0-0.5,0.4-1,1-1l0,0c0.6,0,1,0.5,1,1l0,0c0,0.6-0.4,1-1,1l0,0
		C175.2,96.2,174.8,95.8,174.8,95.2z M169.8,95.2c0-0.5,0.4-1,1-1l0,0c0.6,0,1,0.5,1,1l0,0c0,0.6-0.4,1-1,1l0,0
		C170.2,96.2,169.8,95.8,169.8,95.2z M164.8,95.2c0-0.5,0.4-1,1-1l0,0c0.5,0,1,0.5,1,1l0,0c0,0.6-0.5,1-1,1l0,0
		C165.2,96.2,164.8,95.8,164.8,95.2z M159.8,95.2c0-0.5,0.4-1,1-1l0,0c0.5,0,1,0.5,1,1l0,0c0,0.6-0.5,1-1,1l0,0
		C160.2,96.2,159.8,95.8,159.8,95.2z M154.8,95.2c0-0.5,0.4-1,1-1l0,0c0.5,0,1,0.5,1,1l0,0c0,0.6-0.5,1-1,1l0,0
		C155.2,96.2,154.8,95.8,154.8,95.2z M149.8,95.2c0-0.5,0.4-1,1-1l0,0c0.5,0,1,0.5,1,1l0,0c0,0.6-0.5,1-1,1l0,0
		C150.2,96.2,149.8,95.8,149.8,95.2z M144.8,95.2c0-0.5,0.4-1,1-1l0,0c0.5,0,1,0.5,1,1l0,0c0,0.6-0.5,1-1,1l0,0
		C145.2,96.2,144.8,95.8,144.8,95.2z M139.8,95.2c0-0.5,0.5-1,1-1l0,0c0.6,0,1,0.5,1,1l0,0c0,0.6-0.4,1-1,1l0,0
		C140.2,96.2,139.8,95.8,139.8,95.2z M134.8,95.2c0-0.5,0.5-1,1-1l0,0c0.6,0,1,0.5,1,1l0,0c0,0.6-0.4,1-1,1l0,0
		C135.2,96.2,134.8,95.8,134.8,95.2z M129.8,95.2c0-0.5,0.5-1,1-1l0,0c0.6,0,1,0.5,1,1l0,0c0,0.6-0.4,1-1,1l0,0
		C130.2,96.2,129.8,95.8,129.8,95.2z M124.8,95.2c0-0.5,0.5-1,1-1l0,0c0.6,0,1,0.5,1,1l0,0c0,0.6-0.4,1-1,1l0,0
		C125.2,96.2,124.8,95.8,124.8,95.2z M119.8,95.2c0-0.5,0.4-1,1-1l0,0c0.6,0,1,0.5,1,1l0,0c0,0.6-0.4,1-1,1l0,0
		C120.2,96.2,119.8,95.8,119.8,95.2z M114.8,95.2c0-0.5,0.4-1,1-1l0,0c0.6,0,1,0.5,1,1l0,0c0,0.6-0.4,1-1,1l0,0
		C115.2,96.2,114.8,95.8,114.8,95.2z M109.7,95.2c0-0.5,0.4-1,1-1l0,0c0.6,0,1,0.5,1,1l0,0c0,0.6-0.4,1-1,1l0,0
		C110.2,96.2,109.7,95.8,109.7,95.2z M104.7,95.2c0-0.5,0.4-1,1-1l0,0c0.6,0,1,0.5,1,1l0,0c0,0.6-0.4,1-1,1l0,0
		C105.2,96.2,104.7,95.8,104.7,95.2z M99.7,95.2c0-0.5,0.4-1,1-1l0,0c0.5,0,1,0.5,1,1l0,0c0,0.6-0.5,1-1,1l0,0
		C100.2,96.2,99.7,95.8,99.7,95.2z M94.7,95.2c0-0.5,0.4-1,1-1l0,0c0.5,0,1,0.5,1,1l0,0c0,0.6-0.5,1-1,1l0,0
		C95.2,96.2,94.7,95.8,94.7,95.2z M89.7,95.2c0-0.5,0.4-1,1-1l0,0c0.5,0,1,0.5,1,1l0,0c0,0.6-0.5,1-1,1l0,0
		C90.2,96.2,89.7,95.8,89.7,95.2z M84.7,95.2c0-0.5,0.4-1,1-1l0,0c0.5,0,1,0.5,1,1l0,0c0,0.6-0.5,1-1,1l0,0
		C85.2,96.2,84.7,95.8,84.7,95.2z M79.7,95.2c0-0.5,0.5-1,1-1l0,0c0.6,0,1,0.5,1,1l0,0c0,0.6-0.4,1-1,1l0,0
		C80.2,96.2,79.7,95.8,79.7,95.2z M74.7,95.2c0-0.5,0.5-1,1-1l0,0c0.6,0,1,0.5,1,1l0,0c0,0.6-0.4,1-1,1l0,0
		C75.2,96.2,74.7,95.8,74.7,95.2z M69.7,95.2c0-0.5,0.5-1,1-1l0,0c0.6,0,1,0.5,1,1l0,0c0,0.6-0.4,1-1,1l0,0
		C70.2,96.2,69.7,95.8,69.7,95.2z M64.7,95.2c0-0.5,0.5-1,1-1l0,0c0.6,0,1,0.5,1,1l0,0c0,0.6-0.4,1-1,1l0,0
		C65.2,96.2,64.7,95.8,64.7,95.2z M59.7,95.2c0-0.5,0.5-1,1-1l0,0c0.6,0,1,0.5,1,1l0,0c0,0.6-0.4,1-1,1l0,0
		C60.2,96.2,59.7,95.8,59.7,95.2z M54.7,95.2c0-0.5,0.4-1,1-1l0,0c0.6,0,1,0.5,1,1l0,0c0,0.6-0.4,1-1,1l0,0
		C55.2,96.2,54.7,95.8,54.7,95.2z M49.7,95.2c0-0.5,0.4-1,1-1l0,0c0.6,0,1,0.5,1,1l0,0c0,0.6-0.4,1-1,1l0,0
		C50.2,96.2,49.7,95.8,49.7,95.2z M44.7,95.2c0-0.5,0.4-1,1-1l0,0c0.5,0,1,0.5,1,1l0,0c0,0.6-0.5,1-1,1l0,0
		C45.2,96.2,44.7,95.8,44.7,95.2z M39.7,95.2c0-0.5,0.4-1,1-1l0,0c0.5,0,1,0.5,1,1l0,0c0,0.6-0.5,1-1,1l0,0
		C40.2,96.2,39.7,95.8,39.7,95.2z M34.7,95.2c0-0.5,0.4-1,1-1l0,0c0.5,0,1,0.5,1,1l0,0c0,0.6-0.5,1-1,1l0,0
		C35.2,96.2,34.7,95.8,34.7,95.2z M29.7,95.2c0-0.5,0.4-1,1-1l0,0c0.5,0,1,0.5,1,1l0,0c0,0.6-0.5,1-1,1l0,0
		C30.2,96.2,29.7,95.8,29.7,95.2z M24.7,95.2c0-0.5,0.4-1,1-1l0,0c0.5,0,1,0.5,1,1l0,0c0,0.6-0.5,1-1,1l0,0
		C25.2,96.2,24.7,95.8,24.7,95.2z M19.7,95.2c0-0.5,0.5-1,1-1l0,0c0.6,0,1,0.5,1,1l0,0c0,0.6-0.4,1-1,1l0,0
		C20.2,96.2,19.7,95.8,19.7,95.2z M14.7,95.2c0-0.5,0.5-1,1-1l0,0c0.6,0,1,0.5,1,1l0,0c0,0.6-0.4,1-1,1l0,0
		C15.2,96.2,14.7,95.8,14.7,95.2z M9.7,95.2c0-0.5,0.5-1,1-1l0,0c0.6,0,1,0.5,1,1l0,0c0,0.6-0.4,1-1,1l0,0
		C10.2,96.2,9.7,95.8,9.7,95.2z"/>
	<path d="M5.7,96.2c-0.3,0-0.5-0.1-0.7-0.3c-0.2-0.2-0.3-0.4-0.3-0.7c0-0.3,0.1-0.5,0.3-0.7c0.4-0.4,1-0.4,1.4,0
		c0.2,0.2,0.3,0.4,0.3,0.7c0,0.3-0.1,0.5-0.3,0.7c-0.1,0.1-0.2,0.2-0.3,0.2C6,96.2,5.8,96.2,5.7,96.2z"/>
</g>
<linearGradient id="SVGID_1_" gradientUnits="userSpaceOnUse" x1="248.0683" y1="106.1778" x2="248.0683" y2="179.1995">
	<stop  offset="0" style="stop-color:#FFFFFF"/>
	<stop  offset="0.3545" style="stop-color:#FDFDFE"/>
	<stop  offset="1" style="stop-color:#D7E0E5"/>
</linearGradient>
<path fill="url(#SVGID_1_)" stroke="#808080" stroke-miterlimit="10" d="M343.5,179.2H152.6c-3,0-5.4-2.4-5.4-5.4v-62.1
	c0-3,2.4-5.4,5.4-5.4h190.9c3,0,5.4,2.4,5.4,5.4v62.1C349,176.8,346.5,179.2,343.5,179.2z"/>
<linearGradient id="SVGID_2_" gradientUnits="userSpaceOnUse" x1="248.0683" y1="5.1778" x2="248.0683" y2="78.1995">
	<stop  offset="0" style="stop-color:#FFFFFF"/>
	<stop  offset="0.3545" style="stop-color:#FDFDFE"/>
	<stop  offset="1" style="stop-color:#D7E0E5"/>
</linearGradient>
<path fill="url(#SVGID_2_)" stroke="#808080" stroke-miterlimit="10" d="M343.5,78.2H152.6c-3,0-5.4-2.4-5.4-5.4V10.6
	c0-3,2.4-5.4,5.4-5.4h190.9c3,0,5.4,2.4,5.4,5.4v62.1C349,75.8,346.5,78.2,343.5,78.2z"/>
<g>
	<path d="M195.4,127.9c-8.1,0-14.8,6.6-14.8,14.8c0,8.1,6.6,14.8,14.8,14.8c8.1,0,14.8-6.6,14.8-14.8
		C210.1,134.5,203.5,127.9,195.4,127.9L195.4,127.9z M195.4,158.7c-8.9,0-16.1-7.2-16.1-16.1c0-8.9,7.2-16.1,16.1-16.1
		c8.9,0,16.1,7.2,16.1,16.1C211.5,151.5,204.2,158.7,195.4,158.7L195.4,158.7z"/>
	<path fill-rule="evenodd" fill="#FCBF0B" d="M210.2,142.6c0,8.2-6.7,14.9-14.9,14.9c-8.2,0-14.9-6.7-14.9-14.9
		c0-8.2,6.7-14.9,14.9-14.9C203.6,127.7,210.2,134.4,210.2,142.6L210.2,142.6z"/>
	<path fill-rule="evenodd" fill="#FFFFFF" d="M193,135.2c-0.2-1.1,0.4-2.1,1.4-2.6C194.5,133.7,193.9,134.7,193,135.2L193,135.2z"/>
	<path fill-rule="evenodd" fill="#FFFFFF" d="M188.1,139.3c0,0,0.1-0.2-0.1-0.4c-0.9-0.8-2.8-2.8-1.7-3.3c1.2-0.6,4.6,0.3,8.3,2.2
		c-1.9,1.1-3.2,2-4.5,3.1C188.6,139.8,188.3,139.5,188.1,139.3L188.1,139.3z"/>
	<path fill-rule="evenodd" fill="#FFFFFF" d="M202.8,145.7c-0.4,0.6-1.6,0.3-3.6-0.2c-0.1,0-0.2,0-0.3,0c0.6-0.9,0.7-2.5,0.5-3.6
		l0,0l0,0c-0.1-0.5-0.2-0.8-0.3-1C201.7,142.9,203.2,144.9,202.8,145.7L202.8,145.7z"/>
	<path fill-rule="evenodd" fill="#FFFFFF" d="M200.7,140.9c-1.3-1.1-2.7-2-4.5-3.1c3.7-2,7-2.8,8.3-2.2c1.1,0.6-0.8,2.5-1.7,3.3
		c-0.2,0.1-0.1,0.2-0.1,0.4C202.4,139.6,202.2,139.8,200.7,140.9L200.7,140.9z"/>
	<path fill-rule="evenodd" fill="#FFFFFF" d="M191.6,140.8c-0.1,0.2-0.2,0.5-0.3,1l0,0l0,0c-0.2,1.2-0.1,2.8,0.5,3.6
		c-0.1,0-0.2,0-0.3,0c-2,0.6-3.2,0.9-3.6,0.2C187.5,144.9,189,142.9,191.6,140.8L191.6,140.8z"/>
	<path d="M195.3,148.8c0.7-1.2,1-1.6,1.4-2h-2.8C194.3,147.3,194.7,147.7,195.3,148.8L195.3,148.8z"/>
	<path d="M192.1,144.2c0.2,0.5,0.4,1,0.7,1.4h5c0.3-0.4,0.6-0.9,0.7-1.4H192.1L192.1,144.2z"/>
	<path d="M198.5,141.2c-1-0.7-2-1.4-3.2-2.1c-1.2,0.7-2.2,1.4-3.2,2.1c-0.2,0.6-0.3,1.1-0.3,1.7h6.9
		C198.8,142.4,198.7,141.8,198.5,141.2L198.5,141.2z"/>
	<path fill-rule="evenodd" d="M197.7,135.2c-1-0.5-1.5-1.5-1.4-2.6C197.3,133.1,197.9,134.1,197.7,135.2L197.7,135.2z M193,135.2
		c-0.2-1.1,0.4-2.1,1.4-2.6C194.5,133.7,193.9,134.7,193,135.2L193,135.2z M202.7,138.9c-0.2,0.2-0.2,0.4,0,0.6l0.1,0.1
		c2.3-2,3.7-3.5,3-4.7c-0.8-1.1-4-0.6-7.9,1.2c0.2-0.4,0.3-0.8,0.3-1.3c0-0.2,0-0.3,0-0.5c-0.1-0.6-0.4-1.1-0.8-1.5
		c-0.2-0.2-0.5-0.4-0.8-0.6l0,0h0l0.3-0.6c0-0.1,0-0.2,0-0.2c-0.1-0.1-0.3-0.1-0.3,0.1l-0.3,0.7c-0.5-0.2-1.1-0.2-1.7,0l-0.3-0.7
		c0-0.1-0.2-0.2-0.3-0.1c-0.1,0-0.2,0.2-0.1,0.3l0.3,0.6l0,0.1c-0.3,0.1-0.6,0.3-0.8,0.6c-0.6,0.6-0.8,1.3-0.8,2.1
		c0,0.4,0.1,0.8,0.3,1.2c-1-0.5-6.6-2.8-7.8-1.2c-1,1.4,2.1,4,3,4.7l0.1-0.1c0.1-0.2,0.1-0.4,0-0.6c-0.4-0.4-1.1-1-1.5-1.7
		c-0.6-0.8-0.6-1.3-0.3-1.6c0.9-0.8,4.2,0.3,5.2,0.7c1,0.4,2.1,0.9,3.2,1.4c-5.3,3.1-8.8,6.7-8,8.2c0.5,0.9,2.7,0.8,5.6-0.2
		l-0.1-0.2c-0.1-0.2-0.3-0.2-0.5-0.2c-2,0.6-3.2,0.9-3.6,0.2c-0.6-1,2.4-4.5,7.1-7.2l0.3-0.2c0.1,0.1,0.2,0.1,0.4,0.2
		c4.7,2.7,7.6,6.2,7.1,7.2c-0.4,0.6-1.6,0.3-3.6-0.2c-0.2-0.1-0.4,0-0.5,0.2l-0.1,0.2c2.8,1,5,1.1,5.6,0.2c0.8-1.5-2.7-5.1-8-8.2
		c3.7-2,7-2.8,8.3-2.2C205.5,136.1,203.6,138.1,202.7,138.9L202.7,138.9z"/>
	<path fill-rule="evenodd" fill="#FFFFFF" d="M197.7,135.2c-1-0.5-1.5-1.5-1.4-2.6C197.3,133.1,197.9,134.1,197.7,135.2L197.7,135.2
		z"/>
	<path d="M233.8,129.2v16.1c0,0.4-0.3,0.7-0.7,0.7l-3.6,0c0-6.2,0-6.2,0-6.2c0-0.4-0.3-0.7-0.7-0.7H223c-0.4,0-0.7,0.3-0.7,0.7
		l0,6.3c-3.4,0-3.6,0-3.6,0c-0.4,0-0.7-0.3-0.7-0.7v-16.2c0-0.4,0.3-0.7,0.7-0.7l3.6,0c0,6.1,0,6.2,0,6.2c0,0.4,0.3,0.7,0.7,0.7h5.7
		c0.4,0,0.7-0.3,0.7-0.7l0-6.2c4,0,3.6,0,3.6,0C233.4,128.6,233.8,128.9,233.8,129.2L233.8,129.2z"/>
	<path d="M238.2,130.5h2.6c0.3,0,0.6,0.3,0.6,0.6v14.2c0,0.3-0.3,0.6-0.6,0.6h-2.6c-0.3,0-0.6-0.3-0.6-0.6v-14.2
		C237.6,130.8,237.9,130.5,238.2,130.5L238.2,130.5z"/>
	<path d="M259.4,131.3l-5.2,14.4c-0.1,0.2-0.3,0.4-0.6,0.4h-3.9c-0.3,0-0.5-0.2-0.6-0.4l-5.2-14.4c-0.1-0.4,0.2-0.8,0.6-0.8h2.6
		c0.3,0,0.5,0.2,0.6,0.4l3.4,9.8c0.2,0.5,1,0.5,1.2,0l3.4-9.7c0.1-0.2,0.3-0.4,0.6-0.4h2.6C259.3,130.5,259.6,130.9,259.4,131.3
		L259.4,131.3z"/>
	<path d="M272.8,143.7v1.7c0,0.3-0.3,0.6-0.6,0.6h-9.6c-0.3,0-0.6-0.3-0.6-0.6v-14.2c0-0.3,0.3-0.6,0.6-0.6h9.3
		c0.3,0,0.6,0.3,0.6,0.6v1.8c0,0.3-0.3,0.6-0.6,0.6h-5.6c-0.3,0-0.6,0.3-0.6,0.6c0,0,0,0,0,2.7c0,0-0.1,0,5.7,0l0,2.9
		c-6,0-5.6,0-5.6,0c0,2.8,0,2.8,0,2.8c0,0.3,0.3,0.6,0.6,0.6h5.7C272.5,143.1,272.8,143.3,272.8,143.7L272.8,143.7z"/>
	<path d="M295.6,129.2v16c0,0.4-0.3,0.7-0.7,0.7H292c-0.4,0-0.7-0.3-0.7-0.7l0-10.1c0-0.6-3.8,4.8-3.8,4.8c-0.1,0.2-0.3,0.3-0.6,0.3
		h-1.4c-0.2,0-0.4-0.1-0.6-0.3c0,0-3.8-5.5-3.8-4.8l0,10.2c0,0.4-0.3,0.7-0.7,0.7h-2.9c-0.4,0-0.7-0.3-0.7-0.7v-16
		c0-0.4,0.3-0.7,0.7-0.7h3.9c0.2,0,0.4,0.1,0.6,0.3l3.7,5.3c0.3,0.4,0.9,0.4,1.1,0l3.7-5.3c0.1-0.2,0.3-0.3,0.6-0.3h3.9
		C295.3,128.6,295.6,128.9,295.6,129.2L295.6,129.2z"/>
	<path d="M304.1,141.3c0.8,1,2,1.5,3.6,1.5h0l-1.1-1.2c-0.4-0.4-0.1-1.1,0.5-1.1h2.9c0.2,0,0.4,0.1,0.5,0.2c0.3,0.3,0.8,0.6,1,0.2
		c0.2-0.3,0.5-1,0.6-1.4c0.2-0.7,0.4-1.5,0.4-2.3c0-1-0.2-2-0.6-2.8c-0.4-0.8-0.9-1.5-1.7-1.9c-0.7-0.5-1.6-0.7-2.6-0.7
		c-1.5,0-2.7,0.5-3.6,1.5c-0.8,1-1.3,2.3-1.3,4C302.8,139,303.2,140.3,304.1,141.3L304.1,141.3z M316.1,141.3c-0.4,1-1,1.9-1.8,2.6
		c-0.3,0.2-0.3,0.6,0,0.9l2.4,2.5c-4.3,0-4.6,0-4.6,0c-0.2,0-0.4-0.1-0.5-0.2l-0.8-0.9c-0.2-0.2-0.4-0.3-0.7-0.2
		c-0.7,0.2-1.6,0.2-2.4,0.2c-2,0-3.7-0.4-5.1-1.2c-1.4-0.8-2.4-1.9-3.1-3.2c-0.7-1.4-1-2.9-1-4.6c0-1.7,0.3-3.2,1-4.6
		c0.7-1.4,1.7-2.4,3.1-3.2c1.4-0.8,3.1-1.2,5.1-1.2c2,0,3.7,0.4,5,1.2c1.4,0.8,2.4,1.9,3.2,3.3c0.7,1.4,1.1,2.9,1.1,4.6
		C316.9,138.7,316.6,140.1,316.1,141.3L316.1,141.3z"/>
	<path d="M224.1,154.2c-0.1,0.9-0.4,1.6-1,2.1c-0.5,0.5-1.3,0.7-2.2,0.7c-1,0-1.8-0.4-2.4-1.1c-0.6-0.7-0.9-1.7-0.9-2.9v-0.8
		c0-0.8,0.1-1.5,0.4-2.1c0.3-0.6,0.7-1.1,1.2-1.4c0.5-0.3,1.1-0.5,1.8-0.5c0.9,0,1.6,0.3,2.1,0.8c0.5,0.5,0.8,1.2,0.9,2.1H223
		c-0.1-0.7-0.3-1.2-0.6-1.5c-0.3-0.3-0.8-0.5-1.3-0.5c-0.7,0-1.2,0.3-1.6,0.8s-0.6,1.3-0.6,2.3v0.8c0,0.9,0.2,1.7,0.6,2.2
		c0.4,0.5,0.9,0.8,1.6,0.8c0.6,0,1.1-0.1,1.4-0.4c0.3-0.3,0.5-0.8,0.6-1.5H224.1L224.1,154.2z"/>
	<polygon points="226.8,155.8 230.9,155.8 230.9,156.8 225.7,156.8 225.7,148.3 226.8,148.3 226.8,155.8 	"/>
	<path d="M237.2,152.3c0-1-0.2-1.8-0.6-2.3c-0.4-0.5-1-0.8-1.7-0.8c-0.7,0-1.3,0.3-1.7,0.8c-0.4,0.5-0.6,1.3-0.6,2.2v0.6
		c0,1,0.2,1.7,0.6,2.3c0.4,0.6,1,0.8,1.7,0.8c0.7,0,1.3-0.3,1.7-0.8c0.4-0.5,0.6-1.3,0.6-2.3V152.3L237.2,152.3z M238.3,152.9
		c0,0.8-0.1,1.6-0.4,2.2c-0.3,0.6-0.7,1.1-1.2,1.4c-0.5,0.3-1.1,0.5-1.8,0.5c-0.7,0-1.3-0.2-1.8-0.5c-0.5-0.3-0.9-0.8-1.2-1.4
		c-0.3-0.6-0.4-1.3-0.4-2.1v-0.6c0-0.8,0.1-1.5,0.4-2.2c0.3-0.6,0.7-1.1,1.2-1.4c0.5-0.3,1.1-0.5,1.8-0.5c0.7,0,1.3,0.2,1.8,0.5
		c0.5,0.3,0.9,0.8,1.2,1.4c0.3,0.6,0.4,1.3,0.4,2.2V152.9L238.3,152.9z"/>
	<path d="M245.9,148.3v5.7c0,0.8-0.3,1.4-0.8,2c-0.5,0.5-1.2,0.8-2,0.9l-0.3,0c-0.9,0-1.7-0.2-2.2-0.7c-0.6-0.5-0.8-1.2-0.8-2.1
		v-5.7h1.2v5.7c0,0.6,0.2,1.1,0.5,1.4c0.3,0.3,0.8,0.5,1.4,0.5c0.6,0,1.1-0.2,1.4-0.5c0.3-0.3,0.5-0.8,0.5-1.4v-5.7H245.9
		L245.9,148.3z"/>
	<path d="M248.9,149.3v6.6h1.2c0.8,0,1.5-0.3,2-0.8c0.5-0.5,0.7-1.3,0.7-2.3v-0.5c0-1-0.2-1.7-0.7-2.2c-0.4-0.5-1.1-0.8-1.9-0.8
		H248.9L248.9,149.3z M247.8,156.8v-8.5h2.4c0.7,0,1.4,0.2,1.9,0.5c0.6,0.3,1,0.8,1.3,1.4c0.3,0.6,0.5,1.3,0.5,2.1v0.5
		c0,0.8-0.2,1.5-0.5,2.1c-0.3,0.6-0.7,1.1-1.3,1.4c-0.6,0.3-1.2,0.5-2,0.5H247.8L247.8,156.8z"/>
	<path d="M195.2,160.6c-2.4,0-4.8-0.4-6.5-0.8c-3-0.7-4.7-2.4-4.8-4.1c0-1.6,1.2-2.4,3.5-2.6c0.4-1.3,2-2.6,4-2.6
		c0.7,0,1.4,0.3,1.7,0.5c1.3-1.1,2.7-2,4.6-2c3.2,0,6,1.7,6.6,4.1c1.7,0.6,2.7,1.5,2.7,2.8c0,0.9-0.6,2-1.6,2.7
		c-0.8,0.6-2.5,1.2-3.6,1.4C200,160.3,197.9,160.6,195.2,160.6L195.2,160.6z"/>
	<path fill="#FFFFFF" d="M194.9,159.8c-2.7,0-5.2-0.5-6.1-0.7c-2.5-0.6-4.1-1.9-4.2-3.3c0-0.5,0-1.7,2.8-1.9l0.4,0l0.1-0.3
		c0.3-1,1.6-2.1,3.3-2.1l0,0c0.5,0,1,0.2,1.3,0.4l0.3,0.2l0.3-0.2c1.1-0.9,2.4-1.7,4.1-1.7c2.8,0,5.3,1.5,5.8,3.4l0.1,0.3l0.3,0.1
		c2,0.7,2.2,1.5,2.2,2.1c0,0.7-0.5,1.6-1.3,2.1c-0.7,0.5-2.3,1-3.3,1.2C199,159.6,197.1,159.8,194.9,159.8L194.9,159.8z"/>
</g>
<g>
	<path d="M10.1,271.8l-1.4,0l-0.1-11.4l1.4,0L10.1,271.8z"/>
	<path d="M12.1,267.2c0-1.2,0.3-2.2,0.9-2.9c0.6-0.7,1.4-1.1,2.4-1.1c1,0,1.8,0.3,2.4,1c0.6,0.7,0.9,1.6,0.9,2.8l0,0.9
		c0,1.2-0.3,2.2-0.9,2.9s-1.4,1.1-2.4,1.1c-1,0-1.8-0.3-2.4-1c-0.6-0.7-0.9-1.6-0.9-2.8L12.1,267.2z M13.5,268c0,0.9,0.2,1.6,0.5,2
		s0.8,0.7,1.4,0.7c1.2,0,1.8-0.9,1.9-2.7l0-1c0-0.9-0.2-1.5-0.5-2s-0.8-0.7-1.4-0.7c-0.6,0-1,0.3-1.4,0.8c-0.3,0.5-0.5,1.2-0.5,2
		L13.5,268z"/>
	<path d="M27.2,261.5l-3,0l0.1,10.1l-1.4,0l-0.1-10.1l-3,0l0-1.2l7.4-0.1L27.2,261.5z"/>
	<path d="M32.3,271.6l-0.1-11.4l2.7,0c1.3,0,2.4,0.4,3.1,1.2c0.7,0.8,1.1,2,1.1,3.5l0,1.9c0,1.5-0.4,2.7-1.1,3.5
		c-0.7,0.8-1.8,1.2-3.2,1.3L32.3,271.6z M33.7,261.5l0.1,8.9l1.1,0c1,0,1.7-0.3,2.2-0.9c0.5-0.6,0.7-1.4,0.7-2.6l0-2
		c0-1.2-0.2-2.1-0.7-2.6c-0.5-0.6-1.2-0.8-2.1-0.8L33.7,261.5z"/>
	<path d="M44.3,271.7c-1.1,0-1.9-0.3-2.4-0.9c-0.6-0.6-0.9-1.5-0.9-2.8l0-1c0-1.3,0.3-2.3,0.8-3c0.5-0.7,1.3-1.1,2.3-1.1
		c1,0,1.7,0.3,2.2,0.9s0.8,1.6,0.8,2.9l0,0.9l-4.7,0l0,0.2c0,0.9,0.2,1.6,0.5,2c0.3,0.4,0.8,0.6,1.5,0.6c0.4,0,0.8-0.1,1.1-0.2
		c0.3-0.2,0.6-0.4,0.9-0.7l0.7,0.9C46.4,271.2,45.5,271.7,44.3,271.7z M44.1,264.1c-0.6,0-1,0.2-1.3,0.6c-0.3,0.4-0.4,1-0.5,1.8
		l3.3,0l0-0.2c0-0.8-0.2-1.4-0.4-1.7C45,264.3,44.6,264.1,44.1,264.1z"/>
	<path d="M51,269.4l1.5-6.4l1.4,0l-2.4,8.5l-1,0l-2.6-8.4l1.4,0L51,269.4z"/>
	<path d="M57,260.7c0,0.2-0.1,0.4-0.2,0.6s-0.3,0.2-0.6,0.2c-0.3,0-0.5-0.1-0.6-0.2s-0.2-0.4-0.2-0.6s0.1-0.4,0.2-0.6
		s0.3-0.2,0.6-0.2c0.3,0,0.5,0.1,0.6,0.2C57,260.3,57,260.5,57,260.7z M57,271.4l-1.4,0l-0.1-8.5l1.4,0L57,271.4z"/>
	<path d="M62.1,270.4c0.5,0,0.8-0.1,1.1-0.4c0.3-0.3,0.4-0.7,0.4-1.2l1.3,0c0,0.8-0.3,1.5-0.8,2c-0.5,0.5-1.2,0.8-2,0.8
		c-1,0-1.8-0.3-2.4-1c-0.6-0.7-0.8-1.6-0.8-2.9l0-0.9c0-1.3,0.3-2.2,0.8-2.9c0.5-0.7,1.3-1,2.4-1c0.9,0,1.6,0.3,2.1,0.8
		c0.5,0.5,0.8,1.3,0.8,2.2l-1.3,0c0-0.6-0.2-1.1-0.5-1.4c-0.3-0.3-0.6-0.5-1.1-0.5c-0.6,0-1.1,0.2-1.4,0.6c-0.3,0.4-0.4,1.1-0.4,2
		l0,1.1c0,1,0.2,1.7,0.5,2.1C61,270.2,61.5,270.4,62.1,270.4z"/>
	<path d="M69.6,271.5c-1.1,0-1.9-0.3-2.4-0.9c-0.6-0.6-0.9-1.5-0.9-2.8l0-1c0-1.3,0.3-2.3,0.8-3c0.5-0.7,1.3-1.1,2.3-1.1
		c1,0,1.7,0.3,2.2,0.9s0.8,1.6,0.8,2.9l0,0.9l-4.7,0l0,0.2c0,0.9,0.2,1.6,0.5,2c0.3,0.4,0.8,0.6,1.5,0.6c0.4,0,0.8-0.1,1.1-0.2
		c0.3-0.2,0.6-0.4,0.9-0.7l0.7,0.9C71.7,271,70.8,271.5,69.6,271.5z M69.4,263.9c-0.6,0-1,0.2-1.3,0.6c-0.3,0.4-0.4,1-0.5,1.8l3.3,0
		l0-0.2c0-0.8-0.2-1.4-0.4-1.7C70.3,264.1,69.9,263.9,69.4,263.9z"/>
	<path d="M78.1,269.1c0-0.3-0.1-0.6-0.3-0.8c-0.2-0.2-0.7-0.5-1.3-0.7c-0.7-0.3-1.3-0.6-1.6-0.8c-0.3-0.2-0.5-0.5-0.7-0.7
		s-0.2-0.6-0.2-1c0-0.7,0.2-1.3,0.7-1.7c0.5-0.5,1.1-0.7,1.9-0.7c0.8,0,1.5,0.2,2,0.7c0.5,0.5,0.8,1.1,0.8,1.8l-1.4,0
		c0-0.4-0.1-0.7-0.4-1s-0.6-0.4-1-0.4c-0.4,0-0.7,0.1-1,0.3c-0.2,0.2-0.3,0.5-0.3,0.8c0,0.3,0.1,0.5,0.3,0.7
		c0.2,0.2,0.6,0.4,1.2,0.7c1,0.4,1.7,0.8,2.1,1.2c0.4,0.4,0.6,0.9,0.6,1.5c0,0.7-0.2,1.3-0.7,1.8s-1.2,0.7-2,0.7
		c-0.9,0-1.6-0.2-2.1-0.7c-0.6-0.5-0.8-1.1-0.8-1.9l1.4,0c0,0.5,0.2,0.8,0.4,1.1c0.3,0.3,0.7,0.4,1.1,0.4c0.5,0,0.8-0.1,1-0.3
		C78,269.7,78.1,269.4,78.1,269.1z"/>
</g>
<g>
	<path d="M15,124.8c-0.1,1.2-0.4,2.2-1,2.8c-0.6,0.7-1.5,1-2.6,1c-1.1,0-2.1-0.4-2.7-1.3c-0.7-0.9-1-2-1-3.5l0-2.1
		c0-1.5,0.3-2.7,1-3.5c0.7-0.9,1.6-1.3,2.8-1.3c1.1,0,2,0.3,2.6,1s0.9,1.6,1,2.8l-1.4,0c-0.1-0.9-0.3-1.6-0.6-2s-0.8-0.6-1.5-0.6
		c-0.8,0-1.4,0.3-1.8,0.9c-0.4,0.6-0.6,1.5-0.6,2.7l0,2.1c0,1.2,0.2,2,0.6,2.6s1,0.9,1.7,0.9c0.7,0,1.3-0.2,1.6-0.6
		c0.3-0.4,0.5-1,0.6-2L15,124.8z"/>
	<path d="M16.5,123.8c0-1.2,0.3-2.2,0.9-2.9c0.6-0.7,1.4-1.1,2.4-1.1c1,0,1.8,0.3,2.4,1c0.6,0.7,0.9,1.6,0.9,2.8l0,0.9
		c0,1.2-0.3,2.2-0.9,2.9c-0.6,0.7-1.4,1.1-2.4,1.1c-1,0-1.8-0.3-2.4-1c-0.6-0.7-0.9-1.6-0.9-2.8L16.5,123.8z M17.9,124.6
		c0,0.9,0.2,1.6,0.5,2s0.8,0.7,1.4,0.7c1.2,0,1.8-0.9,1.9-2.7l0-1c0-0.9-0.2-1.5-0.5-2s-0.8-0.7-1.4-0.7c-0.6,0-1,0.3-1.4,0.8
		c-0.3,0.5-0.5,1.2-0.5,2L17.9,124.6z"/>
	<path d="M26.1,119.9l0,0.9c0.5-0.7,1.2-1.1,2-1.1c1.5,0,2.3,1,2.3,3l0,5.6l-1.4,0l0-5.6c0-0.7-0.1-1.1-0.3-1.4
		c-0.2-0.3-0.6-0.4-1-0.4c-0.3,0-0.7,0.1-0.9,0.4s-0.5,0.5-0.7,0.9l0.1,6.1l-1.4,0l-0.1-8.5L26.1,119.9z"/>
	<path d="M33.8,119.8l0,0.9c0.5-0.7,1.2-1.1,2-1.1c1.5,0,2.3,1,2.3,3l0,5.6l-1.4,0l0-5.6c0-0.7-0.1-1.1-0.3-1.4
		c-0.2-0.3-0.6-0.4-1-0.4c-0.3,0-0.7,0.1-0.9,0.4s-0.5,0.5-0.7,0.9l0.1,6.1l-1.4,0l-0.1-8.5L33.8,119.8z"/>
	<path d="M43.4,128.4c-1.1,0-1.9-0.3-2.4-0.9c-0.6-0.6-0.9-1.5-0.9-2.8l0-1c0-1.3,0.3-2.3,0.8-3c0.5-0.7,1.3-1.1,2.3-1.1
		c1,0,1.7,0.3,2.2,0.9s0.8,1.6,0.8,2.9l0,0.9l-4.7,0l0,0.2c0,0.9,0.2,1.6,0.5,2c0.3,0.4,0.8,0.6,1.5,0.6c0.4,0,0.8-0.1,1.1-0.2
		c0.3-0.2,0.6-0.4,0.9-0.7l0.7,0.9C45.5,127.9,44.6,128.4,43.4,128.4z M43.1,120.8c-0.6,0-1,0.2-1.3,0.6c-0.3,0.4-0.4,1-0.5,1.8
		l3.3,0l0-0.2c0-0.8-0.2-1.4-0.4-1.7C44,121,43.7,120.8,43.1,120.8z"/>
	<path d="M50.8,127.1c0.5,0,0.8-0.1,1.1-0.4c0.3-0.3,0.4-0.7,0.4-1.2l1.3,0c0,0.8-0.3,1.5-0.8,2c-0.5,0.5-1.2,0.8-2,0.8
		c-1,0-1.8-0.3-2.4-1c-0.6-0.7-0.8-1.6-0.8-2.9l0-0.9c0-1.3,0.3-2.2,0.8-2.9c0.5-0.7,1.3-1,2.4-1c0.9,0,1.6,0.3,2.1,0.8
		c0.5,0.5,0.8,1.3,0.8,2.2l-1.3,0c0-0.6-0.2-1.1-0.5-1.4c-0.3-0.3-0.6-0.5-1.1-0.5c-0.6,0-1.1,0.2-1.4,0.6c-0.3,0.4-0.4,1.1-0.4,2
		l0,1.1c0,1,0.2,1.7,0.5,2.1C49.6,126.9,50.1,127.1,50.8,127.1z"/>
	<path d="M56.9,117.6l0,2l1.3,0l0,1.1l-1.3,0l0,5.2c0,0.3,0.1,0.6,0.2,0.8c0.1,0.2,0.3,0.3,0.6,0.3c0.2,0,0.4,0,0.6-0.1l0,1.2
		c-0.3,0.1-0.6,0.2-1,0.2c-0.5,0-1-0.2-1.3-0.6c-0.3-0.4-0.4-0.9-0.4-1.7l0-5.2l-1.3,0l0-1.1l1.3,0l0-2L56.9,117.6z"/>
	<path d="M61.5,117.4c0,0.2-0.1,0.4-0.2,0.6s-0.3,0.2-0.6,0.2c-0.3,0-0.5-0.1-0.6-0.2s-0.2-0.3-0.2-0.6s0.1-0.4,0.2-0.6
		s0.3-0.2,0.6-0.2c0.3,0,0.5,0.1,0.6,0.2C61.4,117,61.5,117.1,61.5,117.4z M61.4,128.1l-1.4,0l-0.1-8.5l1.4,0L61.4,128.1z"/>
	<path d="M66,125.9l1.5-6.4l1.4,0l-2.4,8.5l-1,0l-2.6-8.4l1.4,0L66,125.9z"/>
	<path d="M72,117.3c0,0.2-0.1,0.4-0.2,0.6s-0.3,0.2-0.6,0.2c-0.3,0-0.5-0.1-0.6-0.2s-0.2-0.3-0.2-0.6s0.1-0.4,0.2-0.6
		s0.3-0.2,0.6-0.2c0.3,0,0.5,0.1,0.6,0.2C71.9,116.9,72,117.1,72,117.3z M71.9,128l-1.4,0l-0.1-8.5l1.4,0L71.9,128z"/>
	<path d="M75.8,117.5l0,2l1.3,0l0,1.1l-1.3,0l0,5.2c0,0.3,0.1,0.6,0.2,0.8s0.3,0.3,0.6,0.3c0.2,0,0.4,0,0.6-0.1l0,1.2
		c-0.3,0.1-0.6,0.2-1,0.2c-0.5,0-1-0.2-1.3-0.6c-0.3-0.4-0.4-0.9-0.4-1.7l0-5.2l-1.3,0l0-1.1l1.3,0l0-2L75.8,117.5z"/>
	<path d="M81.1,125.6l1.5-6.2l1.5,0l-2.7,9.7c-0.2,0.7-0.5,1.3-0.9,1.7c-0.4,0.4-0.8,0.6-1.3,0.6c-0.2,0-0.4,0-0.7-0.1l0-1.2l0.3,0
		c0.4,0,0.7-0.1,0.9-0.3s0.4-0.5,0.5-1l0.3-0.9l-2.6-8.4l1.5,0L81.1,125.6z"/>
	<path d="M90.8,126.6l4.5,0l0,1.2l-5.9,0l-0.1-11.4l1.4,0L90.8,126.6z"/>
	<path d="M101.1,127.7c-0.1-0.2-0.1-0.5-0.2-0.9c-0.5,0.7-1.1,1.1-1.9,1.1c-0.8,0-1.4-0.2-1.8-0.6s-0.7-1-0.7-1.8
		c0-0.9,0.3-1.5,0.9-2.1c0.6-0.5,1.4-0.8,2.4-0.8l1,0l0-0.9c0-0.5-0.1-0.9-0.3-1.1c-0.2-0.2-0.6-0.3-1-0.3c-0.4,0-0.8,0.1-1,0.4
		c-0.3,0.2-0.4,0.6-0.4,0.9l-1.4,0c0-0.4,0.1-0.8,0.4-1.2c0.3-0.4,0.6-0.7,1-0.9c0.4-0.2,0.9-0.3,1.4-0.3c0.9,0,1.5,0.2,2,0.6
		c0.5,0.4,0.7,1,0.7,1.9l0,4.3c0,0.7,0.1,1.2,0.3,1.7l0,0.1L101.1,127.7z M99.3,126.7c0.3,0,0.7-0.1,1-0.3c0.3-0.2,0.5-0.4,0.7-0.7
		l0-2l-0.8,0c-0.7,0-1.2,0.2-1.6,0.5s-0.6,0.7-0.6,1.2c0,0.5,0.1,0.8,0.3,1C98.5,126.6,98.8,126.7,99.3,126.7z"/>
	<path d="M106.6,125.4l1.5-6.2l1.5,0l-2.7,9.7c-0.2,0.7-0.5,1.3-0.9,1.7c-0.4,0.4-0.8,0.6-1.3,0.6c-0.2,0-0.4,0-0.7-0.1l0-1.2l0.3,0
		c0.4,0,0.7-0.1,0.9-0.3s0.4-0.5,0.5-1l0.3-0.9l-2.6-8.4l1.5,0L106.6,125.4z"/>
	<path d="M113.9,127.8c-1.1,0-1.9-0.3-2.4-0.9c-0.6-0.6-0.9-1.5-0.9-2.8l0-1c0-1.3,0.3-2.3,0.8-3c0.5-0.7,1.3-1.1,2.3-1.1
		c1,0,1.7,0.3,2.2,0.9s0.8,1.6,0.8,2.9l0,0.9l-4.7,0l0,0.2c0,0.9,0.2,1.6,0.5,2c0.3,0.4,0.8,0.6,1.5,0.6c0.4,0,0.8-0.1,1.1-0.2
		c0.3-0.2,0.6-0.4,0.9-0.7l0.7,0.9C116,127.4,115.1,127.8,113.9,127.8z M113.7,120.2c-0.6,0-1,0.2-1.3,0.6c-0.3,0.4-0.4,1-0.5,1.8
		l3.3,0l0-0.2c0-0.8-0.2-1.4-0.4-1.7C114.6,120.4,114.2,120.2,113.7,120.2z"/>
	<path d="M121.8,120.4c-0.2,0-0.4-0.1-0.6,0c-0.7,0-1.2,0.4-1.5,1.2l0,6l-1.4,0l-0.1-8.5l1.3,0l0,0.9c0.4-0.7,0.9-1,1.6-1
		c0.2,0,0.4,0,0.5,0.1L121.8,120.4z"/>
	<path d="M11.3,140.6c-0.2,0-0.4-0.1-0.6,0c-0.7,0-1.2,0.4-1.5,1.2l0,6l-1.4,0l-0.1-8.5l1.3,0l0,0.9c0.4-0.7,0.9-1,1.6-1
		c0.2,0,0.4,0,0.5,0.1L11.3,140.6z"/>
	<path d="M17.1,147c-0.5,0.6-1.1,0.9-2,0.9c-0.8,0-1.3-0.3-1.7-0.8s-0.6-1.3-0.6-2.3l0-5.5l1.4,0l0,5.4c0,1.3,0.4,2,1.2,2
		c0.8,0,1.4-0.4,1.7-1.1l-0.1-6.3l1.4,0l0.1,8.5l-1.3,0L17.1,147z"/>
	<path d="M21.7,139.3l0,0.9c0.5-0.7,1.2-1.1,2-1.1c1.5,0,2.3,1,2.3,3l0,5.6l-1.4,0l0-5.6c0-0.7-0.1-1.1-0.3-1.4
		c-0.2-0.3-0.6-0.4-1-0.4c-0.3,0-0.7,0.1-0.9,0.4c-0.3,0.2-0.5,0.5-0.7,0.9l0.1,6.1l-1.4,0l-0.1-8.5L21.7,139.3z"/>
	<path d="M29.5,139.2l0,0.9c0.5-0.7,1.2-1.1,2-1.1c1.5,0,2.3,1,2.3,3l0,5.6l-1.4,0l0-5.6c0-0.7-0.1-1.1-0.3-1.4
		c-0.2-0.3-0.6-0.4-1-0.4c-0.3,0-0.7,0.1-0.9,0.4c-0.3,0.2-0.5,0.5-0.7,0.9l0.1,6.1l-1.4,0l-0.1-8.5L29.5,139.2z"/>
	<path d="M37.5,136.9c0,0.2-0.1,0.4-0.2,0.6c-0.1,0.2-0.3,0.2-0.6,0.2c-0.3,0-0.5-0.1-0.6-0.2c-0.1-0.2-0.2-0.3-0.2-0.6
		s0.1-0.4,0.2-0.6c0.1-0.2,0.3-0.2,0.6-0.2c0.3,0,0.5,0.1,0.6,0.2S37.5,136.7,37.5,136.9z M37.5,147.6l-1.4,0l-0.1-8.5l1.4,0
		L37.5,147.6z"/>
	<path d="M40.9,139.1l0,0.9c0.5-0.7,1.2-1.1,2-1.1c1.5,0,2.3,1,2.3,3l0,5.6l-1.4,0l0-5.6c0-0.7-0.1-1.1-0.3-1.4s-0.6-0.4-1-0.4
		c-0.3,0-0.7,0.1-0.9,0.4s-0.5,0.5-0.7,0.9l0.1,6.1l-1.4,0l-0.1-8.5L40.9,139.1z"/>
	<path d="M47.1,142.9c0-1.3,0.2-2.3,0.7-3c0.5-0.7,1.2-1,2.1-1c0.9,0,1.5,0.4,2,1.1l0.1-0.9l1.2,0l0.1,8.5c0,1-0.3,1.9-0.8,2.4
		c-0.5,0.6-1.3,0.9-2.2,0.9c-0.4,0-0.9-0.1-1.4-0.3c-0.5-0.2-0.9-0.5-1.2-0.8l0.6-1c0.6,0.6,1.2,0.8,1.9,0.8c1.2,0,1.7-0.6,1.8-1.9
		l0-1.1c-0.4,0.7-1.1,1-1.9,1c-0.9,0-1.6-0.3-2.1-1c-0.5-0.7-0.8-1.6-0.8-2.8L47.1,142.9z M48.5,143.7c0,0.9,0.2,1.6,0.4,2.1
		c0.3,0.4,0.7,0.7,1.4,0.7c0.7,0,1.2-0.4,1.5-1.1l0-4.2c-0.4-0.7-0.9-1-1.5-1c-0.6,0-1.1,0.2-1.4,0.7c-0.3,0.4-0.4,1.1-0.4,2.1
		L48.5,143.7z"/>
	<path d="M58.6,142.8c0-1.2,0.3-2.2,0.9-2.9c0.6-0.7,1.4-1.1,2.4-1.1c1,0,1.8,0.3,2.4,1c0.6,0.7,0.9,1.6,0.9,2.8l0,0.9
		c0,1.2-0.3,2.2-0.9,2.9c-0.6,0.7-1.4,1.1-2.4,1.1c-1,0-1.8-0.3-2.4-1c-0.6-0.7-0.9-1.6-0.9-2.8L58.6,142.8z M60,143.6
		c0,0.9,0.2,1.6,0.5,2c0.3,0.5,0.8,0.7,1.4,0.7c1.2,0,1.8-0.9,1.9-2.7l0-1c0-0.9-0.2-1.5-0.5-2c-0.3-0.5-0.8-0.7-1.4-0.7
		c-0.6,0-1,0.3-1.4,0.8c-0.3,0.5-0.5,1.2-0.5,2L60,143.6z"/>
	<path d="M68.2,138.9l0,0.9c0.5-0.7,1.2-1.1,2-1.1c1.5,0,2.3,1,2.3,3l0,5.6l-1.4,0l0-5.6c0-0.7-0.1-1.1-0.3-1.4
		c-0.2-0.3-0.6-0.4-1-0.4c-0.3,0-0.7,0.1-0.9,0.4c-0.3,0.2-0.5,0.5-0.7,0.9l0.1,6.1l-1.4,0l-0.1-8.5L68.2,138.9z"/>
	<path d="M82.7,147.2c-0.1-0.2-0.1-0.5-0.2-0.9c-0.5,0.7-1.1,1.1-1.9,1.1c-0.8,0-1.4-0.2-1.8-0.6c-0.4-0.4-0.7-1-0.7-1.8
		c0-0.9,0.3-1.5,0.9-2.1s1.4-0.8,2.4-0.8l1,0l0-0.9c0-0.5-0.1-0.9-0.3-1.1s-0.6-0.3-1-0.3c-0.4,0-0.8,0.1-1,0.4
		c-0.3,0.2-0.4,0.6-0.4,0.9l-1.4,0c0-0.4,0.1-0.8,0.4-1.2c0.3-0.4,0.6-0.7,1-0.9s0.9-0.3,1.4-0.3c0.9,0,1.5,0.2,2,0.6
		c0.5,0.4,0.7,1.1,0.7,1.9l0,4.3c0,0.7,0.1,1.2,0.3,1.7l0,0.1L82.7,147.2z M80.9,146.1c0.3,0,0.7-0.1,1-0.3c0.3-0.2,0.5-0.4,0.7-0.7
		l0-2l-0.8,0c-0.7,0-1.2,0.2-1.6,0.5c-0.4,0.3-0.6,0.7-0.6,1.2c0,0.5,0.1,0.8,0.3,1S80.4,146.1,80.9,146.1z"/>
	<path d="M87.3,138.7l0,0.9c0.5-0.7,1.2-1.1,2-1.1c1.5,0,2.3,1,2.3,3l0,5.6l-1.4,0l0-5.6c0-0.7-0.1-1.1-0.3-1.4s-0.6-0.4-1-0.4
		c-0.3,0-0.7,0.1-0.9,0.4c-0.3,0.2-0.5,0.5-0.7,0.9l0.1,6.1l-1.4,0l-0.1-8.5L87.3,138.7z"/>
	<path d="M96.1,144.8l1.5-6.2l1.5,0l-2.7,9.7c-0.2,0.7-0.5,1.3-0.9,1.7c-0.4,0.4-0.8,0.6-1.3,0.6c-0.2,0-0.4,0-0.7-0.1l0-1.2l0.3,0
		c0.4,0,0.7-0.1,0.9-0.3c0.2-0.2,0.4-0.5,0.5-1l0.3-0.9l-2.6-8.4l1.5,0L96.1,144.8z"/>
	<path d="M103.8,142.4c0-1.2,0.3-2.2,0.9-2.9s1.4-1.1,2.4-1.1c1,0,1.8,0.3,2.4,1s0.9,1.6,0.9,2.8l0,0.9c0,1.2-0.3,2.2-0.9,2.9
		s-1.4,1.1-2.4,1.1c-1,0-1.8-0.3-2.4-1c-0.6-0.7-0.9-1.6-0.9-2.8L103.8,142.4z M105.2,143.2c0,0.9,0.2,1.6,0.5,2
		c0.3,0.5,0.8,0.7,1.4,0.7c1.2,0,1.8-0.9,1.9-2.7l0-1c0-0.9-0.2-1.5-0.5-2c-0.3-0.5-0.8-0.7-1.4-0.7c-0.6,0-1,0.3-1.4,0.8
		s-0.5,1.2-0.5,2L105.2,143.2z"/>
	<path d="M115.6,139.8c-0.2,0-0.4-0.1-0.6,0c-0.7,0-1.2,0.4-1.5,1.2l0,6l-1.4,0l-0.1-8.5l1.3,0l0,0.9c0.4-0.7,0.9-1,1.6-1
		c0.2,0,0.4,0,0.5,0.1L115.6,139.8z"/>
	<path d="M9.3,158.7l0,0.8c0.5-0.6,1.2-0.9,2-1c0.9,0,1.6,0.4,2,1.2c0.5-0.8,1.3-1.2,2.2-1.2c1.6,0,2.4,1,2.4,2.9l0,5.7l-1.4,0
		l0-5.6c0-0.6-0.1-1.1-0.3-1.4c-0.2-0.3-0.6-0.4-1.1-0.4c-0.4,0-0.8,0.2-1,0.5c-0.3,0.3-0.4,0.7-0.4,1.2l0,5.7l-1.4,0l0-5.6
		c0-1.2-0.5-1.8-1.4-1.7c-0.7,0-1.2,0.4-1.5,1.1l0.1,6.3l-1.4,0L8,158.7L9.3,158.7z"/>
	<path d="M24.4,166.3c-0.5,0.6-1.1,0.9-2,0.9c-0.8,0-1.3-0.3-1.7-0.8s-0.6-1.3-0.6-2.3l0-5.5l1.4,0l0,5.4c0,1.3,0.4,2,1.2,2
		c0.8,0,1.4-0.4,1.7-1.1l-0.1-6.3l1.4,0l0.1,8.5l-1.3,0L24.4,166.3z"/>
	<path d="M29.3,167l-1.4,0l-0.1-12l1.4,0L29.3,167z"/>
	<path d="M33.2,156.4l0,2l1.3,0l0,1.1l-1.3,0l0,5.2c0,0.3,0.1,0.6,0.2,0.8c0.1,0.2,0.3,0.3,0.6,0.3c0.2,0,0.4,0,0.6-0.1l0,1.2
		c-0.3,0.1-0.6,0.2-1,0.2c-0.5,0-1-0.2-1.3-0.6c-0.3-0.4-0.4-0.9-0.4-1.7l0-5.2l-1.3,0l0-1.1l1.3,0l0-2L33.2,156.4z"/>
	<path d="M37.7,156.2c0,0.2-0.1,0.4-0.2,0.6c-0.1,0.2-0.3,0.2-0.6,0.2c-0.3,0-0.5-0.1-0.6-0.2c-0.1-0.2-0.2-0.3-0.2-0.6
		s0.1-0.4,0.2-0.6s0.3-0.2,0.6-0.2c0.3,0,0.5,0.1,0.6,0.2C37.7,155.8,37.7,156,37.7,156.2z M37.7,166.9l-1.4,0l-0.1-8.5l1.4,0
		L37.7,166.9z"/>
	<path d="M46,163c0,1.3-0.2,2.3-0.7,3c-0.5,0.7-1.2,1-2,1c-0.8,0-1.5-0.3-2-0.9l0,4.1l-1.4,0l-0.1-11.7l1.2,0l0.1,0.9
		c0.5-0.7,1.1-1.1,2-1.1c0.9,0,1.6,0.3,2.1,1s0.7,1.6,0.7,2.9L46,163z M44.6,162.2c0-0.9-0.2-1.6-0.5-2.1c-0.3-0.4-0.8-0.7-1.4-0.7
		c-0.7,0-1.2,0.3-1.5,1l0,4.4c0.3,0.6,0.9,1,1.5,1c0.6,0,1.1-0.2,1.4-0.7c0.3-0.5,0.4-1.1,0.4-2.1L44.6,162.2z"/>
	<path d="M49.3,166.8l-1.4,0l-0.1-12l1.4,0L49.3,166.8z"/>
	<path d="M54.5,166.9c-1.1,0-1.9-0.3-2.4-0.9c-0.6-0.6-0.9-1.5-0.9-2.8l0-1c0-1.3,0.3-2.3,0.8-3c0.5-0.7,1.3-1.1,2.3-1.1
		c1,0,1.7,0.3,2.2,0.9c0.5,0.6,0.8,1.6,0.8,2.9l0,0.9l-4.7,0l0,0.2c0,0.9,0.2,1.6,0.5,2c0.3,0.4,0.8,0.6,1.5,0.6
		c0.4,0,0.8-0.1,1.1-0.2c0.3-0.2,0.6-0.4,0.9-0.7l0.7,0.9C56.6,166.5,55.7,166.9,54.5,166.9z M54.2,159.3c-0.6,0-1,0.2-1.3,0.6
		c-0.3,0.4-0.4,1-0.5,1.8l3.3,0l0-0.2c0-0.8-0.2-1.4-0.4-1.7C55.2,159.5,54.8,159.3,54.2,159.3z"/>
	<path d="M65.5,165.7c0.5,0,0.8-0.1,1.1-0.4c0.3-0.3,0.4-0.7,0.4-1.2l1.3,0c0,0.8-0.3,1.5-0.8,2c-0.5,0.5-1.2,0.8-2,0.8
		c-1,0-1.8-0.3-2.4-1c-0.6-0.7-0.8-1.6-0.8-2.9l0-0.9c0-1.3,0.3-2.2,0.8-2.9c0.5-0.7,1.3-1,2.4-1c0.9,0,1.6,0.3,2.1,0.8
		s0.8,1.3,0.8,2.2l-1.3,0c0-0.6-0.2-1.1-0.5-1.4c-0.3-0.3-0.6-0.5-1.1-0.5c-0.6,0-1.1,0.2-1.4,0.6c-0.3,0.4-0.4,1.1-0.4,2l0,1.1
		c0,1,0.2,1.7,0.5,2.1C64.4,165.5,64.9,165.7,65.5,165.7z"/>
	<path d="M71.5,166.6l-1.4,0l-0.1-12l1.4,0L71.5,166.6z"/>
	<path d="M73.3,162c0-1.2,0.3-2.2,0.9-2.9c0.6-0.7,1.4-1.1,2.4-1.1c1,0,1.8,0.3,2.4,1c0.6,0.7,0.9,1.6,0.9,2.8l0,0.9
		c0,1.2-0.3,2.2-0.9,2.9s-1.4,1.1-2.4,1.1c-1,0-1.8-0.3-2.4-1c-0.6-0.7-0.9-1.6-0.9-2.8L73.3,162z M74.7,162.8c0,0.9,0.2,1.6,0.5,2
		c0.3,0.5,0.8,0.7,1.4,0.7c1.2,0,1.8-0.9,1.9-2.7l0-1c0-0.9-0.2-1.5-0.5-2c-0.3-0.5-0.8-0.7-1.4-0.7c-0.6,0-1,0.3-1.4,0.8
		c-0.3,0.5-0.5,1.2-0.5,2L74.7,162.8z"/>
	<path d="M86,165.8c-0.5,0.6-1.1,0.9-2,0.9c-0.8,0-1.3-0.3-1.7-0.8c-0.4-0.5-0.6-1.3-0.6-2.3l0-5.5l1.4,0l0,5.4c0,1.3,0.4,2,1.2,2
		c0.8,0,1.4-0.4,1.7-1.1l-0.1-6.3l1.4,0l0.1,8.5l-1.3,0L86,165.8z"/>
	<path d="M89.1,161.9c0-1.3,0.2-2.3,0.7-3s1.2-1,2.1-1c0.8,0,1.4,0.3,1.9,1l0-4.4l1.4,0l0.1,12l-1.3,0l-0.1-0.9
		c-0.4,0.7-1.1,1.1-1.9,1.1c-0.9,0-1.6-0.3-2.1-1c-0.5-0.7-0.8-1.6-0.8-2.9L89.1,161.9z M90.5,162.6c0,0.9,0.2,1.6,0.4,2.1
		c0.3,0.4,0.7,0.7,1.4,0.7c0.7,0,1.2-0.4,1.5-1.1l0-4.3c-0.4-0.7-0.9-1-1.5-1c-0.6,0-1.1,0.2-1.4,0.7c-0.3,0.4-0.4,1.1-0.4,2.1
		L90.5,162.6z"/>
	<path d="M101.4,164.2c0-0.3-0.1-0.6-0.3-0.8c-0.2-0.2-0.7-0.5-1.3-0.7c-0.7-0.3-1.3-0.6-1.6-0.8c-0.3-0.2-0.5-0.5-0.7-0.7
		s-0.2-0.6-0.2-1c0-0.7,0.2-1.3,0.7-1.7c0.5-0.5,1.1-0.7,1.9-0.7c0.8,0,1.5,0.2,2,0.7s0.8,1.1,0.8,1.8l-1.4,0c0-0.4-0.1-0.7-0.4-1
		c-0.3-0.3-0.6-0.4-1-0.4c-0.4,0-0.7,0.1-1,0.3c-0.2,0.2-0.3,0.5-0.3,0.8c0,0.3,0.1,0.5,0.3,0.7c0.2,0.2,0.6,0.4,1.2,0.7
		c1,0.4,1.7,0.8,2.1,1.2s0.6,0.9,0.6,1.5c0,0.7-0.2,1.3-0.7,1.8s-1.2,0.7-2,0.7c-0.9,0-1.6-0.2-2.1-0.7c-0.6-0.5-0.8-1.1-0.8-1.9
		l1.4,0c0,0.5,0.2,0.8,0.4,1.1c0.3,0.3,0.7,0.4,1.1,0.4c0.5,0,0.8-0.1,1-0.3S101.5,164.6,101.4,164.2z"/>
</g>
<g>
	<path d="M15,33.5c-0.1,1.2-0.4,2.2-1,2.8c-0.6,0.7-1.5,1-2.6,1c-1.1,0-2.1-0.4-2.7-1.3c-0.7-0.9-1-2-1-3.5l0-2.1
		c0-1.5,0.3-2.7,1-3.5c0.7-0.9,1.6-1.3,2.8-1.3c1.1,0,2,0.3,2.6,1s0.9,1.6,1,2.8l-1.4,0c-0.1-0.9-0.3-1.6-0.6-2s-0.8-0.6-1.5-0.6
		c-0.8,0-1.4,0.3-1.8,0.9c-0.4,0.6-0.6,1.5-0.6,2.7l0,2.1c0,1.2,0.2,2,0.6,2.6s1,0.9,1.7,0.9c0.7,0,1.3-0.2,1.6-0.6
		c0.3-0.4,0.5-1,0.6-2L15,33.5z"/>
	<path d="M18.3,37.1l-1.4,0l-0.1-12l1.4,0L18.3,37.1z"/>
	<path d="M20.2,32.5c0-1.2,0.3-2.2,0.9-2.9c0.6-0.7,1.4-1.1,2.4-1.1s1.8,0.3,2.4,1c0.6,0.7,0.9,1.6,0.9,2.8l0,0.9
		c0,1.2-0.3,2.2-0.9,2.9s-1.4,1.1-2.4,1.1c-1,0-1.8-0.3-2.4-1c-0.6-0.7-0.9-1.6-0.9-2.8L20.2,32.5z M21.5,33.2c0,0.9,0.2,1.6,0.5,2
		s0.8,0.7,1.4,0.7c1.2,0,1.8-0.9,1.9-2.7l0-1c0-0.9-0.2-1.5-0.5-2s-0.8-0.7-1.4-0.7c-0.6,0-1,0.3-1.4,0.8c-0.3,0.5-0.5,1.2-0.5,2
		L21.5,33.2z"/>
	<path d="M32.8,36.2c-0.5,0.6-1.1,0.9-2,0.9c-0.8,0-1.3-0.3-1.7-0.8c-0.4-0.5-0.6-1.3-0.6-2.3l0-5.5l1.4,0l0,5.4c0,1.3,0.4,2,1.2,2
		c0.8,0,1.4-0.4,1.7-1.1l-0.1-6.3l1.4,0l0.1,8.5l-1.3,0L32.8,36.2z"/>
	<path d="M35.9,32.3c0-1.3,0.2-2.3,0.7-3c0.5-0.7,1.2-1,2.1-1c0.8,0,1.4,0.3,1.9,1l0-4.4l1.4,0l0.1,12l-1.3,0L40.7,36
		c-0.4,0.7-1.1,1.1-1.9,1.1c-0.9,0-1.6-0.3-2.1-1c-0.5-0.7-0.8-1.6-0.8-2.9L35.9,32.3z M37.3,33.1c0,0.9,0.2,1.6,0.4,2.1
		c0.3,0.4,0.7,0.7,1.4,0.7c0.7,0,1.2-0.4,1.5-1.1l0-4.3c-0.4-0.7-0.9-1-1.5-1c-0.6,0-1.1,0.2-1.4,0.7c-0.3,0.4-0.4,1.1-0.4,2.1
		L37.3,33.1z"/>
	<path d="M50.2,34.7l1.5-6.4l1.4,0l-2.4,8.5l-1,0l-2.6-8.4l1.4,0L50.2,34.7z"/>
	<path d="M57.6,36.9c-1.1,0-1.9-0.3-2.4-0.9c-0.6-0.6-0.9-1.5-0.9-2.8l0-1c0-1.3,0.3-2.3,0.8-3c0.5-0.7,1.3-1.1,2.3-1.1
		c1,0,1.7,0.3,2.2,0.9s0.8,1.6,0.8,2.9l0,0.9l-4.7,0l0,0.2c0,0.9,0.2,1.6,0.5,2c0.3,0.4,0.8,0.6,1.5,0.6c0.4,0,0.8-0.1,1.1-0.2
		c0.3-0.2,0.6-0.4,0.9-0.7l0.7,0.9C59.8,36.5,58.8,36.9,57.6,36.9z M57.4,29.3c-0.6,0-1,0.2-1.3,0.6s-0.4,1-0.5,1.8l3.3,0l0-0.2
		c0-0.8-0.2-1.4-0.4-1.7C58.3,29.5,57.9,29.3,57.4,29.3z"/>
	<path d="M63.3,28.3l0,0.9c0.5-0.7,1.2-1.1,2-1.1c1.5,0,2.3,1,2.3,3l0,5.6l-1.4,0l0-5.6c0-0.7-0.1-1.1-0.3-1.4
		c-0.2-0.3-0.6-0.4-1-0.4c-0.3,0-0.7,0.1-0.9,0.4c-0.3,0.2-0.5,0.5-0.7,0.9l0.1,6.1l-1.4,0L62,28.3L63.3,28.3z"/>
	<path d="M69.5,32.1c0-1.3,0.2-2.3,0.7-3c0.5-0.7,1.2-1,2.1-1c0.8,0,1.4,0.3,1.9,1l0-4.4l1.4,0l0.1,12l-1.3,0l-0.1-0.9
		c-0.4,0.7-1.1,1.1-1.9,1.1c-0.9,0-1.6-0.3-2.1-1c-0.5-0.7-0.8-1.6-0.8-2.9L69.5,32.1z M70.9,32.8c0,0.9,0.2,1.6,0.4,2.1
		c0.3,0.4,0.7,0.7,1.4,0.7c0.7,0,1.2-0.4,1.5-1.1l0-4.3c-0.4-0.7-0.9-1-1.5-1c-0.6,0-1.1,0.2-1.4,0.7c-0.3,0.4-0.4,1.1-0.4,2.1
		L70.9,32.8z"/>
	<path d="M77.4,32c0-1.2,0.3-2.2,0.9-2.9c0.6-0.7,1.4-1.1,2.4-1.1c1,0,1.8,0.3,2.4,1c0.6,0.7,0.9,1.6,0.9,2.8l0,0.9
		c0,1.2-0.3,2.2-0.9,2.9s-1.4,1.1-2.4,1.1c-1,0-1.8-0.3-2.4-1c-0.6-0.7-0.9-1.6-0.9-2.8L77.4,32z M78.8,32.8c0,0.9,0.2,1.6,0.5,2
		s0.8,0.7,1.4,0.7c1.2,0,1.8-0.9,1.9-2.7l0-1c0-0.9-0.2-1.5-0.5-2s-0.8-0.7-1.4-0.7c-0.6,0-1,0.3-1.4,0.8c-0.3,0.5-0.5,1.2-0.5,2
		L78.8,32.8z"/>
	<path d="M89.2,29.3c-0.2,0-0.4-0.1-0.6,0c-0.7,0-1.2,0.4-1.5,1.2l0,6l-1.4,0l-0.1-8.5l1.3,0l0,0.9c0.4-0.7,0.9-1,1.6-1
		c0.2,0,0.4,0,0.5,0.1L89.2,29.3z"/>
	<path d="M94.7,34.3c0-0.3-0.1-0.6-0.3-0.8c-0.2-0.2-0.7-0.5-1.3-0.7c-0.7-0.3-1.3-0.6-1.6-0.8c-0.3-0.2-0.5-0.5-0.7-0.7
		c-0.2-0.3-0.2-0.6-0.2-1c0-0.7,0.2-1.3,0.7-1.7c0.5-0.5,1.1-0.7,1.9-0.7c0.8,0,1.5,0.2,2,0.7c0.5,0.5,0.8,1.1,0.8,1.8l-1.4,0
		c0-0.4-0.1-0.7-0.4-1s-0.6-0.4-1-0.4c-0.4,0-0.7,0.1-1,0.3c-0.2,0.2-0.3,0.5-0.3,0.8c0,0.3,0.1,0.5,0.3,0.7
		c0.2,0.2,0.6,0.4,1.2,0.7c1,0.4,1.7,0.8,2.1,1.2c0.4,0.4,0.6,0.9,0.6,1.5c0,0.7-0.2,1.3-0.7,1.8c-0.5,0.4-1.2,0.7-2,0.7
		c-0.9,0-1.6-0.2-2.1-0.7c-0.6-0.5-0.8-1.1-0.8-1.9l1.4,0c0,0.5,0.2,0.8,0.4,1.1c0.3,0.3,0.7,0.4,1.1,0.4c0.5,0,0.8-0.1,1-0.3
		C94.6,34.9,94.8,34.6,94.7,34.3z"/>
	<path d="M101.4,33.4c0-0.5,0.1-1,0.4-1.5c0.3-0.5,0.7-1,1.5-1.6c-0.4-0.6-0.7-1.1-0.9-1.5s-0.2-0.8-0.2-1.2c0-0.9,0.2-1.5,0.7-2
		c0.4-0.5,1-0.7,1.8-0.7c0.7,0,1.3,0.2,1.7,0.7c0.4,0.5,0.7,1,0.7,1.7c0,0.4-0.1,0.9-0.3,1.2c-0.2,0.4-0.5,0.8-0.9,1.2l-0.8,0.7
		l2,2.9c0.2-0.6,0.4-1.3,0.4-2.1l1.2,0c0,1.3-0.2,2.4-0.8,3.3l1.4,2l-1.7,0l-0.6-0.8c-0.3,0.3-0.7,0.6-1.1,0.7
		c-0.4,0.2-0.9,0.3-1.3,0.3c-1,0-1.7-0.3-2.3-0.9C101.7,35.1,101.4,34.3,101.4,33.4z M104.5,35.4c0.6,0,1.2-0.3,1.7-0.9l-2.3-3.3
		l-0.2,0.2c-0.6,0.6-0.9,1.2-0.9,1.9c0,0.6,0.2,1.1,0.5,1.5C103.5,35.2,104,35.4,104.5,35.4z M103.4,27.6c0,0.3,0.1,0.6,0.2,0.9
		c0.1,0.3,0.3,0.6,0.6,0.9l0.6-0.5c0.3-0.3,0.5-0.5,0.6-0.7c0.1-0.2,0.2-0.5,0.2-0.9c0-0.3-0.1-0.6-0.3-0.9
		c-0.2-0.2-0.5-0.3-0.8-0.3c-0.3,0-0.6,0.2-0.8,0.4C103.5,26.8,103.4,27.1,103.4,27.6z"/>
	<path d="M9.6,46l0,2l1.3,0l0,1.1l-1.3,0l0,5.2c0,0.3,0.1,0.6,0.2,0.8s0.3,0.3,0.6,0.3c0.2,0,0.4,0,0.6-0.1l0,1.2
		c-0.3,0.1-0.6,0.2-1,0.2c-0.5,0-1-0.2-1.3-0.6c-0.3-0.4-0.4-0.9-0.4-1.7l0-5.2l-1.3,0L7,48l1.3,0l0-2L9.6,46z"/>
	<path d="M14,48.9c0.5-0.7,1.2-1,2-1c1.5,0,2.3,1,2.3,3l0,5.6l-1.4,0l0-5.6c0-0.7-0.1-1.1-0.3-1.4S16,49,15.5,49
		c-0.3,0-0.7,0.1-0.9,0.4s-0.5,0.5-0.7,0.9l0.1,6.1l-1.4,0l-0.1-12l1.4,0L14,48.9z"/>
	<path d="M21.9,45.7c0,0.2-0.1,0.4-0.2,0.6c-0.1,0.2-0.3,0.2-0.6,0.2c-0.3,0-0.5-0.1-0.6-0.2c-0.1-0.2-0.2-0.3-0.2-0.6
		s0.1-0.4,0.2-0.6c0.1-0.2,0.3-0.2,0.6-0.2c0.3,0,0.5,0.1,0.6,0.2S21.9,45.5,21.9,45.7z M21.8,56.4l-1.4,0l-0.1-8.5l1.4,0L21.8,56.4
		z"/>
	<path d="M27.5,49.2c-0.2,0-0.4-0.1-0.6,0c-0.7,0-1.2,0.4-1.5,1.2l0,6l-1.4,0L24,47.9l1.3,0l0,0.9c0.4-0.7,0.9-1,1.6-1
		c0.2,0,0.4,0,0.5,0.1L27.5,49.2z"/>
	<path d="M28.4,51.7c0-1.3,0.2-2.3,0.7-3c0.5-0.7,1.2-1,2.1-1c0.8,0,1.4,0.3,1.9,1l0-4.4l1.4,0l0.1,12l-1.3,0l-0.1-0.9
		c-0.4,0.7-1.1,1.1-1.9,1.1c-0.9,0-1.6-0.3-2.1-1c-0.5-0.7-0.8-1.6-0.8-2.9L28.4,51.7z M29.8,52.5c0,0.9,0.2,1.6,0.4,2.1
		c0.3,0.4,0.7,0.7,1.4,0.7c0.7,0,1.2-0.4,1.5-1l0-4.3c-0.4-0.7-0.9-1-1.5-1c-0.6,0-1.1,0.2-1.4,0.7c-0.3,0.4-0.4,1.1-0.4,2.1
		L29.8,52.5z"/>
	<path d="M46.4,52.4c0,1.3-0.2,2.3-0.7,3c-0.5,0.7-1.2,1-2,1c-0.8,0-1.5-0.3-2-0.9l0,4.1l-1.4,0l-0.1-11.7l1.2,0l0.1,0.9
		c0.5-0.7,1.1-1.1,2-1.1c0.9,0,1.6,0.3,2.1,1c0.5,0.6,0.7,1.6,0.7,2.9L46.4,52.4z M45,51.6c0-0.9-0.2-1.6-0.5-2.1
		c-0.3-0.4-0.8-0.7-1.4-0.7c-0.7,0-1.2,0.3-1.5,1l0,4.4c0.3,0.6,0.9,1,1.5,1c0.6,0,1.1-0.2,1.4-0.7c0.3-0.5,0.4-1.1,0.4-2.1L45,51.6
		z"/>
	<path d="M52.6,56.1c-0.1-0.2-0.1-0.5-0.2-0.9c-0.5,0.7-1.1,1.1-1.9,1.1c-0.8,0-1.4-0.2-1.8-0.6c-0.4-0.4-0.7-1-0.7-1.8
		c0-0.9,0.3-1.5,0.9-2.1s1.4-0.8,2.4-0.8l1,0l0-0.9c0-0.5-0.1-0.9-0.3-1.1s-0.6-0.3-1-0.3c-0.4,0-0.8,0.1-1,0.4
		c-0.3,0.2-0.4,0.6-0.4,0.9l-1.4,0c0-0.4,0.1-0.8,0.4-1.2c0.3-0.4,0.6-0.7,1-0.9c0.4-0.2,0.9-0.3,1.4-0.3c0.9,0,1.5,0.2,2,0.6
		c0.5,0.4,0.7,1.1,0.7,1.9l0,4.3c0,0.7,0.1,1.2,0.3,1.7l0,0.1L52.6,56.1z M50.7,55c0.3,0,0.7-0.1,1-0.3c0.3-0.2,0.5-0.4,0.7-0.7l0-2
		l-0.8,0c-0.7,0-1.2,0.2-1.6,0.5c-0.4,0.3-0.6,0.7-0.6,1.2c0,0.5,0.1,0.8,0.3,1C49.9,54.9,50.3,55,50.7,55z"/>
	<path d="M59.3,48.9c-0.2,0-0.4-0.1-0.6,0c-0.7,0-1.2,0.4-1.5,1.2l0,6l-1.4,0l-0.1-8.5l1.3,0l0,0.9c0.4-0.7,0.9-1,1.6-1
		c0.2,0,0.4,0,0.5,0.1L59.3,48.9z"/>
	<path d="M62.9,45.5l0,2l1.3,0l0,1.1l-1.3,0l0,5.2c0,0.3,0.1,0.6,0.2,0.8s0.3,0.3,0.6,0.3c0.2,0,0.4,0,0.6-0.1l0,1.2
		c-0.3,0.1-0.6,0.2-1,0.2c-0.5,0-1-0.2-1.3-0.6c-0.3-0.4-0.4-0.9-0.4-1.7l0-5.2l-1.3,0l0-1.1l1.3,0l0-2L62.9,45.5z"/>
	<path d="M68.2,53.7l1.5-6.2l1.5,0l-2.7,9.7c-0.2,0.7-0.5,1.3-0.9,1.7s-0.8,0.6-1.3,0.6c-0.2,0-0.4,0-0.7-0.1l0-1.2l0.3,0
		c0.4,0,0.7-0.1,0.9-0.3c0.2-0.2,0.4-0.5,0.5-1l0.3-0.9l-2.6-8.4l1.5,0L68.2,53.7z"/>
	<path d="M80.3,53.7c0-0.3-0.1-0.6-0.3-0.8c-0.2-0.2-0.7-0.5-1.3-0.7c-0.7-0.3-1.3-0.6-1.6-0.8c-0.3-0.2-0.5-0.5-0.7-0.7
		c-0.2-0.3-0.2-0.6-0.2-1c0-0.7,0.2-1.3,0.7-1.7s1.1-0.7,1.9-0.7c0.8,0,1.5,0.2,2,0.7s0.8,1.1,0.8,1.8l-1.4,0c0-0.4-0.1-0.7-0.4-1
		c-0.3-0.3-0.6-0.4-1-0.4c-0.4,0-0.7,0.1-1,0.3s-0.3,0.5-0.3,0.8c0,0.3,0.1,0.5,0.3,0.7c0.2,0.2,0.6,0.4,1.2,0.7
		c1,0.4,1.7,0.8,2.1,1.2c0.4,0.4,0.6,0.9,0.6,1.5c0,0.7-0.2,1.3-0.7,1.8c-0.5,0.4-1.2,0.7-2,0.7c-0.9,0-1.6-0.2-2.1-0.7
		c-0.6-0.5-0.8-1.1-0.8-1.9l1.4,0c0,0.5,0.2,0.8,0.4,1.1c0.3,0.3,0.7,0.4,1.1,0.4c0.5,0,0.8-0.1,1-0.3
		C80.2,54.4,80.3,54.1,80.3,53.7z"/>
	<path d="M86.5,56c-1.1,0-1.9-0.3-2.4-0.9c-0.6-0.6-0.9-1.5-0.9-2.8l0-1c0-1.3,0.3-2.3,0.8-3c0.5-0.7,1.3-1.1,2.3-1.1
		c1,0,1.7,0.3,2.2,0.9c0.5,0.6,0.8,1.6,0.8,2.9l0,0.9l-4.7,0l0,0.2c0,0.9,0.2,1.6,0.5,2c0.3,0.4,0.8,0.6,1.5,0.6
		c0.4,0,0.8-0.1,1.1-0.2c0.3-0.2,0.6-0.4,0.9-0.7l0.7,0.9C88.7,55.6,87.7,56,86.5,56z M86.3,48.4c-0.6,0-1,0.2-1.3,0.6
		c-0.3,0.4-0.4,1-0.5,1.8l3.3,0l0-0.2c0-0.8-0.2-1.4-0.4-1.7S86.8,48.4,86.3,48.4z"/>
	<path d="M94.4,48.6c-0.2,0-0.4-0.1-0.6,0c-0.7,0-1.2,0.4-1.5,1.2l0,6l-1.4,0l-0.1-8.5l1.3,0l0,0.9c0.4-0.7,0.9-1,1.6-1
		c0.2,0,0.4,0,0.5,0.1L94.4,48.6z"/>
	<path d="M98.4,53.6l1.5-6.4l1.4,0l-2.4,8.5l-1,0l-2.6-8.4l1.4,0L98.4,53.6z"/>
	<path d="M104.4,45c0,0.2-0.1,0.4-0.2,0.6c-0.1,0.2-0.3,0.2-0.6,0.2c-0.3,0-0.5-0.1-0.6-0.2c-0.1-0.2-0.2-0.4-0.2-0.6
		s0.1-0.4,0.2-0.6c0.1-0.2,0.3-0.2,0.6-0.2c0.3,0,0.5,0.1,0.6,0.2S104.4,44.8,104.4,45z M104.3,55.7l-1.4,0l-0.1-8.5l1.4,0
		L104.3,55.7z"/>
	<path d="M109.4,54.6c0.5,0,0.8-0.1,1.1-0.4c0.3-0.3,0.4-0.7,0.4-1.2l1.3,0c0,0.8-0.3,1.5-0.8,2c-0.5,0.5-1.2,0.8-2,0.8
		c-1,0-1.8-0.3-2.4-1c-0.6-0.7-0.8-1.6-0.8-2.9l0-0.9c0-1.3,0.3-2.2,0.8-2.9c0.5-0.7,1.3-1,2.4-1c0.9,0,1.6,0.3,2.1,0.8
		c0.5,0.5,0.8,1.3,0.8,2.2l-1.3,0c0-0.6-0.2-1.1-0.5-1.4c-0.3-0.3-0.6-0.5-1.1-0.5c-0.6,0-1.1,0.2-1.4,0.6c-0.3,0.4-0.4,1.1-0.4,2
		l0,1.1c0,1,0.2,1.7,0.5,2.1C108.3,54.4,108.8,54.6,109.4,54.6z"/>
	<path d="M116.9,55.8c-1.1,0-1.9-0.3-2.4-0.9c-0.6-0.6-0.9-1.5-0.9-2.8l0-1c0-1.3,0.3-2.3,0.8-3c0.5-0.7,1.3-1.1,2.3-1.1
		c1,0,1.7,0.3,2.2,0.9c0.5,0.6,0.8,1.6,0.8,2.9l0,0.9l-4.7,0l0,0.2c0,0.9,0.2,1.6,0.5,2c0.3,0.4,0.8,0.6,1.5,0.6
		c0.4,0,0.8-0.1,1.1-0.2c0.3-0.2,0.6-0.4,0.9-0.7l0.7,0.9C119.1,55.3,118.1,55.7,116.9,55.8z M116.7,48.2c-0.6,0-1,0.2-1.3,0.6
		c-0.3,0.4-0.4,1-0.5,1.8l3.3,0l0-0.2c0-0.8-0.2-1.4-0.4-1.7S117.2,48.2,116.7,48.2z"/>
	<path d="M125.5,53.4c0-0.3-0.1-0.6-0.3-0.8s-0.7-0.5-1.3-0.7c-0.7-0.3-1.3-0.6-1.6-0.8c-0.3-0.2-0.5-0.5-0.7-0.7
		c-0.2-0.3-0.2-0.6-0.2-1c0-0.7,0.2-1.3,0.7-1.7c0.5-0.5,1.1-0.7,1.9-0.7c0.8,0,1.5,0.2,2,0.7c0.5,0.5,0.8,1.1,0.8,1.8l-1.4,0
		c0-0.4-0.1-0.7-0.4-1c-0.3-0.3-0.6-0.4-1-0.4c-0.4,0-0.7,0.1-1,0.3s-0.3,0.5-0.3,0.8c0,0.3,0.1,0.5,0.3,0.7
		c0.2,0.2,0.6,0.4,1.2,0.7c1,0.4,1.7,0.8,2.1,1.2c0.4,0.4,0.6,0.9,0.6,1.5c0,0.7-0.2,1.3-0.7,1.8c-0.5,0.4-1.2,0.7-2,0.7
		c-0.9,0-1.6-0.2-2.1-0.7c-0.6-0.5-0.8-1.1-0.8-1.9l1.4,0c0,0.5,0.2,0.8,0.4,1.1c0.3,0.3,0.7,0.4,1.1,0.4c0.5,0,0.8-0.1,1-0.3
		C125.4,54,125.5,53.7,125.5,53.4z"/>
</g>
<g>
	<linearGradient id="SVGID_3_" gradientUnits="userSpaceOnUse" x1="174.735" y1="237.8245" x2="174.735" y2="295.8824">
		<stop  offset="0" style="stop-color:#FFFFFF"/>
		<stop  offset="0.3545" style="stop-color:#FDFDFE"/>
		<stop  offset="1" style="stop-color:#D7E0E5"/>
	</linearGradient>
	<circle fill="url(#SVGID_3_)" stroke="#808080" stroke-miterlimit="10" cx="174.7" cy="266.9" r="29"/>
	<linearGradient id="SVGID_4_" gradientUnits="userSpaceOnUse" x1="248.0683" y1="237.8245" x2="248.0683" y2="295.8824">
		<stop  offset="0" style="stop-color:#FFFFFF"/>
		<stop  offset="0.3545" style="stop-color:#FDFDFE"/>
		<stop  offset="1" style="stop-color:#D7E0E5"/>
	</linearGradient>
	<circle fill="url(#SVGID_4_)" stroke="#808080" stroke-miterlimit="10" cx="248.1" cy="266.9" r="29"/>
	<linearGradient id="SVGID_5_" gradientUnits="userSpaceOnUse" x1="321.4016" y1="237.8245" x2="321.4016" y2="295.8824">
		<stop  offset="0" style="stop-color:#FFFFFF"/>
		<stop  offset="0.3545" style="stop-color:#FDFDFE"/>
		<stop  offset="1" style="stop-color:#D7E0E5"/>
	</linearGradient>
	<circle fill="url(#SVGID_5_)" stroke="#808080" stroke-miterlimit="10" cx="321.4" cy="266.9" r="29"/>
	<g>
		<path fill="none" stroke="#808080" stroke-width="0.9921" stroke-miterlimit="10" d="M192,261.9l2.8,0c0.5,0,1-0.5,1-1.1
			c0-2.1-1.6-3.7-3.5-3.7l-1.5,0c-0.7,0-1.3,0.5-1.4,1.2"/>
		<path fill="none" stroke="#808080" stroke-width="0.9921" stroke-miterlimit="10" d="M165.6,252.4c-1.8,0-4.8,4.4-5.6,6.1
			s-2.5,3.6-2.5,3.6c-1.5,1.3-2.3,3.3-2.3,5.4l0.1,12.3c0,0.9,0.7,1.6,1.5,1.6l4.5,0c0.8,0,1.5-0.7,1.5-1.6l0-2.1l24.3-0.2l0,2.1
			c0,0.9,0.7,1.6,1.5,1.6l4.5,0c0.8,0,1.5-0.7,1.5-1.6l-0.1-12.3c0-2.1-0.9-4-2.4-5.3c0,0-1.8-1.9-2.6-3.6c-0.8-1.6-3.8-6-5.7-6
			L165.6,252.4z"/>
		<path fill="none" stroke="#808080" stroke-width="0.9921" stroke-miterlimit="10" d="M157.5,262.1l-2.8,0c-0.5,0-1-0.5-1-1.1
			c0-2.1,1.5-3.8,3.4-3.8l1.5,0c0.7,0,1.3,0.5,1.4,1.2"/>
		
			<path fill="none" stroke="#808080" stroke-width="0.9921" stroke-linecap="square" stroke-linejoin="round" stroke-miterlimit="10" d="
			M186.2,267.3c1.4-2.4,3.1-3.3,6.7-3.5"/>
		
			<path fill="none" stroke="#808080" stroke-width="0.9921" stroke-linecap="square" stroke-linejoin="round" stroke-miterlimit="10" d="
			M156.6,264.1c3.6,0.2,5.4,1,6.8,3.4"/>
		<line fill="none" stroke="#808080" stroke-width="0.9921" stroke-miterlimit="10" x1="157.8" y1="261.9" x2="191.6" y2="261.6"/>
		<path fill="none" stroke="#808080" stroke-width="0.9921" stroke-miterlimit="10" d="M163.4,267.6l-1,0.8c-0.7,0.6-1.6,1-2.5,1
			c-0.3,0-0.6,0-0.9-0.1l-3.7-0.8l0.1,6.4l0,0c0,1.6,1.2,2.8,2.6,2.8l4.7,0l0.5-0.8c0.9-1.3,2.2-2.1,3.7-2.1l16-0.1
			c1.5,0,2.9,0.7,3.8,2l0.5,0.8l4.7,0c1.4,0,2.6-1.3,2.6-2.8l0,0l-0.1-6.4l-3.6,0.9c-0.3,0.1-0.6,0.1-0.9,0.1
			c-0.9,0-1.8-0.3-2.5-0.9l-1-0.8C185.9,267.8,163.7,268,163.4,267.6z"/>
	</g>
	<g>
		<g id="Robot_1_">
			<path fill="none" stroke="#808080" stroke-linecap="round" stroke-linejoin="round" d="M242.4,281l2.2-9.2l-10.4-10.4
				c-1.3-1.3-1.3-3.4,0-4.7c0,0,0,0,0,0c0.5-0.5,1.2-0.8,1.9-0.9l9-9c1.2-1.2,3.2-1.2,4.5,0c0.6,0.6,1,1.5,0.9,2.4l4.7,4h6l1.9,8.2
				l-0.8,0.4l-3.4-5H256c-0.1,0.4-0.3,0.7-0.6,0.9c-0.3,0.3-0.7,0.5-1.1,0.6v2.8l5,3.5l-0.4,0.8l-8.3-1.9l0.7-5.8l-4-4.6l-6.1,6.1
				l8.5,8.5h2.2L255,281H242.4z"/>
		</g>
		<path fill-rule="evenodd" fill="#FFFFFF" stroke="#808080" stroke-miterlimit="10" d="M253.3,254.3c0.1,0,0.2,0,0.2,0
			c0.1,0,0.2,0.1,0.3,0.1l0,0c0.1,0.1,0.2,0.1,0.3,0.2l0,0c0.1,0.1,0.1,0.2,0.2,0.3l0,0c0,0.1,0.1,0.2,0.1,0.4
			c0,0.6-0.5,1.2-1.2,1.2l0,0h0c-0.1-0.1-0.2-0.1-0.4,0h0c-0.1-0.2-0.2-0.2-0.3-0.3l0,0c-0.1-0.1-0.2-0.2-0.2-0.3l0,0
			c-0.1-0.2-0.2-0.4-0.2-0.6C252.2,254.9,252.7,254.4,253.3,254.3C253.3,254.3,253.3,254.3,253.3,254.3z"/>
		<path fill-rule="evenodd" fill="#FFFFFF" stroke="#808080" stroke-miterlimit="10" d="M247,247.9c0.8,0,1.4,0.6,1.4,1.4
			s-0.6,1.4-1.4,1.4c-0.8,0-1.4-0.6-1.4-1.4l0,0C245.6,248.6,246.2,247.9,247,247.9z"/>
		<path fill-rule="evenodd" fill="#FFFFFF" stroke="#808080" stroke-miterlimit="10" d="M236.9,261c-1,0-1.8-0.8-1.8-1.8
			c0-1,0.8-1.8,1.8-1.8s1.8,0.8,1.8,1.8C238.6,260.2,237.9,261,236.9,261L236.9,261z"/>
		<path fill-rule="evenodd" fill="#FFFFFF" stroke="#808080" stroke-miterlimit="10" d="M248.1,272.7c-0.9,0-1.6-0.8-1.4-1.7
			c0.1-0.5,0.5-1,1.1-1.1c0.9-0.2,1.7,0.5,1.7,1.4v0C249.5,272,248.9,272.7,248.1,272.7L248.1,272.7z"/>
		<path fill="none" stroke="#808080" stroke-miterlimit="10" d="M258.3,288.6h-19.6c-0.7,0-1.3-0.6-1.3-1.3l0.7-3.2
			c0-0.7,0.6-1.3,1.3-1.3h18.2c0.7,0,1.3,0.6,1.3,1.3l0.7,3.2C259.5,288,259,288.6,258.3,288.6z"/>
	</g>
	<g>
		<path fill="none" stroke="#808080" stroke-miterlimit="10" d="M308,273.5c0-1,0.9-1.7,1.9-1.7H333c1.1,0,1.9,0.8,1.9,1.7v3.4
			c0,1-0.9,1.7-1.9,1.7H310c-1.1,0-1.9-0.8-1.9-1.7V273.5z M331.1,274c-0.7,0-1.3,0.7-1,1.5c0.1,0.2,0.3,0.4,0.5,0.5
			c1,0.4,1.9-0.6,1.4-1.5C331.9,274.2,331.5,274,331.1,274L331.1,274z"/>
		<path fill="none" stroke="#808080" stroke-miterlimit="10" d="M308,264c0-1,0.9-1.7,1.9-1.7H333c1.1,0,1.9,0.8,1.9,1.7v3.4
			c0,1-0.9,1.7-1.9,1.7H310c-1.1,0-1.9-0.8-1.9-1.7V264z M331.1,264.7c-0.7,0-1.3,0.7-1,1.5c0.1,0.2,0.3,0.4,0.5,0.5
			c1,0.4,1.9-0.6,1.4-1.5C331.9,264.9,331.5,264.7,331.1,264.7L331.1,264.7z"/>
		<path fill="none" stroke="#808080" stroke-miterlimit="10" d="M308,254.6c0-1,0.9-1.7,1.9-1.7H333c1.1,0,1.9,0.8,1.9,1.7v3.4
			c0,1-0.9,1.7-1.9,1.7H310c-1.1,0-1.9-0.8-1.9-1.7V254.6L308,254.6z M331.1,255.2c-0.7,0-1.3,0.7-1,1.5c0.1,0.2,0.3,0.4,0.5,0.5
			c1,0.4,1.9-0.6,1.4-1.5C331.9,255.3,331.5,255.2,331.1,255.2L331.1,255.2z"/>
		<path fill="none" stroke="#808080" stroke-miterlimit="10" d="M333.4,281.1h-24.1c-1.9,0-3.4-1.5-3.4-3.4v-23.7
			c0-1.9,1.5-3.4,3.4-3.4h24.1c1.9,0,3.4,1.5,3.4,3.4v23.7C336.8,279.6,335.3,281.1,333.4,281.1
			C333.4,281.1,333.4,281.1,333.4,281.1z"/>
		<path fill="none" stroke="#808080" stroke-miterlimit="10" d="M321.5,284.1c1,0,1.8,0.8,1.8,1.8s-0.8,1.8-1.8,1.8
			c-1,0-1.8-0.8-1.8-1.8S320.5,284.1,321.5,284.1L321.5,284.1z"/>
		<line fill="none" stroke="#808080" stroke-linecap="round" stroke-miterlimit="10" x1="314.7" y1="286" x2="319.6" y2="286"/>
		<line fill="none" stroke="#808080" stroke-linecap="round" stroke-miterlimit="10" x1="323.6" y1="286" x2="328.5" y2="286"/>
		<line fill="none" stroke="#808080" stroke-linecap="round" stroke-miterlimit="10" x1="321.4" y1="281.3" x2="321.4" y2="284.1"/>
	</g>
</g>
<g>
	<line fill="none" stroke="#808080" stroke-miterlimit="10" x1="248.4" y1="237.8" x2="248.4" y2="236.8"/>
	
		<line fill="none" stroke="#808080" stroke-miterlimit="10" stroke-dasharray="1.9644,1.9644" x1="248.4" y1="234.9" x2="248.4" y2="188.7"/>
	<line fill="none" stroke="#808080" stroke-miterlimit="10" x1="248.4" y1="187.7" x2="248.4" y2="186.7"/>
	<g>
		<polygon fill="#808080" points="252.1,187.8 248.4,181.3 244.7,187.8 		"/>
	</g>
</g>
<rect x="231.4" y="204.5" fill="#FFC000" width="34" height="15.2"/>
<g>
	<path d="M236.5,208l2.2,7l2.2-7h1.4v8.5h-1.1v-3.3l0.1-3.3l-2.2,6.7h-0.8l-2.2-6.6l0.1,3.3v3.3h-1.1V208H236.5z"/>
	<path d="M249.7,213c0,0.8-0.1,1.4-0.3,1.9s-0.5,0.9-0.9,1.2l1.3,1.1L249,218l-1.5-1.4c-0.2,0.1-0.5,0.1-0.7,0.1
		c-0.9,0-1.6-0.3-2.1-0.9s-0.8-1.5-0.8-2.6v-1.6c0-1.1,0.3-2,0.8-2.7s1.2-1,2.1-1c0.9,0,1.6,0.3,2.1,0.9s0.8,1.5,0.8,2.7V213z
		 M248.6,211.5c0-0.9-0.1-1.6-0.4-2s-0.7-0.7-1.4-0.7c-0.6,0-1,0.2-1.3,0.7s-0.5,1.1-0.5,2v1.5c0,0.9,0.2,1.5,0.5,2s0.8,0.7,1.4,0.7
		c0.6,0,1-0.2,1.3-0.6s0.4-1.1,0.5-1.9V211.5z"/>
	<path d="M256.1,208.9h-2.2v7.6h-1.1v-7.6h-2.2V208h5.6V208.9z"/>
	<path d="M262.4,208.9h-2.2v7.6h-1.1v-7.6h-2.2V208h5.6V208.9z"/>
</g>
<g>
	<line fill="none" stroke="#808080" stroke-miterlimit="10" x1="248.4" y1="104.6" x2="248.4" y2="103.6"/>
	
		<line fill="none" stroke="#808080" stroke-miterlimit="10" stroke-dasharray="1.9336,1.9336" x1="248.4" y1="101.7" x2="248.4" y2="87.2"/>
	<line fill="none" stroke="#808080" stroke-miterlimit="10" x1="248.4" y1="86.2" x2="248.4" y2="85.2"/>
	<g>
		<polygon fill="#808080" points="252.1,86.3 248.4,79.8 244.7,86.3 		"/>
	</g>
</g>
<g>
	<line fill="none" stroke="#808080" stroke-miterlimit="10" x1="320.4" y1="237.8" x2="320.4" y2="236.8"/>
	
		<line fill="none" stroke="#808080" stroke-miterlimit="10" stroke-dasharray="1.9644,1.9644" x1="320.4" y1="234.9" x2="320.4" y2="188.7"/>
	<line fill="none" stroke="#808080" stroke-miterlimit="10" x1="320.4" y1="187.7" x2="320.4" y2="186.7"/>
	<g>
		<polygon fill="#808080" points="324.1,187.8 320.4,181.3 316.7,187.8 		"/>
	</g>
</g>
<rect x="303.4" y="204.5" fill="#FFC000" width="34" height="15.2"/>
<g>
	<path d="M308.5,208l2.2,7l2.2-7h1.4v8.5h-1.1v-3.3l0.1-3.3l-2.2,6.7h-0.8l-2.2-6.6l0.1,3.3v3.3h-1.1V208H308.5z"/>
	<path d="M321.7,213c0,0.8-0.1,1.4-0.3,1.9s-0.5,0.9-0.9,1.2l1.3,1.1L321,218l-1.5-1.4c-0.2,0.1-0.5,0.1-0.7,0.1
		c-0.9,0-1.6-0.3-2.1-0.9s-0.8-1.5-0.8-2.6v-1.6c0-1.1,0.3-2,0.8-2.7s1.2-1,2.1-1c0.9,0,1.6,0.3,2.1,0.9s0.8,1.5,0.8,2.7V213z
		 M320.6,211.5c0-0.9-0.1-1.6-0.4-2s-0.7-0.7-1.4-0.7c-0.6,0-1,0.2-1.3,0.7s-0.5,1.1-0.5,2v1.5c0,0.9,0.2,1.5,0.5,2s0.8,0.7,1.4,0.7
		c0.6,0,1-0.2,1.3-0.6s0.4-1.1,0.5-1.9V211.5z"/>
	<path d="M328.1,208.9h-2.2v7.6h-1.1v-7.6h-2.2V208h5.6V208.9z"/>
	<path d="M334.4,208.9h-2.2v7.6h-1.1v-7.6h-2.2V208h5.6V208.9z"/>
</g>
<g>
	<line fill="none" stroke="#808080" stroke-miterlimit="10" x1="175.4" y1="237.8" x2="175.4" y2="236.8"/>
	
		<line fill="none" stroke="#808080" stroke-miterlimit="10" stroke-dasharray="1.9644,1.9644" x1="175.4" y1="234.9" x2="175.4" y2="188.7"/>
	<line fill="none" stroke="#808080" stroke-miterlimit="10" x1="175.4" y1="187.7" x2="175.4" y2="186.7"/>
	<g>
		<polygon fill="#808080" points="179.1,187.8 175.4,181.3 171.7,187.8 		"/>
	</g>
</g>
<rect x="158.4" y="204.5" fill="#FFC000" width="34" height="15.2"/>
<g>
	<path d="M163.5,208l2.2,7l2.2-7h1.4v8.5h-1.1v-3.3l0.1-3.3l-2.2,6.7h-0.8l-2.2-6.6l0.1,3.3v3.3h-1.1V208H163.5z"/>
	<path d="M176.7,213c0,0.8-0.1,1.4-0.3,1.9s-0.5,0.9-0.9,1.2l1.3,1.1L176,218l-1.5-1.4c-0.2,0.1-0.5,0.1-0.7,0.1
		c-0.9,0-1.6-0.3-2.1-0.9s-0.8-1.5-0.8-2.6v-1.6c0-1.1,0.3-2,0.8-2.7s1.2-1,2.1-1c0.9,0,1.6,0.3,2.1,0.9s0.8,1.5,0.8,2.7V213z
		 M175.6,211.5c0-0.9-0.1-1.6-0.4-2s-0.7-0.7-1.4-0.7c-0.6,0-1,0.2-1.3,0.7s-0.5,1.1-0.5,2v1.5c0,0.9,0.2,1.5,0.5,2s0.8,0.7,1.4,0.7
		c0.6,0,1-0.2,1.3-0.6s0.4-1.1,0.5-1.9V211.5z"/>
	<path d="M183.1,208.9h-2.2v7.6h-1.1v-7.6h-2.2V208h5.6V208.9z"/>
	<path d="M189.4,208.9h-2.2v7.6h-1.1v-7.6h-2.2V208h5.6V208.9z"/>
</g>
<g>
	<path fill="#01739F" d="M253.4,34.6c0.4,0.3,0.9,0.6,1.3,0.9c-0.8,1.4-2.9,2.2-4.8,1.7c-2.1-0.5-3.3-2.2-3.3-4.4
		c0-2.1,1.3-3.7,3.3-4.2c1.9-0.5,4,0.2,4.9,1.8c-0.5,0.3-0.9,0.6-1.4,0.9c-1.3-1.6-3.2-1.3-4.1-0.5c-1.1,1-1.1,3-0.1,4.1
		C250.3,36.1,252,36,253.4,34.6z"/>
	<path fill="#01739F" d="M254.8,44.8c-0.5,0.3-1,0.6-1.5,0.9c-0.5-0.7-1.3-1.2-2.2-1.2c-0.8,0-1.4,0.2-2,0.8c-1,1-1,3.1,0,4.1
		c0.9,0.9,2.8,1.3,4.2-0.4c0.4,0.3,0.9,0.6,1.4,1c-1,1.5-3.1,2.2-5,1.6c-2-0.6-3.1-2.2-3.1-4.3c0-2,1.2-3.6,3.1-4.2
		C251.7,42.5,253.8,43.2,254.8,44.8z"/>
	<path fill="#01739F" d="M279.6,46.2c0-1.1,0-2.2,0-3.3c0,0,0,0,0-0.1c0.5,0,1,0,1.5,0c0,2.9,0,5.8,0,8.8c-0.5,0-1,0-1.4,0
		c-0.2-0.1,0-0.3-0.2-0.5c-0.6,0.5-1.2,0.8-2,0.7c-0.8-0.1-1.4-0.4-1.9-1c-1-1.2-0.9-3.1,0-4.2C276.7,45.4,278,45.2,279.6,46.2z
		 M279.7,48.6c0-0.9-0.7-1.6-1.5-1.6c-0.9,0-1.6,0.7-1.6,1.7c0,0.9,0.7,1.6,1.6,1.6C279,50.3,279.7,49.6,279.7,48.6z"/>
	<path fill="#01739F" d="M259.2,37.4c-1.8,0-3.2-1.3-3.2-3.2c0-1.7,1.4-3.1,3.2-3.1c1.9,0,3.3,1.3,3.3,3.1
		C262.5,36.1,261.1,37.4,259.2,37.4z M259.2,35.9c0.9,0,1.6-0.7,1.6-1.6c0-0.9-0.7-1.6-1.6-1.6c-0.8,0-1.6,0.7-1.6,1.6
		C257.6,35.2,258.3,35.9,259.2,35.9z"/>
	<path fill="#01739F" d="M263,51.8c-1.8,0-3.2-1.3-3.2-3.1c0-1.8,1.4-3.1,3.2-3.1c1.8,0,3.2,1.3,3.3,3.1
		C266.2,50.4,264.9,51.8,263,51.8z M262.9,50.3c0.9,0,1.6-0.7,1.6-1.6c0-0.9-0.7-1.6-1.6-1.6c-0.9,0-1.6,0.7-1.6,1.6
		C261.4,49.6,262,50.3,262.9,50.3z"/>
	<path fill="#01739F" d="M293.9,34.8c-1.4,0-2.8,0-4.2,0c0.1,0.5,0.3,0.8,0.7,1c0.9,0.4,1.6,0.1,2.3-0.4c0.3,0.3,0.6,0.7,0.9,1
		c-1.7,1.6-4.7,1-5.4-1.1c-0.6-1.8,0.3-3.6,1.9-4.1c2-0.6,3.8,0.6,3.9,2.7C293.9,34.2,293.9,34.5,293.9,34.8z M292.3,33.7
		c-0.2-0.8-0.7-1.2-1.4-1.2c-0.7,0-1.1,0.5-1.2,1.2C290.6,33.7,291.4,33.7,292.3,33.7z"/>
	<path fill="#01739F" d="M265.7,37.2c-0.5,0-1,0-1.6,0c0-2,0-3.9,0-5.9c0.5,0,1,0,1.5,0c0.2,0.1,0,0.4,0.1,0.6
		c0.6-0.5,1.2-0.8,2-0.7c1.2,0.1,1.9,0.8,2,2c0.1,1.3,0,2.7,0,4.1c-0.5,0-1,0-1.6,0c0-0.6,0-1.1,0-1.7c0-0.6,0-1.2,0-1.7
		c-0.1-0.8-0.5-1.2-1.2-1.2c-0.7,0-1.2,0.5-1.2,1.3c0,1,0,2,0,3C265.7,37,265.7,37.1,265.7,37.2z"/>
	<path fill="#01739F" d="M295.5,31.3c0.5,0,1,0,1.5,0c0,0.2,0,0.3,0.1,0.5c0.4-0.3,0.8-0.6,1.3-0.7c1.5-0.2,2.7,0.6,2.8,2.1
		c0.1,1.3,0,2.6,0,4c-0.5,0-1,0-1.6,0c0-1.1,0-2.1,0-3.2c0-1-0.6-1.6-1.6-1.3c-0.5,0.2-0.9,0.6-0.9,1.2c0,0.9,0,1.9,0,2.8
		c0,0.2,0,0.3,0,0.5c-0.5,0-1,0-1.6,0C295.5,35.3,295.5,33.3,295.5,31.3z"/>
	<path fill="#01739F" d="M272.1,32.7c-0.4,0-0.7,0-1.1,0c0-0.5,0-0.9,0-1.4c0.3,0,0.7,0,1,0c0-1.1-0.1-2.2,1.1-2.8
		c0.9-0.5,1.8-0.3,2.8,0.2c-0.2,0.4-0.3,0.9-0.5,1.3c-1.5-0.4-1.9-0.1-1.7,1.3c0.6,0,1.1,0,1.7,0c0.1,0.5,0,0.9,0,1.4
		c-0.6,0-1.2,0-1.8,0c0,1.5,0,3,0,4.5c-0.6,0-1.1,0-1.6,0C272.1,35.7,272.1,34.3,272.1,32.7z"/>
	<path fill="#01739F" d="M280.7,31.3c0.6,0,1.1,0,1.6,0c0,1.1,0,2.2,0,3.3c0,1,0.8,1.5,1.7,1.2c0.5-0.2,0.7-0.6,0.7-1.2
		c0-1.1,0-2.2,0-3.3c0.5,0,1,0,1.6,0c0,1.3,0.1,2.5,0,3.7c-0.2,2-1.9,2.5-3.3,2.3c-1.6-0.3-2.3-1.2-2.3-2.8
		C280.7,33.5,280.7,32.4,280.7,31.3z"/>
	<path fill="#01739F" d="M269.4,45.7c0,1.1,0,2.2,0,3.3c0,1,0.9,1.5,1.8,1.1c0.5-0.2,0.7-0.7,0.7-1.2c0-1.1,0-2.1,0-3.2
		c0.5,0,1,0,1.6,0c0,1.4,0.1,2.7-0.1,4.1c-0.3,1.7-1.9,2.2-3.3,1.9c-1.5-0.3-2.2-1.2-2.2-2.7c0-1.1,0-2.2,0-3.3
		C268.3,45.7,268.8,45.7,269.4,45.7z"/>
	<path fill="#01739F" d="M307.2,35.5c0.2,0.4,0.4,0.8,0.6,1.2c-0.9,0.6-1.9,0.8-3,0.4c-0.7-0.3-1-0.8-1.2-1.6c-0.1-0.7,0-1.3-0.1-2
		c0-0.3,0-0.6,0-0.8c-0.4-0.2-0.8,0-1.1-0.1c0-0.4,0-0.9,0-1.4c0.3-0.1,0.7,0,1.1-0.1c0-0.6,0-1.1,0-1.7c0.6,0,1,0,1.6,0
		c0,0.6,0,1.1,0,1.8c0.7,0,1.4,0,2.1,0c0,0.5,0,0.9,0,1.4c-0.7,0-1.4,0-2.1,0c0,0.9-0.1,1.7,0,2.5c0.1,0.5,0.6,0.8,1.1,0.6
		C306.6,35.8,306.9,35.7,307.2,35.5z"/>
	<path fill="#01739F" d="M258.1,42.8c0,2.9,0,5.8,0,8.8c-0.5,0-1,0-1.5,0c0-2.9,0-5.8,0-8.8C257.1,42.8,257.6,42.8,258.1,42.8z"/>
	<path fill="#01739F" d="M278.8,37.2c-0.5,0-1,0-1.6,0c0-2.9,0-5.8,0-8.8c0.5,0,1,0,1.6,0C278.8,31.3,278.8,34.3,278.8,37.2z"/>
	<g>
		<path fill="#FFFFFF" d="M209.6,39.8c0-1.6,0-3.3,0-4.9C209.6,36.5,209.6,38.1,209.6,39.8c0,1.7,0,3.3,0,5
			C209.6,43.1,209.6,41.4,209.6,39.8z"/>
		<path fill="#FFFFFF" d="M215.7,39.5c0-1.3,0-2.5,0-3.8C215.7,36.9,215.7,38.2,215.7,39.5c0,1.2,0,2.5,0,3.7
			C215.7,42,215.7,40.7,215.7,39.5z"/>
		<path fill="#FFFFFF" d="M234.6,31.3c-1.2-2.9-2.9-5.5-5.2-7.7c-2.2-2.2-4.8-4-7.6-5.2c-3-1.3-6.1-1.9-9.4-1.9
			c-3.2,0-6.4,0.6-9.4,1.9c-2.9,1.2-5.4,3-7.6,5.2c-2.2,2.2-3.9,4.8-5.2,7.7c-1.3,3-1.9,6.1-1.9,9.4c0,3.3,0.6,6.4,1.9,9.4
			c1.2,2.9,2.9,5.5,5.2,7.7c2.2,2.2,4.8,4,7.6,5.2c3,1.3,6.1,1.9,9.4,1.9c3.2,0,6.4-0.6,9.4-1.9c2.9-1.2,5.4-3,7.6-5.2
			c2.2-2.2,3.9-4.8,5.2-7.7c1.3-3,1.9-6.1,1.9-9.4C236.5,37.4,235.9,34.3,234.6,31.3z M212.3,62.2c-12.1,0-21.3-9.8-21.5-21.2
			c-0.2-11.9,9.4-21.8,21.5-21.9c11.9,0,21.6,9.7,21.6,21.6C234.1,52.5,224.4,62.2,212.3,62.2z"/>
		<path fill="#01739F" d="M212.4,19.1c-12.1,0.1-21.7,10-21.5,21.9c0.2,11.3,9.4,21.1,21.5,21.2c12,0,21.7-9.7,21.7-21.5
			C234,28.8,224.3,19.1,212.4,19.1z M200,44.8c-1.5,0-2.7-1.2-2.7-2.7c0-1.5,1.2-2.7,2.7-2.7c1.6,0,2.7,1.1,2.7,2.7
			C202.7,43.6,201.5,44.8,200,44.8z M208.9,41.6C208.9,41.6,208.9,41.6,208.9,41.6c0,0.7,0,1.4-0.1,2.1c-0.1,1.4-1.3,2.4-2.7,2.4
			c-1.4,0-2.6-1-2.6-2.4c-0.1-1.3-0.1-2.7,0-4c0.1-1.4,1.3-2.5,2.7-2.4c1.5,0,2.6,1.2,2.7,2.6C208.9,40.4,208.9,41,208.9,41.6z
			 M215,44.8c0,1.4-1.3,2.5-2.7,2.5c-1.5,0-2.7-1.1-2.7-2.6c0-1.7,0-3.3,0-5c0-1.6,0-3.3,0-4.9c0-1.4,1.1-2.6,2.6-2.6
			c1.5,0,2.8,1.1,2.8,2.5C215.1,38.1,215.1,41.5,215,44.8z M221.2,43.3c0,1.3-0.8,2.3-2,2.7c-1.2,0.3-2.4-0.2-3.1-1.3
			c-0.3-0.4-0.3-0.9-0.3-1.4c0-1.2,0-2.5,0-3.7c0-1.3,0-2.5,0-3.8c0-2.1,2-3.2,3.7-2.6c1,0.4,1.8,1.4,1.8,2.6
			C221.2,38.2,221.2,40.7,221.2,43.3z M224.6,44.8c-1.5,0-2.7-1.2-2.7-2.8c0-1.5,1.2-2.7,2.7-2.6c1.5,0,2.7,1.2,2.7,2.7
			C227.3,43.6,226.1,44.8,224.6,44.8z"/>
		<path fill="#FEFEFE" d="M212.2,32.2c-1.4,0-2.6,1.2-2.6,2.6c0,1.6,0,3.3,0,4.9c0,1.7,0,3.3,0,5c0,1.5,1.2,2.6,2.7,2.6
			c1.4,0,2.7-1.1,2.7-2.5c0-3.4,0-6.7,0-10.1C215,33.3,213.7,32.2,212.2,32.2z"/>
		<path fill="#FEFEFE" d="M219.4,33.1c-1.7-0.6-3.7,0.5-3.7,2.6c0,1.3,0,2.5,0,3.8c0,1.2,0,2.5,0,3.7c0,0.5,0.1,1,0.3,1.4
			c0.7,1.1,1.9,1.6,3.1,1.3c1.2-0.3,2-1.3,2-2.7c0-2.5,0-5.1,0-7.6C221.2,34.4,220.5,33.5,219.4,33.1z"/>
		<path fill="#FEFEFE" d="M206.2,37.1c-1.4,0-2.7,1-2.7,2.4c-0.1,1.3-0.1,2.7,0,4c0.1,1.4,1.2,2.4,2.6,2.4c1.4,0,2.6-1,2.7-2.4
			c0.1-0.7,0-1.4,0-2.1c0,0,0,0,0,0c0-0.6,0-1.2,0-1.8C208.9,38.3,207.7,37.2,206.2,37.1z"/>
		<path fill="#FEFEFE" d="M224.6,39.4c-1.5,0-2.7,1.2-2.7,2.6c0,1.5,1.2,2.8,2.7,2.8c1.5,0,2.8-1.2,2.8-2.7
			C227.4,40.6,226.2,39.4,224.6,39.4z"/>
		<path fill="#FEFEFE" d="M200,39.4c-1.5,0-2.7,1.2-2.7,2.7c0,1.5,1.2,2.7,2.7,2.7c1.5,0,2.7-1.2,2.7-2.7
			C202.7,40.5,201.6,39.4,200,39.4z"/>
	</g>
</g>
</svg>
