<svg xmlns="http://www.w3.org/2000/svg" xmlns:xlink="http://www.w3.org/1999/xlink" baseProfile="tiny" viewBox="0 0 791.6 259" overflow="visible" xmlns:v="https://vecta.io/nano"><style><![CDATA[.B{font-size:16px}.C{font-family:RobotoCondensed-Regular}.D{stroke:gray}.E{stroke-miterlimit:10}.F{fill:none}.G{fill:#01739f}.H{fill:#89989f}.I{font-family:RobotoCondensed-Bold}.J{fill:gray}.K{fill:#4d4d4d}.L{stroke:#b3b3b3}.M{stroke-dasharray:3.1273,3.1273}.N{fill:#fff}.O{fill-rule:evenodd}.P{fill:#7a8c1c}.Q{fill:#bdccd4}.R{stroke-linejoin:round}.S{stroke-linecap:round}]]></style><linearGradient id="A" gradientUnits="userSpaceOnUse" x1="297.553" y1="7.5" x2="297.553" y2="253"><stop offset="0" stop-color="#fff"/><stop offset=".355" stop-color="#fdfdfe"/><stop offset="1" stop-color="#d7e0e5"/></linearGradient><path fill="url(#A)" d="M388.5 253H206.6c-5.5 0-10-4.5-10-10V17.5c0-5.5 4.5-10 10-10h181.9c5.5 0 10 4.5 10 10V243c0 5.5-4.5 10-10 10z" class="D E"/><linearGradient id="B" gradientUnits="userSpaceOnUse" x1="578" y1="46.5" x2="578" y2="244.5"><stop offset="0" stop-color="#fff"/><stop offset=".355" stop-color="#fdfdfe"/><stop offset="1" stop-color="#e5ebee"/></linearGradient><path fill="url(#B)" d="M720.7 244.5H435.3c-6 0-10.8-4.8-10.8-10.8V57.3c0-6 4.8-10.8 10.8-10.8h285.4c6 0 10.8 4.8 10.8 10.8v176.4c0 6-4.8 10.8-10.8 10.8z" class="D E"/><linearGradient id="C" gradientUnits="userSpaceOnUse" x1="58.303" y1="7" x2="58.303" y2="253"><stop offset="0" stop-color="#fff"/><stop offset=".355" stop-color="#fdfdfe"/><stop offset="1" stop-color="#d7e0e5"/></linearGradient><path fill="url(#C)" d="M103.9 253H12.7c-3.9 0-7-3.2-7-7V14c0-3.9 3.2-7 7-7h91.2c3.9 0 7 3.2 7 7v232c0 3.8-3.1 7-7 7z" class="D E"/><path d="M247.5 17.4c-7.7 0-14 6.3-14 14s6.3 14 14 14 14-6.3 14-14-6.3-14-14-14h0zm0 29.4c-8.4 0-15.3-6.9-15.3-15.3s6.9-15.3 15.3-15.3 15.3 6.9 15.3 15.3-6.9 15.3-15.3 15.3h0z"/><g class="O"><path fill="#fcbf0b" d="M261.6 31.4c0 7.8-6.3 14.1-14.1 14.1s-14.1-6.3-14.1-14.1 6.3-14.1 14.1-14.1 14.1 6.3 14.1 14.1h0z"/><path d="M245.2 24.4c-.2-1 .4-2 1.3-2.4a2.1 2.1 0 0 1-1.3 2.4h0zm-4.6 3.9s.1-.2-.1-.4c-.8-.8-2.7-2.6-1.6-3.2 1.2-.6 4.3.3 7.9 2.1-1.8 1-3 1.9-4.3 2.9l-1.9-1.4zm13.9 6.1c-.4.6-1.6.3-3.4-.2h-.2c.6-.8.7-2.3.5-3.5h0c-.1-.4-.2-.8-.3-.9 2.5 1.9 3.9 3.9 3.4 4.6h0zm-1.9-4.6c-1.3-1.1-2.5-1.9-4.3-2.9 3.5-1.9 6.7-2.7 7.9-2.1 1 .5-.8 2.4-1.6 3.2-.1.1-.1.2-.1.4-.3.1-.5.4-1.9 1.4h0zm-8.7-.1c-.1.2-.2.5-.3.9h0c-.2 1.1-.1 2.6.5 3.5h-.2c-1.9.6-3 .8-3.4.2-.4-.7 1-2.6 3.4-4.6h0z" class="N"/></g><path d="M247.5 37.4c.6-1.1.9-1.5 1.4-1.9h-2.7c.4.4.7.7 1.3 1.9h0zm-3.1-4.5c.1.5.4 1 .7 1.4h4.8c.3-.4.6-.9.7-1.4h-6.2zm6.1-2.8c-.9-.7-1.9-1.3-3-2-1.1.6-2.1 1.3-3 2-.2.5-.3 1.1-.2 1.6h6.6c-.1-.5-.2-1.1-.4-1.6h0z"/><g class="O"><path d="M249.7 24.4c-.9-.4-1.5-1.4-1.3-2.4a2.1 2.1 0 0 1 1.3 2.4h0zm-4.5 0c-.2-1 .4-2 1.3-2.4a2.1 2.1 0 0 1-1.3 2.4h0zm9.3 3.5c-.2.1-.2.4 0 .5l.1.1c2.2-1.9 3.5-3.3 2.8-4.4-.7-1-3.8-.5-7.5 1.1.2-.4.3-.8.3-1.2v-.5c-.1-.5-.3-1-.8-1.5-.2-.2-.5-.4-.8-.5h0l.3-.6v-.2c-.1-.1-.3-.1-.3.1l-.3.7a2.21 2.21 0 0 0-1.6 0l-.3-.7c0-.1-.2-.1-.3-.1s-.1.2-.1.3l.3.6c-.3.1-.5.3-.8.5-.5.5-.8 1.3-.8 2 0 .4.1.8.3 1.1-1-.4-6.3-2.6-7.4-1.1-1 1.4 2 3.8 2.8 4.5l.1-.1c.1-.2.1-.4 0-.5-.4-.4-1-1-1.4-1.6-.6-.8-.6-1.2-.3-1.5.9-.8 4 .3 5 .6.9.4 2 .8 3 1.4-5 2.9-8.4 6.4-7.6 7.7.5.9 2.6.8 5.3-.2l-.1-.2c-.1-.2-.3-.2-.4-.2-1.9.6-3 .8-3.4.2-.6-1 2.3-4.3 6.7-6.9l.3-.2c.1.1.2.1.3.2 4.4 2.5 7.3 5.9 6.7 6.9-.4.6-1.6.3-3.4-.2-.2-.1-.3 0-.4.2l-.1.2c2.7.9 4.8 1.1 5.3.2.8-1.4-2.6-4.8-7.6-7.7 3.5-1.9 6.7-2.7 7.9-2.1.9.5-1 2.3-1.8 3.1h0z"/><path d="M249.7 24.4c-.9-.4-1.5-1.4-1.3-2.4a2.1 2.1 0 0 1 1.3 2.4h0z" class="N"/></g><path d="M284 18.7V34c0 .3-.3.6-.7.6h-3.4v-5.9c0-.3-.3-.6-.7-.6h-5.5c-.4 0-.7.3-.7.6v5.9h-3.4c-.4 0-.7-.3-.7-.6V18.6c0-.3.3-.6.7-.6h3.4v5.9c0 .3.3.6.7.6h5.5c.4 0 .7-.3.7-.6v-5.8h3.4c.4 0 .7.3.7.6h0zm4.2 1.3h2.5c.3 0 .6.2.6.6V34a.65.65 0 0 1-.6.6h-2.5c-.3 0-.6-.2-.6-.6V20.5c0-.3.3-.5.6-.5h0zm20.1.7l-4.9 13.7c-.1.2-.3.4-.5.4h-3.7c-.2 0-.5-.2-.5-.4l-4.9-13.7c-.1-.4.1-.7.5-.7h2.5c.2 0 .5.2.5.4l3.2 9.3a.59.59 0 0 0 1.1 0l3.2-9.3c.1-.2.3-.4.5-.4h2.5c.4 0 .7.4.5.7h0zM321 32.4V34a.65.65 0 0 1-.6.6h-9.1c-.3 0-.6-.2-.6-.6V20.5a.65.65 0 0 1 .6-.6h8.9c.3 0 .6.2.6.6v1.7a.65.65 0 0 1-.6.6h-5.3c-.3 0-.6.2-.6.6v2.5s-.1 0 5.4 0v2.7h-5.3v2.7a.65.65 0 0 0 .6.6h5.4c.3 0 .6.2.6.5h0zm21.7-13.7V34c0 .3-.3.6-.7.6h-2.8c-.4 0-.7-.3-.7-.6v-9.6c0-.6-3.6 4.5-3.6 4.5a.55.55 0 0 1-.5.3h-1.3a.55.55 0 0 1-.5-.3s-3.6-5.2-3.6-4.6v9.6c0 .3-.3.6-.7.6h-2.8c-.4 0-.7-.3-.7-.6V18.7c0-.3.3-.6.7-.6h3.7a.55.55 0 0 1 .5.3l3.5 5a.65.65 0 0 0 1.1 0l3.5-5a.55.55 0 0 1 .5-.3h3.7c.4 0 .7.3.7.6h0zm8 11.5c.8 1 1.9 1.4 3.4 1.4h0l-1-1.2c-.4-.4-.1-1 .5-1h2.8c.2 0 .4.1.5.2.3.3.7.6.9.2.2-.3.4-1 .6-1.3.2-.7.3-1.4.3-2.2 0-1-.2-1.9-.5-2.6-.4-.8-.9-1.4-1.6-1.8s-1.5-.7-2.5-.7c-1.5 0-2.6.5-3.4 1.4-.8 1-1.2 2.2-1.2 3.8s.4 2.9 1.2 3.8h0zm11.5 0c-.4 1-1 1.8-1.7 2.5-.2.2-.3.6 0 .9l2.3 2.4h-4.3c-.2 0-.4-.1-.5-.2l-.7-.8c-.2-.2-.4-.3-.7-.2-.7.2-1.5.2-2.3.2-1.9 0-3.5-.4-4.8-1.1s-2.3-1.8-3-3.1-1-2.8-1-4.4.3-3.1 1-4.4 1.7-2.3 3-3.1 2.9-1.1 4.8-1.1 3.5.4 4.8 1.1c1.3.8 2.3 1.8 3 3.1s1 2.7 1 4.3c-.2 1.5-.4 2.7-.9 3.9h0zm-87.4 12.2c-.1.9-.4 1.5-.9 2s-1.2.7-2.1.7-1.7-.3-2.2-1c-.6-.7-.8-1.6-.8-2.7v-.8c0-.8.1-1.4.4-2s.6-1 1.1-1.3 1-.5 1.7-.5c.8 0 1.5.2 2 .7s.8 1.1.9 2h-1c-.1-.6-.3-1.1-.6-1.4s-.7-.4-1.3-.4c-.7 0-1.2.3-1.6.8s-.6 1.2-.6 2.1v.8c0 .9.2 1.6.5 2.1.4.5.9.8 1.5.8s1-.1 1.3-.4.5-.7.6-1.4h1.1v-.1zm2.6 1.6h3.9v.9h-5v-8h1.1V44zm9.8-3.4c0-1-.2-1.7-.6-2.2s-.9-.8-1.6-.8-1.2.3-1.6.8-.6 1.2-.6 2.1v.6c0 .9.2 1.7.6 2.2s.9.8 1.6.8 1.2-.3 1.6-.8.6-1.2.6-2.2v-.5zm1 .6c0 .8-.1 1.5-.4 2.1s-.6 1-1.1 1.3-1.1.5-1.7.5-1.2-.2-1.7-.5-.9-.8-1.1-1.3c-.3-.6-.4-1.2-.4-2v-.6c0-.8.1-1.5.4-2 .3-.6.6-1 1.1-1.4.5-.3 1.1-.5 1.7-.5s1.2.2 1.7.5.9.8 1.1 1.4c.3.6.4 1.3.4 2.1v.4zm7.3-4.3v5.4c0 .8-.2 1.4-.7 1.9s-1.1.7-1.9.8h-.3c-.9 0-1.6-.2-2.1-.7s-.8-1.1-.8-2v-5.5h1.1v5.4c0 .6.2 1 .5 1.3s.8.5 1.3.5c.6 0 1-.2 1.4-.5.3-.3.5-.8.5-1.3v-5.4h1v.1zm2.9.9v6.3h1.1c.8 0 1.4-.3 1.9-.8.4-.5.7-1.2.7-2.2v-.5c0-.9-.2-1.6-.6-2.1s-1-.8-1.8-.8h-1.3v.1zm-1.1 7.1v-8h2.2c.7 0 1.3.2 1.8.5a3.04 3.04 0 0 1 1.2 1.3c.3.6.4 1.2.4 2v.5c0 .8-.1 1.4-.4 2a3.04 3.04 0 0 1-1.2 1.3c-.5.3-1.2.5-1.9.5h-2.1v-.1zm-49.9 3.6c-2.3 0-4.6-.4-6.2-.8-2.8-.7-4.5-2.3-4.5-3.9 0-1.5 1.2-2.3 3.3-2.5.4-1.3 1.9-2.5 3.8-2.5.7 0 1.3.3 1.6.5 1.2-1 2.6-1.9 4.4-1.9 3 0 5.7 1.7 6.2 3.9 1.6.6 2.6 1.4 2.6 2.7 0 .9-.5 1.9-1.6 2.6-.8.5-2.4 1.1-3.4 1.3-1.7.3-3.7.6-6.2.6h0z"/><path d="M247.1 47.7c-2.6 0-4.9-.5-5.8-.7-2.4-.6-3.9-1.8-3.9-3.2 0-.4 0-1.6 2.7-1.8h.3l.1-.3c.3-.9 1.6-2 3.1-2h0c.5 0 .9.2 1.2.4l.3.2.3-.2c1-.8 2.3-1.6 3.9-1.6 2.6 0 5 1.4 5.5 3.2l.1.3.3.1c1.9.6 2.1 1.5 2.1 2 0 .7-.5 1.5-1.3 2-.7.5-2.2 1-3.1 1.1-1.9.3-3.8.5-5.8.5h0z" class="N"/><g stroke-width=".992" class="D E F"><path d="M75.5 74.9h2.8c.5 0 1-.5 1-1.1 0-2.1-1.6-3.7-3.5-3.7h-1.5c-.7 0-1.3.5-1.4 1.2"/><path d="M49.2 65.4c-1.8 0-4.8 4.4-5.6 6.1-.8 1.6-2.5 3.6-2.5 3.6-1.5 1.3-2.3 3.3-2.3 5.4l.1 12.3c0 .9.7 1.6 1.5 1.6h4.5c.8 0 1.5-.7 1.5-1.6v-2.1l24.3-.2v2.1c0 .9.7 1.6 1.5 1.6h4.5c.8 0 1.5-.7 1.5-1.6l-.1-12.3c0-2.1-.9-4-2.4-5.3 0 0-1.8-1.9-2.6-3.6-.8-1.6-3.8-6-5.7-6H49.2z"/><path d="M41.1 75.1h-2.8c-.5 0-1-.5-1-1.1 0-2.1 1.5-3.8 3.4-3.8h1.5c.7 0 1.3.5 1.4 1.2"/><path d="M69.8 80.3c1.4-2.4 3.1-3.3 6.7-3.5m-36.4.3c3.6.2 5.4 1 6.8 3.4" stroke-linecap="square" class="R"/><path d="M41.4 74.9l33.8-.3m-28.3 6l-1 .8c-.7.6-1.6 1-2.5 1-.3 0-.6 0-.9-.1l-3.7-.8.1 6.4c0 1.6 1.2 2.8 2.6 2.8h4.7l.5-.8c.9-1.3 2.2-2.1 3.7-2.1l16-.1c1.5 0 2.9.7 3.8 2l.5.8h4.7c1.4 0 2.6-1.3 2.6-2.8h0l-.1-6.4-3.6.9c-.3.1-.6.1-.9.1-.9 0-1.8-.3-2.5-.9l-1-.8c-.5.2-22.7.4-23 0z"/></g><path d="M110.9,52V16.8c0-5.4-2.9-9.8-6.5-9.8H12.2c-3.6,0-6.5,4.4-6.5,9.8V52H110.9z" class="N"/><text transform="matrix(1 -.0082 .0082 1 21.1985 36.4805)" class="B I">I</text><text transform="matrix(1 -.0082 .0082 1 25.5265 36.445)" class="B I">o</text><text transform="matrix(1 -.0082 .0082 1 33.4872 36.3797)" class="B I">T</text><text transform="matrix(1 -.0082 .0082 1 45.3931 36.2821)" class="B I">D</text><text transform="matrix(1 -.0082 .0082 1 54.4319 36.208)" class="B I">e</text><text transform="matrix(1 -.0082 .0082 1 61.9864 36.146)" class="B I">v</text><text transform="matrix(1 -.0082 .0082 1 69.1737 36.0871)" class="B I">i</text><text transform="matrix(1 -.0082 .0082 1 73.2048 36.054)" class="B I">c</text><text transform="matrix(1 -.0082 .0082 1 80.5639 35.9937)" class="B I">e</text><text transform="matrix(1 -.0082 .0082 1 88.22 35.9309)" class="B I">s</text><text transform="matrix(1 -.0082 .0082 1 517.4156 172.5595)" class="B C">k</text><text transform="matrix(1 -.0082 .0082 1 524.6263 172.5004)" class="B C">a</text><text transform="matrix(1 -.0082 .0082 1 532.2901 172.4375)" class="B C">f</text><text transform="matrix(1 -.0082 .0082 1 537.3525 172.396)" class="B C">k</text><text transform="matrix(1 -.0082 .0082 1 544.5632 172.3369)" class="B C">a</text><text transform="matrix(1 -.0082 .0082 1 552.227 172.274)" class="B C">-</text><text transform="matrix(1 -.0082 .0082 1 556.1956 172.2415)" class="B C">t</text><text transform="matrix(1 -.0082 .0082 1 560.7658 172.204)" class="B C">o</text><text transform="matrix(1 -.0082 .0082 1 568.7968 172.1382)" class="B C">p</text><text transform="matrix(1 -.0082 .0082 1 576.6872 172.0735)" class="B C">i</text><text transform="matrix(1 -.0082 .0082 1 580.3512 172.0434)" class="B C">c</text><text transform="matrix(1 -.0082 .0082 1 587.7416 171.9828)" class="B C">-</text><text transform="matrix(1 -.0082 .0082 1 591.7102 171.9503)" class="B C">a</text><text transform="matrix(1 -.0082 .0082 1 599.374 171.8874)" class="B C">l</text><text transform="matrix(1 -.0082 .0082 1 603.038 171.8574)" class="B C">l</text><text transform="matrix(1 -.0082 .0082 1 606.702 171.8273)" class="B C">-</text><text transform="matrix(1 -.0082 .0082 1 610.6706 171.7948)" class="B C">d</text><text transform="matrix(1 -.0082 .0082 1 618.6078 171.7297)" class="B C">a</text><text transform="matrix(1 -.0082 .0082 1 626.2717 171.6669)" class="B C">t</text><text transform="matrix(1 -.0082 .0082 1 630.9981 171.6281)" class="B C">a</text><text transform="matrix(1 -.0082 .0082 1 736.2881 176.0624)" class="B C">o</text><text transform="matrix(1 -.0082 .0082 1 744.3191 175.9965)" class="B C">t</text><text transform="matrix(1 -.0082 .0082 1 749.0455 175.9578)" class="B C">h</text><text transform="matrix(1 -.0082 .0082 1 756.7719 175.8944)" class="B C">e</text><text transform="matrix(1 -.0082 .0082 1 764.2638 175.833)" class="B C">r</text><text transform="matrix(1 -.0082 .0082 1 736.4465 195.3811)" class="B C">b</text><text transform="matrix(1 -.0082 .0082 1 744.3369 195.3164)" class="B C">a</text><text transform="matrix(1 -.0082 .0082 1 752.0007 195.2536)" class="B C">c</text><text transform="matrix(1 -.0082 .0082 1 759.3911 195.193)" class="B C">k</text><text transform="matrix(1 -.0082 .0082 1 766.4456 195.1351)" class="B C">e</text><text transform="matrix(1 -.0082 .0082 1 773.9376 195.0737)" class="B C">n</text><text transform="matrix(1 -.0082 .0082 1 781.6795 195.0102)" class="B C">d</text><text transform="matrix(1 -.0082 .0082 1 736.6049 214.6989)" class="B C">s</text><text transform="matrix(1 -.0082 .0082 1 743.8937 214.6391)" class="B C">y</text><text transform="matrix(1 -.0082 .0082 1 750.5576 214.5845)" class="B C">s</text><text transform="matrix(1 -.0082 .0082 1 757.8464 214.5247)" class="B C">t</text><text transform="matrix(1 -.0082 .0082 1 762.5729 214.486)" class="B C">e</text><text transform="matrix(1 -.0082 .0082 1 770.0648 214.4245)" class="B C">m</text><text transform="matrix(1 -.0082 .0082 1 782.1035 214.3258)" class="B C">s</text><path d="M121 78h12.5v12.5H121zm17.8 0h12.5v12.5h-12.5zm17.9 0h12.5v12.5h-12.5zm17.8 0H187v12.5h-12.5z" class="P"/><path d="M121 74h66m-66 20.5h66" class="E K L"/><path d="M121 124h12.5v12.5H121zm17.8 0h12.5v12.5h-12.5zm17.9 0h12.5v12.5h-12.5zm17.8 0H187v12.5h-12.5z" class="Q"/><path d="M121 120.5h66M121 141h66" class="E K L"/><path d="M121 171.4h12.5v12.5H121zm17.8 0h12.5v12.5h-12.5zm17.9 0h12.5v12.5h-12.5zm17.8 0H187v12.5h-12.5z" class="G"/><path d="M121 166.9h66m-66 20.5h66" class="E K L"/><path d="M121 217h12.5v12.5H121zm17.8 0h12.5v12.5h-12.5zm17.9 0h12.5v12.5h-12.5zm17.8 0H187v12.5h-12.5z" class="H"/><path d="M121 214.3h66M121 233h66" class="E K L"/><text transform="matrix(1 -.0082 .0082 1 499.9898 226.7024)" class="B C">k</text><text transform="matrix(1 -.0082 .0082 1 507.2005 226.6433)" class="B C">a</text><text transform="matrix(1 -.0082 .0082 1 514.8644 226.5804)" class="B C">f</text><text transform="matrix(1 -.0082 .0082 1 519.9267 226.5389)" class="B C">k</text><text transform="matrix(1 -.0082 .0082 1 527.1375 226.4798)" class="B C">a</text><text transform="matrix(1 -.0082 .0082 1 534.8013 226.4169)" class="B C">-</text><text transform="matrix(1 -.0082 .0082 1 538.7699 226.3844)" class="B C">t</text><text transform="matrix(1 -.0082 .0082 1 543.3401 226.3469)" class="B C">o</text><text transform="matrix(1 -.0082 .0082 1 551.3711 226.2811)" class="B C">p</text><text transform="matrix(1 -.0082 .0082 1 559.2615 226.2164)" class="B C">i</text><text transform="matrix(1 -.0082 .0082 1 562.9254 226.1863)" class="B C">c</text><text transform="matrix(1 -.0082 .0082 1 570.3159 226.1257)" class="B C">-</text><text transform="matrix(1 -.0082 .0082 1 574.2845 226.0932)" class="B C">s</text><text transform="matrix(1 -.0082 .0082 1 581.5733 226.0334)" class="B C">p</text><text transform="matrix(1 -.0082 .0082 1 589.4637 225.9687)" class="B C">e</text><text transform="matrix(1 -.0082 .0082 1 596.9556 225.9073)" class="B C">c</text><text transform="matrix(1 -.0082 .0082 1 604.3461 225.8466)" class="B C">i</text><text transform="matrix(1 -.0082 .0082 1 608.01 225.8166)" class="B C">f</text><text transform="matrix(1 -.0082 .0082 1 613.0723 225.7751)" class="B C">i</text><text transform="matrix(1 -.0082 .0082 1 616.7363 225.7451)" class="B C">c</text><text transform="matrix(1 -.0082 .0082 1 624.1267 225.6844)" class="B C">-</text><text transform="matrix(1 -.0082 .0082 1 628.0953 225.6519)" class="B C">d</text><text transform="matrix(1 -.0082 .0082 1 636.0326 225.5868)" class="B C">a</text><text transform="matrix(1 -.0082 .0082 1 643.6964 225.524)" class="B C">t</text><text transform="matrix(1 -.0082 .0082 1 648.4229 225.4852)" class="B C">a</text><use xlink:href="#G" class="P"/><use xlink:href="#G" x="18" class="Q"/><use xlink:href="#G" x="36" class="G"/><use xlink:href="#G" x="54" class="H"/><use xlink:href="#G" x="72" class="P"/><use xlink:href="#G" x="90" class="Q"/><use xlink:href="#G" x="108" class="G"/><use xlink:href="#G" x="126" class="H"/><use xlink:href="#G" x="144" class="P"/><use xlink:href="#G" x="162" class="Q"/><use xlink:href="#G" x="180" class="G"/><use xlink:href="#G" x="198" class="H"/><use xlink:href="#G" x="216" class="P"/><use xlink:href="#G" x="234" class="Q"/><use xlink:href="#G" x="252" class="G"/><use xlink:href="#G" x="270" class="H"/><path d="M436.7 134.9h282.6m-282.6 20.7h282.6" class="E K L"/><use xlink:href="#G" y="48.6" class="G"/><use xlink:href="#G" x="18" y="48.6" class="H"/><use xlink:href="#G" x="36" y="48.6" class="G"/><use xlink:href="#G" x="54" y="48.6" class="H"/><use xlink:href="#G" x="72" y="48.6" class="G"/><use xlink:href="#G" x="90" y="48.6" class="H"/><use xlink:href="#G" x="108" y="48.6" class="G"/><use xlink:href="#G" x="126" y="48.6" class="H"/><use xlink:href="#G" x="144" y="48.6" class="G"/><use xlink:href="#G" x="162" y="48.6" class="H"/><use xlink:href="#G" x="180" y="48.6" class="G"/><use xlink:href="#G" x="198" y="48.6" class="H"/><use xlink:href="#G" x="216" y="48.6" class="G"/><use xlink:href="#G" x="234" y="48.6" class="H"/><use xlink:href="#G" x="252" y="48.6" class="G"/><use xlink:href="#G" x="270" y="48.6" class="H"/><g class="E"><path d="M436.7 183.4h282.6m-282.6 20.7h282.6" class="K L"/><g class="D F"><path d="M104 105.2h1.5"/><path d="M108.6 105.2h36" class="M"/><path d="M146.1 105.2h1.5"/></g></g><path d="M146.5 108.9l6.5-3.7-6.5-3.7z" class="J"/><g class="D E F"><path d="M104 153.9h1.5"/><path d="M108.6 153.9h36" class="M"/><path d="M146.1 153.9h1.5"/></g><path d="M146.5 157.7l6.5-3.8-6.5-3.7z" class="J"/><g class="D E F"><path d="M104 201.6h1.5"/><path d="M108.6 201.6h36" class="M"/><path d="M146.1 201.6h1.5"/></g><path d="M146.5 205.3l6.5-3.7-6.5-3.8z" class="J"/><path d="M213.5 78H226v12.5h-12.5zm17.8 0h12.5v12.5h-12.5zm17.9 0h12.5v12.5h-12.5zm17.8 0h12.5v12.5H267z" class="P"/><path d="M213.5 74h66m-66 20.5h66" class="E K L"/><path d="M213.5 124H226v12.5h-12.5zm17.8 0h12.5v12.5h-12.5zm17.9 0h12.5v12.5h-12.5zm17.8 0h12.5v12.5H267z" class="Q"/><path d="M213.5 120.5h66m-66 20.5h66m-66 25.9h66m-66 20.5h66" class="E K L"/><path d="M213.5 171.4H226v12.5h-12.5zm17.8 0h12.5v12.5h-12.5zm17.9 0h12.5v12.5h-12.5zm17.8 0h12.5v12.5H267z" class="G"/><path d="M213.5 217H226v12.5h-12.5zm17.8 0h12.5v12.5h-12.5zm17.9 0h12.5v12.5h-12.5zm17.8 0h12.5v12.5H267z" class="H"/><g class="E"><path d="M213.5 214.3h66m-66 18.7h66" class="K L"/><g class="D F"><path d="M222 105.2h1.5"/><path d="M226.6 105.2h36" class="M"/><path d="M264.1 105.2h1.5"/></g></g><path d="M264.5 108.9l6.5-3.7-6.5-3.7z" class="J"/><g class="D E F"><path d="M222 153.9h1.5"/><path d="M226.6 153.9h36" class="M"/><path d="M264.1 153.9h1.5"/></g><path d="M264.5 157.7l6.5-3.8-6.5-3.7z" class="J"/><g class="D E F"><path d="M222 201.6h1.5"/><path d="M226.6 201.6h36" class="M"/><path d="M264.1 201.6h1.5"/></g><path d="M264.5 205.3l6.5-3.7-6.5-3.8z" class="J"/><g class="D E F"><path d="M318 115.2h1.5"/><path d="M322.6 115.2h36" class="M"/><path d="M360.1 115.2h1.5"/></g><path d="M360.5 118.9l6.5-3.7-6.5-3.7z" class="J"/><g class="D E F"><path d="M318 154.5h1.5"/><path d="M322.6 154.5h36" class="M"/><path d="M360.1 154.5h1.5"/></g><path d="M360.5 158.2l6.5-3.7-6.5-3.7z" class="J"/><g class="D E F"><path d="M318 191.6h1.5"/><path d="M322.6 191.6h36" class="M"/><path d="M360.1 191.6h1.5"/></g><path d="M360.5 195.3l6.5-3.7-6.5-3.8z" class="J"/><g class="D E F"><path d="M401 154.5h1.5"/><path stroke-dasharray="2.8236,2.8236" d="M405.3 154.5h9.9"/><path d="M416.6 154.5h1.5"/></g><path d="M417 158.2l6.5-3.7-6.5-3.7z" class="J"/><g class="D E F"><path d="M738 154.5h1.5"/><path stroke-dasharray="2.8289,2.8289" d="M742.3 154.5h26.9"/><path d="M770.6 154.5h1.5"/></g><path d="M771 158.2l6.5-3.7-6.5-3.7z" class="J"/><g class="E F"><path stroke="#4d4d4d" d="M103.9 253H12.7c-3.9 0-7-3.2-7-7V14c0-3.9 3.2-7 7-7h91.2c3.9 0 7 3.2 7 7v232c0 3.8-3.1 7-7 7z"/><path d="M78.7 210.3h-1.8c-.9 0-1.7.7-1.7 1.7v3.2H63.7v-4a3.01 3.01 0 0 0-3-3h-5.4a3.01 3.01 0 0 0-3 3v4H41V212c0-.9-.8-1.6-1.7-1.7h-1.7c-.9 0-1.7.7-1.7 1.7v5.1c0 .7.6 1.3 1.3 1.3h14v3.1c0 1.6 1.3 2.8 2.9 2.8H62c1.6 0 2.9-1.3 2.9-2.8v-3.1h14c.7 0 1.3-.6 1.3-1.3V212c.1-1-.6-1.7-1.5-1.7z" class="D"/></g><g class="R S D F"><path d="M34 207.6h8.9"/><path d="M38.4 206v4m35-2.4h9.1"/><path d="M77.9 206v4M55 235.1h6"/><path d="M58 232.5v5.3m-12.6 0v-10.5s0-3.3 2.2-5.4l3.3-3.3m20 19.2v-10.5s0-3.3-2.2-5.4l-3.3-3.3"/></g><circle cx="58" cy="212.2" r="1.4" class="D F"/><g class="R D F"><path d="M66.3 229.2H50c-.8 0-1.4.6-1.4 1.4v8.9c0 .8.6 1.4 1.4 1.4h16.3c.8 0 1.4-.6 1.4-1.4v-8.9c0-.7-.6-1.4-1.4-1.4z"/><path d="M61.2 227.1a.47.47 0 0 0-.5-.5h-5.4a.47.47 0 0 0-.5.5v2.1h6.5l-.1-2.1zm-8.6-87.3l2.2-9.2-10.4-10.4a3.32 3.32 0 0 1 0-4.7c.5-.5 1.2-.8 1.9-.9l9-9c1.2-1.2 3.2-1.2 4.5 0 .6.6 1 1.5.9 2.4l4.7 4h6l1.9 8.2-.8.4-3.4-5h-2.8c-.1.4-.3.7-.6.9-.3.3-.7.5-1.1.6v2.8l5 3.5-.4.8-8.3-1.9.7-5.8-4-4.6-6.1 6.1 8.5 8.5h2.2l3.1 13.3H52.6z"/></g><g class="E D"><path d="M63.5 113.2h.2c.1 0 .2.1.3.1h0c.1.1.2.1.3.2h0c.1.1.1.2.2.3h0c0 .1.1.2.1.4 0 .6-.5 1.2-1.2 1.2h0c-.1-.1-.2-.1-.4 0h0c-.1-.2-.2-.2-.3-.3h0c-.1-.1-.2-.2-.2-.3h0c-.1-.2-.2-.4-.2-.6.1-.4.6-1 1.2-1zm-6.3-6.4c.8 0 1.4.6 1.4 1.4s-.6 1.4-1.4 1.4-1.4-.6-1.4-1.4h0c0-.8.6-1.4 1.4-1.4zm-10.1 13a1.8 1.8 0 1 1 0-3.6 1.8 1.8 0 1 1 0 3.6h0zm11.2 11.7c-.9 0-1.6-.8-1.4-1.7.1-.5.5-1 1.1-1.1.9-.2 1.7.5 1.7 1.4h0c0 .8-.6 1.4-1.4 1.4h0z" class="N O"/><g class="F"><path d="M68.5 147.4H48.9c-.7 0-1.3-.6-1.3-1.3l.7-3.2c0-.7.6-1.3 1.3-1.3h18.2c.7 0 1.3.6 1.3 1.3l.7 3.2c-.1.8-.6 1.3-1.3 1.3z"/><use xlink:href="#H"/><path d="M44.9 171.1c0-1 .9-1.7 1.9-1.7h23.1c1.1 0 1.9.8 1.9 1.7v3.4c0 1-.9 1.7-1.9 1.7H46.8c-1.1 0-1.9-.8-1.9-1.7v-3.4zm23.1.7c-.7 0-1.3.7-1 1.5.1.2.3.4.5.5 1 .4 1.9-.6 1.4-1.5-.1-.3-.5-.5-.9-.5h0z"/><use xlink:href="#H" y="-18.9"/><path d="M70.3 188.2H46.2a3.37 3.37 0 0 1-3.4-3.4v-23.7a3.37 3.37 0 0 1 3.4-3.4h24.1a3.37 3.37 0 0 1 3.4 3.4v23.7a3.37 3.37 0 0 1-3.4 3.4zm-12 3a1.8 1.8 0 1 1 0 3.6 1.8 1.8 0 1 1 0-3.6h0z"/><path d="M51.6 193.1h4.9m4 0h4.9m-7.1-4.7v2.8" class="S"/></g></g><linearGradient id="D" gradientUnits="userSpaceOnUse" x1="196.651" y1="56" x2="390" y2="56"><stop offset="0" stop-color="#fff"/><stop offset=".355" stop-color="#fdfdfe"/><stop offset="1" stop-color="#bdccd4"/></linearGradient><path fill="url(#D)" d="M196.7 56H390" class="D E"/><linearGradient id="E" gradientUnits="userSpaceOnUse" x1="6.651" y1="56" x2="110.928" y2="56"><stop offset="0" stop-color="#fff"/><stop offset=".355" stop-color="#fdfdfe"/><stop offset="1" stop-color="#bdccd4"/></linearGradient><g class="D E"><path fill="url(#E)" d="M6.7 56h104.2"/><path d="M297.6 66.3v179.2" class="F"/></g><path d="M340.8 73.2V82c0 .2-.2.4-.4.4h-2V79c0-.2-.2-.4-.4-.4h-3.1c-.2 0-.4.2-.4.4v3.4h-2c-.2 0-.4-.2-.4-.4v-8.8c0-.2.2-.4.4-.4h2v3.4c0 .2.2.4.4.4h3.1c.2 0 .4-.2.4-.4v-3.4h2c.2 0 .4.2.4.4zm2.4.7h1.4c.2 0 .3.1.3.3V82c0 .2-.1.3-.3.3h-1.4c-.2 0-.3-.1-.3-.3v-7.8c0-.1.1-.3.3-.3zm11.6.5l-2.8 7.9c0 .1-.2.2-.3.2h-2.2c-.1 0-.3-.1-.3-.2l-2.8-7.9c-.1-.2.1-.4.3-.4h1.4c.1 0 .3.1.3.2l1.9 5.3c.1.3.5.3.6 0l1.8-5.3c0-.1.2-.2.3-.2h1.4c.3-.1.5.2.4.4zm7.3 6.7v1c0 .2-.1.3-.3.3h-5.2c-.2 0-.3-.1-.3-.3v-7.8c0-.2.1-.3.3-.3h5.1c.2 0 .3.1.3.3v1c0 .2-.1.3-.3.3h-3c-.2 0-.3.1-.3.3v1.5h3.1V79h-3.1v1.5c0 .2.1.3.3.3h3.1c.1 0 .3.1.3.3zm12.5-7.9V82c0 .2-.2.4-.4.4h-1.6c-.2 0-.4-.2-.4-.4v-5.6c0-.4-2.1 2.6-2.1 2.6-.1.1-.2.2-.3.2h-.8c-.1 0-.2-.1-.3-.2 0 0-2.1-3-2.1-2.7v5.6c0 .2-.2.4-.4.4h-1.6c-.2 0-.4-.2-.4-.4v-8.8c0-.2.2-.4.4-.4h2.1c.1 0 .2.1.3.2l2 2.9a.38.38 0 0 0 .6 0l2-2.9c.1-.1.2-.2.3-.2h2.1c.4.1.6.3.6.5zm11.2 6.6c-.2.6-.6 1-1 1.4-.1.1-.1.4 0 .5l1.3 1.4h-2.5c-.1 0-.2 0-.3-.1l-.4-.5c-.1-.1-.2-.1-.4-.1-.4.1-.9.1-1.3.1-1.1 0-2-.2-2.8-.6s-1.3-1-1.7-1.8c-.4-.7-.6-1.6-.6-2.5s.2-1.8.6-2.5 1-1.3 1.7-1.8c.8-.4 1.7-.7 2.8-.7s2 .2 2.8.7c.8.4 1.3 1 1.7 1.8.4.7.6 1.6.6 2.5 0 .8-.2 1.6-.5 2.2zm-6.6 0c.5.6 1.1.8 2 .8h0l-.6-.7c-.2-.2 0-.6.3-.6h1.6c.1 0 .2 0 .3.1h0c.2.2.4.3.6.1.1-.2.3-.6.3-.8.1-.4.2-.8.2-1.3 0-.6-.1-1.1-.3-1.5-.2-.5-.5-.8-.9-1.1s-.9-.4-1.4-.4c-.9 0-1.5.3-2 .8-.5.6-.7 1.3-.7 2.2-.1 1.1.1 1.9.6 2.4zm-45 6.9h-1.7v1.4h1.9v.4H332v-3.8h2.4v.4h-1.9v1.2h1.7v.4zm3.9 1.8h-.5l-1.9-3v3h-.5v-3.8h.5l1.9 3v-3h.5v3.8zm3.5-3.4h-1.2v3.4h-.5v-3.4h-1.2v-.4h3v.4z"/><use xlink:href="#I"/><use xlink:href="#J"/><path d="M349.2 87v1.5h-.5v-3.8h1.4c.4 0 .8.1 1 .3s.4.5.4.9-.1.7-.4.9c-.2.2-.6.3-1 .3h-.9zm0-.4h.9c.3 0 .5-.1.6-.2s.2-.3.2-.6c0-.2-.1-.4-.2-.6s-.3-.2-.6-.2h-.9v1.6z"/><use xlink:href="#J" x="6.8"/><path d="M356 88.5h-.5v-3.8h.5v3.8zm2.1-1.7c-.4-.1-.8-.3-.9-.5-.2-.2-.3-.4-.3-.7s.1-.6.4-.8c.2-.2.6-.3.9-.3s.5.1.7.2.4.2.5.4.2.4.2.6h-.6c0-.2-.1-.4-.2-.6-.1-.1-.4-.2-.6-.2-.3 0-.4.1-.6.2-.1.1-.2.3-.2.5s.1.3.2.4.4.2.7.3l.8.3a.78.78 0 0 1 .4.4c.1.1.1.3.1.5 0 .3-.1.6-.4.7-.2.2-.6.3-1 .3-.3 0-.5-.1-.7-.2s-.4-.2-.5-.4-.2-.4-.2-.6h.5c0 .2.1.4.3.6.2.1.4.2.7.2s.5-.1.6-.2a.76.76 0 0 0 .2-.4.76.76 0 0 0-.2-.4c-.1-.1-.5-.2-.8-.3z"/><use xlink:href="#I" x="18"/><use xlink:href="#I" x="22.4"/><path d="M369 86.1l.9-1.5h.6l-1.2 1.9 1.2 1.9h-.5l-1-1.4-1 1.5h-.6l1.2-1.9-1.2-1.9h.6l1 1.4zm4.8-1h-1.2v3.4h-.5v-3.4h-1.2v-.4h3v.4z"/><use xlink:href="#I" x="32.2"/><path d="M380.5 88.5h-.5l-1.9-3v3h-.5v-3.8h.5l1.9 3v-3h.5v3.8zm2-1.7c-.4-.1-.8-.3-.9-.5-.2-.2-.3-.4-.3-.7s.1-.6.4-.8c.2-.2.6-.3.9-.3s.5.1.7.2.4.2.5.4.2.4.2.6h-.5c0-.2-.1-.4-.2-.6-.1-.1-.4-.2-.6-.2-.3 0-.4.1-.6.2-.1.1-.2.3-.2.5s.1.3.2.4.4.2.7.3l.8.3a.78.78 0 0 1 .4.4c.1.1.1.3.1.5 0 .3-.1.6-.4.7-.2.2-.6.3-1 .3-.3 0-.5-.1-.7-.2s-.4-.2-.5-.4-.2-.4-.2-.6h.5c0 .2.1.4.3.6.2.1.4.2.7.2s.5-.1.6-.2a.76.76 0 0 0 .2-.4.76.76 0 0 0-.2-.4c-.3-.1-.5-.2-.9-.3zm2.7 1.7h-.5v-3.8h.5v3.8z"/><use xlink:href="#K"/><path d="M392.9 88.5h-.5l-1.9-3v3h-.5v-3.8h.5l1.9 3v-3h.5v3.8zm-58.8 3.1h-1.6v1.7h-.5v-3.8h2.4v.4h-1.9v1.3h1.6v.4z"/><use xlink:href="#K" x="-51.1" y="4.8"/><path d="M340.2 91.7h-.9v1.6h-.5v-3.8h1.3c.4 0 .8.1 1 .3s.4.5.4.9c0 .2-.1.4-.2.6s-.3.3-.5.4l.9 1.6h-.7l-.8-1.6zm-.9-.4h.8c.3 0 .5-.1.6-.2s.2-.3.2-.5-.1-.4-.2-.5-.3-.2-.6-.2h-.8v1.4zm5.2.2l-.5.5v1.3h-.5v-3.8h.5v1.9l1.7-1.9h.6l-1.5 1.7 1.6 2.1h-.6l-1.3-1.8zm4.6.8h-1.6l-.4 1h-.5l1.5-3.8h.4l1.5 3.8h-.5l-.4-1zm-1.5-.4h1.3l-.7-1.8-.6 1.8zm5-.3H351v1.7h-.5v-3.8h2.4v.4H351v1.3h1.6v.4zm1.9-.1l-.5.5v1.3h-.5v-3.8h.5v1.9l1.7-1.9h.6l-1.5 1.7 1.6 2.1h-.6l-1.3-1.8zm4.6.8h-1.6l-.4 1h-.5l1.5-3.8h.4l1.5 3.8h-.5l-.4-1zm-1.5-.4h1.3l-.7-1.8-.6 1.8z"/><circle fill="#ffc000" cx="317.2" cy="82.9" r="7.3" class="O"/><path d="M317.2 90.7c-4.3 0-7.8-3.5-7.8-7.8s3.5-7.8 7.8-7.8 7.8 3.5 7.8 7.8-3.5 7.8-7.8 7.8zm0-14.7c-3.8 0-6.9 3.1-6.9 6.9s3.1 6.9 6.9 6.9 6.9-3.1 6.9-6.9-3.1-6.9-6.9-6.9z"/><path d="M315.9 80.5c-.1-.5.2-1.1.7-1.3.1.5-.2 1-.7 1.3zm-2.5 2.1s0-.1-.1-.2c-.5-.4-1.5-1.4-.9-1.7s2.4.1 4.3 1.2c-1 .6-1.6 1-2.3 1.6-.7-.7-.9-.8-1-.9zm7.6 3.3c-.2.3-.9.2-1.9-.1h-.1c.3-.5.4-1.3.3-1.9 0-.2-.1-.4-.1-.5 1.3 1.1 2 2.1 1.8 2.5zm-1.1-2.5c-.7-.6-1.4-1-2.3-1.6 1.9-1 3.7-1.5 4.3-1.1.6.3-.4 1.3-.9 1.7-.1.1-.1.1-.1.2-.1.1-.2.3-1 .8zm-4.7 0c-.1.1-.1.3-.1.5-.1.6 0 1.4.3 1.9h-.1c-1 .3-1.7.5-1.9.1-.3-.4.5-1.4 1.8-2.5z" class="N O"/><path d="M317.2 87.5c.3-.6.5-.8.7-1.1h-1.5c.3.3.4.5.8 1.1zm-1.7-2.4c.1.3.2.5.4.7h2.6c.2-.2.3-.5.4-.7h-3.4zm3.3-1.5c-.5-.4-1.1-.7-1.7-1.1l-1.7 1.1c-.1.3-.1.6-.1.9h3.6c.1-.3 0-.6-.1-.9z"/><g class="O"><path d="M321 82.4c-.1.1-.1.2 0 .3h0c1.2-1 1.9-1.8 1.5-2.4-.4-.5-2-.3-4.1.6.1-.2.2-.4.2-.7V80c0-.3-.2-.6-.4-.8-.1-.1-.3-.2-.4-.3h0l.2-.3c0-.1 0-.1-.1-.1s-.1 0-.1.1l-.2.4c-.3-.1-.6-.1-.9 0l-.2-.4c0-.1-.1-.1-.1-.1-.1 0-.1.1-.1.1l.2.3c-.1.1-.3.2-.4.3-.3.3-.4.7-.4 1.1 0 .2.1.4.1.6-.5-.2-3.4-1.4-4-.6-.5.7 1.1 2.1 1.5 2.4h0c.1-.1.1-.2 0-.3-.2-.2-.6-.5-.8-.9-.3-.4-.3-.7-.2-.8.5-.4 2.2.1 2.7.3s1.1.4 1.6.7c-2.7 1.6-4.6 3.5-4.1 4.2.3.5 1.4.4 2.9-.1l-.1-.1c0-.1-.1-.1-.2-.1-1 .3-1.7.5-1.9.1-.3-.5 1.2-2.4 3.7-3.7l.2-.1c.1 0 .1.1.2.1 2.4 1.4 4 3.2 3.7 3.7-.2.3-.9.2-1.9-.1-.1 0-.2 0-.2.1l-.1.1c1.5.5 2.6.6 2.9.1.4-.8-1.4-2.6-4.1-4.2 1.9-1 3.7-1.5 4.3-1.1s-.4 1.4-.9 1.8zm-5.1-1.9c-.1-.5.2-1.1.7-1.3.1.5-.2 1-.7 1.3zm2.5 0c-.5-.2-.8-.8-.7-1.3.5.2.8.7.7 1.3z"/><path d="M318.4 80.5c-.5-.2-.8-.8-.7-1.3.5.2.8.7.7 1.3z" class="N"/></g><path d="M309.9 82.5h-1.3c-.2-1.2-1.3-2.2-2.6-2.2a2.65 2.65 0 0 0-2.6 2.6 2.65 2.65 0 0 0 2.6 2.6c1.3 0 2.4-.9 2.6-2.2h1.3v-.8zm-3.9 1.9a1.54 1.54 0 0 1-1.5-1.5 1.54 1.54 0 0 1 1.5-1.5 1.54 1.54 0 0 1 1.5 1.5 1.47 1.47 0 0 1-1.5 1.5zm15.6 4.3l.9 1c-.8.9-.8 2.4 0 3.4.9 1.1 2.6 1.2 3.7.3s1.2-2.6.3-3.7c-.8-1-2.2-1.2-3.3-.6l-.9-1-.7.6zm4 1.7c.5.6.5 1.6-.2 2.2-.6.5-1.6.5-2.2-.2s-.5-1.6.2-2.2 1.6-.4 2.2.2zm-3.5-12.9l.8-1c1.1.6 2.5.4 3.3-.6.9-1.1.8-2.7-.3-3.7-1.1-.9-2.7-.8-3.7.3a2.71 2.71 0 0 0 0 3.4l-.8 1 .7.6zm1-4.2c.5-.7 1.5-.7 2.2-.2s.7 1.5.2 2.2-1.5.7-2.2.2c-.6-.6-.7-1.6-.2-2.2z"/><path d="M530.1 56.5c-4.4 0-8.6.9-12.6 2.6-3.9 1.6-7.3 4-10.3 7s-5.3 6.5-6.9 10.3c-1.7 4-2.5 8.3-2.5 12.6s.9 8.6 2.5 12.6c1.6 3.9 4 7.3 6.9 10.3 3 3 6.4 5.3 10.3 7 4 1.7 8.2 2.6 12.6 2.6s8.6-.9 12.6-2.6c3.9-1.6 7.3-4 10.3-7s5.3-6.5 6.9-10.3c1.7-4 2.5-8.3 2.5-12.6s-.9-8.6-2.5-12.6c-1.6-3.9-4-7.3-6.9-10.3-3-3-6.4-5.3-10.3-7-4-1.8-8.2-2.6-12.6-2.6h0z" class="N"/><path d="M530 59.9c16 0 29 13 29.1 29 0 15.9-13 29-29.2 28.9-16.2 0-28.6-13.2-28.9-28.5-.2-15.9 12.7-29.3 29-29.4zm-3.7 27.8v6.7c0 2 1.6 3.5 3.6 3.5 1.9 0 3.7-1.5 3.7-3.4V80.9c0-1.9-1.8-3.4-3.8-3.4-1.9 0-3.5 1.6-3.5 3.5v6.7zm8.2-.4v5c0 .7.1 1.3.5 1.9.9 1.5 2.5 2.2 4.2 1.7 1.6-.4 2.7-1.8 2.7-3.6V82.1c0-1.7-1-3-2.4-3.5-2.3-.8-4.9.7-5 3.5v5.2zm-9.2 2.9c.1-.8.1-1.6.1-2.4-.1-2-1.6-3.5-3.6-3.6-1.9 0-3.6 1.4-3.7 3.3-.1 1.8-.1 3.6 0 5.4.1 1.9 1.7 3.2 3.6 3.2s3.4-1.3 3.6-3.2v-2.7zm21.2-3c-2 0-3.7 1.6-3.7 3.6s1.6 3.7 3.6 3.7c2.1 0 3.7-1.6 3.7-3.6 0-2.1-1.6-3.7-3.6-3.7zm-33.2 0c-2 0-3.6 1.6-3.6 3.6s1.6 3.7 3.6 3.7c2.1 0 3.7-1.6 3.7-3.6 0-2.2-1.5-3.7-3.7-3.7zm71.9-6.4l1.8 1.3c-1.1 1.9-4 2.9-6.4 2.3-2.8-.7-4.5-2.9-4.5-5.9 0-2.8 1.7-5 4.5-5.7 2.6-.7 5.4.3 6.6 2.4l-1.9 1.2c-1.7-2.2-4.3-1.8-5.6-.6-1.4 1.3-1.5 4-.1 5.5 1.3 1.5 3.6 1.3 5.6-.5zm1.9 13.7l-2 1.2c-.7-1-1.7-1.6-2.9-1.6a3.94 3.94 0 0 0-2.7 1c-1.4 1.4-1.4 4.1 0 5.5 1.2 1.2 3.8 1.7 5.7-.5l1.8 1.3c-1.4 2.1-4.1 3-6.7 2.2s-4.2-3-4.2-5.8c0-2.7 1.7-4.8 4.2-5.6 2.6-.8 5.4.1 6.8 2.3zm33.3 1.9v-4.5h2.1v11.8h-1.9c-.2-.2 0-.5-.2-.7-.8.7-1.7 1-2.7.9s-1.9-.6-2.5-1.4c-1.3-1.6-1.3-4.2.1-5.7 1.2-1.5 3-1.7 5.1-.4zm.1 3.3c0-1.2-.9-2.2-2.1-2.2s-2.1 1-2.1 2.2.9 2.1 2.1 2.2c1.3 0 2.1-.9 2.1-2.2zM593 84.5c-2.5 0-4.3-1.8-4.3-4.3 0-2.3 1.9-4.1 4.3-4.1 2.5 0 4.4 1.8 4.4 4.2 0 2.5-1.9 4.2-4.4 4.2zm0-2c1.3 0 2.2-.9 2.2-2.2 0-1.2-.9-2.2-2.2-2.2-1.1 0-2.1 1-2.1 2.1-.1 1.3.8 2.3 2.1 2.3zm5.1 21.4c-2.5 0-4.3-1.8-4.3-4.2s1.9-4.2 4.3-4.2 4.4 1.8 4.4 4.1c0 2.5-1.9 4.3-4.4 4.3zm-.1-2c1.3 0 2.2-.9 2.2-2.2 0-1.2-.9-2.2-2.1-2.2s-2.2.9-2.2 2.1c0 1.3.9 2.3 2.1 2.3zM639.7 81H634c.1.7.4 1.1.9 1.4 1.1.6 2.1.2 3.1-.4l1.2 1.3c-2.3 2.2-6.4 1.4-7.3-1.5-.8-2.4.3-4.8 2.5-5.5 2.7-.8 5.1.9 5.2 3.7.1.3.1.6.1 1zm-2.2-1.5c-.3-1.1-1-1.6-1.9-1.6-.9.1-1.5.6-1.6 1.6h3.5zm-35.8 4.8h-2.1v-7.9h2c.2.2 0 .5.2.7.7-.7 1.6-1.1 2.7-1 1.6.2 2.6 1.1 2.7 2.7.1 1.8 0 3.6 0 5.5h-2.1v-4.6c-.1-1-.7-1.6-1.6-1.6s-1.6.7-1.6 1.7v4.1c-.2.1-.2.2-.2.4zm40.2-7.9h2c0 .2.1.4.1.7.6-.4 1-.8 1.7-.9 2-.3 3.6.8 3.7 2.8.1 1.8 0 3.5 0 5.3-.7.1-1.4.1-2.1 0V80c0-1.4-.9-2.1-2.1-1.8-.7.2-1.2.8-1.2 1.7v4.5h-2.1v-8zm-31.5 1.9h-1.5v-1.9h1.4c.1-1.5-.1-3 1.4-3.8 1.2-.6 2.5-.4 3.7.2-.2.6-.5 1.2-.7 1.7-2.1-.5-2.5-.2-2.2 1.8h2.4c.1.7 0 1.3 0 2h-2.5v6h-2.2c.2-2 .2-4 .2-6zm11.5-1.9h2.2v4.4c0 1.4 1.1 2.1 2.3 1.6.6-.2.9-.8.9-1.6v-4.4h2.1v5c-.2 2.7-2.6 3.4-4.5 3.1-2.2-.4-3.1-1.6-3.1-3.8l.1-4.3zm-15.2 19.3v4.5c0 1.3 1.2 2 2.4 1.5.7-.3.9-.9.9-1.7v-4.3h2.2c-.1 1.8.2 3.7-.1 5.5-.4 2.2-2.6 2.9-4.5 2.6-2.1-.3-3-1.6-3-3.7v-4.4h2.1zM657.5 82l.8 1.6c-1.3.8-2.6 1.1-4 .6-1-.4-1.4-1.1-1.6-2.1-.1-.9-.1-1.8-.1-2.7v-1.1c-.5-.2-1 0-1.5-.2v-1.8c.5-.2 1 0 1.5-.1v-2.3h2.1v2.4h2.9v1.9h-2.8v3.3c.1.7.8 1.1 1.5.9.5 0 .8-.2 1.2-.4zm-66 9.8v11.8h-2.1V91.8h2.1zm27.8-7.5h-2.1V72.5h2.1v11.8z" class="G"/><path d="M526.3 87.7v-6.6c0-1.9 1.5-3.5 3.5-3.5s3.8 1.5 3.8 3.4v13.6c0 1.9-1.7 3.4-3.7 3.4s-3.6-1.5-3.6-3.5v-6.8zm8.2-.4v-5.1c0-2.8 2.6-4.3 5-3.5 1.4.5 2.4 1.8 2.4 3.5v10.2c0 1.8-1.1 3.1-2.7 3.6-1.6.4-3.2-.2-4.2-1.7-.4-.6-.5-1.3-.5-1.9v-5.1zm-9.2 2.9c0 .9.1 1.9 0 2.8-.2 1.9-1.7 3.2-3.6 3.2s-3.5-1.4-3.6-3.2-.1-3.6 0-5.4c.1-1.9 1.8-3.3 3.7-3.3 2 .1 3.5 1.6 3.6 3.6-.1.6-.1 1.4-.1 2.3zm21.2-3c2.1 0 3.7 1.6 3.7 3.7 0 2-1.7 3.6-3.7 3.6s-3.6-1.7-3.6-3.7c-.1-2 1.5-3.6 3.6-3.6zm-33.2 0c2.2 0 3.7 1.5 3.7 3.7 0 2-1.6 3.6-3.7 3.6-2 0-3.6-1.6-3.6-3.7 0-2 1.6-3.6 3.6-3.6z" fill="#fefefe"/><defs ><path id="G" d="M436.7 138.9h12.6v12.6h-12.6z"/><path id="H" d="M44.9 180.6c0-1 .9-1.7 1.9-1.7h23.1c1.1 0 1.9.8 1.9 1.7v3.4c0 1-.9 1.7-1.9 1.7H46.8c-1.1 0-1.9-.8-1.9-1.7v-3.4zm23.1.5c-.7 0-1.3.7-1 1.5.1.2.3.4.5.5 1 .4 1.9-.6 1.4-1.5-.1-.3-.5-.5-.9-.5h0z"/><path id="I" d="M344.4 86.7h-1.7v1.4h1.9v.4h-2.4v-3.8h2.4v.4h-1.9v1.2h1.7v.4z"/><path id="J" d="M346.7 86.9h-.9v1.6h-.5v-3.8h1.3c.4 0 .8.1 1 .3s.4.5.4.9c0 .2-.1.4-.2.6s-.3.3-.5.4l.9 1.6h-.5l-1-1.6zm-.9-.4h.8c.3 0 .5-.1.6-.2s.2-.3.2-.5-.1-.4-.2-.5-.3-.2-.6-.2h-.8v1.4z"/><path id="K" d="M389.1 86.7c0 .4-.1.7-.2 1s-.3.5-.5.6-.5.2-.8.2-.6-.1-.8-.2-.4-.4-.5-.6c-.1-.3-.2-.6-.2-1v-.3c0-.4.1-.7.2-1s.3-.5.5-.7.5-.2.8-.2.6.1.8.2.4.4.5.6c.1.3.2.6.2 1v.4zm-.5-.3c0-.5-.1-.8-.3-1.1-.2-.2-.4-.4-.8-.4-.3 0-.6.1-.8.4-.2.2-.3.6-.3 1v.3c0 .4.1.8.3 1 .2.3.4.4.8.4.3 0 .6-.1.8-.4.2-.2.3-.6.3-1v-.2z"/></defs></svg>