<?xml version="1.0" encoding="UTF-8"?><svg id="Icon" xmlns="http://www.w3.org/2000/svg" viewBox="0 0 200 200"><ellipse cx="99" cy="36" rx="84" ry="30" style="fill:none; stroke:#000; stroke-linecap:round; stroke-miterlimit:10; stroke-width:4px;"/><path d="M183,79.33c0,16.57-37.61,30-84,30S15,95.9,15,79.33" style="fill:none; stroke:#000; stroke-linecap:round; stroke-miterlimit:10; stroke-width:4px;"/><path d="M183,122.67c0,16.57-37.61,30-84,30S15,139.24,15,122.67" style="fill:none; stroke:#000; stroke-linecap:round; stroke-miterlimit:10; stroke-width:4px;"/><path d="M183,166c0,16.57-37.61,30-84,30s-84-13.43-84-30" style="fill:none; stroke:#000; stroke-linecap:round; stroke-miterlimit:10; stroke-width:4px;"/><line x1="15" y1="35" x2="15" y2="166" style="fill:none; stroke:#000; stroke-linecap:round; stroke-miterlimit:10; stroke-width:4px;"/><line x1="183" y1="35" x2="183" y2="166" style="fill:none; stroke:#000; stroke-linecap:round; stroke-miterlimit:10; stroke-width:4px;"/><ellipse cx="30.5" cy="76" rx="3.5" ry="7"/><ellipse cx="30.5" cy="120" rx="3.5" ry="7"/><ellipse cx="30.5" cy="164" rx="3.5" ry="7"/></svg>