<svg id="Ebene_1" data-name="Ebene 1" xmlns="http://www.w3.org/2000/svg" viewBox="0 0 75 59"><defs><style>.cls-1{fill:#b3b3b3;}</style></defs><path class="cls-1" d="M35.51,10.14V55.51a2,2,0,0,1-2.9,1.68C24,52.85,11.52,51.66,5.35,51.34a3.89,3.89,0,0,1-3.74-3.82V5.42A3.91,3.91,0,0,1,5.82,1.59c6.83.39,20.4,1.8,28.78,6.93A1.89,1.89,0,0,1,35.51,10.14ZM73.39,5.42v42.1a3.89,3.89,0,0,1-3.74,3.82c-6.17.32-18.64,1.51-27.26,5.84a2,2,0,0,1-2.9-1.68V10.16a1.92,1.92,0,0,1,.91-1.64c8.38-5.13,22-6.54,28.78-6.93A3.91,3.91,0,0,1,73.39,5.42Z"/></svg>