<?xml version="1.0" encoding="utf-8"?>
<!-- Generator: Adobe Illustrator 24.2.0, SVG Export Plug-In . SVG Version: 6.00 Build 0)  -->
<svg version="1.1" id="Ebene_1" xmlns="http://www.w3.org/2000/svg" xmlns:xlink="http://www.w3.org/1999/xlink" x="0px" y="0px"
	 viewBox="0 0 100 97" style="enable-background:new 0 0 100 97;" xml:space="preserve">
<style type="text/css">
	.st0{fill:#003E6E;}
</style>
<g>
	<path class="st0" d="M96.2,48.5C96.2,74,75.5,94.7,50,94.7S3.8,74,3.8,48.5S24.5,2.3,50,2.3S96.2,23,96.2,48.5z M58.7,42.5h-34
		c-2.5,0-4.5,2-4.5,4.5v3c0,2.5,2,4.5,4.5,4.5h34L44.7,68c-1.8,1.7-1.8,4.6-0.1,6.4l2,2c1.7,1.7,4.6,1.7,6.3,0l24.7-24.7
		c1.8-1.7,1.8-4.6,0-6.3L52.9,20.6c-1.7-1.7-4.6-1.7-6.3,0l-2,2c-1.8,1.8-1.7,4.7,0.1,6.4L58.7,42.5z"/>
</g>
</svg>
