<?xml version="1.0" encoding="utf-8"?>
<!-- Generator: Adobe Illustrator 25.2.0, SVG Export Plug-In . SVG Version: 6.00 Build 0)  -->
<svg version="1.1" id="Ebene_1" xmlns="http://www.w3.org/2000/svg" xmlns:xlink="http://www.w3.org/1999/xlink" x="0px" y="0px"
	 viewBox="0 0 75 75" style="enable-background:new 0 0 75 75;" xml:space="preserve">
<style type="text/css">
	.st0{fill:#BCC100;}
</style>
<path class="st0" d="M37.5,1.7C37.5,1.7,37.5,1.7,37.5,1.7C17.6,1.7,1.6,17.8,1.6,37.6c0,19.8,16.1,35.9,35.9,35.8
	c19.8,0,35.9-16.1,35.8-35.9C73.3,17.7,57.3,1.7,37.5,1.7z M60.4,30C60.4,30,60.4,30,60.4,30L33.6,56.7c-0.9,0.9-2.4,0.9-3.3,0
	L15.2,41.6c-0.9-0.9-0.9-2.4,0-3.3c0,0,0,0,0,0l3.3-3.3c0.9-0.9,2.4-0.9,3.3,0c0,0,0,0,0,0L32,45.2l21.8-21.8c0.9-0.9,2.4-0.9,3.3,0
	c0,0,0,0,0,0l3.3,3.3C61.3,27.6,61.3,29.1,60.4,30z"/>
</svg>
