<svg id="Ebene_1" data-name="Ebene 1" xmlns="http://www.w3.org/2000/svg" viewBox="0 0 75 60"><defs><style>.cls-1{fill:#ffc000;}</style></defs><path class="cls-1" d="M27.66,41.09A31.28,31.28,0,0,1,14,38,21.66,21.66,0,0,1,3,41.09a1,1,0,0,1-.71-1.67,28,28,0,0,0,4.41-6.71A16.7,16.7,0,0,1,2,21.37C2,10.48,13.51,1.66,27.66,1.66s25.63,8.82,25.63,19.71S41.82,41.09,27.66,41.09Zm45.07,14.1a1,1,0,0,1,.18,1.07,1,1,0,0,1-.9.6,21.62,21.62,0,0,1-10.92-3.09,31.15,31.15,0,0,1-13.72,3.09c-10.62,0-19.73-5-23.61-12.07a35.66,35.66,0,0,0,3.9.24C44,45,57.23,34.42,57.23,21.37a18.3,18.3,0,0,0-.16-2.47C66.41,21.84,73,28.9,73,37.14a16.73,16.73,0,0,1-4.68,11.34A27.38,27.38,0,0,0,72.73,55.19Z"/></svg>