<svg id="Ebene_1" data-name="Ebene 1" xmlns="http://www.w3.org/2000/svg" viewBox="0 0 100 100"><defs><style>.cls-1{fill:#ffc000;}</style></defs><path class="cls-1" d="M91,89.48a9.07,9.07,0,0,1-9.07,9.07H15.44a9.07,9.07,0,0,1-9.07-9.07V23a9.08,9.08,0,0,1,9.07-9.07h9.07V4.1a2.27,2.27,0,0,1,2.26-2.27h7.56A2.27,2.27,0,0,1,36.6,4.1v9.82H60.78V4.1A2.27,2.27,0,0,1,63,1.83H70.6A2.27,2.27,0,0,1,72.87,4.1v9.82h9.06A9.08,9.08,0,0,1,91,23ZM81.93,32.06H15.44V88.35a1.13,1.13,0,0,0,1.13,1.13H80.8a1.13,1.13,0,0,0,1.13-1.13ZM26.77,56.24A2.27,2.27,0,0,1,24.51,54V46.41a2.27,2.27,0,0,1,2.26-2.26h7.56a2.27,2.27,0,0,1,2.27,2.26V54a2.27,2.27,0,0,1-2.27,2.27Zm7.56,18.13H26.77a2.27,2.27,0,0,1-2.26-2.26V64.55a2.27,2.27,0,0,1,2.26-2.27h7.56a2.27,2.27,0,0,1,2.27,2.27v7.56A2.27,2.27,0,0,1,34.33,74.37ZM52.46,56.24H44.91A2.27,2.27,0,0,1,42.64,54V46.41a2.27,2.27,0,0,1,2.27-2.26h7.55a2.27,2.27,0,0,1,2.27,2.26V54A2.27,2.27,0,0,1,52.46,56.24Zm0,18.13H44.91a2.27,2.27,0,0,1-2.27-2.26V64.55a2.27,2.27,0,0,1,2.27-2.27h7.55a2.27,2.27,0,0,1,2.27,2.27v7.56A2.27,2.27,0,0,1,52.46,74.37ZM70.6,56.24H63A2.27,2.27,0,0,1,60.78,54V46.41A2.27,2.27,0,0,1,63,44.15H70.6a2.27,2.27,0,0,1,2.27,2.26V54A2.27,2.27,0,0,1,70.6,56.24Zm0,18.13H63a2.27,2.27,0,0,1-2.26-2.26V64.55A2.27,2.27,0,0,1,63,62.28H70.6a2.27,2.27,0,0,1,2.27,2.27v7.56A2.27,2.27,0,0,1,70.6,74.37Z"/></svg>