<svg id="Ebene_1" data-name="Ebene 1" xmlns="http://www.w3.org/2000/svg" viewBox="0 0 100 75"><path d="M97.45,10.81V64.19a8.9,8.9,0,0,1-8.9,8.9H11.45a8.9,8.9,0,0,1-8.9-8.9V10.81a8.9,8.9,0,0,1,8.9-8.9h77.1A8.9,8.9,0,0,1,97.45,10.81Zm-86,0v7.56C15.6,21.76,22.23,27,36.39,38.11,39.51,40.57,45.7,46.47,50,46.4s10.49-5.83,13.61-8.29C77.77,27,84.4,21.76,88.55,18.37V10.81Zm77.1,53.38V29.79c-4.24,3.38-10.27,8.13-19.45,15.32C64.92,48.4,57.92,55.34,50,55.29s-15-7-19.1-10.18c-9.18-7.19-15.21-11.94-19.45-15.32v34.4Z"/></svg>