<svg id="Ebene_1" data-name="Ebene 1" xmlns="http://www.w3.org/2000/svg" viewBox="0 0 100 82"><path d="M30.42,20A4.28,4.28,0,0,1,26,24.17H7.41A4.28,4.28,0,0,1,3,20V6.25A4.28,4.28,0,0,1,7.41,2.11H26a4.29,4.29,0,0,1,4.41,4.14Zm0,13.79V47.6A4.28,4.28,0,0,1,26,51.74H7.41A4.28,4.28,0,0,1,3,47.6V33.82a4.28,4.28,0,0,1,4.41-4.14H26A4.29,4.29,0,0,1,30.42,33.82Zm-23,23.43H26a4.29,4.29,0,0,1,4.41,4.14V75.18A4.28,4.28,0,0,1,26,79.31H7.41A4.27,4.27,0,0,1,3,75.18V61.39A4.28,4.28,0,0,1,7.41,57.25ZM59.3,24.17H40.7A4.28,4.28,0,0,1,36.29,20V6.25A4.29,4.29,0,0,1,40.7,2.11H59.3a4.29,4.29,0,0,1,4.41,4.14V20A4.28,4.28,0,0,1,59.3,24.17Zm0,27.57H40.7a4.28,4.28,0,0,1-4.41-4.14V33.82a4.29,4.29,0,0,1,4.41-4.14H59.3a4.29,4.29,0,0,1,4.41,4.14V47.6A4.28,4.28,0,0,1,59.3,51.74ZM40.7,57.25H59.3a4.29,4.29,0,0,1,4.41,4.14V75.18a4.28,4.28,0,0,1-4.41,4.13H40.7a4.28,4.28,0,0,1-4.41-4.13V61.39A4.29,4.29,0,0,1,40.7,57.25ZM74,2.11h18.6A4.28,4.28,0,0,1,97,6.25V20a4.28,4.28,0,0,1-4.41,4.14H74A4.28,4.28,0,0,1,69.58,20V6.25A4.29,4.29,0,0,1,74,2.11ZM69.58,47.6V33.82A4.29,4.29,0,0,1,74,29.68h18.6A4.28,4.28,0,0,1,97,33.82V47.6a4.28,4.28,0,0,1-4.41,4.14H74A4.28,4.28,0,0,1,69.58,47.6Zm0,27.58V61.39A4.29,4.29,0,0,1,74,57.25h18.6A4.28,4.28,0,0,1,97,61.39V75.18a4.27,4.27,0,0,1-4.41,4.13H74A4.28,4.28,0,0,1,69.58,75.18Z"/></svg>