<svg id="Ebene_1" data-name="Ebene 1" xmlns="http://www.w3.org/2000/svg" viewBox="0 0 100 100"><path d="M95,50.4c0,20.12-12.3,37.34-30.45,43.37-2.3.41-3.14-1-3.14-2.2,0-1.49.06-9,.06-15.17,0-4.26-1.42-7-3.09-8.42,10.15-1.14,20.83-2.54,20.83-20.05,0-5-1.77-7.48-4.68-10.69a17.12,17.12,0,0,0-.47-12.32c-3.79-1.19-12.52,4.9-12.52,4.9a42.93,42.93,0,0,0-22.79,0S30,23.74,26.23,24.92a17.12,17.12,0,0,0-.47,12.32c-2.91,3.2-4.28,5.7-4.28,10.69,0,17.46,10.23,18.93,20.37,20.05A10.14,10.14,0,0,0,39,74.1c-2.6,1.19-9.25,3.21-13.23-3.8a9.59,9.59,0,0,0-7-4.68c-4.45-.05-.29,2.8-.29,2.8,3,1.36,5,6.64,5,6.64,2.67,8.13,15.37,5.41,15.37,5.41,0,3.81.06,10,.06,11.14s-.82,2.61-3.14,2.19A45.49,45.49,0,0,1,5,50.4C5,25.23,24.25,6.12,49.42,6.12S95,25.23,95,50.4ZM21.46,67.11c.36.18.54.47.42.71a.55.55,0,0,1-.79.12c-.36-.18-.54-.47-.41-.7S21.09,67,21.46,67.11Zm2.12,1.78c.31.34.36.76.13.94s-.66.11-.95-.18-.36-.76-.12-.94S23.29,68.6,23.58,68.89Zm1.92,2.5a.83.83,0,0,1,0,1.13c-.23.18-.72,0-1-.42s-.29-.89,0-1.07S25.25,71,25.5,71.39Zm2.24,2.49c.36.34.47.89.23,1.12s-.76.24-1.18-.18-.52-.89-.23-1.12S27.34,73.46,27.74,73.88Zm2.84,1.67c.55.16.89.58.78.94a.84.84,0,0,1-1.12.36c-.54-.1-.91-.52-.78-.88A.92.92,0,0,1,30.58,75.55Zm3.58,1.88c-.6.06-1-.23-1-.65s.42-.65,1-.65,1,.23,1,.65S34.69,77.43,34.16,77.43Zm4.39-1.25c.05.37-.31.71-.83.84s-1-.11-1.07-.47.3-.77.83-.89S38.5,75.84,38.55,76.18Z"/></svg>