<svg id="Ebene_1" data-name="Ebene 1" xmlns="http://www.w3.org/2000/svg" viewBox="0 0 100 100"><path d="M95,50A46.07,46.07,0,1,1,48.93,3.94,46.07,46.07,0,0,1,95,50ZM81.53,41.09H85A37.17,37.17,0,0,0,54.88,13.37v4A2.88,2.88,0,0,1,52,20.28H47.5a2.87,2.87,0,0,0-2.39,1.28l-1.5,2.25a2.92,2.92,0,0,1-1.7,1.2l-2.68.67A2.88,2.88,0,0,0,37,28.47v.82a2.89,2.89,0,0,0,2.88,2.88H56.65a3.26,3.26,0,0,1,2,.85L60,34.3a2.89,2.89,0,0,0,2,.84h1.88a2.88,2.88,0,0,1,.9,5.61L56,43.68a2.89,2.89,0,0,1-2.2-.15l-2.74-1.37a10,10,0,0,0-4.54-1.07h-.16a11.78,11.78,0,0,0-6.09,2L35.16,47a10.12,10.12,0,0,0-4.06,8.11v2.62a11.64,11.64,0,0,0,3,7.17,10.13,10.13,0,0,0,7.18,3h4.8a2.88,2.88,0,0,1,2.88,2.88v5.55a17.41,17.41,0,0,0,1.55,6.55,5.16,5.16,0,0,0,4.61,2.85,5.74,5.74,0,0,0,4.29-2.29l2.42-3.63a35.33,35.33,0,0,1,4.64-5.42,3,3,0,0,0,.89-1.59l.8-4.25a2.87,2.87,0,0,1,.52-1.19l3.49-4.63a3,3,0,0,0,.57-1.74v-2.1A2.88,2.88,0,0,0,69.83,56H68.31a2.89,2.89,0,0,1-2.4-1.28L63.45,51a2.88,2.88,0,0,1,1.49-4.33l.49-.16a3.1,3.1,0,0,1,.91-.15,3.43,3.43,0,0,1,1.59.48l3.39,2.26a3.32,3.32,0,0,0,1.6.48,3.52,3.52,0,0,0,1.28-.3l2.86-1.43a2.9,2.9,0,0,0,1.59-2.58V44A2.89,2.89,0,0,1,81.53,41.09Z"/></svg>