<svg id="Ebene_1" data-name="Ebene 1" xmlns="http://www.w3.org/2000/svg" viewBox="0 0 100 100"><path d="M96.57,10.63V89.37A6.62,6.62,0,0,1,90,96H11.12a6.6,6.6,0,0,1-6.55-6.63V10.63A6.6,6.6,0,0,1,11.12,4H90A6.62,6.62,0,0,1,96.57,10.63Z" style="fill:#666"/><path d="M86,30.45V70.28a6.64,6.64,0,0,1-6.64,6.64H21.82a6.64,6.64,0,0,1-6.64-6.64V30.45a6.64,6.64,0,0,1,6.64-6.64H79.36A6.64,6.64,0,0,1,86,30.45Zm-64.18,0v5.64c3.1,2.53,8.05,6.46,18.62,14.73,2.32,1.83,6.94,6.24,10.15,6.19s7.83-4.36,10.15-6.19c10.58-8.28,15.52-12.2,18.62-14.73V30.45ZM79.36,70.28V44.61C76.19,47.14,71.69,50.68,64.84,56c-3.11,2.46-8.34,7.64-14.25,7.6S39.36,58.42,36.33,56C29.48,50.68,25,47.14,21.82,44.61V70.28Z" style="fill:#fff"/></svg>