<svg id="Ebene_1" data-name="Ebene 1" xmlns="http://www.w3.org/2000/svg" viewBox="0 0 75 75"><defs><style>.cls-1{fill:#ffc000;}</style></defs><path class="cls-1" d="M74,37.5A36.5,36.5,0,1,1,37.5,1,36.5,36.5,0,0,1,74,37.5ZM58.69,33.38a1.77,1.77,0,0,0-1.76-1.77H43.39V18.07a1.77,1.77,0,0,0-1.77-1.76H33.38a1.77,1.77,0,0,0-1.77,1.76V31.61H18.07a1.77,1.77,0,0,0-1.76,1.77v8.24a1.77,1.77,0,0,0,1.76,1.77H31.61V56.93a1.77,1.77,0,0,0,1.77,1.76h8.24a1.77,1.77,0,0,0,1.77-1.76V43.39H56.93a1.77,1.77,0,0,0,1.76-1.77Z"/></svg>