<svg id="Ebene_1" data-name="Ebene 1" xmlns="http://www.w3.org/2000/svg" viewBox="0 0 58 75"><path d="M55.57,20.34v46a6.65,6.65,0,0,1-6.64,6.64H9.07a6.65,6.65,0,0,1-6.64-6.64V8.73A6.67,6.67,0,0,1,9.07,2.07H37.32A6.68,6.68,0,0,1,42,4L53.62,15.63A6.71,6.71,0,0,1,55.57,20.34Zm-6.64,46V26.44H34.53a3.31,3.31,0,0,1-3.32-3.32V8.73H9.07V66.29ZM41.27,51.76a18.47,18.47,0,0,1-7.72-2.35,66.6,66.6,0,0,0-9.46,2.78c-6.93,12-11,6.5-10.53,4.32.55-2.77,4.29-5,7.06-6.4a111,111,0,0,0,4.89-10.29c-1-4-1.57-7.06-1-9.29.66-2.45,5.31-2.81,5.89.82.65,2.13-.21,5.52-.75,7.75a12,12,0,0,0,5.09,6.41c2.41-.31,7.23-.77,8.91.89C45.15,47.86,44.8,51.76,41.27,51.76Zm-20.78.57c-.82.76-3.5,2.94-4.21,4.84C16.28,57.27,17.86,56.52,20.49,52.33ZM31.78,47a15.25,15.25,0,0,1-4.16-4.91A55,55,0,0,1,24.2,49.7,45.68,45.68,0,0,1,31.78,47Zm-4-10.6c.68-1.2.78-5.64-.25-5.64C27.23,30.8,27.21,34.52,27.82,36.44Zm9.43,11.49C41.72,49.84,42.41,49,42.41,49,42.91,48.67,42.1,47.57,37.25,47.93Zm.61-38.66V19.8H48.39Z"/></svg>