<svg id="Ebene_1" data-name="Ebene 1" xmlns="http://www.w3.org/2000/svg" viewBox="0 0 100 100"><defs><style>.cls-1{fill:#b3b3b3;}</style></defs><path class="cls-1" d="M96,13.86V86.14A9.85,9.85,0,0,1,86.14,96H13.86A9.85,9.85,0,0,1,4,86.14V13.86A9.85,9.85,0,0,1,13.86,4H86.14A9.85,9.85,0,0,1,96,13.86ZM82.86,80.44a65.78,65.78,0,0,0-63.3-63.3,2.36,2.36,0,0,0-2.42,2.35v7.05a2.36,2.36,0,0,0,2.27,2.35,54,54,0,0,1,51.7,51.7,2.36,2.36,0,0,0,2.35,2.27h7.05A2.36,2.36,0,0,0,82.86,80.44Zm-21.16,0A44.61,44.61,0,0,0,19.61,38.3a2.36,2.36,0,0,0-2.47,2.35V47.7a2.35,2.35,0,0,0,2.19,2.35A32.86,32.86,0,0,1,50,80.67a2.34,2.34,0,0,0,2.35,2.19h7.05A2.36,2.36,0,0,0,61.7,80.39ZM36.86,73A9.86,9.86,0,1,0,27,82.86,9.87,9.87,0,0,0,36.86,73Z"/></svg>