<svg id="Ebene_1" data-name="Ebene 1" xmlns="http://www.w3.org/2000/svg" viewBox="0 0 75 75"><defs><style>.cls-1{fill:#666;}</style></defs><path class="cls-1" d="M70,37.5A32.53,32.53,0,1,1,37.5,5,32.52,32.52,0,0,1,70,37.5Zm-25.18,0L53.46,29a1.57,1.57,0,0,0,0-2.23l-5.19-5.19a1.57,1.57,0,0,0-2.23,0l-8.54,8.6L29,21.54a1.57,1.57,0,0,0-2.23,0l-5.19,5.19a1.57,1.57,0,0,0,0,2.23l8.6,8.54L21.55,46a1.57,1.57,0,0,0,0,2.23l5.18,5.19a1.57,1.57,0,0,0,2.23,0l8.54-8.6L46,53.45a1.57,1.57,0,0,0,2.23,0l5.19-5.18a1.57,1.57,0,0,0,0-2.23Z"/></svg>