<svg id="Ebene_1" data-name="Ebene 1" xmlns="http://www.w3.org/2000/svg" viewBox="0 0 58 68"><path d="M56,8.89v3.87a1.94,1.94,0,0,1-1.93,1.93H3.89A1.94,1.94,0,0,1,2,12.76V8.89A1.94,1.94,0,0,1,3.89,7H18.38l1.13-2.25A3.14,3.14,0,0,1,22.08,3.1H35.89a3.18,3.18,0,0,1,2.6,1.61L39.62,7H54.11A1.94,1.94,0,0,1,56,8.89ZM5.82,18.55H52.18V59.11a5.8,5.8,0,0,1-5.8,5.79H11.62a5.8,5.8,0,0,1-5.8-5.79Zm9.66,36.69a1.93,1.93,0,1,0,3.86,0v-27a1.93,1.93,0,1,0-3.86,0Zm11.59,0a1.93,1.93,0,1,0,3.86,0v-27a1.93,1.93,0,1,0-3.86,0Zm11.59,0a1.93,1.93,0,1,0,3.86,0v-27a1.93,1.93,0,1,0-3.86,0Z"/></svg>