<svg id="Ebene_1" data-name="Ebene 1" xmlns="http://www.w3.org/2000/svg" viewBox="0 0 100 100"><path d="M97,13.86V86.14A9.87,9.87,0,0,1,87.14,96H14.86A9.87,9.87,0,0,1,5,86.14V13.86A9.87,9.87,0,0,1,14.86,4H87.14A9.87,9.87,0,0,1,97,13.86ZM83.86,29.63a26.5,26.5,0,0,1-7.77,2.09A13.41,13.41,0,0,0,82,24.31a26.27,26.27,0,0,1-8.54,3.24,13.5,13.5,0,0,0-23,12.31A38.3,38.3,0,0,1,22.72,25.77a13.3,13.3,0,0,0-1.83,6.8v0a15,15,0,0,0,6,11.19,13.4,13.4,0,0,1-6.08-1.71v.17A13.46,13.46,0,0,0,31.59,55.46a14.35,14.35,0,0,1-6.07.25A13.47,13.47,0,0,0,38.1,65.05,27,27,0,0,1,21.39,70.8a29.23,29.23,0,0,1-3.25-.16,38.15,38.15,0,0,0,20.68,6c24.77,0,38.32-20.52,38.32-38.32,0-.58,0-1.17,0-1.75A28.38,28.38,0,0,0,83.86,29.63Z" style="fill:#1ea1f2"/></svg>