<svg id="Ebene_1" data-name="Ebene 1" xmlns="http://www.w3.org/2000/svg" viewBox="0 0 60 60"><defs><style>.cls-1{fill:#ffc000;}</style></defs><path class="cls-1" d="M26.93,42,13.61,55.34a6.89,6.89,0,0,1-9.74-9.75L20.28,29.16l6.11,6.11A11.57,11.57,0,0,0,26.93,42Zm28.9,8.47-5.68,5.68a4,4,0,0,1-5.68,0L31.86,43.57a8,8,0,0,1-1.5-9.2L18.88,22.88H12.19L1.85,9.1,8.74,2.2,22.53,12.54v6.69L34,30.72a8,8,0,0,1,9.19,1.49L55.83,44.83A4,4,0,0,1,55.83,50.5Zm-44.5,0a2.59,2.59,0,1,0-2.59,2.59A2.58,2.58,0,0,0,11.33,50.46ZM34.92,26.75l-8.84-8.84A15.24,15.24,0,0,1,30.51,6.75,15.52,15.52,0,0,1,45.23,2.67a1.29,1.29,0,0,1,.61,2.17l-8,8,1.22,7.31,7.31,1.22,8-8a1.3,1.3,0,0,1,2.17.6,15.34,15.34,0,0,1-8.8,17.9l-2.09-2.09a11.32,11.32,0,0,0-8.07-3.34A12,12,0,0,0,34.92,26.75Z"/></svg>