<svg id="Ebene_1" data-name="Ebene 1" xmlns="http://www.w3.org/2000/svg" viewBox="0 0 75 75"><defs><style>.cls-1{fill:#fff;}</style></defs><path class="cls-1" d="M70,38.65A32.53,32.53,0,1,1,37.5,6.12,32.52,32.52,0,0,1,70,38.65Zm-25.18,0,8.61-8.53a1.57,1.57,0,0,0,0-2.23L48.27,22.7a1.57,1.57,0,0,0-2.23,0L37.5,31.3,29,22.69a1.57,1.57,0,0,0-2.23,0l-5.19,5.19a1.57,1.57,0,0,0,0,2.23l8.6,8.54-8.6,8.52a1.57,1.57,0,0,0,0,2.23l5.18,5.2a1.59,1.59,0,0,0,2.23,0L37.5,46,46,54.6a1.59,1.59,0,0,0,2.23,0l5.19-5.18a1.57,1.57,0,0,0,0-2.23Z"/></svg>