<svg id="Ebene_1" data-name="Ebene 1" xmlns="http://www.w3.org/2000/svg" viewBox="0 0 65 60"><defs><style>.cls-1{fill:#ffc000;}</style></defs><path class="cls-1" d="M62.14,15.19a1,1,0,0,1-1,1h-3v1.5a1.49,1.49,0,0,1-1.49,1.49H7.89A1.49,1.49,0,0,1,6.4,17.68v-1.5h-3a1,1,0,0,1-1-1v-2A1.08,1.08,0,0,1,3,12.28L31.9,1.33a.94.94,0,0,1,.76,0l28.87,11a1.07,1.07,0,0,1,.61.92Zm0,38.82v2a1,1,0,0,1-1,1H3.41a1,1,0,0,1-1-1V54a3,3,0,0,1,3-3H59.16A3,3,0,0,1,62.14,54ZM20.33,21.16V45.05h8V21.16h8V45.05h8V21.16h8V45.05h4.48a1.5,1.5,0,0,1,1.49,1.5V49H6.4V46.55a1.49,1.49,0,0,1,1.49-1.5h4.48V21.16Z"/></svg>