<svg id="Ebene_1" data-name="Ebene 1" xmlns="http://www.w3.org/2000/svg" viewBox="0 0 100 77"><defs><style>.cls-1{fill:#b3b3b3;}</style></defs><path class="cls-1" d="M95.21,39.06s0,14.74-1.88,21.81a11.17,11.17,0,0,1-8,7.88c-7,1.89-35.16,1.89-35.16,1.89s-28.15,0-35.17-1.89a11.13,11.13,0,0,1-7.95-7.88C5.21,53.8,5.21,39.06,5.21,39.06s0-14.73,1.88-21.8a11.29,11.29,0,0,1,8-8c7-1.89,35.17-1.89,35.17-1.89s28.14,0,35.16,1.89a11.32,11.32,0,0,1,8,8C95.21,24.33,95.21,39.06,95.21,39.06Zm-30.69,0L41,25.68V52.45Z"/></svg>