<svg id="Ebene_1" data-name="Ebene 1" xmlns="http://www.w3.org/2000/svg" viewBox="0 0 58 75"><path d="M36.64,23.81H56V70.58A3.42,3.42,0,0,1,52.6,74H4.7a3.41,3.41,0,0,1-3.42-3.42V4.42A3.41,3.41,0,0,1,4.7,1H19.58V5.56h4.57V1h9.06V20.39A3.43,3.43,0,0,0,36.64,23.81ZM26.88,51.39,24.42,38.88a1.72,1.72,0,0,0-1.69-1.38H19.58V32.94h4.57V28.38H19.58V23.81h4.57V19.25H19.58V14.69h4.57V10.12H19.58v4.57H15v4.56h4.56v4.56H15v4.57h4.56v4.56H15V37.5L12.23,51.34a7.47,7.47,0,1,0,14.65,0ZM15,10.12h4.56V5.56H15Zm9.27,42.64c0,2.12-2.07,3.85-4.62,3.85S15,54.89,15,52.76s2.07-3.85,4.62-3.85S24.22,50.63,24.22,52.76ZM56,18.38v.87H37.78V1h.87a3.42,3.42,0,0,1,2.42,1L55,16A3.41,3.41,0,0,1,56,18.38Z"/></svg>