<?xml version="1.0" encoding="utf-8"?>
<!-- Generator: Adobe Illustrator 26.5.2, SVG Export Plug-In . SVG Version: 6.00 Build 0)  -->
<svg version="1.1" id="Logos" xmlns="http://www.w3.org/2000/svg" xmlns:xlink="http://www.w3.org/1999/xlink" x="0px" y="0px"
	 viewBox="0 0 1600 425" style="enable-background:new 0 0 1600 425;" xml:space="preserve">
<style type="text/css">
	.st0{enable-background:new    ;}
	.st1{fill:#FFC000;}
	.st2{fill-rule:evenodd;clip-rule:evenodd;fill:#FFFFFF;}
	.st3{fill-rule:evenodd;clip-rule:evenodd;}
	.st4{fill:#FFFFFF;}
</style>
<g>
	<path d="M596,52.3v146.2c0,3.3-2.8,6-6.3,6l-32.7-0.3c0-38.1,0-57.1,0-57.2c0-3.3-2.8-6-6.3-6h-52.3c-3.5,0-6.3,2.7-6.3,6
		l-0.2,57.2c-31.2,0-32.6,0.3-32.6,0.3c-3.5,0-6.3-2.7-6.3-6V52.3c0-3.3,2.8-6,6.3-6l32.6,0.2c0,55.2,0.2,56.4,0.2,56.4
		c0,3.3,2.8,6,6.3,6h52.3c3.5,0,6.3-2.7,6.3-6l-0.1-56.5c36.5,0,32.8-0.1,32.8-0.1C593.2,46.3,596,49,596,52.3L596,52.3z"/>
	<path d="M636.2,64.6h23.5c3.1,0,5.5,2.4,5.5,5.3v129.5c0,2.9-2.5,5.4-5.5,5.4h-23.5c-3.1,0-5.5-2.4-5.5-5.4V70
		C630.6,67,633.1,64.6,636.2,64.6z"/>
	<path d="M829.4,71.7l-47,131.2c-0.8,2.2-2.9,3.6-5.2,3.6h-35.8c-2.4,0-4.5-1.4-5.2-3.6L688.8,71.7c-1.2-3.5,1.4-7.1,5.2-7.1h23.7
		c2.4,0,4.5,1.5,5.3,3.7l30.9,88.7c1.7,4.9,8.8,4.9,10.5,0l30.7-88.7c0.8-2.2,2.9-3.7,5.3-3.7h23.7C828,64.6,830.6,68.2,829.4,71.7
		L829.4,71.7z"/>
	<path d="M950.1,183.6v15.9c0,2.9-2.5,5.4-5.5,5.4h-86c-3.1,0-5.5-2.4-5.5-5.4V70c0-2.9,2.5-5.3,5.5-5.3h85c3.1,0,5.5,2.4,5.5,5.3
		v15.9c0,2.9-2.5,5.3-5.5,5.3h-50.5c-3.1,0-5.5,2.4-5.5,5.3c0,0-0.1-0.1-0.1,24.5c0,0-0.7,0.1,51.7,0.1l0,26.2
		c-54.1,0-51.9,0.2-51.9,0.2c0,25.7,0.2,25.3,0.2,25.3c0,2.9,2.5,5.4,5.5,5.4h51.5C947.7,178.2,950.1,180.6,950.1,183.6L950.1,183.6
		z"/>
	<path d="M1158.8,52.3v146.2c0,3.3-2.8,6-6.3,6h-26.5c-3.5,0-6.3-2.7-6.3-6l-0.4-92.9c0-5.9-35,43.9-35,43.9
		c-1.2,1.6-3.1,2.6-5.2,2.6h-12.9c-2.1,0-4-1-5.2-2.6c0,0-34.7-50.2-34.7-44.2l0.2,93.3c0,3.3-2.8,6-6.3,6h-26.5
		c-3.5,0-6.3-2.7-6.3-6V52.3c0-3.3,2.8-6,6.3-6h35.5c2.1,0,4.1,1,5.2,2.7l33.4,48.3c2.5,3.6,7.9,3.6,10.4,0l33.4-48.3
		c1.2-1.7,3.1-2.7,5.2-2.7h35.5C1156,46.3,1158.8,49,1158.8,52.3L1158.8,52.3z"/>
	<path d="M1345.5,162.6c-3.9,9.3-9.4,17.3-16.5,24c-2.4,2.2-2.5,5.9-0.3,8.3l21.6,22.8c-39.5,0-41.7,0.3-41.7,0.3
		c-1.8,0-3.6-0.8-4.8-2.1l-7.1-8c-1.5-1.7-4-2.4-6.3-1.9c-6.8,1.5-14.2,2.2-22.2,2.2c-18.2,0-33.7-3.6-46.4-10.8
		c-12.7-7.2-22.2-17-28.6-29.4c-6.4-12.5-9.5-26.6-9.5-42.3s3.2-29.4,9.5-41.8c6.3-12.4,15.9-22.2,28.6-29.6s28.2-11,46.4-11
		s33.2,3.7,45.9,11s22.3,17.2,28.7,29.7c6.4,12.5,9.6,26.4,9.6,41.7C1352.5,139.2,1350.2,151.5,1345.5,162.6L1345.5,162.6z
		 M1235.1,162.5c7.7,9.3,18.7,13.9,33.2,13.9h0.4l-10.1-11.3c-3.5-3.9-0.6-10,4.7-10h26.8c1.8,0,3.5,0.8,4.7,2.1l0,0
		c2.8,3.1,7.1,5.8,9.2,2.2c1.8-3,4.2-9.4,5.4-12.9c2.2-6.5,3.2-13.6,3.2-21.4c0-9.6-1.7-18.2-5.2-25.7c-3.5-7.5-8.6-13.4-15.3-17.8
		c-6.7-4.3-14.7-6.5-23.9-6.5c-14.3,0-25.3,4.7-33,14c-7.7,9.3-11.6,21.5-11.6,36.5S1227.4,153.3,1235.1,162.5L1235.1,162.5z"/>
</g>
<g class="st0">
	<path d="M489,278.6h-25.1v25.2h29.3v7.7h-38.2v-71.1h37.7v7.7h-28.8V271H489V278.6z"/>
</g>
<g class="st0">
	<path d="M551,311.5h-9l-28.5-54.8v54.8h-9v-71.1h9l28.6,55v-55h8.9V311.5z"/>
</g>
<g class="st0">
	<path d="M606.6,248.1h-18.7v63.4H579v-63.4h-18.7v-7.7h46.3V248.1z"/>
	<path d="M651.2,278.6h-25.1v25.2h29.3v7.7h-38.2v-71.1h37.7v7.7h-28.8V271h25.1V278.6z"/>
	<path d="M688.3,282.7h-12.5v28.8h-9v-71.1h19.9c7,0,12.2,1.8,15.8,5.4c3.6,3.6,5.4,8.9,5.4,15.9c0,4.4-1,8.2-2.9,11.5
		c-1.9,3.3-4.7,5.7-8.2,7.4l13.8,30.2v0.6h-9.6L688.3,282.7z M675.8,275.1h10.8c3.7,0,6.7-1.2,9-3.6c2.2-2.4,3.3-5.6,3.3-9.7
		c0-9.1-4.1-13.7-12.4-13.7h-10.7V275.1z"/>
	<path d="M728.8,283.6v27.8h-8.9v-71.1h22.7c6.6,0,11.8,2,15.6,5.9c3.8,4,5.7,9.2,5.7,15.8c0,6.8-1.8,12.1-5.4,15.8
		c-3.6,3.7-8.7,5.6-15.2,5.7H728.8z M728.8,276h13.7c4,0,7-1.2,9.1-3.6c2.1-2.4,3.2-5.8,3.2-10.2c0-4.3-1.1-7.7-3.3-10.3
		c-2.2-2.6-5.2-3.9-9-3.9h-13.8V276z"/>
	<path d="M796.8,282.7h-12.5v28.8h-9v-71.1h19.9c7,0,12.2,1.8,15.8,5.4c3.6,3.6,5.4,8.9,5.4,15.9c0,4.4-1,8.2-2.9,11.5
		c-1.9,3.3-4.7,5.7-8.2,7.4l13.8,30.2v0.6h-9.6L796.8,282.7z M784.3,275.1h10.8c3.7,0,6.7-1.2,9-3.6c2.2-2.4,3.3-5.6,3.3-9.7
		c0-9.1-4.1-13.7-12.4-13.7h-10.7V275.1z"/>
	<path d="M837.7,311.5h-8.9v-71.1h8.9V311.5z"/>
	<path d="M884.4,293.5c0-3.5-1-6.3-2.9-8.2c-1.9-1.9-5.4-3.7-10.4-5.5c-5-1.8-8.8-3.7-11.5-5.6c-2.7-2-4.6-4.2-6-6.7
		c-1.3-2.5-2-5.4-2-8.7c0-5.6,1.9-10.3,5.6-13.9s8.7-5.5,14.8-5.5c4.2,0,7.9,0.9,11.1,2.8c3.3,1.9,5.8,4.4,7.5,7.8
		c1.8,3.3,2.6,7,2.6,10.9h-9c0-4.4-1.1-7.8-3.2-10.2c-2.1-2.4-5.2-3.6-9.1-3.6c-3.6,0-6.4,1-8.4,3c-2,2-3,4.9-3,8.5
		c0,3,1.1,5.5,3.2,7.5s5.5,3.8,10,5.4c7,2.3,12,5.2,15,8.6c3,3.4,4.5,7.8,4.5,13.3c0,5.8-1.9,10.4-5.6,13.8
		c-3.7,3.5-8.8,5.2-15.3,5.2c-4.1,0-8-0.9-11.5-2.7c-3.5-1.8-6.2-4.3-8.3-7.6s-3-7-3-11.3h9c0,4.4,1.2,7.8,3.7,10.3
		c2.5,2.4,5.8,3.7,10,3.7c3.9,0,6.9-1,8.9-3C883.4,299.7,884.4,297,884.4,293.5z"/>
	<path d="M939.2,278.6h-25.1v25.2h29.3v7.7h-38.2v-71.1h37.7v7.7h-28.8V271h25.1V278.6z"/>
	<path d="M1011.8,278.6h-25.1v25.2h29.3v7.7h-38.2v-71.1h37.7v7.7h-28.8V271h25.1V278.6z"/>
	<path d="M1047.3,267.6l13.4-27.2h10.5l-18.5,35.3l18.9,35.8H1061l-13.7-27.7l-13.7,27.7H1023l19-35.8l-18.6-35.3h10.4L1047.3,267.6
		z"/>
	<path d="M1124,248.1h-18.7v63.4h-8.9v-63.4h-18.7v-7.7h46.3V248.1z"/>
	<path d="M1168.6,278.6h-25.1v25.2h29.3v7.7h-38.2v-71.1h37.7v7.7h-28.8V271h25.1V278.6z"/>
	<path d="M1230.6,311.5h-9l-28.5-54.8v54.8h-9v-71.1h9l28.6,55v-55h8.9V311.5z"/>
	<path d="M1277.1,293.5c0-3.5-1-6.3-2.9-8.2c-1.9-1.9-5.4-3.7-10.4-5.5c-5-1.8-8.8-3.7-11.5-5.6c-2.7-2-4.6-4.2-6-6.7
		c-1.3-2.5-2-5.4-2-8.7c0-5.6,1.9-10.3,5.6-13.9s8.7-5.5,14.8-5.5c4.2,0,7.9,0.9,11.1,2.8c3.3,1.9,5.8,4.4,7.5,7.8
		c1.8,3.3,2.6,7,2.6,10.9h-9c0-4.4-1.1-7.8-3.2-10.2c-2.1-2.4-5.2-3.6-9.1-3.6c-3.6,0-6.4,1-8.4,3c-2,2-3,4.9-3,8.5
		c0,3,1.1,5.5,3.2,7.5s5.5,3.8,10,5.4c7,2.3,12,5.2,15,8.6c3,3.4,4.5,7.8,4.5,13.3c0,5.8-1.9,10.4-5.6,13.8
		c-3.7,3.5-8.8,5.2-15.3,5.2c-4.1,0-8-0.9-11.5-2.7c-3.5-1.8-6.2-4.3-8.3-7.6s-3-7-3-11.3h9c0,4.4,1.2,7.8,3.7,10.3
		c2.5,2.4,5.8,3.7,10,3.7c3.9,0,6.9-1,8.9-3C1276.1,299.7,1277.1,297,1277.1,293.5z"/>
	<path d="M1307.2,311.5h-8.9v-71.1h8.9V311.5z"/>
	<path d="M1369.1,282.2c0,9.7-2.1,17.2-6.2,22.4c-4.1,5.2-10,7.9-17.6,7.9c-7.3,0-13.1-2.5-17.4-7.6c-4.2-5.1-6.5-12.3-6.6-21.6
		v-13.4c0-9.5,2.1-17,6.3-22.3c4.2-5.4,10.1-8.1,17.6-8.1c7.5,0,13.3,2.6,17.5,7.7c4.2,5.2,6.3,12.5,6.4,22.1V282.2z M1360.2,269.7
		c0-7.5-1.2-13.1-3.7-16.8c-2.5-3.7-6.2-5.5-11.3-5.5c-4.9,0-8.6,1.9-11.2,5.6c-2.5,3.7-3.8,9.2-3.8,16.4v12.7
		c0,7.3,1.3,12.8,3.8,16.6c2.5,3.8,6.3,5.7,11.3,5.7c5,0,8.7-1.8,11.1-5.3c2.4-3.5,3.7-8.9,3.8-16.2V269.7z"/>
	<path d="M1429.4,311.5h-9l-28.5-54.8v54.8h-9v-71.1h9l28.6,55v-55h8.9V311.5z"/>
</g>
<g class="st0">
	<path d="M487.9,375.1h-24v31.4h-8.9v-71.1h37v7.7h-28.1v24.4h24V375.1z"/>
	<path d="M549.2,377.2c0,9.7-2.1,17.2-6.2,22.4c-4.1,5.2-10,7.9-17.6,7.9c-7.3,0-13.1-2.5-17.4-7.6c-4.2-5.1-6.5-12.3-6.6-21.6
		v-13.4c0-9.5,2.1-17,6.3-22.3c4.2-5.4,10.1-8.1,17.6-8.1c7.5,0,13.3,2.6,17.5,7.7c4.2,5.2,6.3,12.5,6.4,22.1V377.2z M540.3,364.7
		c0-7.5-1.2-13.1-3.7-16.8c-2.5-3.7-6.2-5.5-11.3-5.5c-4.9,0-8.6,1.9-11.2,5.6c-2.5,3.7-3.8,9.2-3.8,16.4v12.7
		c0,7.3,1.3,12.8,3.8,16.6c2.5,3.8,6.3,5.7,11.3,5.7c5,0,8.7-1.8,11.1-5.3c2.4-3.5,3.7-8.9,3.8-16.2V364.7z"/>
	<path d="M584.5,377.7H572v28.8h-9v-71.1h19.9c7,0,12.2,1.8,15.8,5.4c3.6,3.6,5.4,8.9,5.4,15.9c0,4.4-1,8.2-2.9,11.5
		c-1.9,3.3-4.7,5.7-8.2,7.4l13.8,30.2v0.6h-9.6L584.5,377.7z M572,370.1h10.8c3.7,0,6.7-1.2,9-3.6c2.2-2.4,3.3-5.6,3.3-9.7
		c0-9.1-4.1-13.7-12.4-13.7H572V370.1z"/>
	<path d="M654.9,373.7l-7,8.4v24.3H639v-71.1h8.9v34.3l5.9-7.8l19.1-26.6h10.7l-23.1,31.3l24.9,39.8h-10.7L654.9,373.7z"/>
	<path d="M726.6,387.9h-24l-5.5,18.6h-9.2l22.9-71.1h7.7l22.9,71.1h-9.2L726.6,387.9z M705,380.2h19.4l-9.7-32.3L705,380.2z"/>
	<path d="M784.1,375.1h-24v31.4h-8.9v-71.1h37v7.7H760v24.4h24V375.1z"/>
	<path d="M815.1,373.7l-7,8.4v24.3h-8.9v-71.1h8.9v34.3l5.9-7.8l19.1-26.6h10.7l-23.1,31.3l24.9,39.8h-10.7L815.1,373.7z"/>
	<path d="M886.8,387.9h-24l-5.5,18.6h-9.2l22.9-71.1h7.7l22.9,71.1h-9.2L886.8,387.9z M865.1,380.2h19.4l-9.7-32.3L865.1,380.2z"/>
</g>
<g>
	<g>
		<ellipse class="st1" cx="218.1" cy="208.3" rx="152.1" ry="151.4"/>
		<path d="M218.1,368.5c-88.7,0-160.9-71.9-160.9-160.2S129.4,48.1,218.1,48.1S379,119.9,379,208.3S306.8,368.5,218.1,368.5
			L218.1,368.5z M218.1,65.7c-79,0-143.2,64-143.2,142.6s64.2,142.6,143.2,142.6s143.2-64,143.2-142.6S297.1,65.7,218.1,65.7z"/>
	</g>
	<g>
		<path class="st2" d="M196.9,166.7c-1.5-9.4,3.5-18.9,12.2-22.9C210.6,153.2,205.6,162.6,196.9,166.7z"/>
		<path class="st2" d="M153.5,203.3c0,0,0.8-1.8-1-3.4c-7.8-7.3-25.1-24.7-15.2-29.7c11-5.6,40.9,2.4,74.1,19.8
			c-16.7,9.6-28.2,17.6-40.3,27.3C157.6,207.5,155.2,205.3,153.5,203.3L153.5,203.3z"/>
		<path class="st2" d="M284.6,260.2c-3.8,5.6-14.7,3.1-32.3-2.2c-0.8-0.2-1.6-0.2-2.3,0.1c5.4-7.7,6.5-22,4.7-32.4c0,0,0-0.1,0-0.2
			c0,0,0-0.1,0-0.1c-0.6-4.1-1.5-7.3-2.5-8.7C275.5,235.4,288.5,253.6,284.6,260.2L284.6,260.2z"/>
		<path class="st2" d="M266.2,217.5c-11.8-9.9-23.8-17.9-40.6-27.5c33.2-17.4,63-25.1,74-19.6c9.9,5-7.4,22.3-15.2,29.7
			c-1.4,1.3-1,1.9-1,3.4C281.6,205.5,279.6,207.7,266.2,217.5L266.2,217.5z"/>
		<path class="st2" d="M184.7,216.4c-1,1.4-1.9,4.7-2.5,8.7c0,0,0,0,0,0.1c0,0.1,0,0.1,0,0.2c-1.9,10.4-0.7,24.7,4.7,32.4
			c-0.7-0.3-1.5-0.3-2.3-0.1c-17.6,5.3-28.5,7.8-32.3,2.2C148.4,253.4,161.4,235.1,184.7,216.4L184.7,216.4z"/>
		<path d="M218.2,288.1c5.8-10.5,8.9-14,12.8-18.1h-25.5C209.3,274.1,212.4,277.7,218.2,288.1z"/>
		<path d="M188.9,246.4c1.4,4.7,3.6,9,6.6,12.9h45.2c3-3.8,5.2-8.2,6.6-12.9H188.9L188.9,246.4z"/>
		<path d="M246.9,220.2c-8.7-6.3-18.3-12.6-28.7-18.7c-10.4,6.1-20.1,12.4-28.7,18.7c-1.7,4.9-2.5,10.2-2.3,15.5h62
			C249.4,230.4,248.6,225.1,246.9,220.2z"/>
		<path class="st3" d="M284.4,200c-1.4,1.3-1.5,3.6-0.2,5l0.5,0.5c20.5-17.5,32.9-31,26.8-41.6c-6.8-9.4-35.4-4.9-70.4,10.8
			c1.8-3.6,2.6-7.4,2.6-11.3c0-1.4-0.1-2.9-0.4-4.3c-0.8-5-3.2-9.8-7.1-13.7c-2.1-2.1-4.5-3.8-7.1-5l0.1-0.3h0l2.7-5.8
			c0.4-0.9,0-2-0.9-2.5c-0.9-0.4-2.1,0-2.5,0.9l-2.9,6.3c-4.9-1.5-10.1-1.5-14.9,0l-2.9-6.3c-0.4-0.9-1.5-1.3-2.5-0.9
			s-1.4,1.5-0.9,2.5l2.6,5.6l0.2,0.4c-2.6,1.2-5,2.9-7.1,5c-5.1,5.1-7.6,11.8-7.4,18.4c0.1,3.6,0.9,7.2,2.5,10.5
			c-9.1-4-59.4-24.8-69.5-10.6c-9.2,12.9,19,35.4,26.6,41.8l0.5-0.5c1.3-1.4,1.2-3.7-0.2-5c-3.7-3.5-9.5-9.2-13.6-14.8
			c-5.3-7.3-5.5-11.7-2.9-14.1c8-7.5,37.7,2.4,47,5.9c8.9,3.4,18.4,7.7,28.2,12.9c-47.1,27.2-79.1,59.7-71.6,72.7
			c4.7,8.2,24.4,7.1,49.8-1.8l-0.9-1.5c-0.9-1.4-2.5-2.1-4.1-1.6c-17.6,5.3-28.5,7.8-32.3,2.2c-5.3-9.1,21.5-40.5,63.1-64.4l3.1-1.8
			c1.1,0.6,2.1,1.2,3.1,1.8c41.6,23.9,68.4,55.3,63.1,64.4c-3.8,5.6-14.7,3.1-32.3-2.2c-1.6-0.5-3.3,0.2-4.1,1.6l-0.9,1.5
			c25.3,8.9,45,10,49.8,1.8c7.5-13-24.5-45.5-71.6-72.7c33.2-17.4,63-25.1,74-19.6C309.5,175.3,292.2,192.7,284.4,200L284.4,200z
			 M196.9,166.7c-1.5-9.4,3.5-18.9,12.2-22.9C210.6,153.2,205.6,162.7,196.9,166.7z M239.3,166.7c-8.7-4-13.7-13.4-12.2-22.9
			C235.8,147.8,240.8,157.3,239.3,166.7z"/>
		<path class="st2" d="M239.3,166.7c-8.7-4-13.7-13.4-12.2-22.9C235.8,147.8,240.8,157.3,239.3,166.7z"/>
	</g>
</g>
<g>
	<circle class="st4" cx="217.4" cy="46" r="30.7"/>
	<path d="M255.4,46c0-21-17.1-38-38-38s-38,17.1-38,38c0,18.6,13.4,34.1,31.1,37.4v36.2c2.4-0.1,4.8-0.2,7.2-0.2
		c2.3,0,4.5,0.1,6.8,0.2V83.4C242,80.1,255.4,64.6,255.4,46L255.4,46z M217.4,69.3c-12.9,0-23.3-10.5-23.3-23.3s10.5-23.3,23.3-23.3
		s23.3,10.5,23.3,23.3S230.2,69.3,217.4,69.3z"/>
</g>
<g>
	<circle class="st4" cx="355" cy="129.1" r="30.7"/>
	<path d="M374,162.1c18.2-10.5,24.4-33.8,13.9-52s-33.8-24.4-52-13.9c-16.1,9.3-22.8,28.7-16.8,45.6L300.9,152c0,0,11.6,0.7,16,6.8
		l9.3-4.8C337.8,167.5,357.9,171.4,374,162.1L374,162.1z M334.8,140.8c-6.4-11.1-2.6-25.4,8.5-31.8s25.4-2.6,31.9,8.5
		s2.6,25.4-8.5,31.8S341.2,151.9,334.8,140.8z"/>
</g>
<g>
	<circle class="st4" cx="358.2" cy="287.9" r="30.7"/>
	<path d="M339.2,320.8c18.2,10.5,41.5,4.2,52-13.9s4.2-41.5-13.9-52c-16.1-9.3-36.2-5.4-47.9,8.2l-26.8-15.9
		c1.6,3.2,2.8,5.3,3.3,8.4c0.5,3.6-0.1,7-1.3,8.9l17.8,10.7C316.4,292.2,323.1,311.5,339.2,320.8L339.2,320.8z M338,276.2
		c6.4-11.1,20.7-15,31.9-8.5s15,20.7,8.5,31.9c-6.4,11.1-20.7,15-31.9,8.5C335.4,301.6,331.6,287.4,338,276.2z"/>
</g>
<g>
	<circle class="st4" cx="217.4" cy="369.9" r="30.7"/>
	<path d="M179.3,369.9c0,21,17.1,38,38,38c21,0,38-17.1,38-38c0-18.6-13.4-34.1-31.1-37.4v-34c-2.4,0.1-7.2,7.5-7.2,7.5
		s-4.5-7.3-6.8-7.4v34C192.7,335.8,179.3,351.3,179.3,369.9L179.3,369.9z M217.4,346.6c12.9,0,23.3,10.5,23.3,23.3
		c0,12.9-10.5,23.3-23.3,23.3c-12.9,0-23.3-10.5-23.3-23.3S204.5,346.6,217.4,346.6z"/>
</g>
</svg>
