<?xml version="1.0" encoding="utf-8"?>
<!-- Generator: Adobe Illustrator 26.5.2, SVG Export Plug-In . SVG Version: 6.00 Build 0)  -->
<svg version="1.1" id="Logos" xmlns="http://www.w3.org/2000/svg" xmlns:xlink="http://www.w3.org/1999/xlink" x="0px" y="0px"
	 viewBox="0 0 1600 425" style="enable-background:new 0 0 1600 425;" xml:space="preserve">
<style type="text/css">
	.st0{enable-background:new    ;}
	.st1{fill:#FFFFFF;}
	.st2{fill-rule:evenodd;clip-rule:evenodd;fill:#FFC000;}
	.st3{fill-rule:evenodd;clip-rule:evenodd;fill:#FFFFFF;}
	.st4{fill:none;}
</style>
<g>
	<path d="M559.5,44.1v146.2c0,3.3-2.8,6-6.3,6l-32.7-0.3c0-38.1,0-57.1,0-57.2c0-3.3-2.8-6-6.3-6H462c-3.5,0-6.3,2.7-6.3,6
		l-0.2,57.2c-31.2,0-32.6,0.3-32.6,0.3c-3.5,0-6.3-2.7-6.3-6V44.1c0-3.3,2.8-6,6.3-6l32.6,0.2c0,55.2,0.2,56.4,0.2,56.4
		c0,3.3,2.8,6,6.3,6h52.3c3.5,0,6.3-2.7,6.3-6l-0.1-56.5c36.5,0,32.8-0.1,32.8-0.1C556.7,38.1,559.5,40.8,559.5,44.1L559.5,44.1z"/>
	<path d="M599.7,56.4h23.5c3.1,0,5.5,2.4,5.5,5.3v129.5c0,2.9-2.5,5.4-5.5,5.4h-23.5c-3.1,0-5.5-2.4-5.5-5.4V61.7
		C594.1,58.8,596.6,56.4,599.7,56.4L599.7,56.4z"/>
	<path d="M792.9,63.5l-47,131.2c-0.8,2.2-2.9,3.6-5.2,3.6h-35.8c-2.4,0-4.5-1.4-5.2-3.6L652.4,63.5c-1.2-3.5,1.4-7.1,5.2-7.1h23.7
		c2.4,0,4.5,1.5,5.3,3.7l30.9,88.7c1.7,4.9,8.8,4.9,10.5,0l30.7-88.7c0.8-2.2,2.9-3.7,5.3-3.7h23.7C791.5,56.4,794.1,60,792.9,63.5
		L792.9,63.5z"/>
	<path d="M913.7,175.3v15.9c0,2.9-2.5,5.4-5.5,5.4h-86c-3.1,0-5.5-2.4-5.5-5.4V61.7c0-3,2.5-5.3,5.5-5.3h85c3.1,0,5.5,2.4,5.5,5.3
		v15.9c0,2.9-2.5,5.3-5.5,5.3h-50.5c-3.1,0-5.5,2.4-5.5,5.3c0,0-0.1-0.1-0.1,24.5c0,0-0.7,0.1,51.7,0.1l0,26.2
		c-54.1,0-51.9,0.2-51.9,0.2c0,25.7,0.2,25.3,0.2,25.3c0,2.9,2.5,5.4,5.5,5.4h51.5C911.2,170,913.7,172.4,913.7,175.3L913.7,175.3z"
		/>
	<path d="M1122.3,44.1v146.2c0,3.3-2.8,6-6.3,6h-26.5c-3.5,0-6.3-2.7-6.3-6l-0.4-92.9c0-5.9-35,43.9-35,43.9
		c-1.2,1.6-3.1,2.6-5.2,2.6h-12.9c-2.1,0-4-1-5.2-2.6c0,0-34.7-50.2-34.7-44.2l0.2,93.3c0,3.3-2.8,6-6.3,6h-26.5
		c-3.5,0-6.3-2.7-6.3-6V44.1c0-3.3,2.8-6,6.3-6h35.5c2.1,0,4,1,5.2,2.7l33.5,48.3c2.5,3.6,7.9,3.6,10.4,0l33.4-48.3
		c1.2-1.7,3.1-2.7,5.2-2.7h35.5C1119.5,38.1,1122.3,40.8,1122.3,44.1L1122.3,44.1z"/>
	<path d="M1309,154.4c-3.9,9.3-9.4,17.3-16.5,24c-2.4,2.2-2.5,5.9-0.3,8.3l21.6,22.8c-39.5,0-41.7,0.3-41.7,0.3
		c-1.8,0-3.6-0.8-4.8-2.1l-7.1-8c-1.5-1.7-4-2.4-6.3-1.9c-6.8,1.5-14.2,2.2-22.2,2.2c-18.2,0-33.7-3.6-46.4-10.8
		c-12.7-7.2-22.2-17-28.6-29.4c-6.4-12.5-9.5-26.6-9.5-42.3s3.2-29.4,9.5-41.8c6.3-12.4,15.9-22.2,28.6-29.6s28.2-11,46.4-11
		s33.2,3.7,45.9,11s22.3,17.2,28.7,29.7c6.4,12.5,9.6,26.4,9.6,41.7C1316,130.9,1313.7,143.3,1309,154.4L1309,154.4z M1198.6,154.3
		c7.7,9.3,18.7,13.9,33.2,13.9h0.4l-10.1-11.3c-3.5-3.9-0.6-10,4.7-10h26.8c1.8,0,3.5,0.8,4.7,2.1l0,0c2.8,3.1,7.1,5.8,9.2,2.2
		c1.8-3,4.2-9.4,5.4-12.9c2.2-6.5,3.2-13.6,3.2-21.4c0-9.6-1.7-18.2-5.2-25.7c-3.5-7.5-8.6-13.4-15.3-17.8
		c-6.7-4.3-14.7-6.5-23.9-6.5c-14.3,0-25.3,4.7-33,14c-7.7,9.3-11.6,21.5-11.6,36.5S1190.9,145,1198.6,154.3L1198.6,154.3z"/>
</g>
<g class="st0">
	<path d="M451,266.1h-25.1v25.2h29.3v7.7h-38.2v-71.1h37.7v7.7h-28.8v22.9H451V266.1z"/>
</g>
<g class="st0">
	<path d="M513,299h-9l-28.5-54.8V299h-9v-71.1h9l28.6,55v-55h8.9V299z"/>
</g>
<g class="st0">
	<path d="M568.6,235.6h-18.7V299H541v-63.4h-18.7v-7.7h46.3V235.6z"/>
	<path d="M613.2,266.1h-25.1v25.2h29.3v7.7h-38.2v-71.1h37.7v7.7h-28.8v22.9h25.1V266.1z"/>
	<path d="M650.3,270.2h-12.5V299h-9v-71.1h19.9c7,0,12.2,1.8,15.8,5.4c3.6,3.6,5.4,8.9,5.4,15.9c0,4.4-1,8.2-2.9,11.5
		c-1.9,3.3-4.7,5.7-8.2,7.4l13.8,30.2v0.6h-9.6L650.3,270.2z M637.8,262.6h10.8c3.7,0,6.7-1.2,9-3.6c2.2-2.4,3.3-5.6,3.3-9.7
		c0-9.1-4.1-13.7-12.4-13.7h-10.7V262.6z"/>
	<path d="M690.8,271.1V299h-8.9v-71.1h22.7c6.6,0,11.8,2,15.6,5.9c3.8,4,5.7,9.2,5.7,15.8c0,6.8-1.8,12.1-5.4,15.8
		c-3.6,3.7-8.7,5.6-15.2,5.7H690.8z M690.8,263.5h13.7c4,0,7-1.2,9.1-3.6c2.1-2.4,3.2-5.8,3.2-10.2c0-4.3-1.1-7.7-3.3-10.3
		c-2.2-2.6-5.2-3.9-9-3.9h-13.8V263.5z"/>
	<path d="M758.8,270.2h-12.5V299h-9v-71.1h19.9c7,0,12.2,1.8,15.8,5.4c3.6,3.6,5.4,8.9,5.4,15.9c0,4.4-1,8.2-2.9,11.5
		c-1.9,3.3-4.7,5.7-8.2,7.4l13.8,30.2v0.6h-9.6L758.8,270.2z M746.3,262.6h10.8c3.7,0,6.7-1.2,9-3.6c2.2-2.4,3.3-5.6,3.3-9.7
		c0-9.1-4.1-13.7-12.4-13.7h-10.7V262.6z"/>
	<path d="M799.7,299h-8.9v-71.1h8.9V299z"/>
	<path d="M846.4,281c0-3.5-1-6.3-2.9-8.2c-1.9-1.9-5.4-3.7-10.4-5.5c-5-1.8-8.8-3.7-11.5-5.6c-2.7-2-4.6-4.2-6-6.7
		c-1.3-2.5-2-5.4-2-8.7c0-5.6,1.9-10.3,5.6-13.9s8.7-5.5,14.8-5.5c4.2,0,7.9,0.9,11.1,2.8c3.3,1.9,5.8,4.4,7.5,7.8
		c1.8,3.3,2.6,7,2.6,10.9h-9c0-4.4-1.1-7.8-3.2-10.2c-2.1-2.4-5.2-3.6-9.1-3.6c-3.6,0-6.4,1-8.4,3c-2,2-3,4.9-3,8.5
		c0,3,1.1,5.5,3.2,7.5s5.5,3.8,10,5.4c7,2.3,12,5.2,15,8.6c3,3.4,4.5,7.8,4.5,13.3c0,5.8-1.9,10.4-5.6,13.8
		c-3.7,3.5-8.8,5.2-15.3,5.2c-4.1,0-8-0.9-11.5-2.7c-3.5-1.8-6.2-4.3-8.3-7.6s-3-7-3-11.3h9c0,4.4,1.2,7.8,3.7,10.3
		c2.5,2.4,5.8,3.7,10,3.7c3.9,0,6.9-1,8.9-3C845.4,287.2,846.4,284.5,846.4,281z"/>
	<path d="M901.2,266.1h-25.1v25.2h29.3v7.7h-38.2v-71.1h37.7v7.7h-28.8v22.9h25.1V266.1z"/>
	<path d="M939.7,299v-71.1h16.9c8.3,0,14.7,2.6,19.3,7.8c4.6,5.2,6.9,12.5,6.9,21.9v11.9c0,9.4-2.3,16.7-7,21.8
		c-4.7,5.1-11.4,7.7-20.3,7.7H939.7z M948.6,235.6v55.8h7.2c6.3,0,10.9-1.8,13.8-5.4c2.9-3.6,4.4-8.9,4.4-16v-12.6
		c0-7.5-1.4-13-4.3-16.5s-7.2-5.3-13.1-5.3H948.6z"/>
	<path d="M1006.1,299h-8.9v-71.1h8.9V299z"/>
	<path d="M1052.8,281c0-3.5-1-6.3-2.9-8.2c-1.9-1.9-5.4-3.7-10.4-5.5c-5-1.8-8.8-3.7-11.5-5.6c-2.7-2-4.6-4.2-6-6.7
		c-1.3-2.5-2-5.4-2-8.7c0-5.6,1.9-10.3,5.6-13.9s8.7-5.5,14.8-5.5c4.2,0,7.9,0.9,11.1,2.8c3.3,1.9,5.8,4.4,7.5,7.8
		c1.8,3.3,2.6,7,2.6,10.9h-9c0-4.4-1.1-7.8-3.2-10.2c-2.1-2.4-5.2-3.6-9.1-3.6c-3.6,0-6.4,1-8.4,3c-2,2-3,4.9-3,8.5
		c0,3,1.1,5.5,3.2,7.5s5.5,3.8,10,5.4c7,2.3,12,5.2,15,8.6c3,3.4,4.5,7.8,4.5,13.3c0,5.8-1.9,10.4-5.6,13.8
		c-3.7,3.5-8.8,5.2-15.3,5.2c-4.1,0-8-0.9-11.5-2.7c-3.5-1.8-6.2-4.3-8.3-7.6s-3-7-3-11.3h9c0,4.4,1.2,7.8,3.7,10.3
		c2.5,2.4,5.8,3.7,10,3.7c3.9,0,6.9-1,8.9-3C1051.9,287.2,1052.8,284.5,1052.8,281z"/>
	<path d="M1115.2,235.6h-18.7V299h-8.9v-63.4h-18.7v-7.7h46.3V235.6z"/>
	<path d="M1147.1,270.2h-12.5V299h-9v-71.1h19.9c7,0,12.2,1.8,15.8,5.4c3.6,3.6,5.4,8.9,5.4,15.9c0,4.4-1,8.2-2.9,11.5
		c-1.9,3.3-4.7,5.7-8.2,7.4l13.8,30.2v0.6h-9.6L1147.1,270.2z M1134.6,262.6h10.8c3.7,0,6.7-1.2,9-3.6c2.2-2.4,3.3-5.6,3.3-9.7
		c0-9.1-4.1-13.7-12.4-13.7h-10.7V262.6z"/>
	<path d="M1188.1,299h-8.9v-71.1h8.9V299z"/>
	<path d="M1203.7,299v-71.1h20.3c6.5,0,11.4,1.6,14.6,4.7s4.9,7.9,4.9,14.2c0,3.3-0.8,6.2-2.5,8.8s-3.9,4.5-6.7,5.9
		c3.3,1,5.8,3,7.7,6s2.9,6.7,2.9,10.9c0,6.4-1.8,11.4-5.2,15c-3.5,3.6-8.5,5.5-15,5.5H1203.7z M1212.7,258.2h11.5
		c3.1,0,5.6-1,7.5-3.1s2.9-4.9,2.9-8.3c0-3.9-0.9-6.8-2.6-8.5c-1.7-1.8-4.4-2.7-7.9-2.7h-11.3V258.2z M1212.7,265.7v25.6h12.2
		c3.4,0,6.1-1.1,8.1-3.3c2-2.2,3-5.4,3-9.4c0-8.6-3.6-12.8-10.8-12.8H1212.7z"/>
	<path d="M1300.7,227.9v50.5c-0.1,6.7-2,12-5.9,15.8c-3.8,3.8-9.2,5.7-16.1,5.7c-7,0-12.4-1.9-16.1-5.6c-3.7-3.7-5.6-9-5.7-15.9
		v-50.5h8.9V278c0,4.8,1,8.4,3.1,10.7c2,2.4,5.3,3.5,9.8,3.5c4.6,0,7.9-1.2,9.9-3.5c2-2.4,3.1-5.9,3.1-10.7v-50.2H1300.7z"/>
	<path d="M1356,235.6h-18.7V299h-8.9v-63.4h-18.7v-7.7h46.3V235.6z"/>
	<path d="M1400.6,266.1h-25.1v25.2h29.3v7.7h-38.2v-71.1h37.7v7.7h-28.8v22.9h25.1V266.1z"/>
	<path d="M1416.1,299v-71.1h16.9c8.3,0,14.7,2.6,19.3,7.8c4.6,5.2,6.9,12.5,6.9,21.9v11.9c0,9.4-2.3,16.7-7,21.8
		c-4.7,5.1-11.4,7.7-20.3,7.7H1416.1z M1425.1,235.6v55.8h7.2c6.3,0,10.9-1.8,13.8-5.4c2.9-3.6,4.4-8.9,4.4-16v-12.6
		c0-7.5-1.4-13-4.3-16.5s-7.2-5.3-13.1-5.3H1425.1z"/>
</g>
<g class="st0">
	<path d="M458.5,330.6h-18.7V394h-8.9v-63.4h-18.7v-7.7h46.3V330.6z"/>
	<path d="M490.4,365.2h-12.5V394h-9v-71.1h19.9c7,0,12.2,1.8,15.8,5.4c3.6,3.6,5.4,8.9,5.4,15.9c0,4.4-1,8.2-2.9,11.5
		c-1.9,3.3-4.7,5.7-8.2,7.4l13.8,30.2v0.6h-9.6L490.4,365.2z M477.9,357.6h10.8c3.7,0,6.7-1.2,9-3.6c2.2-2.4,3.3-5.6,3.3-9.7
		c0-9.1-4.1-13.7-12.4-13.7h-10.7V357.6z"/>
</g>
<g class="st0">
	<path d="M555.2,375.4h-24l-5.5,18.6h-9.2l22.9-71.1h7.7L570,394h-9.2L555.2,375.4z M533.5,367.7h19.4l-9.7-32.3L533.5,367.7z"/>
</g>
<g class="st0">
	<path d="M623.7,371.4c-0.4,7.6-2.5,13.5-6.4,17.5c-3.9,4.1-9.4,6.1-16.5,6.1c-7.1,0-12.8-2.7-17-8.1s-6.3-12.8-6.3-22v-12.9
		c0-9.2,2.2-16.6,6.5-21.9c4.3-5.4,10.2-8.1,17.7-8.1c6.9,0,12.2,2.1,15.9,6.2s5.8,10,6.1,17.6h-9c-0.4-5.8-1.6-9.9-3.7-12.4
		s-5.2-3.7-9.4-3.7c-4.9,0-8.6,1.9-11.2,5.7c-2.6,3.8-3.9,9.4-3.9,16.7v13c0,7.2,1.2,12.7,3.6,16.6c2.4,3.8,6,5.8,10.6,5.8
		c4.7,0,8-1.2,10.1-3.5s3.3-6.5,3.8-12.5H623.7z"/>
	<path d="M645.1,394h-8.9v-71.1h8.9V394z"/>
	<path d="M707.2,394h-9l-28.5-54.8V394h-9v-71.1h9l28.6,55v-55h8.9V394z"/>
	<path d="M767.2,385.1l-1.6,2c-4.5,5.2-11.1,7.9-19.7,7.9c-7.7,0-13.7-2.5-18.1-7.6c-4.4-5.1-6.6-12.3-6.7-21.6v-14
		c0-10,2-17.4,6-22.4c4-5,10-7.4,17.9-7.4c6.8,0,12.1,1.9,15.9,5.6c3.8,3.8,5.9,9.1,6.3,16.1h-8.9c-0.4-4.4-1.6-7.9-3.7-10.4
		s-5.3-3.7-9.5-3.7c-5.1,0-8.9,1.7-11.2,5c-2.4,3.3-3.6,8.7-3.7,16v14.5c0,7.2,1.4,12.7,4.1,16.5c2.7,3.8,6.7,5.7,11.8,5.7
		c4.8,0,8.5-1.2,11-3.5l1.3-1.2v-16.3h-13v-7.7h21.9V385.1z"/>
	<path d="M838.8,361.1h-25.1v25.2h29.3v7.7h-38.2v-71.1h37.7v7.7h-28.8v22.9h25.1V361.1z"/>
	<path d="M874.3,350.1l13.4-27.2h10.5l-18.5,35.3l18.9,35.8H888l-13.7-27.7L860.6,394H850l19-35.8l-18.6-35.3h10.4L874.3,350.1z"/>
	<path d="M951,330.6h-18.7V394h-8.9v-63.4h-18.7v-7.7H951V330.6z"/>
	<path d="M995.6,361.1h-25.1v25.2h29.3v7.7h-38.2v-71.1h37.7v7.7h-28.8v22.9h25.1V361.1z"/>
	<path d="M1057.6,394h-9l-28.5-54.8V394h-9v-71.1h9l28.6,55v-55h8.9V394z"/>
	<path d="M1104.1,376c0-3.5-1-6.3-2.9-8.2c-1.9-1.9-5.4-3.7-10.4-5.5c-5-1.8-8.8-3.7-11.5-5.6c-2.7-2-4.6-4.2-6-6.7
		c-1.3-2.5-2-5.4-2-8.7c0-5.6,1.9-10.3,5.6-13.9s8.7-5.5,14.8-5.5c4.2,0,7.9,0.9,11.1,2.8c3.3,1.9,5.8,4.4,7.5,7.8
		c1.8,3.3,2.6,7,2.6,10.9h-9c0-4.4-1.1-7.8-3.2-10.2c-2.1-2.4-5.2-3.6-9.1-3.6c-3.6,0-6.4,1-8.4,3c-2,2-3,4.9-3,8.5
		c0,3,1.1,5.5,3.2,7.5s5.5,3.8,10,5.4c7,2.3,12,5.2,15,8.6c3,3.4,4.5,7.8,4.5,13.3c0,5.8-1.9,10.4-5.6,13.8
		c-3.7,3.5-8.8,5.2-15.3,5.2c-4.1,0-8-0.9-11.5-2.7c-3.5-1.8-6.2-4.3-8.3-7.6s-3-7-3-11.3h9c0,4.4,1.2,7.8,3.7,10.3
		c2.5,2.4,5.8,3.7,10,3.7c3.9,0,6.9-1,8.9-3C1103.1,382.2,1104.1,379.5,1104.1,376z"/>
	<path d="M1134.2,394h-8.9v-71.1h8.9V394z"/>
	<path d="M1196.1,364.7c0,9.7-2.1,17.2-6.2,22.4c-4.1,5.2-10,7.9-17.6,7.9c-7.3,0-13.1-2.5-17.4-7.6c-4.2-5.1-6.5-12.3-6.6-21.6
		v-13.4c0-9.5,2.1-17,6.3-22.3c4.2-5.4,10.1-8.1,17.6-8.1c7.5,0,13.3,2.6,17.5,7.7c4.2,5.2,6.3,12.5,6.4,22.1V364.7z M1187.2,352.2
		c0-7.5-1.2-13.1-3.7-16.8c-2.5-3.7-6.2-5.5-11.3-5.5c-4.9,0-8.6,1.9-11.2,5.6c-2.5,3.7-3.8,9.2-3.8,16.4v12.7
		c0,7.3,1.3,12.8,3.8,16.6c2.5,3.8,6.3,5.7,11.3,5.7c5,0,8.7-1.8,11.1-5.3c2.4-3.5,3.7-8.9,3.8-16.2V352.2z"/>
	<path d="M1256.4,394h-9l-28.5-54.8V394h-9v-71.1h9l28.6,55v-55h8.9V394z"/>
</g>
<polygon class="st1" points="316,389.9 369.2,389.9 337.5,358.1 329.9,350.6 323.6,350.6 319.3,354.9 310.1,345.7 299.8,356 
	309.1,365.3 303.4,371 303.4,375.7 "/>
<path d="M202.5,378.5c-96.5,0-175-78.5-175-175s78.5-175,175-175s175,78.5,175,175S299,378.5,202.5,378.5L202.5,378.5z M202.5,43.3
	c-88.3,0-160.2,71.9-160.2,160.2s71.9,160.2,160.2,160.2s160.2-71.9,160.2-160.2S290.8,43.3,202.5,43.3z"/>
<path class="st2" d="M364.1,202.9c0,43.3-17,82.6-44.8,111.6c-12.2,12.8-1.7,16.4-35,40.9c-14.9,11-34.9,7.2-56.6,8.2
	c-7.6,0.4-18,0.8-25.1,0.8c-89.2,0-161.5-72.3-161.5-161.5S113.4,41.4,202.6,41.4S364.1,113.7,364.1,202.9z"/>
<path class="st3" d="M227.9,108.8c-10.6-4.9-16.7-16.4-14.8-27.9C223.7,85.8,229.8,97.3,227.9,108.8z"/>
<path d="M202.3,257c7.1-12.8,10.8-17.1,15.5-22.1h-31C191.5,239.9,195.2,244.3,202.3,257L202.3,257z"/>
<path d="M282.7,149.5c-1.7,1.6-1.8,4.4-0.2,6.1l0.6,0.7c25-21.3,40-37.8,32.5-50.8c-8.2-11.5-43-6-85.6,13.1
	c2.2-4.3,3.2-9.1,3.2-13.8c0-1.8-0.1-3.5-0.4-5.2c-1-6.1-3.9-12-8.6-16.7c-2.6-2.6-5.5-4.6-8.6-6.1l0.1-0.3h0l3.3-7.1
	c0.5-1.1,0-2.5-1.1-3c-1.1-0.5-2.5,0-3,1.1l-3.6,7.7c-5.9-1.8-12.2-1.8-18.1,0l-3.6-7.7c-0.5-1.1-1.9-1.6-3-1.1s-1.6,1.9-1.1,3
	l3.2,6.9l0.3,0.5c-3.1,1.5-6,3.5-8.6,6.1c-6.2,6.2-9.2,14.3-9,22.5c0.1,4.4,1.1,8.8,3,12.9c-11-4.9-72.2-30.2-84.5-13
	c-11.2,15.7,23.1,43.2,32.3,51l0.6-0.7c1.6-1.8,1.5-4.5-0.2-6.1c-4.5-4.2-11.6-11.2-16.5-18.1c-6.5-8.9-6.6-14.2-3.5-17.2
	c9.7-9.1,45.9,3,57.1,7.2c10.8,4.1,22.4,9.4,34.3,15.7c-57.2,33.2-96.1,72.8-86.9,88.7c5.8,10,29.7,8.7,60.5-2.2l-1.1-1.8
	c-1-1.7-3.1-2.5-5-1.9c-21.3,6.5-34.6,9.6-39.2,2.7c-6.4-11.1,26.1-49.4,76.7-78.6l3.8-2.2c1.3,0.7,2.6,1.4,3.8,2.2
	c50.6,29.2,83.1,67.5,76.7,78.6c-4.6,6.9-17.9,3.8-39.2-2.7c-1.9-0.6-4,0.2-5,1.9l-1.1,1.8c30.8,10.9,54.7,12.1,60.5,2.2
	c9.2-15.9-29.7-55.5-86.9-88.7c40.3-21.2,76.6-30.7,89.9-23.9C313.2,119.3,292.2,140.5,282.7,149.5L282.7,149.5z M176.4,108.8
	c-1.9-11.5,4.2-23,14.8-27.9C193.1,92.4,187,103.9,176.4,108.8z M228,108.8c-10.6-4.9-16.7-16.4-14.8-27.9
	C223.7,85.8,229.8,97.3,228,108.8z"/>
<path d="M166.7,206.1c1.7,5.7,4.4,11,8.1,15.7h54.9c3.7-4.6,6.4-10,8.1-15.7L166.7,206.1L166.7,206.1z"/>
<path d="M237.2,174.1c-10.5-7.7-22.3-15.4-34.9-22.8c-12.6,7.4-24.4,15.1-34.9,22.8c-2.1,6-3,12.5-2.8,18.9H240
	C240.2,186.6,239.3,180.1,237.2,174.1L237.2,174.1z"/>
<path class="st3" d="M176.4,108.8c-1.9-11.5,4.2-23,14.8-27.9C193.1,92.4,187,103.9,176.4,108.8z"/>
<path class="st3" d="M123.7,153.5c0,0,0.9-2.2-1.2-4.2c-9.5-9-30.5-30.2-18.5-36.2c13.3-6.8,49.7,2.9,90,24.2
	c-20.3,11.8-34.3,21.5-49,33.4C128.7,158.6,125.8,155.9,123.7,153.5z"/>
<path class="st3" d="M283,222.9c-4.6,6.9-17.9,3.8-39.2-2.7c-1-0.3-1.9-0.3-2.8,0.1c6.5-9.4,7.9-26.9,5.7-39.6c0-0.1,0-0.1,0-0.2
	c0-0.1,0-0.1,0-0.1c-0.7-5-1.8-8.9-3-10.7C271.9,192.6,287.7,214.9,283,222.9L283,222.9z"/>
<path class="st3" d="M260.6,170.8c-14.4-12.1-28.9-21.8-49.3-33.6c40.3-21.2,76.6-30.7,89.9-23.9c12,6.1-9,27.3-18.5,36.2
	c-1.7,1.6-1.3,2.3-1.2,4.2C279.4,156.2,276.9,158.9,260.6,170.8L260.6,170.8z"/>
<path class="st3" d="M161.6,169.5c-1.3,1.8-2.3,5.7-3,10.7c0,0,0,0.1,0,0.1c0,0.1,0,0.1,0,0.2c-2.3,12.7-0.9,30.1,5.7,39.6
	c-0.9-0.4-1.9-0.4-2.8-0.1c-21.3,6.5-34.6,9.6-39.2,2.7C117.5,214.6,133.3,192.3,161.6,169.5L161.6,169.5z"/>
<g>
	<path class="st1" d="M213.5,258.9c-26.2,26.2-26.2,68.8,0,95.1s68.8,26.2,95.1,0s26.2-68.8,0-95.1S239.7,232.7,213.5,258.9z
		 M292.9,338.3c-17.6,17.6-46.1,17.6-63.8,0c-17.6-17.6-17.6-46.1,0-63.8c17.6-17.6,46.1-17.6,63.8,0
		C310.5,292.2,310.5,320.7,292.9,338.3z"/>
	<path d="M261,245.1c16.4,0,31.8,6.4,43.4,18c11.6,11.6,18,27,18,43.4s-6.4,31.8-18,43.4c-11.6,11.6-27,18-43.4,18
		s-31.8-6.4-43.4-18c-11.6-11.6-18-27-18-43.4s6.4-31.8,18-43.4C229.2,251.4,244.6,245.1,261,245.1 M261,357.4
		c13.6,0,26.4-5.3,36-14.9c19.9-19.9,19.9-52.1,0-72c-9.6-9.6-22.4-14.9-36-14.9s-26.4,5.3-36,14.9c-9.6,9.6-14.9,22.4-14.9,36
		s5.3,26.4,14.9,36C234.6,352.1,247.4,357.4,261,357.4 M261,239.2c-17.2,0-34.4,6.6-47.5,19.7c-26.2,26.2-26.2,68.8,0,95.1
		c13.1,13.1,30.3,19.7,47.5,19.7s34.4-6.6,47.5-19.7c26.2-26.2,26.2-68.8,0-95.1C295.4,245.8,278.2,239.2,261,239.2L261,239.2z
		 M261,351.5c-11.5,0-23.1-4.4-31.9-13.2c-17.6-17.6-17.6-46.1,0-63.8c8.8-8.8,20.3-13.2,31.9-13.2s23.1,4.4,31.9,13.2
		c17.6,17.6,17.6,46.1,0,63.8C284.1,347.1,272.5,351.5,261,351.5L261,351.5z"/>
</g>
<path d="M313.3,389.9l-8-7.9c-4.5-4.5-4.5-11.7,0-16.2l14.3-14.3c4.5-4.5,11.7-4.5,16.2,0l38.9,38.3h-9l-34-34.2
	c-2.2-2.2-5.8-2.2-8,0L309.4,370c-2.2,2.2-2.2,5.8,0,8l12.1,12L313.3,389.9L313.3,389.9z"/>
<g>
	<g>
		<line class="st4" x1="308.7" y1="365.7" x2="301.9" y2="358.9"/>
		<rect x="302.4" y="357.5" transform="matrix(0.7071 -0.7071 0.7071 0.7071 -166.7618 322.0034)" width="5.8" height="9.6"/>
	</g>
	<g>
		<line class="st4" x1="319.4" y1="355" x2="312.6" y2="348.2"/>
		<rect x="313.1" y="346.8" transform="matrix(0.7071 -0.7071 0.7071 0.7071 -156.0949 326.4302)" width="5.8" height="9.6"/>
	</g>
</g>
<rect x="239.2" y="284.2" width="46.4" height="8.2"/>
<rect x="239.2" y="302.9" width="46.4" height="8.2"/>
<rect x="239.2" y="321.6" width="46.4" height="8.2"/>
</svg>
