<svg version="1.1" id="Ebene_1" xmlns="http://www.w3.org/2000/svg" x="0" y="0" viewBox="0 0 300 300" xml:space="preserve"><style>.st2{fill:#020203}</style><circle cx="150.1" cy="149.5" r="123.3" fill-rule="evenodd" clip-rule="evenodd" fill="#fcc415"/><path d="M150 297.5C68.7 297.5 2.5 231.3 2.5 150S68.7 2.5 150 2.5 297.5 68.7 297.5 150 231.3 297.5 150 297.5zM150 15C75.5 15 15 75.5 15 150s60.6 135 135 135 135-60.6 135-135S224.5 15 150 15z" fill="#fff"/><path class="st2" d="M120.5 193.3c1.4 4.8 3.7 9.3 6.8 13.2h46.4c3.1-3.9 5.4-8.4 6.8-13.2h-60zm30 43.1c6-10.8 9.1-14.5 13.1-18.7h-26.2c4 4.2 7.1 7.9 13.1 18.7zm29.5-70.1c-8.9-6.5-18.8-13-29.5-19.3-10.7 6.2-20.6 12.8-29.5 19.3-1.8 5.1-2.5 10.5-2.4 15.9h63.7c.2-5.4-.5-10.8-2.3-15.9z"/><path class="st2" d="M218.5 145.5c-1.5 1.4-1.5 3.7-.2 5.2l.5.6c21.1-18 33.8-31.9 27.4-42.9-7-9.7-36.3-5.1-72.3 11.1 1.8-3.7 2.7-7.7 2.7-11.7 0-1.5-.1-3-.4-4.4-.9-5.2-3.3-10.1-7.3-14.1-2.2-2.2-4.6-3.9-7.3-5.1l.1-.3 2.8-6c.4-1 0-2.1-.9-2.5-1-.4-2.1 0-2.5.9l-3 6.5c-5-1.5-10.3-1.5-15.3 0l-3-6.5c-.4-1-1.6-1.4-2.5-.9-1 .4-1.4 1.6-.9 2.5l2.7 5.8.2.5c-2.6 1.3-5.1 3-7.3 5.1-5.2 5.2-7.8 12.1-7.6 19 .1 3.7.9 7.4 2.5 10.9-9.3-4.2-60.9-25.5-71.3-11-9.4 13.3 19.5 36.5 27.3 43.1l.5-.6c1.4-1.5 1.3-3.8-.2-5.2-3.8-3.6-9.8-9.5-13.9-15.2-5.5-7.6-5.6-12-3-14.5 8.2-7.7 38.7 2.5 48.2 6.1 9.1 3.5 18.9 7.9 29 13.2-48.4 28-81.2 61.5-73.4 74.9 4.9 8.4 25.1 7.3 51.1-1.8l-.9-1.5c-.9-1.5-2.6-2.1-4.2-1.6-18 5.5-29.2 8.1-33.1 2.3-5.4-9.4 22.1-41.7 64.8-66.4l3.2-1.8c1.1.6 2.2 1.2 3.2 1.8 42.7 24.6 70.2 57 64.8 66.4-3.9 5.8-15.1 3.2-33.1-2.3-1.6-.5-3.3.2-4.2 1.6l-.9 1.5c26 9.2 46.2 10.3 51.1 1.8 7.7-13.4-25.1-46.9-73.4-74.9 34-17.9 64.7-25.9 75.9-20.2 9.8 5.2-7.9 23.1-15.9 30.6zm-89.8-34.3c-1.6-9.7 3.6-19.4 12.5-23.6 1.6 9.7-3.6 19.4-12.5 23.6zm43.5 0c-8.9-4.2-14.1-13.9-12.5-23.6 8.9 4.1 14.1 13.8 12.5 23.6z"/><path d="M128.7 111.2c-1.6-9.7 3.6-19.4 12.5-23.6 1.6 9.7-3.6 19.4-12.5 23.6zm90 96.3c-3.9 5.8-15.1 3.2-33.1-2.3-.8-.2-1.6-.2-2.4.1 5.5-8 6.7-22.7 4.8-33.4V171.6c-.6-4.2-1.5-7.5-2.6-9 23.9 19.4 37.3 38.2 33.3 44.9zM84.1 148.9s.8-1.9-1-3.6c-8-7.6-25.7-25.5-15.6-30.6 11.2-5.7 42 2.5 76 20.4-17.2 9.9-29 18.1-41.4 28.2-13.7-10.1-16.2-12.3-18-14.4zm115.7 14.6c-12.1-10.2-24.5-18.4-41.6-28.4 34-17.9 64.7-25.9 75.9-20.2 10.1 5.1-7.6 23-15.6 30.6-1.4 1.3-1.1 2-1 3.6-1.9 2.1-4 4.4-17.7 14.4zm-83.6-1.1c-1.1 1.5-2 4.8-2.6 9v.3c-1.9 10.7-.7 25.4 4.8 33.4-.7-.3-1.6-.3-2.4-.1-18 5.5-29.2 8.1-33.1 2.3-4-6.8 9.4-25.6 33.3-44.9zm56-51.2c-8.9-4.2-14.1-13.9-12.5-23.6 8.9 4.1 14.1 13.9 12.5 23.6z" fill-rule="evenodd" clip-rule="evenodd" fill="#fff"/></svg>