<?xml version="1.0" encoding="utf-8"?>
<!-- Generator: Adobe Illustrator 26.5.2, SVG Export Plug-In . SVG Version: 6.00 Build 0)  -->
<svg version="1.1" id="Logos" xmlns="http://www.w3.org/2000/svg" xmlns:xlink="http://www.w3.org/1999/xlink" x="0px" y="0px"
	 viewBox="0 0 1600 425" style="enable-background:new 0 0 1600 425;" xml:space="preserve">
<style type="text/css">
	.st0{enable-background:new    ;}
	.st1{fill:#FFC000;}
	.st2{fill-rule:evenodd;clip-rule:evenodd;fill:#FFFFFF;}
	.st3{fill-rule:evenodd;clip-rule:evenodd;}
	.st4{fill:#FFFFFF;}
</style>
<g>
	<path d="M529.5,44.1v146.2c0,3.3-2.8,6-6.3,6l-32.7-0.3c0-38.1,0-57.1,0-57.2c0-3.3-2.8-6-6.3-6H432c-3.5,0-6.3,2.7-6.3,6
		l-0.2,57.2c-31.2,0-32.6,0.3-32.6,0.3c-3.5,0-6.3-2.7-6.3-6V44.1c0-3.3,2.8-6,6.3-6l32.6,0.2c0,55.2,0.2,56.4,0.2,56.4
		c0,3.3,2.8,6,6.3,6h52.3c3.5,0,6.3-2.7,6.3-6l-0.1-56.5c36.5,0,32.8-0.1,32.8-0.1C526.7,38.1,529.5,40.8,529.5,44.1z"/>
	<path d="M569.7,56.4h23.5c3.1,0,5.5,2.4,5.5,5.3v129.5c0,2.9-2.5,5.4-5.5,5.4h-23.5c-3.1,0-5.5-2.4-5.5-5.4V61.7
		C564.1,58.8,566.6,56.4,569.7,56.4L569.7,56.4z"/>
	<path d="M762.9,63.5l-47,131.2c-0.8,2.2-2.9,3.6-5.2,3.6h-35.8c-2.4,0-4.5-1.4-5.2-3.6L622.4,63.5c-1.2-3.5,1.4-7.1,5.2-7.1h23.7
		c2.4,0,4.5,1.5,5.3,3.7l30.9,88.7c1.7,4.9,8.8,4.9,10.5,0l30.7-88.7c0.8-2.2,2.9-3.7,5.3-3.7h23.7C761.5,56.4,764.1,60,762.9,63.5
		L762.9,63.5z"/>
	<path d="M883.7,175.3v15.9c0,2.9-2.5,5.4-5.5,5.4h-86c-3.1,0-5.5-2.4-5.5-5.4V61.7c0-3,2.5-5.3,5.5-5.3h85c3.1,0,5.5,2.4,5.5,5.3
		v15.9c0,2.9-2.5,5.3-5.5,5.3h-50.5c-3.1,0-5.5,2.4-5.5,5.3c0,0-0.1-0.1-0.1,24.5c0,0-0.7,0.1,51.7,0.1l0,26.2
		c-54.1,0-51.9,0.2-51.9,0.2c0,25.7,0.2,25.3,0.2,25.3c0,2.9,2.5,5.4,5.5,5.4h51.5C881.2,170,883.7,172.4,883.7,175.3L883.7,175.3z"
		/>
	<path d="M1092.3,44.1v146.2c0,3.3-2.8,6-6.3,6h-26.5c-3.5,0-6.3-2.7-6.3-6l-0.4-92.9c0-5.9-35,43.9-35,43.9
		c-1.2,1.6-3.1,2.6-5.2,2.6h-12.9c-2.1,0-4-1-5.2-2.6c0,0-34.7-50.2-34.7-44.2l0.2,93.3c0,3.3-2.8,6-6.3,6h-26.5
		c-3.5,0-6.3-2.7-6.3-6V44.1c0-3.3,2.8-6,6.3-6h35.5c2.1,0,4,1,5.2,2.7l33.5,48.3c2.5,3.6,7.9,3.6,10.4,0l33.4-48.3
		c1.2-1.7,3.1-2.7,5.2-2.7h35.5C1089.5,38.1,1092.3,40.8,1092.3,44.1L1092.3,44.1z"/>
	<path d="M1279,154.4c-3.9,9.3-9.4,17.3-16.5,24c-2.4,2.2-2.5,5.9-0.3,8.3l21.6,22.8c-39.5,0-41.7,0.3-41.7,0.3
		c-1.8,0-3.6-0.8-4.8-2.1l-7.1-8c-1.5-1.7-4-2.4-6.3-1.9c-6.8,1.5-14.2,2.2-22.2,2.2c-18.2,0-33.7-3.6-46.4-10.8
		c-12.7-7.2-22.2-17-28.6-29.4c-6.4-12.5-9.5-26.6-9.5-42.3s3.2-29.4,9.5-41.8c6.3-12.4,15.9-22.2,28.6-29.6s28.2-11,46.4-11
		s33.2,3.7,45.9,11s22.3,17.2,28.7,29.7c6.4,12.5,9.6,26.4,9.6,41.7C1286,130.9,1283.7,143.3,1279,154.4L1279,154.4z M1168.6,154.3
		c7.7,9.3,18.7,13.9,33.2,13.9h0.4l-10.1-11.3c-3.5-3.9-0.6-10,4.7-10h26.8c1.8,0,3.5,0.8,4.7,2.1l0,0c2.8,3.1,7.1,5.8,9.2,2.2
		c1.8-3,4.2-9.4,5.4-12.9c2.2-6.5,3.2-13.6,3.2-21.4c0-9.6-1.7-18.2-5.2-25.7c-3.5-7.5-8.6-13.4-15.3-17.8
		c-6.7-4.3-14.7-6.5-23.9-6.5c-14.3,0-25.3,4.7-33,14c-7.7,9.3-11.6,21.5-11.6,36.5S1160.9,145,1168.6,154.3L1168.6,154.3z"/>
</g>
<g class="st0">
	<path d="M421,266.1h-25.1v25.2h29.3v7.7h-38.2v-71.1h37.7v7.7h-28.8v22.9H421V266.1z"/>
</g>
<g class="st0">
	<path d="M483,299h-9l-28.5-54.8V299h-9v-71.1h9l28.6,55v-55h8.9V299z"/>
</g>
<g class="st0">
	<path d="M538.6,235.6h-18.7V299H511v-63.4h-18.7v-7.7h46.3V235.6z"/>
	<path d="M583.2,266.1h-25.1v25.2h29.3v7.7h-38.2v-71.1h37.7v7.7h-28.8v22.9h25.1V266.1z"/>
	<path d="M620.3,270.2h-12.5V299h-9v-71.1h19.9c7,0,12.2,1.8,15.8,5.4c3.6,3.6,5.4,8.9,5.4,15.9c0,4.4-1,8.2-2.9,11.5
		c-1.9,3.3-4.7,5.7-8.2,7.4l13.8,30.2v0.6h-9.6L620.3,270.2z M607.8,262.6h10.8c3.7,0,6.7-1.2,9-3.6c2.2-2.4,3.3-5.6,3.3-9.7
		c0-9.1-4.1-13.7-12.4-13.7h-10.7V262.6z"/>
	<path d="M660.8,271.1V299h-8.9v-71.1h22.7c6.6,0,11.8,2,15.6,5.9c3.8,4,5.7,9.2,5.7,15.8c0,6.8-1.8,12.1-5.4,15.8
		c-3.6,3.7-8.7,5.6-15.2,5.7H660.8z M660.8,263.5h13.7c4,0,7-1.2,9.1-3.6c2.1-2.4,3.2-5.8,3.2-10.2c0-4.3-1.1-7.7-3.3-10.3
		c-2.2-2.6-5.2-3.9-9-3.9h-13.8V263.5z"/>
	<path d="M728.8,270.2h-12.5V299h-9v-71.1h19.9c7,0,12.2,1.8,15.8,5.4c3.6,3.6,5.4,8.9,5.4,15.9c0,4.4-1,8.2-2.9,11.5
		c-1.9,3.3-4.7,5.7-8.2,7.4l13.8,30.2v0.6h-9.6L728.8,270.2z M716.3,262.6h10.8c3.7,0,6.7-1.2,9-3.6c2.2-2.4,3.3-5.6,3.3-9.7
		c0-9.1-4.1-13.7-12.4-13.7h-10.7V262.6z"/>
	<path d="M769.7,299h-8.9v-71.1h8.9V299z"/>
	<path d="M816.4,281c0-3.5-1-6.3-2.9-8.2c-1.9-1.9-5.4-3.7-10.4-5.5c-5-1.8-8.8-3.7-11.5-5.6c-2.7-2-4.6-4.2-6-6.7
		c-1.3-2.5-2-5.4-2-8.7c0-5.6,1.9-10.3,5.6-13.9s8.7-5.5,14.8-5.5c4.2,0,7.9,0.9,11.1,2.8c3.3,1.9,5.8,4.4,7.5,7.8
		c1.8,3.3,2.6,7,2.6,10.9h-9c0-4.4-1.1-7.8-3.2-10.2c-2.1-2.4-5.2-3.6-9.1-3.6c-3.6,0-6.4,1-8.4,3c-2,2-3,4.9-3,8.5
		c0,3,1.1,5.5,3.2,7.5s5.5,3.8,10,5.4c7,2.3,12,5.2,15,8.6c3,3.4,4.5,7.8,4.5,13.3c0,5.8-1.9,10.4-5.6,13.8
		c-3.7,3.5-8.8,5.2-15.3,5.2c-4.1,0-8-0.9-11.5-2.7c-3.5-1.8-6.2-4.3-8.3-7.6s-3-7-3-11.3h9c0,4.4,1.2,7.8,3.7,10.3
		c2.5,2.4,5.8,3.7,10,3.7c3.9,0,6.9-1,8.9-3C815.4,287.2,816.4,284.5,816.4,281z"/>
	<path d="M871.2,266.1h-25.1v25.2h29.3v7.7h-38.2v-71.1h37.7v7.7h-28.8v22.9h25.1V266.1z"/>
	<path d="M943.8,266.1h-25.1v25.2h29.3v7.7h-38.2v-71.1h37.7v7.7h-28.8v22.9h25.1V266.1z"/>
	<path d="M979.3,255.1l13.4-27.2h10.5l-18.5,35.3l18.9,35.8H993l-13.7-27.7L965.6,299H955l19-35.8l-18.6-35.3h10.4L979.3,255.1z"/>
	<path d="M1056,235.6h-18.7V299h-8.9v-63.4h-18.7v-7.7h46.3V235.6z"/>
	<path d="M1100.6,266.1h-25.1v25.2h29.3v7.7h-38.2v-71.1h37.7v7.7h-28.8v22.9h25.1V266.1z"/>
	<path d="M1162.6,299h-9l-28.5-54.8V299h-9v-71.1h9l28.6,55v-55h8.9V299z"/>
	<path d="M1209.1,281c0-3.5-1-6.3-2.9-8.2c-1.9-1.9-5.4-3.7-10.4-5.5c-5-1.8-8.8-3.7-11.5-5.6c-2.7-2-4.6-4.2-6-6.7
		c-1.3-2.5-2-5.4-2-8.7c0-5.6,1.9-10.3,5.6-13.9s8.7-5.5,14.8-5.5c4.2,0,7.9,0.9,11.1,2.8c3.3,1.9,5.8,4.4,7.5,7.8
		c1.8,3.3,2.6,7,2.6,10.9h-9c0-4.4-1.1-7.8-3.2-10.2c-2.1-2.4-5.2-3.6-9.1-3.6c-3.6,0-6.4,1-8.4,3c-2,2-3,4.9-3,8.5
		c0,3,1.1,5.5,3.2,7.5s5.5,3.8,10,5.4c7,2.3,12,5.2,15,8.6c3,3.4,4.5,7.8,4.5,13.3c0,5.8-1.9,10.4-5.6,13.8
		c-3.7,3.5-8.8,5.2-15.3,5.2c-4.1,0-8-0.9-11.5-2.7c-3.5-1.8-6.2-4.3-8.3-7.6s-3-7-3-11.3h9c0,4.4,1.2,7.8,3.7,10.3
		c2.5,2.4,5.8,3.7,10,3.7c3.9,0,6.9-1,8.9-3C1208.1,287.2,1209.1,284.5,1209.1,281z"/>
	<path d="M1239.2,299h-8.9v-71.1h8.9V299z"/>
	<path d="M1301.1,269.7c0,9.7-2.1,17.2-6.2,22.4c-4.1,5.2-10,7.9-17.6,7.9c-7.3,0-13.1-2.5-17.4-7.6c-4.2-5.1-6.5-12.3-6.6-21.6
		v-13.4c0-9.5,2.1-17,6.3-22.3c4.2-5.4,10.1-8.1,17.6-8.1c7.5,0,13.3,2.6,17.5,7.7c4.2,5.2,6.3,12.5,6.4,22.1V269.7z M1292.2,257.2
		c0-7.5-1.2-13.1-3.7-16.8c-2.5-3.7-6.2-5.5-11.3-5.5c-4.9,0-8.6,1.9-11.2,5.6c-2.5,3.7-3.8,9.2-3.8,16.4v12.7
		c0,7.3,1.3,12.8,3.8,16.6c2.5,3.8,6.3,5.7,11.3,5.7c5,0,8.7-1.8,11.1-5.3c2.4-3.5,3.7-8.9,3.8-16.2V257.2z"/>
	<path d="M1361.4,299h-9l-28.5-54.8V299h-9v-71.1h9l28.6,55v-55h8.9V299z"/>
	<path d="M1432.7,267.6h-24V299h-8.9v-71.1h37v7.7h-28.1v24.4h24V267.6z"/>
	<path d="M1494,269.7c0,9.7-2.1,17.2-6.2,22.4c-4.1,5.2-10,7.9-17.6,7.9c-7.3,0-13.1-2.5-17.4-7.6c-4.2-5.1-6.5-12.3-6.6-21.6v-13.4
		c0-9.5,2.1-17,6.3-22.3c4.2-5.4,10.1-8.1,17.6-8.1c7.5,0,13.3,2.6,17.5,7.7c4.2,5.2,6.3,12.5,6.4,22.1V269.7z M1485.1,257.2
		c0-7.5-1.2-13.1-3.7-16.8c-2.5-3.7-6.2-5.5-11.3-5.5c-4.9,0-8.6,1.9-11.2,5.6c-2.5,3.7-3.8,9.2-3.8,16.4v12.7
		c0,7.3,1.3,12.8,3.8,16.6c2.5,3.8,6.3,5.7,11.3,5.7c5,0,8.7-1.8,11.1-5.3c2.4-3.5,3.7-8.9,3.8-16.2V257.2z"/>
	<path d="M1529.3,270.2h-12.5V299h-9v-71.1h19.9c7,0,12.2,1.8,15.8,5.4c3.6,3.6,5.4,8.9,5.4,15.9c0,4.4-1,8.2-2.9,11.5
		c-1.9,3.3-4.7,5.7-8.2,7.4l13.8,30.2v0.6h-9.6L1529.3,270.2z M1516.8,262.6h10.8c3.7,0,6.7-1.2,9-3.6c2.2-2.4,3.3-5.6,3.3-9.7
		c0-9.1-4.1-13.7-12.4-13.7h-10.7V262.6z"/>
</g>
<g class="st0">
	<path d="M431.4,385.1l-1.6,2c-4.5,5.2-11.1,7.9-19.7,7.9c-7.7,0-13.7-2.5-18.1-7.6c-4.4-5.1-6.6-12.3-6.7-21.6v-14
		c0-10,2-17.4,6-22.4c4-5,10-7.4,17.9-7.4c6.8,0,12.1,1.9,15.9,5.6c3.8,3.8,5.9,9.1,6.3,16.1h-8.9c-0.4-4.4-1.6-7.9-3.7-10.4
		s-5.3-3.7-9.5-3.7c-5.1,0-8.9,1.7-11.2,5c-2.4,3.3-3.6,8.7-3.7,16v14.5c0,7.2,1.4,12.7,4.1,16.5c2.7,3.8,6.7,5.7,11.8,5.7
		c4.8,0,8.5-1.2,11-3.5l1.3-1.2v-16.3h-13v-7.7h21.9V385.1z"/>
	<path d="M492.2,364.7c0,9.7-2.1,17.2-6.2,22.4c-4.1,5.2-10,7.9-17.6,7.9c-7.3,0-13.1-2.5-17.4-7.6c-4.2-5.1-6.5-12.3-6.6-21.6
		v-13.4c0-9.5,2.1-17,6.3-22.3c4.2-5.4,10.1-8.1,17.6-8.1c7.5,0,13.3,2.6,17.5,7.7c4.2,5.2,6.3,12.5,6.4,22.1V364.7z M483.3,352.2
		c0-7.5-1.2-13.1-3.7-16.8c-2.5-3.7-6.2-5.5-11.3-5.5c-4.9,0-8.6,1.9-11.2,5.6c-2.5,3.7-3.8,9.2-3.8,16.4v12.7
		c0,7.3,1.3,12.8,3.8,16.6c2.5,3.8,6.3,5.7,11.3,5.7c5,0,8.7-1.8,11.1-5.3c2.4-3.5,3.7-8.9,3.8-16.2V352.2z"/>
	<path d="M552.3,364.7c0,9.7-2.1,17.2-6.2,22.4c-4.1,5.2-10,7.9-17.6,7.9c-7.3,0-13.1-2.5-17.4-7.6c-4.2-5.1-6.5-12.3-6.6-21.6
		v-13.4c0-9.5,2.1-17,6.3-22.3c4.2-5.4,10.1-8.1,17.6-8.1c7.5,0,13.3,2.6,17.5,7.7c4.2,5.2,6.3,12.5,6.4,22.1V364.7z M543.4,352.2
		c0-7.5-1.2-13.1-3.7-16.8c-2.5-3.7-6.2-5.5-11.3-5.5c-4.9,0-8.6,1.9-11.2,5.6c-2.5,3.7-3.8,9.2-3.8,16.4v12.7
		c0,7.3,1.3,12.8,3.8,16.6c2.5,3.8,6.3,5.7,11.3,5.7c5,0,8.7-1.8,11.1-5.3c2.4-3.5,3.7-8.9,3.8-16.2V352.2z"/>
	<path d="M610.6,385.1l-1.6,2c-4.5,5.2-11.1,7.9-19.7,7.9c-7.7,0-13.7-2.5-18.1-7.6c-4.4-5.1-6.6-12.3-6.7-21.6v-14
		c0-10,2-17.4,6-22.4c4-5,10-7.4,17.9-7.4c6.8,0,12.1,1.9,15.9,5.6c3.8,3.8,5.9,9.1,6.3,16.1h-8.9c-0.4-4.4-1.6-7.9-3.7-10.4
		s-5.3-3.7-9.5-3.7c-5.1,0-8.9,1.7-11.2,5c-2.4,3.3-3.6,8.7-3.7,16v14.5c0,7.2,1.4,12.7,4.1,16.5c2.7,3.8,6.7,5.7,11.8,5.7
		c4.8,0,8.5-1.2,11-3.5l1.3-1.2v-16.3h-13v-7.7h21.9V385.1z"/>
	<path d="M634.2,386.3h27.9v7.7h-36.9v-71.1h9V386.3z"/>
	<path d="M706.8,361.1h-25.1v25.2h29.3v7.7h-38.2v-71.1h37.7v7.7h-28.8v22.9h25.1V361.1z"/>
	<path d="M789.8,371.4c-0.4,7.6-2.5,13.5-6.4,17.5c-3.9,4.1-9.4,6.1-16.5,6.1c-7.1,0-12.8-2.7-17-8.1s-6.3-12.8-6.3-22v-12.9
		c0-9.2,2.2-16.6,6.5-21.9c4.3-5.4,10.2-8.1,17.7-8.1c6.9,0,12.2,2.1,15.9,6.2s5.8,10,6.1,17.6h-9c-0.4-5.8-1.6-9.9-3.7-12.4
		s-5.2-3.7-9.4-3.7c-4.9,0-8.6,1.9-11.2,5.7c-2.6,3.8-3.9,9.4-3.9,16.7v13c0,7.2,1.2,12.7,3.6,16.6c2.4,3.8,6,5.8,10.6,5.8
		c4.7,0,8-1.2,10.1-3.5s3.3-6.5,3.8-12.5H789.8z"/>
</g>
<g class="st0">
	<path d="M810.9,386.3h27.9v7.7h-36.9v-71.1h9V386.3z"/>
</g>
<g class="st0">
	<path d="M892.5,364.7c0,9.7-2.1,17.2-6.2,22.4c-4.1,5.2-10,7.9-17.6,7.9c-7.3,0-13.1-2.5-17.4-7.6c-4.2-5.1-6.5-12.3-6.6-21.6
		v-13.4c0-9.5,2.1-17,6.3-22.3c4.2-5.4,10.1-8.1,17.6-8.1c7.5,0,13.3,2.6,17.5,7.7c4.2,5.2,6.3,12.5,6.4,22.1V364.7z M883.6,352.2
		c0-7.5-1.2-13.1-3.7-16.8c-2.5-3.7-6.2-5.5-11.3-5.5c-4.9,0-8.6,1.9-11.2,5.6c-2.5,3.7-3.8,9.2-3.8,16.4v12.7
		c0,7.3,1.3,12.8,3.8,16.6c2.5,3.8,6.3,5.7,11.3,5.7c5,0,8.7-1.8,11.1-5.3c2.4-3.5,3.7-8.9,3.8-16.2V352.2z"/>
	<path d="M948.7,322.9v50.5c-0.1,6.7-2,12-5.9,15.8c-3.8,3.8-9.2,5.7-16.1,5.7c-7,0-12.4-1.9-16.1-5.6c-3.7-3.7-5.6-9-5.7-15.9
		v-50.5h8.9V373c0,4.8,1,8.4,3.1,10.7c2,2.4,5.3,3.5,9.8,3.5c4.6,0,7.9-1.2,9.9-3.5c2-2.4,3.1-5.9,3.1-10.7v-50.2H948.7z"/>
	<path d="M962.5,394v-71.1h16.9c8.3,0,14.7,2.6,19.3,7.8c4.6,5.2,6.9,12.5,6.9,21.9v11.9c0,9.4-2.3,16.7-7,21.8
		c-4.7,5.1-11.4,7.7-20.3,7.7H962.5z M971.4,330.6v55.8h7.2c6.3,0,10.9-1.8,13.8-5.4c2.9-3.6,4.4-8.9,4.4-16v-12.6
		c0-7.5-1.4-13-4.3-16.5s-7.2-5.3-13.1-5.3H971.4z"/>
	<path d="M1051.4,366.1V394h-8.9v-71.1h22.7c6.6,0,11.8,2,15.6,5.9c3.8,4,5.7,9.2,5.7,15.8c0,6.8-1.8,12.1-5.4,15.8
		c-3.6,3.7-8.7,5.6-15.2,5.7H1051.4z M1051.4,358.5h13.7c4,0,7-1.2,9.1-3.6c2.1-2.4,3.2-5.8,3.2-10.2c0-4.3-1.1-7.7-3.3-10.3
		c-2.2-2.6-5.2-3.9-9-3.9h-13.8V358.5z"/>
	<path d="M1140.3,322.9v50.5c-0.1,6.7-2,12-5.9,15.8c-3.8,3.8-9.2,5.7-16.1,5.7c-7,0-12.4-1.9-16.1-5.6c-3.7-3.7-5.6-9-5.7-15.9
		v-50.5h8.9V373c0,4.8,1,8.4,3.1,10.7c2,2.4,5.3,3.5,9.8,3.5c4.6,0,7.9-1.2,9.9-3.5c2-2.4,3.1-5.9,3.1-10.7v-50.2H1140.3z"/>
	<path d="M1154,394v-71.1h20.3c6.5,0,11.4,1.6,14.6,4.7s4.9,7.9,4.9,14.2c0,3.3-0.8,6.2-2.5,8.8s-3.9,4.5-6.7,5.9c3.3,1,5.8,3,7.7,6
		s2.9,6.7,2.9,10.9c0,6.4-1.8,11.4-5.2,15c-3.5,3.6-8.5,5.5-15,5.5H1154z M1163,353.2h11.5c3.1,0,5.6-1,7.5-3.1s2.9-4.9,2.9-8.3
		c0-3.9-0.9-6.8-2.6-8.5c-1.7-1.8-4.4-2.7-7.9-2.7H1163V353.2z M1163,360.7v25.6h12.2c3.4,0,6.1-1.1,8.1-3.3c2-2.2,3-5.4,3-9.4
		c0-8.6-3.6-12.8-10.8-12.8H1163z"/>
	<path d="M1209.8,400.1h-7.3l25-77.2h7.3L1209.8,400.1z"/>
	<path d="M1276.7,376c0-3.5-1-6.3-2.9-8.2c-1.9-1.9-5.4-3.7-10.4-5.5c-5-1.8-8.8-3.7-11.5-5.6c-2.7-2-4.6-4.2-6-6.7
		c-1.3-2.5-2-5.4-2-8.7c0-5.6,1.9-10.3,5.6-13.9s8.7-5.5,14.8-5.5c4.2,0,7.9,0.9,11.1,2.8c3.3,1.9,5.8,4.4,7.5,7.8
		c1.8,3.3,2.6,7,2.6,10.9h-9c0-4.4-1.1-7.8-3.2-10.2c-2.1-2.4-5.2-3.6-9.1-3.6c-3.6,0-6.4,1-8.4,3c-2,2-3,4.9-3,8.5
		c0,3,1.1,5.5,3.2,7.5s5.5,3.8,10,5.4c7,2.3,12,5.2,15,8.6c3,3.4,4.5,7.8,4.5,13.3c0,5.8-1.9,10.4-5.6,13.8
		c-3.7,3.5-8.8,5.2-15.3,5.2c-4.1,0-8-0.9-11.5-2.7c-3.5-1.8-6.2-4.3-8.3-7.6s-3-7-3-11.3h9c0,4.4,1.2,7.8,3.7,10.3
		c2.5,2.4,5.8,3.7,10,3.7c3.9,0,6.9-1,8.9-3C1275.7,382.2,1276.7,379.5,1276.7,376z"/>
	<path d="M1339.8,322.9v50.5c-0.1,6.7-2,12-5.9,15.8c-3.8,3.8-9.2,5.7-16.1,5.7c-7,0-12.4-1.9-16.1-5.6c-3.7-3.7-5.6-9-5.7-15.9
		v-50.5h8.9V373c0,4.8,1,8.4,3.1,10.7c2,2.4,5.3,3.5,9.8,3.5c4.6,0,7.9-1.2,9.9-3.5c2-2.4,3.1-5.9,3.1-10.7v-50.2H1339.8z"/>
	<path d="M1353.6,394v-71.1h20.3c6.5,0,11.4,1.6,14.6,4.7s4.9,7.9,4.9,14.2c0,3.3-0.8,6.2-2.5,8.8s-3.9,4.5-6.7,5.9
		c3.3,1,5.8,3,7.7,6s2.9,6.7,2.9,10.9c0,6.4-1.8,11.4-5.2,15c-3.5,3.6-8.5,5.5-15,5.5H1353.6z M1362.5,353.2h11.5
		c3.1,0,5.6-1,7.5-3.1s2.9-4.9,2.9-8.3c0-3.9-0.9-6.8-2.6-8.5c-1.7-1.8-4.4-2.7-7.9-2.7h-11.3V353.2z M1362.5,360.7v25.6h12.2
		c3.4,0,6.1-1.1,8.1-3.3c2-2.2,3-5.4,3-9.4c0-8.6-3.6-12.8-10.8-12.8H1362.5z"/>
</g>
<g>
	<circle class="st1" cx="186.6" cy="200.1" r="148.9"/>
	<path d="M186.5,362c-88.9,0-161.3-72.4-161.3-161.3S97.5,39.3,186.5,39.3s161.3,72.4,161.3,161.3S275.4,362,186.5,362L186.5,362z
		 M186.5,53C105,53,38.8,119.2,38.8,200.6S105,348.3,186.5,348.3s147.7-66.2,147.7-147.7S267.9,53,186.5,53z"/>
	<g>
		<path class="st2" d="M164,154.4c-1.6-10.3,3.8-20.5,13.2-24.9C178.9,139.8,173.4,150,164,154.4z"/>
		<path class="st2" d="M117,194.2c0,0,0.8-2-1.1-3.8c-8.5-8-27.2-26.9-16.5-32.3c11.9-6,44.3,2.6,80.2,21.5
			c-18.1,10.5-30.6,19.1-43.6,29.7C121.5,198.8,118.9,196.4,117,194.2L117,194.2z"/>
		<path class="st2" d="M259,256.1c-4.1,6.1-15.9,3.4-35-2.4c-0.9-0.2-1.7-0.2-2.5,0.1c5.8-8.4,7.1-23.9,5.1-35.3c0,0,0-0.1,0-0.2
			c0,0,0-0.1,0-0.1c-0.6-4.4-1.6-7.9-2.7-9.5C249.1,229.1,263.2,248.9,259,256.1L259,256.1z"/>
		<path class="st2" d="M239,209.6c-12.8-10.8-25.8-19.4-43.9-29.9c35.9-18.9,68.3-27.4,80.1-21.3c10.7,5.4-8,24.3-16.5,32.3
			c-1.5,1.4-1.1,2.1-1.1,3.8C255.8,196.6,253.5,199,239,209.6L239,209.6z"/>
		<path class="st2" d="M150.8,208.5c-1.1,1.6-2.1,5.1-2.7,9.5c0,0,0,0,0,0.1c0,0.1,0,0.1,0,0.2c-2,11.3-0.8,26.8,5.1,35.3
			c-0.8-0.3-1.6-0.3-2.5-0.1c-19,5.8-30.9,8.5-35,2.4C111.5,248.7,125.6,228.8,150.8,208.5L150.8,208.5z"/>
		<path d="M187.1,286.5c6.3-11.4,9.6-15.3,13.8-19.7h-27.6C177.5,271.2,180.7,275.1,187.1,286.5L187.1,286.5z"/>
		<path d="M155.4,241.1c1.5,5.1,3.9,9.8,7.2,14h49c3.3-4.1,5.7-8.9,7.2-14H155.4L155.4,241.1z"/>
		<path d="M218.2,212.6c-9.4-6.9-19.9-13.7-31.1-20.3c-11.3,6.6-21.8,13.5-31.1,20.3c-1.9,5.4-2.7,11.1-2.5,16.8h67.2
			C220.8,223.7,220,217.9,218.2,212.6L218.2,212.6z"/>
		<path class="st3" d="M258.8,190.6c-1.5,1.5-1.6,3.9-0.2,5.4l0.5,0.6c22.2-19,35.6-33.7,29-45.3c-7.4-10.2-38.3-5.4-76.3,11.7
			c1.9-3.9,2.9-8.1,2.9-12.3c0-1.6-0.1-3.1-0.4-4.7c-0.9-5.4-3.5-10.7-7.7-14.9c-2.3-2.3-4.9-4.1-7.7-5.4l0.1-0.3h0l2.9-6.3
			c0.5-1,0-2.2-1-2.7c-1-0.5-2.2,0-2.7,1l-3.2,6.9c-5.3-1.6-10.9-1.6-16.2,0l-3.2-6.9c-0.5-1-1.7-1.5-2.7-1c-1,0.5-1.5,1.7-1,2.7
			l2.8,6.1l0.2,0.5c-2.8,1.3-5.4,3.1-7.7,5.4c-5.5,5.5-8.2,12.8-8,20.1c0.1,3.9,0.9,7.8,2.7,11.5c-9.8-4.4-64.3-27-75.3-11.6
			c-9.9,14,20.6,38.5,28.8,45.5l0.5-0.6c1.4-1.6,1.3-4-0.2-5.4c-4-3.8-10.3-10-14.7-16.1c-5.8-8-5.9-12.7-3.1-15.3
			c8.7-8.1,40.9,2.6,50.9,6.4c9.6,3.7,19.9,8.4,30.6,14c-51,29.6-85.7,64.9-77.5,79.1c5.1,8.9,26.5,7.7,53.9-1.9l-1-1.6
			c-0.9-1.5-2.7-2.2-4.4-1.7c-19,5.8-30.9,8.5-35,2.4c-5.7-9.9,23.3-44,68.4-70l3.4-1.9c1.1,0.6,2.3,1.3,3.4,1.9
			c45.1,26,74.1,60.1,68.4,70c-4.1,6.1-15.9,3.4-35-2.4c-1.7-0.5-3.5,0.2-4.4,1.7l-1,1.6c27.4,9.7,48.8,10.8,53.9,1.9
			c8.2-14.2-26.5-49.5-77.5-79.1c35.9-18.9,68.3-27.4,80.1-21.3C285.9,163.8,267.2,182.7,258.8,190.6L258.8,190.6z M164,154.4
			c-1.6-10.3,3.8-20.5,13.2-24.9C178.9,139.7,173.4,150,164,154.4z M209.9,154.4c-9.4-4.4-14.9-14.6-13.2-24.9
			C206.1,133.9,211.6,144.1,209.9,154.4z"/>
		<path class="st2" d="M209.9,154.4c-9.4-4.4-14.9-14.6-13.2-24.9C206.1,133.9,211.6,144.1,209.9,154.4z"/>
	</g>
</g>
<g>
	<circle cx="52" cy="126.7" r="20"/>
	<path class="st4" d="M52,149.2c-3.8,0-7.7-1-11.2-3c-5.2-3-8.9-7.9-10.5-13.7c-1.6-5.8-0.8-11.9,2.2-17.1
		c6.2-10.7,20-14.4,30.7-8.2l0,0c5.2,3,8.9,7.9,10.5,13.7c1.6,5.8,0.8,11.9-2.2,17.1C67.4,145.2,59.8,149.2,52,149.2L52,149.2z
		 M52.1,109.2c-6,0-12,3.1-15.2,8.8c-2.3,4.1-3,8.8-1.8,13.3c1.2,4.5,4.1,8.3,8.1,10.6c8.4,4.8,19.1,1.9,23.9-6.4
		c2.3-4.1,3-8.8,1.8-13.3c-1.2-4.5-4.1-8.3-8.2-10.6l0,0C58.1,110,55.1,109.2,52.1,109.2L52.1,109.2z"/>
</g>
<g>
	<circle cx="323" cy="126.7" r="20"/>
	<path class="st4" d="M323,149.2c-3.8,0-7.7-1-11.2-3c-5.2-3-8.9-7.9-10.5-13.7c-1.6-5.8-0.8-11.9,2.2-17.1
		c6.2-10.7,20-14.4,30.7-8.2l0,0c5.2,3,8.9,7.9,10.5,13.7c1.6,5.8,0.8,11.9-2.2,17.1C338.4,145.2,330.8,149.2,323,149.2L323,149.2z
		 M323.1,109.2c-6,0-12,3.1-15.2,8.8c-2.3,4.1-3,8.8-1.8,13.3c1.2,4.5,4.1,8.3,8.1,10.6c8.4,4.8,19.1,1.9,23.9-6.4
		c2.3-4.1,3-8.8,1.8-13.3c-1.2-4.5-4.1-8.3-8.1-10.6l0,0C329.1,110,326.1,109.2,323.1,109.2L323.1,109.2z"/>
</g>
<g>
	<circle cx="186.5" cy="355.7" r="20"/>
	<path class="st4" d="M186.4,378.2c-3.8,0-7.7-1-11.2-3c-5.2-3-8.9-7.9-10.5-13.7c-1.6-5.8-0.8-11.9,2.2-17.1
		c6.2-10.7,20-14.4,30.7-8.2c5.2,3,8.9,7.9,10.5,13.7c1.6,5.8,0.8,11.9-2.2,17.1C201.8,374.2,194.2,378.2,186.4,378.2L186.4,378.2z
		 M186.5,338.2c-6.1,0-11.9,3.1-15.2,8.8c-2.3,4-3,8.8-1.8,13.3c1.2,4.5,4.1,8.3,8.1,10.6c8.4,4.8,19.1,2,23.9-6.4
		c2.3-4,3-8.8,1.8-13.3c-1.2-4.5-4.1-8.3-8.1-10.6l0,0C192.5,339,189.5,338.2,186.5,338.2L186.5,338.2z"/>
</g>
<path d="M215,48.1c0-15.2-12.3-27.5-27.5-27.5S160,33,160,48.1c0,10.9,6.3,20.3,15.5,24.7v33.5c3.9-0.5,8-0.7,12-0.7
	s7.8,0.2,11.6,0.7V73.1C208.5,68.7,215,59.2,215,48.1L215,48.1z"/>
<path d="M332.3,255.1c-9.2-5.3-20.2-4.7-28.6,0.7l-17.4-10.5c-0.8,3.9-2.3,9.3-4.4,12.8c-2,3.4-3.9,5.9-6.4,8.7l15.7,9.3
	c-1.1,10.4,3.9,21,13.6,26.6c13.1,7.6,30,3.1,37.5-10.1S345.4,262.7,332.3,255.1L332.3,255.1z"/>
<path d="M95.6,266.8c-2.5-2.9-4.5-5.3-6.4-8.7c-2-3.5-3.6-8.9-4.4-12.8l-18.1,10.9c-8.4-5.4-19.4-6.1-28.7-0.7
	C24.9,263.1,20.4,279.9,28,293s24.4,17.6,37.5,10.1c9.7-5.6,14.6-16.1,13.6-26.5L95.6,266.8L95.6,266.8z"/>
</svg>
