<svg id="Logos" xmlns="http://www.w3.org/2000/svg" viewBox="0 0 800 800"><path d="M140,634.64V758.56a5.22,5.22,0,0,1-5.31,5.12L107,763.44c0-48.41,0-48.45,0-48.45a5.21,5.21,0,0,0-5.31-5.11H57.36A5.21,5.21,0,0,0,52.05,715l-.16,48.45c-26.4,0-27.58.24-27.58.24A5.22,5.22,0,0,1,19,758.56V634.64a5.22,5.22,0,0,1,5.31-5.11l27.58.16c0,46.8.16,47.81.16,47.81a5.21,5.21,0,0,0,5.31,5.12h44.27a5.21,5.21,0,0,0,5.31-5.12l-.07-47.88c30.93,0,27.81-.09,27.81-.09A5.22,5.22,0,0,1,140,634.64Z"/><path d="M174.06,645.06h19.87a4.62,4.62,0,0,1,4.7,4.53V759.33a4.62,4.62,0,0,1-4.7,4.53H174.06a4.62,4.62,0,0,1-4.7-4.53V649.59A4.61,4.61,0,0,1,174.06,645.06Z"/><path d="M337.76,651.07,297.92,762.22a4.7,4.7,0,0,1-4.44,3H263.1a4.69,4.69,0,0,1-4.44-3l-40-111.15a4.55,4.55,0,0,1,4.44-6h20.09a4.7,4.7,0,0,1,4.46,3.08l26.15,75.14a4.76,4.76,0,0,0,8.92,0l26-75.13a4.69,4.69,0,0,1,4.46-3.09h20.1A4.55,4.55,0,0,1,337.76,651.07Z"/><path d="M440.07,745.82v13.51a4.62,4.62,0,0,1-4.7,4.53H362.5a4.62,4.62,0,0,1-4.7-4.53V649.59a4.61,4.61,0,0,1,4.7-4.53h72.06a4.62,4.62,0,0,1,4.7,4.53v13.5a4.62,4.62,0,0,1-4.7,4.53H391.77a4.63,4.63,0,0,0-4.71,4.54s-.05-.07-.05,20.73c0,0-.6.08,43.83.08l0,22.19c-45.87,0-44,.17-44,.17,0,21.8.15,21.43.15,21.43a4.62,4.62,0,0,0,4.71,4.53h43.6A4.62,4.62,0,0,1,440.07,745.82Z"/><path d="M616.87,634.64V758.56a5.22,5.22,0,0,1-5.31,5.12H589.13a5.22,5.22,0,0,1-5.31-5.12l-.31-78.73c0-5-29.68,37.22-29.68,37.22a5.39,5.39,0,0,1-4.37,2.2H538.53a5.36,5.36,0,0,1-4.39-2.23s-29.42-42.51-29.42-37.47l.16,79a5.22,5.22,0,0,1-5.31,5.12H477.14a5.21,5.21,0,0,1-5.31-5.12V634.64a5.21,5.21,0,0,1,5.31-5.11h30a5.35,5.35,0,0,1,4.41,2.27l28.34,40.91a5.42,5.42,0,0,0,8.83,0L577.1,631.8a5.37,5.37,0,0,1,4.42-2.27h30A5.22,5.22,0,0,1,616.87,634.64Z"/><path d="M775,728.1a59,59,0,0,1-14,20.32,5,5,0,0,0-.24,7l18.32,19.34c-33.47,0-35.32.24-35.32.24a5.36,5.36,0,0,1-4-1.79l-6-6.77a5.5,5.5,0,0,0-5.32-1.64,88.2,88.2,0,0,1-18.85,1.89q-23.13,0-39.29-9.12a59,59,0,0,1-24.23-25Q638,716.78,638,696.78q0-19.65,8.08-35.4a60.18,60.18,0,0,1,24.23-25q16.17-9.3,39.29-9.29,22.77,0,38.93,9.29a60.75,60.75,0,0,1,24.32,25.13A75.84,75.84,0,0,1,781,696.78,79.8,79.8,0,0,1,775,728.1ZM681.49,728q9.74,11.76,28.09,11.76H710l-8.58-9.59a5.1,5.1,0,0,1,4-8.46h22.71a5.43,5.43,0,0,1,4,1.76h0c2.38,2.65,6,4.91,7.76,1.86a75.07,75.07,0,0,0,4.61-11,57.06,57.06,0,0,0,2.75-18.14,51.4,51.4,0,0,0-4.41-21.77,34.66,34.66,0,0,0-12.94-15q-8.54-5.49-20.29-5.49-18.18,0-28,11.86t-9.83,31Q671.76,716.25,681.49,728Z"/><circle cx="400.16" cy="306.06" r="260.32" style="fill:#ffc000"/><path d="M400,589C244.5,589,118,462.47,118,307S244.5,25,400,25,682,151.49,682,307,555.46,589,400,589Zm0-540.13C257.64,48.83,141.83,164.64,141.83,307S257.64,565.13,400,565.13,658.13,449.32,658.13,307,542.32,48.83,400,48.83Z"/><path d="M343.59,378.87a75.86,75.86,0,0,0,13,25.32h88.73a75.49,75.49,0,0,0,13-25.32Zm187.28-91.4a7,7,0,0,0-.34,9.87l1,1.07c40.31-34.42,64.56-61,52.47-82-13.31-18.54-69.37-9.75-138.13,21.19a50.21,50.21,0,0,0,5.2-22.33,47.9,47.9,0,0,0-.73-8.45,49.28,49.28,0,0,0-13.88-26.93,48.74,48.74,0,0,0-13.92-9.79l.23-.53h0L428,158.05a3.66,3.66,0,0,0-6.65-3.06l-5.74,12.43a50.39,50.39,0,0,0-29.29,0L380.61,155a3.66,3.66,0,0,0-6.66,3.06l5.13,11.09.42.88A50.32,50.32,0,0,0,355.87,237c-17.79-8-116.5-48.84-136.38-21-18,25.36,37.32,69.76,52.12,82.42l1-1.07a7.07,7.07,0,0,0-.31-9.87c-7.26-6.85-18.66-18.13-26.61-29.14-10.44-14.46-10.71-23-5.66-27.73,15.71-14.76,74,4.78,92.13,11.67a516.84,516.84,0,0,1,55.41,25.31C295.1,321.16,232.3,385.18,247.14,410.84c9.29,16.11,48,14,97.63-3.51L343,404.38a7,7,0,0,0-8.07-3.1c-34.46,10.44-55.91,15.42-63.33,4.32-10.37-17.93,42.18-79.73,123.83-126.85l6.12-3.52c2.06,1.15,4.13,2.33,6.16,3.52,81.65,47.12,134.19,108.92,123.83,126.85-7.42,11.1-28.87,6.12-63.33-4.32a7,7,0,0,0-8.07,3.1l-1.8,2.95C508,424.84,546.66,427,556,410.84c14.8-25.66-48-89.68-140.4-143.26C480.62,233.28,539.24,218,560.74,229,580.05,238.79,546.17,273,530.87,287.47Zm-171.64-65.7a42.47,42.47,0,0,1,23.94-45.09A42.56,42.56,0,0,1,359.23,221.77Zm83.18,0a42.52,42.52,0,0,1-23.94-45.09A42.51,42.51,0,0,1,442.41,221.77Zm14.95,105.4A655.38,655.38,0,0,0,401,290.34a649.86,649.86,0,0,0-56.33,36.83,84.63,84.63,0,0,0-4.51,30.48H461.84A85.72,85.72,0,0,0,457.36,327.17ZM376,425.42c7.65,8,13.58,15.06,25,35.68,11.44-20.62,17.4-27.69,25-35.68Z" style="fill-rule:evenodd"/><path d="M359.23,221.77a42.47,42.47,0,0,1,23.94-45.09A42.56,42.56,0,0,1,359.23,221.77Z" style="fill:#fff;fill-rule:evenodd"/><path d="M274.07,293.9a6.34,6.34,0,0,0-2-6.81c-15.32-14.46-49.18-48.68-29.87-58.51,21.49-10.94,80.25,4.7,145.3,39-32.81,19-55.35,34.7-79.06,53.86C282.18,302.19,277.49,297.89,274.07,293.9Z" style="fill:#fff;fill-rule:evenodd"/><path d="M531.35,406c-7.42,11.09-28.88,6.11-63.33-4.33a6.84,6.84,0,0,0-4.56.16c10.52-15.26,12.82-43.37,9.14-63.87a1,1,0,0,1,0-.31.26.26,0,0,1,0-.15c-1.11-8-2.87-14.38-4.9-17.21C513.41,357.09,538.92,393,531.35,406Z" style="fill:#fff;fill-rule:evenodd"/><path d="M495.12,321.85c-23.17-19.47-46.74-35.22-79.56-54.23,65.06-34.31,123.68-49.57,145.18-38.63,19.31,9.83-14.57,44-29.87,58.51-2.72,2.57-2.06,3.74-2,6.81C525.48,298.3,521.41,302.6,495.12,321.85Z" style="fill:#fff;fill-rule:evenodd"/><path d="M335.37,319.78c-2,2.83-3.79,9.18-4.9,17.21a.3.3,0,0,1,0,.16.71.71,0,0,1,0,.3c-3.67,20.5-1.37,48.61,9.15,63.87a6.84,6.84,0,0,0-4.56-.15c-34.45,10.44-55.91,15.41-63.33,4.32C264.08,392.56,289.59,356.61,335.37,319.78Z" style="fill:#fff;fill-rule:evenodd"/><path d="M442.41,221.77a42.52,42.52,0,0,1-23.94-45.09A42.51,42.51,0,0,1,442.41,221.77Z" style="fill:#fff;fill-rule:evenodd"/></svg>