<svg id="Logos" xmlns="http://www.w3.org/2000/svg" viewBox="0 0 1290 340"><path d="M508.41,39.47V185.73a6.15,6.15,0,0,1-6.26,6l-32.72-.28c0-57.13,0-57.18,0-57.18a6.16,6.16,0,0,0-6.27-6H410.88a6.15,6.15,0,0,0-6.26,6l-.19,57.18c-31.16,0-32.55.28-32.55.28a6.16,6.16,0,0,1-6.27-6V39.47a6.16,6.16,0,0,1,6.27-6l32.55.19c0,55.24.19,56.44.19,56.44a6.15,6.15,0,0,0,6.26,6h52.26a6.16,6.16,0,0,0,6.27-6l-.09-56.52c36.51,0,32.83-.11,32.83-.11A6.15,6.15,0,0,1,508.41,39.47Z"/><path d="M548.62,51.76h23.45a5.46,5.46,0,0,1,5.55,5.35V186.63a5.46,5.46,0,0,1-5.55,5.35H548.62a5.46,5.46,0,0,1-5.55-5.35V57.11A5.46,5.46,0,0,1,548.62,51.76Z"/><path d="M741.83,58.86,694.81,190a5.53,5.53,0,0,1-5.24,3.6H653.72a5.52,5.52,0,0,1-5.24-3.59L601.28,58.86a5.38,5.38,0,0,1,5.24-7.1h23.72a5.54,5.54,0,0,1,5.26,3.65l30.87,88.68a5.61,5.61,0,0,0,10.52,0L707.6,55.42a5.54,5.54,0,0,1,5.27-3.66h23.72A5.38,5.38,0,0,1,741.83,58.86Z"/><path d="M862.58,170.69v15.94A5.46,5.46,0,0,1,857,192H771a5.45,5.45,0,0,1-5.55-5.35V57.11A5.45,5.45,0,0,1,771,51.76h85a5.45,5.45,0,0,1,5.55,5.35V73.05a5.45,5.45,0,0,1-5.55,5.35h-50.5A5.45,5.45,0,0,0,800,83.75s-.07-.08-.07,24.47c0,0-.7.1,51.74.1l0,26.19c-54.14,0-51.9.19-51.9.19,0,25.74.19,25.29.19,25.29a5.45,5.45,0,0,0,5.55,5.35H857A5.46,5.46,0,0,1,862.58,170.69Z"/><path d="M1071.24,39.47V185.73a6.15,6.15,0,0,1-6.26,6h-26.47a6.16,6.16,0,0,1-6.27-6l-.37-92.92c0-5.93-35,43.92-35,43.92a6.34,6.34,0,0,1-5.15,2.6h-12.9a6.3,6.3,0,0,1-5.18-2.64s-34.73-50.17-34.73-44.22l.19,93.26a6.16,6.16,0,0,1-6.27,6H906.33a6.16,6.16,0,0,1-6.27-6V39.47a6.16,6.16,0,0,1,6.27-6h35.45A6.32,6.32,0,0,1,947,36.12L980.44,84.4a6.4,6.4,0,0,0,10.42,0l33.45-48.28a6.34,6.34,0,0,1,5.21-2.69H1065A6.15,6.15,0,0,1,1071.24,39.47Z"/><path d="M1257.92,149.78a69.55,69.55,0,0,1-16.53,24,5.84,5.84,0,0,0-.28,8.26l21.63,22.83c-39.51,0-41.69.28-41.69.28a6.37,6.37,0,0,1-4.77-2.11l-7.09-8a6.5,6.5,0,0,0-6.27-1.93,104.65,104.65,0,0,1-22.25,2.23q-27.3,0-46.37-10.76a69.65,69.65,0,0,1-28.6-29.45q-9.54-18.71-9.53-42.3,0-23.19,9.53-41.78a71.1,71.1,0,0,1,28.6-29.56q19.07-11,46.37-11,26.86,0,45.94,11a71.68,71.68,0,0,1,28.71,29.66q9.65,18.7,9.64,41.68A94.35,94.35,0,0,1,1257.92,149.78Zm-110.4-.11q11.48,13.91,33.15,13.9h.44L1171,152.24a6,6,0,0,1,4.74-10h26.8a6.38,6.38,0,0,1,4.73,2.08h0c2.81,3.12,7,5.78,9.16,2.19a87,87,0,0,0,5.43-12.94,67,67,0,0,0,3.26-21.41,60.65,60.65,0,0,0-5.21-25.69,41,41,0,0,0-15.27-17.76q-10.08-6.47-23.95-6.47-21.45,0-33,14T1136,112.81Q1136,135.79,1147.52,149.67Z"/><path d="M374.5,260.71v30H364.38V214h28.31q12.58,0,19.73,6.43t7.15,17q0,11.17-7,17.21t-20,6Zm0-8.28h18.19q8.12,0,12.43-3.83t4.33-11.06q0-6.85-4.33-11t-11.85-4.27H374.5Z"/><path d="M461.16,259.71h-18v31H433V214h25.4q13,0,19.95,5.9t7,17.19a20.69,20.69,0,0,1-3.87,12.49,23.06,23.06,0,0,1-10.78,8l18,32.58v.63H477.82Zm-18-8.28h15.55q7.53,0,12-3.91a13.2,13.2,0,0,0,4.45-10.45q0-7.12-4.24-10.93t-12.26-3.85H443.14Z"/><path d="M559.05,254.86a47.43,47.43,0,0,1-3.8,19.68,28.76,28.76,0,0,1-10.75,12.84,29.67,29.67,0,0,1-43.19-12.73,45.6,45.6,0,0,1-4-19.11V250a46.78,46.78,0,0,1,3.85-19.55,28.42,28.42,0,0,1,27-17.5,29.74,29.74,0,0,1,16.26,4.45,28.69,28.69,0,0,1,10.83,12.91,47.7,47.7,0,0,1,3.8,19.69Zm-10.07-5q0-13.65-5.48-21t-15.34-7.3a17.92,17.92,0,0,0-15.1,7.3q-5.5,7.31-5.66,20.27v5.64q0,13.23,5.56,20.79a18,18,0,0,0,15.31,7.56q9.79,0,15.18-7.14T549,255.6Z"/><path d="M617.09,256.86h-32.2v33.89H574.77V214h47.54v8.28H584.89v26.3h32.2Z"/><path d="M678.35,255.28H645.09v27.19h38.63v8.28H635V214h48.22v8.28h-38.1V247h33.26Z"/><path d="M719.47,256.54q-13-3.74-19-9.19a17.6,17.6,0,0,1-5.93-13.47,18.56,18.56,0,0,1,7.25-15q7.24-5.94,18.84-5.93a31.55,31.55,0,0,1,14.1,3,23.18,23.18,0,0,1,9.59,8.44,21.52,21.52,0,0,1,3.4,11.75H737.6q0-7-4.43-11t-12.49-4q-7.48,0-11.67,3.3a11,11,0,0,0-4.19,9.16,9.91,9.91,0,0,0,4,7.95q4,3.24,13.55,5.94a62.62,62.62,0,0,1,15,5.93,22.75,22.75,0,0,1,8,7.57,19.29,19.29,0,0,1,2.61,10.17,17.94,17.94,0,0,1-7.27,14.94q-7.27,5.61-19.45,5.61a36.1,36.1,0,0,1-14.76-3,24.8,24.8,0,0,1-10.57-8.3,20.29,20.29,0,0,1-3.71-12h10.17a13.21,13.21,0,0,0,5.14,11q5.13,4,13.73,4,8,0,12.28-3.27a10.64,10.64,0,0,0,4.27-8.91,10.41,10.41,0,0,0-4-8.72Q729.86,259.55,719.47,256.54Z"/><path d="M784,256.54q-13-3.74-18.94-9.19a17.56,17.56,0,0,1-5.93-13.47,18.55,18.55,0,0,1,7.24-15q7.26-5.94,18.85-5.93a31.48,31.48,0,0,1,14.09,3,23.21,23.21,0,0,1,9.6,8.44,21.6,21.6,0,0,1,3.4,11.75H802.17q0-7-4.42-11t-12.49-4q-7.49,0-11.68,3.3a11,11,0,0,0-4.19,9.16,9.92,9.92,0,0,0,4,7.95q4,3.24,13.55,5.94a62.7,62.7,0,0,1,15,5.93,22.7,22.7,0,0,1,8,7.57,19.38,19.38,0,0,1,2.6,10.17,17.92,17.92,0,0,1-7.27,14.94q-7.28,5.61-19.45,5.61a36,36,0,0,1-14.75-3,24.8,24.8,0,0,1-10.57-8.3,20.23,20.23,0,0,1-3.72-12h10.18a13.23,13.23,0,0,0,5.13,11q5.15,4,13.73,4,8,0,12.28-3.27a10.61,10.61,0,0,0,4.27-8.91,10.43,10.43,0,0,0-4-8.72Q794.42,259.55,784,256.54Z"/><path d="M836.87,290.75H826.75V214h10.12Z"/><path d="M914.93,254.86a47.43,47.43,0,0,1-3.79,19.68,28.76,28.76,0,0,1-10.75,12.84,29.67,29.67,0,0,1-43.19-12.73,45.45,45.45,0,0,1-4-19.11V250a46.94,46.94,0,0,1,3.84-19.55,28.45,28.45,0,0,1,27-17.5,29.74,29.74,0,0,1,16.26,4.45,28.69,28.69,0,0,1,10.83,12.91A47.7,47.7,0,0,1,914.93,250Zm-10.06-5q0-13.65-5.48-21t-15.34-7.3q-9.6,0-15.1,7.3t-5.67,20.27v5.64q0,13.23,5.56,20.79a18,18,0,0,0,15.32,7.56q9.8,0,15.17-7.14t5.54-20.47Z"/><path d="M989.63,290.75H979.46l-38.63-59.14v59.14H930.65V214h10.18l38.73,59.4V214h10.07Z"/><path d="M1051.46,270.67h-32.14l-7.23,20.08h-10.43L1031,214h8.86l29.35,76.74h-10.38Zm-29.09-8.28h26.09l-13.07-35.89Z"/><path d="M1090.21,282.47h36.37v8.28H1080V214h10.17Z"/><circle cx="158.81" cy="166.24" r="135.44" style="fill:#ffc000"/><path d="M158.72,313.43C77.82,313.43,12,247.62,12,166.72S77.82,20,158.72,20,305.43,85.82,305.43,166.72,239.61,313.43,158.72,313.43Zm0-281C84.65,32.4,24.4,92.66,24.4,166.72S84.65,301,158.72,301,293,240.78,293,166.72,232.78,32.4,158.72,32.4Z"/><path d="M137.51,128.09A22.1,22.1,0,0,1,150,104.63,22.14,22.14,0,0,1,137.51,128.09Z" style="fill:#fff;fill-rule:evenodd"/><path d="M180.79,128.11a22.1,22.1,0,0,1-12.45-23.46A22.13,22.13,0,0,1,180.79,128.11Z" style="fill:#fff;fill-rule:evenodd"/><path d="M93.2,165.62a3.27,3.27,0,0,0-1-3.54c-8-7.53-25.59-25.33-15.54-30.44,11.18-5.69,41.75,2.44,75.6,20.29a301.52,301.52,0,0,0-41.14,28C97.42,169.94,95,167.7,93.2,165.62Z" style="fill:#fff;fill-rule:evenodd"/><path d="M227.06,223.93c-3.86,5.77-15,3.18-32.95-2.25a3.53,3.53,0,0,0-2.36.08c5.47-7.94,6.66-22.56,4.75-33.23a.39.39,0,0,1,0-.16.15.15,0,0,1,0-.08c-.58-4.18-1.49-7.48-2.55-8.95C217.73,198.5,231,217.21,227.06,223.93Z" style="fill:#fff;fill-rule:evenodd"/><path d="M208.22,180.16C196.16,170,183.9,161.84,166.82,152c33.85-17.85,64.35-25.79,75.54-20.1,10,5.12-7.58,22.9-15.54,30.45-1.42,1.33-1.07,1.94-1,3.54C224,167.91,221.89,170.15,208.22,180.16Z" style="fill:#fff;fill-rule:evenodd"/><path d="M125.1,179.09c-1.06,1.47-2,4.78-2.55,8.95a.15.15,0,0,1,0,.08.39.39,0,0,1,0,.16c-1.91,10.67-.72,25.29,4.76,33.23a3.56,3.56,0,0,0-2.37-.08c-17.93,5.44-29.09,8-32.95,2.25C88,217,101.28,198.25,125.1,179.09Z" style="fill:#fff;fill-rule:evenodd"/><path d="M188.57,182.93a340.27,340.27,0,0,0-29.33-19.16,339.83,339.83,0,0,0-29.31,19.16,44.21,44.21,0,0,0-2.35,15.86H190.9A44.63,44.63,0,0,0,188.57,182.93Z" style="fill-rule:evenodd"/><path d="M129.37,209.83A39.72,39.72,0,0,0,136.16,223h46.16a39,39,0,0,0,6.79-13.18Z" style="fill-rule:evenodd"/><path d="M226.82,162.28a3.64,3.64,0,0,0-.18,5.13l.49.56c21-17.91,33.59-31.76,27.31-42.68-6.93-9.65-36.1-5.08-71.88,11a26.14,26.14,0,0,0,2.71-11.62,25,25,0,0,0-.38-4.4,25.63,25.63,0,0,0-7.22-14,25.22,25.22,0,0,0-7.25-5.09l.12-.28h0l2.75-6a1.9,1.9,0,1,0-3.46-1.59l-3,6.47a26,26,0,0,0-15.24,0l-3-6.47a1.91,1.91,0,1,0-3.47,1.59l2.67,5.77.22.46a26,26,0,0,0-14.83,24,26.05,26.05,0,0,0,2.53,10.8c-9.25-4.14-60.61-25.41-71-10.9C55.43,138.28,84.23,161.38,91.93,168l.49-.56a3.66,3.66,0,0,0-.16-5.13,116.51,116.51,0,0,1-13.85-15.17c-5.43-7.52-5.57-12-2.94-14.42,8.18-7.68,38.52,2.49,47.93,6.07a268.92,268.92,0,0,1,28.84,13.17c-48.1,27.88-80.77,61.19-73.05,74.54,4.84,8.38,25,7.28,50.8-1.83l-.93-1.53a3.62,3.62,0,0,0-4.2-1.62c-17.93,5.44-29.09,8-32.95,2.25-5.4-9.33,21.94-41.48,64.43-66l3.18-1.83c1.07.6,2.15,1.21,3.2,1.83,42.49,24.52,69.83,56.67,64.43,66-3.86,5.77-15,3.19-33-2.25a3.62,3.62,0,0,0-4.2,1.62l-.93,1.53c25.85,9.11,46,10.21,50.8,1.83,7.7-13.35-25-46.66-73.05-74.54,33.85-17.85,64.35-25.79,75.54-20.1C252.41,137,234.78,154.74,226.82,162.28Zm-89.31-34.19A22.1,22.1,0,0,1,150,104.63,22.14,22.14,0,0,1,137.51,128.09Zm43.28,0a22.1,22.1,0,0,1-12.45-23.46A22.13,22.13,0,0,1,180.79,128.11Z" style="fill-rule:evenodd"/><path d="M159.24,252.62c5.95-10.73,9.06-14.41,13-18.57h-26C150.21,238.21,153.29,241.89,159.24,252.62Z" style="fill-rule:evenodd"/></svg>