<?xml version="1.0" encoding="UTF-8"?><svg id="Logos" xmlns="http://www.w3.org/2000/svg" viewBox="0 0 1220 340"><g><path d="M477.56,66.52V200.72c0,3.06-2.57,5.54-5.75,5.54l-30.01-.26q0-52.42-.03-52.47c0-3.06-2.57-5.54-5.75-5.54h-47.95c-3.17,0-5.75,2.48-5.75,5.54l-.17,52.47c-28.59,0-29.87,.26-29.87,.26-3.17,0-5.75-2.48-5.75-5.54V66.52c0-3.06,2.57-5.54,5.75-5.54l29.87,.17c0,50.69,.17,51.79,.17,51.79,0,3.06,2.57,5.54,5.75,5.54h47.95c3.17,0,5.75-2.48,5.75-5.54l-.08-51.86c33.5,0,30.12-.1,30.12-.1,3.17,0,5.75,2.48,5.75,5.54Z"/><path d="M514.45,77.8h21.51c2.81,0,5.09,2.2,5.09,4.91v118.85c0,2.71-2.28,4.91-5.09,4.91h-21.51c-2.81,0-5.09-2.2-5.09-4.91V82.71c0-2.71,2.28-4.91,5.09-4.91Z"/><path d="M691.74,84.31l-43.14,120.37c-.71,1.98-2.64,3.3-4.81,3.3h-32.9c-2.17,0-4.1-1.32-4.81-3.3l-43.31-120.37c-1.15-3.19,1.31-6.52,4.81-6.52h21.76c2.19,0,4.13,1.35,4.83,3.35l28.33,81.37c1.55,4.46,8.11,4.46,9.65,0l28.18-81.36c.69-2,2.64-3.35,4.83-3.35h21.76c3.5,0,5.95,3.32,4.81,6.51Z"/><path d="M802.54,186.93v14.63c0,2.71-2.28,4.91-5.09,4.91h-78.92c-2.81,0-5.09-2.2-5.09-4.91V82.71c0-2.71,2.28-4.91,5.09-4.91h78.04c2.81,0,5.09,2.2,5.09,4.91v14.63c0,2.71-2.28,4.91-5.09,4.91h-46.34c-2.81,0-5.09,2.2-5.09,4.91,0,0-.06-.07-.06,22.46,0,0-.64,.08,47.47,.08l.04,24.03c-49.68,0-47.62,.18-47.62,.18,0,23.61,.17,23.21,.17,23.21,0,2.71,2.28,4.91,5.09,4.91h47.22c2.81,0,5.09,2.2,5.09,4.91Z"/><path d="M994,66.52V200.72c0,3.06-2.57,5.54-5.75,5.54h-24.29c-3.17,0-5.75-2.48-5.75-5.54l-.34-85.26c0-5.44-32.15,40.3-32.15,40.3-1.07,1.5-2.84,2.39-4.73,2.39h-11.84c-1.9,0-3.68-.91-4.75-2.42,0,0-31.86-46.03-31.86-40.58l.17,85.57c0,3.06-2.57,5.54-5.75,5.54h-24.29c-3.17,0-5.75-2.48-5.75-5.54V66.52c0-3.06,2.57-5.54,5.75-5.54h32.53c1.92,0,3.71,.92,4.78,2.46l30.69,44.3c2.28,3.28,7.28,3.28,9.56,0l30.69-44.3c1.07-1.54,2.86-2.46,4.78-2.46h32.53c3.17,0,5.75,2.48,5.75,5.54Z"/><path d="M1165.3,167.74c-3.6,8.54-8.65,15.87-15.17,22.01-2.18,2.05-2.28,5.38-.26,7.58l19.84,20.95c-36.25,0-38.25,.26-38.25,.26-1.68,0-3.28-.71-4.37-1.94l-6.51-7.34c-1.42-1.6-3.63-2.23-5.76-1.77-6.24,1.36-13.04,2.04-20.41,2.04-16.7,0-30.88-3.29-42.55-9.87-11.66-6.58-20.41-15.59-26.25-27.02-5.83-11.43-8.75-24.37-8.75-38.81s2.91-26.96,8.75-38.33c5.83-11.37,14.58-20.41,26.25-27.12,11.66-6.71,25.85-10.06,42.55-10.06s30.49,3.35,42.15,10.06c11.66,6.71,20.44,15.78,26.34,27.22,5.9,11.44,8.85,24.18,8.85,38.24,0,12.4-2.16,23.7-6.46,33.93Zm-101.3-.1c7.02,8.5,17.16,12.75,30.42,12.75h.4l-9.3-10.39c-3.21-3.59-.57-9.16,4.35-9.16h24.59c1.66,0,3.25,.7,4.34,1.91h0c2.58,2.86,6.46,5.31,8.41,2.01,1.62-2.75,3.89-8.6,4.98-11.87,1.99-5.94,2.99-12.49,2.99-19.65,0-8.82-1.59-16.67-4.77-23.57-3.18-6.9-7.85-12.33-14.02-16.29-6.17-3.96-13.49-5.94-21.97-5.94-13.12,0-23.23,4.28-30.32,12.84-7.09,8.56-10.64,19.74-10.64,33.54s3.51,25.33,10.54,33.83Z"/></g><g><path d="M365.94,265.06c-8.48-2.44-14.66-5.44-18.52-8.99-3.86-3.55-5.8-7.94-5.8-13.16,0-5.91,2.36-10.79,7.08-14.66,4.72-3.86,10.86-5.8,18.42-5.8,5.15,0,9.75,1,13.78,2.99,4.04,1.99,7.16,4.74,9.38,8.24,2.22,3.5,3.32,7.33,3.32,11.49h-9.94c0-4.55-1.44-8.13-4.33-10.73-2.89-2.6-6.96-3.9-12.21-3.9-4.88,0-8.68,1.08-11.41,3.23-2.73,2.15-4.1,5.14-4.1,8.96,0,3.06,1.3,5.65,3.89,7.77,2.59,2.12,7.01,4.05,13.24,5.81,6.23,1.75,11.11,3.69,14.63,5.8,3.52,2.11,6.13,4.58,7.83,7.39,1.7,2.82,2.55,6.13,2.55,9.94,0,6.08-2.37,10.95-7.11,14.61s-11.08,5.49-19.01,5.49c-5.15,0-9.96-.99-14.43-2.96-4.47-1.97-7.91-4.68-10.33-8.11-2.42-3.43-3.63-7.33-3.63-11.7h9.94c0,4.53,1.67,8.12,5.02,10.74,3.35,2.63,7.82,3.94,13.42,3.94,5.22,0,9.22-1.06,12.01-3.19,2.78-2.13,4.17-5.03,4.17-8.71s-1.29-6.52-3.86-8.53c-2.58-2.01-7.25-3.99-14.01-5.95Z"/><path d="M422.62,274.85l1.44,9.89,2.11-8.91,14.84-52.35h8.35l14.48,52.35,2.06,9.07,1.6-10.1,11.64-51.32h9.94l-18.19,75.02h-9.02l-15.46-54.67-1.19-5.72-1.19,5.72-16.02,54.67h-9.02l-18.14-75.02h9.89l11.85,51.37Z"/><path d="M539.27,278.87h-31.43l-7.06,19.63h-10.2l28.65-75.02h8.66l28.7,75.02h-10.15l-7.16-19.63Zm-28.44-8.09h25.5l-12.78-35.09-12.73,35.09Z"/><path d="M594.2,268.15h-17.62v30.35h-9.94v-75.02h24.83c8.45,0,14.95,1.92,19.5,5.77,4.55,3.85,6.83,9.45,6.83,16.8,0,4.67-1.26,8.74-3.79,12.21-2.52,3.47-6.04,6.06-10.54,7.78l17.62,31.84v.62h-10.61l-16.28-30.35Zm-17.62-8.09h15.2c4.91,0,8.82-1.27,11.72-3.82,2.9-2.55,4.35-5.95,4.35-10.22,0-4.65-1.38-8.21-4.15-10.68-2.77-2.48-6.76-3.73-11.98-3.77h-15.15v28.49Z"/><path d="M644.43,223.48l24.53,61.21,24.53-61.21h12.83v75.02h-9.89v-29.21l.93-31.53-24.63,60.75h-7.57l-24.58-60.59,.98,31.38v29.21h-9.89v-75.02h12.78Z"/></g><g><path d="M283.28,105.67c-2.88,2.36-6.37,4.41-10.34,6.1,13.59,20.52,21.53,45.11,21.53,71.52,0,71.6-58.25,129.86-129.86,129.86S34.76,254.89,34.76,183.28,89.58,56.92,158.23,53.58c-1.19-3.69-2.08-7.67-2.61-11.85C81.59,46.38,22.77,108.09,22.77,183.28s63.63,141.85,141.85,141.85,141.85-63.63,141.85-141.85c0-28.63-8.53-55.3-23.18-77.61Z"/><path d="M283.88,182.84c0,65.82-53.36,119.18-119.18,119.18s-119.18-53.36-119.18-119.18S98.88,63.66,164.7,63.66c14.87,0,33.11-.28,46.24,4.7,13.87,5.26,22.5,16.02,33.33,25.75,24.32,21.82,39.61,53.49,39.61,88.73Z" style="fill:#ffc000; fill-rule:evenodd;"/><g><ellipse cx="190.1" cy="286.74" rx="6.48" ry="6.47" transform="translate(-70.16 61.75) rotate(-15.61)"/><ellipse cx="204.83" cy="272.92" rx="7.26" ry="7.24" transform="translate(-65.9 65.21) rotate(-15.61)"/><ellipse cx="220.02" cy="249.75" rx="8.8" ry="8.78" transform="translate(-59.1 68.44) rotate(-15.61)"/><ellipse cx="225.65" cy="222.46" rx="9.57" ry="9.55" transform="translate(-51.55 68.95) rotate(-15.61)"/><ellipse cx="206.46" cy="197.17" rx="11.12" ry="11.09" transform="translate(-45.45 62.85) rotate(-15.61)"/></g><g><ellipse cx="136.51" cy="110.73" rx="7.01" ry="7" transform="translate(-24.77 40.83) rotate(-15.61)"/><ellipse cx="136.3" cy="137.93" rx="8.81" ry="8.79" transform="translate(-32.09 41.78) rotate(-15.61)"/><ellipse cx="147.88" cy="160.4" rx="9.71" ry="9.69" transform="translate(-37.72 45.72) rotate(-15.61)"/><ellipse cx="174.39" cy="177.22" rx="11.51" ry="11.48" transform="translate(-41.26 53.48) rotate(-15.61)"/></g><g><ellipse cx="162.51" cy="289.04" rx="6" ry="5.99" transform="translate(-71.8 54.41) rotate(-15.61)"/><ellipse cx="178.06" cy="274.49" rx="6.72" ry="6.7" transform="translate(-67.31 58.06) rotate(-15.61)"/><ellipse cx="189.77" cy="254.46" rx="8.15" ry="8.13" transform="translate(-61.49 60.47) rotate(-15.61)"/><ellipse cx="193.44" cy="228.22" rx="8.86" ry="8.84" transform="translate(-54.29 60.49) rotate(-15.61)"/><ellipse cx="173.04" cy="207.37" rx="10.29" ry="10.27" transform="translate(-49.43 54.23) rotate(-15.61)"/></g><g><ellipse cx="116.46" cy="129.91" rx="6.27" ry="6.26" transform="translate(-30.67 36.14) rotate(-15.61)"/><ellipse cx="109.96" cy="152.88" rx="7.88" ry="7.86" transform="translate(-37.09 35.24) rotate(-15.61)"/><ellipse cx="124.8" cy="173.66" rx="8.68" ry="8.66" transform="translate(-42.14 40) rotate(-15.61)"/><ellipse cx="147.54" cy="190.72" rx="10.29" ry="10.27" transform="translate(-45.89 46.75) rotate(-15.61)"/></g><g><ellipse cx="141.07" cy="284.49" rx="4.91" ry="4.9" transform="translate(-71.37 48.47) rotate(-15.61)"/><ellipse cx="157.01" cy="272.95" rx="5.5" ry="5.49" transform="translate(-67.67 52.34) rotate(-15.61)"/><ellipse cx="164.47" cy="256.77" rx="6.67" ry="6.65" transform="translate(-63.04 53.74) rotate(-15.61)"/><ellipse cx="167.47" cy="235.29" rx="7.25" ry="7.24" transform="translate(-57.15 53.76) rotate(-15.61)"/><ellipse cx="150.19" cy="218.35" rx="8.42" ry="8.4" transform="translate(-53.23 48.48) rotate(-15.61)"/></g><g><ellipse cx="101.92" cy="174.64" rx="6.45" ry="6.43" transform="translate(-43.25 33.88) rotate(-15.61)"/><ellipse cx="111.24" cy="192.52" rx="7.11" ry="7.09" transform="translate(-47.71 37.05) rotate(-15.61)"/><ellipse cx="129.44" cy="206.7" rx="8.42" ry="8.4" transform="translate(-50.86 42.47) rotate(-15.61)"/></g><ellipse cx="156.35" cy="135.14" rx="5.06" ry="5.05" transform="translate(-30.61 47.07) rotate(-15.61)"/><g><path d="M235.55,64.18c-2.99-6.19-1.48-13.69,3.64-18.24,2.99,6.17,1.48,13.69-3.64,18.24Z" style="fill:#fff; fill-rule:evenodd;"/><path d="M171.44,85.71c-1.34,3.22-2.1,6.67-2.16,10.15l25.03,20.46c3.41-.74,6.63-2.18,9.52-4.14l-32.39-26.48Z"/><path d="M168.67,122.15c7.98-3.18,11.3-3.8,15.29-4.3l-14.11-11.54c.31,4.02,.36,7.38-1.17,15.84Z"/><path d="M215.47,97.36c-1.92-7.42-4.4-15.32-7.41-23.39-8.51-1.34-16.74-2.2-24.39-2.6-3.19,1.96-6.02,4.57-8.3,7.56l34.34,28.07c2.48-2.83,4.47-6.12,5.77-9.63Z"/><path d="M212.09,44.99c6.65,1.69,13.71-1.27,17.15-7.2-6.65-1.71-13.71,1.27-17.15,7.2Z" style="fill:none;"/><path d="M245.36,103.11c-1.4,.1-2.45,1.31-2.37,2.7l.02,.52c19.31-.41,32.29-2.33,33.73-11.04,.52-8.3-17.33-18.75-43.86-25.88,2.6-1.17,4.85-2.94,6.62-5.1,.65-.8,1.24-1.65,1.74-2.55,1.81-3.16,2.69-6.91,2.29-10.8-.2-2.13-.79-4.14-1.67-5.97l.19-.1h.01s4.14-2.01,4.14-2.01c.66-.32,.94-1.12,.61-1.78-.32-.66-1.12-.94-1.79-.61l-4.49,2.18c-2.02-3.02-4.91-5.38-8.27-6.76l1.25-4.83c.19-.71-.24-1.44-.96-1.63-.71-.19-1.44,.24-1.63,.96l-1.11,4.31-.08,.35c-1.98-.48-4.06-.65-6.19-.44-5.12,.51-9.53,3.12-12.49,6.89-1.61,2.03-2.79,4.4-3.42,6.98-3.18-6.35-21.6-40.65-33.65-37.37-10.93,3-5.56,28.29-4.3,35.28l.52-.08c1.39-.2,2.36-1.47,2.19-2.85-.47-3.61-1.08-9.42-.79-14.36,.39-6.49,2.28-8.96,4.8-9.13,7.84-.54,19.79,18.43,23.3,24.54,3.36,5.88,6.69,12.6,9.8,19.93-38.44-6.2-70.92-2.62-72.66,8.04-1.09,6.69,10.3,15.01,28.36,21.53l.17-1.25c.17-1.18-.46-2.28-1.56-2.74-12.13-5-19.33-8.55-18.87-13.39,1.21-7.45,30.29-12.77,64.2-7.23l2.54,.42c.32,.8,.63,1.61,.93,2.41,12.17,32.13,12.74,61.68,5.68,64.36-4.65,1.42-9.56-4.93-16.87-15.83-.66-.99-1.87-1.39-2.99-.99l-1.19,.42c9.98,16.4,20.4,25.91,26.74,23.51,10.09-3.83,7.15-36.37-6.57-72.8,26.27,5.32,46.33,14.54,49.87,22.59,3.18,7.23-14.26,9.06-21.92,9.62Zm-33.28-58.13c3.45-5.93,10.51-8.91,17.15-7.2-3.45,5.93-10.51,8.89-17.15,7.2Zm23.47,19.19c-2.99-6.19-1.48-13.69,3.64-18.24,2.99,6.17,1.48,13.69-3.64,18.24Z"/><path d="M212.09,44.99c3.45-5.93,10.51-8.91,17.15-7.2-3.45,5.93-10.51,8.89-17.15,7.2Z" style="fill:#fff; fill-rule:evenodd;"/><path d="M171.42,45.7s1.24-.67,1.01-2.37c-.99-7.62-2.65-25.08,5.07-23.4,8.59,1.87,21.56,19.83,32,44.52-13.64-2.21-23.62-2.98-34.73-3.04-2.98-11.49-3.31-13.79-3.36-15.7Z" style="fill:#fff; fill-rule:evenodd;"/><path d="M218.3,136.57c-4.65,1.42-9.56-4.93-16.87-15.83-.34-.49-.79-.84-1.32-1.01,6.49-1.88,13.62-9.28,17.31-15.91,0-.03,.03-.06,.06-.1,0-.03,.02-.04,.02-.05,1.54-2.52,2.51-4.72,2.59-5.98,4.42,20.95,3.33,36.98-1.79,38.88Z" style="fill:#fff; fill-rule:evenodd;"/><path d="M227.35,104.57c-2.05-10.84-5.07-20.72-9.94-33.65,26.27,5.32,46.33,14.54,49.87,22.59,3.18,7.23-14.26,9.06-21.92,9.62-1.36,.1-1.44,.58-2.13,1.47-1.89,.34-4.02,.61-15.88-.02Z" style="fill:#fff; fill-rule:evenodd;"/><path d="M182.75,67.14c-1.22,.33-3.19,1.72-5.35,3.73,0,.01-.02,.02-.05,.03-.03,.03-.05,.06-.08,.08-5.76,4.94-11.6,13.4-12.15,20.13-.27-.49-.7-.86-1.25-1.09-12.13-5-19.33-8.55-18.87-13.39,.84-5.39,16.33-9.65,37.75-9.49Z" style="fill:#fff; fill-rule:evenodd;"/></g></g></svg>