<svg id="Icon" xmlns="http://www.w3.org/2000/svg" viewBox="0 0 200 200"><defs><style>.cls-1{fill:none;stroke:#fff;stroke-miterlimit:10;stroke-width:4.25px;}</style></defs><title>hivemq-set</title><circle class="cls-1" cx="23.07" cy="56.26" r="12.07"/><circle class="cls-1" cx="23.07" cy="143.74" r="12.07"/><circle class="cls-1" cx="99.5" cy="99.5" r="12.07"/><circle class="cls-1" cx="99.5" cy="22.07" r="12.07"/><circle class="cls-1" cx="99.5" cy="177.93" r="12.07"/><line class="cls-1" x1="89.44" y1="93.46" x2="35.14" y2="61.28"/><line class="cls-1" x1="87.43" y1="24.08" x2="35.14" y2="49.22"/><line class="cls-1" x1="89.44" y1="106.54" x2="34.13" y2="136.7"/><line class="cls-1" x1="24.08" y1="67.32" x2="24.08" y2="132.68"/><line class="cls-1" x1="99.5" y1="34.13" x2="99.5" y2="87.43"/><line class="cls-1" x1="99.5" y1="111.56" x2="99.5" y2="164.86"/><line class="cls-1" x1="91.45" y1="32.12" x2="30.11" y2="133.69"/><line class="cls-1" x1="87.43" y1="174.92" x2="35.14" y2="149.78"/><circle class="cls-1" cx="176.93" cy="56.26" r="12.07"/><circle class="cls-1" cx="176.93" cy="143.74" r="12.07"/><line class="cls-1" x1="110.56" y1="93.46" x2="164.86" y2="61.28"/><line class="cls-1" x1="112.57" y1="24.08" x2="164.86" y2="49.22"/><line class="cls-1" x1="110.56" y1="106.54" x2="165.87" y2="136.7"/><line class="cls-1" x1="175.92" y1="67.32" x2="175.92" y2="132.68"/><line class="cls-1" x1="108.55" y1="32.12" x2="169.89" y2="133.69"/><line class="cls-1" x1="112.57" y1="174.92" x2="164.86" y2="149.78"/></svg>