<?xml version="1.0" encoding="utf-8"?>
<!-- Generator: Adobe Illustrator 26.5.2, SVG Export Plug-In . SVG Version: 6.00 Build 0)  -->
<svg version="1.1" id="Ebene_1" xmlns="http://www.w3.org/2000/svg" xmlns:xlink="http://www.w3.org/1999/xlink" x="0px" y="0px"
	 viewBox="0 0 1500 425" style="enable-background:new 0 0 1500 425;" xml:space="preserve">
<style type="text/css">
	.st0{enable-background:new    ;}
	.st1{fill:#FFC000;}
	.st2{fill-rule:evenodd;clip-rule:evenodd;fill:#FFFFFF;}
	.st3{fill:#FFFFFF;}
	.st4{fill:none;}
	.st5{fill:none;stroke:#000000;stroke-width:8;stroke-linecap:round;stroke-miterlimit:10;}
</style>
<g id="Logos">
	<g>
		<path d="M559.5,44.1v146.2c0,3.3-2.8,6-6.3,6l-32.7-0.3c0-38.1,0-57.1,0-57.2c0-3.3-2.8-6-6.3-6H462c-3.5,0-6.3,2.7-6.3,6
			l-0.2,57.2c-31.2,0-32.6,0.3-32.6,0.3c-3.5,0-6.3-2.7-6.3-6V44.1c0-3.3,2.8-6,6.3-6l32.6,0.2c0,55.2,0.2,56.4,0.2,56.4
			c0,3.3,2.8,6,6.3,6h52.3c3.5,0,6.3-2.7,6.3-6l-0.1-56.5c36.5,0,32.8-0.1,32.8-0.1C556.7,38.1,559.5,40.8,559.5,44.1L559.5,44.1z"
			/>
		<path d="M599.7,56.4h23.5c3.1,0,5.5,2.4,5.5,5.3v129.5c0,2.9-2.5,5.4-5.5,5.4h-23.5c-3.1,0-5.5-2.4-5.5-5.4V61.7
			C594.1,58.8,596.6,56.4,599.7,56.4L599.7,56.4z"/>
		<path d="M792.9,63.5l-47,131.2c-0.8,2.2-2.9,3.6-5.2,3.6h-35.8c-2.4,0-4.5-1.4-5.2-3.6L652.4,63.5c-1.2-3.5,1.4-7.1,5.2-7.1h23.7
			c2.4,0,4.5,1.5,5.3,3.7l30.9,88.7c1.7,4.9,8.8,4.9,10.5,0l30.7-88.7c0.8-2.2,2.9-3.7,5.3-3.7h23.7C791.5,56.4,794.1,60,792.9,63.5
			L792.9,63.5z"/>
		<path d="M913.7,175.3v15.9c0,2.9-2.5,5.4-5.5,5.4h-86c-3.1,0-5.5-2.4-5.5-5.4V61.7c0-3,2.5-5.3,5.5-5.3h85c3.1,0,5.5,2.4,5.5,5.3
			v15.9c0,2.9-2.5,5.3-5.5,5.3h-50.5c-3.1,0-5.5,2.4-5.5,5.3c0,0-0.1-0.1-0.1,24.5c0,0-0.7,0.1,51.7,0.1l0,26.2
			c-54.1,0-51.9,0.2-51.9,0.2c0,25.7,0.2,25.3,0.2,25.3c0,2.9,2.5,5.4,5.5,5.4h51.5C911.2,170,913.7,172.4,913.7,175.3L913.7,175.3z
			"/>
		<path d="M1122.3,44.1v146.2c0,3.3-2.8,6-6.3,6h-26.5c-3.5,0-6.3-2.7-6.3-6l-0.4-92.9c0-5.9-35,43.9-35,43.9
			c-1.2,1.6-3.1,2.6-5.2,2.6h-12.9c-2.1,0-4-1-5.2-2.6c0,0-34.7-50.2-34.7-44.2l0.2,93.3c0,3.3-2.8,6-6.3,6h-26.5
			c-3.5,0-6.3-2.7-6.3-6V44.1c0-3.3,2.8-6,6.3-6h35.5c2.1,0,4,1,5.2,2.7l33.5,48.3c2.5,3.6,7.9,3.6,10.4,0l33.4-48.3
			c1.2-1.7,3.1-2.7,5.2-2.7h35.5C1119.5,38.1,1122.3,40.8,1122.3,44.1L1122.3,44.1z"/>
		<path d="M1309,154.4c-3.9,9.3-9.4,17.3-16.5,24c-2.4,2.2-2.5,5.9-0.3,8.3l21.6,22.8c-39.5,0-41.7,0.3-41.7,0.3
			c-1.8,0-3.6-0.8-4.8-2.1l-7.1-8c-1.5-1.7-4-2.4-6.3-1.9c-6.8,1.5-14.2,2.2-22.2,2.2c-18.2,0-33.7-3.6-46.4-10.8
			c-12.7-7.2-22.2-17-28.6-29.4c-6.4-12.5-9.5-26.6-9.5-42.3s3.2-29.4,9.5-41.8c6.3-12.4,15.9-22.2,28.6-29.6s28.2-11,46.4-11
			s33.2,3.7,45.9,11s22.3,17.2,28.7,29.7c6.4,12.5,9.6,26.4,9.6,41.7C1316,130.9,1313.7,143.3,1309,154.4L1309,154.4z M1198.6,154.3
			c7.7,9.3,18.7,13.9,33.2,13.9h0.4l-10.1-11.3c-3.5-3.9-0.6-10,4.7-10h26.8c1.8,0,3.5,0.8,4.7,2.1l0,0c2.8,3.1,7.1,5.8,9.2,2.2
			c1.8-3,4.2-9.4,5.4-12.9c2.2-6.5,3.2-13.6,3.2-21.4c0-9.6-1.7-18.2-5.2-25.7c-3.5-7.5-8.6-13.4-15.3-17.8
			c-6.7-4.3-14.7-6.5-23.9-6.5c-14.3,0-25.3,4.7-33,14c-7.7,9.3-11.6,21.5-11.6,36.5S1190.9,145,1198.6,154.3L1198.6,154.3z"/>
	</g>
	<g class="st0">
		<path d="M448,281c0-3.5-1-6.3-2.9-8.2c-1.9-1.9-5.4-3.7-10.4-5.5c-5-1.8-8.8-3.7-11.5-5.6c-2.7-2-4.6-4.2-6-6.7
			c-1.3-2.5-2-5.4-2-8.7c0-5.6,1.9-10.3,5.6-13.9s8.7-5.5,14.8-5.5c4.2,0,7.9,0.9,11.1,2.8c3.3,1.9,5.8,4.4,7.5,7.8
			c1.8,3.3,2.6,7,2.6,10.9h-9c0-4.4-1.1-7.8-3.2-10.2c-2.1-2.4-5.2-3.6-9.1-3.6c-3.6,0-6.4,1-8.4,3c-2,2-3,4.9-3,8.5
			c0,3,1.1,5.5,3.2,7.5s5.5,3.8,10,5.4c7,2.3,12,5.2,15,8.6c3,3.4,4.5,7.8,4.5,13.3c0,5.8-1.9,10.4-5.6,13.8
			c-3.7,3.5-8.8,5.2-15.3,5.2c-4.1,0-8-0.9-11.5-2.7c-3.5-1.8-6.2-4.3-8.3-7.6s-3-7-3-11.3h9c0,4.4,1.2,7.8,3.7,10.3
			c2.5,2.4,5.8,3.7,10,3.7c3.9,0,6.9-1,8.9-3C447,287.2,448,284.5,448,281z"/>
	</g>
	<g class="st0">
		<path d="M477.7,271.1V299h-8.9v-71.1h22.7c6.6,0,11.8,2,15.6,5.9c3.8,4,5.7,9.2,5.7,15.8c0,6.8-1.8,12.1-5.4,15.8
			c-3.6,3.7-8.7,5.6-15.2,5.7H477.7z M477.7,263.5h13.7c4,0,7-1.2,9.1-3.6c2.1-2.4,3.2-5.8,3.2-10.2c0-4.3-1.1-7.7-3.3-10.3
			c-2.2-2.6-5.2-3.9-9-3.9h-13.8V263.5z"/>
	</g>
	<g class="st0">
		<path d="M550.6,280.4h-24L521,299h-9.2l22.9-71.1h7.7l22.9,71.1h-9.2L550.6,280.4z M528.9,272.7h19.4l-9.7-32.3L528.9,272.7z"/>
		<path d="M596.5,270.2H584V299h-9v-71.1h19.9c7,0,12.2,1.8,15.8,5.4c3.6,3.6,5.4,8.9,5.4,15.9c0,4.4-1,8.2-2.9,11.5
			c-1.9,3.3-4.7,5.7-8.2,7.4l13.8,30.2v0.6h-9.6L596.5,270.2z M584,262.6h10.8c3.7,0,6.7-1.2,9-3.6c2.2-2.4,3.3-5.6,3.3-9.7
			c0-9.1-4.1-13.7-12.4-13.7H584V262.6z"/>
		<path d="M644,266.2l-7,8.4V299h-8.9v-71.1h8.9v34.3l5.9-7.8l19.1-26.6h10.7l-23.1,31.3l24.9,39.8h-10.7L644,266.2z"/>
		<path d="M691.5,271.1V299h-8.9v-71.1h22.7c6.6,0,11.8,2,15.6,5.9c3.8,4,5.7,9.2,5.7,15.8c0,6.8-1.8,12.1-5.4,15.8
			c-3.6,3.7-8.7,5.6-15.2,5.7H691.5z M691.5,263.5h13.7c4,0,7-1.2,9.1-3.6c2.1-2.4,3.2-5.8,3.2-10.2c0-4.3-1.1-7.7-3.3-10.3
			c-2.2-2.6-5.2-3.9-9-3.9h-13.8V263.5z"/>
	</g>
	<g class="st0">
		<path d="M747,291.3h27.9v7.7H738v-71.1h9V291.3z"/>
	</g>
	<g class="st0">
		<path d="M825.3,227.9v50.5c-0.1,6.7-2,12-5.9,15.8s-9.2,5.7-16.1,5.7c-7,0-12.4-1.9-16.1-5.6c-3.7-3.7-5.6-9-5.7-15.9v-50.5h8.9
			V278c0,4.8,1,8.4,3.1,10.7c2,2.4,5.3,3.5,9.8,3.5c4.6,0,7.9-1.2,9.9-3.5c2-2.4,3.1-5.9,3.1-10.7v-50.2H825.3z"/>
		<path d="M883.5,290.1l-1.6,2c-4.5,5.2-11.1,7.9-19.7,7.9c-7.7,0-13.7-2.5-18.1-7.6c-4.4-5.1-6.6-12.3-6.7-21.6v-14
			c0-10,2-17.4,6-22.4c4-5,10-7.4,17.9-7.4c6.8,0,12.1,1.9,15.9,5.6c3.8,3.8,5.9,9.1,6.3,16.1h-8.9c-0.4-4.4-1.6-7.9-3.7-10.4
			s-5.3-3.7-9.5-3.7c-5.1,0-8.9,1.7-11.2,5c-2.4,3.3-3.6,8.7-3.7,16v14.5c0,7.2,1.4,12.7,4.1,16.5c2.7,3.8,6.7,5.7,11.8,5.7
			c4.8,0,8.5-1.2,11-3.5l1.3-1.2v-16.3h-13v-7.7h21.9V290.1z"/>
	</g>
	<g class="st0">
		<path d="M954.2,280.4h-24l-5.5,18.6h-9.2l22.9-71.1h7.7L969,299h-9.2L954.2,280.4z M932.5,272.7h19.4l-9.7-32.3L932.5,272.7z"/>
	</g>
	<g class="st0">
		<path d="M988.8,276.6l0.9,8l1.4-7l11.4-49.6h7.5l11,49.6l1.4,7.2l1-8.2l8.7-48.6h8.9L1027,299h-8.1l-11.9-51.8l-0.7-4.2l-0.7,4.2
			L993.3,299h-8.1l-14.1-71.1h8.9L988.8,276.6z"/>
	</g>
	<g class="st0">
		<path d="M1082.5,280.4h-24l-5.5,18.6h-9.2l22.9-71.1h7.7l22.9,71.1h-9.2L1082.5,280.4z M1060.8,272.7h19.4l-9.7-32.3L1060.8,272.7
			z"/>
		<path d="M1128.4,270.2h-12.5V299h-9v-71.1h19.9c7,0,12.2,1.8,15.8,5.4c3.6,3.6,5.4,8.9,5.4,15.9c0,4.4-1,8.2-2.9,11.5
			c-1.9,3.3-4.7,5.7-8.2,7.4l13.8,30.2v0.6h-9.6L1128.4,270.2z M1115.9,262.6h10.8c3.7,0,6.7-1.2,9-3.6c2.2-2.4,3.3-5.6,3.3-9.7
			c0-9.1-4.1-13.7-12.4-13.7h-10.7V262.6z"/>
		<path d="M1194.1,266.1H1169v25.2h29.3v7.7H1160v-71.1h37.7v7.7H1169v22.9h25.1V266.1z"/>
	</g>
	<g class="st0">
		<path d="M451,361.1h-25.1v25.2h29.3v7.7h-38.2v-71.1h37.7v7.7h-28.8v22.9H451V361.1z"/>
		<path d="M486.5,350.1l13.4-27.2h10.5l-18.5,35.3l18.9,35.8h-10.6l-13.7-27.7L472.8,394h-10.6l19-35.8l-18.6-35.3h10.4L486.5,350.1
			z"/>
		<path d="M563.2,330.6h-18.7V394h-8.9v-63.4h-18.7v-7.7h46.3V330.6z"/>
		<path d="M607.8,361.1h-25.1v25.2h29.3v7.7h-38.2v-71.1h37.7v7.7h-28.8v22.9h25.1V361.1z"/>
		<path d="M669.8,394h-9l-28.5-54.8V394h-9v-71.1h9l28.6,55v-55h8.9V394z"/>
		<path d="M716.3,376c0-3.5-1-6.3-2.9-8.2c-1.9-1.9-5.4-3.7-10.4-5.5c-5-1.8-8.8-3.7-11.5-5.6c-2.7-2-4.6-4.2-6-6.7
			c-1.3-2.5-2-5.4-2-8.7c0-5.6,1.9-10.3,5.6-13.9s8.7-5.5,14.8-5.5c4.2,0,7.9,0.9,11.1,2.8c3.3,1.9,5.8,4.4,7.5,7.8
			c1.8,3.3,2.6,7,2.6,10.9h-9c0-4.4-1.1-7.8-3.2-10.2c-2.1-2.4-5.2-3.6-9.1-3.6c-3.6,0-6.4,1-8.4,3c-2,2-3,4.9-3,8.5
			c0,3,1.1,5.5,3.2,7.5s5.5,3.8,10,5.4c7,2.3,12,5.2,15,8.6c3,3.4,4.5,7.8,4.5,13.3c0,5.8-1.9,10.4-5.6,13.8
			c-3.7,3.5-8.8,5.2-15.3,5.2c-4.1,0-8-0.9-11.5-2.7c-3.5-1.8-6.2-4.3-8.3-7.6s-3-7-3-11.3h9c0,4.4,1.2,7.8,3.7,10.3
			c2.5,2.4,5.8,3.7,10,3.7c3.9,0,6.9-1,8.9-3C715.3,382.2,716.3,379.5,716.3,376z"/>
		<path d="M746.4,394h-8.9v-71.1h8.9V394z"/>
		<path d="M808.3,364.7c0,9.7-2.1,17.2-6.2,22.4c-4.1,5.2-10,7.9-17.6,7.9c-7.3,0-13.1-2.5-17.4-7.6c-4.2-5.1-6.5-12.3-6.6-21.6
			v-13.4c0-9.5,2.1-17,6.3-22.3c4.2-5.4,10.1-8.1,17.6-8.1c7.5,0,13.3,2.6,17.5,7.7c4.2,5.2,6.3,12.5,6.4,22.1V364.7z M799.4,352.2
			c0-7.5-1.2-13.1-3.7-16.8c-2.5-3.7-6.2-5.5-11.3-5.5c-4.9,0-8.6,1.9-11.2,5.6c-2.5,3.7-3.8,9.2-3.8,16.4v12.7
			c0,7.3,1.3,12.8,3.8,16.6c2.5,3.8,6.3,5.7,11.3,5.7c5,0,8.7-1.8,11.1-5.3c2.4-3.5,3.7-8.9,3.8-16.2V352.2z"/>
		<path d="M868.6,394h-9l-28.5-54.8V394h-9v-71.1h9l28.6,55v-55h8.9V394z"/>
	</g>
	<circle class="st1" cx="202.5" cy="203.5" r="166.2"/>
	<path d="M202.5,378.5c-96.5,0-175-78.5-175-175s78.5-175,175-175s175,78.5,175,175S299,378.5,202.5,378.5L202.5,378.5z M202.5,43.3
		c-88.3,0-160.2,71.9-160.2,160.2s71.9,160.2,160.2,160.2s160.2-71.9,160.2-160.2S290.8,43.3,202.5,43.3z"/>
	<g>
		<path d="M202.3,249.2c6.6-11.9,10.1-16,14.5-20.6h-28.9C192.3,233.1,195.7,237.2,202.3,249.2z"/>
		<path class="st2" d="M226.3,110.7c-9.9-4.6-15.6-15.3-13.9-26.1C222.3,89.2,228,100,226.3,110.7z"/>
		<path d="M277.5,148.7c-1.6,1.5-1.7,4.1-0.2,5.7l0.5,0.6c23.3-19.9,37.4-35.3,30.4-47.5c-7.7-10.7-40.1-5.6-79.9,12.3
			c2-4.1,3-8.5,3-12.9c0-1.6-0.1-3.3-0.4-4.9c-0.9-5.7-3.6-11.2-8-15.6c-2.4-2.4-5.1-4.3-8.1-5.7l0.1-0.3h0l3.1-6.6
			c0.5-1.1,0-2.3-1-2.8s-2.3,0-2.8,1l-3.3,7.2c-5.5-1.7-11.4-1.7-16.9,0l-3.3-7.2c-0.5-1.1-1.8-1.5-2.8-1s-1.5,1.8-1,2.8l3,6.4
			l0.2,0.5c-2.9,1.4-5.6,3.3-8.1,5.7c-5.8,5.8-8.6,13.4-8.4,21c0.1,4.1,1,8.2,2.8,12c-10.3-4.6-67.4-28.2-78.9-12.1
			c-10.4,14.7,21.6,40.4,30.2,47.7l0.6-0.6c1.5-1.6,1.4-4.2-0.2-5.7c-4.2-4-10.8-10.5-15.4-16.9c-6-8.4-6.2-13.3-3.3-16
			c9.1-8.5,42.8,2.8,53.3,6.8c10,3.8,20.9,8.8,32.1,14.7c-53.5,31-89.8,68-81.2,82.9c5.4,9.3,27.7,8.1,56.5-2l-1-1.7
			c-1-1.6-2.9-2.4-4.7-1.8c-19.9,6-32.4,8.9-36.6,2.5c-6-10.4,24.4-46.1,71.6-73.4l3.5-2c1.2,0.7,2.4,1.4,3.6,2
			c47.2,27.3,77.6,63,71.6,73.4c-4.3,6.4-16.7,3.5-36.6-2.5c-1.8-0.6-3.7,0.2-4.7,1.8l-1,1.7c28.7,10.1,51.1,11.4,56.5,2
			c8.6-14.9-27.7-51.9-81.2-82.9c37.6-19.8,71.5-28.7,84-22.3C305.9,120.6,286.3,140.3,277.5,148.7L277.5,148.7z M178.2,110.7
			c-1.7-10.8,4-21.5,13.9-26.1C193.7,95.4,188,106.1,178.2,110.7z M226.3,110.7c-9.9-4.6-15.6-15.3-13.9-26.1
			C222.3,89.2,228,99.9,226.3,110.7z"/>
		<path d="M169.1,201.6c1.6,5.3,4.1,10.3,7.5,14.6H228c3.4-4.3,5.9-9.3,7.5-14.6H169.1L169.1,201.6z"/>
		<path d="M234.9,171.7c-9.8-7.2-20.8-14.4-32.6-21.3c-11.8,6.9-22.8,14.1-32.6,21.3c-1.9,5.6-2.8,11.7-2.6,17.6h70.4
			C237.7,183.3,236.9,177.3,234.9,171.7L234.9,171.7z"/>
		<path class="st2" d="M178.1,110.7c-1.7-10.8,4-21.5,13.9-26.1C193.7,95.4,188,106.1,178.1,110.7z"/>
		<path class="st2" d="M128.9,152.4c0,0,0.9-2.1-1.1-3.9c-8.9-8.4-28.4-28.2-17.3-33.8c12.4-6.3,46.4,2.7,84.1,22.6
			c-19,11-32,20.1-45.7,31.1C133.6,157.2,130.9,154.7,128.9,152.4L128.9,152.4z"/>
		<path class="st2" d="M277.7,217.3c-4.3,6.4-16.7,3.5-36.6-2.5c-0.9-0.3-1.8-0.2-2.6,0.1c6.1-8.8,7.4-25.1,5.3-36.9
			c0,0,0-0.1,0-0.2c0,0,0-0.1,0-0.1c-0.6-4.6-1.7-8.3-2.8-10C267.3,189,282.1,209.8,277.7,217.3L277.7,217.3z"/>
		<path class="st2" d="M256.8,168.6c-13.4-11.3-27-20.4-46-31.4c37.6-19.8,71.6-28.7,84-22.3c11.2,5.7-8.4,25.5-17.3,33.8
			c-1.6,1.5-1.2,2.2-1.1,3.9C274.3,155,272,157.5,256.8,168.6L256.8,168.6z"/>
		<path class="st2" d="M164.3,167.4c-1.2,1.6-2.2,5.3-2.8,10c0,0,0,0,0,0.1c0,0.1,0,0.1,0,0.2c-2.1,11.9-0.8,28.1,5.3,36.9
			c-0.8-0.3-1.7-0.4-2.6-0.1c-19.9,6-32.4,8.9-36.6,2.5C123.1,209.5,137.9,188.7,164.3,167.4L164.3,167.4z"/>
	</g>
	<path d="M202.5,378.5c-96.5,0-175-78.5-175-175s78.5-175,175-175s175,78.5,175,175S299,378.5,202.5,378.5L202.5,378.5z M202.5,43.3
		c-88.3,0-160.2,71.9-160.2,160.2s71.9,160.2,160.2,160.2s160.2-71.9,160.2-160.2S290.8,43.3,202.5,43.3z"/>
	<g>
		<polygon class="st3" points="173,303.1 159.7,267.1 184.7,284.8 188.5,250.5 204.1,283.8 221.9,259.7 219.9,290.3 304.8,273.9 
			232.8,304.1 268.5,319 206.7,320 191.7,321.8 128.7,312.8 		"/>
		<path d="M197.1,324.8l-87.3-14.1l59.3-8.9l-17.7-42.2l28.9,18.4l5.6-37.3l19.7,36.6l22-28.1l-3.5,37l104.3-18.6l-88.8,37.2
			l33.6,15.8l-65.1,2.4L197.1,324.8L197.1,324.8z M136.4,312.6l61,5.6l10.5-1.8l56,1.7l-37-13.8l72.7-28.9l-81.4,17.3l0.4-24.2
			l-13.4,19.9l-14.6-27.2l-2,28.5l-24-17l10.6,33.1L136.4,312.6L136.4,312.6z"/>
	</g>
	<line class="st4" x1="185.8" y1="360.1" x2="215.4" y2="351.3"/>
</g>
<g id="Ebene_3">
	<g>
		<path class="st3" d="M171.7,387.8H236c4.8,0,8.8,3.9,8.8,8.8v0.2c0,4.8-3.9,8.8-8.8,8.8h-64.2c-4.8,0-8.8-3.9-8.8-8.8v-0.2
			C162.9,391.7,166.9,387.8,171.7,387.8z"/>
		<path d="M236.1,407.8h-64.5c-6,0-10.8-5-10.8-11.1s4.9-11.1,10.8-11.1h64.5c6,0,10.8,5,10.8,11.1S242,407.8,236.1,407.8z
			 M171.6,390c-3.6,0-6.5,3-6.5,6.7s2.9,6.7,6.5,6.7h64.5c3.6,0,6.5-3,6.5-6.7s-2.9-6.7-6.5-6.7H171.6z"/>
	</g>
	<path d="M198.3,308.4h7.1c2.8,0,5,2.2,5,5v15.1c0,2.8-2.2,5-5,5h-7.1c-2.8,0-5-2.2-5-5v-15.1C193.3,310.7,195.6,308.4,198.3,308.4z
		"/>
	<path class="st5" d="M184.3,329.9v-23.1c0-9.5,3.5-10.9,12.7-10.9h14.3"/>
	<g>
		<path class="st2" d="M176,389.5V338c0-3.5,2-6.4,4.5-6.4h42.6c2.5,0,4.5,2.9,4.5,6.4v51.7L176,389.5L176,389.5z"/>
		<path d="M230.2,392.2l-56.6-0.2v-54c0-5,3.1-8.9,7-8.9h42.6c3.9,0,7,3.9,7,8.9L230.2,392.2L230.2,392.2z M180.6,387l44.6,0.2V338
			c0-2.4-1.2-3.9-2-3.9h-38.6c-2.4,0-4,1.5-4,3.9L180.6,387L180.6,387z"/>
	</g>
	<g>
		<path class="st3" d="M169.7,369.4l65.1-11.8c4.8-0.9,9.5,2.3,10.3,7.2v0c0.9,4.8-2.3,9.5-7.2,10.3l-65.1,11.8
			c-4.8,0.9-9.5-2.3-10.3-7.2l0,0C161.7,374.9,164.9,370.3,169.7,369.4z"/>
		<path d="M171.3,389.2c-2.2,0-4.4-0.7-6.3-2c-2.4-1.7-4.1-4.2-4.6-7.1s0.1-5.8,1.8-8.3s4.2-4.1,7.1-4.6l65.1-11.8
			c2.9-0.5,5.8,0.1,8.3,1.8s4.1,4.2,4.6,7.1s-0.1,5.8-1.8,8.3s-4.2,4.1-7.1,4.6L173.3,389C172.6,389.2,171.9,389.2,171.3,389.2
			L171.3,389.2z M236.4,359.6c-0.4,0-0.8,0-1.2,0.1l-64,12.9c-1.8,0.3-3.3,1.3-4.3,2.8c-1,1.5-1.1,3.3-0.9,5
			c0.6,4.8,4.7,4.6,6.4,4.2l65.1-11.8c1.8-0.3,3.3-1.3,4.3-2.8s1.4-3.2,1.1-5s-1.3-3.3-2.8-4.3C239,360,237.7,359.6,236.4,359.6
			L236.4,359.6z"/>
	</g>
	<g>
		<path class="st3" d="M169.7,387.9l65.1-11.8c4.8-0.9,9.5,2.3,10.3,7.2v0c0.9,4.8-2.3,9.5-7.2,10.3l-65.1,11.8
			c-4.8,0.9-9.5-2.3-10.3-7.2v0C161.7,393.4,164.9,388.8,169.7,387.9z"/>
		<path d="M171.3,407.8c-2.2,0-4.4-0.7-6.3-2c-2.4-1.7-4.1-4.2-4.6-7.1s0.1-5.8,1.8-8.3s4.2-4.1,7.1-4.6l65.1-11.8
			c2.9-0.5,5.8,0.1,8.3,1.8s4.1,4.2,4.6,7.1s-0.1,5.8-1.8,8.3s-4.2,4.1-7.1,4.6l-65.1,11.8C172.6,407.7,171.9,407.8,171.3,407.8
			L171.3,407.8z M236.4,378.2c-0.4,0-0.8,0-1.2,0.1l-64,12.9c-1.8,0.3-3.3,1.3-4.3,2.8c-1,1.5-1.1,3.3-0.9,5
			c0.6,4.8,4.7,4.6,6.4,4.2l65.1-11.8c1.8-0.3,3.3-1.3,4.3-2.8s1.4-3.2,1.1-5s-1.3-3.3-2.8-4.3C239,378.6,237.7,378.2,236.4,378.2
			L236.4,378.2z"/>
	</g>
</g>
</svg>
