<?xml version="1.0" encoding="utf-8"?>
<!-- Generator: Adobe Illustrator 26.5.2, SVG Export Plug-In . SVG Version: 6.00 Build 0)  -->
<svg version="1.1" id="Logos" xmlns="http://www.w3.org/2000/svg" xmlns:xlink="http://www.w3.org/1999/xlink" x="0px" y="0px"
	 viewBox="0 0 1560 400" style="enable-background:new 0 0 1560 400;" xml:space="preserve">
<style type="text/css">
	.st0{enable-background:new    ;}
	.st1{fill:#FFC000;}
	.st2{fill-rule:evenodd;clip-rule:evenodd;fill:#FFFFFF;}
	.st3{fill:none;}
</style>
<g class="st0">
	<path d="M471.8,254h-25.1v25.2h29.3v7.7h-38.2v-71.1h37.7v7.7h-28.8v22.9h25.1V254z"/>
</g>
<g class="st0">
	<path d="M533.8,286.9h-9l-28.5-54.8v54.8h-9v-71.1h9l28.6,55v-55h8.9V286.9z"/>
</g>
<g class="st0">
	<path d="M589.4,223.4h-18.7v63.4h-8.9v-63.4h-18.7v-7.7h46.3V223.4z"/>
	<path d="M634,254h-25.1v25.2h29.3v7.7h-38.2v-71.1h37.7v7.7h-28.8v22.9H634V254z"/>
	<path d="M671.1,258.1h-12.5v28.8h-9v-71.1h19.9c7,0,12.2,1.8,15.8,5.4c3.6,3.6,5.4,8.9,5.4,15.9c0,4.4-1,8.2-2.9,11.5
		c-1.9,3.3-4.7,5.7-8.2,7.4l13.8,30.2v0.6h-9.6L671.1,258.1z M658.6,250.4h10.8c3.7,0,6.7-1.2,9-3.6c2.2-2.4,3.3-5.6,3.3-9.7
		c0-9.1-4.1-13.7-12.4-13.7h-10.7V250.4z"/>
	<path d="M711.6,259v27.8h-8.9v-71.1h22.7c6.6,0,11.8,2,15.6,5.9c3.8,4,5.7,9.2,5.7,15.8c0,6.8-1.8,12.1-5.4,15.8
		c-3.6,3.7-8.7,5.6-15.2,5.7H711.6z M711.6,251.4h13.7c4,0,7-1.2,9.1-3.6c2.1-2.4,3.2-5.8,3.2-10.2c0-4.3-1.1-7.7-3.3-10.3
		c-2.2-2.6-5.2-3.9-9-3.9h-13.8V251.4z"/>
	<path d="M779.6,258.1h-12.5v28.8h-9v-71.1H778c7,0,12.2,1.8,15.8,5.4c3.6,3.6,5.4,8.9,5.4,15.9c0,4.4-1,8.2-2.9,11.5
		c-1.9,3.3-4.7,5.7-8.2,7.4l13.8,30.2v0.6h-9.6L779.6,258.1z M767.1,250.4h10.8c3.7,0,6.7-1.2,9-3.6c2.2-2.4,3.3-5.6,3.3-9.7
		c0-9.1-4.1-13.7-12.4-13.7h-10.7V250.4z"/>
	<path d="M820.5,286.9h-8.9v-71.1h8.9V286.9z"/>
	<path d="M867.2,268.9c0-3.5-1-6.3-2.9-8.2c-1.9-1.9-5.4-3.7-10.4-5.5c-5-1.8-8.8-3.7-11.5-5.6c-2.7-2-4.6-4.2-6-6.7
		c-1.3-2.5-2-5.4-2-8.7c0-5.6,1.9-10.3,5.6-13.9c3.8-3.6,8.7-5.5,14.8-5.5c4.2,0,7.9,0.9,11.1,2.8s5.8,4.4,7.5,7.8s2.6,7,2.6,10.9
		h-9c0-4.4-1.1-7.8-3.2-10.2c-2.1-2.4-5.2-3.6-9.1-3.6c-3.6,0-6.4,1-8.4,3c-2,2-3,4.9-3,8.5c0,3,1.1,5.5,3.2,7.5
		c2.1,2,5.5,3.8,10,5.4c7,2.3,12,5.2,15,8.6c3,3.4,4.5,7.8,4.5,13.3c0,5.8-1.9,10.4-5.6,13.8s-8.8,5.2-15.3,5.2
		c-4.1,0-8-0.9-11.5-2.7c-3.5-1.8-6.2-4.3-8.3-7.6s-3-7-3-11.3h9c0,4.4,1.2,7.8,3.7,10.3c2.5,2.4,5.8,3.7,10,3.7c3.9,0,6.9-1,8.9-3
		C866.2,275.1,867.2,272.4,867.2,268.9z"/>
	<path d="M922,254h-25.1v25.2h29.3v7.7H888v-71.1h37.7v7.7h-28.8v22.9H922V254z"/>
	<path d="M994.6,254h-25.1v25.2h29.3v7.7h-38.2v-71.1h37.7v7.7h-28.8v22.9h25.1V254z"/>
	<path d="M1030.2,243l13.4-27.2h10.5l-18.5,35.3l18.9,35.8h-10.6l-13.7-27.7l-13.7,27.7h-10.6l19-35.8l-18.6-35.3h10.4L1030.2,243z"
		/>
	<path d="M1106.8,223.4h-18.7v63.4h-8.9v-63.4h-18.7v-7.7h46.3V223.4z"/>
	<path d="M1151.4,254h-25.1v25.2h29.3v7.7h-38.2v-71.1h37.7v7.7h-28.8v22.9h25.1V254z"/>
	<path d="M1213.4,286.9h-9l-28.5-54.8v54.8h-9v-71.1h9l28.6,55v-55h8.9V286.9z"/>
	<path d="M1259.9,268.9c0-3.5-1-6.3-2.9-8.2c-1.9-1.9-5.4-3.7-10.4-5.5c-5-1.8-8.8-3.7-11.5-5.6c-2.7-2-4.6-4.2-6-6.7
		c-1.3-2.5-2-5.4-2-8.7c0-5.6,1.9-10.3,5.6-13.9c3.8-3.6,8.7-5.5,14.8-5.5c4.2,0,7.9,0.9,11.1,2.8s5.8,4.4,7.5,7.8s2.6,7,2.6,10.9
		h-9c0-4.4-1.1-7.8-3.2-10.2c-2.1-2.4-5.2-3.6-9.1-3.6c-3.6,0-6.4,1-8.4,3c-2,2-3,4.9-3,8.5c0,3,1.1,5.5,3.2,7.5
		c2.1,2,5.5,3.8,10,5.4c7,2.3,12,5.2,15,8.6c3,3.4,4.5,7.8,4.5,13.3c0,5.8-1.9,10.4-5.6,13.8s-8.8,5.2-15.3,5.2
		c-4.1,0-8-0.9-11.5-2.7c-3.5-1.8-6.2-4.3-8.3-7.6s-3-7-3-11.3h9c0,4.4,1.2,7.8,3.7,10.3c2.5,2.4,5.8,3.7,10,3.7c3.9,0,6.9-1,8.9-3
		C1258.9,275.1,1259.9,272.4,1259.9,268.9z"/>
	<path d="M1290,286.9h-8.9v-71.1h8.9V286.9z"/>
	<path d="M1351.9,257.6c0,9.7-2.1,17.2-6.2,22.4c-4.1,5.2-10,7.9-17.6,7.9c-7.3,0-13.1-2.5-17.4-7.6c-4.2-5.1-6.5-12.3-6.6-21.6
		v-13.4c0-9.5,2.1-17,6.3-22.3c4.2-5.4,10.1-8.1,17.6-8.1c7.5,0,13.3,2.6,17.5,7.7c4.2,5.2,6.3,12.5,6.4,22.1V257.6z M1343,245.1
		c0-7.5-1.2-13.1-3.7-16.8c-2.5-3.7-6.2-5.5-11.3-5.5c-4.9,0-8.6,1.9-11.2,5.6c-2.5,3.7-3.8,9.2-3.8,16.4v12.7
		c0,7.3,1.3,12.8,3.8,16.6c2.5,3.8,6.3,5.7,11.3,5.7s8.7-1.8,11.1-5.3s3.7-8.9,3.8-16.2V245.1z"/>
	<path d="M1412.2,286.9h-9l-28.5-54.8v54.8h-9v-71.1h9l28.6,55v-55h8.9V286.9z"/>
</g>
<g class="st0">
	<path d="M470.7,350.5h-24v31.4h-8.9v-71.1h37v7.7h-28.1v24.4h24V350.5z"/>
	<path d="M532,352.6c0,9.7-2.1,17.2-6.2,22.4c-4.1,5.2-10,7.9-17.6,7.9c-7.3,0-13.1-2.5-17.4-7.6c-4.2-5.1-6.5-12.3-6.6-21.6v-13.4
		c0-9.5,2.1-17,6.3-22.3c4.2-5.4,10.1-8.1,17.6-8.1c7.5,0,13.3,2.6,17.5,7.7c4.2,5.2,6.3,12.5,6.4,22.1V352.6z M523.1,340.1
		c0-7.5-1.2-13.1-3.7-16.8c-2.5-3.7-6.2-5.5-11.3-5.5c-4.9,0-8.6,1.9-11.2,5.6c-2.5,3.7-3.8,9.2-3.8,16.4v12.7
		c0,7.3,1.3,12.8,3.8,16.6c2.5,3.8,6.3,5.7,11.3,5.7c5,0,8.7-1.8,11.1-5.3c2.4-3.5,3.7-8.9,3.8-16.2V340.1z"/>
	<path d="M567.3,353.1h-12.5v28.8h-9v-71.1h19.9c7,0,12.2,1.8,15.8,5.4c3.6,3.6,5.4,8.9,5.4,15.9c0,4.4-1,8.2-2.9,11.5
		c-1.9,3.3-4.7,5.7-8.2,7.4l13.8,30.2v0.6H580L567.3,353.1z M554.8,345.4h10.8c3.7,0,6.7-1.2,9-3.6c2.2-2.4,3.3-5.6,3.3-9.7
		c0-9.1-4.1-13.7-12.4-13.7h-10.7V345.4z"/>
	<path d="M655,363.3h-24l-5.5,18.6h-9.2l22.9-71.1h7.7l22.9,71.1h-9.2L655,363.3z M633.3,355.6h19.4l-9.7-32.3L633.3,355.6z"/>
</g>
<g class="st0">
	<path d="M690.9,310.8l18.6,58l18.6-58h11.5v71.1h-8.9v-27.7l0.8-27.7l-18.6,55.4H706l-18.5-55.2l0.8,27.5v27.7h-8.9v-71.1H690.9z"
		/>
</g>
<g class="st0">
	<path d="M789,363.3h-24l-5.5,18.6h-9.2l22.9-71.1h7.7l22.9,71.1h-9.2L789,363.3z M767.3,355.6h19.4l-9.7-32.3L767.3,355.6z"/>
</g>
<g class="st0">
	<path d="M820.1,374.2h33.7v7.7h-43.7v-7l32.4-56.4h-32v-7.7h42v6.8L820.1,374.2z"/>
</g>
<g class="st0">
	<path d="M910.7,352.6c0,9.7-2.1,17.2-6.2,22.4c-4.1,5.2-10,7.9-17.6,7.9c-7.3,0-13.1-2.5-17.4-7.6c-4.2-5.1-6.5-12.3-6.6-21.6
		v-13.4c0-9.5,2.1-17,6.3-22.3c4.2-5.4,10.1-8.1,17.6-8.1c7.5,0,13.3,2.6,17.5,7.7c4.2,5.2,6.3,12.5,6.4,22.1V352.6z M901.7,340.1
		c0-7.5-1.2-13.1-3.7-16.8s-6.2-5.5-11.3-5.5c-4.9,0-8.6,1.9-11.2,5.6s-3.8,9.2-3.8,16.4v12.7c0,7.3,1.3,12.8,3.8,16.6
		s6.3,5.7,11.3,5.7s8.7-1.8,11.1-5.3s3.7-8.9,3.8-16.2V340.1z"/>
	<path d="M970.9,381.9h-9l-28.5-54.8v54.8h-9v-71.1h9l28.6,55v-55h8.9V381.9z"/>
	<path d="M1025.2,349.1l-7,8.4v24.3h-8.9v-71.1h8.9v34.3l5.9-7.8l19.1-26.6h10.7l-23.1,31.3l24.9,39.8h-10.7L1025.2,349.1z"/>
	<path d="M1073.1,381.9h-8.9v-71.1h8.9V381.9z"/>
	<path d="M1135.2,381.9h-9l-28.5-54.8v54.8h-9v-71.1h9l28.6,55v-55h8.9V381.9z"/>
	<path d="M1184.8,349h-25.1v25.2h29.3v7.7h-38.2v-71.1h37.7v7.7h-28.8v22.9h25.1V349z"/>
	<path d="M1231.4,363.9c0-3.5-1-6.3-2.9-8.2c-1.9-1.9-5.4-3.7-10.4-5.5c-5-1.8-8.8-3.7-11.5-5.6c-2.7-2-4.6-4.2-6-6.7
		c-1.3-2.5-2-5.4-2-8.7c0-5.6,1.9-10.3,5.6-13.9c3.8-3.6,8.7-5.5,14.8-5.5c4.2,0,7.9,0.9,11.1,2.8s5.8,4.4,7.5,7.8s2.6,7,2.6,10.9
		h-9c0-4.4-1.1-7.8-3.2-10.2c-2.1-2.4-5.2-3.6-9.1-3.6c-3.6,0-6.4,1-8.4,3c-2,2-3,4.9-3,8.5c0,3,1.1,5.5,3.2,7.5
		c2.1,2,5.5,3.8,10,5.4c7,2.3,12,5.2,15,8.6c3,3.4,4.5,7.8,4.5,13.3c0,5.8-1.9,10.4-5.6,13.8s-8.8,5.2-15.3,5.2
		c-4.1,0-8-0.9-11.5-2.7s-6.2-4.3-8.3-7.6s-3-7-3-11.3h9c0,4.4,1.2,7.8,3.7,10.3s5.8,3.7,10,3.7c3.9,0,6.9-1,8.9-3
		C1230.4,370.1,1231.4,367.4,1231.4,363.9z"/>
	<path d="M1261.5,381.9h-8.9v-71.1h8.9V381.9z"/>
	<path d="M1308.2,363.9c0-3.5-1-6.3-2.9-8.2c-1.9-1.9-5.4-3.7-10.4-5.5c-5-1.8-8.8-3.7-11.5-5.6c-2.7-2-4.6-4.2-6-6.7
		c-1.3-2.5-2-5.4-2-8.7c0-5.6,1.9-10.3,5.6-13.9c3.8-3.6,8.7-5.5,14.8-5.5c4.2,0,7.9,0.9,11.1,2.8s5.8,4.4,7.5,7.8s2.6,7,2.6,10.9
		h-9c0-4.4-1.1-7.8-3.2-10.2c-2.1-2.4-5.2-3.6-9.1-3.6c-3.6,0-6.4,1-8.4,3c-2,2-3,4.9-3,8.5c0,3,1.1,5.5,3.2,7.5
		c2.1,2,5.5,3.8,10,5.4c7,2.3,12,5.2,15,8.6c3,3.4,4.5,7.8,4.5,13.3c0,5.8-1.9,10.4-5.6,13.8s-8.8,5.2-15.3,5.2
		c-4.1,0-8-0.9-11.5-2.7s-6.2-4.3-8.3-7.6s-3-7-3-11.3h9c0,4.4,1.2,7.8,3.7,10.3s5.8,3.7,10,3.7c3.9,0,6.9-1,8.9-3
		C1307.2,370.1,1308.2,367.4,1308.2,363.9z"/>
</g>
<circle class="st1" cx="200.9" cy="196.7" r="163.4"/>
<path d="M200.8,374.3c-97.6,0-177-79.4-177-177s79.4-177,177-177s177,79.4,177,177S298.4,374.3,200.8,374.3L200.8,374.3z
	 M200.8,35.3c-89.3,0-162,72.7-162,162s72.7,162,162,162s162-72.7,162-162S290.1,35.3,200.8,35.3L200.8,35.3z"/>
<g>
	<path class="st2" d="M222.7,109.7c-9.7-4.5-15.3-15.1-13.6-25.6C218.8,88.5,224.4,99.1,222.7,109.7z"/>
	<path d="M166.6,198.8c1.6,5.2,4,10.1,7.4,14.4h50.4c3.4-4.3,5.8-9.2,7.4-14.4H166.6L166.6,198.8z"/>
	<path d="M199.2,245.5c6.5-11.7,9.9-15.7,14.2-20.3H185C189.4,229.8,192.7,233.8,199.2,245.5z"/>
	<path d="M231.2,169.5c-9.6-7.1-20.4-14.1-32-20.9c-11.6,6.8-22.4,13.9-32,20.9c-1.9,5.5-2.8,11.4-2.6,17.3h69.1
		C234,180.9,233.1,175,231.2,169.5L231.2,169.5z"/>
	<path class="st3" d="M175.5,109.6c9.7-4.5,15.3-15,13.6-25.6C179.4,88.5,173.8,99.1,175.5,109.6z"/>
	<path d="M273,146.9c-1.6,1.5-1.7,4-0.2,5.6l0.5,0.6c22.9-19.5,36.6-34.7,29.8-46.6c-7.6-10.5-39.4-5.5-78.4,12
		c2-4,2.9-8.3,2.9-12.7c0-1.6-0.1-3.2-0.4-4.8c-0.9-5.6-3.6-11-7.9-15.3c-2.4-2.4-5-4.2-7.9-5.6l0.1-0.3h0l3-6.5c0.5-1,0-2.3-1-2.8
		c-1-0.5-2.3,0-2.8,1l-3.3,7.1c-5.4-1.7-11.2-1.7-16.6,0l-3.3-7.1c-0.5-1-1.7-1.5-2.8-1c-1,0.5-1.5,1.7-1,2.8l2.9,6.3l0.2,0.5
		c-2.9,1.4-5.5,3.2-7.9,5.6c-5.7,5.7-8.4,13.2-8.3,20.6c0.1,4,1,8.1,2.8,11.8c-10.1-4.5-66.1-27.7-77.4-11.9
		c-10.2,14.4,21.2,39.6,29.6,46.8l0.5-0.6c1.5-1.6,1.4-4.1-0.2-5.6c-4.1-3.9-10.6-10.3-15.1-16.5c-5.9-8.2-6.1-13.1-3.2-15.7
		c8.9-8.4,42,2.7,52.3,6.6c9.9,3.8,20.5,8.6,31.5,14.4c-52.5,30.4-88.1,66.8-79.7,81.3c5.3,9.1,27.2,7.9,55.4-2l-1-1.7
		c-1-1.6-2.8-2.3-4.6-1.8c-19.6,5.9-31.7,8.8-35.9,2.4c-5.9-10.2,23.9-45.3,70.3-72l3.5-2c1.2,0.6,2.4,1.3,3.5,2
		c46.4,26.8,76.2,61.8,70.3,72c-4.2,6.3-16.4,3.5-35.9-2.4c-1.8-0.5-3.6,0.2-4.6,1.8l-1,1.7c28.2,9.9,50.2,11.1,55.4,2
		c8.4-14.6-27.2-50.9-79.7-81.3c36.9-19.5,70.2-28.1,82.4-21.9C300.9,119.3,281.7,138.7,273,146.9L273,146.9z M175.5,109.6
		c-1.7-10.6,3.9-21.1,13.6-25.6C190.8,94.6,185.2,105.1,175.5,109.6z M222.7,109.6c-9.7-4.5-15.3-15-13.6-25.6
		C218.8,88.5,224.4,99.1,222.7,109.6z"/>
	<path class="st2" d="M175.5,109.6c-1.7-10.6,3.9-21.1,13.6-25.6C190.8,94.6,185.2,105.1,175.5,109.6z"/>
	<path class="st2" d="M127.2,150.6c0,0,0.8-2-1.1-3.9c-8.7-8.2-27.9-27.6-17-33.2c12.2-6.2,45.6,2.7,82.5,22.1
		c-18.6,10.8-31.4,19.7-44.9,30.6C131.8,155.3,129.1,152.8,127.2,150.6L127.2,150.6z"/>
	<path class="st2" d="M273.2,214.2c-4.2,6.3-16.4,3.5-35.9-2.4c-0.9-0.3-1.8-0.2-2.6,0.1c6-8.7,7.3-24.6,5.2-36.3c0,0,0-0.1,0-0.2
		c0,0,0-0.1,0-0.1c-0.6-4.6-1.6-8.2-2.8-9.8C263.1,186.5,277.5,206.9,273.2,214.2L273.2,214.2z"/>
	<path class="st2" d="M252.7,166.4c-13.2-11.1-26.5-20-45.2-30.8c36.9-19.5,70.2-28.1,82.4-21.9c11,5.6-8.3,25-17,33.2
		c-1.5,1.4-1.2,2.1-1.1,3.9C269.9,153.1,267.6,155.5,252.7,166.4L252.7,166.4z"/>
	<path class="st2" d="M162,165.3c-1.1,1.6-2.1,5.2-2.8,9.8c0,0,0,0,0,0.1c0,0.1,0,0.1,0,0.2c-2.1,11.6-0.8,27.6,5.2,36.3
		c-0.8-0.3-1.7-0.4-2.6-0.1c-19.6,5.9-31.7,8.8-35.9,2.4C121.5,206.6,136,186.2,162,165.3L162,165.3z"/>
</g>
<path d="M200.8,374.3c-97.6,0-177-79.4-177-177s79.4-177,177-177s177,79.4,177,177S298.4,374.3,200.8,374.3L200.8,374.3z
	 M200.8,35.3c-89.3,0-162,72.7-162,162s72.7,162,162,162s162-72.7,162-162S290.1,35.3,200.8,35.3L200.8,35.3z"/>
<path d="M200.8,374.3c-97.6,0-177-79.4-177-177s79.4-177,177-177s177,79.4,177,177S298.4,374.3,200.8,374.3L200.8,374.3z
	 M200.8,35.3c-89.3,0-162,72.7-162,162s72.7,162,162,162s162-72.7,162-162S290.1,35.3,200.8,35.3L200.8,35.3z"/>
<g>
	<path d="M580.5,33.1v146.2c0,3.3-2.8,6-6.3,6l-32.7-0.3c0-38.1,0-57.1,0-57.2c0-3.3-2.8-6-6.3-6H483c-3.5,0-6.3,2.7-6.3,6
		l-0.2,57.2c-31.2,0-32.6,0.3-32.6,0.3c-3.5,0-6.3-2.7-6.3-6V33.1c0-3.3,2.8-6,6.3-6l32.6,0.2c0,55.2,0.2,56.4,0.2,56.4
		c0,3.3,2.8,6,6.3,6h52.3c3.5,0,6.3-2.7,6.3-6l-0.1-56.5c36.5,0,32.8-0.1,32.8-0.1C577.7,27.1,580.5,29.8,580.5,33.1L580.5,33.1z"/>
	<path d="M620.7,45.4h23.5c3.1,0,5.5,2.4,5.5,5.3v129.5c0,2.9-2.5,5.4-5.5,5.4h-23.5c-3.1,0-5.5-2.4-5.5-5.4V50.7
		C615.1,47.8,617.6,45.4,620.7,45.4L620.7,45.4z"/>
	<path d="M813.9,52.5l-47,131.2c-0.8,2.2-2.9,3.6-5.2,3.6h-35.8c-2.4,0-4.5-1.4-5.2-3.6L673.4,52.5c-1.2-3.5,1.4-7.1,5.2-7.1h23.7
		c2.4,0,4.5,1.5,5.3,3.7l30.9,88.7c1.7,4.9,8.8,4.9,10.5,0l30.7-88.7c0.8-2.2,2.9-3.7,5.3-3.7h23.7C812.5,45.4,815.1,49,813.9,52.5
		L813.9,52.5z"/>
	<path d="M934.7,164.3v15.9c0,2.9-2.5,5.4-5.5,5.4h-86c-3.1,0-5.5-2.4-5.5-5.4V50.7c0-3,2.5-5.3,5.5-5.3h85c3.1,0,5.5,2.4,5.5,5.3
		v15.9c0,2.9-2.5,5.3-5.5,5.3h-50.5c-3.1,0-5.5,2.4-5.5,5.3c0,0-0.1-0.1-0.1,24.5c0,0-0.7,0.1,51.7,0.1l0,26.2
		c-54.1,0-51.9,0.2-51.9,0.2c0,25.7,0.2,25.3,0.2,25.3c0,2.9,2.5,5.4,5.5,5.4h51.5C932.2,159,934.7,161.4,934.7,164.3L934.7,164.3z"
		/>
	<path d="M1143.3,33.1v146.2c0,3.3-2.8,6-6.3,6h-26.5c-3.5,0-6.3-2.7-6.3-6l-0.4-92.9c0-5.9-35,43.9-35,43.9
		c-1.2,1.6-3.1,2.6-5.2,2.6h-12.9c-2.1,0-4-1-5.2-2.6c0,0-34.7-50.2-34.7-44.2l0.2,93.3c0,3.3-2.8,6-6.3,6h-26.5
		c-3.5,0-6.3-2.7-6.3-6V33.1c0-3.3,2.8-6,6.3-6h35.5c2.1,0,4,1,5.2,2.7l33.5,48.3c2.5,3.6,7.9,3.6,10.4,0l33.4-48.3
		c1.2-1.7,3.1-2.7,5.2-2.7h35.5C1140.5,27.1,1143.3,29.8,1143.3,33.1L1143.3,33.1z"/>
	<path d="M1330,143.4c-3.9,9.3-9.4,17.3-16.5,24c-2.4,2.2-2.5,5.9-0.3,8.3l21.6,22.8c-39.5,0-41.7,0.3-41.7,0.3
		c-1.8,0-3.6-0.8-4.8-2.1l-7.1-8c-1.5-1.7-4-2.4-6.3-1.9c-6.8,1.5-14.2,2.2-22.2,2.2c-18.2,0-33.7-3.6-46.4-10.8
		c-12.7-7.2-22.2-17-28.6-29.4c-6.4-12.5-9.5-26.6-9.5-42.3s3.2-29.4,9.5-41.8c6.3-12.4,15.9-22.2,28.6-29.6s28.2-11,46.4-11
		s33.2,3.7,45.9,11s22.3,17.2,28.7,29.7c6.4,12.5,9.6,26.4,9.6,41.7C1337,120,1334.7,132.3,1330,143.4L1330,143.4z M1219.6,143.3
		c7.7,9.3,18.7,13.9,33.2,13.9h0.4l-10.1-11.3c-3.5-3.9-0.6-10,4.7-10h26.8c1.8,0,3.5,0.8,4.7,2.1l0,0c2.8,3.1,7.1,5.8,9.2,2.2
		c1.8-3,4.2-9.4,5.4-12.9c2.2-6.5,3.2-13.6,3.2-21.4c0-9.6-1.7-18.2-5.2-25.7c-3.5-7.5-8.6-13.4-15.3-17.8
		c-6.7-4.3-14.7-6.5-23.9-6.5c-14.3,0-25.3,4.7-33,14c-7.7,9.3-11.6,21.5-11.6,36.6S1211.9,134,1219.6,143.3L1219.6,143.3z"/>
</g>
<path d="M36.1,207.2c2.2,10.7,88.1,68.1,177.3,78.4c89.2,10.3,141.9-23.9,141.9-23.9l-10.7,15.5c0,0-66.6,42-166.9,28.5
	C77.3,292.3,46,259,46,259S33.9,196.6,36.1,207.2L36.1,207.2z"/>
<path d="M67.2,291.8c0,0,62,34,145.9,31.6c83.9-2.4,129.5-38.9,129.5-38.9l-9.8,14c0,0-39.2,40.3-130.9,44.5
	c-55.4,2.6-94.1-5.5-94.1-5.5L67.2,291.8L67.2,291.8z"/>
</svg>
