<svg id="Logos" xmlns="http://www.w3.org/2000/svg" viewBox="0 0 1290 340"><path d="M158.59,308.26c-80.9,0-146.72-65.81-146.72-146.71S77.69,14.83,158.59,14.83,305.3,80.65,305.3,161.55,239.49,308.26,158.59,308.26Zm0-281c-74.06,0-134.32,60.26-134.32,134.32S84.53,295.86,158.59,295.86,292.9,235.61,292.9,161.55,232.65,27.23,158.59,27.23Z"/><circle cx="158.68" cy="161.07" r="135.44" style="fill:#ffc000"/><path d="M136.77,93.89a22,22,0,0,1,12.41-23.38A22.06,22.06,0,0,1,136.77,93.89Z" style="fill:#fff;fill-rule:evenodd"/><path d="M92.62,131.29a3.28,3.28,0,0,0-1-3.53c-7.95-7.5-25.5-25.24-15.49-30.34,11.14-5.67,41.61,2.44,75.33,20.22a302.1,302.1,0,0,0-41,27.92C96.82,135.58,94.39,133.36,92.62,131.29Z" style="fill:#fff;fill-rule:evenodd"/><path d="M226,189.39c-3.84,5.75-15,3.17-32.83-2.24a3.53,3.53,0,0,0-2.36.08c5.45-7.91,6.64-22.49,4.74-33.12a.34.34,0,0,1,0-.15.15.15,0,0,1,0-.08c-.58-4.17-1.49-7.46-2.54-8.93C216.7,164.05,229.93,182.69,226,189.39Z" style="fill:#fff;fill-rule:evenodd"/><path d="M207.22,145.78c-12-10.1-24.23-18.26-41.24-28.12,33.72-17.78,64.12-25.69,75.26-20,10,5.09-7.55,22.82-15.49,30.33-1.4,1.33-1.06,1.94-1,3.53C223,133.57,220.85,135.8,207.22,145.78Z" style="fill:#fff;fill-rule:evenodd"/><path d="M124.4,144.71c-1.05,1.46-2,4.75-2.54,8.92a.15.15,0,0,1,0,.08.39.39,0,0,1,0,.16c-1.9,10.62-.71,25.2,4.74,33.11a3.53,3.53,0,0,0-2.36-.08c-17.87,5.41-29,8-32.84,2.24C87.44,182.44,100.66,163.8,124.4,144.71Z" style="fill:#fff;fill-rule:evenodd"/><path d="M158.42,218c5.93-10.69,9-14.35,13-18.5H145.45C149.42,203.62,152.49,207.28,158.42,218Z"/><path d="M128.66,175.34a39.51,39.51,0,0,0,6.76,13.13h46a39.14,39.14,0,0,0,6.76-13.13Z"/><path d="M187.65,148.53a343.46,343.46,0,0,0-29.23-19.09,338.09,338.09,0,0,0-29.2,19.09,43.9,43.9,0,0,0-2.34,15.81H190A44.77,44.77,0,0,0,187.65,148.53Z"/><path d="M225.75,128a3.66,3.66,0,0,0-.17,5.12l.49.55c20.9-17.84,33.47-31.64,27.2-42.53-6.89-9.61-36-5-71.61,11a26.09,26.09,0,0,0,2.7-11.58,24.76,24.76,0,0,0-.38-4.38,25.53,25.53,0,0,0-7.2-14,25.25,25.25,0,0,0-7.22-5.08l.12-.27h0l2.74-6A1.9,1.9,0,0,0,169,59.27l-3,6.45a26,26,0,0,0-15.18,0l-3-6.45a1.9,1.9,0,0,0-3.45,1.59l2.66,5.75.22.45A26.11,26.11,0,0,0,135,101.76c-9.22-4.12-60.39-25.32-70.7-10.86C55,104,83.67,127.06,91.34,133.62l.5-.55a3.67,3.67,0,0,0-.16-5.12,116.77,116.77,0,0,1-13.8-15.1c-5.41-7.5-5.55-11.92-2.93-14.38,8.15-7.65,38.38,2.48,47.76,6a268.84,268.84,0,0,1,28.73,13.12c-47.92,27.78-80.48,61-72.78,74.28,4.81,8.34,24.86,7.25,50.61-1.83l-.93-1.52a3.59,3.59,0,0,0-4.18-1.61c-17.87,5.41-29,8-32.83,2.24-5.38-9.3,21.86-41.34,64.2-65.77l3.17-1.82c1.07.59,2.14,1.21,3.19,1.82,42.33,24.43,69.57,56.47,64.2,65.77-3.84,5.75-15,3.17-32.83-2.24a3.61,3.61,0,0,0-4.19,1.61l-.93,1.52c25.76,9.08,45.8,10.17,50.62,1.83,7.67-13.31-24.86-46.5-72.78-74.28,33.72-17.78,64.12-25.69,75.26-20C251.25,102.71,233.69,120.44,225.75,128Zm-89-34.06a22,22,0,0,1,12.41-23.38A22.06,22.06,0,0,1,136.77,93.89Zm43.12,0a22.05,22.05,0,0,1-12.41-23.38A22,22,0,0,1,179.89,93.91Z" style="fill-rule:evenodd"/><path d="M179.89,93.91a22.05,22.05,0,0,1-12.41-23.38A22,22,0,0,1,179.89,93.91Z" style="fill:#fff;fill-rule:evenodd"/><path d="M508.28,39.3V185.56a6.15,6.15,0,0,1-6.26,6l-32.71-.28c0-57.14,0-57.18,0-57.18a6.16,6.16,0,0,0-6.27-6H410.75a6.15,6.15,0,0,0-6.26,6l-.18,57.18c-31.17,0-32.56.28-32.56.28a6.15,6.15,0,0,1-6.26-6V39.3a6.15,6.15,0,0,1,6.26-6l32.56.18c0,55.25.18,56.44.18,56.44a6.15,6.15,0,0,0,6.26,6H463a6.16,6.16,0,0,0,6.27-6l-.09-56.51c36.51,0,32.83-.11,32.83-.11A6.15,6.15,0,0,1,508.28,39.3Z"/><path d="M548.5,51.59h23.44a5.45,5.45,0,0,1,5.55,5.35V186.46a5.45,5.45,0,0,1-5.55,5.35H548.5a5.45,5.45,0,0,1-5.55-5.35V56.94A5.45,5.45,0,0,1,548.5,51.59Z"/><path d="M741.7,58.69l-47,131.19a5.53,5.53,0,0,1-5.24,3.6H653.59a5.54,5.54,0,0,1-5.24-3.6L601.15,58.69a5.38,5.38,0,0,1,5.24-7.1h23.72a5.54,5.54,0,0,1,5.26,3.65l30.87,88.68a5.61,5.61,0,0,0,10.52,0l30.72-88.67a5.53,5.53,0,0,1,5.26-3.66h23.72A5.38,5.38,0,0,1,741.7,58.69Z"/><path d="M862.45,170.52v15.94a5.45,5.45,0,0,1-5.55,5.35h-86a5.45,5.45,0,0,1-5.55-5.35V56.94a5.46,5.46,0,0,1,5.55-5.35h85a5.45,5.45,0,0,1,5.55,5.35V72.88a5.45,5.45,0,0,1-5.55,5.35h-50.5a5.46,5.46,0,0,0-5.55,5.35s-.07-.08-.07,24.48c0,0-.7.09,51.74.09l.05,26.19c-54.15,0-51.9.2-51.9.2,0,25.73.18,25.29.18,25.29a5.46,5.46,0,0,0,5.55,5.35H856.9A5.44,5.44,0,0,1,862.45,170.52Z"/><path d="M1071.12,39.3V185.56a6.16,6.16,0,0,1-6.27,6h-26.47a6.15,6.15,0,0,1-6.26-6l-.37-92.92c0-5.92-35,43.92-35,43.92a6.33,6.33,0,0,1-5.15,2.61h-12.9a6.35,6.35,0,0,1-5.18-2.64S938.76,86.36,938.76,92.3l.18,93.26a6.15,6.15,0,0,1-6.26,6H906.2a6.15,6.15,0,0,1-6.26-6V39.3a6.15,6.15,0,0,1,6.26-6h35.46A6.33,6.33,0,0,1,946.87,36l33.45,48.28a6.4,6.4,0,0,0,10.42,0L1024.19,36a6.31,6.31,0,0,1,5.21-2.68h35.45A6.16,6.16,0,0,1,1071.12,39.3Z"/><path d="M1257.79,149.61a69.66,69.66,0,0,1-16.52,24,5.84,5.84,0,0,0-.29,8.26l21.63,22.83c-39.51,0-41.69.29-41.69.29a6.38,6.38,0,0,1-4.76-2.12l-7.09-8a6.5,6.5,0,0,0-6.28-1.93,104.57,104.57,0,0,1-22.24,2.22q-27.32,0-46.37-10.76a69.67,69.67,0,0,1-28.61-29.45q-9.54-18.69-9.53-42.3,0-23.19,9.53-41.78a71.1,71.1,0,0,1,28.61-29.55q19.07-11,46.37-11,26.87,0,45.94,11A71.72,71.72,0,0,1,1255.19,71q9.64,18.69,9.65,41.67A94.17,94.17,0,0,1,1257.79,149.61Zm-110.4-.1q11.49,13.89,33.16,13.89h.43l-10.13-11.32a6,6,0,0,1,4.74-10h26.8a6.36,6.36,0,0,1,4.73,2.08h0c2.81,3.12,7.05,5.79,9.16,2.19a88.12,88.12,0,0,0,5.44-12.94A67,67,0,0,0,1225,112a60.83,60.83,0,0,0-5.2-25.69,41,41,0,0,0-15.28-17.75q-10.08-6.48-23.94-6.48-21.46,0-33,14t-11.59,36.55Q1135.91,135.62,1147.39,149.51Z"/><path d="M420.7,266.23q-1.41,12.18-9,18.79t-20.11,6.62q-13.59,0-21.79-9.75t-8.2-26.09v-7.38a43.71,43.71,0,0,1,3.82-18.82,28.58,28.58,0,0,1,10.83-12.46,30.19,30.19,0,0,1,16.24-4.35q12.23,0,19.6,6.83t8.59,18.89H410.53q-1.32-9.19-5.72-13.32t-12.3-4.13q-9.7,0-15.21,7.18t-5.51,20.41v7.44q0,12.5,5.22,19.89a16.87,16.87,0,0,0,14.6,7.38q8.43,0,12.94-3.82t6-13.31Z"/><path d="M445.22,282.31h36.37v8.27H435.05V213.84h10.17Z"/><path d="M549.28,254.69a47.51,47.51,0,0,1-3.8,19.69,28.73,28.73,0,0,1-10.75,12.83,29.67,29.67,0,0,1-43.19-12.73,45.59,45.59,0,0,1-4-19.1v-5.54a46.82,46.82,0,0,1,3.85-19.55,28.46,28.46,0,0,1,27-17.5,29.82,29.82,0,0,1,16.26,4.45,28.72,28.72,0,0,1,10.83,12.92,47.69,47.69,0,0,1,3.8,19.68Zm-10.07-4.95q0-13.65-5.48-21t-15.34-7.3q-9.58,0-15.1,7.3t-5.66,20.26v5.64q0,13.23,5.55,20.79a18,18,0,0,0,15.32,7.57q9.79,0,15.18-7.15t5.53-20.47Z"/><path d="M619,213.84V266q-.06,10.86-6.83,17.76t-18.37,7.75l-2.68.11q-12.6,0-20.08-6.8t-7.59-18.71V213.84h10v52q0,8.32,4.58,12.94t13.08,4.61q8.58,0,13.15-4.58c3-3.06,4.56-7.36,4.56-12.92v-52Z"/><path d="M635.53,290.58V213.84h21.66a34.91,34.91,0,0,1,17.71,4.43,29.89,29.89,0,0,1,11.88,12.6A41,41,0,0,1,691,249.63v4.9a41.08,41.08,0,0,1-4.19,19,29.45,29.45,0,0,1-12,12.54,37,37,0,0,1-18.1,4.48Zm10.11-68.46v60.19h10.65q11.7,0,18.21-7.28T681,254.3v-4.49q0-13.08-6.14-20.33t-17.42-7.36Z"/><path d="M157.59,325.17a261.08,261.08,0,0,1-59.36-7.43h0c-27.32-6.66-43.14-21.6-43.39-37.49,0-14.66,11.14-22.08,31.65-23.93C90,244.17,105,232.5,122.58,232.25c6.4-.08,12.4,2.92,15.46,4.94,11.66-9.57,25-18,42.17-18,29,0,54.32,15.87,59.86,37.23,15.67,5.46,24.6,13.41,24.6,25.55,0,8.24-5.16,18.05-14.91,24.58-7.51,5-22.78,10.53-32.78,12.64A281.73,281.73,0,0,1,157.59,325.17Z"/><path d="M154.34,317.17c-24.46,0-47.06-4.72-55.65-6.75-22.78-5.39-37.64-17.3-37.85-30.34,0-4.11,0-15.22,25.92-17.49L90,262.3l.91-3.05c2.65-9,14.87-18.75,30-18.95h.2A23.9,23.9,0,0,1,133,244.11L136,246l2.73-2.17c9.73-7.74,21.77-15.65,37.3-15.65,25.27,0,47.89,13.34,52.63,31l.64,2.4,2.41.82c18.21,6.15,20.32,14,20.32,19.31,0,6.71-4.76,14.15-12.14,18.94-6.66,4.33-20.73,9.19-29.68,11A271.66,271.66,0,0,1,154.34,317.17Z" style="fill:#fff"/></svg>