<?xml version="1.0" encoding="UTF-8"?>
<svg id="Logos" xmlns="http://www.w3.org/2000/svg" viewBox="0 0 1290 340">
  <defs>
    <style>
      .cls-1 {
        fill: #ffc000;
      }

      .cls-2 {
        fill: #fff;
      }

      .cls-2, .cls-3 {
        fill-rule: evenodd;
      }
    </style>
  </defs>
  <g>
    <path d="M504.41,39.47V185.73c0,3.34-2.8,6.04-6.26,6.04l-32.71-.28q0-57.13-.03-57.18c0-3.34-2.8-6.04-6.26-6.04h-52.26c-3.46,0-6.26,2.7-6.26,6.04l-.18,57.18c-31.16,0-32.56,.28-32.56,.28-3.46,0-6.26-2.7-6.26-6.04V39.47c0-3.34,2.8-6.04,6.26-6.04l32.56,.19c0,55.24,.18,56.44,.18,56.44,0,3.34,2.8,6.04,6.26,6.04h52.26c3.46,0,6.26-2.7,6.26-6.04l-.09-56.52c36.51,0,32.83-.11,32.83-.11,3.46,0,6.26,2.7,6.26,6.04Z"/>
    <path d="M544.62,51.76h23.45c3.06,0,5.55,2.39,5.55,5.35V186.63c0,2.95-2.48,5.35-5.55,5.35h-23.45c-3.06,0-5.55-2.39-5.55-5.35V57.11c0-2.95,2.48-5.35,5.55-5.35Z"/>
    <path d="M737.83,58.86l-47.02,131.19c-.77,2.16-2.88,3.6-5.24,3.6h-35.85c-2.36,0-4.47-1.44-5.24-3.6l-47.2-131.19c-1.25-3.47,1.43-7.1,5.24-7.1h23.72c2.38,0,4.5,1.47,5.26,3.65l30.87,88.68c1.69,4.87,8.84,4.86,10.52,0l30.71-88.67c.76-2.18,2.88-3.65,5.26-3.65h23.72c3.81,0,6.49,3.62,5.24,7.09Z"/>
    <path d="M858.58,170.69v15.94c0,2.95-2.48,5.35-5.55,5.35h-86c-3.06,0-5.55-2.39-5.55-5.35V57.11c0-2.95,2.48-5.35,5.55-5.35h85.05c3.06,0,5.55,2.39,5.55,5.35v15.94c0,2.95-2.48,5.35-5.55,5.35h-50.5c-3.06,0-5.55,2.39-5.55,5.35,0,0-.07-.08-.07,24.48,0,0-.7,.09,51.74,.09l.04,26.19c-54.14,0-51.9,.2-51.9,.2,0,25.73,.19,25.29,.19,25.29,0,2.95,2.48,5.35,5.55,5.35h51.46c3.06,0,5.55,2.39,5.55,5.35Z"/>
    <path d="M1067.24,39.47V185.73c0,3.34-2.8,6.04-6.26,6.04h-26.47c-3.46,0-6.26-2.7-6.26-6.04l-.37-92.92c0-5.92-35.03,43.92-35.03,43.92-1.17,1.63-3.1,2.61-5.15,2.61h-12.9c-2.07,0-4.01-.99-5.18-2.64,0,0-34.73-50.17-34.73-44.22l.18,93.26c0,3.34-2.8,6.04-6.26,6.04h-26.48c-3.46,0-6.26-2.7-6.26-6.04V39.47c0-3.34,2.8-6.04,6.26-6.04h35.46c2.09,0,4.05,1.01,5.21,2.68l33.45,48.28c2.48,3.58,7.94,3.58,10.42,0l33.45-48.28c1.16-1.68,3.12-2.68,5.21-2.68h35.46c3.46,0,6.26,2.7,6.26,6.04Z"/>
    <path d="M1253.92,149.78c-3.92,9.31-9.43,17.3-16.53,23.98-2.37,2.23-2.48,5.87-.28,8.26l21.63,22.83c-39.51,0-41.69,.29-41.69,.29-1.83,0-3.57-.77-4.76-2.11l-7.09-7.99c-1.54-1.74-3.96-2.44-6.28-1.93-6.8,1.48-14.21,2.22-22.24,2.22-18.2,0-33.66-3.58-46.37-10.76-12.71-7.17-22.25-16.99-28.6-29.45-6.36-12.46-9.53-26.56-9.53-42.3s3.17-29.38,9.53-41.78c6.35-12.39,15.89-22.25,28.6-29.56,12.71-7.31,28.17-10.97,46.37-10.97s33.23,3.66,45.94,10.97c12.71,7.31,22.28,17.2,28.71,29.66,6.43,12.47,9.64,26.36,9.64,41.67,0,13.51-2.35,25.83-7.04,36.97Zm-110.4-.1c7.65,9.26,18.71,13.89,33.15,13.89h.44l-10.13-11.32c-3.5-3.91-.62-9.98,4.74-9.98h26.8c1.81,0,3.54,.76,4.73,2.08h0c2.81,3.12,7.05,5.79,9.16,2.19,1.77-3,4.24-9.37,5.43-12.94,2.17-6.48,3.25-13.61,3.25-21.41,0-9.61-1.74-18.17-5.2-25.69-3.47-7.52-8.56-13.44-15.27-17.76-6.72-4.31-14.7-6.48-23.95-6.48-14.3,0-25.32,4.67-33.04,13.99-7.73,9.33-11.6,21.51-11.6,36.55s3.83,27.61,11.49,36.87Z"/>
  </g>
  <g>
    <circle class="cls-1" cx="154.81" cy="166.24" r="135.44"/>
    <path d="M154.72,313.43c-80.9,0-146.72-65.82-146.72-146.72S73.82,20,154.72,20s146.72,65.82,146.72,146.72-65.82,146.72-146.72,146.72Zm0-281.03c-74.06,0-134.31,60.25-134.31,134.32s60.25,134.31,134.31,134.31,134.31-60.25,134.31-134.31S228.78,32.4,154.72,32.4Z"/>
    <g>
      <path class="cls-2" d="M133.51,128.09c-1.55-9.67,3.56-19.34,12.46-23.46,1.55,9.67-3.58,19.32-12.46,23.46Z"/>
      <path class="cls-2" d="M89.2,165.62s.76-1.85-1.02-3.54c-7.97-7.53-25.59-25.33-15.54-30.44,11.18-5.69,41.75,2.44,75.6,20.29-17.07,9.89-28.8,18.05-41.13,28.02-13.68-10.01-16.12-12.25-17.9-14.33Z"/>
      <path class="cls-2" d="M223.06,223.93c-3.86,5.77-15.02,3.18-32.95-2.25-.82-.24-1.63-.22-2.37,.08,5.47-7.94,6.67-22.56,4.76-33.23-.02-.04-.02-.1-.02-.16-.02-.04-.02-.06-.02-.08-.58-4.18-1.49-7.48-2.55-8.95,23.82,19.16,37.09,37.87,33.15,44.59Z"/>
      <path class="cls-2" d="M204.22,180.16c-12.06-10.13-24.32-18.33-41.39-28.22,33.85-17.85,64.35-25.79,75.53-20.1,10.05,5.11-7.58,22.9-15.54,30.44-1.41,1.33-1.07,1.94-1.02,3.54-1.78,2.08-3.9,4.31-17.58,14.33Z"/>
      <path class="cls-2" d="M121.1,179.09c-1.05,1.47-1.97,4.78-2.55,8.95,0,.02,0,.04-.02,.08,0,.06,0,.12-.02,.16-1.91,10.67-.72,25.29,4.76,33.23-.74-.3-1.55-.32-2.37-.08-17.93,5.43-29.09,8.02-32.95,2.25-3.94-6.73,9.33-25.43,33.15-44.59Z"/>
      <path d="M155.24,252.62c5.95-10.73,9.05-14.41,13.01-18.56h-26.03c3.98,4.16,7.06,7.84,13.01,18.56Z"/>
      <path d="M125.37,209.83c1.43,4.78,3.7,9.27,6.79,13.17h46.16c3.1-3.9,5.35-8.4,6.79-13.17h-59.73Z"/>
      <path d="M184.57,182.93c-8.83-6.47-18.7-12.95-29.33-19.16-10.63,6.21-20.5,12.7-29.31,19.16-1.75,5.05-2.53,10.49-2.35,15.86h63.32c.18-5.37-.6-10.81-2.33-15.86Z"/>
      <path class="cls-3" d="M222.82,162.28c-1.45,1.37-1.53,3.66-.18,5.13l.5,.56c20.97-17.91,33.59-31.76,27.3-42.68-6.92-9.65-36.1-5.07-71.87,11.02,1.81-3.64,2.71-7.64,2.71-11.62,0-1.47-.12-2.94-.38-4.4-.86-5.13-3.26-10.07-7.22-14.01-2.15-2.17-4.62-3.86-7.24-5.09l.12-.28h.02l2.75-5.97c.44-.96,.02-2.09-.94-2.53-.96-.44-2.09-.02-2.53,.94l-2.98,6.47c-4.95-1.51-10.29-1.51-15.24,0l-2.98-6.47c-.44-.96-1.57-1.37-2.53-.94-.96,.44-1.37,1.57-.94,2.53l2.67,5.77,.22,.46c-2.63,1.25-5.07,2.95-7.24,5.11-5.19,5.19-7.72,12.06-7.58,18.9,.06,3.7,.9,7.38,2.53,10.8-9.25-4.14-60.61-25.41-70.96-10.9-9.37,13.19,19.42,36.29,27.12,42.88l.5-.56c1.35-1.47,1.27-3.76-.16-5.13-3.78-3.56-9.71-9.43-13.85-15.16-5.43-7.52-5.57-11.96-2.94-14.43,8.18-7.68,38.52,2.49,47.93,6.07,9.03,3.46,18.78,7.88,28.83,13.17-48.09,27.88-80.77,61.19-73.05,74.54,4.84,8.38,24.95,7.28,50.8-1.83l-.94-1.53c-.88-1.45-2.57-2.11-4.2-1.61-17.93,5.43-29.09,8.02-32.95,2.25-5.39-9.33,21.95-41.49,64.43-66l3.18-1.83c1.07,.6,2.15,1.21,3.2,1.83,42.48,24.51,69.82,56.67,64.43,66-3.86,5.77-15.02,3.18-32.95-2.25-1.63-.5-3.32,.16-4.2,1.61l-.94,1.53c25.85,9.11,45.97,10.21,50.8,1.83,7.7-13.35-24.95-46.66-73.05-74.54,33.85-17.85,64.35-25.79,75.53-20.1,10.05,5.11-7.58,22.9-15.54,30.44Zm-89.3-34.19c-1.55-9.67,3.56-19.34,12.46-23.46,1.55,9.67-3.58,19.32-12.46,23.46Zm43.28,.02c-8.89-4.14-14.01-13.79-12.46-23.46,8.87,4.12,14.01,13.79,12.46,23.46Z"/>
      <path class="cls-2" d="M176.79,128.11c-8.89-4.14-14.01-13.79-12.46-23.46,8.87,4.12,14.01,13.79,12.46,23.46Z"/>
    </g>
  </g>
  <g>
    <path d="M388.43,257.48c-8.84-2.54-15.28-5.67-19.31-9.37s-6.04-8.28-6.04-13.72c0-6.16,2.46-11.25,7.39-15.28,4.92-4.03,11.32-6.04,19.2-6.04,5.37,0,10.16,1.04,14.37,3.12,4.21,2.08,7.47,4.94,9.78,8.59s3.46,7.65,3.46,11.98h-10.37c0-4.74-1.5-8.47-4.51-11.18-3.01-2.71-7.25-4.07-12.73-4.07-5.08,0-9.05,1.12-11.9,3.36-2.85,2.24-4.27,5.35-4.27,9.33,0,3.19,1.35,5.89,4.06,8.1,2.7,2.21,7.3,4.22,13.8,6.05,6.5,1.83,11.58,3.85,15.25,6.05,3.67,2.2,6.39,4.77,8.16,7.71,1.77,2.94,2.66,6.39,2.66,10.37,0,6.34-2.47,11.41-7.41,15.23s-11.55,5.72-19.82,5.72c-5.37,0-10.38-1.03-15.04-3.09-4.66-2.06-8.24-4.88-10.77-8.46-2.52-3.58-3.79-7.64-3.79-12.19h10.37c0,4.73,1.75,8.46,5.24,11.2s8.15,4.11,13.99,4.11c5.44,0,9.61-1.11,12.51-3.33,2.9-2.22,4.35-5.25,4.35-9.08s-1.34-6.79-4.03-8.89-7.56-4.16-14.61-6.2Z"/>
    <path d="M484.68,222.57h-25.14v69.77h-10.26v-69.77h-25.08v-8.43h60.48v8.43Z"/>
    <path d="M535.22,271.88h-32.76l-7.36,20.46h-10.63l29.86-78.2h9.02l29.92,78.2h-10.58l-7.47-20.46Zm-29.65-8.43h26.59l-13.32-36.58-13.27,36.58Z"/>
    <path d="M592.48,260.71h-18.37v31.64h-10.37v-78.2h25.89c8.81,0,15.58,2.01,20.33,6.02,4.74,4.01,7.12,9.85,7.12,17.51,0,4.87-1.32,9.11-3.95,12.73-2.63,3.62-6.29,6.32-10.98,8.11l18.37,33.19v.64h-11.06l-16.97-31.64Zm-18.37-8.43h15.84c5.12,0,9.19-1.33,12.22-3.98,3.03-2.65,4.54-6.21,4.54-10.65,0-4.84-1.44-8.55-4.32-11.14-2.88-2.58-7.05-3.89-12.49-3.93h-15.79v29.7Z"/>
    <path d="M681.26,222.57h-25.14v69.77h-10.26v-69.77h-25.08v-8.43h60.48v8.43Z"/>
    <path d="M737.07,256.2h-33.89v27.71h39.37v8.43h-49.68v-78.2h49.15v8.43h-38.83v25.19h33.89v8.43Z"/>
    <path d="M784.07,260.71h-18.37v31.64h-10.37v-78.2h25.89c8.81,0,15.58,2.01,20.33,6.02,4.74,4.01,7.12,9.85,7.12,17.51,0,4.87-1.32,9.11-3.95,12.73-2.63,3.62-6.29,6.32-10.98,8.11l18.37,33.19v.64h-11.06l-16.97-31.64Zm-18.37-8.43h15.84c5.12,0,9.19-1.33,12.22-3.98,3.03-2.65,4.54-6.21,4.54-10.65,0-4.84-1.44-8.55-4.32-11.14-2.88-2.58-7.05-3.89-12.49-3.93h-15.79v29.7Z"/>
  </g>
</svg>