<svg id="Logos" xmlns="http://www.w3.org/2000/svg" viewBox="0 0 650 650"><path d="M325,622.6C160.91,622.6,27.4,489.1,27.4,325S160.91,27.4,325,27.4,622.6,160.91,622.6,325,489.09,622.6,325,622.6Zm0-570C174.77,52.56,52.56,174.78,52.56,325S174.77,597.44,325,597.44,597.44,475.23,597.44,325,475.23,52.56,325,52.56Z" style="fill:#fff"/><path d="M325,76.25C187.84,76.25,76.25,187.84,76.25,325S187.84,573.75,325,573.75,573.75,462.16,573.75,325,462.16,76.25,325,76.25Zm1,402.25c-11.43-20.62-17.36-27.69-25-35.68h50C343.39,450.81,337.43,457.88,326,478.5Zm-44.36-56.91a75.76,75.76,0,0,1-13-25.32H383.4a75.4,75.4,0,0,1-13,25.32Zm-16.48-46.54a84.63,84.63,0,0,1,4.51-30.48A649.86,649.86,0,0,1,326,307.74a655.38,655.38,0,0,1,56.37,36.83,85.72,85.72,0,0,1,4.48,30.48Zm191.33-59.24-1-1.07a7,7,0,0,1,.34-9.87c15.3-14.49,49.18-48.68,29.87-58.51-21.5-10.94-80.12,4.32-145.18,38.62C433,338.56,495.76,402.58,481,428.25c-9.3,16.1-48,14-97.64-3.52l1.8-3a7,7,0,0,1,8.07-3.1c34.46,10.45,55.91,15.42,63.33,4.33,10.36-17.94-42.18-79.74-123.83-126.86-2-1.18-4.1-2.37-6.16-3.52l-6.12,3.52C238.76,343.27,186.21,405.07,196.58,423c7.42,11.09,28.87,6.12,63.33-4.33a7,7,0,0,1,8.07,3.1l1.79,3c-49.67,17.51-88.34,19.62-97.63,3.52-14.84-25.67,48-89.69,140.39-143.27a516.84,516.84,0,0,0-55.41-25.31C239,252.78,180.7,233.24,165,248c-5.05,4.74-4.78,13.27,5.66,27.73,7.95,11,19.35,22.3,26.61,29.14a7.07,7.07,0,0,1,.31,9.87l-1,1.07c-14.8-12.66-70.14-57.06-52.12-82.42,19.88-27.88,118.59,13,136.38,21a50.08,50.08,0,0,1,23.63-66.93l-.42-.88L299,175.45a3.66,3.66,0,0,1,6.66-3.06l5.74,12.43a50.39,50.39,0,0,1,29.29,0l5.74-12.43a3.66,3.66,0,0,1,6.65,3.06l-5.28,11.48h0l-.23.53a48.74,48.74,0,0,1,13.92,9.79,49.32,49.32,0,0,1,13.88,26.93,47.9,47.9,0,0,1,.73,8.45,50.21,50.21,0,0,1-5.2,22.33C439.58,224,495.64,215.23,509,233.78,521,254.77,496.79,281.39,456.48,315.81Z" style="fill:#fff"/><path d="M343.47,194.08a42.51,42.51,0,0,0,23.94,45.09A42.52,42.52,0,0,0,343.47,194.08Z" style="fill:#fff"/><path d="M284.23,239.17a42.55,42.55,0,0,0,23.94-45.09A42.48,42.48,0,0,0,284.23,239.17Z" style="fill:#fff"/><path d="M308.17,194.08a42.55,42.55,0,0,1-23.94,45.09" style="fill:#fff;fill-rule:evenodd"/></svg>