<svg id="Icon" xmlns="http://www.w3.org/2000/svg" viewBox="0 0 200 200"><defs><style>.cls-1{fill:none;stroke:#fff;stroke-miterlimit:10;stroke-width:4.25px;}</style></defs><title>hivemq-set</title><path class="cls-1" d="M119,43.16A40,40,0,0,0,82.68,65.29a7.11,7.11,0,0,1-9.55,3.11,23.88,23.88,0,0,0-22.79,1c-6.81,4.09-11.92,11.5-11.92,23.53a7.1,7.1,0,0,1-5.92,7C19.55,102,10,115.26,10,128.42c0,15.84,12.18,28.42,33.16,28.42H159.21a30.83,30.83,0,0,0,6-61.06,7.1,7.1,0,0,1-5.78-7.7C161.67,66,144.26,43.16,119,43.16Z"/></svg>