<svg version="1.0" xmlns="http://www.w3.org/2000/svg" viewBox="0 0 1484.7 745"><path fill="#333" stroke="#000" stroke-miterlimit="10" d="M918.9 531h-69.5c-3.4 0-6.2-2.8-6.2-6.2V177.2c0-3.4 2.8-6.2 6.2-6.2h69.5c3.4 0 6.2 2.8 6.2 6.2v347.5c.1 3.5-2.7 6.3-6.2 6.3z"/><g fill="#FFF"><path d="M895.6 198.1v-8.4h-5.7v9.9h-3.5v-14.3h21.3v14.3h-3.6v-9.9H899v8.4h-3.4zM897.4 208.6l4.7 2.7v4.5l-7.8-4.5-8.1 4.7v-4.5l5-2.8-5-2.8v-4.6l8.1 4.7 7.8-4.5v4.5l-4.7 2.6zM906.1 223.7h-3.9v2.7h-3.1v-2.7h-7.9c-.6 0-1 .1-1.3.3s-.4.7-.4 1.3c0 .5 0 .9.1 1.2h-3.2c-.3-.8-.4-1.7-.4-2.6 0-3 1.5-4.5 4.5-4.5h8.5v-2.3h3.1v2.3h3.9v4.3zM886 236.8c0-2.3.7-4.2 2.1-5.7s3.3-2.2 5.7-2.2h.4c1.6 0 3 .3 4.3.9 1.3.6 2.2 1.5 2.9 2.6.7 1.1 1 2.4 1 3.9 0 2.2-.7 3.9-2.1 5.1s-3.3 1.9-5.8 1.9h-1.7v-10.1c-1 .1-1.9.5-2.5 1.2s-.9 1.6-.9 2.6c0 1.6.6 2.9 1.8 3.8l-2.3 2.1c-.9-.6-1.6-1.5-2.1-2.6-.5-1-.8-2.2-.8-3.5zm13-.5c0-.8-.3-1.5-.9-2s-1.4-.9-2.4-1v5.9h.3c.9 0 1.7-.3 2.2-.8s.8-1.2.8-2.1zM902.2 250.4l-1.8.1c1.4 1.1 2.1 2.7 2.1 4.6 0 1.7-.5 2.9-1.5 3.8s-2.5 1.2-4.4 1.3h-10.2V256h10.1c.9 0 1.5-.2 2-.6s.6-1 .6-1.9c0-1.2-.5-2.1-1.5-2.7h-11.2v-4.2h15.8v3.8zM890.7 272.6c.5 0 .9-.3 1.2-.8.3-.5.6-1.3.8-2.5.8-3.8 2.4-5.7 4.8-5.7 1.4 0 2.6.6 3.5 1.8s1.4 2.7 1.4 4.6c0 2-.5 3.6-1.4 4.8s-2.2 1.8-3.7 1.8v-4.2c.6 0 1.1-.2 1.5-.6.4-.4.6-1 .6-1.8 0-.7-.2-1.3-.5-1.7s-.7-.6-1.2-.6-.8.2-1.1.7-.5 1.2-.7 2.2c-.2 1.1-.4 1.9-.7 2.7-.8 2.2-2.2 3.4-4.3 3.4-1.4 0-2.6-.6-3.5-1.9-.9-1.2-1.3-2.8-1.3-4.8 0-1.3.2-2.5.7-3.5.5-1 1.1-1.8 1.9-2.4s1.7-.9 2.7-.9v4c-.8 0-1.3.3-1.7.8s-.6 1.2-.6 2.1c0 .8.2 1.4.5 1.8.2.5.6.7 1.1.7zM886.3 284.7v-4.2h15.8v4.2h-15.8zm20-4.5c.6 0 1.2.2 1.6.6s.6 1 .6 1.7-.2 1.3-.6 1.7-.9.6-1.6.6c-.6 0-1.2-.2-1.6-.7s-.6-1-.6-1.7.2-1.3.6-1.7.9-.5 1.6-.5zM894.4 288.3c1.6 0 3 .3 4.2.9s2.2 1.5 2.9 2.6 1 2.5 1 4c0 2.1-.7 3.9-2 5.2s-3.1 2.1-5.3 2.3h-1.1c-2.4 0-4.4-.7-5.9-2-1.5-1.4-2.2-3.2-2.2-5.5s.7-4.1 2.2-5.5 3.5-2 6-2h.2zm-.3 4.2c-1.5 0-2.7.3-3.5.8s-1.2 1.4-1.2 2.4.4 1.8 1.2 2.4c.8.6 2 .9 3.8.9 1.5 0 2.6-.3 3.4-.9s1.2-1.4 1.2-2.4-.4-1.8-1.2-2.4c-.8-.5-2-.8-3.7-.8zM902.2 310.5l-1.8.1c1.4 1.1 2.1 2.7 2.1 4.6 0 1.7-.5 2.9-1.5 3.8s-2.5 1.2-4.4 1.3h-10.2V316h10.1c.9 0 1.5-.2 2-.6s.6-1 .6-1.9c0-1.2-.5-2.1-1.5-2.7h-11.2v-4.2h15.8v3.9zM890.7 332.8c.5 0 .9-.3 1.2-.8.3-.5.6-1.3.8-2.5.8-3.8 2.4-5.7 4.8-5.7 1.4 0 2.6.6 3.5 1.8s1.4 2.7 1.4 4.6c0 2-.5 3.6-1.4 4.8s-2.2 1.8-3.7 1.8v-4.2c.6 0 1.1-.2 1.5-.6.4-.4.6-1 .6-1.8 0-.7-.2-1.3-.5-1.7s-.7-.6-1.2-.6-.8.2-1.1.7-.5 1.2-.7 2.2c-.2 1.1-.4 1.9-.7 2.7-.8 2.2-2.2 3.4-4.3 3.4-1.4 0-2.6-.6-3.5-1.9-.9-1.2-1.3-2.8-1.3-4.8 0-1.3.2-2.5.7-3.5.5-1 1.1-1.8 1.9-2.4s1.7-.9 2.7-.9v4c-.8 0-1.3.3-1.7.8s-.6 1.2-.6 2.1c0 .8.2 1.4.5 1.8.2.5.6.7 1.1.7zM895 361.7v-8.4h-8.7v-4.4h21.3v13.9H904v-9.5h-5.5v8.4H895zM898.2 374.3c.1-.6.1-1.1.1-1.5 0-1.6-.5-2.7-1.6-3.1h-10.4v-4.2h15.8v4l-1.9.1c1.5.8 2.2 2 2.2 3.5 0 .5-.1.9-.2 1.3l-4-.1zM886.3 385.8c.4-.2.9-.3 1.4-.4-1.1-1-1.7-2.4-1.7-4s.4-2.8 1.3-3.9 2-1.5 3.4-1.5c1.7 0 3 .6 3.9 1.9s1.4 3 1.4 5.4v1.9h.9c.7 0 1.3-.2 1.8-.6s.7-1 .7-1.8c0-.7-.2-1.3-.5-1.7s-.8-.6-1.4-.6v-4.2c.9 0 1.8.3 2.5.8s1.4 1.4 1.8 2.4c.4 1 .7 2.2.7 3.5 0 2-.5 3.5-1.5 4.7-1 1.1-2.4 1.7-4.1 1.7H890c-1.5 0-2.6.2-3.4.6h-.2v-4.2zm3-3.5c0 .6.1 1.2.4 1.7.3.5.7.9 1.1 1.2h2.7v-1.6c0-2.1-.7-3.2-2.2-3.4h-.2c-.5 0-1 .2-1.3.6s-.5.9-.5 1.5zM902.2 397.4l-1.8.1c1.4 1.1 2.1 2.6 2.1 4.6 0 2-.8 3.4-2.4 4.2 1.6 1.1 2.4 2.7 2.4 4.8 0 1.7-.5 3-1.5 3.8s-2.5 1.3-4.5 1.3h-10.1V412h10.1c.9 0 1.6-.2 2-.5.4-.4.6-1 .6-1.9 0-1.3-.6-2.1-1.8-2.6h-10.9v-4.2h10.1c.9 0 1.6-.2 2-.5s.6-1 .6-1.8c0-1.2-.5-2.1-1.5-2.6h-11.2v-4.2h15.8v3.7zM886 427.5c0-2.3.7-4.2 2.1-5.7s3.3-2.2 5.7-2.2h.4c1.6 0 3 .3 4.3.9 1.3.6 2.2 1.5 2.9 2.6.7 1.1 1 2.4 1 3.9 0 2.2-.7 3.9-2.1 5.1s-3.3 1.9-5.8 1.9h-1.7v-10.1c-1 .1-1.9.5-2.5 1.2s-.9 1.6-.9 2.6c0 1.6.6 2.9 1.8 3.8l-2.3 2.1c-.9-.6-1.6-1.5-2.1-2.6-.5-1-.8-2.2-.8-3.5zm13-.5c0-.8-.3-1.5-.9-2s-1.4-.9-2.4-1v5.9h.3c.9 0 1.7-.3 2.2-.8s.8-1.2.8-2.1zM892.1 450.9l10.1 2.1v4.1l-15.8-4v-3.5l10-3-10-3V440l15.8-4v4.1l-10.1 2.1 10.1 2.9v3.1l-10.1 2.7zM894.4 459.3c1.6 0 3 .3 4.2.9s2.2 1.5 2.9 2.6 1 2.5 1 4c0 2.1-.7 3.9-2 5.2s-3.1 2.1-5.3 2.3h-1.1c-2.4 0-4.4-.7-5.9-2-1.5-1.4-2.2-3.2-2.2-5.5s.7-4.1 2.2-5.5 3.5-2 6-2h.2zm-.3 4.2c-1.5 0-2.7.3-3.5.8s-1.2 1.4-1.2 2.4.4 1.8 1.2 2.4c.8.6 2 .9 3.8.9 1.5 0 2.6-.3 3.4-.9s1.2-1.4 1.2-2.4-.4-1.8-1.2-2.4c-.8-.5-2-.8-3.7-.8zM898.2 486.6c.1-.6.1-1.1.1-1.5 0-1.6-.5-2.7-1.6-3.1h-10.4v-4.2h15.8v4l-1.9.1c1.5.8 2.2 2 2.2 3.5 0 .5-.1.9-.2 1.3l-4-.1zM892.7 495.1l-1.5-1.5h-4.8v-4.2h22.5v4.2h-12.5l1.1.8 4.8 4.1v5.1l-6.6-5.7-9.2 6.2v-4.9l6.2-4.1z"/></g><path fill="none" stroke="#000" stroke-miterlimit="10" d="M944.2 238.5h166.9"/><path d="M947 242.2l-1.5-3.7 1.5-3.7-8.7 3.7zM1108.3 242.2l1.6-3.7-1.6-3.7 8.8 3.7z"/><path fill="#333" stroke="#000" stroke-miterlimit="10" d="M1173.1 531h-44.8c-2.8 0-5.1-2.3-5.1-5.1V176.1c0-2.8 2.3-5.1 5.1-5.1h44.8c2.8 0 5.1 2.3 5.1 5.1v349.8c0 2.8-2.3 5.1-5.1 5.1z"/><g fill="#FFF"><path d="M1138.3 284.9h21.3v7.5c0 2.6-.5 4.6-1.5 5.9-1 1.3-2.4 2-4.4 2-1 0-2-.3-2.8-.8-.8-.5-1.4-1.3-1.8-2.2-.3 1.1-.8 2-1.7 2.6s-1.8.9-3 .9c-2.1 0-3.6-.7-4.7-2s-1.6-3.2-1.6-5.6v-8.3zm9.3 4.4h-5.8v3.8c0 1 .2 1.8.7 2.4s1.2.9 2 .9c2 0 2.9-1 3-3v-4.1zm3.1 0v3.3c0 2.2.9 3.3 2.7 3.3 1 0 1.7-.3 2.1-.8.4-.6.6-1.4.6-2.7v-3.1h-5.4zM1138.3 313.7c.4-.2.9-.3 1.4-.4-1.1-1-1.7-2.4-1.7-4s.4-2.8 1.3-3.9 2-1.5 3.4-1.5c1.7 0 3 .6 3.9 1.9s1.4 3 1.4 5.4v1.9h.9c.7 0 1.3-.2 1.8-.6s.7-1 .7-1.8c0-.7-.2-1.3-.5-1.7s-.8-.6-1.4-.6v-4.2c.9 0 1.8.3 2.5.8s1.4 1.4 1.8 2.4c.4 1 .7 2.2.7 3.5 0 2-.5 3.5-1.5 4.7-1 1.1-2.4 1.7-4.1 1.7h-6.9c-1.5 0-2.6.2-3.4.6h-.2v-4.2zm3-3.5c0 .6.1 1.2.4 1.7.3.5.7.9 1.1 1.2h2.7v-1.6c0-2.1-.7-3.2-2.2-3.4h-.2c-.5 0-1 .2-1.3.6s-.5.9-.5 1.5zM1141.4 328c0 .8.2 1.4.6 1.9s1 .7 1.7.8v4c-1.1 0-2.1-.3-3-.9-.9-.6-1.6-1.4-2.1-2.4s-.7-2.1-.7-3.3c0-2.3.7-4.1 2.2-5.4s3.4-2 6-2h.3c2.4 0 4.4.6 5.8 1.9s2.2 3.1 2.2 5.3c0 2-.6 3.6-1.7 4.8-1.1 1.2-2.6 1.8-4.5 1.8v-4c.8 0 1.5-.3 2-.8s.8-1.1.8-1.9c0-1-.4-1.7-1.1-2.2s-1.9-.8-3.5-.8h-.4c-1.6 0-2.8.2-3.5.7-.7.7-1.1 1.5-1.1 2.5zM1144.7 343.5l-1.5-1.5h-4.8v-4.2h22.5v4.2h-12.5l1.1.8 4.8 4.1v5.1l-6.6-5.7-9.2 6.2v-4.9l6.2-4.1zM1138 361.6c0-2.3.7-4.2 2.1-5.7s3.3-2.2 5.7-2.2h.4c1.6 0 3 .3 4.3.9 1.3.6 2.2 1.5 2.9 2.6.7 1.1 1 2.4 1 3.9 0 2.2-.7 3.9-2.1 5.1s-3.3 1.9-5.8 1.9h-1.7V358c-1 .1-1.9.5-2.5 1.2s-.9 1.6-.9 2.6c0 1.6.6 2.9 1.8 3.8l-2.3 2.1c-.9-.6-1.6-1.5-2.1-2.6-.5-1-.8-2.2-.8-3.5zm13-.5c0-.8-.3-1.5-.9-2s-1.4-.9-2.4-1v5.9h.3c.9 0 1.7-.3 2.2-.8s.8-1.2.8-2.1zM1154.2 375.1l-1.8.1c1.4 1.1 2.1 2.7 2.1 4.6 0 1.7-.5 2.9-1.5 3.8s-2.5 1.2-4.4 1.3h-10.2v-4.2h10.1c.9 0 1.5-.2 2-.6s.6-1 .6-1.9c0-1.2-.5-2.1-1.5-2.7h-11.2v-4.2h15.8v3.8zM1146.4 388.1c2.5 0 4.4.6 5.9 1.7s2.2 2.6 2.2 4.5c0 1.5-.6 2.8-1.7 3.8h8.1v4.2h-22.5v-3.8l1.7-.2c-1.3-1.1-2-2.4-2-4.1 0-1.9.7-3.4 2.2-4.5 1.4-1 3.4-1.6 6.1-1.6zm-.4 4.3c-1.5 0-2.6.3-3.4.8-.8.5-1.2 1.3-1.2 2.3 0 1.3.6 2.2 1.7 2.8h6.3c1.1-.5 1.7-1.4 1.7-2.7-.1-2.2-1.7-3.2-5.1-3.2z"/></g><path fill="#CCD8E2" stroke="#000" stroke-miterlimit="10" d="M566.2 171h302v360h-302z"/><g stroke-width="1.417" stroke-miterlimit="10"><path fill="#003E6E" stroke="#FFF" d="M564.7 569.4h888v69.4h-888z"/><path opacity=".8" fill="#003E6E" stroke="#FFF" d="M564.7 637.6h888v69.2h-888z"/><path fill="#FFF" stroke="#000" d="M482.6 347.9h53.5v14.3l25.9-38.4-25.9-38.3v14.3h-63.4M464.7 299.8h-65v-14.3l-27.1 38.3 27.1 38.4v-14.3h76.2"/></g><g><path fill="#FFC000" d="M505.8 18.1h465v77.6h-465z"/><path opacity=".8" fill="#FFC000" d="M25.7 18.1h465v77.6h-465zM986.7 18.1h465v77.6h-465z"/><path d="M203.7 66.3V43.5h7c2 0 3.8.5 5.4 1.4 1.6.9 2.8 2.2 3.7 3.8.9 1.7 1.3 3.5 1.3 5.7v1c0 2.1-.4 4-1.3 5.6-.9 1.6-2.1 2.9-3.7 3.8-1.6.9-3.4 1.4-5.4 1.4h-7zm4.7-19v15.2h2.3c1.8 0 3.2-.6 4.2-1.8 1-1.2 1.5-2.9 1.5-5.1v-1.2c0-2.3-.5-4.1-1.4-5.3-1-1.2-2.4-1.8-4.2-1.8h-2.4zM232 66.6c-2.5 0-4.5-.8-6.1-2.3-1.6-1.5-2.3-3.5-2.3-6.1v-.4c0-1.7.3-3.2 1-4.6.7-1.3 1.6-2.4 2.8-3.1 1.2-.7 2.6-1.1 4.1-1.1 2.3 0 4.1.7 5.5 2.2 1.3 1.5 2 3.5 2 6.2v1.8h-10.8c.1 1.1.6 2 1.3 2.7.7.7 1.7 1 2.8 1 1.7 0 3.1-.6 4.1-1.9l2.2 2.5c-.7 1-1.6 1.7-2.8 2.2s-2.4.9-3.8.9zm-.5-13.9c-.9 0-1.6.3-2.2.9-.6.6-.9 1.5-1.1 2.6h6.3v-.4c0-1-.3-1.8-.8-2.3-.5-.5-1.3-.8-2.2-.8zM247.6 60.8l3.1-11.4h4.7l-5.7 16.9h-4.3l-5.7-16.9h4.7l3.2 11.4zM257.4 45c0-.7.2-1.2.7-1.7s1.1-.7 1.9-.7c.8 0 1.4.2 1.8.7.5.4.7 1 .7 1.7s-.2 1.2-.7 1.7c-.5.4-1.1.7-1.8.7-.8 0-1.4-.2-1.8-.7-.5-.5-.8-1-.8-1.7zm4.8 21.3h-4.5V49.4h4.5v16.9zM273 62.9c.8 0 1.5-.2 2-.7.5-.5.8-1.1.8-1.8h4.2c0 1.1-.3 2.2-.9 3.1-.6 1-1.5 1.7-2.5 2.2-1.1.5-2.2.8-3.5.8-2.4 0-4.3-.8-5.7-2.3-1.4-1.5-2.1-3.7-2.1-6.4v-.3c0-2.6.7-4.7 2.1-6.2 1.4-1.6 3.3-2.3 5.7-2.3 2.1 0 3.8.6 5.1 1.8 1.3 1.2 1.9 2.8 1.9 4.8h-4.2c0-.9-.3-1.6-.8-2.1s-1.2-.8-2.1-.8c-1.1 0-1.8.4-2.4 1.2-.5.8-.8 2-.8 3.7v.4c0 1.7.3 3 .8 3.8.5.8 1.3 1.1 2.4 1.1zM290.4 66.6c-2.5 0-4.5-.8-6.1-2.3-1.6-1.5-2.3-3.5-2.3-6.1v-.4c0-1.7.3-3.2 1-4.6.7-1.3 1.6-2.4 2.8-3.1 1.2-.7 2.6-1.1 4.1-1.1 2.3 0 4.1.7 5.5 2.2 1.3 1.5 2 3.5 2 6.2v1.8h-10.8c.1 1.1.6 2 1.3 2.7.7.7 1.7 1 2.8 1 1.7 0 3.1-.6 4.1-1.9l2.2 2.5c-.7 1-1.6 1.7-2.8 2.2s-2.4.9-3.8.9zm-.5-13.9c-.9 0-1.6.3-2.2.9-.6.6-.9 1.5-1.1 2.6h6.3v-.4c0-1-.3-1.8-.8-2.3-.5-.5-1.2-.8-2.2-.8zM309.1 61.6c0-.6-.3-1-.8-1.3-.5-.3-1.4-.6-2.6-.9-4-.8-6-2.6-6-5.1 0-1.5.6-2.8 1.9-3.8 1.2-1 2.9-1.5 4.9-1.5 2.1 0 3.9.5 5.1 1.5 1.3 1 1.9 2.3 1.9 3.9H309c0-.6-.2-1.2-.6-1.6-.4-.4-1.1-.6-2-.6-.8 0-1.3.2-1.8.5-.4.3-.6.8-.6 1.3s.2.9.7 1.2c.5.3 1.3.6 2.4.8 1.1.2 2.1.5 2.8.8 2.4.9 3.6 2.4 3.6 4.5 0 1.5-.7 2.8-2 3.7-1.3 1-3 1.4-5.1 1.4-1.4 0-2.7-.3-3.8-.8-1.1-.5-2-1.2-2.6-2.1-.6-.9-.9-1.8-.9-2.9h4.3c0 .8.3 1.4.9 1.8.6.4 1.3.6 2.2.6.9 0 1.5-.2 2-.5.4.1.6-.4.6-.9zM634.6 66.3H630v-9.8h-9.1v9.8h-4.7V43.5h4.7v9.2h9.1v-9.2h4.7v22.8zM638.4 45c0-.7.2-1.2.7-1.7s1.1-.7 1.9-.7c.8 0 1.4.2 1.8.7.5.4.7 1 .7 1.7s-.2 1.2-.7 1.7c-.5.4-1.1.7-1.8.7-.8 0-1.4-.2-1.8-.7-.6-.5-.8-1-.8-1.7zm4.8 21.3h-4.5V49.4h4.5v16.9zM653.2 60.8l3.1-11.4h4.7l-5.7 16.9H651l-5.7-16.9h4.7l3.2 11.4zM670.7 66.6c-2.5 0-4.5-.8-6.1-2.3-1.6-1.5-2.3-3.5-2.3-6.1v-.4c0-1.7.3-3.2 1-4.6.7-1.3 1.6-2.4 2.8-3.1 1.2-.7 2.6-1.1 4.1-1.1 2.3 0 4.1.7 5.5 2.2 1.3 1.5 2 3.5 2 6.2v1.8h-10.8c.1 1.1.6 2 1.3 2.7.7.7 1.7 1 2.8 1 1.7 0 3.1-.6 4.1-1.9l2.2 2.5c-.7 1-1.6 1.7-2.8 2.2s-2.4.9-3.8.9zm-.5-13.9c-.9 0-1.6.3-2.2.9-.6.6-.9 1.5-1.1 2.6h6.3v-.4c0-1-.3-1.8-.8-2.3-.5-.5-1.3-.8-2.2-.8zM686.6 43.5l5.8 16.5 5.8-16.5h6.2v22.8h-4.7v-6.2l.5-10.7-6.1 17h-3.2l-6.1-16.9.5 10.7v6.2h-4.7V43.5h6zM727.2 55.4c0 2.1-.3 4-1 5.5-.7 1.6-1.6 2.8-2.9 3.8l3.8 3-3 2.6-4.8-3.9c-.6.1-1.1.1-1.7.1-1.9 0-3.6-.5-5-1.4-1.5-.9-2.6-2.2-3.4-3.9-.8-1.7-1.2-3.6-1.2-5.8v-1.1c0-2.2.4-4.2 1.2-5.9.8-1.7 1.9-3 3.4-3.9 1.5-.9 3.2-1.4 5.1-1.4 1.9 0 3.6.5 5.1 1.4 1.5.9 2.6 2.2 3.4 3.9.8 1.7 1.2 3.7 1.2 5.9v1.1zm-4.8-1c0-2.4-.4-4.2-1.3-5.4-.9-1.2-2.1-1.9-3.7-1.9s-2.8.6-3.6 1.8c-.9 1.2-1.3 3-1.3 5.4v1.1c0 2.3.4 4.1 1.3 5.4.9 1.3 2.1 1.9 3.7 1.9s2.8-.6 3.6-1.9 1.3-3 1.3-5.4v-1zM743.3 58.3v8h-4.7V43.5h8.9c1.7 0 3.2.3 4.5.9s2.3 1.5 3 2.7c.7 1.2 1 2.5 1 3.9 0 2.2-.8 4-2.3 5.3-1.5 1.3-3.6 1.9-6.3 1.9h-4.1zm0-3.8h4.2c1.2 0 2.2-.3 2.8-.9.7-.6 1-1.4 1-2.5s-.3-2-1-2.7-1.6-1-2.7-1.1h-4.3v7.2zM763.7 66.3h-4.5v-24h4.5v24zM777.2 66.3c-.2-.4-.4-.9-.5-1.5-1.1 1.2-2.5 1.8-4.3 1.8-1.7 0-3-.5-4.1-1.4-1.1-1-1.6-2.2-1.6-3.6 0-1.8.7-3.2 2-4.1 1.3-1 3.2-1.4 5.8-1.5h2.1v-1c0-.8-.2-1.4-.6-1.9-.4-.5-1-.7-1.9-.7-.8 0-1.4.2-1.8.5-.4.4-.6.9-.6 1.5h-4.5c0-1 .3-1.9.9-2.7.6-.8 1.5-1.5 2.6-2s2.3-.7 3.7-.7c2.1 0 3.7.5 5 1.6 1.2 1 1.8 2.5 1.8 4.4v7.3c0 1.6.2 2.8.7 3.6v.3h-4.7zm-3.7-3.2c.7 0 1.3-.1 1.8-.4s1-.7 1.2-1.2v-2.9h-1.7c-2.3 0-3.5.8-3.6 2.3v.3c0 .6.2 1 .6 1.4.4.3 1 .5 1.7.5zM790 45.2v4.2h2.9v3.3H790v8.4c0 .6.1 1.1.4 1.3.2.3.7.4 1.4.4.5 0 .9 0 1.3-.1v3.4c-.9.3-1.8.4-2.7.4-3.2 0-4.8-1.6-4.8-4.8v-9.1H783v-3.3h2.5v-4.2h4.5zM796.6 66.3V52.7h-2.5v-3.3h2.5V48c0-1.9.5-3.4 1.6-4.4 1.1-1 2.6-1.6 4.6-1.6.6 0 1.4.1 2.3.3v3.5c-.4-.1-.8-.1-1.4-.1-1.7 0-2.5.8-2.5 2.4v1.4h3.4v3.3h-3.4v13.6h-4.6zM806.1 57.7c0-1.7.3-3.2 1-4.5.6-1.3 1.6-2.3 2.8-3 1.2-.7 2.6-1.1 4.2-1.1 2.3 0 4.1.7 5.6 2.1 1.4 1.4 2.2 3.3 2.4 5.7v1.2c0 2.6-.7 4.7-2.2 6.2-1.4 1.6-3.4 2.4-5.8 2.4s-4.4-.8-5.8-2.3-2.2-3.7-2.2-6.4v-.3zm4.6.3c0 1.6.3 2.8.9 3.7.6.9 1.5 1.3 2.6 1.3s1.9-.4 2.6-1.3c.6-.8.9-2.2.9-4 0-1.6-.3-2.8-.9-3.7-.6-.9-1.5-1.3-2.6-1.3s-2 .4-2.6 1.3c-.6.8-.9 2.2-.9 4zM834.4 53.6c-.6-.1-1.2-.1-1.6-.1-1.7 0-2.8.6-3.4 1.7v11.1h-4.5V49.4h4.3l.1 2c.9-1.6 2.2-2.3 3.8-2.3.5 0 1 .1 1.4.2l-.1 4.3zM840.8 49.4l.1 1.9c1.2-1.5 2.8-2.2 4.9-2.2 2.2 0 3.7.9 4.5 2.6 1.2-1.7 2.9-2.6 5.1-2.6 1.8 0 3.2.5 4.1 1.6.9 1.1 1.3 2.7 1.3 4.8v10.8h-4.5V55.5c0-1-.2-1.7-.6-2.1-.4-.4-1-.7-2-.7-1.4 0-2.3.6-2.8 1.9v11.6h-4.5V55.5c0-1-.2-1.7-.6-2.1-.4-.4-1-.7-2-.7-1.3 0-2.2.5-2.8 1.6v12h-4.5V49.4h4.3zM1161.1 56.4h-9v6.1h10.6v3.8h-15.2V43.5h15.2v3.8h-10.5v5.4h9v3.7zM1169.2 49.4l.1 2c1.2-1.5 2.8-2.3 4.9-2.3 1.8 0 3.1.5 4 1.6.9 1.1 1.3 2.6 1.3 4.7v10.9h-4.5V55.5c0-1-.2-1.7-.6-2.1-.4-.4-1.1-.6-2.1-.6-1.3 0-2.2.5-2.9 1.6v11.9h-4.5V49.4h4.3zM1188.4 45.2v4.2h2.9v3.3h-2.9v8.4c0 .6.1 1.1.4 1.3.2.3.7.4 1.4.4.5 0 .9 0 1.3-.1v3.4c-.9.3-1.8.4-2.7.4-3.2 0-4.8-1.6-4.8-4.8v-9.1h-2.5v-3.3h2.5v-4.2h4.4zM1201.6 66.6c-2.5 0-4.5-.8-6.1-2.3-1.6-1.5-2.3-3.5-2.3-6.1v-.4c0-1.7.3-3.2 1-4.6.7-1.3 1.6-2.4 2.8-3.1 1.2-.7 2.6-1.1 4.1-1.1 2.3 0 4.1.7 5.5 2.2 1.3 1.5 2 3.5 2 6.2v1.8h-10.8c.1 1.1.6 2 1.3 2.7.7.7 1.7 1 2.8 1 1.7 0 3.1-.6 4.1-1.9l2.2 2.5c-.7 1-1.6 1.7-2.8 2.2s-2.4.9-3.8.9zm-.5-13.9c-.9 0-1.6.3-2.2.9-.6.6-.9 1.5-1.1 2.6h6.3v-.4c0-1-.3-1.8-.8-2.3-.5-.5-1.3-.8-2.2-.8zM1220.6 53.6c-.6-.1-1.2-.1-1.6-.1-1.7 0-2.8.6-3.4 1.7v11.1h-4.5V49.4h4.3l.1 2c.9-1.6 2.2-2.3 3.8-2.3.5 0 1 .1 1.4.2l-.1 4.3zM1238 58c0 2.6-.6 4.7-1.8 6.3-1.2 1.6-2.8 2.4-4.8 2.4-1.7 0-3.1-.6-4.1-1.8v8h-4.5V49.4h4.2l.2 1.7c1.1-1.3 2.5-2 4.3-2 2.1 0 3.7.8 4.9 2.3 1.2 1.5 1.7 3.7 1.7 6.4v.2zm-4.5-.4c0-1.6-.3-2.8-.8-3.6-.6-.9-1.4-1.3-2.4-1.3-1.4 0-2.4.5-2.9 1.6v6.9c.6 1.1 1.5 1.7 3 1.7 2 0 3.1-1.7 3.1-5.3zM1250.3 53.6c-.6-.1-1.2-.1-1.6-.1-1.7 0-2.8.6-3.4 1.7v11.1h-4.5V49.4h4.3l.1 2c.9-1.6 2.2-2.3 3.8-2.3.5 0 1 .1 1.4.2l-.1 4.3zM1252.4 45c0-.7.2-1.2.7-1.7s1.1-.7 1.9-.7c.8 0 1.4.2 1.8.7.5.4.7 1 .7 1.7s-.2 1.2-.7 1.7c-.5.4-1.1.7-1.8.7-.8 0-1.4-.2-1.8-.7-.5-.5-.8-1-.8-1.7zm4.8 21.3h-4.5V49.4h4.5v16.9zM1270.1 61.6c0-.6-.3-1-.8-1.3-.5-.3-1.4-.6-2.6-.9-4-.8-6-2.6-6-5.1 0-1.5.6-2.8 1.9-3.8 1.2-1 2.9-1.5 4.9-1.5 2.1 0 3.9.5 5.1 1.5 1.3 1 1.9 2.3 1.9 3.9h-4.5c0-.6-.2-1.2-.6-1.6-.4-.4-1.1-.6-2-.6-.8 0-1.3.2-1.8.5-.4.3-.6.8-.6 1.3s.2.9.7 1.2c.5.3 1.3.6 2.4.8 1.1.2 2.1.5 2.8.8 2.4.9 3.6 2.4 3.6 4.5 0 1.5-.7 2.8-2 3.7-1.3 1-3 1.4-5.1 1.4-1.4 0-2.7-.3-3.8-.8-1.1-.5-2-1.2-2.6-2.1-.6-.9-.9-1.8-.9-2.9h4.3c0 .8.3 1.4.9 1.8.6.4 1.3.6 2.2.6.9 0 1.5-.2 2-.5.4.1.6-.4.6-.9zM1285.2 66.6c-2.5 0-4.5-.8-6.1-2.3-1.6-1.5-2.3-3.5-2.3-6.1v-.4c0-1.7.3-3.2 1-4.6.7-1.3 1.6-2.4 2.8-3.1 1.2-.7 2.6-1.1 4.1-1.1 2.3 0 4.1.7 5.5 2.2 1.3 1.5 2 3.5 2 6.2v1.8h-10.8c.1 1.1.6 2 1.3 2.7.7.7 1.7 1 2.8 1 1.7 0 3.1-.6 4.1-1.9l2.2 2.5c-.7 1-1.6 1.7-2.8 2.2s-2.4.9-3.8.9zm-.5-13.9c-.9 0-1.6.3-2.2.9-.6.6-.9 1.5-1.1 2.6h6.3v-.4c0-1-.3-1.8-.8-2.3-.5-.5-1.3-.8-2.2-.8z"/><g><path d="M984.5 189.5v6.7h-2.2v-17.1h6.3c1.9 0 3.3.5 4.4 1.4s1.6 2.2 1.6 3.8c0 1.7-.5 2.9-1.6 3.8s-2.5 1.3-4.4 1.3h-4.1zm0-1.8h4c1.2 0 2.1-.3 2.8-.9.6-.6 1-1.4 1-2.5 0-1-.3-1.8-1-2.4s-1.5-.9-2.6-1h-4.2v6.8zM1003 185.5c-.3-.1-.7-.1-1.1-.1-1.4 0-2.4.6-2.9 1.8v9h-2.2v-12.7h2.1v1.5c.7-1.1 1.7-1.7 3-1.7.4 0 .7.1 1 .2v2zM1003.9 189.7c0-1.2.2-2.4.7-3.4s1.2-1.8 2-2.3 1.9-.8 3-.8c1.7 0 3.1.6 4.2 1.8s1.6 2.8 1.6 4.8v.2c0 1.2-.2 2.3-.7 3.3s-1.1 1.7-2 2.3-1.9.8-3 .8c-1.7 0-3.1-.6-4.2-1.8s-1.6-2.8-1.6-4.7v-.2zm2.2.3c0 1.4.3 2.5 1 3.4s1.5 1.3 2.6 1.3 2-.4 2.6-1.3 1-2.1 1-3.6c0-1.4-.3-2.5-1-3.4s-1.5-1.3-2.6-1.3-1.9.4-2.6 1.3-1 2-1 3.6zM1020.9 180.4v3.1h2.4v1.7h-2.4v7.9c0 .5.1.9.3 1.1.2.3.6.4 1.1.4.2 0 .6 0 1-.1v1.7c-.6.2-1.1.2-1.7.2-1 0-1.7-.3-2.2-.9s-.7-1.4-.7-2.5v-7.9h-2.3v-1.7h2.3v-3.1h2.2zM1024.7 189.7c0-1.2.2-2.4.7-3.4s1.2-1.8 2-2.3 1.9-.8 3-.8c1.7 0 3.1.6 4.2 1.8s1.6 2.8 1.6 4.8v.2c0 1.2-.2 2.3-.7 3.3s-1.1 1.7-2 2.3-1.9.8-3 .8c-1.7 0-3.1-.6-4.2-1.8s-1.6-2.8-1.6-4.7v-.2zm2.2.3c0 1.4.3 2.5 1 3.4s1.5 1.3 2.6 1.3 2-.4 2.6-1.3 1-2.1 1-3.6c0-1.4-.3-2.5-1-3.4s-1.5-1.3-2.6-1.3-1.9.4-2.6 1.3-1 2-1 3.6zM1043.8 194.7c.8 0 1.4-.2 2-.7s.9-1.1 1-1.8h2.1c0 .7-.3 1.4-.8 2.1s-1.1 1.2-1.8 1.6-1.6.6-2.4.6c-1.7 0-3.1-.6-4.1-1.7s-1.5-2.7-1.5-4.7v-.4c0-1.2.2-2.3.7-3.3s1.1-1.7 2-2.2 1.8-.8 3-.8c1.4 0 2.6.4 3.5 1.3s1.4 2 1.5 3.3h-2.1c-.1-.8-.4-1.5-.9-2s-1.2-.8-2.1-.8c-1.1 0-2 .4-2.6 1.2s-.9 1.9-.9 3.4v.4c0 1.5.3 2.6.9 3.4s1.4 1.1 2.5 1.1zM1050.5 189.7c0-1.2.2-2.4.7-3.4s1.2-1.8 2-2.3 1.9-.8 3-.8c1.7 0 3.1.6 4.2 1.8s1.6 2.8 1.6 4.8v.2c0 1.2-.2 2.3-.7 3.3s-1.1 1.7-2 2.3-1.9.8-3 .8c-1.7 0-3.1-.6-4.2-1.8s-1.6-2.8-1.6-4.7v-.2zm2.2.3c0 1.4.3 2.5 1 3.4s1.5 1.3 2.6 1.3 2-.4 2.6-1.3 1-2.1 1-3.6c0-1.4-.3-2.5-1-3.4s-1.5-1.3-2.6-1.3-1.9.4-2.6 1.3-1 2-1 3.6zM1066.9 196.2h-2.2v-18h2.2v18zM975.4 225h-2.2v-17.1h2.2V225zM981 212.3l.1 1.6c1-1.2 2.2-1.8 3.8-1.8 2.7 0 4 1.5 4.1 4.5v8.4h-2.2v-8.4c0-.9-.2-1.6-.6-2s-1-.7-1.9-.7c-.7 0-1.3.2-1.9.6s-.9.9-1.2 1.5v9H979v-12.7h2zM994.9 209.2v3.1h2.4v1.7h-2.4v7.9c0 .5.1.9.3 1.1.2.3.6.4 1.1.4.2 0 .6 0 1-.1v1.7c-.6.2-1.1.2-1.7.2-1 0-1.7-.3-2.2-.9s-.7-1.4-.7-2.5V214h-2.3v-1.7h2.3v-3.1h2.2zM1004.8 225.2c-1.7 0-3.1-.6-4.2-1.7s-1.6-2.6-1.6-4.5v-.4c0-1.3.2-2.4.7-3.4s1.2-1.8 2-2.3 1.8-.8 2.8-.8c1.6 0 2.9.5 3.8 1.6s1.4 2.6 1.4 4.7v.9h-8.6c0 1.2.4 2.3 1.1 3s1.6 1.2 2.7 1.2c.8 0 1.4-.2 1.9-.5s1-.7 1.4-1.2l1.3 1c-1 1.6-2.6 2.4-4.7 2.4zm-.3-11.3c-.9 0-1.6.3-2.2 1s-1 1.5-1.1 2.7h6.4v-.2c-.1-1.1-.4-2-.9-2.6s-1.3-.9-2.2-.9zM1011.5 218.6c0-2 .5-3.5 1.4-4.7s2.1-1.8 3.6-1.8 2.8.5 3.6 1.6l.1-1.4h2v12.4c0 1.6-.5 2.9-1.5 3.9s-2.3 1.4-3.9 1.4c-.9 0-1.8-.2-2.7-.6s-1.5-.9-2-1.6l1.1-1.3c.9 1.1 2.1 1.7 3.4 1.7 1.1 0 1.9-.3 2.5-.9s.9-1.4.9-2.5v-1.1c-.9 1-2.1 1.5-3.6 1.5s-2.7-.6-3.6-1.8-1.3-2.8-1.3-4.8zm2.2.2c0 1.4.3 2.6.9 3.4s1.4 1.2 2.5 1.2c1.4 0 2.4-.6 3-1.9v-5.8c-.7-1.2-1.7-1.8-3-1.8-1.1 0-1.9.4-2.5 1.2s-.9 2.1-.9 3.7zM1031.4 214.3c-.3-.1-.7-.1-1.1-.1-1.4 0-2.4.6-2.9 1.8v9h-2.2v-12.7h2.1v1.5c.7-1.1 1.7-1.7 3-1.7.4 0 .7.1 1 .2v2zM1040.5 225c-.1-.2-.2-.7-.3-1.3-1 1-2.2 1.6-3.6 1.6-1.2 0-2.3-.4-3.1-1.1s-1.2-1.6-1.2-2.7c0-1.3.5-2.3 1.5-3.1s2.4-1.1 4.2-1.1h2.1v-1c0-.8-.2-1.4-.7-1.8s-1.1-.7-2-.7c-.8 0-1.4.2-1.9.6s-.8.9-.8 1.4h-2.2c0-.6.2-1.2.7-1.8s1.1-1.1 1.8-1.4 1.6-.5 2.5-.5c1.5 0 2.6.4 3.4 1.1s1.3 1.7 1.3 3v5.8c0 1.2.1 2.1.4 2.8v.2h-2.1zm-3.6-1.7c.7 0 1.3-.2 1.9-.5s1.1-.8 1.3-1.4v-2.6h-1.7c-2.7 0-4 .8-4 2.3 0 .7.2 1.2.7 1.6s1.1.6 1.8.6zM1048.4 209.2v3.1h2.4v1.7h-2.4v7.9c0 .5.1.9.3 1.1.2.3.6.4 1.1.4.2 0 .6 0 1-.1v1.7c-.6.2-1.1.2-1.7.2-1 0-1.7-.3-2.2-.9s-.7-1.4-.7-2.5V214h-2.3v-1.7h2.3v-3.1h2.2zM1053.1 209c0-.4.1-.6.3-.9s.5-.4 1-.4.7.1 1 .4.3.5.3.9-.1.6-.3.9-.5.4-1 .4-.7-.1-1-.4-.3-.6-.3-.9zm2.3 16h-2.2v-12.7h2.2V225zM1058.1 218.5c0-1.2.2-2.4.7-3.4s1.2-1.8 2-2.3 1.9-.8 3-.8c1.7 0 3.1.6 4.2 1.8s1.6 2.8 1.6 4.8v.2c0 1.2-.2 2.3-.7 3.3s-1.1 1.7-2 2.3-1.9.8-3 .8c-1.7 0-3.1-.6-4.2-1.8s-1.6-2.8-1.6-4.7v-.2zm2.2.3c0 1.4.3 2.5 1 3.4s1.5 1.3 2.6 1.3 2-.4 2.6-1.3 1-2.1 1-3.6c0-1.4-.3-2.5-1-3.4s-1.5-1.3-2.6-1.3-1.9.4-2.6 1.3-1 2-1 3.6zM1074.2 212.3l.1 1.6c1-1.2 2.2-1.8 3.8-1.8 2.7 0 4 1.5 4.1 4.5v8.4h-2.2v-8.4c0-.9-.2-1.6-.6-2s-1-.7-1.9-.7c-.7 0-1.3.2-1.9.6s-.9.9-1.2 1.5v9h-2.2v-12.7h2z"/></g><g fill="#FFF"><path d="M721.9 676.2v6.7h-2.2v-17.1h6.3c1.9 0 3.3.5 4.4 1.4s1.6 2.2 1.6 3.8c0 1.7-.5 2.9-1.6 3.8s-2.5 1.3-4.4 1.3h-4.1zm0-1.9h4c1.2 0 2.1-.3 2.8-.9.6-.6 1-1.4 1-2.5 0-1-.3-1.8-1-2.4s-1.5-.9-2.6-1h-4.2v6.8zM742.1 681.6c-.8 1-2.1 1.5-3.7 1.5-1.4 0-2.4-.4-3.1-1.2s-1.1-1.9-1.1-3.5v-8.2h2.2v8.2c0 1.9.8 2.9 2.3 2.9 1.7 0 2.8-.6 3.3-1.9v-9.2h2.2v12.7h-2.1v-1.3zM758 676.6c0 1.9-.4 3.5-1.3 4.7s-2.1 1.8-3.6 1.8c-1.6 0-2.8-.6-3.7-1.7l-.1 1.5h-2v-18h2.2v6.7c.9-1.1 2.1-1.6 3.6-1.6s2.7.6 3.6 1.7 1.3 2.8 1.3 4.8v.1zm-2.2-.2c0-1.5-.3-2.6-.9-3.4s-1.4-1.2-2.5-1.2c-1.4 0-2.5.7-3.1 2v5.5c.7 1.3 1.7 2 3.1 2 1 0 1.8-.4 2.4-1.2s1-2.1 1-3.7zM762.8 682.8h-2.2v-18h2.2v18zM766.1 666.8c0-.4.1-.6.3-.9s.5-.4 1-.4.7.1 1 .4.3.5.3.9-.1.6-.3.9-.5.4-1 .4-.7-.1-1-.4-.3-.6-.3-.9zm2.3 16h-2.2v-12.7h2.2v12.7zM776.7 681.3c.8 0 1.4-.2 2-.7s.9-1.1 1-1.8h2.1c0 .7-.3 1.4-.8 2.1s-1.1 1.2-1.8 1.6-1.6.6-2.4.6c-1.7 0-3.1-.6-4.1-1.7s-1.5-2.7-1.5-4.7v-.4c0-1.2.2-2.3.7-3.3s1.1-1.7 2-2.2 1.8-.8 3-.8c1.4 0 2.6.4 3.5 1.3s1.4 2 1.5 3.3h-2.1c-.1-.8-.4-1.5-.9-2s-1.2-.8-2.1-.8c-1.1 0-2 .4-2.6 1.2s-.9 1.9-.9 3.4v.4c0 1.5.3 2.6.9 3.4s1.4 1.1 2.5 1.1zM789.1 676.4c0-1.2.2-2.4.7-3.4s1.2-1.8 2-2.3 1.9-.8 3-.8c1.7 0 3.1.6 4.2 1.8s1.6 2.8 1.6 4.8v.2c0 1.2-.2 2.3-.7 3.3s-1.1 1.7-2 2.3-1.9.8-3 .8c-1.7 0-3.1-.6-4.2-1.8s-1.6-2.8-1.6-4.7v-.2zm2.2.2c0 1.4.3 2.5 1 3.4s1.5 1.3 2.6 1.3 2-.4 2.6-1.3 1-2.1 1-3.6c0-1.4-.3-2.5-1-3.4s-1.5-1.3-2.6-1.3-1.9.4-2.6 1.3-1 2.1-1 3.6zM809.2 672.1c-.3-.1-.7-.1-1.1-.1-1.4 0-2.4.6-2.9 1.8v9H803v-12.7h2.1v1.5c.7-1.1 1.7-1.7 3-1.7.4 0 .7.1 1 .2v2zM827.4 676.6c0 1.9-.4 3.5-1.3 4.7s-2.1 1.8-3.6 1.8-2.8-.5-3.6-1.5v6.1h-2.2v-17.6h2l.1 1.4c.9-1.1 2.1-1.6 3.7-1.6 1.5 0 2.7.6 3.6 1.7s1.3 2.7 1.3 4.8v.2zm-2.2-.2c0-1.4-.3-2.6-.9-3.4s-1.4-1.2-2.5-1.2c-1.3 0-2.3.6-3 1.7v6.1c.6 1.2 1.6 1.7 3 1.7 1 0 1.9-.4 2.5-1.2s.9-2.1.9-3.7zM836 672.1c-.3-.1-.7-.1-1.1-.1-1.4 0-2.4.6-2.9 1.8v9h-2.2v-12.7h2.1v1.5c.7-1.1 1.7-1.7 3-1.7.4 0 .7.1 1 .2v2zM837.8 666.8c0-.4.1-.6.3-.9s.5-.4 1-.4.7.1 1 .4.3.5.3.9-.1.6-.3.9-.5.4-1 .4-.7-.1-1-.4-.3-.6-.3-.9zm2.3 16H838v-12.7h2.2v12.7zM847.6 679.9l3.1-9.7h2.2l-4.5 12.7h-1.7l-4.6-12.7h2.2l3.3 9.7zM862.4 682.8c-.1-.2-.2-.7-.3-1.3-1 1-2.2 1.6-3.6 1.6-1.2 0-2.3-.4-3.1-1.1s-1.2-1.6-1.2-2.7c0-1.3.5-2.3 1.5-3.1s2.4-1.1 4.2-1.1h2.1v-1c0-.8-.2-1.4-.7-1.8s-1.1-.7-2-.7c-.8 0-1.4.2-1.9.6s-.8.9-.8 1.4h-2.2c0-.6.2-1.2.7-1.8s1.1-1.1 1.8-1.4 1.6-.5 2.5-.5c1.5 0 2.6.4 3.4 1.1s1.3 1.7 1.3 3v5.8c0 1.2.1 2.1.4 2.8v.2h-2.1zm-3.6-1.6c.7 0 1.3-.2 1.9-.5s1.1-.8 1.3-1.4v-2.6h-1.7c-2.7 0-4 .8-4 2.3 0 .7.2 1.2.7 1.6s1.1.6 1.8.6zM870.3 667.1v3.1h2.4v1.7h-2.4v7.9c0 .5.1.9.3 1.1.2.3.6.4 1.1.4.2 0 .6 0 1-.1v1.7c-.6.2-1.1.2-1.7.2-1 0-1.7-.3-2.2-.9s-.7-1.4-.7-2.5v-7.9h-2.3v-1.7h2.3V667h2.2zM880.3 683.1c-1.7 0-3.1-.6-4.2-1.7s-1.6-2.6-1.6-4.5v-.4c0-1.3.2-2.4.7-3.4s1.2-1.8 2-2.3 1.8-.8 2.8-.8c1.6 0 2.9.5 3.8 1.6s1.4 2.6 1.4 4.7v.9h-8.6c0 1.2.4 2.3 1.1 3s1.6 1.2 2.7 1.2c.8 0 1.4-.2 1.9-.5s1-.7 1.4-1.2l1.3 1c-1 1.6-2.6 2.4-4.7 2.4zm-.3-11.4c-.9 0-1.6.3-2.2 1s-1 1.5-1.1 2.7h6.4v-.2c-.1-1.1-.4-2-.9-2.6s-1.3-.9-2.2-.9zM898.3 681.3c.8 0 1.4-.2 2-.7s.9-1.1 1-1.8h2.1c0 .7-.3 1.4-.8 2.1s-1.1 1.2-1.8 1.6-1.6.6-2.4.6c-1.7 0-3.1-.6-4.1-1.7s-1.5-2.7-1.5-4.7v-.4c0-1.2.2-2.3.7-3.3s1.1-1.7 2-2.2 1.8-.8 3-.8c1.4 0 2.6.4 3.5 1.3s1.4 2 1.5 3.3h-2.1c-.1-.8-.4-1.5-.9-2s-1.2-.8-2.1-.8c-1.1 0-2 .4-2.6 1.2s-.9 1.9-.9 3.4v.4c0 1.5.3 2.6.9 3.4s1.3 1.1 2.5 1.1zM907.9 682.8h-2.2v-18h2.2v18zM910.5 676.4c0-1.2.2-2.4.7-3.4s1.2-1.8 2-2.3 1.9-.8 3-.8c1.7 0 3.1.6 4.2 1.8s1.6 2.8 1.6 4.8v.2c0 1.2-.2 2.3-.7 3.3s-1.1 1.7-2 2.3-1.9.8-3 .8c-1.7 0-3.1-.6-4.2-1.8s-1.6-2.8-1.6-4.7v-.2zm2.2.2c0 1.4.3 2.5 1 3.4s1.5 1.3 2.6 1.3 2-.4 2.6-1.3 1-2.1 1-3.6c0-1.4-.3-2.5-1-3.4s-1.5-1.3-2.6-1.3-1.9.4-2.6 1.3-1 2.1-1 3.6zM932.4 681.6c-.8 1-2.1 1.5-3.7 1.5-1.4 0-2.4-.4-3.1-1.2s-1.1-1.9-1.1-3.5v-8.2h2.2v8.2c0 1.9.8 2.9 2.3 2.9 1.7 0 2.8-.6 3.3-1.9v-9.2h2.2v12.7h-2.1v-1.3zM937 676.4c0-1.9.5-3.5 1.4-4.7s2.1-1.8 3.6-1.8 2.7.5 3.5 1.5v-6.6h2.2v18h-2l-.1-1.4c-.9 1.1-2.1 1.6-3.6 1.6s-2.7-.6-3.6-1.8-1.4-2.8-1.4-4.7v-.1zm2.2.2c0 1.4.3 2.6.9 3.4s1.4 1.2 2.5 1.2c1.4 0 2.4-.6 3-1.9v-5.8c-.6-1.2-1.6-1.8-3-1.8-1.1 0-1.9.4-2.5 1.2s-.9 2.1-.9 3.7zM956.4 675.9c0-1.8.2-3.5.7-5.1s1.2-3.1 2.1-4.4 1.9-2.3 2.9-2.8l.4 1.4c-1.1.9-2.1 2.2-2.8 4s-1.1 3.8-1.2 6v1c0 3 .6 5.6 1.7 7.9.7 1.3 1.5 2.4 2.4 3.1l-.4 1.3c-1-.6-2-1.5-3-2.9-1.8-2.6-2.8-5.8-2.8-9.5zM974.2 678.4h-7.1l-1.6 4.5h-2.3l6.5-17.1h2l6.5 17.1h-2.3l-1.7-4.5zm-6.4-1.9h5.8l-2.9-8-2.9 8zM983.1 677.5l.3 2.2.5-2 3.4-11.9h1.9l3.3 11.9.5 2.1.4-2.3 2.6-11.7h2.3l-4.1 17.1H992l-3.5-12.4-.3-1.3-.3 1.3-3.6 12.4h-2.1l-4.1-17.1h2.2l2.8 11.7zM1005.5 675.2c-1.9-.6-3.3-1.2-4.2-2s-1.3-1.8-1.3-3c0-1.3.5-2.5 1.6-3.3s2.5-1.3 4.2-1.3c1.2 0 2.2.2 3.1.7s1.6 1.1 2.1 1.9.8 1.7.8 2.6h-2.3c0-1-.3-1.8-1-2.4s-1.6-.9-2.8-.9c-1.1 0-2 .2-2.6.7-.6.5-.9 1.2-.9 2 0 .7.3 1.3.9 1.8.6.5 1.6.9 3 1.3s2.5.8 3.3 1.3 1.4 1 1.8 1.7.6 1.4.6 2.3c0 1.4-.5 2.5-1.6 3.3s-2.5 1.2-4.3 1.2c-1.2 0-2.3-.2-3.3-.7s-1.8-1.1-2.3-1.8-.8-1.7-.8-2.7h2.3c0 1 .4 1.8 1.1 2.4s1.8.9 3.1.9c1.2 0 2.1-.2 2.7-.7s.9-1.1.9-2-.3-1.5-.9-1.9-1.7-.9-3.2-1.4zM1014.1 686.2l-1.2-.8c.7-1 1.1-2.1 1.1-3.2v-2h2.1v1.7c0 .8-.2 1.6-.6 2.4s-.8 1.5-1.4 1.9zM1027.6 665.8l5.6 13.9 5.6-13.9h2.9v17.1h-2.2v-6.6l.2-7.2-5.6 13.8h-1.7l-5.6-13.8.2 7.1v6.6h-2.2v-17.1h2.8zM1050.4 675.2c-1.9-.6-3.3-1.2-4.2-2s-1.3-1.8-1.3-3c0-1.3.5-2.5 1.6-3.3s2.5-1.3 4.2-1.3c1.2 0 2.2.2 3.1.7s1.6 1.1 2.1 1.9.8 1.7.8 2.6h-2.3c0-1-.3-1.8-1-2.4s-1.6-.9-2.8-.9c-1.1 0-2 .2-2.6.7-.6.5-.9 1.2-.9 2 0 .7.3 1.3.9 1.8.6.5 1.6.9 3 1.3s2.5.8 3.3 1.3 1.4 1 1.8 1.7.6 1.4.6 2.3c0 1.4-.5 2.5-1.6 3.3s-2.5 1.2-4.3 1.2c-1.2 0-2.3-.2-3.3-.7s-1.8-1.1-2.3-1.8-.8-1.7-.8-2.7h2.3c0 1 .4 1.8 1.1 2.4s1.8.9 3.1.9c1.2 0 2.1-.2 2.7-.7s.9-1.1.9-2-.3-1.5-.9-1.9-1.7-.9-3.2-1.4zM1074.5 678.4h-7.1l-1.6 4.5h-2.3l6.5-17.1h2l6.5 17.1h-2.3l-1.7-4.5zm-6.5-1.9h5.8l-2.9-8-2.9 8zM1082.3 681.1h7.4v1.8h-10.1v-1.6l7-9.3h-6.9v-1.8h9.6v1.5l-7 9.4zM1099.8 681.6c-.8 1-2.1 1.5-3.7 1.5-1.4 0-2.4-.4-3.1-1.2s-1.1-1.9-1.1-3.5v-8.2h2.2v8.2c0 1.9.8 2.9 2.3 2.9 1.7 0 2.8-.6 3.3-1.9v-9.2h2.2v12.7h-2.1v-1.3zM1111.1 672.1c-.3-.1-.7-.1-1.1-.1-1.4 0-2.4.6-2.9 1.8v9h-2.2v-12.7h2.1v1.5c.7-1.1 1.7-1.7 3-1.7.4 0 .7.1 1 .2v2zM1117.8 683.1c-1.7 0-3.1-.6-4.2-1.7s-1.6-2.6-1.6-4.5v-.4c0-1.3.2-2.4.7-3.4s1.2-1.8 2-2.3 1.8-.8 2.8-.8c1.6 0 2.9.5 3.8 1.6s1.4 2.6 1.4 4.7v.9h-8.6c0 1.2.4 2.3 1.1 3s1.6 1.2 2.7 1.2c.8 0 1.4-.2 1.9-.5s1-.7 1.4-1.2l1.3 1c-.9 1.6-2.5 2.4-4.7 2.4zm-.2-11.4c-.9 0-1.6.3-2.2 1s-1 1.5-1.1 2.7h6.4v-.2c-.1-1.1-.4-2-.9-2.6s-1.3-.9-2.2-.9zM1125.1 681.7c0-.4.1-.7.3-.9s.6-.4 1-.4.8.1 1 .4.3.6.3.9c0 .4-.1.7-.3.9s-.6.4-1 .4-.8-.1-1-.4-.3-.5-.3-.9zM1131.2 681.7c0-.4.1-.7.3-.9s.6-.4 1-.4.8.1 1 .4.3.6.3.9c0 .4-.1.7-.3.9s-.6.4-1 .4-.8-.1-1-.4-.3-.5-.3-.9zM1137.3 681.7c0-.4.1-.7.3-.9s.6-.4 1-.4.8.1 1 .4.3.6.3.9c0 .4-.1.7-.3.9s-.6.4-1 .4-.8-.1-1-.4-.3-.5-.3-.9zM1148.3 676c0 1.7-.2 3.4-.7 5s-1.2 3.1-2.1 4.4-1.9 2.3-3 2.9l-.5-1.3c1.2-.9 2.2-2.4 2.9-4.3s1.1-4.1 1.1-6.5v-.4c0-1.6-.2-3.2-.5-4.6s-.8-2.7-1.4-3.8-1.3-2-2.1-2.6l.5-1.3c1 .6 2 1.5 2.9 2.9s1.6 2.8 2.1 4.4.8 3.4.8 5.2zM1156.5 676.4c0-1.2.2-2.4.7-3.4s1.2-1.8 2-2.3 1.9-.8 3-.8c1.7 0 3.1.6 4.2 1.8s1.6 2.8 1.6 4.8v.2c0 1.2-.2 2.3-.7 3.3s-1.1 1.7-2 2.3-1.9.8-3 .8c-1.7 0-3.1-.6-4.2-1.8s-1.6-2.8-1.6-4.7v-.2zm2.2.2c0 1.4.3 2.5 1 3.4s1.5 1.3 2.6 1.3 2-.4 2.6-1.3 1-2.1 1-3.6c0-1.4-.3-2.5-1-3.4s-1.5-1.3-2.6-1.3-1.9.4-2.6 1.3-1 2.1-1 3.6zM1176.7 672.1c-.3-.1-.7-.1-1.1-.1-1.4 0-2.4.6-2.9 1.8v9h-2.2v-12.7h2.1v1.5c.7-1.1 1.7-1.7 3-1.7.4 0 .7.1 1 .2v2zM1183.5 676.4c0-1.2.2-2.4.7-3.4s1.2-1.8 2-2.3 1.9-.8 3-.8c1.7 0 3.1.6 4.2 1.8s1.6 2.8 1.6 4.8v.2c0 1.2-.2 2.3-.7 3.3s-1.1 1.7-2 2.3-1.9.8-3 .8c-1.7 0-3.1-.6-4.2-1.8s-1.6-2.8-1.6-4.7v-.2zm2.2.2c0 1.4.3 2.5 1 3.4s1.5 1.3 2.6 1.3 2-.4 2.6-1.3 1-2.1 1-3.6c0-1.4-.3-2.5-1-3.4s-1.5-1.3-2.6-1.3-1.9.4-2.6 1.3-1 2.1-1 3.6zM1199.6 670.2l.1 1.6c1-1.2 2.2-1.8 3.8-1.8 2.7 0 4 1.5 4.1 4.5v8.4h-2.2v-8.4c0-.9-.2-1.6-.6-2s-1-.7-1.9-.7c-.7 0-1.3.2-1.9.6s-.9.9-1.2 1.5v9h-2.2v-12.7h2zM1215.1 676.5h-5.7v-1.8h5.7v1.8zM1227.7 676.6c0 1.9-.4 3.5-1.3 4.7s-2.1 1.8-3.6 1.8-2.8-.5-3.6-1.5v6.1h-2.2v-17.6h2l.1 1.4c.9-1.1 2.1-1.6 3.7-1.6 1.5 0 2.7.6 3.6 1.7s1.3 2.7 1.3 4.8v.2zm-2.2-.2c0-1.4-.3-2.6-.9-3.4s-1.4-1.2-2.5-1.2c-1.3 0-2.3.6-3 1.7v6.1c.6 1.2 1.6 1.7 3 1.7 1 0 1.9-.4 2.5-1.2s.9-2.1.9-3.7zM1236.3 672.1c-.3-.1-.7-.1-1.1-.1-1.4 0-2.4.6-2.9 1.8v9h-2.2v-12.7h2.1v1.5c.7-1.1 1.7-1.7 3-1.7.4 0 .7.1 1 .2v2zM1243.1 683.1c-1.7 0-3.1-.6-4.2-1.7s-1.6-2.6-1.6-4.5v-.4c0-1.3.2-2.4.7-3.4s1.2-1.8 2-2.3 1.8-.8 2.8-.8c1.6 0 2.9.5 3.8 1.6s1.4 2.6 1.4 4.7v.9h-8.6c0 1.2.4 2.3 1.1 3s1.6 1.2 2.7 1.2c.8 0 1.4-.2 1.9-.5s1-.7 1.4-1.2l1.3 1c-1 1.6-2.6 2.4-4.7 2.4zm-.3-11.4c-.9 0-1.6.3-2.2 1s-1 1.5-1.1 2.7h6.4v-.2c-.1-1.1-.4-2-.9-2.6s-1.3-.9-2.2-.9zM1252.4 670.2l.1 1.4c.9-1.1 2.2-1.6 3.8-1.6 1.8 0 3 .7 3.6 2 .4-.6 1-1.1 1.6-1.5s1.5-.6 2.4-.6c2.8 0 4.2 1.5 4.2 4.4v8.5h-2.2v-8.4c0-.9-.2-1.6-.6-2s-1.1-.7-2.1-.7c-.8 0-1.5.2-2 .7s-.8 1.1-.9 1.9v8.4h-2.2v-8.3c0-1.8-.9-2.8-2.7-2.8-1.4 0-2.4.6-2.9 1.8v9.3h-2.2V670h2.1zM1271.1 666.8c0-.4.1-.6.3-.9s.5-.4 1-.4.7.1 1 .4.3.5.3.9-.1.6-.3.9-.5.4-1 .4-.7-.1-1-.4-.3-.6-.3-.9zm2.4 16h-2.2v-12.7h2.2v12.7zM1284.1 679.5c0-.6-.2-1-.7-1.4s-1.2-.6-2.3-.8-2-.5-2.6-.8-1.1-.7-1.4-1.2-.5-1-.5-1.6c0-1 .4-1.9 1.3-2.6s2-1.1 3.4-1.1 2.6.4 3.5 1.1 1.3 1.7 1.3 2.8h-2.2c0-.6-.3-1.1-.8-1.5s-1.1-.6-1.9-.6c-.8 0-1.4.2-1.9.5s-.7.8-.7 1.3.2.9.6 1.2 1.2.5 2.2.8 2 .5 2.6.9 1.2.7 1.5 1.2.5 1 .5 1.7c0 1.1-.5 2-1.4 2.7s-2.1 1-3.5 1c-1 0-1.9-.2-2.7-.5s-1.4-.9-1.8-1.5-.7-1.3-.7-2.1h2.2c0 .7.3 1.3.9 1.7s1.3.6 2.2.6c.8 0 1.5-.2 2-.5s.9-.8.9-1.3zM1294.1 683.1c-1.7 0-3.1-.6-4.2-1.7s-1.6-2.6-1.6-4.5v-.4c0-1.3.2-2.4.7-3.4s1.2-1.8 2-2.3 1.8-.8 2.8-.8c1.6 0 2.9.5 3.8 1.6s1.4 2.6 1.4 4.7v.9h-8.6c0 1.2.4 2.3 1.1 3s1.6 1.2 2.7 1.2c.8 0 1.4-.2 1.9-.5s1-.7 1.4-1.2l1.3 1c-1 1.6-2.6 2.4-4.7 2.4zm-.3-11.4c-.9 0-1.6.3-2.2 1s-1 1.5-1.1 2.7h6.4v-.2c-.1-1.1-.4-2-.9-2.6s-1.3-.9-2.2-.9z"/></g><g><path d="M429.8 179.1v11.6c0 1.6-.5 2.9-1.5 3.9s-2.4 1.6-4.1 1.7h-.6c-1.9 0-3.4-.5-4.5-1.5s-1.7-2.4-1.7-4.2V179h2.2v11.6c0 1.2.3 2.2 1 2.9s1.6 1 2.9 1c1.3 0 2.2-.3 2.9-1s1-1.6 1-2.9V179h2.4zM434.8 183.5l.1 1.6c1-1.2 2.2-1.8 3.8-1.8 2.7 0 4 1.5 4.1 4.5v8.4h-2.2v-8.4c0-.9-.2-1.6-.6-2s-1-.7-1.9-.7c-.7 0-1.3.2-1.9.6s-.9.9-1.2 1.5v9h-2.2v-12.7h2zM451.9 185.5c-.3-.1-.7-.1-1.1-.1-1.4 0-2.4.6-2.9 1.8v9h-2.2v-12.7h2.1v1.5c.7-1.1 1.7-1.7 3-1.7.4 0 .7.1 1 .2v2zM458.7 196.4c-1.7 0-3.1-.6-4.2-1.7s-1.6-2.6-1.6-4.5v-.4c0-1.3.2-2.4.7-3.4s1.2-1.8 2-2.3 1.8-.8 2.8-.8c1.6 0 2.9.5 3.8 1.6s1.4 2.6 1.4 4.7v.9H455c0 1.2.4 2.3 1.1 3s1.6 1.2 2.7 1.2c.8 0 1.4-.2 1.9-.5s1-.7 1.4-1.2l1.3 1c-1 1.6-2.6 2.4-4.7 2.4zm-.3-11.3c-.9 0-1.6.3-2.2 1s-1 1.5-1.1 2.7h6.4v-.2c-.1-1.1-.4-2-.9-2.6s-1.3-.9-2.2-.9zM468.2 196.2H466v-18h2.2v18zM471.5 180.2c0-.4.1-.6.3-.9s.5-.4 1-.4.7.1 1 .4.3.5.3.9-.1.6-.3.9-.5.4-1 .4-.7-.1-1-.4-.3-.6-.3-.9zm2.3 16h-2.2v-12.7h2.2v12.7zM484.9 196.2c-.1-.2-.2-.7-.3-1.3-1 1-2.2 1.6-3.6 1.6-1.2 0-2.3-.4-3.1-1.1s-1.2-1.6-1.2-2.7c0-1.3.5-2.3 1.5-3.1s2.4-1.1 4.2-1.1h2.1v-1c0-.8-.2-1.4-.7-1.8s-1.1-.7-2-.7c-.8 0-1.4.2-1.9.6s-.8.9-.8 1.4h-2.2c0-.6.2-1.2.7-1.8s1.1-1.1 1.8-1.4 1.6-.5 2.5-.5c1.5 0 2.6.4 3.4 1.1s1.3 1.7 1.3 3v5.8c0 1.2.1 2.1.4 2.8v.2h-2.1zm-3.6-1.7c.7 0 1.3-.2 1.9-.5s1.1-.8 1.3-1.4V190h-1.7c-2.7 0-4 .8-4 2.3 0 .7.2 1.2.7 1.6s1.1.6 1.8.6zM500.6 190c0 1.9-.4 3.5-1.3 4.7s-2.1 1.8-3.6 1.8c-1.6 0-2.8-.6-3.7-1.7l-.1 1.5h-2v-18h2.2v6.7c.9-1.1 2.1-1.6 3.6-1.6s2.7.6 3.6 1.7 1.3 2.8 1.3 4.8v.1zm-2.2-.2c0-1.5-.3-2.6-.9-3.4s-1.4-1.2-2.5-1.2c-1.4 0-2.5.7-3.1 2v5.5c.7 1.3 1.7 2 3.1 2 1 0 1.8-.4 2.4-1.2s1-2.1 1-3.7zM505.5 196.2h-2.2v-18h2.2v18zM513.9 196.4c-1.7 0-3.1-.6-4.2-1.7s-1.6-2.6-1.6-4.5v-.4c0-1.3.2-2.4.7-3.4s1.2-1.8 2-2.3 1.8-.8 2.8-.8c1.6 0 2.9.5 3.8 1.6s1.4 2.6 1.4 4.7v.9h-8.6c0 1.2.4 2.3 1.1 3s1.6 1.2 2.7 1.2c.8 0 1.4-.2 1.9-.5s1-.7 1.4-1.2l1.3 1c-.9 1.6-2.5 2.4-4.7 2.4zm-.2-11.3c-.9 0-1.6.3-2.2 1s-1 1.5-1.1 2.7h6.4v-.2c-.1-1.1-.4-2-.9-2.6s-1.3-.9-2.2-.9zM429.3 212.3l.1 1.6c1-1.2 2.2-1.8 3.8-1.8 2.7 0 4 1.5 4.1 4.5v8.4H435v-8.4c0-.9-.2-1.6-.6-2s-1-.7-1.9-.7c-.7 0-1.3.2-1.9.6s-.9.9-1.2 1.5v9h-2.2v-12.7h2.1zM445.5 225.2c-1.7 0-3.1-.6-4.2-1.7s-1.6-2.6-1.6-4.5v-.4c0-1.3.2-2.4.7-3.4s1.2-1.8 2-2.3 1.8-.8 2.8-.8c1.6 0 2.9.5 3.8 1.6s1.4 2.6 1.4 4.7v.9h-8.6c0 1.2.4 2.3 1.1 3s1.6 1.2 2.7 1.2c.8 0 1.4-.2 1.9-.5s1-.7 1.4-1.2l1.3 1c-1 1.6-2.6 2.4-4.7 2.4zm-.3-11.3c-.9 0-1.6.3-2.2 1s-1 1.5-1.1 2.7h6.4v-.2c-.1-1.1-.4-2-.9-2.6s-1.3-.9-2.2-.9zM455.6 209.2v3.1h2.4v1.7h-2.4v7.9c0 .5.1.9.3 1.1.2.3.6.4 1.1.4.2 0 .6 0 1-.1v1.7c-.6.2-1.1.2-1.7.2-1 0-1.7-.3-2.2-.9s-.7-1.4-.7-2.5V214h-2.3v-1.7h2.3v-3.1h2.2zM471.5 222l2.4-9.7h2.2l-3.7 12.7h-1.8l-3.1-9.6-3 9.6h-1.8l-3.7-12.7h2.2l2.5 9.5 3-9.5h1.7l3.1 9.7zM477.5 218.5c0-1.2.2-2.4.7-3.4s1.2-1.8 2-2.3 1.9-.8 3-.8c1.7 0 3.1.6 4.2 1.8s1.6 2.8 1.6 4.8v.2c0 1.2-.2 2.3-.7 3.3s-1.1 1.7-2 2.3-1.9.8-3 .8c-1.7 0-3.1-.6-4.2-1.8s-1.6-2.8-1.6-4.7v-.2zm2.2.3c0 1.4.3 2.5 1 3.4s1.5 1.3 2.6 1.3 2-.4 2.6-1.3 1-2.1 1-3.6c0-1.4-.3-2.5-1-3.4s-1.5-1.3-2.6-1.3-1.9.4-2.6 1.3-1 2-1 3.6zM497.7 214.3c-.3-.1-.7-.1-1.1-.1-1.4 0-2.4.6-2.9 1.8v9h-2.2v-12.7h2.1v1.5c.7-1.1 1.7-1.7 3-1.7.4 0 .7.1 1 .2v2zM503 219.1l-1.4 1.4v4.5h-2.2v-18h2.2v10.9l1.2-1.4 3.9-4.2h2.6l-4.9 5.3 5.5 7.4h-2.5l-4.4-5.9z"/></g><g fill="#FFF"><path d="M851.1 606.4l-1.8 2v4.9h-3.5v-17.1h3.5v7.7l1.5-2.1 4.3-5.6h4.3l-6.1 7.6 6.2 9.5h-4.2l-4.2-6.9zM868.1 611.9c-.8 1-2 1.5-3.5 1.5-1.4 0-2.4-.4-3.1-1.2s-1.1-1.9-1.1-3.4v-8.3h3.4v8.2c0 1.3.6 2 1.8 2 1.1 0 1.9-.4 2.4-1.2v-9h3.4v12.7h-3.2l-.1-1.3zM885.4 607c0 2-.4 3.6-1.3 4.8s-2.1 1.7-3.6 1.7c-1.4 0-2.5-.5-3.3-1.6l-.2 1.3h-3v-18h3.4v6.5c.8-.9 1.8-1.4 3.1-1.4 1.5 0 2.8.6 3.6 1.7s1.3 2.7 1.3 4.8v.2zm-3.4-.2c0-1.3-.2-2.2-.6-2.8s-1-.9-1.8-.9c-1.1 0-1.8.4-2.2 1.3v5c.4.9 1.2 1.3 2.2 1.3 1.1 0 1.8-.5 2.2-1.6.1-.5.2-1.3.2-2.3zM893.3 613.5c-1.9 0-3.4-.6-4.5-1.7s-1.8-2.7-1.8-4.6v-.3c0-1.3.2-2.4.7-3.4s1.2-1.8 2.1-2.3 1.9-.8 3.1-.8c1.7 0 3.1.5 4.1 1.6s1.5 2.6 1.5 4.7v1.4h-8.1c.1.8.4 1.5 1 2s1.2.8 2.1.8c1.3 0 2.3-.5 3.1-1.4l1.7 1.9c-.5.7-1.2 1.3-2.1 1.7s-1.9.4-2.9.4zm-.4-10.5c-.7 0-1.2.2-1.6.7s-.7 1.1-.8 2h4.7v-.3c0-.8-.2-1.3-.6-1.7s-1-.7-1.7-.7zM907.6 603.7c-.5-.1-.9-.1-1.2-.1-1.3 0-2.1.4-2.5 1.3v8.3h-3.4v-12.7h3.2l.1 1.5c.7-1.2 1.6-1.7 2.8-1.7.4 0 .7.1 1.1.2l-.1 3.2zM912.3 600.6l.1 1.5c.9-1.1 2.1-1.7 3.6-1.7 1.3 0 2.3.4 3 1.2s1 2 1 3.5v8.2h-3.4v-8.1c0-.7-.2-1.2-.5-1.6s-.8-.5-1.6-.5c-1 0-1.7.4-2.1 1.2v8.9H909v-12.7h3.3zM928.5 613.5c-1.9 0-3.4-.6-4.5-1.7s-1.8-2.7-1.8-4.6v-.3c0-1.3.2-2.4.7-3.4s1.2-1.8 2.1-2.3 1.9-.8 3.1-.8c1.7 0 3.1.5 4.1 1.6s1.5 2.6 1.5 4.7v1.4h-8.1c.1.8.4 1.5 1 2s1.2.8 2.1.8c1.3 0 2.3-.5 3.1-1.4l1.7 1.9c-.5.7-1.2 1.3-2.1 1.7s-1.9.4-2.9.4zm-.4-10.5c-.7 0-1.2.2-1.6.7s-.7 1.1-.8 2h4.7v-.3c0-.8-.2-1.3-.6-1.7s-1-.7-1.7-.7zM939.7 597.4v3.1h2.2v2.5h-2.2v6.3c0 .5.1.8.3 1s.5.3 1 .3c.4 0 .7 0 1-.1v2.6c-.7.2-1.3.3-2.1.3-2.4 0-3.6-1.2-3.6-3.6V603h-1.9v-2.5h1.9v-3.1h3.4zM949.5 613.5c-1.9 0-3.4-.6-4.5-1.7s-1.8-2.7-1.8-4.6v-.3c0-1.3.2-2.4.7-3.4s1.2-1.8 2.1-2.3 1.9-.8 3.1-.8c1.7 0 3.1.5 4.1 1.6s1.5 2.6 1.5 4.7v1.4h-8.1c.1.8.4 1.5 1 2s1.2.8 2.1.8c1.3 0 2.3-.5 3.1-1.4l1.7 1.9c-.5.7-1.2 1.3-2.1 1.7s-1.8.4-2.9.4zm-.3-10.5c-.7 0-1.2.2-1.6.7s-.7 1.1-.8 2h4.7v-.3c0-.8-.2-1.3-.6-1.7s-1-.7-1.7-.7zM963.5 609.7c0-.4-.2-.7-.6-1s-1.1-.5-2-.6c-3-.6-4.5-1.9-4.5-3.8 0-1.1.5-2.1 1.4-2.8s2.2-1.1 3.7-1.1c1.6 0 2.9.4 3.9 1.1s1.4 1.7 1.4 3h-3.4c0-.5-.2-.9-.5-1.2s-.8-.5-1.5-.5c-.6 0-1 .1-1.3.4s-.5.6-.5 1 .2.7.5.9 1 .4 1.8.6 1.6.4 2.1.6c1.8.7 2.7 1.8 2.7 3.4 0 1.2-.5 2.1-1.5 2.8s-2.3 1.1-3.8 1.1c-1.1 0-2-.2-2.8-.6s-1.5-.9-1.9-1.6-.7-1.4-.7-2.1h3.2c0 .6.3 1.1.7 1.4s1 .5 1.7.5c.6 0 1.1-.1 1.5-.4s.4-.7.4-1.1zM969.9 617.5l-1.8-.9.4-.8c.5-1 .8-1.9.8-2.8v-2.6h2.9v2.3c0 .9-.2 1.7-.7 2.6s-.9 1.6-1.6 2.2zM981.1 613.2v-17.1h5.2c1.5 0 2.8.3 4 1s2.1 1.6 2.8 2.9 1 2.7 1 4.2v.8c0 1.6-.3 3-1 4.2s-1.6 2.2-2.8 2.9-2.5 1-4 1h-5.2zm3.5-14.2v11.4h1.7c1.4 0 2.4-.4 3.2-1.3s1.1-2.2 1.1-3.9v-.9c0-1.7-.4-3-1.1-3.9s-1.8-1.3-3.2-1.3h-1.7zM995.9 606.8c0-1.3.2-2.4.7-3.4s1.2-1.7 2.1-2.3 2-.8 3.2-.8c1.7 0 3.1.5 4.2 1.6s1.7 2.5 1.8 4.3v.9c0 1.9-.5 3.5-1.6 4.7s-2.5 1.8-4.4 1.8-3.3-.6-4.4-1.8-1.6-2.8-1.6-4.8v-.2zm3.4.2c0 1.2.2 2.1.7 2.8.5.6 1.1 1 1.9 1 .8 0 1.5-.3 1.9-.9.5-.6.7-1.6.7-3 0-1.2-.2-2.1-.7-2.7s-1.1-1-1.9-1c-.8 0-1.5.3-1.9 1s-.7 1.5-.7 2.8zM1015.3 610.7c.6 0 1.1-.2 1.5-.5s.6-.8.6-1.4h3.2c0 .9-.2 1.6-.7 2.4s-1.1 1.3-1.9 1.7-1.7.6-2.7.6c-1.8 0-3.2-.6-4.3-1.7s-1.6-2.7-1.6-4.8v-.2c0-2 .5-3.5 1.6-4.7s2.5-1.7 4.3-1.7c1.6 0 2.9.5 3.8 1.4s1.4 2.1 1.5 3.6h-3.2c0-.7-.2-1.2-.6-1.6-.4-.4-.9-.6-1.5-.6-.8 0-1.4.3-1.8.9-.4.6-.6 1.5-.6 2.8v.4c0 1.3.2 2.2.6 2.8s1 .6 1.8.6zM1027.1 608.1l-1.2 1.2v3.9h-3.4v-18h3.4v10l.7-.8 3.2-3.8h4.1l-4.6 5.3 5 7.4h-3.9l-3.3-5.2zM1041 613.5c-1.9 0-3.4-.6-4.5-1.7s-1.8-2.7-1.8-4.6v-.3c0-1.3.2-2.4.7-3.4s1.2-1.8 2.1-2.3 1.9-.8 3.1-.8c1.7 0 3.1.5 4.1 1.6s1.5 2.6 1.5 4.7v1.4h-8.1c.1.8.4 1.5 1 2s1.2.8 2.1.8c1.3 0 2.3-.5 3.1-1.4l1.7 1.9c-.5.7-1.2 1.3-2.1 1.7s-1.9.4-2.9.4zm-.4-10.5c-.7 0-1.2.2-1.6.7s-.7 1.1-.8 2h4.7v-.3c0-.8-.2-1.3-.6-1.7s-1-.7-1.7-.7zM1055.2 603.7c-.5-.1-.9-.1-1.2-.1-1.3 0-2.1.4-2.5 1.3v8.3h-3.4v-12.7h3.2l.1 1.5c.7-1.2 1.6-1.7 2.8-1.7.4 0 .7.1 1.1.2l-.1 3.2zM1055.7 617.5l-1.8-.9.4-.8c.5-1 .8-1.9.8-2.8v-2.6h2.9v2.3c0 .9-.2 1.7-.7 2.6s-.9 1.6-1.6 2.2zM1080.9 605.1c0 1.7-.3 3.2-.9 4.4s-1.4 2.2-2.5 2.9-2.4 1-3.8 1-2.7-.3-3.8-1-2-1.7-2.6-2.9-.9-2.7-.9-4.4v-.8c0-1.7.3-3.2.9-4.4s1.5-2.3 2.6-2.9 2.4-1 3.8-1 2.7.3 3.8 1 2 1.7 2.6 2.9.9 2.8.9 4.4v.8zm-3.6-.8c0-1.8-.3-3.1-1-4.1s-1.6-1.4-2.7-1.4c-1.2 0-2.1.5-2.7 1.4s-1 2.3-1 4v.8c0 1.7.3 3.1 1 4.1s1.6 1.4 2.8 1.4c1.2 0 2.1-.5 2.7-1.4s1-2.3 1-4v-.8zM1094.6 607c0 2-.4 3.5-1.3 4.7s-2.1 1.8-3.6 1.8c-1.3 0-2.3-.4-3.1-1.3v6h-3.4v-17.6h3.1l.1 1.2c.8-1 1.9-1.5 3.2-1.5 1.6 0 2.8.6 3.6 1.7s1.3 2.8 1.3 4.8v.2zm-3.3-.2c0-1.2-.2-2.1-.6-2.7s-1-1-1.8-1c-1.1 0-1.8.4-2.2 1.2v5.2c.4.8 1.2 1.3 2.2 1.3 1.6-.1 2.4-1.4 2.4-4zM1102.6 613.5c-1.9 0-3.4-.6-4.5-1.7s-1.8-2.7-1.8-4.6v-.3c0-1.3.2-2.4.7-3.4s1.2-1.8 2.1-2.3 1.9-.8 3.1-.8c1.7 0 3.1.5 4.1 1.6s1.5 2.6 1.5 4.7v1.4h-8.1c.1.8.4 1.5 1 2s1.2.8 2.1.8c1.3 0 2.3-.5 3.1-1.4l1.7 1.9c-.5.7-1.2 1.3-2.1 1.7s-1.9.4-2.9.4zm-.4-10.5c-.7 0-1.2.2-1.6.7s-.7 1.1-.8 2h4.7v-.3c0-.8-.2-1.3-.6-1.7s-1-.7-1.7-.7zM1112.8 600.6l.1 1.5c.9-1.1 2.1-1.7 3.6-1.7 1.3 0 2.3.4 3 1.2s1 2 1 3.5v8.2h-3.4v-8.1c0-.7-.2-1.2-.5-1.6s-.8-.5-1.6-.5c-1 0-1.7.4-2.1 1.2v8.9h-3.4v-12.7h3.3zM1132.2 608.8c0-.7-.2-1.2-.7-1.5s-1.3-.7-2.5-1.1-2.2-.8-2.9-1.2c-1.9-1-2.9-2.5-2.9-4.2 0-.9.3-1.7.8-2.5s1.3-1.3 2.2-1.7 2.1-.6 3.3-.6c1.2 0 2.3.2 3.3.7s1.7 1.1 2.2 1.9.8 1.7.8 2.7h-3.5c0-.8-.2-1.4-.7-1.8s-1.2-.7-2.1-.7c-.9 0-1.5.2-2 .5s-.7.8-.7 1.4c0 .6.3 1 .8 1.4s1.4.7 2.5 1.1c2 .6 3.5 1.3 4.4 2.2s1.4 2 1.4 3.3c0 1.5-.6 2.6-1.7 3.5s-2.6 1.3-4.5 1.3c-1.3 0-2.5-.2-3.6-.7s-1.9-1.1-2.5-2-.8-1.8-.8-2.9h3.5c0 1.9 1.1 2.8 3.4 2.8.8 0 1.5-.2 2-.5s.5-.8.5-1.4zM1141.2 601.9c.9-1.1 2-1.6 3.4-1.6 2.8 0 4.1 1.6 4.2 4.8v8.1h-3.4v-8c0-.7-.2-1.3-.5-1.6s-.8-.5-1.6-.5c-1 0-1.7.4-2.2 1.1v9h-3.4v-18h3.4v6.7zM1151.3 597.3c0-.5.2-.9.5-1.3s.8-.5 1.4-.5c.6 0 1 .2 1.4.5s.5.7.5 1.3c0 .5-.2.9-.5 1.3s-.8.5-1.4.5-1-.2-1.4-.5-.5-.8-.5-1.3zm3.6 15.9h-3.4v-12.7h3.4v12.7zM1158.6 613.2V603h-1.9v-2.5h1.9v-1.1c0-1.4.4-2.5 1.2-3.3s2-1.2 3.4-1.2c.5 0 1 .1 1.7.2v2.6c-.3-.1-.6-.1-1-.1-1.3 0-1.9.6-1.9 1.8v1h2.5v2.5h-2.5v10.2h-3.4zM1170.4 597.4v3.1h2.2v2.5h-2.2v6.3c0 .5.1.8.3 1s.5.3 1 .3c.4 0 .7 0 1-.1v2.6c-.7.2-1.3.3-2.1.3-2.4 0-3.6-1.2-3.6-3.6V603h-1.9v-2.5h1.9v-3.1h3.4z"/></g><g><path d="M402.1 314.7l5.6 13.9 5.6-13.9h2.9v17.1H414v-6.6l.2-7.2-5.6 13.8h-1.7l-5.6-13.8.2 7.1v6.6h-2.2v-17.1h2.8zM432 323.8c0 1.6-.3 3.1-.8 4.3s-1.3 2.1-2.2 2.8l3 2.4-1.5 1.4-3.6-2.9c-.6.1-1.2.2-1.8.2-1.3 0-2.5-.3-3.6-1s-1.8-1.6-2.4-2.8-.9-2.6-.9-4.2v-1.2c0-1.6.3-3.1.9-4.3s1.4-2.2 2.4-2.9 2.2-1 3.6-1 2.6.3 3.6 1 1.8 1.6 2.4 2.9.8 2.7.8 4.4v.9zm-2.2-1.1c0-2-.4-3.6-1.2-4.6s-1.9-1.6-3.4-1.6c-1.4 0-2.5.5-3.3 1.6s-1.2 2.6-1.3 4.5v1.3c0 2 .4 3.5 1.2 4.6s2 1.7 3.4 1.7 2.6-.5 3.4-1.6 1.2-2.6 1.2-4.6v-1.3zM445.6 316.5h-5.5v15.2h-2.2v-15.2h-5.5v-1.8h13.2v1.8zM458.9 316.5h-5.5v15.2h-2.2v-15.2h-5.5v-1.8h13.2v1.8z"/></g><g><path d="M485 332.6v-17.1h4.8c1.5 0 2.8.3 3.9 1s2 1.6 2.6 2.8.9 2.6.9 4.2v1.1c0 1.6-.3 3-.9 4.2s-1.5 2.1-2.7 2.8-2.5 1-4 1H485zm2.3-15.2v13.4h2.4c1.7 0 3.1-.5 4-1.6 1-1.1 1.4-2.6 1.4-4.6v-1c0-1.9-.5-3.4-1.4-4.5s-2.2-1.6-3.9-1.6h-2.5zM508.7 328.1h-7.1l-1.6 4.5h-2.3l6.5-17.1h2l6.5 17.1h-2.3l-1.7-4.5zm-6.4-1.8h5.8l-2.9-8-2.9 8zM524 317.4h-5.5v15.2h-2.2v-15.2h-5.5v-1.8H524v1.8zM533.9 328.1h-7.1l-1.6 4.5h-2.3l6.5-17.1h2l6.5 17.1h-2.3l-1.7-4.5zm-6.5-1.8h5.8l-2.9-8-2.9 8z"/></g><g><path fill="#FFF" stroke="#000" stroke-width=".992" stroke-miterlimit="10" d="M646.1 656.338c-5 0-8.6 2.9-10.3 6.3-.5 1-1.7 1.4-2.7.9-2.1-1-4.5-.9-6.5.3-1.9 1.2-3.4 3.3-3.4 6.7 0 1-.7 1.8-1.7 2-3.7.6-6.4 4.4-6.4 8.1 0 4.5 3.5 8.1 9.4 8.1h32.9c4.8 0 8.7-3.9 8.7-8.7 0-4.3-3-7.8-7-8.6-1-.2-1.7-1.1-1.6-2.2.7-6.5-4.3-12.9-11.4-12.9z"/></g><path fill="#333" stroke="#000" stroke-miterlimit="10" d="M361.2 516h-45c-2.8 0-5-2.2-5-5V176c0-2.8 2.2-5 5-5h45c2.8 0 5 2.2 5 5v335c0 2.8-2.3 5-5 5z"/><g fill="#FFF"><path d="M350.6 258.8l-15.5 5.5 15.5 5.4v5.8h-21.3v-4.4h5.8l10.1.4-15.9-5.8v-3l15.9-5.7-10 .4h-5.8V253h21.3v5.8zM339.5 297.5c-2 0-3.7-.3-5.2-1-1.5-.6-2.6-1.5-3.5-2.7l-2.8 3.5-2.5-2.8 3.6-4.5c-.1-.5-.1-1.1-.1-1.6 0-1.8.4-3.3 1.3-4.7s2.1-2.5 3.6-3.2 3.4-1.1 5.4-1.2h1.1c2.1 0 3.9.4 5.5 1.1 1.6.8 2.8 1.8 3.7 3.2.9 1.4 1.3 3 1.3 4.7s-.4 3.4-1.3 4.7c-.9 1.4-2.1 2.5-3.7 3.2-1.6.8-3.4 1.1-5.5 1.1h-.9zm1-4.4c2.2 0 3.9-.4 5.1-1.2s1.7-1.9 1.7-3.4-.6-2.6-1.7-3.4c-1.1-.8-2.8-1.2-5-1.2h-1c-2.2 0-3.9.4-5.1 1.2s-1.8 2-1.8 3.5.6 2.6 1.7 3.4c1.2.8 2.8 1.2 5.1 1.2h1zM347.1 317.1v-6.5h-17.8v-4.4h17.8v-6.4h3.6v17.4h-3.6zM347.1 336.6v-6.5h-17.8v-4.4h17.8v-6.4h3.6v17.4h-3.6zM336.4 364c-2.3-.2-4.1-1-5.4-2.5s-2-3.5-2-6c0-2.7.9-4.9 2.8-6.5 1.8-1.6 4.4-2.4 7.6-2.4h1.3c2.1 0 3.9.4 5.4 1.1s2.8 1.8 3.6 3.1c.8 1.3 1.3 2.9 1.3 4.7 0 2.5-.7 4.4-2 5.9s-3.2 2.4-5.6 2.6v-4.4c1.4-.1 2.4-.5 3-1.1.6-.7.9-1.7.9-3 0-1.5-.5-2.6-1.6-3.3-1.1-.7-2.7-1.1-4.9-1.1h-1.6c-2.3 0-4 .3-5.1 1s-1.6 1.8-1.6 3.3c0 1.4.3 2.4.9 3 .6.7 1.6 1.1 2.9 1.1v4.5zM329.3 371.8v-4.2h22.5v4.2h-22.5zM329.3 380.5v-4.2h15.8v4.2h-15.8zm20-4.5c.6 0 1.2.2 1.6.6s.6 1 .6 1.7-.2 1.3-.6 1.7-.9.6-1.6.6c-.6 0-1.2-.2-1.6-.7s-.6-1-.6-1.7.2-1.3.6-1.7.9-.5 1.6-.5zM329 392c0-2.3.7-4.2 2.1-5.7s3.3-2.2 5.7-2.2h.4c1.6 0 3 .3 4.3.9 1.3.6 2.2 1.5 2.9 2.6.7 1.1 1 2.4 1 3.9 0 2.2-.7 3.9-2.1 5.1s-3.3 1.9-5.8 1.9h-1.7v-10.1c-1 .1-1.9.5-2.5 1.2s-.9 1.6-.9 2.6c0 1.6.6 2.9 1.8 3.8l-2.3 2.1c-.9-.6-1.6-1.5-2.1-2.6-.5-.9-.8-2.1-.8-3.5zm13-.4c0-.8-.3-1.5-.9-2s-1.4-.9-2.4-1v5.9h.3c.9 0 1.7-.3 2.2-.8s.8-1.2.8-2.1zM345.2 405.6l-1.8.1c1.4 1.1 2.1 2.7 2.1 4.6 0 1.7-.5 2.9-1.5 3.8s-2.5 1.2-4.4 1.3h-10.2v-4.2h10.1c.9 0 1.5-.2 2-.6s.6-1 .6-1.9c0-1.2-.5-2.1-1.5-2.7h-11.2v-4.2h15.8v3.8zM349.1 424.3h-3.9v2.7h-3.1v-2.7h-7.9c-.6 0-1 .1-1.3.3s-.4.7-.4 1.3c0 .5 0 .9.1 1.2h-3.2c-.3-.8-.4-1.7-.4-2.6 0-3 1.5-4.5 4.5-4.5h8.5v-2.3h3.1v2.3h3.9v4.3z"/></g><path fill="none" stroke="#999" stroke-miterlimit="10" d="M464.2 256.5l-12 15 30.5 41.5-13 17 20 27-43.5 44.5"/><path fill="none" stroke="#999" stroke-miterlimit="10" d="M463.2 249.5l-18 22 30.5 41.5-13 17 20 27-43.5 44.5"/><path fill="#FFF" stroke="#000" stroke-width="1.417" stroke-miterlimit="10" d="M1091.6 347.9v14.3l25.1-38.4-25.1-38.3v14.3H959.8v-14.3l-26.2 38.3 26.2 38.4v-14.3z"/><g><path d="M974.1 314.7l5.6 13.9 5.6-13.9h2.9v17.1H986v-6.6l.2-7.2-5.6 13.8h-1.7l-5.6-13.8.2 7.1v6.6h-2.2v-17.1h2.8zM1004 323.8c0 1.6-.3 3.1-.8 4.3s-1.3 2.1-2.2 2.8l3 2.4-1.5 1.4-3.6-2.9c-.6.1-1.2.2-1.8.2-1.3 0-2.5-.3-3.6-1s-1.8-1.6-2.4-2.8-.9-2.6-.9-4.2v-1.2c0-1.6.3-3.1.9-4.3s1.4-2.2 2.4-2.9 2.2-1 3.6-1 2.6.3 3.6 1 1.8 1.6 2.4 2.9.8 2.7.8 4.4v.9zm-2.2-1.1c0-2-.4-3.6-1.2-4.6s-1.9-1.6-3.4-1.6c-1.4 0-2.5.5-3.3 1.6s-1.2 2.6-1.3 4.5v1.3c0 2 .4 3.5 1.2 4.6s2 1.7 3.4 1.7 2.6-.5 3.4-1.6 1.2-2.6 1.2-4.6v-1.3zM1017.6 316.5h-5.5v15.2h-2.2v-15.2h-5.5v-1.8h13.2v1.8zM1030.9 316.5h-5.5v15.2h-2.2v-15.2h-5.5v-1.8h13.2v1.8zM1036.5 331.7v-17.1h4.8c1.5 0 2.8.3 3.9 1s2 1.6 2.6 2.8.9 2.6.9 4.2v1.1c0 1.6-.3 3-.9 4.2s-1.5 2.1-2.7 2.8-2.5 1-4 1h-4.6zm2.2-15.2v13.4h2.4c1.7 0 3.1-.5 4-1.6s1.4-2.6 1.4-4.6v-1c0-1.9-.5-3.4-1.4-4.5-.9-1.1-2.2-1.6-3.9-1.6h-2.5zM1060.2 327.3h-7.1l-1.6 4.5h-2.3l6.5-17.1h2l6.5 17.1h-2.3l-1.7-4.5zm-6.5-1.9h5.8l-2.9-8-2.9 8zM1075.5 316.5h-5.5v15.2h-2.2v-15.2h-5.5v-1.8h13.2v1.8zM1085.3 327.3h-7.1l-1.6 4.5h-2.3l6.5-17.1h2l6.5 17.1h-2.3l-1.7-4.5zm-6.4-1.9h5.8l-2.9-8-2.9 8z"/></g><linearGradient id="a" gradientUnits="userSpaceOnUse" x1="38.168" y1="343.5" x2="317.168" y2="343.5"><stop offset="0" stop-color="#fff"/><stop offset="1" stop-color="#ccd8e2"/></linearGradient><linearGradient id="b" gradientUnits="userSpaceOnUse" x1="37.668" y1="343.5" x2="317.668" y2="343.5"><stop offset="0" stop-color="#fff"/><stop offset="1"/></linearGradient><path fill="url(#a)" stroke="url(#b)" stroke-miterlimit="10" d="M38.2 171h279v345h-279z"/><g fill="none" stroke="#000" stroke-width="1.417" stroke-miterlimit="10"><path d="M210.7 432.9h76V474h-76z"/><path d="M214.7 436.2h68v34.5h-68zM236.4 440.9v24.7M248.9 440.9v24.7M261.4 440.9v24.7M222.6 432.9l25.4-14.1h1.6l24.8 14.1"/><path d="M248.5 398.9v6.4c0 1.6.9 2 1.3 2 2.9.6 5.1 3.2 5.1 6.3 0 3.5-2.9 6.4-6.4 6.4-3.5 0-6.4-2.9-6.4-6.4M241.4 398h14.3"/></g><g fill="none" stroke="#000" stroke-width="1.417" stroke-miterlimit="10"><path d="M260.7 377.2c-9.9 0-18-7.9-18-17.5 0-5.5 2.7-10.7 7.1-14v-32.5c0-4.8 4-8.7 9-8.7h3.8c4.9 0 9 3.9 9 8.7v32.5c4.5 3.3 7.1 8.5 7.1 14 0 9.6-8.1 17.5-18 17.5zM259.1 343.3h12.5M259.1 334.1h12.5M259.1 324.8h12.5M259.1 315.6h12.5"/><path d="M260.7 377.2c-9.9 0-18-7.9-18-17.5 0-5.5 2.7-10.7 7.1-14v-32.5c0-4.8 4-8.7 9-8.7h3.8c4.9 0 9 3.9 9 8.7v32.5c4.5 3.3 7.1 8.5 7.1 14 0 9.6-8.1 17.5-18 17.5z"/><path d="M260.7 373.9c-8.1 0-14.8-6.4-14.8-14.3 0-4.4 2.2-8.7 5.8-11.4l1.3-1v-18h15.2v18l1.3 1c3.7 2.7 5.8 6.9 5.8 11.4.1 7.9-6.5 14.3-14.6 14.3z"/></g><g fill="none" stroke="#000" stroke-width="1.417" stroke-miterlimit="10"><path d="M273.1 227h4.9c.9 0 1.7-.8 1.7-1.9 0-3.6-2.7-6.5-5.9-6.5h-2.5c-1.2 0-2.2.9-2.5 2.1"/><path d="M228.2 210.3c-3.2 0-8.2 7.7-9.6 10.5-1.4 2.9-4.4 6.2-4.4 6.2-2.5 2.3-4 5.7-4 9.3v21.4c0 1.5 1.1 2.8 2.5 2.8h7.6c1.4 0 2.5-1.3 2.5-2.8V254h41.5v3.7c0 1.5 1.1 2.8 2.5 2.8h7.6c1.4 0 2.5-1.3 2.5-2.8v-21.4c0-3.6-1.5-7-4-9.3 0 0-3-3.4-4.4-6.2s-6.4-10.5-9.6-10.5h-30.7z"/><path d="M214.2 227h-4.9c-.9 0-1.7-.8-1.7-1.9 0-3.6 2.7-6.5 5.9-6.5h2.5c1.2 0 2.2.9 2.5 2.1"/><path stroke-linecap="square" stroke-linejoin="round" d="M263.3 236.5c2.4-4.2 5.3-5.7 11.6-6.1M212.5 230.4c6.2.3 9.2 1.8 11.6 6.1"/><path d="M214.8 226.6h57.8M224.1 236.6l-1.7 1.5c-1.2 1.1-2.7 1.7-4.3 1.7-.5 0-1.1-.1-1.6-.2l-6.2-1.5v11.1h-.1c0 2.7 2 4.9 4.5 4.9h8l.9-1.3c1.5-2.3 3.9-3.6 6.4-3.6h27.3c2.5 0 4.9 1.3 6.4 3.6l.9 1.3h8c2.5 0 4.5-2.2 4.5-4.9h-.1v-11.1l-6.2 1.5c-.5.1-1.1.2-1.6.2-1.6 0-3.1-.6-4.3-1.7l-1.7-1.5c-.5.7-38.5.7-39.1 0z"/></g><g><path fill="none" stroke="#000" stroke-width="1.417" stroke-miterlimit="10" d="M144 218.7l-22.6 22.6a3.32 3.32 0 0 0 0 4.7l5.1 5.1c1.3 1.3 3.4 1.3 4.7 0l22.7-22.7c-2.3-.6-4.6-1.9-6.4-3.7-1.7-1.8-2.8-3.9-3.5-6z"/><path fill="none" stroke="#000" stroke-width="1.417" stroke-miterlimit="10" d="M147.6 224.6c5.6 5.6 14.6 5.6 20.2 0l-20.2-20.2c-5.6 5.6-5.6 14.6 0 20.2z"/><path fill="none" stroke="#000" stroke-width="1.417" stroke-linecap="round" stroke-miterlimit="10" d="M158.1 214.1l9.2-9.2"/><path fill="none" stroke="#000" stroke-width="1.417" stroke-linecap="round" stroke-linejoin="round" stroke-miterlimit="10" d="M132.3 220.9l-8.4 8.4c-1.2 1.2-3 1.2-4.2 0l-17.9-17.9c-1.2-1.2-1.2-3 0-4.2l8.4-8.4c1.2-1.2 3-1.2 4.2 0l17.9 17.9c1.2 1.2 1.2 3.1 0 4.2zM132.5 229.5l-26-26M117.3 225.4l10.9-10.9M111.6 219.8l11-10.9M106 214.1l10.9-10.9M143.7 249.1l8.4-8.4c1.2-1.2 3-1.2 4.2 0l17.9 17.9c1.2 1.2 1.2 3 0 4.2l-8.4 8.4c-1.2 1.2-3 1.2-4.2 0l-17.9-17.9c-1.2-1.2-1.2-3.1 0-4.2zM143.5 240.5l26 26M158.7 244.6l-10.9 10.9M164.4 250.2l-11 10.9M170 255.9l-10.9 10.9"/></g><g><path fill-rule="evenodd" clip-rule="evenodd" fill="none" stroke="#000" stroke-width="1.417" stroke-miterlimit="10" d="M154.6 340.2h4.9l.1-.1c1.7-1.7 3.9-3 6.4-3.5l8.9-28.4.8-2.4h27.7V336h7.9v1.1c1.8.6 3.4 1.7 4.7 3 2.3 2.3 3.8 5.5 3.8 9.1s-1.4 6.8-3.8 9.1c-2.3 2.3-5.5 3.8-9.1 3.8-3.5 0-6.8-1.4-9.1-3.8-1.3-1.3-2.3-2.9-3-4.7h-14.1c-.6 1.8-1.7 3.4-3 4.7-2.3 2.3-5.5 3.8-9.1 3.8-3.5 0-6.8-1.4-9.1-3.8-1-1-1.8-2.1-2.4-3.4h-2.5v1.6l-31-2.1V351h22.9v-38.8h8.1v28h0zM140.2 305h-21.9v18.5H141.9V305h-1.7 0zm0 23.1h-21.9v18.7H141.9V328.2h-1.7v-.1zm33.5 6.6l1 3.3c1.1.6 2.1 1.3 3 2.2 1.1 1.1 2 2.4 2.7 3.9l14.5-6 1.7-.7v-24.6h-15.9l-7 21.9h0zM211 345c-1.1-1.1-2.6-1.7-4.2-1.7s-3.1.7-4.2 1.7c-1.1 1.1-1.7 2.6-1.7 4.2s.7 3.1 1.7 4.2c1.1 1.1 2.6 1.7 4.2 1.7s3.1-.7 4.2-1.7c1.1-1.1 1.7-2.6 1.7-4.2.1-1.6-.6-3.1-1.7-4.2h0zm-38.2 0c-1.1-1.1-2.6-1.7-4.2-1.7s-3.1.7-4.2 1.7c-1.1 1.1-1.7 2.6-1.7 4.2s.7 3.1 1.7 4.2c1.1 1.1 2.6 1.7 4.2 1.7s3.1-.7 4.2-1.7c1.1-1.1 1.7-2.6 1.7-4.2.1-1.6-.6-3.1-1.7-4.2z"/></g><g><path fill-rule="evenodd" clip-rule="evenodd" fill="none" stroke="#000" stroke-width="1.417" stroke-linecap="round" stroke-linejoin="round" stroke-miterlimit="10" d="M132.6 473l4.5-19.1-21.6-21.6c-2.7-2.7-2.7-7.1 0-9.8 1-1 2.4-1.7 3.9-1.9l18.8-18.8c1.2-1.2 2.9-1.9 4.7-1.9 1.8 0 3.4.7 4.7 1.9 1.3 1.3 2 3.2 1.9 5.1l9.7 8.4h12.9l3.9 17.1-1.7.7-7.2-10.4h-5.7c-.2.7-.7 1.4-1.2 2-.7.7-1.5 1.1-2.4 1.3v5.8l10.4 7.2-.7 1.7-17.2-3.9 1.5-12.1-8.2-9.4-12.9 12.7 17.5 17.5h4.5l6.5 27.5h-26.6z"/><path fill-rule="evenodd" clip-rule="evenodd" d="M155.5 417.8h.5c.3 0 .5.1.7.3 0 0 .1 0 .1.1.2.1.4.3.5.5l.1.1c.1.2.3.4.4.6v.1c.1.2.1.5.1.8 0 1.3-1.1 2.4-2.4 2.4h-.1c-.3 0-.5-.1-.7-.1h-.1c-.2-.1-.4-.2-.6-.4l-.1-.1-.5-.5s0-.1-.1-.1c-.1-.2-.2-.4-.3-.7v-.5c0-1.4 1.1-2.5 2.5-2.5zM142.3 404.5c1.6 0 2.9 1.3 2.9 2.9 0 1.6-1.3 2.9-2.9 2.9-1.6 0-2.9-1.3-2.9-2.9 0-1.6 1.3-2.9 2.9-2.9zM121.2 431.6c-2 0-3.7-1.6-3.7-3.7 0-2 1.6-3.7 3.7-3.7 2 0 3.7 1.6 3.7 3.7-.1 2.1-1.7 3.7-3.7 3.7zM144.8 455.9c-1.6 0-2.9-1.3-2.9-2.9 0-1.6 1.3-2.9 2.9-2.9 1.6 0 2.9 1.3 2.9 2.9 0 1.6-1.3 2.9-2.9 2.9z"/><path fill-rule="evenodd" clip-rule="evenodd" fill="none" stroke="#000" stroke-width="1.417" stroke-miterlimit="10" d="M165.6 489h-40.4c-1.4 0-2.6-1.2-2.6-2.6l1.4-6.5c0-1.4 1.2-2.6 2.6-2.6h37.6c1.4 0 2.6 1.2 2.6 2.6l1.4 6.5c0 1.4-1.2 2.6-2.6 2.6z"/></g><g><path d="M665.4 503.8c-.2 1.8-.9 3.2-2 4.2s-2.6 1.5-4.5 1.5c-2 0-3.6-.7-4.8-2.2s-1.8-3.4-1.8-5.8v-1.6c0-1.6.3-3 .8-4.2s1.4-2.1 2.4-2.8 2.2-1 3.6-1c1.8 0 3.3.5 4.4 1.5s1.7 2.4 1.9 4.2h-2.3c-.2-1.4-.6-2.4-1.3-3s-1.6-.9-2.7-.9c-1.4 0-2.6.5-3.4 1.6s-1.2 2.6-1.2 4.5v1.7c0 1.9.4 3.3 1.2 4.4.8 1.1 1.9 1.6 3.2 1.6 1.2 0 2.2-.3 2.9-.8s1.1-1.6 1.3-3h2.3zM667.5 502.7c0-1.2.2-2.4.7-3.4s1.2-1.8 2-2.3 1.9-.8 3-.8c1.7 0 3.1.6 4.2 1.8s1.6 2.8 1.6 4.8v.2c0 1.2-.2 2.3-.7 3.3s-1.1 1.7-2 2.3-1.9.8-3 .8c-1.7 0-3.1-.6-4.2-1.8s-1.6-2.8-1.6-4.7v-.2zm2.2.3c0 1.4.3 2.5 1 3.4s1.5 1.3 2.6 1.3 2-.4 2.6-1.3 1-2.1 1-3.6c0-1.4-.3-2.5-1-3.4s-1.5-1.3-2.6-1.3-1.9.4-2.6 1.3-1 2-1 3.6zM683.9 496.5l.1 1.6c1-1.2 2.2-1.8 3.8-1.8 2.7 0 4 1.5 4.1 4.5v8.4h-2.2v-8.4c0-.9-.2-1.6-.6-2s-1-.7-1.9-.7c-.7 0-1.3.2-1.9.6s-.9.9-1.2 1.5v9h-2.2v-12.7h2zM698 493.4v3.1h2.4v1.7H698v7.9c0 .5.1.9.3 1.1.2.3.6.4 1.1.4.2 0 .6 0 1-.1v1.7c-.6.2-1.1.2-1.7.2-1 0-1.7-.3-2.2-.9s-.7-1.4-.7-2.5v-7.9h-2.3v-1.7h2.3v-3.1h2.2zM709 498.5c-.3-.1-.7-.1-1.1-.1-1.4 0-2.4.6-2.9 1.8v9h-2.2v-12.7h2.1v1.5c.7-1.1 1.7-1.7 3-1.7.4 0 .7.1 1 .2v2zM710.2 502.7c0-1.2.2-2.4.7-3.4s1.2-1.8 2-2.3 1.9-.8 3-.8c1.7 0 3.1.6 4.2 1.8s1.6 2.8 1.6 4.8v.2c0 1.2-.2 2.3-.7 3.3s-1.1 1.7-2 2.3-1.9.8-3 .8c-1.7 0-3.1-.6-4.2-1.8s-1.6-2.8-1.6-4.7v-.2zm2.2.3c0 1.4.3 2.5 1 3.4s1.5 1.3 2.6 1.3 2-.4 2.6-1.3 1-2.1 1-3.6c0-1.4-.3-2.5-1-3.4s-1.5-1.3-2.6-1.3-1.9.4-2.6 1.3-1 2-1 3.6zM726.8 509.2h-2.2v-18h2.2v18zM749.1 503.8c-.2 1.8-.9 3.2-2 4.2s-2.6 1.5-4.5 1.5c-2 0-3.6-.7-4.8-2.2s-1.8-3.4-1.8-5.8v-1.6c0-1.6.3-3 .8-4.2s1.4-2.1 2.4-2.8 2.2-1 3.6-1c1.8 0 3.3.5 4.4 1.5s1.7 2.4 1.9 4.2h-2.3c-.2-1.4-.6-2.4-1.3-3s-1.6-.9-2.7-.9c-1.4 0-2.6.5-3.4 1.6s-1.2 2.6-1.2 4.5v1.7c0 1.9.4 3.3 1.2 4.4.8 1.1 1.9 1.6 3.2 1.6 1.2 0 2.2-.3 2.9-.8s1.1-1.6 1.3-3h2.3zM757.1 509.4c-1.7 0-3.1-.6-4.2-1.7s-1.6-2.6-1.6-4.5v-.4c0-1.3.2-2.4.7-3.4s1.2-1.8 2-2.3 1.8-.8 2.8-.8c1.6 0 2.9.5 3.8 1.6s1.4 2.6 1.4 4.7v.9h-8.6c0 1.2.4 2.3 1.1 3s1.6 1.2 2.7 1.2c.8 0 1.4-.2 1.9-.5s1-.7 1.4-1.2l1.3 1c-1 1.6-2.6 2.4-4.7 2.4zm-.3-11.3c-.9 0-1.6.3-2.2 1s-1 1.5-1.1 2.7h6.4v-.2c-.1-1.1-.4-2-.9-2.6s-1.2-.9-2.2-.9zM766.6 496.5l.1 1.6c1-1.2 2.2-1.8 3.8-1.8 2.7 0 4 1.5 4.1 4.5v8.4h-2.2v-8.4c0-.9-.2-1.6-.6-2s-1-.7-1.9-.7c-.7 0-1.3.2-1.9.6s-.9.9-1.2 1.5v9h-2.2v-12.7h2zM780.8 493.4v3.1h2.4v1.7h-2.4v7.9c0 .5.1.9.3 1.1.2.3.6.4 1.1.4.2 0 .6 0 1-.1v1.7c-.6.2-1.1.2-1.7.2-1 0-1.7-.3-2.2-.9s-.7-1.4-.7-2.5v-7.9h-2.3v-1.7h2.3v-3.1h2.2zM790.9 509.4c-1.7 0-3.1-.6-4.2-1.7s-1.6-2.6-1.6-4.5v-.4c0-1.3.2-2.4.7-3.4s1.2-1.8 2-2.3 1.8-.8 2.8-.8c1.6 0 2.9.5 3.8 1.6s1.4 2.6 1.4 4.7v.9h-8.6c0 1.2.4 2.3 1.1 3s1.6 1.2 2.7 1.2c.8 0 1.4-.2 1.9-.5s1-.7 1.4-1.2l1.3 1c-1 1.6-2.6 2.4-4.7 2.4zm-.3-11.3c-.9 0-1.6.3-2.2 1s-1 1.5-1.1 2.7h6.4v-.2c-.1-1.1-.4-2-.9-2.6s-1.3-.9-2.2-.9zM804.5 498.5c-.3-.1-.7-.1-1.1-.1-1.4 0-2.4.6-2.9 1.8v9h-2.2v-12.7h2.1v1.5c.7-1.1 1.7-1.7 3-1.7.4 0 .7.1 1 .2v2z"/></g><path fill="#CCD8E2" stroke="#000" stroke-miterlimit="10" d="M1170.8 171h281.4v360h-281.4z"/><g><path d="M1210.4 219.2h-6.8v4.6h7.9v2.8h-11.4v-17.1h11.4v2.8h-7.9v4.1h6.8v2.8zM1216.3 213.9l.1 1.5c.9-1.1 2.1-1.7 3.6-1.7 1.3 0 2.3.4 3 1.2s1 2 1 3.5v8.2h-3.4v-8.1c0-.7-.2-1.2-.5-1.6s-.8-.5-1.6-.5c-1 0-1.7.4-2.1 1.2v8.9h-3.4v-12.7h3.3zM1230.5 210.8v3.1h2.2v2.5h-2.2v6.3c0 .5.1.8.3 1s.5.3 1 .3c.4 0 .7 0 1-.1v2.6c-.7.2-1.3.3-2.1.3-2.4 0-3.6-1.2-3.6-3.6v-6.8h-1.9v-2.5h1.9v-3.1h3.4zM1240.1 226.8c-1.9 0-3.4-.6-4.5-1.7s-1.8-2.7-1.8-4.6v-.3c0-1.3.2-2.4.7-3.4s1.2-1.8 2.1-2.3 1.9-.8 3.1-.8c1.7 0 3.1.5 4.1 1.6s1.5 2.6 1.5 4.7v1.4h-8.1c.1.8.4 1.5 1 2s1.2.8 2.1.8c1.3 0 2.3-.5 3.1-1.4l1.7 1.9c-.5.7-1.2 1.3-2.1 1.7s-1.8.4-2.9.4zm-.4-10.4c-.7 0-1.2.2-1.6.7s-.7 1.1-.8 2h4.7v-.3c0-.8-.2-1.3-.6-1.7s-1-.7-1.7-.7zM1254.1 217.1c-.5-.1-.9-.1-1.2-.1-1.3 0-2.1.4-2.5 1.3v8.3h-3.4v-12.7h3.2l.1 1.5c.7-1.2 1.6-1.7 2.8-1.7.4 0 .7.1 1.1.2l-.1 3.2zM1266.9 220.3c0 2-.4 3.5-1.3 4.7s-2.1 1.8-3.6 1.8c-1.3 0-2.3-.4-3.1-1.3v6h-3.4v-17.6h3.1l.1 1.2c.8-1 1.9-1.5 3.2-1.5 1.6 0 2.8.6 3.6 1.7s1.3 2.8 1.3 4.8v.2zm-3.4-.2c0-1.2-.2-2.1-.6-2.7s-1-1-1.8-1c-1.1 0-1.8.4-2.2 1.2v5.2c.4.8 1.2 1.3 2.2 1.3 1.6 0 2.4-1.4 2.4-4zM1275.9 217.1c-.5-.1-.9-.1-1.2-.1-1.3 0-2.1.4-2.5 1.3v8.3h-3.4v-12.7h3.2l.1 1.5c.7-1.2 1.6-1.7 2.8-1.7.4 0 .7.1 1.1.2l-.1 3.2zM1277.3 210.6c0-.5.2-.9.5-1.3s.8-.5 1.4-.5c.6 0 1 .2 1.4.5s.5.7.5 1.3c0 .5-.2.9-.5 1.3s-.8.5-1.4.5-1-.2-1.4-.5-.5-.8-.5-1.3zm3.6 16h-3.4v-12.7h3.4v12.7zM1290.3 223.1c0-.4-.2-.7-.6-1s-1.1-.5-2-.6c-3-.6-4.5-1.9-4.5-3.8 0-1.1.5-2.1 1.4-2.8s2.2-1.1 3.7-1.1c1.6 0 2.9.4 3.9 1.1s1.4 1.7 1.4 3h-3.4c0-.5-.2-.9-.5-1.2s-.8-.5-1.5-.5c-.6 0-1 .1-1.3.4s-.5.6-.5 1 .2.7.5.9 1 .4 1.8.6 1.6.4 2.1.6c1.8.7 2.7 1.8 2.7 3.4 0 1.2-.5 2.1-1.5 2.8s-2.3 1.1-3.8 1.1c-1.1 0-2-.2-2.8-.6s-1.5-.9-1.9-1.6-.7-1.4-.7-2.1h3.2c0 .6.3 1.1.7 1.4s1 .5 1.7.5c.6 0 1.1-.1 1.5-.4s.4-.7.4-1.1zM1301.4 226.8c-1.9 0-3.4-.6-4.5-1.7s-1.8-2.7-1.8-4.6v-.3c0-1.3.2-2.4.7-3.4s1.2-1.8 2.1-2.3 1.9-.8 3.1-.8c1.7 0 3.1.5 4.1 1.6s1.5 2.6 1.5 4.7v1.4h-8.1c.1.8.4 1.5 1 2s1.2.8 2.1.8c1.3 0 2.3-.5 3.1-1.4l1.7 1.9c-.5.7-1.2 1.3-2.1 1.7s-1.9.4-2.9.4zm-.4-10.4c-.7 0-1.2.2-1.6.7s-.7 1.1-.8 2h4.7v-.3c0-.8-.2-1.3-.6-1.7s-1-.7-1.7-.7zM1323.1 222.1c0-.7-.2-1.2-.7-1.5s-1.3-.7-2.5-1.1-2.2-.8-2.9-1.2c-1.9-1-2.9-2.5-2.9-4.2 0-.9.3-1.7.8-2.5s1.3-1.3 2.2-1.7 2.1-.6 3.3-.6c1.2 0 2.3.2 3.3.7s1.7 1.1 2.2 1.9.8 1.7.8 2.7h-3.5c0-.8-.2-1.4-.7-1.8s-1.2-.7-2.1-.7c-.9 0-1.5.2-2 .5s-.7.8-.7 1.4c0 .6.3 1 .8 1.4s1.4.7 2.5 1.1c2 .6 3.5 1.3 4.4 2.2s1.4 2 1.4 3.3c0 1.5-.6 2.6-1.7 3.5s-2.6 1.3-4.5 1.3c-1.3 0-2.5-.2-3.6-.7s-1.9-1.1-2.5-2-.8-1.8-.8-2.9h3.5c0 1.9 1.1 2.8 3.4 2.8.8 0 1.5-.2 2-.5s.5-.8.5-1.4zM1333.2 221.8l2.3-7.9h3.6l-5.1 14.6-.3.7c-.8 1.7-2 2.5-3.8 2.5-.5 0-1-.1-1.5-.2v-2.6h.5c.6 0 1.1-.1 1.4-.3s.6-.5.7-1l.4-1-4.4-12.7h3.6l2.6 7.9zM1347.2 223.1c0-.4-.2-.7-.6-1s-1.1-.5-2-.6c-3-.6-4.5-1.9-4.5-3.8 0-1.1.5-2.1 1.4-2.8s2.2-1.1 3.7-1.1c1.6 0 2.9.4 3.9 1.1s1.4 1.7 1.4 3h-3.4c0-.5-.2-.9-.5-1.2s-.8-.5-1.5-.5c-.6 0-1 .1-1.3.4s-.5.6-.5 1 .2.7.5.9 1 .4 1.8.6 1.6.4 2.1.6c1.8.7 2.7 1.8 2.7 3.4 0 1.2-.5 2.1-1.5 2.8s-2.3 1.1-3.8 1.1c-1.1 0-2-.2-2.8-.6s-1.5-.9-1.9-1.6-.7-1.4-.7-2.1h3.2c0 .6.3 1.1.7 1.4s1 .5 1.7.5c.6 0 1.1-.1 1.5-.4s.4-.7.4-1.1zM1356.5 210.8v3.1h2.2v2.5h-2.2v6.3c0 .5.1.8.3 1s.5.3 1 .3c.4 0 .7 0 1-.1v2.6c-.7.2-1.3.3-2.1.3-2.4 0-3.6-1.2-3.6-3.6v-6.8h-1.9v-2.5h1.9v-3.1h3.4zM1366.1 226.8c-1.9 0-3.4-.6-4.5-1.7s-1.8-2.7-1.8-4.6v-.3c0-1.3.2-2.4.7-3.4s1.2-1.8 2.1-2.3 1.9-.8 3.1-.8c1.7 0 3.1.5 4.1 1.6s1.5 2.6 1.5 4.7v1.4h-8.1c.1.8.4 1.5 1 2s1.2.8 2.1.8c1.3 0 2.3-.5 3.1-1.4l1.7 1.9c-.5.7-1.2 1.3-2.1 1.7s-1.8.4-2.9.4zm-.4-10.4c-.7 0-1.2.2-1.6.7s-.7 1.1-.8 2h4.7v-.3c0-.8-.2-1.3-.6-1.7s-.9-.7-1.7-.7zM1376.2 213.9l.1 1.4c.9-1.1 2.1-1.7 3.6-1.7 1.6 0 2.8.6 3.4 1.9.9-1.3 2.2-1.9 3.8-1.9 1.4 0 2.4.4 3.1 1.2s1 2 1 3.6v8.1h-3.4v-8.1c0-.7-.1-1.2-.4-1.6s-.8-.5-1.5-.5c-1 0-1.7.5-2.1 1.5v8.7h-3.4v-8.1c0-.7-.1-1.3-.4-1.6s-.8-.5-1.5-.5c-1 0-1.7.4-2.1 1.2v9h-3.4v-12.7h3.2zM1400.4 223.1c0-.4-.2-.7-.6-1s-1.1-.5-2-.6c-3-.6-4.5-1.9-4.5-3.8 0-1.1.5-2.1 1.4-2.8s2.2-1.1 3.7-1.1c1.6 0 2.9.4 3.9 1.1s1.4 1.7 1.4 3h-3.4c0-.5-.2-.9-.5-1.2s-.8-.5-1.5-.5c-.6 0-1 .1-1.3.4s-.5.6-.5 1 .2.7.5.9 1 .4 1.8.6 1.6.4 2.1.6c1.8.7 2.7 1.8 2.7 3.4 0 1.2-.5 2.1-1.5 2.8s-2.3 1.1-3.8 1.1c-1.1 0-2-.2-2.8-.6s-1.5-.9-1.9-1.6-.7-1.4-.7-2.1h3.2c0 .6.3 1.1.7 1.4s1 .5 1.7.5c.6 0 1.1-.1 1.5-.4s.4-.7.4-1.1zM1200.3 247.5c0-.7.2-1.2.7-1.7s1-.7 1.7-.7 1.3.2 1.7.6.7 1 .7 1.7v.4c0 .7-.2 1.2-.6 1.7s-1 .6-1.7.6-1.3-.2-1.7-.7-.7-1-.7-1.7v-.2zM1227.3 248.6c0 1.7-.3 3.1-.8 4.4s-1.4 2.2-2.4 2.9-2.2 1-3.6 1c-1.3 0-2.5-.3-3.6-1s-1.8-1.6-2.4-2.8-.9-2.6-.9-4.2v-1.2c0-1.6.3-3.1.9-4.3s1.4-2.2 2.4-2.9 2.2-1 3.6-1 2.6.3 3.6 1 1.8 1.6 2.4 2.9.8 2.7.8 4.4v.8zm-2.2-1.1c0-2-.4-3.6-1.2-4.7s-1.9-1.6-3.4-1.6c-1.4 0-2.5.5-3.4 1.6s-1.2 2.6-1.3 4.5v1.3c0 2 .4 3.5 1.2 4.6s2 1.7 3.4 1.7c1.5 0 2.6-.5 3.4-1.6s1.2-2.6 1.2-4.6v-1.2zM1236.2 245.8c-.3-.1-.7-.1-1.1-.1-1.4 0-2.4.6-2.9 1.8v9h-2.2v-12.7h2.1v1.5c.7-1.1 1.7-1.7 3-1.7.4 0 .7.1 1 .2v2zM1245.3 256.6c-.1-.2-.2-.7-.3-1.3-1 1-2.2 1.6-3.6 1.6-1.2 0-2.3-.4-3.1-1.1s-1.2-1.6-1.2-2.7c0-1.3.5-2.3 1.5-3.1s2.4-1.1 4.2-1.1h2.1v-1c0-.8-.2-1.4-.7-1.8s-1.1-.7-2-.7c-.8 0-1.4.2-1.9.6s-.8.9-.8 1.4h-2.2c0-.6.2-1.2.7-1.8s1.1-1.1 1.8-1.4 1.6-.5 2.5-.5c1.5 0 2.6.4 3.4 1.1s1.3 1.7 1.3 3v5.8c0 1.2.1 2.1.4 2.8v.2h-2.1zm-3.6-1.7c.7 0 1.3-.2 1.9-.5s1.1-.8 1.3-1.4v-2.6h-1.7c-2.7 0-4 .8-4 2.3 0 .7.2 1.2.7 1.6s1.1.6 1.8.6zM1255.4 255c.8 0 1.4-.2 2-.7s.9-1.1 1-1.8h2.1c0 .7-.3 1.4-.8 2.1s-1.1 1.2-1.8 1.6-1.6.6-2.4.6c-1.7 0-3.1-.6-4.1-1.7s-1.5-2.7-1.5-4.7v-.4c0-1.2.2-2.3.7-3.3s1.1-1.7 2-2.2 1.8-.8 3-.8c1.4 0 2.6.4 3.5 1.3s1.4 2 1.5 3.3h-2.1c-.1-.8-.4-1.5-.9-2s-1.2-.8-2.1-.8c-1.1 0-2 .4-2.6 1.2s-.9 1.9-.9 3.4v.4c0 1.5.3 2.6.9 3.4s1.4 1.1 2.5 1.1zM1265 256.6h-2.2v-18h2.2v18zM1273.5 256.8c-1.7 0-3.1-.6-4.2-1.7s-1.6-2.6-1.6-4.5v-.4c0-1.3.2-2.4.7-3.4s1.2-1.8 2-2.3 1.8-.8 2.8-.8c1.6 0 2.9.5 3.8 1.6s1.4 2.6 1.4 4.7v.9h-8.6c0 1.2.4 2.3 1.1 3s1.6 1.2 2.7 1.2c.8 0 1.4-.2 1.9-.5s1-.7 1.4-1.2l1.3 1c-1 1.6-2.6 2.4-4.7 2.4zm-.3-11.4c-.9 0-1.6.3-2.2 1s-1 1.5-1.1 2.7h6.4v-.2c-.1-1.1-.4-2-.9-2.6s-1.3-.9-2.2-.9zM1286.7 256.6v-17.1h4.8c1.5 0 2.8.3 3.9 1s2 1.6 2.6 2.8.9 2.6.9 4.2v1.1c0 1.6-.3 3-.9 4.2s-1.5 2.1-2.7 2.8-2.5 1-4 1h-4.6zm2.3-15.3v13.4h2.4c1.7 0 3.1-.5 4-1.6s1.4-2.6 1.4-4.6v-1c0-1.9-.5-3.4-1.4-4.5-.9-1.1-2.2-1.6-3.9-1.6h-2.5zM1302.2 256.6v-17.1h5.6c1.9 0 3.2.4 4.2 1.1s1.4 1.9 1.4 3.4c0 .8-.2 1.5-.7 2.1s-1.1 1.1-1.9 1.4c.9.3 1.7.7 2.2 1.5s.8 1.6.8 2.6c0 1.5-.5 2.7-1.5 3.6s-2.4 1.3-4.2 1.3h-5.9zm2.3-9.8h3.4c1 0 1.8-.2 2.4-.7.6-.5.9-1.2.9-2 0-.9-.3-1.6-.8-2-.5-.4-1.4-.6-2.5-.6h-3.3v5.3zm0 1.8v6.1h3.7c1 0 1.9-.3 2.5-.8s.9-1.3.9-2.2c0-2.1-1.1-3.1-3.4-3.1h-3.7zM1200.3 277.5c0-.7.2-1.2.7-1.7s1-.7 1.7-.7 1.3.2 1.7.6.7 1 .7 1.7v.4c0 .7-.2 1.2-.6 1.7s-1 .6-1.7.6-1.3-.2-1.7-.7-.7-1-.7-1.7v-.2zM1218.5 278.6l-2.1 2.2v5.8h-2.2v-17.1h2.2v8.4l7.6-8.4h2.7l-6.7 7.5 7.2 9.5h-2.7l-6-7.9zM1236.5 286.6c-.1-.2-.2-.7-.3-1.3-1 1-2.2 1.6-3.6 1.6-1.2 0-2.3-.4-3.1-1.1s-1.2-1.6-1.2-2.7c0-1.3.5-2.3 1.5-3.1s2.4-1.1 4.2-1.1h2.1v-1c0-.8-.2-1.4-.7-1.8s-1.1-.7-2-.7c-.8 0-1.4.2-1.9.6s-.8.9-.8 1.4h-2.2c0-.6.2-1.2.7-1.8s1.1-1.1 1.8-1.4 1.6-.5 2.5-.5c1.5 0 2.6.4 3.4 1.1s1.3 1.7 1.3 3v5.8c0 1.2.1 2.1.4 2.8v.2h-2.1zm-3.6-1.7c.7 0 1.3-.2 1.9-.5s1.1-.8 1.3-1.4v-2.6h-1.7c-2.7 0-4 .8-4 2.3 0 .7.2 1.2.7 1.6s1.1.6 1.8.6zM1242.5 286.6v-11h-2v-1.7h2v-1.3c0-1.4.4-2.4 1.1-3.2s1.8-1.1 3.1-1.1c.5 0 1 .1 1.5.2l-.1 1.7c-.4-.1-.8-.1-1.2-.1-.7 0-1.2.2-1.6.6s-.6 1-.6 1.8v1.3h2.7v1.7h-2.7v11h-2.2zM1253.1 280.7l-1.4 1.4v4.5h-2.2v-18h2.2v10.9l1.2-1.4 3.9-4.2h2.6l-4.9 5.3 5.5 7.4h-2.5l-4.4-5.9zM1269.3 286.6c-.1-.2-.2-.7-.3-1.3-1 1-2.2 1.6-3.6 1.6-1.2 0-2.3-.4-3.1-1.1s-1.2-1.6-1.2-2.7c0-1.3.5-2.3 1.5-3.1s2.4-1.1 4.2-1.1h2.1v-1c0-.8-.2-1.4-.7-1.8s-1.1-.7-2-.7c-.8 0-1.4.2-1.9.6s-.8.9-.8 1.4h-2.2c0-.6.2-1.2.7-1.8s1.1-1.1 1.8-1.4 1.6-.5 2.5-.5c1.5 0 2.6.4 3.4 1.1s1.3 1.7 1.3 3v5.8c0 1.2.1 2.1.4 2.8v.2h-2.1zm-3.6-1.7c.7 0 1.3-.2 1.9-.5s1.1-.8 1.3-1.4v-2.6h-1.7c-2.7 0-4 .8-4 2.3 0 .7.2 1.2.7 1.6s1.1.6 1.8.6zM1200.3 307.5c0-.7.2-1.2.7-1.7s1-.7 1.7-.7 1.3.2 1.7.6.7 1 .7 1.7v.4c0 .7-.2 1.2-.6 1.7s-1 .6-1.7.6-1.3-.2-1.7-.7-.7-1-.7-1.7v-.2zM1227.3 308.6c0 1.7-.3 3.1-.8 4.4s-1.4 2.2-2.4 2.9-2.2 1-3.6 1c-1.3 0-2.5-.3-3.6-1s-1.8-1.6-2.4-2.8-.9-2.6-.9-4.2v-1.2c0-1.6.3-3.1.9-4.3s1.4-2.2 2.4-2.9 2.2-1 3.6-1 2.6.3 3.6 1 1.8 1.6 2.4 2.9.8 2.7.8 4.4v.8zm-2.2-1.1c0-2-.4-3.6-1.2-4.7s-1.9-1.6-3.4-1.6c-1.4 0-2.5.5-3.4 1.6s-1.2 2.6-1.3 4.5v1.3c0 2 .4 3.5 1.2 4.6s2 1.7 3.4 1.7c1.5 0 2.6-.5 3.4-1.6s1.2-2.6 1.2-4.6v-1.2zM1239.6 312.1h-7.1l-1.6 4.5h-2.3l6.5-17.1h2l6.5 17.1h-2.3l-1.7-4.5zm-6.5-1.8h5.8l-2.9-8-2.9 8zM1253 315.3c-.8 1-2.1 1.5-3.7 1.5-1.4 0-2.4-.4-3.1-1.2s-1.1-1.9-1.1-3.5v-8.2h2.2v8.2c0 1.9.8 2.9 2.3 2.9 1.7 0 2.8-.6 3.3-1.9v-9.2h2.2v12.7h-2.1v-1.3zM1261.1 300.8v3.1h2.4v1.7h-2.4v7.9c0 .5.1.9.3 1.1.2.3.6.4 1.1.4.2 0 .6 0 1-.1v1.7c-.6.2-1.1.2-1.7.2-1 0-1.7-.3-2.2-.9s-.7-1.4-.7-2.5v-7.9h-2.3v-1.7h2.3v-3.1h2.2zM1267.9 305.4c1-1.2 2.2-1.8 3.8-1.8 2.7 0 4 1.5 4.1 4.5v8.4h-2.2v-8.4c0-.9-.2-1.6-.6-2s-1-.7-1.9-.7c-.7 0-1.3.2-1.9.6s-.9.9-1.2 1.5v9h-2.2v-18h2.2v6.9zM1289.8 309c-1.9-.6-3.3-1.2-4.2-2s-1.3-1.8-1.3-3c0-1.3.5-2.5 1.6-3.3s2.5-1.3 4.2-1.3c1.2 0 2.2.2 3.1.7s1.6 1.1 2.1 1.9.8 1.7.8 2.6h-2.3c0-1-.3-1.8-1-2.4s-1.6-.9-2.8-.9c-1.1 0-2 .2-2.6.7-.6.5-.9 1.2-.9 2 0 .7.3 1.3.9 1.8.6.5 1.6.9 3 1.3s2.5.8 3.3 1.3 1.4 1 1.8 1.7.6 1.4.6 2.3c0 1.4-.5 2.5-1.6 3.3s-2.5 1.2-4.3 1.2c-1.2 0-2.3-.2-3.3-.7s-1.8-1.1-2.3-1.8-.8-1.7-.8-2.7h2.3c0 1 .4 1.8 1.1 2.4s1.8.9 3.1.9c1.2 0 2.1-.2 2.7-.7s.9-1.1.9-2-.3-1.5-.9-1.9-1.7-1-3.2-1.4zM1303.7 316.8c-1.7 0-3.1-.6-4.2-1.7s-1.6-2.6-1.6-4.5v-.4c0-1.3.2-2.4.7-3.4s1.2-1.8 2-2.3 1.8-.8 2.8-.8c1.6 0 2.9.5 3.8 1.6s1.4 2.6 1.4 4.7v.9h-8.6c0 1.2.4 2.3 1.1 3s1.6 1.2 2.7 1.2c.8 0 1.4-.2 1.9-.5s1-.7 1.4-1.2l1.3 1c-1 1.6-2.6 2.4-4.7 2.4zm-.3-11.4c-.9 0-1.6.3-2.2 1s-1 1.5-1.1 2.7h6.4v-.2c-.1-1.1-.4-2-.9-2.6s-1.3-.9-2.2-.9zM1317 305.8c-.3-.1-.7-.1-1.1-.1-1.4 0-2.4.6-2.9 1.8v9h-2.2v-12.7h2.1v1.5c.7-1.1 1.7-1.7 3-1.7.4 0 .7.1 1 .2v2zM1323.2 313.6l3.1-9.7h2.2l-4.5 12.7h-1.7l-4.6-12.7h2.2l3.3 9.7zM1335.5 316.8c-1.7 0-3.1-.6-4.2-1.7s-1.6-2.6-1.6-4.5v-.4c0-1.3.2-2.4.7-3.4s1.2-1.8 2-2.3 1.8-.8 2.8-.8c1.6 0 2.9.5 3.8 1.6s1.4 2.6 1.4 4.7v.9h-8.6c0 1.2.4 2.3 1.1 3s1.6 1.2 2.7 1.2c.8 0 1.4-.2 1.9-.5s1-.7 1.4-1.2l1.3 1c-1 1.6-2.6 2.4-4.7 2.4zm-.3-11.4c-.9 0-1.6.3-2.2 1s-1 1.5-1.1 2.7h6.4v-.2c-.1-1.1-.4-2-.9-2.6s-1.3-.9-2.2-.9zM1348.8 305.8c-.3-.1-.7-.1-1.1-.1-1.4 0-2.4.6-2.9 1.8v9h-2.2v-12.7h2.1v1.5c.7-1.1 1.7-1.7 3-1.7.4 0 .7.1 1 .2v2zM1203.9 376.6h-3.5v-17.1h3.5v17.1zM1206.2 370.1c0-1.3.2-2.4.7-3.4s1.2-1.7 2.1-2.3 2-.8 3.2-.8c1.7 0 3.1.5 4.2 1.6s1.7 2.5 1.8 4.3v.9c0 1.9-.5 3.5-1.6 4.7-1.1 1.2-2.5 1.8-4.4 1.8s-3.3-.6-4.4-1.8c-1.1-1.2-1.6-2.8-1.6-4.8v-.2zm3.4.3c0 1.2.2 2.1.7 2.8.5.6 1.1 1 1.9 1 .8 0 1.5-.3 1.9-.9.5-.6.7-1.6.7-3 0-1.2-.2-2.1-.7-2.7s-1.1-1-1.9-1c-.8 0-1.5.3-1.9 1s-.7 1.4-.7 2.8zM1233.1 362.4h-5.2v14.2h-3.5v-14.2h-5.2v-2.8h13.9v2.8zM1243.4 370.6v6h-3.5v-17.1h6.7c1.3 0 2.4.2 3.4.7s1.7 1.1 2.2 2 .8 1.8.8 2.9c0 1.7-.6 3-1.7 4s-2.7 1.4-4.8 1.4h-3.1zm0-2.9h3.1c.9 0 1.6-.2 2.1-.7s.7-1.1.7-1.9c0-.8-.2-1.5-.7-2s-1.2-.8-2-.8h-3.2v5.4zM1258.5 376.6h-3.4v-18h3.4v18zM1268.4 376.6c-.2-.3-.3-.7-.3-1.1-.8.9-1.9 1.4-3.2 1.4-1.2 0-2.3-.4-3.1-1.1-.8-.7-1.2-1.6-1.2-2.7 0-1.3.5-2.4 1.5-3.1s2.4-1.1 4.3-1.1h1.6v-.7c0-.6-.2-1.1-.5-1.4s-.8-.5-1.4-.5c-.6 0-1 .1-1.3.4s-.5.6-.5 1.1h-3.4c0-.7.2-1.4.7-2s1.1-1.1 1.9-1.5 1.8-.5 2.8-.5c1.6 0 2.8.4 3.7 1.2s1.4 1.9 1.4 3.3v5.5c0 1.2.2 2.1.5 2.7v.2h-3.5zm-2.8-2.4c.5 0 1-.1 1.4-.3s.7-.5.9-.9v-2.2h-1.3c-1.7 0-2.6.6-2.7 1.8v.2c0 .4.1.8.4 1s.8.4 1.3.4zM1277.7 360.8v3.1h2.2v2.5h-2.2v6.3c0 .5.1.8.3 1s.5.3 1 .3c.4 0 .7 0 1-.1v2.6c-.7.2-1.3.3-2.1.3-2.4 0-3.6-1.2-3.6-3.6v-6.8h-1.9v-2.5h1.9v-3.1h3.4zM1282.5 376.6v-10.2h-1.9v-2.5h1.9v-1.1c0-1.4.4-2.5 1.2-3.3s2-1.2 3.4-1.2c.5 0 1 .1 1.7.2v2.6c-.3-.1-.6-.1-1-.1-1.3 0-1.9.6-1.9 1.8v1h2.5v2.5h-2.5v10.2h-3.4zM1289.4 370.1c0-1.3.2-2.4.7-3.4s1.2-1.7 2.1-2.3 2-.8 3.2-.8c1.7 0 3.1.5 4.2 1.6s1.7 2.5 1.8 4.3v.9c0 1.9-.5 3.5-1.6 4.7-1.1 1.2-2.5 1.8-4.4 1.8s-3.3-.6-4.4-1.8c-1.1-1.2-1.6-2.8-1.6-4.8v-.2zm3.4.3c0 1.2.2 2.1.7 2.8.5.6 1.1 1 1.9 1 .8 0 1.5-.3 1.9-.9.5-.6.7-1.6.7-3 0-1.2-.2-2.1-.7-2.7s-1.1-1-1.9-1c-.8 0-1.5.3-1.9 1s-.7 1.4-.7 2.8zM1310.3 367.1c-.5-.1-.9-.1-1.2-.1-1.3 0-2.1.4-2.5 1.3v8.3h-3.4v-12.7h3.2l.1 1.5c.7-1.2 1.6-1.7 2.8-1.7.4 0 .7.1 1.1.2l-.1 3.2zM1314.9 363.9l.1 1.4c.9-1.1 2.1-1.7 3.6-1.7 1.6 0 2.8.6 3.4 1.9.9-1.3 2.2-1.9 3.8-1.9 1.4 0 2.4.4 3.1 1.2s1 2 1 3.6v8.1h-3.4v-8.1c0-.7-.1-1.2-.4-1.6s-.8-.5-1.5-.5c-1 0-1.7.5-2.1 1.5v8.7h-3.4v-8.1c0-.7-.1-1.3-.4-1.6s-.8-.5-1.5-.5c-1 0-1.7.4-2.1 1.2v9h-3.4v-12.7h3.2zM1200.3 397.5c0-.7.2-1.2.7-1.7s1-.7 1.7-.7 1.3.2 1.7.6.7 1 .7 1.7v.4c0 .7-.2 1.2-.6 1.7s-1 .6-1.7.6-1.3-.2-1.7-.7-.7-1-.7-1.7v-.2zM1214.2 406.6v-17.1h4.8c1.5 0 2.8.3 3.9 1s2 1.6 2.6 2.8.9 2.6.9 4.2v1.1c0 1.6-.3 3-.9 4.2s-1.5 2.1-2.7 2.8-2.5 1-4 1h-4.6zm2.2-15.3v13.4h2.4c1.7 0 3.1-.5 4-1.6s1.4-2.6 1.4-4.6v-1c0-1.9-.5-3.4-1.4-4.5-.9-1.1-2.2-1.6-3.9-1.6h-2.5zM1234.6 406.8c-1.7 0-3.1-.6-4.2-1.7s-1.6-2.6-1.6-4.5v-.4c0-1.3.2-2.4.7-3.4s1.2-1.8 2-2.3 1.8-.8 2.8-.8c1.6 0 2.9.5 3.8 1.6s1.4 2.6 1.4 4.7v.9h-8.6c0 1.2.4 2.3 1.1 3s1.6 1.2 2.7 1.2c.8 0 1.4-.2 1.9-.5s1-.7 1.4-1.2l1.3 1c-1 1.6-2.6 2.4-4.7 2.4zm-.3-11.4c-.9 0-1.6.3-2.2 1s-1 1.5-1.1 2.7h6.4v-.2c-.1-1.1-.4-2-.9-2.6s-1.3-.9-2.2-.9zM1245.8 403.6l3.1-9.7h2.2l-4.5 12.7h-1.7l-4.6-12.7h2.2l3.3 9.7zM1253 390.5c0-.4.1-.6.3-.9s.5-.4 1-.4.7.1 1 .4.3.5.3.9-.1.6-.3.9-.5.4-1 .4-.7-.1-1-.4-.3-.5-.3-.9zm2.4 16.1h-2.2v-12.7h2.2v12.7zM1263.7 405c.8 0 1.4-.2 2-.7s.9-1.1 1-1.8h2.1c0 .7-.3 1.4-.8 2.1s-1.1 1.2-1.8 1.6-1.6.6-2.4.6c-1.7 0-3.1-.6-4.1-1.7s-1.5-2.7-1.5-4.7v-.4c0-1.2.2-2.3.7-3.3s1.1-1.7 2-2.2 1.8-.8 3-.8c1.4 0 2.6.4 3.5 1.3s1.4 2 1.5 3.3h-2.1c-.1-.8-.4-1.5-.9-2s-1.2-.8-2.1-.8c-1.1 0-2 .4-2.6 1.2s-.9 1.9-.9 3.4v.4c0 1.5.3 2.6.9 3.4s1.4 1.1 2.5 1.1zM1276.2 406.8c-1.7 0-3.1-.6-4.2-1.7s-1.6-2.6-1.6-4.5v-.4c0-1.3.2-2.4.7-3.4s1.2-1.8 2-2.3 1.8-.8 2.8-.8c1.6 0 2.9.5 3.8 1.6s1.4 2.6 1.4 4.7v.9h-8.6c0 1.2.4 2.3 1.1 3s1.6 1.2 2.7 1.2c.8 0 1.4-.2 1.9-.5s1-.7 1.4-1.2l1.3 1c-1 1.6-2.6 2.4-4.7 2.4zm-.3-11.4c-.9 0-1.6.3-2.2 1s-1 1.5-1.1 2.7h6.4v-.2c-.1-1.1-.4-2-.9-2.6s-1.3-.9-2.2-.9zM1292.4 389.5l5.6 13.9 5.6-13.9h2.9v17.1h-2.2V400l.2-7.2-5.6 13.8h-1.7l-5.6-13.8.2 7.1v6.6h-2.2v-17.1h2.8zM1317.7 406.6c-.1-.2-.2-.7-.3-1.3-1 1-2.2 1.6-3.6 1.6-1.2 0-2.3-.4-3.1-1.1s-1.2-1.6-1.2-2.7c0-1.3.5-2.3 1.5-3.1s2.4-1.1 4.2-1.1h2.1v-1c0-.8-.2-1.4-.7-1.8s-1.1-.7-2-.7c-.8 0-1.4.2-1.9.6s-.8.9-.8 1.4h-2.2c0-.6.2-1.2.7-1.8s1.1-1.1 1.8-1.4 1.6-.5 2.5-.5c1.5 0 2.6.4 3.4 1.1s1.3 1.7 1.3 3v5.8c0 1.2.1 2.1.4 2.8v.2h-2.1zm-3.6-1.7c.7 0 1.3-.2 1.9-.5s1.1-.8 1.3-1.4v-2.6h-1.7c-2.7 0-4 .8-4 2.3 0 .7.2 1.2.7 1.6s1.1.6 1.8.6zM1324.7 393.9l.1 1.6c1-1.2 2.2-1.8 3.8-1.8 2.7 0 4 1.5 4.1 4.5v8.4h-2.2v-8.4c0-.9-.2-1.6-.6-2s-1-.7-1.9-.7c-.7 0-1.3.2-1.9.6s-.9.9-1.2 1.5v9h-2.2v-12.7h2zM1343.5 406.6c-.1-.2-.2-.7-.3-1.3-1 1-2.2 1.6-3.6 1.6-1.2 0-2.3-.4-3.1-1.1s-1.2-1.6-1.2-2.7c0-1.3.5-2.3 1.5-3.1s2.4-1.1 4.2-1.1h2.1v-1c0-.8-.2-1.4-.7-1.8s-1.1-.7-2-.7c-.8 0-1.4.2-1.9.6s-.8.9-.8 1.4h-2.2c0-.6.2-1.2.7-1.8s1.1-1.1 1.8-1.4 1.6-.5 2.5-.5c1.5 0 2.6.4 3.4 1.1s1.3 1.7 1.3 3v5.8c0 1.2.1 2.1.4 2.8v.2h-2.1zm-3.6-1.7c.7 0 1.3-.2 1.9-.5s1.1-.8 1.3-1.4v-2.6h-1.7c-2.7 0-4 .8-4 2.3 0 .7.2 1.2.7 1.6s1.1.6 1.8.6zM1347.9 400.1c0-2 .5-3.5 1.4-4.7s2.1-1.8 3.6-1.8 2.8.5 3.6 1.6l.1-1.4h2v12.4c0 1.6-.5 2.9-1.5 3.9s-2.3 1.4-3.9 1.4c-.9 0-1.8-.2-2.7-.6s-1.5-.9-2-1.6l1.1-1.3c.9 1.1 2.1 1.7 3.4 1.7 1.1 0 1.9-.3 2.5-.9s.9-1.4.9-2.5v-1.1c-.9 1-2.1 1.5-3.6 1.5s-2.7-.6-3.6-1.8-1.3-2.7-1.3-4.8zm2.2.3c0 1.4.3 2.6.9 3.4s1.4 1.2 2.5 1.2c1.4 0 2.4-.6 3-1.9v-5.8c-.7-1.2-1.7-1.8-3-1.8-1.1 0-1.9.4-2.5 1.2s-.9 2.1-.9 3.7zM1366.9 406.8c-1.7 0-3.1-.6-4.2-1.7s-1.6-2.6-1.6-4.5v-.4c0-1.3.2-2.4.7-3.4s1.2-1.8 2-2.3 1.8-.8 2.8-.8c1.6 0 2.9.5 3.8 1.6s1.4 2.6 1.4 4.7v.9h-8.6c0 1.2.4 2.3 1.1 3s1.6 1.2 2.7 1.2c.8 0 1.4-.2 1.9-.5s1-.7 1.4-1.2l1.3 1c-.9 1.6-2.5 2.4-4.7 2.4zm-.2-11.4c-.9 0-1.6.3-2.2 1s-1 1.5-1.1 2.7h6.4v-.2c-.1-1.1-.4-2-.9-2.6s-1.3-.9-2.2-.9zM1376.2 393.9l.1 1.4c.9-1.1 2.2-1.6 3.8-1.6 1.8 0 3 .7 3.6 2 .4-.6 1-1.1 1.6-1.5s1.5-.6 2.4-.6c2.8 0 4.2 1.5 4.2 4.4v8.5h-2.2v-8.4c0-.9-.2-1.6-.6-2s-1.1-.7-2.1-.7c-.8 0-1.5.2-2 .7s-.8 1.1-.9 1.9v8.4h-2.2v-8.3c0-1.8-.9-2.8-2.7-2.8-1.4 0-2.4.6-2.9 1.8v9.3h-2.2v-12.7h2.1zM1400.2 406.8c-1.7 0-3.1-.6-4.2-1.7s-1.6-2.6-1.6-4.5v-.4c0-1.3.2-2.4.7-3.4s1.2-1.8 2-2.3 1.8-.8 2.8-.8c1.6 0 2.9.5 3.8 1.6s1.4 2.6 1.4 4.7v.9h-8.6c0 1.2.4 2.3 1.1 3s1.6 1.2 2.7 1.2c.8 0 1.4-.2 1.9-.5s1-.7 1.4-1.2l1.3 1c-1 1.6-2.6 2.4-4.7 2.4zm-.2-11.4c-.9 0-1.6.3-2.2 1s-1 1.5-1.1 2.7h6.4v-.2c-.1-1.1-.4-2-.9-2.6s-1.3-.9-2.2-.9zM1409.5 393.9l.1 1.6c1-1.2 2.2-1.8 3.8-1.8 2.7 0 4 1.5 4.1 4.5v8.4h-2.2v-8.4c0-.9-.2-1.6-.6-2s-1-.7-1.9-.7c-.7 0-1.3.2-1.9.6s-.9.9-1.2 1.5v9h-2.2v-12.7h2zM1423.4 390.8v3.1h2.4v1.7h-2.4v7.9c0 .5.1.9.3 1.1.2.3.6.4 1.1.4.2 0 .6 0 1-.1v1.7c-.6.2-1.1.2-1.7.2-1 0-1.7-.3-2.2-.9s-.7-1.4-.7-2.5v-7.9h-2.3v-1.7h2.3v-3.1h2.2zM1200.3 427.5c0-.7.2-1.2.7-1.7s1-.7 1.7-.7 1.3.2 1.7.6.7 1 .7 1.7v.4c0 .7-.2 1.2-.6 1.7s-1 .6-1.7.6-1.3-.2-1.7-.7-.7-1-.7-1.7v-.2zM1223.6 432.1h-7.1l-1.6 4.5h-2.3l6.5-17.1h2l6.5 17.1h-2.3l-1.7-4.5zm-6.5-1.8h5.8l-2.9-8-2.9 8zM1231.3 423.9l.1 1.6c1-1.2 2.2-1.8 3.8-1.8 2.7 0 4 1.5 4.1 4.5v8.4h-2.2v-8.4c0-.9-.2-1.6-.6-2s-1-.7-1.9-.7c-.7 0-1.3.2-1.9.6s-.9.9-1.2 1.5v9h-2.2v-12.7h2zM1250.1 436.6c-.1-.2-.2-.7-.3-1.3-1 1-2.2 1.6-3.6 1.6-1.2 0-2.3-.4-3.1-1.1s-1.2-1.6-1.2-2.7c0-1.3.5-2.3 1.5-3.1s2.4-1.1 4.2-1.1h2.1v-1c0-.8-.2-1.4-.7-1.8s-1.1-.7-2-.7c-.8 0-1.4.2-1.9.6s-.8.9-.8 1.4h-2.2c0-.6.2-1.2.7-1.8s1.1-1.1 1.8-1.4 1.6-.5 2.5-.5c1.5 0 2.6.4 3.4 1.1s1.3 1.7 1.3 3v5.8c0 1.2.1 2.1.4 2.8v.2h-2.1zm-3.6-1.7c.7 0 1.3-.2 1.9-.5s1.1-.8 1.3-1.4v-2.6h-1.7c-2.7 0-4 .8-4 2.3 0 .7.2 1.2.7 1.6s1.1.6 1.8.6zM1257.4 436.6h-2.2v-18h2.2v18zM1264.8 433.4l3-9.5h2.3l-5.1 14.6c-.8 2.1-2 3.2-3.8 3.2h-.4l-.8-.2v-1.8h.6c.7 0 1.3-.1 1.7-.4s.7-.8 1-1.6l.5-1.3-4.5-12.5h2.4l3.1 9.5zM1274.7 420.8v3.1h2.4v1.7h-2.4v7.9c0 .5.1.9.3 1.1.2.3.6.4 1.1.4.2 0 .6 0 1-.1v1.7c-.6.2-1.1.2-1.7.2-1 0-1.7-.3-2.2-.9s-.7-1.4-.7-2.5v-7.9h-2.3v-1.7h2.3v-3.1h2.2zM1279.4 420.5c0-.4.1-.6.3-.9s.5-.4 1-.4.7.1 1 .4.3.5.3.9-.1.6-.3.9-.5.4-1 .4-.7-.1-1-.4-.3-.5-.3-.9zm2.3 16.1h-2.2v-12.7h2.2v12.7zM1290 435c.8 0 1.4-.2 2-.7s.9-1.1 1-1.8h2.1c0 .7-.3 1.4-.8 2.1s-1.1 1.2-1.8 1.6-1.6.6-2.4.6c-1.7 0-3.1-.6-4.1-1.7s-1.5-2.7-1.5-4.7v-.4c0-1.2.2-2.3.7-3.3s1.1-1.7 2-2.2 1.8-.8 3-.8c1.4 0 2.6.4 3.5 1.3s1.4 2 1.5 3.3h-2.1c-.1-.8-.4-1.5-.9-2s-1.2-.8-2.1-.8c-1.1 0-2 .4-2.6 1.2s-.9 1.9-.9 3.4v.4c0 1.5.3 2.6.9 3.4s1.4 1.1 2.5 1.1zM1304.7 433.2c0-.6-.2-1-.7-1.4s-1.2-.6-2.3-.8-2-.5-2.6-.8-1.1-.7-1.4-1.2-.5-1-.5-1.6c0-1 .4-1.9 1.3-2.6s2-1.1 3.4-1.1 2.6.4 3.5 1.1 1.3 1.7 1.3 2.8h-2.2c0-.6-.3-1.1-.8-1.5s-1.1-.6-1.9-.6c-.8 0-1.4.2-1.9.5s-.7.8-.7 1.3.2.9.6 1.2 1.2.5 2.2.8 2 .5 2.6.9 1.2.7 1.5 1.2.5 1 .5 1.7c0 1.1-.5 2-1.4 2.7s-2.1 1-3.5 1c-1 0-1.9-.2-2.7-.5s-1.4-.9-1.8-1.5-.7-1.3-.7-2.1h2.2c0 .7.3 1.3.9 1.7s1.3.6 2.2.6c.8 0 1.5-.2 2-.5s.9-.7.9-1.3zM1315.5 438h-1.9l7.1-18.5h1.9l-7.1 18.5zM1333.7 419.5l5.6 13.9 5.6-13.9h2.9v17.1h-2.2V430l.2-7.2-5.6 13.8h-1.7l-5.6-13.8.2 7.1v6.6h-2.2v-17.1h2.8zM1353.8 434.7h8.1v1.8h-10.3v-17.1h2.3v15.3z"/></g><g><circle fill-rule="evenodd" clip-rule="evenodd" fill="#FCC414" cx="728.4" cy="157.7" r="47.2"/><path fill="#030303" d="M728.3 209c-28.2 0-51.1-22.9-51.1-51.1s22.9-51.1 51.1-51.1c28.2 0 51.1 22.9 51.1 51.1S756.5 209 728.3 209zm0-97.9c-25.8 0-46.8 21-46.8 46.8s21 46.8 46.8 46.8c25.8 0 46.8-21 46.8-46.8s-21-46.8-46.8-46.8z"/><path fill-rule="evenodd" clip-rule="evenodd" d="M736 144.4c-3.1-1.4-4.9-4.8-4.3-8.2 3.1 1.5 4.9 4.9 4.3 8.2z"/><g fill-rule="evenodd" clip-rule="evenodd"><path d="M718.1 172.9c.5 1.7 1.3 3.2 2.4 4.6h16.1c1.1-1.4 1.9-2.9 2.4-4.6h-20.9zm33.9-16.6c-.5.5-.5 1.3-.1 1.8l.2.2c7.3-6.2 11.7-11.1 9.5-14.9-2.4-3.4-12.6-1.8-25 3.8.6-1.3.9-2.7.9-4 0-.5 0-1-.1-1.5-.3-1.8-1.1-3.5-2.5-4.9-.7-.8-1.6-1.3-2.5-1.8v-.1l1-2.1c.2-.3 0-.7-.3-.9-.3-.2-.7 0-.9.3l-1 2.3c-1.7-.5-3.6-.5-5.3 0l-1-2.3c-.2-.3-.5-.5-.9-.3-.3.2-.5.5-.3.9l.9 2 .1.2c-.9.4-1.8 1-2.5 1.8a8.81 8.81 0 0 0-2.6 6.6c0 1.3.3 2.6.9 3.8-3.2-1.4-21.1-8.8-24.7-3.8-3.3 4.6 6.8 12.6 9.4 14.9l.2-.2c.5-.5.4-1.3-.1-1.8-1.3-1.2-3.4-3.3-4.8-5.3-1.9-2.6-1.9-4.2-1-5 2.8-2.7 13.4.9 16.7 2.1 3.1 1.2 6.5 2.7 10 4.6-16.7 9.7-28.1 21.3-25.4 26 1.7 2.9 8.7 2.5 17.7-.6l-.3-.5c-.3-.5-.9-.7-1.5-.6-6.2 1.9-10.1 2.8-11.5.8-1.9-3.2 7.6-14.4 22.4-23l1.1-.6c.4.2.7.4 1.1.6 14.8 8.5 24.3 19.7 22.4 23-1.3 2-5.2 1.1-11.5-.8-.6-.2-1.2.1-1.5.6l-.3.5c9 3.2 16 3.6 17.7.6 2.7-4.6-8.7-16.2-25.4-26 11.8-6.2 22.4-9 26.3-7 3.5 1.8-2.7 8-5.5 10.6zm-31-11.9c-.5-3.4 1.2-6.7 4.3-8.2.5 3.4-1.3 6.8-4.3 8.2zm15 0c-3.1-1.4-4.9-4.8-4.3-8.2 3.1 1.5 4.9 4.9 4.3 8.2zm2.7 19.1c-3.1-2.3-6.5-4.5-10.2-6.7-3.7 2.2-7.1 4.4-10.2 6.7-.6 1.8-.9 3.7-.8 5.5h22c.1-1.8-.2-3.7-.8-5.5zM724 181.3c1.4 1.4 2.5 2.7 4.5 6.5 2.1-3.7 3.2-5 4.5-6.5h-9z"/><path fill="#FFF" d="M736 144.4c-3.1-1.4-4.9-4.8-4.3-8.2 3.1 1.5 4.9 4.9 4.3 8.2zM721 144.4c-.5-3.4 1.2-6.7 4.3-8.2.5 3.4-1.3 6.8-4.3 8.2z"/></g><path fill-rule="evenodd" clip-rule="evenodd" fill="#FFF" d="M705.5 157.5s.3-.6-.4-1.2c-2.8-2.6-8.9-8.8-5.4-10.6 3.9-2 14.5.9 26.3 7.1-5.9 3.4-10 6.3-14.3 9.8-4.7-3.6-5.6-4.4-6.2-5.1zM752.1 177.8c-1.3 2-5.2 1.1-11.5-.8-.3-.1-.6-.1-.8 0 1.9-2.8 2.3-7.9 1.7-11.6v-.1c-.2-1.5-.5-2.6-.9-3.1 8.3 6.7 12.9 13.3 11.5 15.6z"/><g fill="#030303"><path d="M685.8 217.3v20.3c0 .5-.4.8-.9.8h-4.5v-7.9c0-.5-.4-.8-.9-.8h-7.2c-.5 0-.9.4-.9.8v7.9h-4.5c-.5 0-.9-.4-.9-.8v-20.3c0-.5.4-.8.9-.8h4.5v7.8c0 .5.4.8.9.8h7.2c.5 0 .9-.4.9-.8v-7.8h4.6c.4 0 .8.4.8.8zM691.4 219h3.3c.4 0 .8.3.8.7v18c0 .4-.3.7-.8.7h-3.3c-.4 0-.8-.3-.8-.7v-18c0-.3.3-.7.8-.7zM718.2 220l-6.5 18.2c-.1.3-.4.5-.7.5h-5c-.3 0-.6-.2-.7-.5l-6.5-18.2c-.2-.5.2-1 .7-1h3.3c.3 0 .6.2.7.5l4.3 12.3c.2.7 1.2.7 1.5 0l4.3-12.3c.1-.3.4-.5.7-.5h3.3c.4 0 .7.5.6 1zM734.9 235.5v2.2c0 .4-.3.7-.8.7h-11.9c-.4 0-.8-.3-.8-.7v-18c0-.4.3-.7.8-.7H734c.4 0 .8.3.8.7v2.2c0 .4-.3.7-.8.7h-7c-.4 0-.8.3-.8.7v3.4h7.2v3.6h-7.2v3.5c0 .4.3.7.8.7h7.1c.4.3.8.6.8 1zM763.8 217.3v20.3c0 .5-.4.8-.9.8h-3.7c-.5 0-.9-.4-.9-.8l-.1-12.9c0-.8-4.9 6.1-4.9 6.1-.2.2-.4.4-.7.4H751c-.3 0-.6-.1-.7-.4 0 0-4.8-7-4.8-6.1v12.9c0 .5-.4.8-.9.8H741c-.5 0-.9-.4-.9-.8v-20.3c0-.5.4-.8.9-.8h4.9c.3 0 .6.1.7.4l4.6 6.7c.3.5 1.1.5 1.4 0l4.6-6.7c.2-.2.4-.4.7-.4h4.9c.6 0 1 .4 1 .8zM789.7 232.6c-.5 1.3-1.3 2.4-2.3 3.3-.3.3-.3.8 0 1.1l3 3.2h-5.8c-.3 0-.5-.1-.7-.3l-1-1.1c-.2-.2-.5-.3-.9-.3-.9.2-2 .3-3.1.3-2.5 0-4.7-.5-6.4-1.5-1.8-1-3.1-2.4-4-4.1-.9-1.7-1.3-3.7-1.3-5.9 0-2.1.4-4.1 1.3-5.8.9-1.7 2.2-3.1 4-4.1 1.8-1 3.9-1.5 6.4-1.5 2.5 0 4.6.5 6.4 1.5 1.8 1 3.1 2.4 4 4.1.9 1.7 1.3 3.7 1.3 5.8.1 2.1-.3 3.8-.9 5.3zm-15.3 0c1.1 1.3 2.6 1.9 4.6 1.9h.1l-1.4-1.6c-.5-.5-.1-1.4.7-1.4h3.7c.3 0 .5.1.7.3.4.4 1 .8 1.3.3.2-.4.6-1.3.8-1.8.3-.9.5-1.9.5-3 0-1.3-.2-2.5-.7-3.6s-1.2-1.9-2.1-2.5c-.9-.6-2-.9-3.3-.9-2 0-3.5.6-4.6 1.9-1.1 1.3-1.6 3-1.6 5.1-.3 2.3.2 4 1.3 5.3z"/></g><path fill-rule="evenodd" clip-rule="evenodd" fill="#FFF" d="M745.6 162.6c-4.2-3.5-8.5-6.4-14.4-9.8 11.8-6.2 22.4-9 26.3-7 3.5 1.8-2.6 8-5.4 10.6-.5.5-.4.7-.4 1.2-.6.7-1.4 1.5-6.1 5zM716.6 162.2c-.4.5-.7 1.7-.9 3.1v.1c-.7 3.7-.2 8.8 1.7 11.6-.3-.1-.5-.1-.8 0-6.2 1.9-10.1 2.8-11.5.8-1.4-2.4 3.2-8.9 11.5-15.6z"/></g><g><path fill="#F2F2F2" d="M692.8 421.5h71v50h-71z"/><path fill="#FFF" stroke="#000" stroke-miterlimit="10" d="M763.7 420.1h-70.8c-1 0-1.8.8-1.8 1.8v50.2c0 1 .8 1.8 1.8 1.8h33.6v6h-7.4c-1 0-1.8.8-1.8 1.8s.8 1.8 1.8 1.8h18.8c1 0 1.8-.8 1.8-1.8s-.8-1.8-1.8-1.8h-7.7v-6h33.6c1 0 1.8-.8 1.8-1.8v-50.2c-.1-1-.9-1.8-1.9-1.8zm-1.8 50.2h-67.2v-46.6h67.2v46.6z"/></g><g><path fill="#FFF" stroke="#000" stroke-miterlimit="10" d="M690.6 340.1h-57.9c-4.5 0-8.1-3.6-8.1-8.1v-57c0-4.5 3.6-8.1 8.1-8.1h57.9c4.5 0 8.1 3.6 8.1 8.1v57c0 4.4-3.6 8.1-8.1 8.1z"/><path fill-rule="evenodd" clip-rule="evenodd" fill="none" stroke="#000" stroke-miterlimit="10" d="M629.3 276.5c0-2.6 2.1-4.6 4.6-4.6h55.3c2.6 0 4.6 2.1 4.6 4.6v9.3c0 2.6-2.1 4.6-4.6 4.6H634c-2.6 0-4.6-2.1-4.6-4.6v-9.3h-.1zM629.3 298.8c0-2.6 2.1-4.6 4.6-4.6h55.3c2.6 0 4.6 2.1 4.6 4.6v9.3c0 2.6-2.1 4.6-4.6 4.6H634c-2.6 0-4.6-2.1-4.6-4.6v-9.3h-.1zm55.6 2.1c-1.4 0-2.6 1.2-2.6 2.6 0 1.4 1.2 2.6 2.6 2.6 1.4 0 2.6-1.2 2.6-2.6 0-1.5-1.2-2.6-2.6-2.6h0zM629.3 321.1c0-2.6 2.1-4.6 4.6-4.6h55.3c2.6 0 4.6 2.1 4.6 4.6v9.3c0 2.6-2.1 4.6-4.6 4.6H634c-2.6 0-4.6-2.1-4.6-4.6v-9.3h-.1zm55.6 2.1c-1.4 0-2.6 1.2-2.6 2.6 0 1.4 1.2 2.6 2.6 2.6 1.4 0 2.6-1.2 2.6-2.6 0-1.5-1.2-2.6-2.6-2.6h0z"/><path fill-rule="evenodd" clip-rule="evenodd" d="M661.6 345.8c2.4 0 4.3 1.9 4.3 4.3s-1.9 4.3-4.3 4.3-4.3-1.9-4.3-4.3c0-2.3 1.9-4.3 4.3-4.3z"/><path d="M674.1 351.3h-25V349h11.3v-9.5h2.4v9.5h11.3z"/><path fill-rule="evenodd" clip-rule="evenodd" fill="none" stroke="#000" stroke-miterlimit="10" d="M684.9 278.5c-1.4 0-2.6 1.2-2.6 2.6 0 1.4 1.2 2.6 2.6 2.6 1.4 0 2.6-1.2 2.6-2.6 0-1.5-1.2-2.6-2.6-2.6h0z"/><g><path fill="#FFF" stroke="#000" stroke-miterlimit="10" d="M824 340.1h-57.9c-4.5 0-8.1-3.6-8.1-8.1v-57c0-4.5 3.6-8.1 8.1-8.1H824c4.5 0 8.1 3.6 8.1 8.1v57c0 4.4-3.6 8.1-8.1 8.1z"/><path fill-rule="evenodd" clip-rule="evenodd" fill="none" stroke="#000" stroke-miterlimit="10" d="M762.8 276.5c0-2.6 2.1-4.6 4.6-4.6h55.3c2.6 0 4.6 2.1 4.6 4.6v9.3c0 2.6-2.1 4.6-4.6 4.6h-55.3c-2.6 0-4.6-2.1-4.6-4.6v-9.3h0zM762.8 298.8c0-2.6 2.1-4.6 4.6-4.6h55.3c2.6 0 4.6 2.1 4.6 4.6v9.3c0 2.6-2.1 4.6-4.6 4.6h-55.3c-2.6 0-4.6-2.1-4.6-4.6v-9.3h0zm55.5 2.1c-1.4 0-2.6 1.2-2.6 2.6 0 1.4 1.2 2.6 2.6 2.6 1.4 0 2.6-1.2 2.6-2.6 0-1.5-1.2-2.6-2.6-2.6h0zM762.8 321.1c0-2.6 2.1-4.6 4.6-4.6h55.3c2.6 0 4.6 2.1 4.6 4.6v9.3c0 2.6-2.1 4.6-4.6 4.6h-55.3c-2.6 0-4.6-2.1-4.6-4.6v-9.3h0zm55.5 2.1c-1.4 0-2.6 1.2-2.6 2.6 0 1.4 1.2 2.6 2.6 2.6 1.4 0 2.6-1.2 2.6-2.6 0-1.5-1.2-2.6-2.6-2.6h0z"/><path fill-rule="evenodd" clip-rule="evenodd" d="M795 345.8c2.4 0 4.3 1.9 4.3 4.3s-1.9 4.3-4.3 4.3-4.3-1.9-4.3-4.3c0-2.3 2-4.3 4.3-4.3z"/><path d="M807.5 351.3h-25V349h11.4v-9.5h2.3v9.5h11.3z"/><path fill-rule="evenodd" clip-rule="evenodd" fill="none" stroke="#000" stroke-miterlimit="10" d="M818.3 278.5c-1.4 0-2.6 1.2-2.6 2.6 0 1.4 1.2 2.6 2.6 2.6 1.4 0 2.6-1.2 2.6-2.6 0-1.5-1.2-2.6-2.6-2.6h0z"/></g><g><path d="M630.5 364.1l5.6 13.9 5.6-13.9h2.9v17.1h-2.2v-6.6l.2-7.2-5.6 13.8h-1.7l-5.6-13.8.2 7.1v6.6h-2.2V364h2.8zM661.6 373.2c0 1.6-.3 3.1-.8 4.3s-1.3 2.1-2.2 2.8l3 2.4-1.5 1.4-3.6-2.9c-.6.1-1.2.2-1.8.2-1.3 0-2.5-.3-3.6-1s-1.8-1.6-2.4-2.8-.9-2.6-.9-4.2v-1.2c0-1.6.3-3.1.9-4.3s1.4-2.2 2.4-2.9 2.2-1 3.6-1 2.6.3 3.6 1 1.8 1.6 2.4 2.9.8 2.7.8 4.4v.9zm-2.2-1.1c0-2-.4-3.6-1.2-4.6s-1.9-1.6-3.4-1.6c-1.4 0-2.5.5-3.3 1.6s-1.2 2.6-1.3 4.5v1.3c0 2 .4 3.5 1.2 4.6s2 1.7 3.4 1.7 2.6-.5 3.4-1.6 1.2-2.6 1.2-4.6v-1.3zM676.4 366h-5.5v15.2h-2.2V366h-5.5v-1.8h13.2v1.8zM690.9 366h-5.5v15.2h-2.2V366h-5.5v-1.8h13.2v1.8zM628.6 410v-17.1h5.6c1.9 0 3.2.4 4.2 1.1s1.4 1.9 1.4 3.4c0 .8-.2 1.5-.7 2.1s-1.1 1.1-1.9 1.4c.9.3 1.7.7 2.2 1.5s.8 1.6.8 2.6c0 1.5-.5 2.7-1.5 3.6s-2.4 1.3-4.2 1.3h-5.9zm2.3-9.8h3.4c1 0 1.8-.2 2.4-.7s.9-1.2.9-2c0-.9-.3-1.6-.8-2s-1.4-.6-2.5-.6H631v5.3zm0 1.8v6.1h3.7c1 0 1.9-.3 2.5-.8s.9-1.3.9-2.2c0-2.1-1.1-3.1-3.4-3.1h-3.7zM649.3 399.3c-.3-.1-.7-.1-1.1-.1-1.4 0-2.4.6-2.9 1.8v9h-2.2v-12.7h2.1v1.5c.7-1.1 1.7-1.7 3-1.7.4 0 .7.1 1 .2v2zM650.5 403.5c0-1.2.2-2.4.7-3.4s1.2-1.8 2-2.3 1.9-.8 3-.8c1.7 0 3.1.6 4.2 1.8s1.6 2.8 1.6 4.8v.2c0 1.2-.2 2.3-.7 3.3s-1.1 1.7-2 2.3-1.9.8-3 .8c-1.7 0-3.1-.6-4.2-1.8s-1.6-2.8-1.6-4.7v-.2zm2.2.3c0 1.4.3 2.5 1 3.4s1.5 1.3 2.6 1.3 2-.4 2.6-1.3 1-2.1 1-3.6c0-1.4-.3-2.5-1-3.4s-1.5-1.3-2.6-1.3-1.9.4-2.6 1.3-1 2-1 3.6zM668.3 404.1l-1.4 1.4v4.5h-2.2v-18h2.2v10.9l1.2-1.4 3.9-4.2h2.6l-4.9 5.3 5.5 7.4h-2.5l-4.4-5.9zM682 410.2c-1.7 0-3.1-.6-4.2-1.7s-1.6-2.6-1.6-4.5v-.4c0-1.3.2-2.4.7-3.4s1.2-1.8 2-2.3 1.8-.8 2.8-.8c1.6 0 2.9.5 3.8 1.6s1.4 2.6 1.4 4.7v.9h-8.6c0 1.2.4 2.3 1.1 3s1.6 1.2 2.7 1.2c.8 0 1.4-.2 1.9-.5s1-.7 1.4-1.2l1.3 1c-1 1.6-2.6 2.4-4.7 2.4zm-.3-11.3c-.9 0-1.6.3-2.2 1s-1 1.5-1.1 2.7h6.4v-.2c-.1-1.1-.4-2-.9-2.6s-1.3-.9-2.2-.9zM695.6 399.3c-.3-.1-.7-.1-1.1-.1-1.4 0-2.4.6-2.9 1.8v9h-2.2v-12.7h2.1v1.5c.7-1.1 1.7-1.7 3-1.7.4 0 .7.1 1 .2v2z"/></g><g><path d="M765.5 364.1l5.6 13.9 5.6-13.9h2.9v17.1h-2.2v-6.6l.2-7.2-5.6 13.8h-1.7l-5.6-13.8.2 7.1v6.6h-2.2V364h2.8zM796.6 373.2c0 1.6-.3 3.1-.8 4.3s-1.3 2.1-2.2 2.8l3 2.4-1.5 1.4-3.6-2.9c-.6.1-1.2.2-1.8.2-1.3 0-2.5-.3-3.6-1s-1.8-1.6-2.4-2.8-.9-2.6-.9-4.2v-1.2c0-1.6.3-3.1.9-4.3s1.4-2.2 2.4-2.9 2.2-1 3.6-1 2.6.3 3.6 1 1.8 1.6 2.4 2.9.8 2.7.8 4.4v.9zm-2.2-1.1c0-2-.4-3.6-1.2-4.6s-1.9-1.6-3.4-1.6c-1.4 0-2.5.5-3.3 1.6s-1.2 2.6-1.3 4.5v1.3c0 2 .4 3.5 1.2 4.6s2 1.7 3.4 1.7 2.6-.5 3.4-1.6 1.2-2.6 1.2-4.6v-1.3zM811.4 366h-5.5v15.2h-2.2V366h-5.5v-1.8h13.2v1.8zM825.9 366h-5.5v15.2h-2.2V366h-5.5v-1.8h13.2v1.8zM763.6 410v-17.1h5.6c1.9 0 3.2.4 4.2 1.1s1.4 1.9 1.4 3.4c0 .8-.2 1.5-.7 2.1s-1.1 1.1-1.9 1.4c.9.3 1.7.7 2.2 1.5s.8 1.6.8 2.6c0 1.5-.5 2.7-1.5 3.6s-2.4 1.3-4.2 1.3h-5.9zm2.3-9.8h3.4c1 0 1.8-.2 2.4-.7s.9-1.2.9-2c0-.9-.3-1.6-.8-2s-1.4-.6-2.5-.6H766v5.3zm0 1.8v6.1h3.7c1 0 1.9-.3 2.5-.8s.9-1.3.9-2.2c0-2.1-1.1-3.1-3.4-3.1h-3.7zM784.3 399.3c-.3-.1-.7-.1-1.1-.1-1.4 0-2.4.6-2.9 1.8v9h-2.2v-12.7h2.1v1.5c.7-1.1 1.7-1.7 3-1.7.4 0 .7.1 1 .2v2zM785.5 403.5c0-1.2.2-2.4.7-3.4s1.2-1.8 2-2.3 1.9-.8 3-.8c1.7 0 3.1.6 4.2 1.8s1.6 2.8 1.6 4.8v.2c0 1.2-.2 2.3-.7 3.3s-1.1 1.7-2 2.3-1.9.8-3 .8c-1.7 0-3.1-.6-4.2-1.8s-1.6-2.8-1.6-4.7v-.2zm2.2.3c0 1.4.3 2.5 1 3.4s1.5 1.3 2.6 1.3 2-.4 2.6-1.3 1-2.1 1-3.6c0-1.4-.3-2.5-1-3.4s-1.5-1.3-2.6-1.3-1.9.4-2.6 1.3-1 2-1 3.6zM803.3 404.1l-1.4 1.4v4.5h-2.2v-18h2.2v10.9l1.2-1.4 3.9-4.2h2.6l-4.9 5.3 5.5 7.4h-2.5l-4.4-5.9zM817 410.2c-1.7 0-3.1-.6-4.2-1.7s-1.6-2.6-1.6-4.5v-.4c0-1.3.2-2.4.7-3.4s1.2-1.8 2-2.3 1.8-.8 2.8-.8c1.6 0 2.9.5 3.8 1.6s1.4 2.6 1.4 4.7v.9h-8.6c0 1.2.4 2.3 1.1 3s1.6 1.2 2.7 1.2c.8 0 1.4-.2 1.9-.5s1-.7 1.4-1.2l1.3 1c-1 1.6-2.6 2.4-4.7 2.4zm-.3-11.3c-.9 0-1.6.3-2.2 1s-1 1.5-1.1 2.7h6.4v-.2c-.1-1.1-.4-2-.9-2.6s-1.3-.9-2.2-.9zM830.6 399.3c-.3-.1-.7-.1-1.1-.1-1.4 0-2.4.6-2.9 1.8v9h-2.2v-12.7h2.1v1.5c.7-1.1 1.7-1.7 3-1.7.4 0 .7.1 1 .2v2z"/></g></g></g></svg>