<svg id="Logos" xmlns="http://www.w3.org/2000/svg" viewBox="0 0 1440 340"><path d="M545.91,79.58V248.37a7.1,7.1,0,0,1-7.23,7L500.93,255c0-65.93,0-66,0-66a7.11,7.11,0,0,0-7.23-7H433.36a7.11,7.11,0,0,0-7.23,7l-.21,66c-36,0-37.57.32-37.57.32a7.1,7.1,0,0,1-7.23-7V79.58a7.1,7.1,0,0,1,7.23-7l37.57.22c0,63.75.21,65.13.21,65.13a7.11,7.11,0,0,0,7.23,7h60.31a7.11,7.11,0,0,0,7.23-7l-.1-65.22c42.13,0,37.88-.13,37.88-.13A7.11,7.11,0,0,1,545.91,79.58Z" style="fill:#fff"/><path d="M592.32,93.77h27a6.29,6.29,0,0,1,6.41,6.17V249.41a6.29,6.29,0,0,1-6.41,6.17h-27a6.29,6.29,0,0,1-6.41-6.17V99.94A6.29,6.29,0,0,1,592.32,93.77Z" style="fill:#fff"/><path d="M815.28,102,761,253.35a6.39,6.39,0,0,1-6,4.15H713.6a6.38,6.38,0,0,1-6.05-4.15L653.08,102a6.21,6.21,0,0,1,6-8.19H686.5a6.38,6.38,0,0,1,6.07,4.2L728.2,200.32c2,5.61,10.2,5.61,12.14,0L775.79,98a6.38,6.38,0,0,1,6.07-4.21h27.37A6.2,6.2,0,0,1,815.28,102Z" style="fill:#fff"/><path d="M954.63,231v18.4a6.28,6.28,0,0,1-6.4,6.17H849a6.28,6.28,0,0,1-6.4-6.17V99.94a6.28,6.28,0,0,1,6.4-6.17h98.14a6.29,6.29,0,0,1,6.41,6.17v18.39a6.3,6.3,0,0,1-6.41,6.18H888.84a6.29,6.29,0,0,0-6.4,6.17s-.08-.09-.08,28.25c0,0-.81.1,59.71.1l0,30.23c-62.48,0-59.9.22-59.9.22,0,29.7.22,29.19.22,29.19a6.29,6.29,0,0,0,6.4,6.17h59.39A6.29,6.29,0,0,1,954.63,231Z" style="fill:#fff"/><path d="M1195.44,79.58V248.37a7.1,7.1,0,0,1-7.23,7h-30.55a7.1,7.1,0,0,1-7.23-7L1150,141.14c0-6.84-40.43,50.68-40.43,50.68a7.33,7.33,0,0,1-5.95,3h-14.89a7.32,7.32,0,0,1-6-3.05s-40.07-57.9-40.07-51l.21,107.63a7.1,7.1,0,0,1-7.23,7h-30.55a7.1,7.1,0,0,1-7.23-7V79.58a7.11,7.11,0,0,1,7.23-7H1046a7.32,7.32,0,0,1,6,3.1l38.6,55.72a7.39,7.39,0,0,0,12,0l38.6-55.72a7.32,7.32,0,0,1,6-3.1h40.92A7.11,7.11,0,0,1,1195.44,79.58Z" style="fill:#fff"/><path d="M1410.87,206.88a80.32,80.32,0,0,1-19.07,27.68,6.74,6.74,0,0,0-.33,9.53l25,26.34c-45.59,0-48.11.33-48.11.33a7.35,7.35,0,0,1-5.5-2.44l-8.18-9.22a7.5,7.5,0,0,0-7.24-2.23,120.69,120.69,0,0,1-25.68,2.56q-31.5,0-53.51-12.41a80.48,80.48,0,0,1-33-34q-11-21.57-11-48.82,0-26.75,11-48.21t33-34.11q22-12.65,53.51-12.65,31,0,53,12.65a82.72,82.72,0,0,1,33.13,34.23Q1419,137.7,1419,164.21,1419,187.6,1410.87,206.88Zm-127.4-.12q13.24,16,38.25,16h.51l-11.7-13.06c-4-4.52-.71-11.53,5.48-11.53h30.93a7.38,7.38,0,0,1,5.46,2.4h0c3.24,3.61,8.13,6.68,10.57,2.53,2-3.46,4.89-10.81,6.27-14.93a77.5,77.5,0,0,0,3.75-24.71q0-16.63-6-29.65a47.32,47.32,0,0,0-17.63-20.49q-11.62-7.47-27.64-7.47-24.75,0-38.13,16.15t-13.38,42.18Q1270.21,190.75,1283.47,206.76Z" style="fill:#fff"/><circle cx="170.68" cy="169.75" r="138.55" style="fill:#ffc000"/><path d="M170.58,332.22C81,332.22,8.11,259.34,8.11,169.76S81,7.28,170.58,7.28,333.05,80.17,333.05,169.76,260.17,332.22,170.58,332.22Zm0-311.2c-82,0-148.73,66.72-148.73,148.74S88.57,318.49,170.58,318.49s148.74-66.72,148.74-148.73S252.6,21,170.58,21Z" style="fill:#fff"/><path d="M103.57,163a3.36,3.36,0,0,0-1-3.62c-8.16-7.7-26.18-25.92-15.9-31.15,11.44-5.82,42.71,2.5,77.34,20.76a309.38,309.38,0,0,0-42.08,28.66C107.89,167.45,105.39,165.16,103.57,163Z" style="fill:#fff;fill-rule:evenodd"/><path d="M240.5,222.68c-3.95,5.91-15.37,3.26-33.71-2.3a3.64,3.64,0,0,0-2.42.09c5.6-8.13,6.82-23.09,4.87-34a.39.39,0,0,1,0-.16.15.15,0,0,1,0-.08c-.59-4.28-1.53-7.65-2.61-9.16C231,196.67,244.53,215.8,240.5,222.68Z" style="fill:#fff;fill-rule:evenodd"/><path d="M221.22,177.91c-12.33-10.36-24.88-18.74-42.34-28.86,34.62-18.26,65.83-26.38,77.27-20.56,10.27,5.23-7.76,23.43-15.9,31.14-1.45,1.37-1.1,2-1.05,3.63C237.38,165.38,235.21,167.67,221.22,177.91Z" style="fill:#fff;fill-rule:evenodd"/><path d="M136.19,176.81c-1.08,1.51-2,4.89-2.6,9.16a.18.18,0,0,1,0,.09.39.39,0,0,1,0,.16c-2,10.91-.74,25.87,4.86,34a3.7,3.7,0,0,0-2.42-.08c-18.34,5.56-29.76,8.2-33.71,2.3C98.25,215.55,111.83,196.42,136.19,176.81Z" style="fill:#fff;fill-rule:evenodd"/><path d="M140.57,208.26a40.38,40.38,0,0,0,6.94,13.48h47.22a40,40,0,0,0,7-13.48Zm99.68-48.64a3.73,3.73,0,0,0-.18,5.25l.5.57C262,147.12,274.93,133,268.5,121.78c-7.08-9.88-36.92-5.19-73.52,11.27a26.72,26.72,0,0,0,2.77-11.88,26.51,26.51,0,0,0-15.19-24l.12-.29h0l2.81-6.11A1.95,1.95,0,1,0,182,89.11l-3.05,6.61a26.72,26.72,0,0,0-15.59,0l-3.06-6.61a1.95,1.95,0,0,0-3.54,1.62l2.73,5.91.22.47a26.8,26.8,0,0,0-12.58,35.62c-9.46-4.24-62-26-72.58-11.16-9.59,13.5,19.86,37.13,27.74,43.87l.51-.57a3.77,3.77,0,0,0-.16-5.25,119.8,119.8,0,0,1-14.17-15.51c-5.56-7.7-5.7-12.24-3-14.76,8.36-7.86,39.4,2.54,49,6.21A276,276,0,0,1,164,149c-49.2,28.52-82.62,62.59-74.73,76.25,5,8.57,25.53,7.45,52-1.87l-1-1.57a3.7,3.7,0,0,0-4.29-1.65c-18.34,5.56-29.76,8.21-33.71,2.3C96.72,213,124.69,180.05,168.15,155l3.26-1.88c1.1.61,2.2,1.24,3.27,1.88,43.46,25.07,71.43,58,65.91,67.51-3.94,5.91-15.36,3.26-33.7-2.3a3.71,3.71,0,0,0-4.3,1.65l-1,1.57c26.45,9.32,47,10.44,52,1.87,7.88-13.66-25.52-47.73-74.72-76.25,34.62-18.26,65.83-26.38,77.27-20.56C266.42,133.7,248.39,151.9,240.25,159.62Zm-91.36-35a22.61,22.61,0,0,1,12.75-24A22.67,22.67,0,0,1,148.89,124.65Zm44.28,0a22.64,22.64,0,0,1-12.75-24A22.64,22.64,0,0,1,193.17,124.65Zm8,56.09a351.43,351.43,0,0,0-30-19.6,347.63,347.63,0,0,0-30,19.6,45.08,45.08,0,0,0-2.4,16.23h64.77A45.73,45.73,0,0,0,201.13,180.74ZM157.81,233c4.07,4.25,7.23,8,13.31,19,6.09-11,9.26-14.74,13.31-19Z" style="fill-rule:evenodd"/><path d="M193.17,124.65a22.64,22.64,0,0,1-12.75-24A22.64,22.64,0,0,1,193.17,124.65Z" style="fill:#fff;fill-rule:evenodd"/><path d="M148.89,124.65a22.61,22.61,0,0,1,12.75-24A22.67,22.67,0,0,1,148.89,124.65Z" style="fill:#fff;fill-rule:evenodd"/></svg>