<?xml version="1.0" encoding="UTF-8"?>
<svg viewBox="0 0 1220 340" xmlns="http://www.w3.org/2000/svg">
<path d="m477.56 66.52v134.21a5.65 5.65 0 0 1-5.75 5.54l-30-0.26v-52.47a5.65 5.65 0 0 0-5.81-5.54h-47.93a5.64 5.64 0 0 0-5.75 5.54l-0.17 52.46c-28.6 0-29.87 0.26-29.87 0.26a5.64 5.64 0 0 1-5.75-5.54v-134.2a5.64 5.64 0 0 1 5.75-5.52l29.87 0.18c0 50.69 0.17 51.78 0.17 51.78a5.64 5.64 0 0 0 5.75 5.54h47.93a5.65 5.65 0 0 0 5.75-5.54l-0.09-51.86c33.51 0 30.13-0.1 30.13-0.1a5.65 5.65 0 0 1 5.77 5.52z" fill="#fff"/>
<path d="M514.45,77.8H536a5,5,0,0,1,5.09,4.91V201.56a5,5,0,0,1-5.09,4.9H514.45a5,5,0,0,1-5.09-4.9V82.71A5,5,0,0,1,514.45,77.8Z" fill="#fff"/>
<path d="m691.74 84.31-43.15 120.38a5.08 5.08 0 0 1-4.81 3.3h-32.89a5.07 5.07 0 0 1-4.81-3.3l-43.31-120.37a4.94 4.94 0 0 1 4.81-6.52h21.76a5.09 5.09 0 0 1 4.83 3.35l28.33 81.37a5.15 5.15 0 0 0 9.65 0l28.18-81.37a5.09 5.09 0 0 1 4.83-3.35h21.77a4.94 4.94 0 0 1 4.81 6.51z" fill="#fff"/>
<path d="M802.54,186.93v14.63a5,5,0,0,1-5.09,4.9H718.53a5,5,0,0,1-5.09-4.9V82.71a5,5,0,0,1,5.09-4.91h78a5,5,0,0,1,5.1,4.91V97.34a5,5,0,0,1-5.1,4.9H750.22a5,5,0,0,0-5.09,4.91s-.06-.07-.06,22.46c0,0-.64.09,47.47.09l0,24c-49.68,0-47.62.18-47.62.18,0,23.61.17,23.2.17,23.2a5,5,0,0,0,5.09,4.91h47.23A5,5,0,0,1,802.54,186.93Z" fill="#fff"/>
<path d="M994,66.52V200.73a5.64,5.64,0,0,1-5.74,5.54H964a5.64,5.64,0,0,1-5.75-5.54l-.34-85.26c0-5.44-32.15,40.3-32.15,40.3a5.83,5.83,0,0,1-4.73,2.39H909.17a5.81,5.81,0,0,1-4.76-2.43s-31.86-46-31.86-40.58l.17,85.58a5.64,5.64,0,0,1-5.75,5.54H842.68a5.64,5.64,0,0,1-5.75-5.54V66.52A5.64,5.64,0,0,1,842.68,61h32.53A5.8,5.8,0,0,1,880,63.45l30.7,44.3a5.87,5.87,0,0,0,9.56,0l30.69-44.3A5.82,5.82,0,0,1,955.72,61h32.54A5.64,5.64,0,0,1,994,66.52Z" fill="#fff"/>
<path d="m1165.3 167.74a64 64 0 0 1-15.17 22 5.34 5.34 0 0 0-0.26 7.57l19.84 21c-36.25 0-38.25 0.26-38.25 0.26a5.84 5.84 0 0 1-4.37-1.94l-6.5-7.33a6 6 0 0 0-5.77-1.77 96.42 96.42 0 0 1-20.41 2q-25 0-42.55-9.88a63.89 63.89 0 0 1-26.24-27q-8.74-17.16-8.75-38.81 0-21.28 8.75-38.34a65.27 65.27 0 0 1 26.24-27.12q17.51-10.06 42.55-10.06 24.66 0 42.16 10.06a65.82 65.82 0 0 1 26.34 27.22q8.85 17.16 8.85 38.24a86.64 86.64 0 0 1-6.46 33.9zm-101.3-0.09q10.54 12.73 30.42 12.74h0.4l-9.3-10.39a5.52 5.52 0 0 1 4.35-9.16h24.59a5.86 5.86 0 0 1 4.34 1.91c2.58 2.86 6.46 5.31 8.41 2a81.25 81.25 0 0 0 5-11.87 61.56 61.56 0 0 0 3-19.65 55.69 55.69 0 0 0-4.78-23.57 37.71 37.71 0 0 0-14-16.3q-9.26-5.93-22-5.94-19.68 0-30.32 12.84t-10.63 33.55q-0.02 21.09 10.52 33.84z" fill="#fff"/>
<path d="m365.94 265.06q-12.72-3.66-18.52-9a17.2 17.2 0 0 1-5.8-13.17 18.15 18.15 0 0 1 7.09-14.65q7.08-5.81 18.42-5.8a30.74 30.74 0 0 1 13.78 3 22.67 22.67 0 0 1 9.38 8.24 21.13 21.13 0 0 1 3.32 11.49h-9.94q0-6.82-4.33-10.73c-2.88-2.6-7-3.9-12.21-3.9q-7.32 0-11.41 3.22a10.79 10.79 0 0 0-4.1 9 9.7 9.7 0 0 0 3.89 7.77q3.89 3.18 13.24 5.81a61.05 61.05 0 0 1 14.64 5.8 22.14 22.14 0 0 1 7.83 7.39 18.87 18.87 0 0 1 2.55 9.94 17.54 17.54 0 0 1-7.11 14.53q-7.11 5.49-19 5.49a35.3 35.3 0 0 1-14.42-3 24.25 24.25 0 0 1-10.33-8.12 19.8 19.8 0 0 1-3.64-11.69h9.95a12.92 12.92 0 0 0 5 10.74q5 3.94 13.42 3.94 7.85 0 12-3.19a10.39 10.39 0 0 0 4.17-8.71 10.2 10.2 0 0 0-3.81-8.46q-3.91-3-14.06-5.94z" fill="#fff"/>
<path d="M422.62,274.85l1.44,9.89,2.12-8.91L441,223.48h8.34l14.48,52.35,2.06,9.07,1.6-10.1,11.64-51.32h9.95l-18.19,75h-9l-15.45-54.67-1.19-5.72-1.18,5.72L428,298.5h-9l-18.13-75h9.89Z" fill="#fff"/>
<path d="m539.27 278.87h-31.43l-7.06 19.63h-10.2l28.65-75h8.66l28.69 75h-10.15zm-28.44-8.09h25.51l-12.78-35.09z" fill="#fff"/>
<path d="M594.2,268.15H576.58V298.5h-10v-75h24.84q12.67,0,19.5,5.77t6.83,16.8A20.23,20.23,0,0,1,614,258.26,22.65,22.65,0,0,1,603.47,266l17.62,31.84v.62H610.48Zm-17.62-8.09h15.2q7.37,0,11.72-3.82A12.91,12.91,0,0,0,607.85,246q0-7-4.15-10.68t-12-3.77H576.58Z" fill="#fff"/>
<path d="m644.43 223.48 24.57 61.21 24.53-61.21h12.82v75h-9.89v-29.2l0.93-31.53-24.67 60.75h-7.57l-24.58-60.59 1 31.37v29.22h-9.89v-75z" fill="#fff"/>
<path d="M280.93,100.45a13.24,13.24,0,0,0,1.63-4.6l0-.24,0-.25c.73-11.65-17.4-20.71-32.25-26.14q-2.56-1.93-5.24-3.75c.41-.59.79-1.18,1.13-1.79a23.28,23.28,0,0,0,2.4-16.8l.5-.24a6.19,6.19,0,1,0-5.43-11.13l-1.08.52a23.19,23.19,0,0,0-4-3.26l.3-1.15a6.21,6.21,0,0,0-4.43-7.55,6.36,6.36,0,0,0-1.56-.2,6.2,6.2,0,0,0-6,4.64l-.14.54-.77,0a22.53,22.53,0,0,0-2.32.12,23,23,0,0,0-15.64,8.43c-2.27-4-5.26-8.86-8.65-13.65C190.56,11.36,182.9,5.25,176,5.25a11.37,11.37,0,0,0-3,.39c-12.8,3.51-10.92,23-8.91,35C85.46,40.87,21.53,105,21.53,183.69c0,78.9,64.19,143.09,143.09,143.09s143.09-64.19,143.09-143.09A142.32,142.32,0,0,0,280.93,100.45ZM164.62,314.68c-72.23,0-131-58.76-131-131s58.77-131,131-131a131,131,0,0,1,0,262Z" fill="#fff"/>
<path d="m284.89 183.5a120 120 0 1 1-120-120c15 0 33.34-0.27 46.55 4.74 14 5.29 22.65 16.13 33.56 25.92a119.68 119.68 0 0 1 39.89 89.34z" fill="#ffc000" fill-rule="evenodd"/>
<ellipse transform="translate(-70.44 61.91) rotate(-15.61)" cx="190.55" cy="287.81" rx="6.53" ry="6.51"/>
<ellipse transform="translate(-66.14 65.39) rotate(-15.61)" cx="205.38" cy="273.89" rx="7.31" ry="7.29"/>
<ellipse transform="translate(-59.3 68.65) rotate(-15.61)" cx="220.68" cy="250.56" rx="8.86" ry="8.84"/>
<ellipse transform="translate(-51.69 69.16) rotate(-15.61)" cx="226.34" cy="223.09" rx="9.64" ry="9.62"/>
<ellipse transform="translate(-45.55 63.02) rotate(-15.61)" cx="207.02" cy="197.63" rx="11.19" ry="11.17"/>
<path d="m236.31 63.73a15.59 15.59 0 0 1 3.69-18.37 15.61 15.61 0 0 1-3.69 18.37z" fill="#fff" fill-rule="evenodd"/>
<path d="m171.76 85.41a27.65 27.65 0 0 0-2.17 10.22l25.2 20.6a27.71 27.71 0 0 0 9.59-4.16z"/>
<path d="m169 122.09c8-3.2 11.38-3.82 15.39-4.32l-14.21-11.62c0.29 4.05 0.33 7.43-1.18 15.94z"/>
<path d="m216.09 97.14a242.33 242.33 0 0 0-7.46-23.56 241.64 241.64 0 0 0-24.56-2.58 31.13 31.13 0 0 0-8.36 7.62l34.57 28.26a31.47 31.47 0 0 0 5.81-9.74z"/>
<path d="m212.69 44.41a15.62 15.62 0 0 0 17.31-7.25 15.57 15.57 0 0 0-17.31 7.25z" fill="none"/>
<path d="M233.87,71.55a31.27,31.27,0,0,1-4.21-.29l-.16,0-.15,0c-.68-.21-16.64-5.41-23.21-19.12-3.63-7.58,1.35-14,1.56-14.28a23.14,23.14,0,0,1,16-8.83c.78-.07,1.57-.11,2.35-.11h.62l.1-.39A6.4,6.4,0,0,1,233,23.68a6.39,6.39,0,0,1,6.18,8l-.26,1a22.77,22.77,0,0,1,3.81,3.12l.95-.47a6.4,6.4,0,0,1,8.53,2.93,6.38,6.38,0,0,1-2.93,8.53l-.37.18a23.28,23.28,0,0,1-2.46,16.82,24.13,24.13,0,0,1-2.23,3.25A23.29,23.29,0,0,1,242,69.34C240.32,70.82,237.6,71.55,233.87,71.55Z" fill="#fff"/>
<path d="m171.74 45.12a2.3 2.3 0 0 0 1-2.39c-1-7.67-2.66-25.25 5.11-23.56 8.64 1.89 21.7 20 32.22 44.82a213.62 213.62 0 0 0-35-3.06c-2.95-11.57-3.28-13.88-3.33-15.81z" fill="#fff" fill-rule="evenodd"/>
<path d="m218.81 136.7c-4.69 1.43-9.63-5-17-15.93a2.51 2.51 0 0 0-1.33-1c6.53-1.89 13.71-9.34 17.43-16a0.24 0.24 0 0 1 0.06-0.09c1.55-2.54 2.53-4.76 2.61-6 4.48 20.97 3.42 37.11-1.77 39.02z" fill="#fff" fill-rule="evenodd"/>
<path d="M228.05,104.39C226,93.48,223,83.53,218,70.51c26.45,5.36,46.65,14.64,50.21,22.74,3.21,7.28-14.36,9.12-22.07,9.69-1.37.1-1.45.58-2.14,1.48C242.14,104.75,240,105,228.05,104.39Z" fill="#fff" fill-rule="evenodd"/>
<path d="m183.15 66.71c-1.24 0.33-3.21 1.73-5.39 3.75a0.18 0.18 0 0 1-0.08 0.07c-5.8 5-11.68 13.49-12.23 20.27a2.52 2.52 0 0 0-1.26-1.1c-12.21-5-19.46-8.61-19-13.48 0.81-5.39 16.4-9.68 37.96-9.51z" fill="#fff" fill-rule="evenodd"/>
<ellipse transform="translate(-24.73 40.85) rotate(-15.61)" cx="136.59" cy="110.6" rx="7.06" ry="7.04"/>
<ellipse transform="translate(-32.11 41.8) rotate(-15.61)" cx="136.39" cy="137.98" rx="8.87" ry="8.85"/>
<ellipse transform="translate(-37.77 45.78) rotate(-15.61)" cx="148.04" cy="160.61" rx="9.78" ry="9.75"/>
<ellipse transform="translate(-41.34 53.58) rotate(-15.61)" cx="174.73" cy="177.54" rx="11.59" ry="11.56"/>
<ellipse transform="translate(-72.08 54.52) rotate(-15.61)" cx="162.77" cy="290.12" rx="6.04" ry="6.03"/>
<ellipse transform="translate(-67.56 58.19) rotate(-15.61)" cx="178.43" cy="275.48" rx="6.76" ry="6.75"/>
<ellipse transform="translate(-61.7 60.62) rotate(-15.61)" cx="190.21" cy="255.31" rx="8.2" ry="8.18"/>
<ellipse transform="translate(-54.45 60.64) rotate(-15.61)" cx="193.91" cy="228.89" rx="8.92" ry="8.9"/>
<ellipse transform="matrix(.96 -.27 .27 .96 -49.56 54.34)" cx="173.37" cy="207.89" rx="10.36" ry="10.34"/>
<ellipse transform="translate(-30.67 36.13) rotate(-15.61)" cx="116.41" cy="129.91" rx="6.31" ry="6.3"/>
<ellipse transform="translate(-37.14 35.22) rotate(-15.61)" cx="109.86" cy="153.03" rx="7.93" ry="7.91"/>
<ellipse transform="translate(-42.22 40.01) rotate(-15.61)" cx="124.81" cy="173.96" rx="8.74" ry="8.72"/>
<ellipse transform="translate(-46 46.81) rotate(-15.61)" cx="147.7" cy="191.13" rx="10.36" ry="10.34"/>
<ellipse transform="translate(-71.65 48.54) rotate(-15.61)" cx="141.19" cy="285.54" rx="4.95" ry="4.94"/>
<ellipse transform="translate(-67.93 52.43) rotate(-15.61)" cx="157.24" cy="273.92" rx="5.54" ry="5.52"/>
<ellipse transform="translate(-63.27 53.85) rotate(-15.61)" cx="164.74" cy="257.64" rx="6.71" ry="6.7"/>
<ellipse transform="translate(-57.33 53.87) rotate(-15.61)" cx="167.77" cy="236.01" rx="7.3" ry="7.29"/>
<ellipse transform="translate(-53.39 48.55) rotate(-15.61)" cx="150.36" cy="218.95" rx="8.48" ry="8.46"/>
<ellipse transform="translate(-43.33 33.85) rotate(-15.61)" cx="101.76" cy="174.94" rx="6.49" ry="6.48"/>
<ellipse transform="translate(-47.83 37.04) rotate(-15.61)" cx="111.15" cy="192.94" rx="7.16" ry="7.14"/>
<ellipse transform="translate(-51 42.5) rotate(-15.61)" cx="129.47" cy="207.22" rx="8.48" ry="8.46"/>
<ellipse transform="translate(-30.61 47.13) rotate(-15.61)" cx="156.57" cy="135.18" rx="5.09" ry="5.08"/>
<path d="M246.19,102.93a2.57,2.57,0,0,0-2.39,2.72l0,.53c19.45-.42,32.52-2.35,34-11.12.53-8.36-17.44-18.88-44.16-26.06a18.41,18.41,0,0,0,6.66-5.14A17.43,17.43,0,0,0,242,61.29a18.13,18.13,0,0,0,2.31-10.87,17.79,17.79,0,0,0-1.69-6l.19-.1h0l4.17-2a1.34,1.34,0,1,0-1.18-2.41l-4.52,2.2A18.47,18.47,0,0,0,233,35.26l1.26-4.86a1.34,1.34,0,0,0-2.6-.68l-1.12,4.35-.09.34a18.75,18.75,0,0,0-6.24-.44,18.51,18.51,0,0,0-16,14C205,41.55,186.45,7,174.33,10.31c-11,3-5.6,28.49-4.33,35.52l.52-.08a2.59,2.59,0,0,0,2.2-2.87,82.87,82.87,0,0,1-.79-14.46c.39-6.54,2.29-9,4.83-9.2,7.89-.54,19.92,18.56,23.46,24.71A191.58,191.58,0,0,1,210.09,64c-38.7-6.24-71.41-2.64-73.15,8.1-1.1,6.73,10.37,15.11,28.55,21.67l.17-1.25a2.54,2.54,0,0,0-1.57-2.75c-12.21-5-19.46-8.61-19-13.48,1.23-7.51,30.51-12.86,64.64-7.28l2.56.42c.32.8.63,1.62.93,2.43,12.25,32.34,12.83,62.1,5.72,64.79-4.68,1.43-9.62-5-17-15.93a2.55,2.55,0,0,0-3-1l-1.19.42c10,16.51,20.54,26.09,26.92,23.67,10.16-3.85,7.2-36.61-6.62-73.3,26.45,5.36,46.65,14.64,50.21,22.74C271.47,100.52,253.9,102.36,246.19,102.93Zm-33.5-58.52A15.57,15.57,0,0,1,230,37.16,15.62,15.62,0,0,1,212.69,44.41Zm23.63,19.31A15.59,15.59,0,0,1,240,45.35,15.62,15.62,0,0,1,236.32,63.72Z"/>
<path d="M246.19,102.93a2.57,2.57,0,0,0-2.39,2.72l0,.53c19.45-.42,32.52-2.35,34-11.12.53-8.36-17.44-18.88-44.16-26.06a18.41,18.41,0,0,0,6.66-5.14A17.43,17.43,0,0,0,242,61.29a18.13,18.13,0,0,0,2.31-10.87,17.79,17.79,0,0,0-1.69-6l.19-.1h0l4.17-2a1.34,1.34,0,1,0-1.18-2.41l-4.52,2.2A18.47,18.47,0,0,0,233,35.26l1.26-4.86a1.34,1.34,0,0,0-2.6-.68l-1.12,4.35-.09.34a18.75,18.75,0,0,0-6.24-.44,18.51,18.51,0,0,0-16,14C205,41.55,186.45,7,174.33,10.31c-11,3-5.6,28.49-4.33,35.52l.52-.08a2.59,2.59,0,0,0,2.2-2.87,82.87,82.87,0,0,1-.79-14.46c.39-6.54,2.29-9,4.83-9.2,7.89-.54,19.92,18.56,23.46,24.71A191.58,191.58,0,0,1,210.09,64c-38.7-6.24-71.41-2.64-73.15,8.1-1.1,6.73,10.37,15.11,28.55,21.67l.17-1.25a2.54,2.54,0,0,0-1.57-2.75c-12.21-5-19.46-8.61-19-13.48,1.23-7.51,30.51-12.86,64.64-7.28l2.56.42c.32.8.63,1.62.93,2.43,12.25,32.34,12.83,62.1,5.72,64.79-4.68,1.43-9.62-5-17-15.93a2.55,2.55,0,0,0-3-1l-1.19.42c10,16.51,20.54,26.09,26.92,23.67,10.16-3.85,7.2-36.61-6.62-73.3,26.45,5.36,46.65,14.64,50.21,22.74C271.47,100.52,253.9,102.36,246.19,102.93Zm-33.5-58.52A15.57,15.57,0,0,1,230,37.16,15.62,15.62,0,0,1,212.69,44.41Zm23.63,19.31A15.59,15.59,0,0,1,240,45.35,15.62,15.62,0,0,1,236.32,63.72Z"/>
</svg>
