<svg id="Logos" xmlns="http://www.w3.org/2000/svg" viewBox="0 0 850 1000"><path d="M165,716.34V840.26a5.22,5.22,0,0,1-5.31,5.11L132,845.13c0-48.4,0-48.44,0-48.44a5.21,5.21,0,0,0-5.31-5.12H82.36a5.21,5.21,0,0,0-5.31,5.12l-.16,48.44c-26.4,0-27.58.24-27.58.24A5.22,5.22,0,0,1,44,840.26V716.34a5.22,5.22,0,0,1,5.31-5.12l27.58.16c0,46.81.16,47.82.16,47.82a5.21,5.21,0,0,0,5.31,5.12h44.27a5.21,5.21,0,0,0,5.31-5.12l-.07-47.88c30.93,0,27.81-.1,27.81-.1A5.22,5.22,0,0,1,165,716.34Z"/><path d="M199.06,726.75h19.87a4.62,4.62,0,0,1,4.7,4.53V841a4.62,4.62,0,0,1-4.7,4.54H199.06a4.62,4.62,0,0,1-4.7-4.54V731.28A4.62,4.62,0,0,1,199.06,726.75Z"/><path d="M362.76,732.76,322.92,843.91a4.69,4.69,0,0,1-4.44,3.06H288.1a4.7,4.7,0,0,1-4.44-3.05l-40-111.15a4.56,4.56,0,0,1,4.44-6h20.09a4.71,4.71,0,0,1,4.46,3.09L298.82,805a4.76,4.76,0,0,0,8.92,0l26-75.12a4.7,4.7,0,0,1,4.46-3.1h20.1A4.55,4.55,0,0,1,362.76,732.76Z"/><path d="M465.07,827.52V841a4.62,4.62,0,0,1-4.7,4.54H387.5a4.62,4.62,0,0,1-4.7-4.54V731.28a4.62,4.62,0,0,1,4.7-4.53h72.06a4.62,4.62,0,0,1,4.7,4.53v13.51a4.62,4.62,0,0,1-4.7,4.53H416.77a4.62,4.62,0,0,0-4.71,4.53s-.05-.06-.05,20.74c0,0-.6.08,43.83.08l0,22.19c-45.87,0-44,.17-44,.17,0,21.8.15,21.42.15,21.42a4.63,4.63,0,0,0,4.71,4.54h43.6A4.62,4.62,0,0,1,465.07,827.52Z"/><path d="M641.87,716.34V840.26a5.22,5.22,0,0,1-5.31,5.11H614.13a5.22,5.22,0,0,1-5.31-5.11l-.31-78.73c0-5-29.68,37.21-29.68,37.21a5.4,5.4,0,0,1-4.37,2.21H563.53a5.37,5.37,0,0,1-4.39-2.24s-29.42-42.51-29.42-37.47l.16,79a5.22,5.22,0,0,1-5.31,5.11H502.14a5.21,5.21,0,0,1-5.31-5.11V716.34a5.21,5.21,0,0,1,5.31-5.12h30a5.36,5.36,0,0,1,4.41,2.28l28.34,40.9a5.41,5.41,0,0,0,8.83,0l28.34-40.9a5.38,5.38,0,0,1,4.42-2.28h30A5.22,5.22,0,0,1,641.87,716.34Z"/><path d="M800,809.8a59,59,0,0,1-14,20.32,5,5,0,0,0-.24,7l18.32,19.34c-33.47,0-35.32.24-35.32.24a5.36,5.36,0,0,1-4-1.79l-6-6.78a5.52,5.52,0,0,0-5.32-1.63,88.87,88.87,0,0,1-18.85,1.88q-23.13,0-39.29-9.11a59,59,0,0,1-24.23-25Q663,798.47,663,778.47q0-19.63,8.08-35.39a60.18,60.18,0,0,1,24.23-25q16.17-9.3,39.29-9.3,22.77,0,38.93,9.3a60.75,60.75,0,0,1,24.32,25.13,75.82,75.82,0,0,1,8.17,35.3A79.85,79.85,0,0,1,800,809.8Zm-93.54-.09q9.74,11.77,28.09,11.77H735l-8.58-9.59a5.1,5.1,0,0,1,4-8.46h22.71a5.39,5.39,0,0,1,4,1.76h0c2.38,2.64,6,4.9,7.76,1.86a74.74,74.74,0,0,0,4.61-11,57,57,0,0,0,2.75-18.14,51.36,51.36,0,0,0-4.41-21.76,34.69,34.69,0,0,0-12.94-15q-8.54-5.48-20.29-5.49-18.18,0-28,11.86t-9.83,31Q696.76,798,706.49,809.71Z"/><path d="M230.94,926.18q-15.51-4.45-22.58-11a21,21,0,0,1-7.07-16.05,22.14,22.14,0,0,1,8.64-17.88q8.64-7.06,22.46-7.06a37.44,37.44,0,0,1,16.8,3.64,27.73,27.73,0,0,1,11.44,10,25.7,25.7,0,0,1,4.05,14H252.55q0-8.32-5.27-13.08t-14.89-4.76q-8.92,0-13.92,3.93a13.14,13.14,0,0,0-5,10.92,11.8,11.8,0,0,0,4.74,9.47q4.74,3.87,16.15,7.08t17.84,7.08a27.14,27.14,0,0,1,9.55,9,23.07,23.07,0,0,1,3.11,12.13,21.37,21.37,0,0,1-8.67,17.81q-8.67,6.69-23.18,6.69a43.08,43.08,0,0,1-17.59-3.61,29.58,29.58,0,0,1-12.6-9.9,24.17,24.17,0,0,1-4.43-14.26h12.13a15.75,15.75,0,0,0,6.12,13.1q6.12,4.8,16.37,4.81,9.54,0,14.63-3.9a12.63,12.63,0,0,0,5.09-10.62q0-6.72-4.71-10.39T230.94,926.18Z"/><path d="M300.05,938.12l1.76,12.06,2.57-10.87,18.09-63.83h10.18l17.65,63.83,2.52,11.06,1.94-12.32L369,875.48h12.13L358.91,967h-11L329.07,900.3l-1.44-7-1.45,7L306.64,967h-11l-22.11-91.47H285.6Z"/><path d="M442.28,943H404L395.35,967H382.91l34.93-91.47h10.55l35,91.47H451Zm-34.68-9.87h31.09l-15.58-42.78Z"/><path d="M509.24,930H487.76v37H475.63V875.48h30.28q15.46,0,23.78,7T538,903a24.61,24.61,0,0,1-4.62,14.89,27.52,27.52,0,0,1-12.85,9.48L542,966.2V967H529.1Zm-21.48-9.86h18.53q9,0,14.29-4.66T525.89,903q0-8.51-5.06-13t-14.6-4.59H487.76Z"/><path d="M570.5,875.48l29.9,74.64,29.9-74.64h15.64V967H633.88V931.33L635,892.88,605,967h-9.23l-30-73.88,1.2,38.26V967H554.92V875.48Z"/><path d="M661.66,213A85.59,85.59,0,0,1,641,225.22a258.38,258.38,0,0,1,43.08,143.14c0,143.32-116.59,259.91-259.9,259.91S164.24,511.68,164.24,368.36c0-139,109.73-252.9,247.13-259.59a130.3,130.3,0,0,1-5.22-23.72C258,94.36,140.24,217.87,140.24,368.36c0,156.55,127.36,283.91,283.91,283.91s283.9-127.36,283.9-283.91A282.22,282.22,0,0,0,661.66,213Z"/><path d="M662.85,367.48C662.85,499.22,556.06,606,424.31,606S185.78,499.22,185.78,367.48,292.57,128.94,424.31,128.94c29.77,0,66.27-.55,92.54,9.41,27.76,10.52,45,32.07,66.72,51.54A237.91,237.91,0,0,1,662.85,367.48Z" style="fill:#ffc000;fill-rule:evenodd"/><ellipse cx="475.16" cy="575.43" rx="12.98" ry="12.95" transform="translate(-137.35 149.13) rotate(-15.61)"/><ellipse cx="504.64" cy="547.77" rx="14.52" ry="14.49" transform="translate(-128.82 156.05) rotate(-15.61)"/><ellipse cx="535.04" cy="501.4" rx="17.62" ry="17.57" transform="translate(-115.21 162.52) rotate(-15.61)"/><ellipse cx="546.3" cy="446.77" rx="19.16" ry="19.11" transform="translate(-100.09 163.53) rotate(-15.61)"/><ellipse cx="507.89" cy="396.16" rx="22.25" ry="22.2" transform="translate(-87.89 151.33) rotate(-15.61)"/><ellipse cx="367.88" cy="223.15" rx="14.04" ry="14" transform="matrix(0.96, -0.27, 0.27, 0.96, -46.49, 107.26)"/><ellipse cx="367.48" cy="277.58" rx="17.64" ry="17.59" transform="translate(-61.15 109.16) rotate(-15.61)"/><ellipse cx="390.65" cy="322.57" rx="19.44" ry="19.39" transform="translate(-72.41 117.05) rotate(-15.61)"/><ellipse cx="443.71" cy="356.22" rx="23.04" ry="22.98" transform="translate(-79.51 132.58) rotate(-15.61)"/><ellipse cx="419.93" cy="580.04" rx="12.01" ry="11.99" transform="translate(-140.63 134.44) rotate(-15.61)"/><ellipse cx="451.05" cy="550.92" rx="13.44" ry="13.41" transform="translate(-131.64 141.74) rotate(-15.61)"/><ellipse cx="474.48" cy="510.83" rx="16.31" ry="16.27" transform="translate(-119.99 146.57) rotate(-15.61)"/><ellipse cx="481.84" cy="458.31" rx="17.74" ry="17.69" transform="translate(-105.58 146.61) rotate(-15.61)"/><ellipse cx="440.99" cy="416.57" rx="20.6" ry="20.55" transform="translate(-95.85 134.07) rotate(-15.61)"/><ellipse cx="327.77" cy="261.53" rx="12.55" ry="12.52" transform="translate(-58.3 97.88) rotate(-15.61)"/><ellipse cx="314.74" cy="307.5" rx="15.77" ry="15.73" transform="translate(-71.15 96.07) rotate(-15.61)"/><ellipse cx="344.45" cy="349.1" rx="17.38" ry="17.34" transform="translate(-81.25 105.6) rotate(-15.61)"/><ellipse cx="389.97" cy="383.25" rx="20.6" ry="20.55" transform="translate(-88.77 119.11) rotate(-15.61)"/><ellipse cx="377.02" cy="570.93" rx="9.83" ry="9.81" transform="translate(-139.76 122.55) rotate(-15.61)"/><ellipse cx="408.93" cy="547.83" rx="11.01" ry="10.98" transform="translate(-132.37 130.29) rotate(-15.61)"/><ellipse cx="423.84" cy="515.45" rx="13.35" ry="13.32" transform="translate(-123.1 133.11) rotate(-15.61)"/><ellipse cx="429.86" cy="472.46" rx="14.52" ry="14.48" transform="matrix(0.96, -0.27, 0.27, 0.96, -111.31, 133.14)"/><ellipse cx="395.26" cy="438.55" rx="16.86" ry="16.82" transform="translate(-103.46 122.58) rotate(-15.61)"/><ellipse cx="298.65" cy="351.06" rx="12.91" ry="12.88" transform="translate(-83.47 93.34) rotate(-15.61)"/><ellipse cx="317.31" cy="386.84" rx="14.23" ry="14.19" transform="translate(-92.41 99.69) rotate(-15.61)"/><ellipse cx="353.73" cy="415.23" rx="16.86" ry="16.82" transform="translate(-98.71 110.54) rotate(-15.61)"/><ellipse cx="407.59" cy="272.01" rx="10.13" ry="10.1" transform="translate(-58.17 119.75) rotate(-15.61)"/><path d="M566.12,130a31,31,0,0,1,7.29-36.51A31,31,0,0,1,566.12,130Z" style="fill:#fff;fill-rule:evenodd"/><path d="M437.8,173.07a55.37,55.37,0,0,0-4.33,20.32l50.11,41a54.91,54.91,0,0,0,19.05-8.28Z"/><path d="M432.26,246c16-6.36,22.61-7.6,30.59-8.6L434.6,214.31C435.23,222.35,435.32,229.08,432.26,246Z"/><path d="M525.92,196.39a480.45,480.45,0,0,0-14.83-46.82,474,474,0,0,0-48.82-5.21,61.93,61.93,0,0,0-16.62,15.13l68.73,56.18A62.62,62.62,0,0,0,525.92,196.39Z"/><path d="M519.16,91.56a31,31,0,0,0,34.33-14.41A31,31,0,0,0,519.16,91.56Z" style="fill:none"/><path d="M585.76,207.91a5.12,5.12,0,0,0-4.75,5.41l0,1c38.66-.83,64.64-4.66,67.51-22.1,1-16.62-34.68-37.53-87.8-51.8A36.66,36.66,0,0,0,574,130.24a35.38,35.38,0,0,0,3.49-5.1,36,36,0,0,0,4.59-21.62,35.44,35.44,0,0,0-3.34-12l.38-.2,0,0,8.27-4a2.67,2.67,0,1,0-2.34-4.8l-9,4.38a36.73,36.73,0,0,0-16.54-13.53l2.5-9.67a2.68,2.68,0,0,0-5.18-1.34L554.66,71l-.17.69a36.7,36.7,0,0,0-44.24,26.89C503.88,85.88,467,17.23,442.9,23.79c-21.87,6-11.12,56.63-8.6,70.61l1-.16a5.16,5.16,0,0,0,4.38-5.72c-.94-7.22-2.17-18.85-1.58-28.74.78-13,4.57-17.93,9.61-18.27,15.69-1.08,39.6,36.88,46.64,49.11A378.62,378.62,0,0,1,514,130.5c-76.94-12.41-142-5.24-145.42,16.1-2.19,13.38,20.62,30,56.76,43.08l.35-2.49a5.08,5.08,0,0,0-3.13-5.47c-24.28-10-38.69-17.11-37.76-26.8,2.42-14.91,60.63-25.56,128.49-14.47l5.08.83c.64,1.61,1.26,3.23,1.86,4.83,24.36,64.31,25.5,123.47,11.37,128.81-9.31,2.84-19.13-9.87-33.77-31.68a5.08,5.08,0,0,0-6-2l-2.37.83c20,32.83,40.83,51.86,53.51,47.06,20.21-7.66,14.32-72.78-13.15-145.72,52.57,10.66,92.73,29.11,99.82,45.21C636,203.12,601.09,206.78,585.76,207.91ZM519.16,91.56a31,31,0,0,1,34.33-14.41A31,31,0,0,1,519.16,91.56Zm47,38.4a31,31,0,0,1,7.3-36.51A31,31,0,0,1,566.13,130Z"/><path d="M519.16,91.56a31,31,0,0,1,34.33-14.41A31,31,0,0,1,519.16,91.56Z" style="fill:#fff;fill-rule:evenodd"/><path d="M437.76,93a4.63,4.63,0,0,0,2-4.76c-2-15.24-5.3-50.19,10.15-46.83,17.18,3.75,43.15,39.7,64.05,89.1-27.31-4.41-47.28-6-69.51-6.08C438.52,101.41,437.85,96.82,437.76,93Z" style="fill:#fff;fill-rule:evenodd"/><path d="M531.32,275.05c-9.31,2.83-19.13-9.88-33.77-31.68a5,5,0,0,0-2.64-2c13-3.76,27.26-18.57,34.65-31.85a.46.46,0,0,1,.12-.19.15.15,0,0,1,.05-.1c3.08-5.05,5-9.44,5.18-12C543.76,239.16,541.57,271.24,531.32,275.05Z" style="fill:#fff;fill-rule:evenodd"/><path d="M549.7,210.82c-4.1-21.7-10.14-41.47-19.9-67.36,52.58,10.66,92.73,29.11,99.82,45.21,6.37,14.47-28.55,18.13-43.88,19.26-2.72.19-2.89,1.16-4.25,2.93C577.71,211.53,573.43,212.08,549.7,210.82Z" style="fill:#fff;fill-rule:evenodd"/><path d="M460.43,135.9c-2.45.66-6.37,3.44-10.71,7.46a.25.25,0,0,1-.09.07.8.8,0,0,1-.16.16c-11.54,9.88-23.22,26.81-24.32,40.28a5.06,5.06,0,0,0-2.5-2.18c-24.28-10-38.7-17.11-37.77-26.8C386.58,144.09,417.58,135.57,460.43,135.9Z" style="fill:#fff;fill-rule:evenodd"/></svg>