<svg version="1.0" xmlns="http://www.w3.org/2000/svg" viewBox="0 0 1045 565"><path fill="#E6E6E6" d="M322.9 359.2c-9.1 0-16.6-7.4-16.6-16.6V55.8c0-9.1 7.4-16.6 16.6-16.6h378.3c9.1 0 16.6 7.4 16.6 16.6v286.8c0 9.1-7.4 16.6-16.6 16.6H322.9z"/><path fill="#999" d="M701.2 39.9c8.7 0 15.9 7.1 15.9 15.9v286.8c0 8.7-7.1 15.9-15.9 15.9H322.9c-8.7 0-15.9-7.1-15.9-15.9V55.8c0-8.7 7.1-15.9 15.9-15.9h378.3m0-1.4H322.9c-9.5 0-17.3 7.8-17.3 17.3v286.8c0 9.5 7.8 17.3 17.3 17.3h378.3c9.5 0 17.3-7.8 17.3-17.3V55.8c0-9.6-7.8-17.3-17.3-17.3z"/><path fill="#B0B574" stroke="#FFF" stroke-miterlimit="10" stroke-dasharray="2.8346,2.8346" d="M508.3 128.4v-.9l-.3.4-.3-.4v.9l-101.2 138H609.6z"/><path fill="#838E93" stroke="#838E93" stroke-miterlimit="10" d="M632.6 492.5c-.3.9-.7 1.7-1.2 2.5s-1.1 1.6-1.8 2.3c-.7.7-1.5 1.5-2.3 2.2-.9.7-1.8 1.4-2.9 2.1-1.1.7-2.2 1.4-3.5 2.1-1.3.7-2.7 1.4-4.2 2.1-1.6.7-3.4 1.5-5.2 2.2-2 .8-4.2 1.5-6.5 2.3-2.7.9-5.7 1.7-8.7 2.5-4.7 1.2-9.8 2.3-15.2 3.3-9.6 1.8-20.2 3.2-31.5 4.3-5.9.5-12 1-18.3 1.3-4.2.2-8.4.4-12.7.4-3.5.1-6.9.1-10.5.1h-.3c-3.3 0-6.5 0-9.8-.1-3-.1-6.1-.2-9-.3-2.9-.1-5.8-.3-8.6-.4-2.8-.2-5.7-.4-8.4-.6-2.8-.2-5.6-.5-8.4-.7-2.9-.3-5.7-.6-8.5-.9-3-.4-5.9-.8-8.8-1.2-3.2-.5-6.4-1-9.4-1.5-3.8-.7-7.4-1.4-10.8-2.2-24.9-5.6-41.1-13.7-42.8-22.8l1 5.3c1.7 9 17.8 17.1 42.5 22.6 3.4.8 7 1.5 10.8 2.2 3 .5 6.1 1.1 9.4 1.5 2.8.4 5.7.8 8.7 1.2 2.7.3 5.5.6 8.4.9 2.7.3 5.5.5 8.3.7 2.7.2 5.5.4 8.4.6 2.8.2 5.7.3 8.6.4l9 .3c3.2.1 6.4.1 9.7.1h.3c3.5 0 7 0 10.4-.1 4.3-.1 8.5-.2 12.6-.4 6.2-.3 12.3-.7 18.2-1.3 11.3-1 21.8-2.5 31.3-4.2 5.4-1 10.4-2.1 15.1-3.3 3-.8 5.9-1.6 8.6-2.5 2.3-.7 4.4-1.5 6.5-2.3 1.8-.7 3.5-1.4 5.1-2.1 1.5-.7 2.9-1.4 4.2-2.1 1.3-.7 2.4-1.4 3.5-2.1 1-.7 2-1.4 2.9-2.1.9-.7 1.6-1.4 2.3-2.2.7-.8 1.3-1.5 1.8-2.3.5-.8.9-1.7 1.2-2.5.1-.3.2-.7.2-1l1-5.3c-.5.4-.6.7-.7 1z"/><linearGradient id="a" gradientUnits="userSpaceOnUse" x1="383.017" y1="494.506" x2="633.062" y2="494.506"><stop offset="0" stop-color="#626a6e"/><stop offset="1" stop-color="#8c979d"/></linearGradient><linearGradient id="b" gradientUnits="userSpaceOnUse" x1="382.517" y1="494.723" x2="633.562" y2="494.723"><stop offset="0" stop-color="#626a6e"/><stop offset="1" stop-color="#8c979d"/></linearGradient><path fill="url(#a)" stroke="url(#b)" stroke-miterlimit="10" d="M633 466.7c-1.8 13.5-28.3 22.8-60.5 27.7-10.5 1.6-22.1 2.9-34.4 3.7-3.4.2-6.8.4-10.2.5-2.5.1-5.1.2-7.7.3-2.4.1-4.7.1-7.1.1h-6.9c-2.3 0-4.5 0-6.8-.1-2.3 0-4.5-.1-6.8-.2s-4.5-.2-6.7-.3c-2.3-.1-4.5-.2-6.7-.4-2.3-.1-4.5-.3-6.7-.5s-4.5-.4-6.6-.6c-2.2-.2-4.4-.4-6.6-.7-2.3-.2-4.5-.5-6.7-.8-2.3-.3-4.6-.6-6.8-.9-2.4-.4-4.7-.7-6.9-1.1-2.5-.4-4.9-.9-7.3-1.4-2.7-.5-5.4-1.1-7.9-1.7-3.2-.8-6.2-1.6-9.1-2.4-19.6-5.7-31.5-13.2-31.5-21.5v23.2c0 8.2 11.9 15.8 31.5 21.5 2.9.8 5.9 1.6 9.1 2.4 2.5.6 5.2 1.2 7.9 1.7 2.4.5 4.8.9 7.3 1.4 2.3.4 4.6.8 6.9 1.1 2.2.3 4.5.6 6.8.9 2.2.3 4.4.5 6.7.8 2.2.2 4.4.5 6.6.7l6.6.6c2.2.2 4.4.3 6.7.5 2.2.1 4.5.3 6.7.4 2.2.1 4.5.2 6.7.3 2.2.1 4.5.1 6.8.2 2.2 0 4.5.1 6.8.1h6.9c2.4 0 4.8-.1 7.1-.1 2.6-.1 5.2-.2 7.7-.3 3.5-.1 6.9-.3 10.2-.5 12.3-.8 23.9-2 34.4-3.7v0c4.1-.7 10.4-1.8 17.3-3.3 14.3-3.2 31.5-8.4 39.3-16.3 0 0 0 0 0 0 .6-.6 2-2.2 2.8-3.7.3-.7.6-1.3.8-2v0c.7-1.9.2-19.5.3-25.6z"/><ellipse fill="#838E93" stroke="#838E93" stroke-miterlimit="10" cx="508" cy="461.4" rx="124" ry="32.1"/><linearGradient id="c" gradientUnits="userSpaceOnUse" x1="383.017" y1="479.466" x2="633.019" y2="479.466"><stop offset="0" stop-color="#899499"/><stop offset=".999" stop-color="#a3afb6"/></linearGradient><linearGradient id="d" gradientUnits="userSpaceOnUse" x1="382.517" y1="479.67" x2="633.519" y2="479.67"><stop offset="0" stop-color="#899499"/><stop offset=".999" stop-color="#a3afb6"/></linearGradient><path fill="url(#c)" stroke="url(#d)" stroke-miterlimit="10" d="M632.9 465.1l-1-5.3c.1.5.1 1.1.1 1.6v.3c0 .6-.1 1.2-.2 1.8-.1.6-.3 1.1-.6 1.7-.2.6-.5 1.1-.9 1.6-.3.5-.7 1.1-1.2 1.6-.4.5-.9 1-1.5 1.6-.5.5-1.1 1-1.8 1.5l-2.1 1.5c-.8.5-1.6 1-2.5 1.5-.9.5-1.8 1-2.8 1.5-1.1.5-2.2 1.1-3.4 1.6-1.3.6-2.6 1.1-3.9 1.6-1.5.6-3 1.1-4.6 1.7-1.8.6-3.6 1.2-5.5 1.7-2 .6-4.1 1.2-6.3 1.7-2.1.5-4.3 1-6.5 1.5-1.9.4-3.8.8-5.8 1.2-1.6.3-3.2.6-4.9.9-1.5.3-3.1.5-4.7.8-1.3.2-2.7.4-4 .6-1.4.2-2.7.4-4.1.6-1.4.2-2.8.4-4.2.5-1.5.2-3 .3-4.5.5-2.2.2-4.5.5-6.8.7-3.9.4-8 .7-12.1.9-1.8.1-3.7.2-5.5.3-1.5.1-3.1.1-4.6.2-1.1 0-2.2.1-3.3.1s-2.2.1-3.3.1c-1 0-2.1 0-3.2.1H502c-1.1 0-2.1 0-3.2-.1-1.2 0-2.4-.1-3.7-.1-1.3 0-2.5-.1-3.8-.1-1.3 0-2.6-.1-3.9-.2-1.6-.1-3.1-.1-4.6-.2-1.5-.1-3.1-.2-4.6-.3-1.8-.1-3.5-.2-5.3-.4-1.8-.1-3.5-.3-5.3-.4-1.9-.2-3.7-.3-5.6-.5-1.9-.2-3.8-.4-5.6-.6-1.9-.2-3.8-.5-5.6-.7-1.9-.3-3.9-.5-5.7-.8-2-.3-3.9-.6-5.8-.9-2-.3-3.9-.7-5.8-1.1l-6-1.2c-2.2-.5-4.3-1-6.4-1.5-2.4-.6-4.6-1.2-6.8-1.9-2.8-.8-5.5-1.7-7.9-2.6-14-5.2-22.3-11.5-22.3-18.4 0-.5.1-1.1.1-1.6l-1 5.3c-.1.5-.2 1.1-.2 1.6 0 6.9 8.3 13.3 22.5 18.5 2.5.9 5.2 1.8 8 2.7 2.2.7 4.5 1.3 6.9 1.9 2.1.5 4.2 1 6.4 1.5 2 .4 4 .9 6 1.3 1.9.4 3.9.7 5.9 1.1 1.9.3 3.9.6 5.8.9 1.9.3 3.8.6 5.8.8 1.9.3 3.7.5 5.7.7 1.9.2 3.7.4 5.7.6 1.8.2 3.7.4 5.6.5 1.8.2 3.5.3 5.3.4 1.8.1 3.5.3 5.3.4 1.5.1 3.1.2 4.6.3 1.5.1 3.1.2 4.7.2 1.3.1 2.6.1 3.9.2 1.3 0 2.6.1 3.8.1 1.2 0 2.5.1 3.7.1 1.1 0 2.1 0 3.2.1s2.1 0 3.2 0h12.2c1.1 0 2.1 0 3.2-.1 1.1 0 2.2-.1 3.3-.1s2.2-.1 3.3-.1c1.6-.1 3.1-.1 4.7-.2 1.9-.1 3.7-.2 5.6-.3 4.1-.3 8.2-.6 12.2-.9 2.3-.2 4.6-.4 6.9-.7 1.5-.2 3-.3 4.5-.5 1.4-.2 2.9-.4 4.3-.5l4.2-.6c1.4-.2 2.7-.4 4.1-.6 1.6-.3 3.2-.5 4.7-.8 1.7-.3 3.3-.6 4.9-.9 2-.4 4-.8 5.9-1.2 2.2-.5 4.4-1 6.5-1.5 2.2-.6 4.3-1.1 6.4-1.7 1.9-.6 3.8-1.1 5.6-1.7 1.6-.5 3.2-1.1 4.7-1.7 1.4-.5 2.7-1.1 4-1.6 1.2-.5 2.3-1.1 3.4-1.6 1-.5 2-1 2.9-1.5.9-.5 1.7-1 2.5-1.5s1.5-1 2.1-1.5l1.8-1.5c.5-.5 1-1 1.5-1.6.4-.5.9-1.1 1.2-1.6.4-.5.7-1.1.9-1.7.3-.6.5-1.1.6-1.7.1-.6.2-1.2.2-1.8v-.3c-.3-.7-.3-1.2-.4-1.8z"/><text transform="translate(427.104 456.108)"><tspan x="0" y="0" fill="#FFF" font-family="'RobotoCondensed-Regular'" font-size="16">External data sources for </tspan><tspan x="-15.6" y="15" fill="#FFF" font-family="'RobotoCondensed-Regular'" font-size="16">Authentication &amp; Authorization</tspan></text><circle fill="#89989F" cx="138" cy="129.4" r="62.5"/><path fill="#BDCCD4" d="M138 66.9c-26.1 0-48.5 16-57.8 38.8h115.6c-9.3-22.8-31.7-38.8-57.8-38.8z"/><text transform="translate(127.945 84.979)"><tspan x="0" y="0" font-family="'Roboto-Regular'" font-size="14">IoT</tspan><tspan x="-10.7" y="15" font-family="'Roboto-Regular'" font-size="14">Device</tspan></text><g fill="none" stroke="#FFF" stroke-width=".992" stroke-miterlimit="10"><path d="M128.9 141h2.8c.5 0 1-.5 1-1 0-2-1.5-3.6-3.4-3.6h-1.4c-.7 0-1.2.5-1.4 1.2"/><path d="M103.4 131.7c-1.8 0-4.7 4.3-5.4 5.9-.8 1.6-2.5 3.5-2.5 3.5-1.4 1.3-2.3 3.2-2.3 5.2v11.9c0 .9.6 1.6 1.4 1.6H99c.8 0 1.4-.7 1.4-1.6v-2.1H124v2.1c0 .9.6 1.6 1.4 1.6h4.3c.8 0 1.4-.7 1.4-1.6v-11.9c0-2-.8-3.9-2.3-5.2 0 0-1.7-1.9-2.5-3.5s-3.7-5.9-5.4-5.9h-17.5z"/><path d="M95.5 141h-2.8c-.5 0-1-.5-1-1 0-2 1.5-3.6 3.4-3.6h1.4c.7 0 1.2.5 1.4 1.2"/><path stroke-linecap="square" stroke-linejoin="round" d="M123.3 146.3c1.4-2.4 3-3.2 6.6-3.4M94.5 142.9c3.5.2 5.2 1 6.6 3.4"/><path d="M95.8 140.8h32.8M101.1 146.4l-1 .8c-.7.6-1.6.9-2.4.9-.3 0-.6 0-.9-.1l-3.5-.8v6.2h0c0 1.5 1.1 2.7 2.5 2.7h4.6l.5-.7c.8-1.3 2.2-2 3.6-2H120c1.4 0 2.8.7 3.6 2l.5.7h4.6c1.4 0 2.5-1.2 2.5-2.7h0v-6.2l-3.5.8c-.3.1-.6.1-.9.1-.9 0-1.8-.3-2.4-.9l-1-.8c-.4.4-22 .4-22.3 0z"/></g><path fill-rule="evenodd" clip-rule="evenodd" fill="none" stroke="#FFF" stroke-width=".992" stroke-linecap="round" stroke-linejoin="round" stroke-miterlimit="10" d="M146.7 151.9l2.2-9.2-10.5-10.5c-1.3-1.3-1.3-3.4 0-4.8.5-.5 1.2-.8 1.9-.9l9.1-9.1c.6-.6 1.4-.9 2.3-.9.9 0 1.7.3 2.3.9.7.7 1 1.5.9 2.5l4.7 4.1h6.2l1.9 8.3-.8.4-3.5-5h-2.8c-.1.4-.3.7-.6 1-.3.3-.7.5-1.2.6v2.8l5 3.5-.4.8-8.3-1.9.7-5.9-4-4.6-6.1 6.1 8.5 8.5h2.2l3.2 13.4h-12.9z"/><path fill-rule="evenodd" clip-rule="evenodd" fill="#FFF" d="M157.8 125.1h.2c.1 0 .2.1.3.1.1.1.2.1.3.2.1.1.1.2.2.3 0 .1.1.2.1.4 0 .7-.5 1.2-1.2 1.2-.1 0-.2 0-.4-.1-.1 0-.2-.1-.3-.2-.1-.1-.2-.2-.2-.3-.1-.1-.1-.2-.1-.3v-.2c-.1-.6.4-1.1 1.1-1.1zM151.4 118.6c.8 0 1.4.6 1.4 1.4 0 .8-.6 1.4-1.4 1.4-.8 0-1.4-.6-1.4-1.4-.1-.7.6-1.4 1.4-1.4zM141.1 131.8c-1 0-1.8-.8-1.8-1.8s.8-1.8 1.8-1.8 1.8.8 1.8 1.8-.8 1.8-1.8 1.8zM152.6 143.6c-.8 0-1.4-.6-1.4-1.4 0-.8.6-1.4 1.4-1.4.8 0 1.4.6 1.4 1.4 0 .8-.6 1.4-1.4 1.4z"/><path fill-rule="evenodd" clip-rule="evenodd" fill="none" stroke="#FFF" stroke-width=".992" stroke-miterlimit="10" d="M162.7 159.7H143c-.7 0-1.3-.6-1.3-1.3l.7-3.2c0-.7.6-1.3 1.3-1.3H162c.7 0 1.3.6 1.3 1.3l.7 3.2c-.1.7-.6 1.3-1.3 1.3z"/><text transform="translate(164.555 143.29)" fill="#FFF" font-family="'Roboto-Bold'" font-size="13.333">...</text><circle fill="#89989F" cx="906.9" cy="129.4" r="62.5"/><path fill="#BDCCD4" d="M969 122c-3.7-31-30-55.1-62.1-55.1-32 0-58.4 24.1-62.1 55.1H969z"/><text transform="translate(881.688 88.979)"><tspan x="0" y="0" font-family="'Roboto-Regular'" font-size="14">HiveMQ</tspan><tspan x="-20.3" y="15" font-family="'Roboto-Regular'" font-size="14">Control Center</tspan><tspan x="10.5" y="30" font-family="'Roboto-Regular'" font-size="14">User</tspan></text><path fill-rule="evenodd" clip-rule="evenodd" fill="none" stroke="#FFF" stroke-width=".992" stroke-miterlimit="10" d="M931.8 130.7H882c-1 0-1.8.8-1.8 1.8v26.4c0 1 .8 1.8 1.8 1.8h49.7c1 0 1.8-.8 1.8-1.8v-26.4c.1-1-.7-1.8-1.7-1.8z"/><path fill="none" stroke="#FFF" stroke-width=".992" stroke-miterlimit="10" d="M908.7 163.6c0 5.3 2.9 10.3 5.9 10.3h1.2v2.3h-17.6v-2.3h1.2c2.9 0 5.9-4.9 5.9-10.3h3.4zM887.9 148.9h4.2v7.8h-4.2zM895.4 142.6h4.2v14h-4.2zM903.7 142.6h4.2v14h-4.2zM912 144.2h4.2v12.5H912zM920.4 138.3h4.2v18.3h-4.2z"/><path fill="none" stroke="#B0B574" stroke-width="2.126" stroke-miterlimit="10" d="M296.4 278.5H209"/><path fill="#B0B574" d="M210.1 274.8l-6.4 3.7 6.4 3.7z"/><circle fill="#89989F" cx="138" cy="270.6" r="62.5"/><path fill="#BDCCD4" d="M138 208.1c-26.1 0-48.5 16-57.8 38.8h115.6c-9.3-22.8-31.7-38.8-57.8-38.8z"/><text transform="translate(127.945 226.183)"><tspan x="0" y="0" font-family="'Roboto-Regular'" font-size="14">IoT</tspan><tspan x="-10.7" y="15" font-family="'Roboto-Regular'" font-size="14">Device</tspan></text><g fill="none" stroke="#FFF" stroke-width=".992" stroke-miterlimit="10"><path d="M128.9 282.3h2.8c.5 0 1-.5 1-1 0-2-1.5-3.6-3.4-3.6h-1.4c-.7 0-1.2.5-1.4 1.2"/><path d="M103.4 272.9c-1.8 0-4.7 4.3-5.4 5.9-.8 1.6-2.5 3.5-2.5 3.5-1.4 1.3-2.3 3.2-2.3 5.2v11.9c0 .9.6 1.6 1.4 1.6H99c.8 0 1.4-.7 1.4-1.6v-2.1H124v2.1c0 .9.6 1.6 1.4 1.6h4.3c.8 0 1.4-.7 1.4-1.6v-11.9c0-2-.8-3.9-2.3-5.2 0 0-1.7-1.9-2.5-3.5s-3.7-5.9-5.4-5.9h-17.5z"/><path d="M95.5 282.3h-2.8c-.5 0-1-.5-1-1 0-2 1.5-3.6 3.4-3.6h1.4c.7 0 1.2.5 1.4 1.2"/><path stroke-linecap="square" stroke-linejoin="round" d="M123.3 287.5c1.4-2.4 3-3.2 6.6-3.4M94.5 284.1c3.5.2 5.2 1 6.6 3.4"/><path d="M95.8 282h32.8M101.1 287.6l-1 .8c-.7.6-1.6.9-2.4.9-.3 0-.6 0-.9-.1l-3.5-.8v6.2h0c0 1.5 1.1 2.7 2.5 2.7h4.6l.5-.7c.8-1.3 2.2-2 3.6-2H120c1.4 0 2.8.7 3.6 2l.5.7h4.6c1.4 0 2.5-1.2 2.5-2.7h0v-6.2l-3.5.8c-.3.1-.6.1-.9.1-.9 0-1.8-.3-2.4-.9l-1-.8c-.4.4-22 .4-22.3 0z"/></g><path fill-rule="evenodd" clip-rule="evenodd" fill="none" stroke="#FFF" stroke-width=".992" stroke-linecap="round" stroke-linejoin="round" stroke-miterlimit="10" d="M146.7 293.1l2.2-9.2-10.5-10.5c-1.3-1.3-1.3-3.4 0-4.8.5-.5 1.2-.8 1.9-.9l9.1-9.1c.6-.6 1.4-.9 2.3-.9.9 0 1.7.3 2.3.9.7.7 1 1.5.9 2.5l4.7 4.1h6.2l1.9 8.3-.8.4-3.5-5h-2.8c-.1.4-.3.7-.6 1-.3.3-.7.5-1.2.6v2.8l5 3.5-.4.8-8.3-1.9.7-5.9-4-4.6-6.1 6.1 8.5 8.5h2.2l3.2 13.4h-12.9z"/><path fill-rule="evenodd" clip-rule="evenodd" fill="#FFF" d="M157.8 266.3h.2c.1 0 .2.1.3.1.1.1.2.1.3.2.1.1.1.2.2.3 0 .1.1.2.1.4 0 .7-.5 1.2-1.2 1.2-.1 0-.2 0-.4-.1-.1 0-.2-.1-.3-.2-.1-.1-.2-.2-.2-.3-.1-.1-.1-.2-.1-.3v-.2c-.1-.6.4-1.1 1.1-1.1zM151.4 259.8c.8 0 1.4.6 1.4 1.4 0 .8-.6 1.4-1.4 1.4-.8 0-1.4-.6-1.4-1.4-.1-.7.6-1.4 1.4-1.4zM141.1 273c-1 0-1.8-.8-1.8-1.8s.8-1.8 1.8-1.8 1.8.8 1.8 1.8-.8 1.8-1.8 1.8zM152.6 284.8c-.8 0-1.4-.6-1.4-1.4 0-.8.6-1.4 1.4-1.4.8 0 1.4.6 1.4 1.4 0 .8-.6 1.4-1.4 1.4z"/><path fill-rule="evenodd" clip-rule="evenodd" fill="none" stroke="#FFF" stroke-width=".992" stroke-miterlimit="10" d="M162.7 300.9H143c-.7 0-1.3-.6-1.3-1.3l.7-3.2c0-.7.6-1.3 1.3-1.3H162c.7 0 1.3.6 1.3 1.3l.7 3.2c-.1.7-.6 1.3-1.3 1.3z"/><text transform="translate(164.555 284.495)" fill="#FFF" font-family="'Roboto-Bold'" font-size="13.333">...</text><g><path fill="none" stroke="#B0B574" stroke-width="2.126" stroke-miterlimit="10" d="M205.4 265h85.8"/><path fill="#B0B574" d="M290.1 268.7l6.4-3.7-6.4-3.7z"/></g><text transform="translate(228.356 222.578)"><tspan x="0" y="0" fill="#B0B574" font-family="'RobotoCondensed-Bold'" font-size="16">Device </tspan><tspan x="-23.3" y="16" fill="#B0B574" font-family="'RobotoCondensed-Bold'" font-size="16">Authentication </tspan><tspan x="-26.1" y="32" fill="#B0B574" font-family="'RobotoCondensed-Bold'" font-size="16">&amp; Authorization</tspan></text><g><path fill="none" stroke="#B0B574" stroke-width="2.126" stroke-miterlimit="10" d="M838.4 278.5H730"/><path fill="#B0B574" d="M731.1 274.8l-6.4 3.7 6.4 3.7z"/></g><g><path fill="none" stroke="#B0B574" stroke-width="2.126" stroke-miterlimit="10" d="M726.7 265h106.4"/><path fill="#B0B574" d="M832 268.7l6.4-3.7-6.4-3.7z"/></g><text transform="translate(742.696 237.683)"><tspan x="0" y="0" fill="#B0B574" font-family="'RobotoCondensed-Bold'" font-size="16">TLS secured</tspan><tspan x="-1.8" y="16" fill="#B0B574" font-family="'RobotoCondensed-Bold'" font-size="16">data streams</tspan></text><g><path fill="none" stroke="#003E6E" stroke-width="2.126" stroke-miterlimit="10" d="M840.2 141.5h-112"/><path fill="#003E6E" d="M729.3 137.8l-6.4 3.7 6.4 3.7z"/></g><g><path fill="none" stroke="#003E6E" stroke-width="2.126" stroke-miterlimit="10" d="M724.9 128h110"/><path fill="#003E6E" d="M833.8 131.7l6.4-3.7-6.4-3.7z"/></g><text transform="translate(729.663 87.683)"><tspan x="0" y="0" fill="#003E6E" font-family="'RobotoCondensed-Bold'" font-size="16">Access permitted</tspan><tspan x="7.6" y="16" fill="#003E6E" font-family="'RobotoCondensed-Bold'" font-size="16">Control Center </tspan><tspan x="36.1" y="32" fill="#003E6E" font-family="'RobotoCondensed-Bold'" font-size="16">pages</tspan></text><text transform="translate(524.185 394.683)"><tspan x="0" y="0" fill="#003E6E" font-family="'RobotoCondensed-Bold'" font-size="16">Exchange of Authentication Data &amp; Permissions </tspan><tspan x="0" y="19.2" fill="#003E6E" font-family="'RobotoCondensed-Bold'" font-size="16">for MQTT clients and Control Center users</tspan></text><g><path fill="none" stroke="#B0B574" stroke-width="2.126" stroke-miterlimit="10" d="M296.4 139.5H209"/><path fill="#B0B574" d="M210.1 135.8l-6.4 3.7 6.4 3.7z"/></g><g><path fill="none" stroke="#B0B574" stroke-width="2.126" stroke-miterlimit="10" d="M205.4 126h85.8"/><path fill="#B0B574" d="M290.1 129.7l6.4-3.7-6.4-3.7z"/></g><text transform="translate(211.125 98.683)"><tspan x="0" y="0" fill="#B0B574" font-family="'RobotoCondensed-Bold'" font-size="16">TLS secured</tspan><tspan x="-1.8" y="16" fill="#B0B574" font-family="'RobotoCondensed-Bold'" font-size="16">data streams</tspan></text><g><circle fill="#89989F" cx="906.9" cy="270.6" r="62.5"/><path fill="#BDCCD4" d="M966.9 253.1c-7.6-26-31.6-45-60-45s-52.4 19-60 45h120z"/><path fill="none" stroke="#FFF" stroke-width=".992" stroke-miterlimit="10" d="M924.6 314.4h-35.4c-2.1 0-3.8-1.7-3.8-3.8v-46.1c0-2.1 1.7-3.8 3.8-3.8h35.4c2.1 0 3.8 1.7 3.8 3.8v46.1c0 2.1-1.7 3.8-3.8 3.8z"/><path fill="none" stroke="#FFF" stroke-width=".992" stroke-miterlimit="10" d="M918.2 295c-2.8 3-6.8 4.9-11.3 4.9-8.5 0-15.4-6.9-15.4-15.4s6.9-15.4 15.4-15.4 15.4 6.9 15.4 15.4c0 3.4-1.1 6.5-2.9 9"/><circle fill="none" stroke="#FFF" stroke-width=".992" stroke-miterlimit="10" cx="906.9" cy="284.6" r="5.6"/><circle fill="#FFF" cx="889.6" cy="266.7" r="1.3"/><circle fill="#FFF" cx="889.6" cy="309.7" r="1.3"/><circle fill="#FFF" cx="923.1" cy="266.6" r="1.3"/><path fill="none" stroke="#FFF" stroke-width=".992" stroke-miterlimit="10" d="M913.9 291.7l9.2 8.1-.4 10.7"/><text transform="translate(880.004 230.558)"><tspan x="0" y="0" font-family="'Roboto-Regular'" font-size="14">Backend</tspan><tspan x="-8.2" y="15" font-family="'Roboto-Regular'" font-size="14">Application</tspan></text></g><g><path fill="#FFC000" d="M307 85.9V55.8c0-8.7 7.1-15.9 15.9-15.9h378.3c8.7 0 15.9 7.1 15.9 15.9v30.1H307z"/></g><g><path fill="#BAC2C9" stroke="#FFF" stroke-width=".992" stroke-miterlimit="10" d="M608.7 177.3h-50l-.2-72.6h50.3c3.2 0 5.9 2.8 5.9 6.1v60.4c-.1 3.4-2.7 6.1-6 6.1z"/><path fill="#BAC2C9" stroke="#FFF" stroke-width=".992" stroke-miterlimit="10" d="M558.2 186.4H453.1c-4.1 0-7.5-3.4-7.5-7.5v-74.1c0-4.1 3.4-7.5 7.5-7.5h105.1c4.1 0 7.5 3.4 7.5 7.5v74.1c0 4.1-3.3 7.5-7.5 7.5z"/><path fill="#BAC2C9" stroke="#FFF" stroke-width=".992" stroke-miterlimit="10" d="M450.2 193c-6.1 0-11-5-11-11v-78.2c0-6.1 5-11 11-11h111c6.1 0 11 5 11 11V182c0 6.1-5 11-11 11h-111z"/><path fill="#95AEC1" stroke="#003E6E" stroke-width=".709" stroke-linejoin="round" stroke-miterlimit="10" stroke-dasharray="2.8346,2.8346" d="M449.2 186.7c-2.6 0-3.7-2.1-3.7-4.7v-78.2c0-2.6 2.1-4.7 4.7-4.7h111c2.6 0 4.7 2.1 4.7 4.7V182c0 2.6-1.1 4.7-3.7 4.7"/><path fill="#89989F" stroke="#FFF" stroke-width="1.417" stroke-miterlimit="10" d="M501.3 144.8h-38.7c-1.3 0-2.3-1.1-2.3-2.3v-9.4c0-1.3 1.1-2.3 2.3-2.3h38.7c1.3 0 2.3 1.1 2.3 2.3v9.4c.1 1.3-1 2.3-2.3 2.3z"/><circle fill="#FFF" cx="468.5" cy="138.1" r="1.8"/><circle fill="#FFF" cx="474.7" cy="138.1" r="1.8"/><circle fill="#FFF" cx="480.8" cy="138.1" r="1.8"/><path fill="#89989F" stroke="#FFF" stroke-width="1.417" stroke-miterlimit="10" d="M501.3 162.4h-38.7c-1.3 0-2.3-1.1-2.3-2.3v-9.4c0-1.3 1.1-2.3 2.3-2.3h38.7c1.3 0 2.3 1.1 2.3 2.3v9.4c.1 1.3-1 2.3-2.3 2.3z"/><circle fill="#FFF" cx="468.5" cy="155.7" r="1.8"/><circle fill="#FFF" cx="474.7" cy="155.7" r="1.8"/><circle fill="#FFF" cx="480.8" cy="155.7" r="1.8"/><path fill="none" stroke="#FFF" stroke-width="1.417" stroke-linecap="round" stroke-linejoin="round" stroke-miterlimit="10" d="M466.5 166.1v-3.5M498.1 166.1v-3.5"/><g><path fill="#89989F" stroke="#FFF" stroke-width="1.417" stroke-miterlimit="10" d="M550.7 144.8H512c-1.3 0-2.3-1.1-2.3-2.3v-9.4c0-1.3 1.1-2.3 2.3-2.3h38.7c1.3 0 2.3 1.1 2.3 2.3v9.4c.1 1.3-1 2.3-2.3 2.3z"/><circle fill="#FFF" cx="517.9" cy="138.1" r="1.8"/><circle fill="#FFF" cx="524.1" cy="138.1" r="1.8"/><circle fill="#FFF" cx="530.2" cy="138.1" r="1.8"/><path fill="#89989F" stroke="#FFF" stroke-width="1.417" stroke-miterlimit="10" d="M550.7 162.4H512c-1.3 0-2.3-1.1-2.3-2.3v-9.4c0-1.3 1.1-2.3 2.3-2.3h38.7c1.3 0 2.3 1.1 2.3 2.3v9.4c.1 1.3-1 2.3-2.3 2.3z"/><circle fill="#FFF" cx="517.9" cy="155.7" r="1.8"/><circle fill="#FFF" cx="524.1" cy="155.7" r="1.8"/><circle fill="#FFF" cx="530.2" cy="155.7" r="1.8"/><path fill="none" stroke="#FFF" stroke-width="1.417" stroke-linecap="round" stroke-linejoin="round" stroke-miterlimit="10" d="M515.8 166.1v-3.5M547.5 166.1v-3.5"/></g><g><path fill="#A6B1B7" stroke="#FFF" stroke-width=".992" stroke-miterlimit="10" d="M591.8 167.5c-4.7-.2-12.5-8.6-12.5-14.9v-11c0-2.1 1.1-2.4 3.6-2.9 0 0 2.1-.6 4.5-.9.4-.1-.3-1.7-.3-1.7s3.1-.4 4.7-.4v31.8z"/><path fill="#89989F" stroke="#FFF" stroke-width=".992" stroke-miterlimit="10" d="M591.8 167.5c4.7-.2 12.5-8.6 12.5-14.9v-11c0-2.1-1.1-2.4-3.6-2.9 0 0-2.1-.6-4.5-.9-.4-.1.3-1.7.3-1.7s-3.1-.4-4.7-.4v31.8z"/></g><text transform="translate(475.746 118.75)" fill="#FFF" font-family="'Roboto-Bold'" font-size="18">HiveMQ</text><text transform="translate(577.606 125)" fill="#FFF" font-family="'Roboto-Bold'" font-size="16">ESE</text></g><g><path fill="#BAC2C9" stroke="#FFF" stroke-width=".992" stroke-miterlimit="10" d="M698.7 331.3h-50l-.2-72.6h50.3c3.2 0 5.9 2.8 5.9 6.1v60.4c-.1 3.4-2.7 6.1-6 6.1z"/><path fill="#BAC2C9" stroke="#FFF" stroke-width=".992" stroke-miterlimit="10" d="M648.2 340.4H543.1c-4.1 0-7.5-3.4-7.5-7.5v-74.1c0-4.1 3.4-7.5 7.5-7.5h105.1c4.1 0 7.5 3.4 7.5 7.5v74.1c0 4.1-3.3 7.5-7.5 7.5z"/><path fill="#BAC2C9" stroke="#FFF" stroke-width=".992" stroke-miterlimit="10" d="M540.2 347c-6.1 0-11-5-11-11v-78.2c0-6.1 5-11 11-11h111c6.1 0 11 5 11 11V336c0 6.1-5 11-11 11h-111z"/><path fill="#95AEC1" stroke="#003E6E" stroke-width=".709" stroke-linejoin="round" stroke-miterlimit="10" stroke-dasharray="2.8346,2.8346" d="M539.2 340.7c-2.6 0-3.7-2.1-3.7-4.7v-78.2c0-2.6 2.1-4.7 4.7-4.7h111c2.6 0 4.7 2.1 4.7 4.7V336c0 2.6-1.1 4.7-3.7 4.7"/><path fill="#89989F" stroke="#FFF" stroke-width="1.417" stroke-miterlimit="10" d="M591.3 298.8h-38.7c-1.3 0-2.3-1.1-2.3-2.3v-9.4c0-1.3 1.1-2.3 2.3-2.3h38.7c1.3 0 2.3 1.1 2.3 2.3v9.4c.1 1.3-1 2.3-2.3 2.3z"/><circle fill="#FFF" cx="558.5" cy="292.1" r="1.8"/><circle fill="#FFF" cx="564.7" cy="292.1" r="1.8"/><circle fill="#FFF" cx="570.8" cy="292.1" r="1.8"/><path fill="#89989F" stroke="#FFF" stroke-width="1.417" stroke-miterlimit="10" d="M591.3 316.4h-38.7c-1.3 0-2.3-1.1-2.3-2.3v-9.4c0-1.3 1.1-2.3 2.3-2.3h38.7c1.3 0 2.3 1.1 2.3 2.3v9.4c.1 1.3-1 2.3-2.3 2.3z"/><circle fill="#FFF" cx="558.5" cy="309.7" r="1.8"/><circle fill="#FFF" cx="564.7" cy="309.7" r="1.8"/><circle fill="#FFF" cx="570.8" cy="309.7" r="1.8"/><path fill="none" stroke="#FFF" stroke-width="1.417" stroke-linecap="round" stroke-linejoin="round" stroke-miterlimit="10" d="M556.5 320.1v-3.5M588.1 320.1v-3.5"/><g><path fill="#89989F" stroke="#FFF" stroke-width="1.417" stroke-miterlimit="10" d="M640.7 298.8H602c-1.3 0-2.3-1.1-2.3-2.3v-9.4c0-1.3 1.1-2.3 2.3-2.3h38.7c1.3 0 2.3 1.1 2.3 2.3v9.4c.1 1.3-1 2.3-2.3 2.3z"/><circle fill="#FFF" cx="607.9" cy="292.1" r="1.8"/><circle fill="#FFF" cx="614.1" cy="292.1" r="1.8"/><circle fill="#FFF" cx="620.2" cy="292.1" r="1.8"/><path fill="#89989F" stroke="#FFF" stroke-width="1.417" stroke-miterlimit="10" d="M640.7 316.4H602c-1.3 0-2.3-1.1-2.3-2.3v-9.4c0-1.3 1.1-2.3 2.3-2.3h38.7c1.3 0 2.3 1.1 2.3 2.3v9.4c.1 1.3-1 2.3-2.3 2.3z"/><circle fill="#FFF" cx="607.9" cy="309.7" r="1.8"/><circle fill="#FFF" cx="614.1" cy="309.7" r="1.8"/><circle fill="#FFF" cx="620.2" cy="309.7" r="1.8"/><path fill="none" stroke="#FFF" stroke-width="1.417" stroke-linecap="round" stroke-linejoin="round" stroke-miterlimit="10" d="M605.8 320.1v-3.5M637.5 320.1v-3.5"/></g><g><path fill="#A6B1B7" stroke="#FFF" stroke-width=".992" stroke-miterlimit="10" d="M681.8 321.5c-4.7-.2-12.5-8.6-12.5-14.9v-11c0-2.1 1.1-2.4 3.6-2.9 0 0 2.1-.6 4.5-.9.4-.1-.3-1.7-.3-1.7s3.1-.4 4.7-.4v31.8z"/><path fill="#89989F" stroke="#FFF" stroke-width=".992" stroke-miterlimit="10" d="M681.8 321.5c4.7-.2 12.5-8.6 12.5-14.9v-11c0-2.1-1.1-2.4-3.6-2.9 0 0-2.1-.6-4.5-.9-.4-.1.3-1.7.3-1.7s-3.1-.4-4.7-.4v31.8z"/></g><text transform="translate(565.746 272.75)" fill="#FFF" font-family="'Roboto-Bold'" font-size="18">HiveMQ</text><text transform="translate(667.606 279)" fill="#FFF" font-family="'Roboto-Bold'" font-size="16">ESE</text><path fill="#95AEC1" d="M539.4 337.5h112.5v4H539.4z"/><text transform="translate(540.311 341.5)" fill="#003E6E" font-family="'RobotoCondensed-Regular'" font-size="15">Overload Protection</text></g><g><path fill="#BAC2C9" stroke="#FFF" stroke-width=".992" stroke-miterlimit="10" d="M324.3 258.7h50l.2 72.6h-50.3c-3.2 0-5.9-2.8-5.9-6.1v-60.4c.1-3.4 2.8-6.1 6-6.1z"/><path fill="#BAC2C9" stroke="#FFF" stroke-width=".992" stroke-miterlimit="10" d="M478.2 340.4H373.1c-4.1 0-7.5-3.4-7.5-7.5v-74.1c0-4.1 3.4-7.5 7.5-7.5h105.1c4.1 0 7.5 3.4 7.5 7.5v74.1c0 4.1-3.3 7.5-7.5 7.5z"/><path fill="#BAC2C9" stroke="#FFF" stroke-width=".992" stroke-miterlimit="10" d="M370.2 347c-6.1 0-11-5-11-11v-78.2c0-6.1 5-11 11-11h111c6.1 0 11 5 11 11V336c0 6.1-5 11-11 11h-111z"/><path fill="#95AEC1" stroke="#003E6E" stroke-width=".709" stroke-linejoin="round" stroke-miterlimit="10" stroke-dasharray="2.8346,2.8346" d="M369.2 340.7c-2.6 0-3.7-2.1-3.7-4.7v-78.2c0-2.6 2.1-4.7 4.7-4.7h111c2.6 0 4.7 2.1 4.7 4.7V336c0 2.6-1.1 4.7-3.7 4.7"/><path fill="#89989F" stroke="#FFF" stroke-width="1.417" stroke-miterlimit="10" d="M421.3 298.8h-38.7c-1.3 0-2.3-1.1-2.3-2.3v-9.4c0-1.3 1.1-2.3 2.3-2.3h38.7c1.3 0 2.3 1.1 2.3 2.3v9.4c.1 1.3-1 2.3-2.3 2.3z"/><circle fill="#FFF" cx="388.5" cy="292.1" r="1.8"/><circle fill="#FFF" cx="394.7" cy="292.1" r="1.8"/><circle fill="#FFF" cx="400.8" cy="292.1" r="1.8"/><path fill="#89989F" stroke="#FFF" stroke-width="1.417" stroke-miterlimit="10" d="M421.3 316.4h-38.7c-1.3 0-2.3-1.1-2.3-2.3v-9.4c0-1.3 1.1-2.3 2.3-2.3h38.7c1.3 0 2.3 1.1 2.3 2.3v9.4c.1 1.3-1 2.3-2.3 2.3z"/><circle fill="#FFF" cx="388.5" cy="309.7" r="1.8"/><circle fill="#FFF" cx="394.7" cy="309.7" r="1.8"/><circle fill="#FFF" cx="400.8" cy="309.7" r="1.8"/><path fill="none" stroke="#FFF" stroke-width="1.417" stroke-linecap="round" stroke-linejoin="round" stroke-miterlimit="10" d="M386.5 320.1v-3.5M418.1 320.1v-3.5"/><g><path fill="#89989F" stroke="#FFF" stroke-width="1.417" stroke-miterlimit="10" d="M470.7 298.8H432c-1.3 0-2.3-1.1-2.3-2.3v-9.4c0-1.3 1.1-2.3 2.3-2.3h38.7c1.3 0 2.3 1.1 2.3 2.3v9.4c.1 1.3-1 2.3-2.3 2.3z"/><circle fill="#FFF" cx="437.9" cy="292.1" r="1.8"/><circle fill="#FFF" cx="444.1" cy="292.1" r="1.8"/><circle fill="#FFF" cx="450.2" cy="292.1" r="1.8"/><path fill="#89989F" stroke="#FFF" stroke-width="1.417" stroke-miterlimit="10" d="M470.7 316.4H432c-1.3 0-2.3-1.1-2.3-2.3v-9.4c0-1.3 1.1-2.3 2.3-2.3h38.7c1.3 0 2.3 1.1 2.3 2.3v9.4c.1 1.3-1 2.3-2.3 2.3z"/><circle fill="#FFF" cx="437.9" cy="309.7" r="1.8"/><circle fill="#FFF" cx="444.1" cy="309.7" r="1.8"/><circle fill="#FFF" cx="450.2" cy="309.7" r="1.8"/><path fill="none" stroke="#FFF" stroke-width="1.417" stroke-linecap="round" stroke-linejoin="round" stroke-miterlimit="10" d="M435.8 320.1v-3.5M467.5 320.1v-3.5"/></g><g><path fill="#A6B1B7" stroke="#FFF" stroke-width=".992" stroke-miterlimit="10" d="M339.8 321.5c-4.7-.2-12.5-8.6-12.5-14.9v-11c0-2.1 1.1-2.4 3.6-2.9 0 0 2.1-.6 4.5-.9.4-.1-.3-1.7-.3-1.7s3.1-.4 4.7-.4v31.8z"/><path fill="#89989F" stroke="#FFF" stroke-width=".992" stroke-miterlimit="10" d="M339.8 321.5c4.7-.2 12.5-8.6 12.5-14.9v-11c0-2.1-1.1-2.4-3.6-2.9 0 0-2.1-.6-4.5-.9-.4-.1.3-1.7.3-1.7s-3.1-.4-4.7-.4v31.8z"/></g><text transform="translate(395.746 272.75)" fill="#FFF" font-family="'Roboto-Bold'" font-size="18">HiveMQ</text><text transform="translate(325.606 279)" fill="#FFF" font-family="'Roboto-Bold'" font-size="16">ESE</text><path fill="#95AEC1" d="M369.4 337.5h112.5v4H369.4z"/><text transform="translate(370.311 341.5)" fill="#003E6E" font-family="'RobotoCondensed-Regular'" font-size="15">Overload Protection</text></g><path fill="#95AEC1" d="M449.4 183.5h112.5v4H449.4z"/><g><path d="M437.1 52.6v18.7c0 .4-.4.8-.8.8h-4.2v-7.3c0-.4-.4-.8-.8-.8h-6.7c-.4 0-.8.3-.8.8v7.3h-4.2c-.4 0-.8-.3-.8-.8V52.6c0-.4.4-.8.8-.8h4.2V59c0 .4.4.8.8.8h6.7c.4 0 .8-.3.8-.8v-7.2h4.2c.5 0 .8.4.8.8zM442.3 54.2h3c.4 0 .7.3.7.7v16.6c0 .4-.3.7-.7.7h-3c-.4 0-.7-.3-.7-.7V54.9c0-.4.3-.7.7-.7zM467 55.1l-6 16.8c-.1.3-.4.5-.7.5h-4.6c-.3 0-.6-.2-.7-.5l-6-16.8c-.2-.4.2-.9.7-.9h3c.3 0 .6.2.7.5l4 11.4c.2.6 1.1.6 1.3 0l3.9-11.4c.1-.3.4-.5.7-.5h3c.5 0 .9.5.7.9zM482.5 69.4v2c0 .4-.3.7-.7.7h-11c-.4 0-.7-.3-.7-.7V54.9c0-.4.3-.7.7-.7h10.9c.4 0 .7.3.7.7v2c0 .4-.3.7-.7.7h-6.5c-.4 0-.7.3-.7.7v3.1h6.6v3.4h-6.6V68c0 .4.3.7.7.7h6.6c.4 0 .7.3.7.7zM509.2 52.6v18.7c0 .4-.4.8-.8.8H505c-.4 0-.8-.3-.8-.8V59.4c0-.8-4.5 5.6-4.5 5.6-.1.2-.4.3-.7.3h-1.7c-.3 0-.5-.1-.7-.3 0 0-4.4-6.4-4.4-5.7v11.9c0 .4-.4.8-.8.8H488c-.4 0-.8-.3-.8-.8V52.6c0-.4.4-.8.8-.8h4.5c.3 0 .5.1.7.3l4.3 6.2c.3.5 1 .5 1.3 0l4.3-6.2c.1-.2.4-.3.7-.3h4.5c.5 0 .9.4.9.8zM519 66.7c1 1.2 2.4 1.8 4.2 1.8h.1l-1.3-1.4c-.4-.5-.1-1.3.6-1.3h3.4c.2 0 .5.1.6.3.4.4.9.7 1.2.3.2-.4.5-1.2.7-1.7.3-.8.4-1.7.4-2.7 0-1.2-.2-2.3-.7-3.3-.4-1-1.1-1.7-2-2.3-.9-.6-1.9-.8-3.1-.8-1.8 0-3.2.6-4.2 1.8-1 1.2-1.5 2.8-1.5 4.7.1 1.9.6 3.4 1.6 4.6zm14.1 0c-.5 1.2-1.2 2.2-2.1 3.1-.3.3-.3.8 0 1.1l2.8 2.9h-5.3c-.2 0-.5-.1-.6-.3l-.9-1c-.2-.2-.5-.3-.8-.2-.9.2-1.8.3-2.8.3-2.3 0-4.3-.5-5.9-1.4-1.6-.9-2.8-2.2-3.7-3.8-.8-1.6-1.2-3.4-1.2-5.4 0-2 .4-3.8 1.2-5.3.8-1.6 2-2.8 3.7-3.8 1.6-.9 3.6-1.4 5.9-1.4 2.3 0 4.3.5 5.9 1.4 1.6.9 2.9 2.2 3.7 3.8.8 1.6 1.2 3.4 1.2 5.3-.2 1.7-.5 3.3-1.1 4.7z"/><path fill-rule="evenodd" clip-rule="evenodd" fill="#FCC413" d="M410.7 62.6c0 8.5-6.9 15.4-15.4 15.4s-15.4-6.9-15.4-15.4 6.9-15.4 15.4-15.4 15.4 6.9 15.4 15.4z"/><path d="M395.3 47.4c-8.4 0-15.2 6.8-15.2 15.2 0 8.4 6.8 15.2 15.2 15.2 8.4 0 15.2-6.8 15.2-15.2.1-8.4-6.7-15.2-15.2-15.2zm0 31.9c-9.2 0-16.7-7.5-16.7-16.7s7.5-16.7 16.7-16.7S412 53.4 412 62.6s-7.5 16.7-16.7 16.7z"/><path fill-rule="evenodd" clip-rule="evenodd" fill="#FFF" d="M397.8 57.6c-1-.5-1.6-1.6-1.4-2.7 1 .5 1.6 1.6 1.4 2.7z"/><path d="M395.4 71.8c.7-1.2 1-1.6 1.5-2.1h-3c.5.4.8.8 1.5 2.1z"/><path d="M397.8 57.6c-1-.5-1.6-1.6-1.4-2.7 1 .5 1.6 1.6 1.4 2.7zm-4.9 0c-.2-1.1.4-2.2 1.4-2.7.2 1.2-.4 2.3-1.4 2.7zm10.2 3.9c-.2.2-.2.4 0 .6l.1.1c2.4-2 3.8-3.6 3.1-4.8-.8-1.1-4.1-.6-8.2 1.3.2-.4.3-.9.3-1.3v-.5c-.1-.6-.4-1.1-.8-1.6-.2-.2-.5-.4-.8-.6l.3-.7c0-.1 0-.2-.1-.3-.1 0-.2 0-.3.1l-.3.7c-.6-.2-1.2-.2-1.7 0l-.3-.7c0-.1-.2-.2-.3-.1-.1 0-.2.2-.1.3l.3.7v.1c-.3.1-.6.3-.8.6-.6.6-.9 1.4-.9 2.1 0 .4.1.8.3 1.2-1.1-.5-6.9-2.9-8.1-1.2-1.1 1.5 2.2 4.1 3.1 4.9l.1-.1c.2-.2.1-.4 0-.6-.4-.4-1.1-1.1-1.6-1.7-.6-.9-.6-1.4-.3-1.6.9-.9 4.4.3 5.4.7 1 .4 2.1.9 3.3 1.5-5.5 3.2-9.2 6.9-8.3 8.5.5 1 2.8.8 5.8-.2l-.1-.2c-.1-.2-.3-.2-.5-.2-2 .6-3.3.9-3.7.3-.6-1.1 2.5-4.7 7.3-7.5l.4-.2c.1.1.2.1.4.2 4.8 2.8 7.9 6.4 7.3 7.5-.4.7-1.7.4-3.7-.3-.2-.1-.4 0-.5.2l-.1.2c2.9 1 5.2 1.2 5.8.2.9-1.5-2.8-5.3-8.3-8.5 3.8-2 7.3-2.9 8.6-2.3.8.3-1.2 2.3-2.1 3.2z"/><path d="M392 66.9c.2.5.4 1.1.8 1.5h5.2c.4-.4.6-1 .8-1.5H392zM398.7 63.8c-1-.7-2.1-1.5-3.3-2.2-1.2.7-2.3 1.4-3.3 2.2-.2.6-.3 1.2-.3 1.8h7.2c0-.6-.1-1.2-.3-1.8z"/><path fill-rule="evenodd" clip-rule="evenodd" fill="#FFF" d="M392.9 57.6c-.2-1.1.4-2.2 1.4-2.7.2 1.2-.4 2.3-1.4 2.7zM387.9 61.9s.1-.2-.1-.4c-.9-.9-2.9-2.9-1.8-3.5 1.3-.6 4.7.3 8.6 2.3-1.9 1.1-3.3 2-4.7 3.2-1.5-1.1-1.8-1.4-2-1.6zM403.1 68.5c-.4.7-1.7.4-3.7-.3h-.3c.6-.9.8-2.6.5-3.8-.1-.5-.2-.8-.3-1 2.7 2.2 4.2 4.3 3.8 5.1zM401 63.5c-1.4-1.1-2.8-2.1-4.7-3.2 3.8-2 7.3-2.9 8.6-2.3 1.1.6-.9 2.6-1.8 3.5-.2.2-.1.2-.1.4-.2.2-.5.5-2 1.6zM391.5 63.4c-.1.2-.2.5-.3 1-.2 1.2-.1 2.9.5 3.8h-.3c-2 .6-3.3.9-3.7.3-.4-.8 1.1-2.9 3.8-5.1z"/><text transform="translate(542.689 72.683)" font-family="'Roboto-Regular'" font-size="30">Cluster</text></g><g><path fill="none" stroke="#003E6E" stroke-width="2.126" stroke-miterlimit="10" d="M514.3 425.3v-55"/><path fill="#003E6E" d="M519.6 371.8l-5.3-9.1-5.3 9.1z"/></g><g><path fill="none" stroke="#003E6E" stroke-width="2.126" stroke-miterlimit="10" d="M499.7 365.2v54.4"/><path fill="#003E6E" d="M494.4 418.1l5.3 9.1 5.3-9.1z"/></g><text transform="translate(471.38 217.333)"><tspan x="0" y="0" fill="#FFF" font-family="'RobotoCondensed-Bold'" font-size="15">TLS secured</tspan><tspan x="-30.6" y="18" fill="#FFF" font-family="'RobotoCondensed-Bold'" font-size="15">cluster communication</tspan></text><text transform="translate(450.311 187.5)" fill="#003E6E" font-family="'RobotoCondensed-Regular'" font-size="15">Overload Protection</text></svg>