<?xml version="1.0" encoding="UTF-8"?><svg id="Logos" xmlns="http://www.w3.org/2000/svg" viewBox="0 0 1360 425"><g><path d="M577.82,75.76V222.01c0,3.34-2.8,6.04-6.26,6.04l-32.71-.28q0-57.13-.03-57.18c0-3.34-2.8-6.04-6.26-6.04h-52.26c-3.46,0-6.26,2.7-6.26,6.04l-.18,57.18c-31.16,0-32.56,.28-32.56,.28-3.46,0-6.26-2.7-6.26-6.04V75.76c0-3.34,2.8-6.04,6.26-6.04l32.56,.19c0,55.24,.18,56.44,.18,56.44,0,3.34,2.8,6.04,6.26,6.04h52.26c3.46,0,6.26-2.7,6.26-6.04l-.09-56.52c36.51,0,32.83-.11,32.83-.11,3.46,0,6.26,2.7,6.26,6.04Z"/><path d="M618.03,88.05h23.45c3.06,0,5.55,2.39,5.55,5.35V222.92c0,2.95-2.48,5.35-5.55,5.35h-23.45c-3.06,0-5.55-2.39-5.55-5.35V93.39c0-2.95,2.48-5.35,5.55-5.35Z"/><path d="M811.24,95.14l-47.02,131.19c-.77,2.16-2.88,3.6-5.24,3.6h-35.85c-2.36,0-4.47-1.44-5.24-3.6l-47.2-131.19c-1.25-3.47,1.43-7.1,5.24-7.1h23.72c2.38,0,4.5,1.47,5.26,3.65l30.87,88.68c1.69,4.87,8.84,4.86,10.52,0l30.71-88.67c.76-2.18,2.88-3.65,5.26-3.65h23.72c3.81,0,6.49,3.62,5.24,7.09Z"/><path d="M931.99,206.97v15.94c0,2.95-2.48,5.35-5.55,5.35h-86c-3.06,0-5.55-2.39-5.55-5.35V93.39c0-2.95,2.48-5.35,5.55-5.35h85.05c3.06,0,5.55,2.39,5.55,5.35v15.94c0,2.95-2.48,5.35-5.55,5.35h-50.5c-3.06,0-5.55,2.39-5.55,5.35,0,0-.07-.08-.07,24.48,0,0-.7,.09,51.74,.09l.04,26.19c-54.14,0-51.9,.2-51.9,.2,0,25.73,.19,25.29,.19,25.29,0,2.95,2.48,5.35,5.55,5.35h51.46c3.06,0,5.55,2.39,5.55,5.35Z"/><path d="M1140.66,75.76V222.01c0,3.34-2.8,6.04-6.26,6.04h-26.47c-3.46,0-6.26-2.7-6.26-6.04l-.37-92.92c0-5.92-35.03,43.92-35.03,43.92-1.17,1.63-3.1,2.61-5.15,2.61h-12.9c-2.07,0-4.01-.99-5.18-2.64,0,0-34.73-50.17-34.73-44.22l.18,93.26c0,3.34-2.8,6.04-6.26,6.04h-26.48c-3.46,0-6.26-2.7-6.26-6.04V75.76c0-3.34,2.8-6.04,6.26-6.04h35.46c2.09,0,4.05,1.01,5.21,2.68l33.45,48.28c2.48,3.58,7.94,3.58,10.42,0l33.45-48.28c1.16-1.68,3.12-2.68,5.21-2.68h35.46c3.46,0,6.26,2.7,6.26,6.04Z"/><path d="M1327.33,186.06c-3.92,9.31-9.43,17.3-16.53,23.98-2.37,2.23-2.48,5.87-.28,8.26l21.63,22.83c-39.51,0-41.69,.29-41.69,.29-1.83,0-3.57-.77-4.76-2.11l-7.09-7.99c-1.54-1.74-3.96-2.44-6.28-1.93-6.8,1.48-14.21,2.22-22.24,2.22-18.2,0-33.66-3.58-46.37-10.76-12.71-7.17-22.25-16.99-28.6-29.45-6.36-12.46-9.53-26.56-9.53-42.3s3.17-29.38,9.53-41.78c6.35-12.39,15.89-22.25,28.6-29.56,12.71-7.31,28.17-10.97,46.37-10.97s33.23,3.66,45.94,10.97c12.71,7.31,22.28,17.2,28.71,29.66,6.43,12.47,9.64,26.36,9.64,41.67,0,13.51-2.35,25.83-7.04,36.97Zm-110.4-.1c7.65,9.26,18.71,13.89,33.15,13.89h.44l-10.13-11.32c-3.5-3.91-.62-9.98,4.74-9.98h26.8c1.81,0,3.54,.76,4.73,2.08h0c2.81,3.12,7.05,5.79,9.16,2.19,1.77-3,4.24-9.37,5.43-12.94,2.17-6.48,3.25-13.61,3.25-21.41,0-9.61-1.74-18.17-5.2-25.69-3.47-7.52-8.56-13.44-15.27-17.76-6.72-4.31-14.7-6.48-23.95-6.48-14.3,0-25.32,4.67-33.04,13.99-7.73,9.33-11.6,21.51-11.6,36.55s3.83,27.61,11.49,36.87Z"/></g><path d="M210.13,74.69c-74.06,0-134.31,60.25-134.31,134.32s60.25,134.31,134.31,134.31,134.31-60.25,134.31-134.31-60.25-134.32-134.31-134.32Z" style="fill:#ffc000;"/><g><path d="M458.57,305.77l-8.38,10.14v29.18h-10.72v-85.31h10.72v41.19l7.03-9.32,22.97-31.88h12.89l-27.71,37.56,29.88,47.75h-12.83l-23.85-39.32Z"/><path d="M546.4,282.04c0,4.26-.95,8.05-2.84,11.37-1.89,3.32-4.44,5.92-7.65,7.79,3.79,1.95,6.76,4.76,8.91,8.41,2.15,3.65,3.22,7.8,3.22,12.45,0,7.34-2.08,13.21-6.24,17.61s-9.68,6.59-16.55,6.59-12.39-2.2-16.55-6.59-6.24-10.26-6.24-17.61c0-4.69,1.06-8.88,3.19-12.57s5.03-6.47,8.7-8.35c-3.2-1.88-5.72-4.46-7.56-7.76-1.84-3.3-2.75-7.08-2.75-11.34,0-7.19,1.94-12.89,5.83-17.11s9.01-6.33,15.38-6.33,11.44,2.09,15.32,6.27c3.89,4.18,5.83,9.9,5.83,17.17Zm-8.73,39.79c0-4.88-1.15-8.8-3.46-11.75-2.3-2.95-5.33-4.42-9.08-4.42s-6.85,1.48-9.05,4.45c-2.21,2.97-3.31,6.88-3.31,11.72s1.08,8.75,3.25,11.48c2.17,2.73,5.24,4.1,9.23,4.1s7.05-1.37,9.2-4.1c2.15-2.73,3.22-6.56,3.22-11.48Zm-1.58-39.61c0-4.34-1.02-7.87-3.05-10.61-2.03-2.73-4.63-4.1-7.79-4.1-3.32,0-5.96,1.35-7.91,4.04s-2.93,6.25-2.93,10.66,1,7.99,2.99,10.61c1.99,2.62,4.61,3.93,7.85,3.93s5.96-1.33,7.91-3.98c1.95-2.66,2.93-6.17,2.93-10.55Z"/><path d="M593.45,328.86c0-2.23-.84-4.14-2.52-5.74-1.68-1.6-4.92-3.48-9.73-5.62-5.59-2.3-9.52-4.28-11.81-5.92s-3.99-3.51-5.13-5.6c-1.13-2.09-1.7-4.58-1.7-7.47,0-5.16,1.88-9.44,5.65-12.86,3.77-3.42,8.58-5.13,14.44-5.13,6.17,0,11.13,1.8,14.88,5.39,3.75,3.59,5.62,8.2,5.62,13.83h-10.31c0-2.85-.96-5.28-2.87-7.29-1.91-2.01-4.36-3.02-7.32-3.02s-5.44,.79-7.18,2.37c-1.74,1.58-2.61,3.69-2.61,6.34,0,2.1,.63,3.8,1.9,5.08,1.27,1.29,4.33,2.98,9.17,5.08,7.7,3.01,12.93,5.96,15.7,8.83,2.77,2.88,4.16,6.52,4.16,10.94,0,5.52-1.89,9.93-5.68,13.23-3.79,3.31-8.87,4.96-15.23,4.96s-11.95-1.89-16.05-5.68c-4.1-3.79-6.15-8.59-6.15-14.41h10.43c.12,3.52,1.19,6.27,3.22,8.26s4.88,2.99,8.55,2.99c3.44,0,6.05-.77,7.85-2.31,1.8-1.54,2.7-3.62,2.7-6.24Z"/><path d="M701.73,309.93c0,11.64-2.48,20.61-7.44,26.89-4.96,6.29-12.01,9.43-21.15,9.43s-15.73-3.06-20.83-9.17c-5.1-6.11-7.74-14.76-7.94-25.93v-16.05c0-11.41,2.52-20.34,7.56-26.81,5.04-6.46,12.07-9.7,21.09-9.7s15.99,3.1,21.01,9.29c5.02,6.19,7.59,15.03,7.71,26.51v15.53Zm-10.72-14.94c0-9.02-1.47-15.73-4.42-20.13s-7.47-6.59-13.56-6.59-10.36,2.23-13.39,6.68-4.56,11.02-4.6,19.69v15.29c0,8.71,1.51,15.35,4.54,19.92s7.55,6.86,13.56,6.86,10.47-2.11,13.36-6.33,4.39-10.68,4.51-19.39v-16Z"/><path d="M729.04,311.69v33.4h-10.72v-85.31h27.19c7.93,0,14.16,2.37,18.69,7.12s6.8,11.06,6.8,18.96-2.16,14.52-6.47,18.96c-4.32,4.43-10.4,6.73-18.25,6.88h-17.23Zm0-9.2h16.46c4.77,0,8.42-1.43,10.96-4.28s3.81-6.95,3.81-12.27-1.31-9.23-3.93-12.33c-2.62-3.09-6.21-4.64-10.78-4.64h-16.52v33.52Z"/><path d="M825.72,305.66h-30.18v30.23h35.16v9.2h-45.88v-85.31h45.29v9.2h-34.57v27.48h30.18v9.2Z"/><path d="M870.19,310.58h-15v34.51h-10.78v-85.31h23.91c8.36,0,14.69,2.18,18.98,6.53,4.3,4.36,6.45,10.73,6.45,19.13,0,5.27-1.16,9.87-3.49,13.8s-5.62,6.88-9.87,8.88l16.52,36.27v.7h-11.54l-15.18-34.51Zm-15-9.2h13.01c4.49,0,8.08-1.45,10.75-4.34,2.68-2.9,4.01-6.77,4.01-11.62,0-10.96-4.96-16.44-14.88-16.44h-12.89v32.4Z"/><path d="M947.89,322.77h-28.83l-6.62,22.32h-11.02l27.48-85.31h9.2l27.54,85.31h-11.02l-6.74-22.32Zm-26.02-9.2h23.26l-11.66-38.79-11.6,38.79Z"/><path d="M1019.55,268.98h-22.44v76.11h-10.72v-76.11h-22.38v-9.2h55.55v9.2Z"/><path d="M1085.99,309.93c0,11.64-2.48,20.61-7.44,26.89-4.96,6.29-12.01,9.43-21.15,9.43s-15.73-3.06-20.83-9.17c-5.1-6.11-7.74-14.76-7.94-25.93v-16.05c0-11.41,2.52-20.34,7.56-26.81,5.04-6.46,12.07-9.7,21.09-9.7s15.99,3.1,21.01,9.29c5.02,6.19,7.59,15.03,7.71,26.51v15.53Zm-10.72-14.94c0-9.02-1.47-15.73-4.42-20.13s-7.47-6.59-13.56-6.59-10.36,2.23-13.39,6.68-4.56,11.02-4.6,19.69v15.29c0,8.71,1.51,15.35,4.54,19.92s7.55,6.86,13.56,6.86,10.47-2.11,13.36-6.33,4.39-10.68,4.51-19.39v-16Z"/><path d="M1128.35,310.58h-15v34.51h-10.78v-85.31h23.91c8.36,0,14.69,2.18,18.98,6.53,4.3,4.36,6.45,10.73,6.45,19.13,0,5.27-1.16,9.87-3.49,13.8s-5.62,6.88-9.87,8.88l16.52,36.27v.7h-11.54l-15.18-34.51Zm-15-9.2h13.01c4.49,0,8.08-1.45,10.75-4.34,2.68-2.9,4.01-6.77,4.01-11.62,0-10.96-4.96-16.44-14.88-16.44h-12.89v32.4Z"/></g><path d="M400.05,241.57c-4.16-2.18-8.22-3.04-14.44-3.5-6.56-.48-13.74,.27-20.75-1.83-5.36-1.61-8.78-6.58-10.73-10.56,.6-5.34,.93-10.75,.93-16.25,0-28.26-8.12-54.61-22.11-76.91,.04-4.44,.97-10.4,5.11-14.16,5.41-4.92,12.21-7.35,17.92-10.62,5.41-3.1,8.7-5.63,11.51-9.4,2.81-3.77,3.57-9.92,.13-14.25h0s0,0,0,0c0,0,0,0,0,0h0c-3.44-4.32-9.61-4.96-13.91-3.06-4.3,1.89-7.51,4.53-11.74,9.11-4.47,4.83-8.36,10.91-14.37,15.08-4.59,3.18-10.59,2.76-14.92,1.81-22.61-22.64-52.69-37.8-86.21-41.56-3.45-2.79-7.53-7.24-7.9-12.82-.48-7.3,1.85-14.13,2.85-20.63,.95-6.16,1.01-10.31-.18-14.86-1.2-4.54-5.54-8.97-11.06-8.98h0s0,0,0,0,0,0,0,0h0c-5.52,0-9.86,4.43-11.06,8.98-1.2,4.55-1.13,8.69-.19,14.86,1,6.5,3.33,13.33,2.85,20.63-.37,5.58-4.46,10.03-7.9,12.82-33.47,3.75-63.5,18.87-86.1,41.45-4.33,.95-10.34,1.36-14.92-1.83-6.01-4.18-9.89-10.26-14.35-15.09-4.23-4.58-7.43-7.22-11.73-9.12-4.3-1.9-10.47-1.26-13.92,3.05h0s0,0,0,0,0,0,0,0h0c-3.44,4.32-2.69,10.48,.12,14.25,2.81,3.77,6.09,6.31,11.5,9.41,5.71,3.27,12.5,5.71,17.91,10.64,4.13,3.77,5.06,9.74,5.1,14.17-14.04,22.32-22.19,48.72-22.19,77.03,0,5.45,.33,10.81,.91,16.1-1.96,3.98-5.38,8.95-10.74,10.55-7.01,2.09-14.19,1.34-20.75,1.81-6.22,.45-10.28,1.3-14.44,3.48-4.16,2.18-7.52,7.4-6.3,12.78h0s0,0,0,0c0,0,0,0,0,0h0c1.23,5.38,6.51,8.63,11.21,8.79,4.7,.16,8.73-.83,14.53-3.12,6.12-2.42,12.26-6.21,19.49-7.36,5.51-.88,10.74,2.1,14.23,4.83,10.9,31.14,32.11,57.41,59.56,74.73,1.89,4.01,3.64,9.79,1.55,14.98-2.74,6.79-7.8,11.93-11.53,17.35-3.53,5.14-5.39,8.85-6.28,13.46-.89,4.61,1.09,10.49,6.07,12.89h0s0,0,0,0c0,0,0,0,0,0h0c4.98,2.39,10.81,.29,13.86-3.28,3.05-3.58,4.79-7.34,6.62-13.3,1.92-6.29,2.79-13.46,6.4-19.82,2.75-4.85,8.34-7.08,12.65-8.11,14.99,5.25,31.09,8.13,47.88,8.13s32.78-2.87,47.73-8.08c4.31,1.03,9.9,3.27,12.64,8.12,3.6,6.37,4.46,13.54,6.38,19.83,1.82,5.97,3.55,9.73,6.6,13.31,3.05,3.58,8.88,5.69,13.86,3.3h0s0,0,0,0c0,0,0,0,0,0h0c4.97-2.4,6.97-8.27,6.08-12.89-.89-4.62-2.75-8.32-6.27-13.47-3.72-5.43-8.78-10.57-11.51-17.36-2.09-5.19-.33-10.97,1.57-14.98,27.47-17.3,48.71-43.55,59.64-74.67,3.49-2.73,8.72-5.7,14.23-4.81,7.22,1.16,13.36,4.96,19.48,7.38,5.8,2.3,9.82,3.29,14.52,3.14,4.7-.15,9.98-3.4,11.22-8.78h0s0,0,0,0c0,0,0,0,0,0h0c1.23-5.38-2.12-10.61-6.28-12.79ZM210.15,86.45c67.92,0,122.98,55.06,122.98,122.98s-55.06,122.98-122.98,122.98-122.98-55.06-122.98-122.98,55.06-122.98,122.98-122.98Z"/><g><path d="M232.2,170.39c-8.89-4.14-14.01-13.79-12.46-23.46,8.87,4.12,14.01,13.79,12.46,23.46Z" style="fill:#fff; fill-rule:evenodd;"/><path d="M180.79,252.12c1.43,4.78,3.7,9.27,6.79,13.17h46.16c3.1-3.9,5.35-8.4,6.79-13.17h-59.73Z"/><path d="M210.65,294.9c5.95-10.73,9.05-14.41,13.01-18.56h-26.03c3.98,4.16,7.06,7.84,13.01,18.56Z"/><path d="M239.98,225.22c-8.83-6.47-18.7-12.95-29.33-19.16-10.63,6.21-20.5,12.7-29.31,19.16-1.75,5.05-2.53,10.49-2.35,15.86h63.32c.18-5.37-.6-10.81-2.33-15.86Z"/><path d="M188.93,170.38c8.87-4.14,14.01-13.79,12.46-23.46-8.89,4.12-14.01,13.79-12.46,23.46Z" style="fill:none;"/><path d="M278.23,204.56c-1.45,1.37-1.53,3.66-.18,5.13l.5,.56c20.97-17.91,33.59-31.76,27.3-42.68-6.92-9.65-36.1-5.07-71.87,11.02,1.81-3.64,2.71-7.64,2.71-11.62,0-1.47-.12-2.94-.38-4.4-.86-5.13-3.26-10.07-7.22-14.01-2.15-2.17-4.62-3.86-7.24-5.09l.12-.28h.02l2.75-5.97c.44-.96,.02-2.09-.94-2.53-.96-.44-2.09-.02-2.53,.94l-2.98,6.47c-4.96-1.51-10.29-1.51-15.24,0l-2.98-6.47c-.44-.96-1.57-1.37-2.53-.94-.96,.44-1.37,1.57-.94,2.53l2.67,5.77,.22,.46c-2.63,1.25-5.07,2.95-7.24,5.11-5.19,5.19-7.72,12.06-7.58,18.9,.06,3.7,.9,7.38,2.53,10.8-9.25-4.14-60.61-25.41-70.96-10.9-9.37,13.19,19.42,36.29,27.12,42.88l.5-.56c1.35-1.47,1.27-3.76-.16-5.13-3.78-3.56-9.71-9.43-13.85-15.16-5.43-7.52-5.57-11.96-2.94-14.43,8.18-7.68,38.52,2.49,47.94,6.07,9.03,3.46,18.78,7.88,28.83,13.17-48.09,27.88-80.77,61.19-73.05,74.54,4.84,8.38,24.95,7.28,50.8-1.83l-.94-1.53c-.88-1.45-2.57-2.11-4.2-1.61-17.93,5.43-29.09,8.02-32.95,2.25-5.39-9.33,21.95-41.49,64.43-66l3.18-1.83c1.07,.6,2.15,1.21,3.2,1.83,42.48,24.51,69.82,56.67,64.43,66-3.86,5.77-15.02,3.18-32.95-2.25-1.63-.5-3.32,.16-4.2,1.61l-.94,1.53c25.85,9.11,45.97,10.21,50.8,1.83,7.7-13.35-24.95-46.66-73.05-74.54,33.85-17.85,64.35-25.79,75.53-20.1,10.05,5.11-7.58,22.9-15.54,30.44Zm-89.3-34.19c-1.55-9.67,3.56-19.34,12.46-23.46,1.55,9.67-3.58,19.32-12.46,23.46Zm43.28,0c-8.89-4.14-14.01-13.79-12.46-23.46,8.87,4.12,14.01,13.79,12.46,23.46Z"/><path d="M188.93,170.38c-1.55-9.67,3.56-19.34,12.46-23.46,1.55,9.67-3.58,19.32-12.46,23.46Z" style="fill:#fff; fill-rule:evenodd;"/><path d="M144.61,207.91s.76-1.85-1.02-3.54c-7.97-7.53-25.59-25.33-15.54-30.44,11.18-5.69,41.75,2.44,75.6,20.29-17.07,9.89-28.8,18.05-41.13,28.02-13.68-10.01-16.12-12.25-17.9-14.33Z" style="fill:#fff; fill-rule:evenodd;"/><path d="M278.48,266.21c-3.86,5.77-15.02,3.18-32.95-2.25-.82-.24-1.63-.22-2.37,.08,5.47-7.94,6.67-22.56,4.76-33.23-.02-.04-.02-.1-.02-.16-.02-.04-.02-.06-.02-.08-.58-4.18-1.49-7.48-2.55-8.95,23.82,19.16,37.09,37.87,33.15,44.59Z" style="fill:#fff; fill-rule:evenodd;"/><path d="M259.63,222.45c-12.06-10.13-24.32-18.33-41.39-28.22,33.85-17.85,64.35-25.79,75.53-20.1,10.05,5.11-7.58,22.9-15.54,30.44-1.41,1.33-1.07,1.94-1.02,3.54-1.78,2.08-3.9,4.31-17.58,14.33Z" style="fill:#fff; fill-rule:evenodd;"/><path d="M176.51,221.37c-1.05,1.47-1.97,4.78-2.55,8.95,0,.02,0,.04-.02,.08,0,.06,0,.12-.02,.16-1.91,10.67-.72,25.29,4.76,33.23-.74-.3-1.55-.32-2.37-.08-17.93,5.43-29.09,8.02-32.95,2.25-3.94-6.73,9.33-25.43,33.15-44.59Z" style="fill:#fff; fill-rule:evenodd;"/></g></svg>