<svg id="Logos" xmlns="http://www.w3.org/2000/svg" viewBox="0 0 1290 340"><path d="M506,39.47V185.73a6.16,6.16,0,0,1-6.27,6L467,191.48c0-57.13,0-57.18,0-57.18a6.15,6.15,0,0,0-6.26-6H408.46a6.16,6.16,0,0,0-6.27,6L402,191.48c-31.16,0-32.56.28-32.56.28a6.15,6.15,0,0,1-6.26-6V39.47a6.15,6.15,0,0,1,6.26-6l32.56.19c0,55.24.18,56.44.18,56.44a6.16,6.16,0,0,0,6.27,6h52.26a6.15,6.15,0,0,0,6.26-6l-.09-56.52c36.52,0,32.83-.11,32.83-.11A6.16,6.16,0,0,1,506,39.47Z"/><path d="M546.2,51.76h23.45a5.45,5.45,0,0,1,5.54,5.35V186.63a5.45,5.45,0,0,1-5.54,5.35H546.2a5.46,5.46,0,0,1-5.55-5.35V57.11A5.46,5.46,0,0,1,546.2,51.76Z"/><path d="M739.41,58.86,692.39,190a5.54,5.54,0,0,1-5.25,3.6H651.29a5.54,5.54,0,0,1-5.24-3.59L598.86,58.86a5.38,5.38,0,0,1,5.24-7.1h23.71a5.53,5.53,0,0,1,5.26,3.65L664,144.09a5.61,5.61,0,0,0,10.52,0l30.71-88.66a5.54,5.54,0,0,1,5.26-3.66h23.72A5.39,5.39,0,0,1,739.41,58.86Z"/><path d="M860.16,170.69v15.94a5.46,5.46,0,0,1-5.55,5.35h-86a5.45,5.45,0,0,1-5.54-5.35V57.11a5.45,5.45,0,0,1,5.54-5.35h85a5.46,5.46,0,0,1,5.55,5.35V73.05a5.46,5.46,0,0,1-5.55,5.35h-50.5a5.45,5.45,0,0,0-5.55,5.35s-.07-.08-.07,24.47c0,0-.7.1,51.74.1l0,26.19c-54.14,0-51.9.19-51.9.19,0,25.74.19,25.29.19,25.29a5.45,5.45,0,0,0,5.55,5.35h51.46A5.46,5.46,0,0,1,860.16,170.69Z"/><path d="M1068.82,39.47V185.73a6.15,6.15,0,0,1-6.26,6h-26.47a6.16,6.16,0,0,1-6.27-6l-.37-92.92c0-5.93-35,43.92-35,43.92a6.34,6.34,0,0,1-5.16,2.6h-12.9a6.32,6.32,0,0,1-5.18-2.64s-34.72-50.17-34.72-44.22l.18,93.26a6.15,6.15,0,0,1-6.26,6H903.9a6.15,6.15,0,0,1-6.26-6V39.47a6.15,6.15,0,0,1,6.26-6h35.46a6.33,6.33,0,0,1,5.21,2.69L978,84.4a6.4,6.4,0,0,0,10.42,0l33.45-48.28a6.33,6.33,0,0,1,5.21-2.69h35.46A6.15,6.15,0,0,1,1068.82,39.47Z"/><path d="M1255.5,149.78a69.55,69.55,0,0,1-16.53,24,5.84,5.84,0,0,0-.28,8.26l21.62,22.83c-39.5,0-41.69.28-41.69.28a6.37,6.37,0,0,1-4.76-2.11l-7.09-8a6.51,6.51,0,0,0-6.28-1.93,104.48,104.48,0,0,1-22.24,2.23q-27.3,0-46.37-10.76a69.65,69.65,0,0,1-28.6-29.45q-9.54-18.71-9.53-42.3,0-23.19,9.53-41.78a71.1,71.1,0,0,1,28.6-29.56q19.06-11,46.37-11,26.87,0,45.94,11a71.68,71.68,0,0,1,28.71,29.66q9.63,18.7,9.64,41.68A94.35,94.35,0,0,1,1255.5,149.78Zm-110.4-.1q11.48,13.89,33.15,13.89h.44l-10.14-11.33a6,6,0,0,1,4.75-10h26.8a6.38,6.38,0,0,1,4.73,2.08h0c2.81,3.12,7,5.78,9.16,2.19a88.09,88.09,0,0,0,5.43-12.94,67,67,0,0,0,3.25-21.41,60.64,60.64,0,0,0-5.2-25.69,41.1,41.1,0,0,0-15.27-17.76q-10.08-6.47-24-6.47-21.45,0-33,14t-11.6,36.56Q1133.61,135.79,1145.1,149.68Z"/><circle cx="156.38" cy="166.24" r="135.44" style="fill:#ffc000"/><path d="M156.29,313.43c-80.9,0-146.71-65.81-146.71-146.71S75.39,20,156.29,20,303,85.82,303,166.72,237.19,313.43,156.29,313.43Zm0-281C82.23,32.4,22,92.66,22,166.72S82.23,301,156.29,301s134.32-60.25,134.32-134.31S230.35,32.4,156.29,32.4Z"/><path d="M178.37,128.11a22.11,22.11,0,0,1-12.46-23.46A22.12,22.12,0,0,1,178.37,128.11Z" style="fill:#fff;fill-rule:evenodd"/><path d="M127,209.83A39.35,39.35,0,0,0,133.74,223H179.9a39.17,39.17,0,0,0,6.79-13.18Z"/><path d="M156.82,252.62c6-10.73,9.05-14.41,13-18.57h-26C147.79,238.21,150.87,241.89,156.82,252.62Z"/><path d="M186.15,182.93a343.4,343.4,0,0,0-29.33-19.16,336.76,336.76,0,0,0-29.31,19.16,44.21,44.21,0,0,0-2.35,15.86h63.32A44.63,44.63,0,0,0,186.15,182.93Z"/><path d="M135.09,128.09a22.15,22.15,0,0,0,12.46-23.46A22.1,22.1,0,0,0,135.09,128.09Z" style="fill:none"/><path d="M224.39,162.28a3.66,3.66,0,0,0-.18,5.13l.5.56c21-17.91,33.59-31.76,27.3-42.68-6.92-9.65-36.09-5.08-71.87,11a26.14,26.14,0,0,0,2.71-11.62,25,25,0,0,0-.38-4.4,25.76,25.76,0,0,0-7.22-14,25.22,25.22,0,0,0-7.25-5.09l.12-.28h0l2.75-6a1.91,1.91,0,1,0-3.47-1.59l-3,6.47a26,26,0,0,0-15.24,0l-3-6.47a1.9,1.9,0,1,0-3.46,1.59l2.67,5.77.22.46A26.17,26.17,0,0,0,133.34,136c-9.25-4.14-60.61-25.41-71-10.9C53,138.28,81.8,161.38,89.5,168l.5-.56a3.68,3.68,0,0,0-.16-5.13A116.51,116.51,0,0,1,76,147.11c-5.43-7.52-5.57-12-2.94-14.42,8.18-7.68,38.52,2.49,47.93,6.07a267.92,267.92,0,0,1,28.83,13.17c-48.09,27.88-80.76,61.19-73,74.54,4.83,8.38,25,7.28,50.8-1.83l-.94-1.53a3.61,3.61,0,0,0-4.19-1.62c-17.93,5.44-29.1,8-33,2.25-5.39-9.33,22-41.48,64.43-66l3.19-1.83c1.07.6,2.15,1.21,3.2,1.83,42.48,24.52,69.82,56.67,64.43,66-3.86,5.77-15,3.19-32.95-2.25a3.62,3.62,0,0,0-4.2,1.62l-.93,1.53c25.84,9.11,46,10.21,50.8,1.83,7.7-13.35-25-46.66-73-74.54,33.85-17.85,64.35-25.79,75.53-20.1C250,137,232.35,154.74,224.39,162.28Zm-89.3-34.19a22.1,22.1,0,0,1,12.46-23.46A22.15,22.15,0,0,1,135.09,128.09Zm43.28,0a22.11,22.11,0,0,1-12.46-23.46A22.12,22.12,0,0,1,178.37,128.09Z"/><path d="M135.09,128.09a22.1,22.1,0,0,1,12.46-23.46A22.15,22.15,0,0,1,135.09,128.09Z" style="fill:#fff;fill-rule:evenodd"/><path d="M90.78,165.62a3.29,3.29,0,0,0-1-3.54c-8-7.53-25.59-25.33-15.55-30.44,11.19-5.69,41.76,2.44,75.6,20.29a302,302,0,0,0-41.13,28C95,169.94,92.56,167.7,90.78,165.62Z" style="fill:#fff;fill-rule:evenodd"/><path d="M224.64,223.93c-3.86,5.77-15,3.18-32.95-2.25a3.56,3.56,0,0,0-2.37.08c5.47-7.94,6.67-22.56,4.76-33.23a.39.39,0,0,1,0-.16.15.15,0,0,1,0-.08c-.58-4.18-1.49-7.48-2.55-8.95C215.31,198.5,228.58,217.21,224.64,223.93Z" style="fill:#fff;fill-rule:evenodd"/><path d="M205.79,180.16c-12-10.12-24.32-18.32-41.39-28.21,33.85-17.85,64.35-25.79,75.53-20.1,10,5.12-7.58,22.9-15.54,30.45-1.41,1.33-1.07,1.94-1,3.54C221.59,167.91,219.47,170.15,205.79,180.16Z" style="fill:#fff;fill-rule:evenodd"/><path d="M122.67,179.09c-1,1.47-2,4.78-2.54,8.95a.15.15,0,0,1,0,.08.39.39,0,0,1,0,.16c-1.91,10.67-.72,25.29,4.75,33.23a3.55,3.55,0,0,0-2.37-.08c-17.92,5.44-29.09,8-32.95,2.25C85.58,217,98.86,198.25,122.67,179.09Z" style="fill:#fff;fill-rule:evenodd"/><path d="M418.41,266.4q-1.43,12.18-9,18.79t-20.1,6.61q-13.6,0-21.8-9.75T359.33,256v-7.37a43.68,43.68,0,0,1,3.82-18.82A28.4,28.4,0,0,1,374,217.31,30.13,30.13,0,0,1,390.21,213q12.23,0,19.61,6.82t8.59,18.9H408.24q-1.32-9.21-5.72-13.33t-12.31-4.12q-9.69,0-15.2,7.18t-5.51,20.41v7.44q0,12.5,5.22,19.88a16.83,16.83,0,0,0,14.6,7.39q8.43,0,12.93-3.82t6-13.31Z"/><path d="M491.79,254.86a47.43,47.43,0,0,1-3.8,19.68,28.76,28.76,0,0,1-10.75,12.84,29.67,29.67,0,0,1-43.19-12.73,45.6,45.6,0,0,1-4-19.11V250a46.78,46.78,0,0,1,3.85-19.55,28.42,28.42,0,0,1,27-17.5,29.74,29.74,0,0,1,16.26,4.45A28.69,28.69,0,0,1,488,230.32a47.7,47.7,0,0,1,3.8,19.69Zm-10.07-5q0-13.65-5.48-21t-15.34-7.3a17.91,17.91,0,0,0-15.1,7.3q-5.51,7.31-5.66,20.27v5.64q0,13.23,5.56,20.79A18,18,0,0,0,461,283.21q9.8,0,15.18-7.14t5.53-20.47Z"/><path d="M520.57,214l25.09,62.61L570.75,214h13.12v76.74H573.75V260.87l1-32.26-25.19,62.14h-7.75l-25.14-62,1,32.1v29.88H507.5V214Z"/><path d="M615.35,214l25.09,62.61L665.53,214h13.12v76.74H668.53V260.87l1-32.26-25.19,62.14h-7.75l-25.14-62,1,32.1v29.88H602.28V214Z"/><path d="M751.08,214v52.18Q751,277.05,744.25,284t-18.36,7.75l-2.69.1q-12.6,0-20.08-6.8t-7.59-18.71V214h10v52q0,8.32,4.59,12.94t13.07,4.61q8.58,0,13.15-4.59T740.91,266V214Z"/><path d="M826.56,290.75H816.39l-38.63-59.14v59.14H767.59V214h10.17l38.74,59.4V214h10.06Z"/><path d="M855.93,290.75H845.81V214h10.12Z"/><path d="M926.47,222.29H901.8v68.46H891.73V222.29H867.12V214h59.35Z"/><path d="M962.63,252.54l20-38.53h11.49l-26.46,48.12v28.62H957.57V262.13L931.12,214h11.59Z"/></svg>