<?xml version="1.0" encoding="utf-8"?>
<!-- Generator: Adobe Illustrator 24.3.0, SVG Export Plug-In . SVG Version: 6.00 Build 0)  -->
<svg version="1.1" xmlns="http://www.w3.org/2000/svg" xmlns:xlink="http://www.w3.org/1999/xlink" x="0px" y="0px"
	 viewBox="0 0 1290 340" style="enable-background:new 0 0 1290 340;" xml:space="preserve">
<style type="text/css">
	.st0{display:none;}
	.st1{display:inline;}
	.st2{display:inline;fill-rule:evenodd;clip-rule:evenodd;}
	.st3{display:inline;fill:#A91917;}
	.st4{display:inline;fill-rule:evenodd;clip-rule:evenodd;fill:#A91917;}
	.st5{fill:#FFC000;}
	.st6{fill:#FFFFFF;}
	.st7{fill-rule:evenodd;clip-rule:evenodd;fill:#FFC000;}
	.st8{fill-rule:evenodd;clip-rule:evenodd;fill:#FFFFFF;}
	.st9{fill:none;}
	.st10{fill-rule:evenodd;clip-rule:evenodd;}
	.st11{opacity:0.5;fill:#FFFFFF;}
	.st12{fill:#676767;}
	.st13{fill:url(#SVGID_1_);}
	.st14{fill:url(#SVGID_2_);}
	.st15{fill:url(#SVGID_3_);}
	.st16{fill:url(#SVGID_4_);}
	.st17{fill:url(#SVGID_5_);}
	.st18{fill:url(#SVGID_6_);}
	.st19{fill:url(#SVGID_7_);}
	.st20{fill:url(#SVGID_8_);}
	.st21{fill:url(#SVGID_9_);}
	.st22{fill:url(#SVGID_10_);}
	.st23{fill:url(#SVGID_11_);}
	.st24{fill:#333333;}
	.st25{fill:url(#SVGID_12_);}
	.st26{opacity:0.2;}
	.st27{fill:url(#SVGID_13_);}
	.st28{fill:url(#SVGID_14_);}
	.st29{fill:url(#SVGID_15_);}
	.st30{fill:url(#SVGID_16_);}
	.st31{fill:url(#SVGID_17_);}
	.st32{fill:url(#SVGID_18_);}
	.st33{fill:url(#SVGID_19_);}
	.st34{fill:url(#SVGID_20_);}
	.st35{fill:url(#SVGID_21_);}
	.st36{fill:url(#SVGID_22_);}
	.st37{fill:url(#SVGID_23_);}
	.st38{fill:url(#SVGID_24_);}
	.st39{fill:url(#SVGID_25_);}
	.st40{fill:url(#SVGID_26_);}
	.st41{fill:url(#SVGID_27_);}
	.st42{fill:url(#SVGID_28_);}
	.st43{fill:url(#SVGID_29_);}
	.st44{fill:url(#SVGID_30_);}
	.st45{fill:url(#SVGID_31_);}
	.st46{fill:url(#SVGID_32_);}
	.st47{fill:url(#SVGID_33_);}
	.st48{fill:url(#SVGID_34_);}
	.st49{fill:url(#SVGID_35_);}
	.st50{fill:url(#SVGID_36_);}
	.st51{clip-path:url(#SVGID_38_);}
	.st52{clip-path:url(#SVGID_40_);}
	.st53{clip-path:url(#SVGID_42_);}
	.st54{clip-path:url(#SVGID_44_);}
	.st55{clip-path:url(#SVGID_46_);}
	.st56{fill:url(#SVGID_47_);}
	.st57{fill:url(#SVGID_48_);}
	.st58{fill:url(#SVGID_49_);}
	.st59{fill:url(#SVGID_50_);}
	.st60{fill:url(#SVGID_51_);}
	.st61{fill:url(#SVGID_52_);}
	.st62{fill:url(#SVGID_53_);}
	.st63{fill:url(#SVGID_54_);}
	.st64{fill:url(#SVGID_55_);}
	.st65{fill:url(#SVGID_56_);}
	.st66{fill:url(#SVGID_57_);}
	.st67{fill:url(#SVGID_58_);}
</style>
<g id="non-print-backgrounds" class="st0">
</g>
<g id="Logos">
	<g>
		<g>
			<path d="M508.4,39.5v146.3c0,3.3-2.8,6-6.3,6l-32.7-0.3c0-57.1,0-57.2,0-57.2c0-3.3-2.8-6-6.3-6h-52.3c-3.5,0-6.3,2.7-6.3,6
				l-0.2,57.2c-31.2,0-32.6,0.3-32.6,0.3c-3.5,0-6.3-2.7-6.3-6V39.5c0-3.3,2.8-6,6.3-6l32.6,0.2c0,55.2,0.2,56.4,0.2,56.4
				c0,3.3,2.8,6,6.3,6h52.3c3.5,0,6.3-2.7,6.3-6l-0.1-56.5c36.5,0,32.8-0.1,32.8-0.1C505.6,33.4,508.4,36.1,508.4,39.5z"/>
			<path d="M548.6,51.8h23.4c3.1,0,5.5,2.4,5.5,5.3v129.5c0,3-2.5,5.3-5.5,5.3h-23.4c-3.1,0-5.5-2.4-5.5-5.3V57.1
				C543.1,54.2,545.6,51.8,548.6,51.8z"/>
			<path d="M741.8,58.9l-47,131.2c-0.8,2.2-2.9,3.6-5.2,3.6h-35.8c-2.4,0-4.5-1.4-5.2-3.6L601.3,58.9c-1.3-3.5,1.4-7.1,5.2-7.1h23.7
				c2.4,0,4.5,1.5,5.3,3.6l30.9,88.7c1.7,4.9,8.8,4.9,10.5,0l30.7-88.7c0.8-2.2,2.9-3.7,5.3-3.7h23.7
				C740.4,51.8,743.1,55.4,741.8,58.9z"/>
			<path d="M862.6,170.7v15.9c0,3-2.5,5.3-5.5,5.3h-86c-3.1,0-5.5-2.4-5.5-5.3V57.1c0-3,2.5-5.3,5.5-5.3h85c3.1,0,5.5,2.4,5.5,5.3
				v15.9c0,3-2.5,5.3-5.5,5.3h-50.5c-3.1,0-5.5,2.4-5.5,5.3c0,0-0.1-0.1-0.1,24.5c0,0-0.7,0.1,51.7,0.1l0,26.2
				c-54.1,0-51.9,0.2-51.9,0.2c0,25.7,0.2,25.3,0.2,25.3c0,3,2.5,5.3,5.5,5.3H857C860.1,165.3,862.6,167.7,862.6,170.7z"/>
			<path d="M1071.2,39.5v146.3c0,3.3-2.8,6-6.3,6h-26.5c-3.5,0-6.3-2.7-6.3-6l-0.4-92.9c0-5.9-35,43.9-35,43.9
				c-1.2,1.6-3.1,2.6-5.2,2.6h-12.9c-2.1,0-4-1-5.2-2.6c0,0-34.7-50.2-34.7-44.2l0.2,93.3c0,3.3-2.8,6-6.3,6h-26.5
				c-3.5,0-6.3-2.7-6.3-6V39.5c0-3.3,2.8-6,6.3-6h35.5c2.1,0,4,1,5.2,2.7l33.5,48.3c2.5,3.6,7.9,3.6,10.4,0l33.5-48.3
				c1.2-1.7,3.1-2.7,5.2-2.7h35.5C1068.4,33.4,1071.2,36.1,1071.2,39.5z"/>
			<path d="M1257.9,149.8c-3.9,9.3-9.4,17.3-16.5,24c-2.4,2.2-2.5,5.9-0.3,8.3l21.6,22.8c-39.5,0-41.7,0.3-41.7,0.3
				c-1.8,0-3.6-0.8-4.8-2.1l-7.1-8c-1.5-1.7-4-2.4-6.3-1.9c-6.8,1.5-14.2,2.2-22.2,2.2c-18.2,0-33.7-3.6-46.4-10.8
				c-12.7-7.2-22.2-17-28.6-29.5c-6.4-12.5-9.5-26.6-9.5-42.3c0-15.5,3.2-29.4,9.5-41.8c6.4-12.4,15.9-22.2,28.6-29.6
				s28.2-11,46.4-11c17.9,0,33.2,3.7,45.9,11c12.7,7.3,22.3,17.2,28.7,29.7c6.4,12.5,9.6,26.4,9.6,41.7
				C1265,126.3,1262.6,138.6,1257.9,149.8z M1147.5,149.7c7.7,9.3,18.7,13.9,33.2,13.9h0.4l-10.1-11.3c-3.5-3.9-0.6-10,4.7-10h26.8
				c1.8,0,3.5,0.8,4.7,2.1l0,0c2.8,3.1,7,5.8,9.2,2.2c1.8-3,4.2-9.4,5.4-12.9c2.2-6.5,3.3-13.6,3.3-21.4c0-9.6-1.7-18.2-5.2-25.7
				c-3.5-7.5-8.6-13.4-15.3-17.8c-6.7-4.3-14.7-6.5-23.9-6.5c-14.3,0-25.3,4.7-33,14c-7.7,9.3-11.6,21.5-11.6,36.6
				C1136,128.1,1139.9,140.4,1147.5,149.7z"/>
		</g>
		<g>
			<path d="M417.4,222.3h-24.7v68.5h-10.1v-68.5h-24.6V214h59.3V222.3z"/>
			<path d="M472.7,255.3h-33.3v27.2h38.6v8.3h-48.8V214h48.2v8.3h-38.1V247h33.3V255.3z"/>
			<path d="M513.8,256.5c-8.7-2.5-15-5.6-18.9-9.2c-4-3.6-5.9-8.1-5.9-13.5c0-6,2.4-11,7.2-15c4.8-4,11.1-5.9,18.8-5.9
				c5.3,0,10,1,14.1,3.1c4.1,2,7.3,4.8,9.6,8.4c2.3,3.6,3.4,7.5,3.4,11.8H532c0-4.7-1.5-8.3-4.4-11c-3-2.7-7.1-4-12.5-4
				c-5,0-8.9,1.1-11.7,3.3c-2.8,2.2-4.2,5.3-4.2,9.2c0,3.1,1.3,5.8,4,7.9c2.7,2.2,7.2,4.1,13.5,5.9c6.4,1.8,11.4,3.8,15,5.9
				c3.6,2.2,6.3,4.7,8,7.6c1.7,2.9,2.6,6.3,2.6,10.2c0,6.2-2.4,11.2-7.3,14.9c-4.8,3.7-11.3,5.6-19.4,5.6c-5.3,0-10.2-1-14.8-3
				s-8.1-4.8-10.6-8.3c-2.5-3.5-3.7-7.5-3.7-12h10.2c0,4.6,1.7,8.3,5.1,11s8,4,13.7,4c5.3,0,9.4-1.1,12.3-3.3
				c2.8-2.2,4.3-5.1,4.3-8.9c0-3.8-1.3-6.7-4-8.7C525.5,260.6,520.7,258.5,513.8,256.5z"/>
			<path d="M608.8,222.3h-24.7v68.5h-10.1v-68.5h-24.6V214h59.3V222.3z"/>
			<path d="M675.7,266.4c-0.9,8.1-3.9,14.4-9,18.8c-5,4.4-11.7,6.6-20.1,6.6c-9.1,0-16.3-3.2-21.8-9.8c-5.5-6.5-8.2-15.2-8.2-26.1
				v-7.4c0-7.1,1.3-13.4,3.8-18.8c2.5-5.4,6.2-9.6,10.8-12.5c4.7-2.9,10.1-4.3,16.2-4.3c8.2,0,14.7,2.3,19.6,6.8
				c4.9,4.6,7.8,10.8,8.6,18.9h-10.2c-0.9-6.1-2.8-10.6-5.7-13.3s-7-4.1-12.3-4.1c-6.5,0-11.5,2.4-15.2,7.2
				c-3.7,4.8-5.5,11.6-5.5,20.4v7.4c0,8.3,1.7,15,5.2,19.9c3.5,4.9,8.3,7.4,14.6,7.4c5.6,0,9.9-1.3,12.9-3.8c3-2.5,5-7,6-13.3H675.7
				z"/>
			<path d="M749.1,254.9c0,7.5-1.3,14.1-3.8,19.7c-2.5,5.6-6.1,9.9-10.8,12.8c-4.6,3-10,4.4-16.2,4.4c-6,0-11.4-1.5-16.1-4.5
				c-4.7-3-8.3-7.2-10.9-12.7c-2.6-5.5-3.9-11.9-4-19.1V250c0-7.4,1.3-13.9,3.8-19.6c2.6-5.7,6.2-10,10.9-13
				c4.7-3,10.1-4.5,16.1-4.5c6.1,0,11.6,1.5,16.3,4.5c4.7,3,8.3,7.3,10.8,12.9c2.5,5.6,3.8,12.2,3.8,19.7V254.9z M739,249.9
				c0-9.1-1.8-16.1-5.5-21c-3.7-4.9-8.8-7.3-15.3-7.3c-6.4,0-11.4,2.4-15.1,7.3c-3.7,4.9-5.6,11.6-5.7,20.3v5.6
				c0,8.8,1.9,15.8,5.6,20.8c3.7,5,8.8,7.6,15.3,7.6c6.5,0,11.6-2.4,15.2-7.1c3.6-4.8,5.4-11.6,5.5-20.5V249.9z"/>
			<path d="M823.8,290.7h-10.2L775,231.6v59.1h-10.2V214H775l38.7,59.4V214h10.1V290.7z"/>
			<path d="M893.8,222.3h-24.7v68.5h-10.1v-68.5h-24.6V214h59.3V222.3z"/>
			<path d="M943.9,270.7h-32.1l-7.2,20.1h-10.4l29.3-76.7h8.9l29.4,76.7h-10.4L943.9,270.7z M914.8,262.4h26.1l-13.1-35.9
				L914.8,262.4z"/>
			<path d="M983.4,290.7h-10.1V214h10.1V290.7z"/>
			<path d="M1061.4,290.7h-10.2l-38.6-59.1v59.1h-10.2V214h10.2l38.7,59.4V214h10.1V290.7z"/>
			<path d="M1123.3,255.3H1090v27.2h38.6v8.3h-48.8V214h48.2v8.3H1090V247h33.3V255.3z"/>
			<path d="M1169.9,259.7h-18v31h-10.2V214h25.4c8.6,0,15.3,2,19.9,5.9c4.7,3.9,7,9.7,7,17.2c0,4.8-1.3,8.9-3.9,12.5
				c-2.6,3.5-6.2,6.2-10.8,8l18,32.6v0.6h-10.9L1169.9,259.7z M1151.9,251.4h15.5c5,0,9-1.3,12-3.9c3-2.6,4.5-6.1,4.5-10.5
				c0-4.8-1.4-8.4-4.2-10.9c-2.8-2.5-6.9-3.8-12.3-3.9h-15.5V251.4z"/>
		</g>
		<g>
			<g>
				<circle class="st7" cx="158.8" cy="166.2" r="135.4"/>
				<path d="M158.7,313.4C77.8,313.4,12,247.6,12,166.7S77.8,20,158.7,20s146.7,65.8,146.7,146.7S239.6,313.4,158.7,313.4z
					 M158.7,32.4c-74.1,0-134.3,60.3-134.3,134.3S84.7,301,158.7,301S293,240.8,293,166.7S232.8,32.4,158.7,32.4z"/>
			</g>
			<g>
				<path class="st6" d="M247.7,220.6h-178c-5.2,0-9.5-4.3-9.5-9.5v-89.9c0-5.2,4.3-9.5,9.5-9.5h178c5.2,0,9.5,4.3,9.5,9.5v89.9
					C257.2,216.4,252.9,220.6,247.7,220.6z"/>
				<path d="M249.6,107.8h-1.9h-178h-2.3c-7.5,0-13.6,6.1-13.6,13.6v89.7c0,7.5,6.1,13.6,13.6,13.6h2.3h178h1.9
					c7.5,0,13.6-6.1,13.6-13.6v-89.7C263.2,113.9,257.1,107.8,249.6,107.8z M69.7,216.6c-3,0-5.5-2.5-5.5-5.5v-89.9
					c0-3,2.5-5.5,5.5-5.5h178c3,0,5.5,2.5,5.5,5.5v89.9c0,3-2.5,5.5-5.5,5.5H69.7z"/>
				<g>
					<path d="M87.9,202.3c-1.7,0-3-1.3-3-3v-65.6c0-1.7,1.3-3,3-3s3,1.3,3,3v65.6C90.9,200.9,89.6,202.3,87.9,202.3z"/>
					<path d="M123.3,202.3c-1.7,0-3-1.3-3-3v-65.6c0-1.7,1.3-3,3-3s3,1.3,3,3v65.6C126.3,200.9,125,202.3,123.3,202.3z"/>
					<path d="M159.3,202.3c-1.7,0-3-1.3-3-3v-65.6c0-1.7,1.3-3,3-3s3,1.3,3,3v65.6C162.3,200.9,161,202.3,159.3,202.3z"/>
					<path d="M194.1,202.3c-1.7,0-3-1.3-3-3v-65.6c0-1.7,1.3-3,3-3s3,1.3,3,3v65.6C197.1,200.9,195.8,202.3,194.1,202.3z"/>
					<path d="M229.5,202.3c-1.7,0-3-1.3-3-3v-65.6c0-1.7,1.3-3,3-3s3,1.3,3,3v65.6C232.5,200.9,231.2,202.3,229.5,202.3z"/>
				</g>
				<path d="M232.5,108.5c-6.4-3.3-62.5-32-74.9-32.4c0,0-0.1,0-0.1,0c0,0,0,0,0,0c-0.4,0-0.9,0-1.5,0.1
					c-15.3,1.7-70.3,29.4-76.8,32.7l8.2,5.3c19.8-10.8,51.5-26.9,64.9-31.1c2.1-0.6,3.7-0.9,4.6-1c0,0,0.1,0,0.1,0
					c0.1,0,0.2,0,0.3,0c7.7,0.3,44.2,19.1,66.9,31.7L232.5,108.5z"/>
				<path d="M173.1,63.8c-2.2,0-4,1.8-4,4c0,3.6-1.6,6.8-4.2,9c-0.4,0.2-0.7,0.4-1.1,0.7c-1.6,1-3,1.9-7.4,2.1
					c-6.1-0.5-10.9-5.5-10.9-11.7c0-4.7,2.8-8.9,7-10.8c2.2-1,6.2-3.2,8.6-6.1c0.9-1.2,2.2-3.2,2.3-5.2c0.1-7.1-0.1-13.8-0.1-13.8
					l-8.1,0.1c0,0,0.6,11.1-0.4,13.4c-0.9,2-4.7,3.4-6.7,4.1c-0.6,0.2-1.1,0.4-1.5,0.6c-7.4,3.3-12.2,10.3-12.2,17.8
					c0,10.9,8.9,19.8,19.8,19.8c0.7,0,1.4,0,2.1,0c0.3,0,0.6,0,0.9,0c10.9,0,19.8-8.9,19.8-19.8C177.1,65.6,175.3,63.8,173.1,63.8z"
					/>
			</g>
		</g>
	</g>
</g>
</svg>
