<?xml version="1.0" encoding="utf-8"?>
<!-- Generator: Adobe Illustrator 26.5.2, SVG Export Plug-In . SVG Version: 6.00 Build 0)  -->
<svg version="1.1" id="Logos" xmlns="http://www.w3.org/2000/svg" xmlns:xlink="http://www.w3.org/1999/xlink" x="0px" y="0px"
	 viewBox="0 0 1500 400" style="enable-background:new 0 0 1500 400;" xml:space="preserve">
<style type="text/css">
	.st0{fill:#FFC000;}
	.st1{fill:#FFFFFF;}
	.st2{fill-rule:evenodd;clip-rule:evenodd;}
	.st3{fill-rule:evenodd;clip-rule:evenodd;fill:#FFFFFF;}
	.st4{fill:none;}
	.st5{enable-background:new    ;}
</style>
<g>
	<path d="M529.5,33.1v146.2c0,3.3-2.8,6-6.3,6l-32.7-0.3c0-38.1,0-57.1,0-57.2c0-3.3-2.8-6-6.3-6H432c-3.5,0-6.3,2.7-6.3,6
		l-0.2,57.2c-31.2,0-32.6,0.3-32.6,0.3c-3.5,0-6.3-2.7-6.3-6V33.1c0-3.3,2.8-6,6.3-6l32.6,0.2c0,55.2,0.2,56.4,0.2,56.4
		c0,3.3,2.8,6,6.3,6h52.3c3.5,0,6.3-2.7,6.3-6l-0.1-56.5c36.5,0,32.8-0.1,32.8-0.1C526.7,27.1,529.5,29.8,529.5,33.1z"/>
	<path d="M569.7,45.4h23.5c3.1,0,5.5,2.4,5.5,5.3v129.5c0,2.9-2.5,5.4-5.5,5.4h-23.5c-3.1,0-5.5-2.4-5.5-5.4V50.7
		C564.1,47.8,566.6,45.4,569.7,45.4L569.7,45.4z"/>
	<path d="M762.9,52.5l-47,131.2c-0.8,2.2-2.9,3.6-5.2,3.6h-35.8c-2.4,0-4.5-1.4-5.2-3.6L622.4,52.5c-1.2-3.5,1.4-7.1,5.2-7.1h23.7
		c2.4,0,4.5,1.5,5.3,3.7l30.9,88.7c1.7,4.9,8.8,4.9,10.5,0l30.7-88.7c0.8-2.2,2.9-3.7,5.3-3.7h23.7C761.5,45.4,764.1,49,762.9,52.5
		L762.9,52.5z"/>
	<path d="M883.7,164.3v15.9c0,2.9-2.5,5.4-5.5,5.4h-86c-3.1,0-5.5-2.4-5.5-5.4V50.7c0-3,2.5-5.3,5.5-5.3h85c3.1,0,5.5,2.4,5.5,5.3
		v15.9c0,2.9-2.5,5.3-5.5,5.3h-50.5c-3.1,0-5.5,2.4-5.5,5.3c0,0-0.1-0.1-0.1,24.5c0,0-0.7,0.1,51.7,0.1l0,26.2
		c-54.1,0-51.9,0.2-51.9,0.2c0,25.7,0.2,25.3,0.2,25.3c0,2.9,2.5,5.4,5.5,5.4h51.5C881.2,159,883.7,161.4,883.7,164.3L883.7,164.3z"
		/>
	<path d="M1092.3,33.1v146.2c0,3.3-2.8,6-6.3,6h-26.5c-3.5,0-6.3-2.7-6.3-6l-0.4-92.9c0-5.9-35,43.9-35,43.9
		c-1.2,1.6-3.1,2.6-5.2,2.6h-12.9c-2.1,0-4-1-5.2-2.6c0,0-34.7-50.2-34.7-44.2l0.2,93.3c0,3.3-2.8,6-6.3,6h-26.5
		c-3.5,0-6.3-2.7-6.3-6V33.1c0-3.3,2.8-6,6.3-6h35.5c2.1,0,4,1,5.2,2.7l33.5,48.3c2.5,3.6,7.9,3.6,10.4,0l33.4-48.3
		c1.2-1.7,3.1-2.7,5.2-2.7h35.5C1089.5,27.1,1092.3,29.8,1092.3,33.1L1092.3,33.1z"/>
	<path d="M1279,143.4c-3.9,9.3-9.4,17.3-16.5,24c-2.4,2.2-2.5,5.9-0.3,8.3l21.6,22.8c-39.5,0-41.7,0.3-41.7,0.3
		c-1.8,0-3.6-0.8-4.8-2.1l-7.1-8c-1.5-1.7-4-2.4-6.3-1.9c-6.8,1.5-14.2,2.2-22.2,2.2c-18.2,0-33.7-3.6-46.4-10.8
		c-12.7-7.2-22.2-17-28.6-29.4c-6.4-12.5-9.5-26.6-9.5-42.3s3.2-29.4,9.5-41.8c6.3-12.4,15.9-22.2,28.6-29.6s28.2-11,46.4-11
		s33.2,3.7,45.9,11s22.3,17.2,28.7,29.7c6.4,12.5,9.6,26.4,9.6,41.7C1286,120,1283.7,132.3,1279,143.4L1279,143.4z M1168.6,143.3
		c7.7,9.3,18.7,13.9,33.2,13.9h0.4l-10.1-11.3c-3.5-3.9-0.6-10,4.7-10h26.8c1.8,0,3.5,0.8,4.7,2.1l0,0c2.8,3.1,7.1,5.8,9.2,2.2
		c1.8-3,4.2-9.4,5.4-12.9c2.2-6.5,3.2-13.6,3.2-21.4c0-9.6-1.7-18.2-5.2-25.7c-3.5-7.5-8.6-13.4-15.3-17.8
		c-6.7-4.3-14.7-6.5-23.9-6.5c-14.3,0-25.3,4.7-33,14c-7.7,9.3-11.6,21.5-11.6,36.6S1160.9,134,1168.6,143.3L1168.6,143.3z"/>
</g>
<g>
	<path d="M175.9,379.5c-1.4-0.6-33.5-15.6-49.4-27.8c-1.7-1.3-3.8-2.9-6.2-4.6l-0.1-0.1c-19.2-14.4-54.8-41-71.4-69.9
		c-10.5-18.1-9.9-37.6-9.7-41.3l1.2-192.5l87.8-15.3l52.7-9.2l52.7,9.2l87.8,15.3l1.2,192.6c0.2,3.6,0.7,23.1-9.7,41.2
		c-16.2,28.1-49.7,52.8-69.8,67.5c-3.1,2.3-5.8,4.3-7.9,5.9c-15.9,12.2-47.7,28.2-49,28.8l-5.1,2.5L175.9,379.5L175.9,379.5z
		 M46.1,235.4c-0.2,3.5-0.7,21.5,8.9,38.1c15.9,27.5,50.5,53.4,69,67.4l0.1,0.1c2.3,1.8,4.4,3.3,6.1,4.6
		c15.4,11.8,46.4,26.2,47.8,26.9l2.9,1.4l2.9-1.5c1.3-0.7,32.2-16.2,47.5-27.9c2.1-1.6,4.8-3.6,7.8-5.8c19.4-14.3,52-38.3,67.4-65.1
		c9.6-16.7,9.1-34.6,8.9-38l-1.2-185.8L223,33.7l-42.4-6.9l-41.8,6.9L47.3,49.6L46.1,235.4L46.1,235.4z"/>
	<path d="M179.9,39l28.6,3.8L304,59.5l1.1,175c0,0,1.3,17.6-7.8,33.4c-16.7,29-56.8,56.8-71.3,68s-45.1,25.3-45.1,25.3L179.9,39
		L179.9,39z"/>
	<path class="st0" d="M180.9,361.6l-0.2-0.1c0,0-30.8-14.3-45.2-25.4c-1.7-1.3-3.7-2.8-6.1-4.6c-17.7-13.2-50.6-37.9-65.3-63.5
		c-9.1-15.8-7.9-33.5-7.8-33.6l1.1-175.3l123.3-20.2c0,0,0.6,322.4,0.3,322.6L180.9,361.6L180.9,361.6z"/>
	<g>
		<path class="st0" d="M180.7,104.4c-40.2,0-72.9,32.7-72.9,72.9s32.7,72.9,72.9,72.9s72.9-32.7,72.9-72.9S220.9,104.4,180.7,104.4
			L180.7,104.4L180.7,104.4z"/>
		<path class="st1" d="M180.7,97.4c-44,0-79.8,35.8-79.8,79.8s35.8,79.8,79.8,79.8s79.8-35.8,79.8-79.8S224.7,97.4,180.7,97.4
			L180.7,97.4L180.7,97.4z M180.7,264.4c-48.1,0-87.2-39.1-87.2-87.2s39.1-87.2,87.2-87.2s87.2,39.1,87.2,87.2
			S228.8,264.4,180.7,264.4L180.7,264.4L180.7,264.4z"/>
		<path class="st2" d="M173.7,211.8c2.2,2.3,4,4.4,7.3,10.4c3.4-6,5.1-8.1,7.3-10.4H173.7L173.7,211.8z M197.5,183
			c-5-3.6-10.5-7.3-16.5-10.8c-6,3.5-11.5,7.1-16.5,10.8c-1,2.9-1.4,5.9-1.3,8.9h35.6C199,188.9,198.5,185.8,197.5,183L197.5,183
			L197.5,183z M193.2,152.1c-5-2.3-7.9-7.8-7-13.2C191.1,141.2,194,146.7,193.2,152.1L193.2,152.1z M168.8,152.1
			c-0.9-5.4,2-10.9,7-13.2C176.7,144.3,173.8,149.8,168.8,152.1L168.8,152.1z M219.1,171.4c-0.8,0.8-0.9,2.1-0.1,2.9l0.3,0.3
			c11.8-10.1,18.9-17.9,15.4-24c-3.9-5.4-20.3-2.9-40.5,6.2c1-2.1,1.5-4.3,1.5-6.5c0-0.8-0.1-1.7-0.2-2.5c-0.5-2.9-1.8-5.7-4.1-7.9
			c-1.2-1.2-2.6-2.2-4.1-2.9l0.1-0.2h0l1.6-3.4c0.2-0.5,0-1.2-0.5-1.4s-1.2,0-1.4,0.5l-1.7,3.6c-2.8-0.9-5.8-0.9-8.6,0l-1.7-3.6
			c-0.2-0.5-0.9-0.8-1.4-0.5s-0.8,0.9-0.5,1.4l1.5,3.2l0.1,0.3c-1.5,0.7-2.9,1.7-4.1,2.9c-2.9,2.9-4.4,6.8-4.3,10.6
			c0,2.1,0.5,4.2,1.4,6.1c-5.2-2.3-34.1-14.3-39.9-6.1c-5.3,7.4,10.9,20.4,15.3,24.1l0.3-0.3c0.8-0.8,0.7-2.1-0.1-2.9
			c-2.1-2-5.5-5.3-7.8-8.5c-3.1-4.2-3.1-6.7-1.7-8.1c4.6-4.3,21.7,1.4,27,3.4c5.1,1.9,10.6,4.4,16.2,7.4
			c-27.1,15.7-45.5,34.4-41.1,42c2.7,4.7,14.1,4.1,28.6-1l-0.5-0.9c-0.5-0.8-1.4-1.2-2.4-0.9c-10.1,3.1-16.4,4.5-18.6,1.3
			c-3-5.2,12.4-23.4,36.3-37.2l1.8-1c0.6,0.3,1.2,0.7,1.8,1c23.9,13.8,39.3,31.9,36.3,37.2c-2.2,3.2-8.5,1.8-18.6-1.3
			c-0.9-0.3-1.9,0.1-2.4,0.9l-0.5,0.9c14.6,5.1,25.9,5.8,28.6,1c4.3-7.5-14.1-26.3-41.1-42c19.1-10.1,36.2-14.5,42.5-11.3
			C233.5,157.1,223.5,167.1,219.1,171.4L219.1,171.4L219.1,171.4z M164.2,198.1c0.8,2.7,2.1,5.2,3.8,7.4h26c1.8-2.2,3-4.7,3.8-7.4
			H164.2L164.2,198.1z"/>
		<path class="st3" d="M168.8,152.1c-0.9-5.4,2-10.9,7-13.2C176.7,144.3,173.8,149.8,168.8,152.1L168.8,152.1z"/>
		<path class="st3" d="M143.8,173.2c0,0,0.4-1-0.6-2c-4.5-4.2-14.4-14.3-8.8-17.1c6.3-3.2,23.5,1.4,42.6,11.4
			c-9.6,5.6-16.2,10.2-23.2,15.8C146.2,175.7,144.8,174.4,143.8,173.2L143.8,173.2L143.8,173.2z"/>
		<path class="st3" d="M219.2,206.1c-2.2,3.2-8.5,1.8-18.6-1.3c-0.5-0.1-0.9-0.1-1.3,0c3.1-4.5,3.8-12.7,2.7-18.7c0,0,0-0.1,0-0.1
			c0,0,0,0,0,0c-0.3-2.4-0.8-4.2-1.4-5C214,191.8,221.4,202.3,219.2,206.1L219.2,206.1L219.2,206.1z"/>
		<path class="st3" d="M208.6,181.4c-6.8-5.7-13.7-10.3-23.3-15.9c19.1-10.1,36.2-14.5,42.5-11.3c5.7,2.9-4.3,12.9-8.8,17.1
			c-0.8,0.8-0.6,1.1-0.6,2C217.5,174.5,216.3,175.8,208.6,181.4L208.6,181.4L208.6,181.4z"/>
		<path class="st3" d="M161.8,180.8c-0.6,0.8-1.1,2.7-1.4,5c0,0,0,0,0,0c0,0,0,0.1,0,0.1c-1.1,6-0.4,14.2,2.7,18.7
			c-0.4-0.2-0.9-0.2-1.3,0c-10.1,3.1-16.4,4.5-18.6,1.3C140.9,202.1,148.4,191.6,161.8,180.8L161.8,180.8L161.8,180.8z"/>
		<path class="st3" d="M193.2,152.1c-5-2.3-7.9-7.8-7-13.2C191.2,141.2,194,146.7,193.2,152.1L193.2,152.1z"/>
		<path class="st4" d="M100.9,177.2c0,44,35.8,79.8,79.8,79.8c0.1,0,0.1,0,0.2,0v-6.9c-0.1,0-0.1,0-0.2,0
			c-40.2,0-72.9-32.7-72.9-72.9s32.7-72.9,72.9-72.9c0.1,0,0.1,0,0.2,0v-6.9c-0.1,0-0.1,0-0.2,0C136.7,97.4,100.9,133.2,100.9,177.2
			z"/>
	</g>
</g>
<g class="st5">
	<path d="M421,255.1h-25.1v25.2h29.3v7.7h-38.2v-71.1h37.7v7.7h-28.8v22.9H421V255.1z"/>
</g>
<g class="st5">
	<path d="M483,288h-9l-28.5-54.8V288h-9v-71.1h9l28.6,55v-55h8.9V288z"/>
</g>
<g class="st5">
	<path d="M538.6,224.6h-18.7V288H511v-63.4h-18.7v-7.7h46.3V224.6z"/>
	<path d="M583.2,255.1h-25.1v25.2h29.3v7.7h-38.2v-71.1h37.7v7.7h-28.8v22.9h25.1V255.1z"/>
	<path d="M620.3,259.2h-12.5V288h-9v-71.1h19.9c7,0,12.2,1.8,15.8,5.4c3.6,3.6,5.4,8.9,5.4,15.9c0,4.4-1,8.2-2.9,11.5
		c-1.9,3.3-4.7,5.7-8.2,7.4l13.8,30.2v0.6h-9.6L620.3,259.2z M607.8,251.6h10.8c3.7,0,6.7-1.2,9-3.6c2.2-2.4,3.3-5.6,3.3-9.7
		c0-9.1-4.1-13.7-12.4-13.7h-10.7V251.6z"/>
	<path d="M660.8,260.1V288h-8.9v-71.1h22.7c6.6,0,11.8,2,15.6,5.9c3.8,4,5.7,9.2,5.7,15.8c0,6.8-1.8,12.1-5.4,15.8
		c-3.6,3.7-8.7,5.6-15.2,5.7H660.8z M660.8,252.5h13.7c4,0,7-1.2,9.1-3.6c2.1-2.4,3.2-5.8,3.2-10.2c0-4.3-1.1-7.7-3.3-10.3
		c-2.2-2.6-5.2-3.9-9-3.9h-13.8V252.5z"/>
	<path d="M728.8,259.2h-12.5V288h-9v-71.1h19.9c7,0,12.2,1.8,15.8,5.4c3.6,3.6,5.4,8.9,5.4,15.9c0,4.4-1,8.2-2.9,11.5
		c-1.9,3.3-4.7,5.7-8.2,7.4l13.8,30.2v0.6h-9.6L728.8,259.2z M716.3,251.6h10.8c3.7,0,6.7-1.2,9-3.6c2.2-2.4,3.3-5.6,3.3-9.7
		c0-9.1-4.1-13.7-12.4-13.7h-10.7V251.6z"/>
	<path d="M769.7,288h-8.9v-71.1h8.9V288z"/>
	<path d="M816.4,270c0-3.5-1-6.3-2.9-8.2c-1.9-1.9-5.4-3.7-10.4-5.5c-5-1.8-8.8-3.7-11.5-5.6c-2.7-2-4.6-4.2-6-6.7
		c-1.3-2.5-2-5.4-2-8.7c0-5.6,1.9-10.3,5.6-13.9s8.7-5.5,14.8-5.5c4.2,0,7.9,0.9,11.1,2.8c3.3,1.9,5.8,4.4,7.5,7.8
		c1.8,3.3,2.6,7,2.6,10.9h-9c0-4.4-1.1-7.8-3.2-10.2c-2.1-2.4-5.2-3.6-9.1-3.6c-3.6,0-6.4,1-8.4,3c-2,2-3,4.9-3,8.5
		c0,3,1.1,5.5,3.2,7.5s5.5,3.8,10,5.4c7,2.3,12,5.2,15,8.6c3,3.4,4.5,7.8,4.5,13.3c0,5.8-1.9,10.4-5.6,13.8
		c-3.7,3.5-8.8,5.2-15.3,5.2c-4.1,0-8-0.9-11.5-2.7c-3.5-1.8-6.2-4.3-8.3-7.6s-3-7-3-11.3h9c0,4.4,1.2,7.8,3.7,10.3
		c2.5,2.4,5.8,3.7,10,3.7c3.9,0,6.9-1,8.9-3C815.4,276.2,816.4,273.5,816.4,270z"/>
	<path d="M871.2,255.1h-25.1v25.2h29.3v7.7h-38.2v-71.1h37.7v7.7h-28.8v22.9h25.1V255.1z"/>
	<path d="M940.8,270c0-3.5-1-6.3-2.9-8.2c-1.9-1.9-5.4-3.7-10.4-5.5c-5-1.8-8.8-3.7-11.5-5.6c-2.7-2-4.6-4.2-6-6.7
		c-1.3-2.5-2-5.4-2-8.7c0-5.6,1.9-10.3,5.6-13.9s8.7-5.5,14.8-5.5c4.2,0,7.9,0.9,11.1,2.8c3.3,1.9,5.8,4.4,7.5,7.8
		c1.8,3.3,2.6,7,2.6,10.9h-9c0-4.4-1.1-7.8-3.2-10.2c-2.1-2.4-5.2-3.6-9.1-3.6c-3.6,0-6.4,1-8.4,3c-2,2-3,4.9-3,8.5
		c0,3,1.1,5.5,3.2,7.5s5.5,3.8,10,5.4c7,2.3,12,5.2,15,8.6c3,3.4,4.5,7.8,4.5,13.3c0,5.8-1.9,10.4-5.6,13.8
		c-3.7,3.5-8.8,5.2-15.3,5.2c-4.1,0-8-0.9-11.5-2.7c-3.5-1.8-6.2-4.3-8.3-7.6s-3-7-3-11.3h9c0,4.4,1.2,7.8,3.7,10.3
		c2.5,2.4,5.8,3.7,10,3.7c3.9,0,6.9-1,8.9-3C939.8,276.2,940.8,273.5,940.8,270z"/>
	<path d="M995.6,255.1h-25.1v25.2h29.3v7.7h-38.2v-71.1h37.7v7.7h-28.8v22.9h25.1V255.1z"/>
	<path d="M1055.8,265.4c-0.4,7.6-2.5,13.5-6.4,17.5c-3.9,4.1-9.4,6.1-16.5,6.1c-7.1,0-12.8-2.7-17-8.1s-6.3-12.8-6.3-22v-12.9
		c0-9.2,2.2-16.6,6.5-21.9c4.3-5.4,10.2-8.1,17.7-8.1c6.9,0,12.2,2.1,15.9,6.2s5.8,10,6.1,17.6h-9c-0.4-5.8-1.6-9.9-3.7-12.4
		s-5.2-3.7-9.4-3.7c-4.9,0-8.6,1.9-11.2,5.7c-2.6,3.8-3.9,9.4-3.9,16.7v13c0,7.2,1.2,12.7,3.6,16.6c2.4,3.8,6,5.8,10.6,5.8
		c4.7,0,8-1.2,10.1-3.5s3.3-6.5,3.8-12.5H1055.8z"/>
	<path d="M1110.2,216.9v50.5c-0.1,6.7-2,12-5.9,15.8c-3.8,3.8-9.2,5.7-16.1,5.7c-7,0-12.4-1.9-16.1-5.6c-3.7-3.7-5.6-9-5.7-15.9
		v-50.5h8.9V267c0,4.8,1,8.4,3.1,10.7c2,2.4,5.3,3.5,9.8,3.5c4.6,0,7.9-1.2,9.9-3.5c2-2.4,3.1-5.9,3.1-10.7v-50.2H1110.2z"/>
	<path d="M1145.5,259.2H1133V288h-9v-71.1h19.9c7,0,12.2,1.8,15.8,5.4c3.6,3.6,5.4,8.9,5.4,15.9c0,4.4-1,8.2-2.9,11.5
		c-1.9,3.3-4.7,5.7-8.2,7.4l13.8,30.2v0.6h-9.6L1145.5,259.2z M1133,251.6h10.8c3.7,0,6.7-1.2,9-3.6c2.2-2.4,3.3-5.6,3.3-9.7
		c0-9.1-4.1-13.7-12.4-13.7H1133V251.6z"/>
</g>
<g class="st5">
	<path d="M1186.4,288h-8.9v-71.1h8.9V288z"/>
</g>
<g class="st5">
	<path d="M1242.2,224.6h-18.7V288h-8.9v-63.4h-18.7v-7.7h46.3V224.6z"/>
</g>
<g class="st5">
	<path d="M1272,252.6l14.6-35.7h10.1l-20.2,44.6V288h-8.9v-26.5l-20.2-44.6h10.2L1272,252.6z"/>
</g>
<g class="st5">
	<path d="M421,350.1h-25.1v25.2h29.3v7.7h-38.2v-71.1h37.7v7.7h-28.8v22.9H421V350.1z"/>
	<path d="M456.5,339.1l13.4-27.2h10.5l-18.5,35.3l18.9,35.8h-10.6l-13.7-27.7L442.8,383h-10.6l19-35.8l-18.6-35.3h10.4L456.5,339.1z
		"/>
	<path d="M533.2,319.6h-18.7V383h-8.9v-63.4h-18.7v-7.7h46.3V319.6z"/>
	<path d="M577.8,350.1h-25.1v25.2h29.3v7.7h-38.2v-71.1h37.7v7.7h-28.8v22.9h25.1V350.1z"/>
	<path d="M639.8,383h-9l-28.5-54.8V383h-9v-71.1h9l28.6,55v-55h8.9V383z"/>
	<path d="M686.3,365c0-3.5-1-6.3-2.9-8.2c-1.9-1.9-5.4-3.7-10.4-5.5c-5-1.8-8.8-3.7-11.5-5.6c-2.7-2-4.6-4.2-6-6.7
		c-1.3-2.5-2-5.4-2-8.7c0-5.6,1.9-10.3,5.6-13.9s8.7-5.5,14.8-5.5c4.2,0,7.9,0.9,11.1,2.8c3.3,1.9,5.8,4.4,7.5,7.8
		c1.8,3.3,2.6,7,2.6,10.9h-9c0-4.4-1.1-7.8-3.2-10.2c-2.1-2.4-5.2-3.6-9.1-3.6c-3.6,0-6.4,1-8.4,3c-2,2-3,4.9-3,8.5
		c0,3,1.1,5.5,3.2,7.5s5.5,3.8,10,5.4c7,2.3,12,5.2,15,8.6c3,3.4,4.5,7.8,4.5,13.3c0,5.8-1.9,10.4-5.6,13.8
		c-3.7,3.5-8.8,5.2-15.3,5.2c-4.1,0-8-0.9-11.5-2.7c-3.5-1.8-6.2-4.3-8.3-7.6s-3-7-3-11.3h9c0,4.4,1.2,7.8,3.7,10.3
		c2.5,2.4,5.8,3.7,10,3.7c3.9,0,6.9-1,8.9-3C685.3,371.2,686.3,368.5,686.3,365z"/>
	<path d="M716.4,383h-8.9v-71.1h8.9V383z"/>
	<path d="M778.3,353.7c0,9.7-2.1,17.2-6.2,22.4c-4.1,5.2-10,7.9-17.6,7.9c-7.3,0-13.1-2.5-17.4-7.6c-4.2-5.1-6.5-12.3-6.6-21.6
		v-13.4c0-9.5,2.1-17,6.3-22.3c4.2-5.4,10.1-8.1,17.6-8.1c7.5,0,13.3,2.6,17.5,7.7c4.2,5.2,6.3,12.5,6.4,22.1V353.7z M769.4,341.2
		c0-7.5-1.2-13.1-3.7-16.8c-2.5-3.7-6.2-5.5-11.3-5.5c-4.9,0-8.6,1.9-11.2,5.6c-2.5,3.7-3.8,9.2-3.8,16.4v12.7
		c0,7.3,1.3,12.8,3.8,16.6c2.5,3.8,6.3,5.7,11.3,5.7c5,0,8.7-1.8,11.1-5.3c2.4-3.5,3.7-8.9,3.8-16.2V341.2z"/>
	<path d="M838.6,383h-9l-28.5-54.8V383h-9v-71.1h9l28.6,55v-55h8.9V383z"/>
</g>
</svg>
