<svg id="Icon" xmlns="http://www.w3.org/2000/svg" viewBox="0 0 200 200"><defs><style>.cls-1{fill:none;stroke:#fff;stroke-miterlimit:10;stroke-width:4.25px}</style></defs><path class="cls-1" d="M169.09 114.48v56.43A13.13 13.13 0 0 1 156 184H37.09A13.13 13.13 0 0 1 24 170.91V29.09A13.13 13.13 0 0 1 37.09 16H156a13.13 13.13 0 0 1 13.09 13.09v33.39M45 78.18h32.36M45 48.73h30.36M45 107.64h34M45 137.09h29"/><path class="cls-1" d="M166 78l-50.36 64.91L96 124l-10.91 2.27 30.55 31.64L184 80l-18-2z"/><ellipse class="cls-1" cx="119.06" cy="45.26" rx="13.82" ry="13.26"/><path class="cls-1" d="M132 65.6h-25.85c-7.09 0-12.9 5-12.9 11.2V88h51.61V76.8c0-6.16-5.8-11.2-12.86-11.2z"/></svg>