<?xml version="1.0" encoding="UTF-8"?>
<svg id="Ebene_1" data-name="Ebene 1" xmlns="http://www.w3.org/2000/svg" viewBox="0 0 275 275">
  <defs>
    <style>
      .cls-1 {
        fill: #fcbe0e;
        stroke: #fff;
        stroke-miterlimit: 10;
        stroke-width: 4px;
      }
    </style>
  </defs>
  <circle cx="135.19" cy="138.96" r="120"/>
  <path class="cls-1" d="M242.93,145.45l-36.97-36.97v22.18c-20.82,1.3-39.57,10.3-53.46,24.18V80.9h21.97l-36.97-36.97-36.97,36.97h21.97v55.96c10.19,7.01,18.92,16,25.63,26.41,.09,.14,.18,.29,.28,.44,.38,.6,.75,1.2,1.12,1.8,.15,.25,.3,.5,.44,.74,.31,.52,.61,1.04,.91,1.56,.15,.27,.3,.54,.45,.81,.3,.54,.6,1.09,.89,1.64,4.16,7.89,7.23,16.43,8.99,25.45,6.79-18.93,24.04-32.92,44.75-34.95v21.67l36.97-36.97Z"/>
  <path class="cls-1" d="M75.08,131.67v-22.19l-36.97,36.97,36.97,36.97v-21.68c26.82,2.63,47.85,25.31,47.85,52.81h30c0-43.9-34.23-79.94-77.41-82.86-.15-.01-.3-.02-.44-.03Z"/>
</svg>