<svg id="Ebene_1" data-name="Ebene 1" xmlns="http://www.w3.org/2000/svg" viewBox="0 0 250 123"><g id="Robot"><path d="M61.66,109l2-8.4-9.54-9.54a3,3,0,0,1,0-4.29A2.79,2.79,0,0,1,55.82,86l8.28-8.28a2.87,2.87,0,0,1,4.06,0,2.79,2.79,0,0,1,.83,2.2l4.29,3.7H79l1.72,7.51-.77.36-3.16-4.59h-2.5a2.83,2.83,0,0,1-.54.89,2.42,2.42,0,0,1-1.07.6V90.9l4.59,3.16-.3.77-7.57-1.78L70,87.74l-3.57-4.17-5.55,5.54,7.75,7.75h1.91L73.4,109H61.66Z" style="fill:#ffc000;stroke:#000;stroke-linecap:round;stroke-linejoin:round;stroke-width:0.708661437034607px"/></g><path d="M71.73,84.64h.18a.46.46,0,0,1,.3.12h.06a.83.83,0,0,1,.24.18l.06.06a1.31,1.31,0,0,1,.18.3v.06a.7.7,0,0,1,.06.35,1.08,1.08,0,0,1-1.08,1.08h-.06c-.12,0-.24,0-.29-.06h-.06c-.12-.06-.18-.12-.3-.18L71,86.49a.83.83,0,0,1-.18-.24v-.06c-.06-.12-.12-.18-.12-.3v-.24A1.06,1.06,0,0,1,71.73,84.64Z" style="fill-rule:evenodd"/><path d="M66,78.8a1.25,1.25,0,1,1-1.25,1.25A1.19,1.19,0,0,1,66,78.8Z" style="fill-rule:evenodd"/><path d="M56.65,90.72a1.61,1.61,0,1,1,1.61-1.61A1.6,1.6,0,0,1,56.65,90.72Z" style="fill-rule:evenodd"/><path d="M67,101.45a1.25,1.25,0,1,1,1.26-1.25A1.23,1.23,0,0,1,67,101.45Z" style="fill-rule:evenodd"/><path d="M76.2,116.65H58.38a1.13,1.13,0,0,1-1.13-1.13l.59-2.86A1.14,1.14,0,0,1,59,111.52H75.55a1.14,1.14,0,0,1,1.13,1.14l.6,2.86A1.05,1.05,0,0,1,76.2,116.65Z" style="fill:#003e6e;stroke:#000;stroke-miterlimit:10;stroke-width:0.708661437034607px"/><path d="M44.88,57.53H8.47L6.81,59.25a30.08,30.08,0,0,1,4.56,1.29,10.93,10.93,0,0,1,4.08,4.26H38.53A4.65,4.65,0,0,1,40,61.93c1.42-1.46,6.67-2.18,6.67-2.18Z" style="fill:#003e6e;stroke:#000;stroke-linecap:round;stroke-linejoin:round;stroke-width:0.708661437034607px"/><path d="M45.22,57.81h3.06a1.07,1.07,0,0,0,1.07-1.07A3.73,3.73,0,0,0,45.61,53H44a1.61,1.61,0,0,0-1.55,1.23" style="fill:none;stroke:#000;stroke-miterlimit:10;stroke-width:0.708661437034607px"/><path d="M16.93,48.21c-2,0-5.18,4.39-6,6a20.19,20.19,0,0,1-2.75,3.57A6.91,6.91,0,0,0,5.6,63.14V75.4A1.6,1.6,0,0,0,7.2,77H12a1.6,1.6,0,0,0,1.6-1.6V73.27H39.75V75.4a1.6,1.6,0,0,0,1.6,1.6h4.8a1.6,1.6,0,0,0,1.6-1.6V63.14a7,7,0,0,0-2.53-5.33,20,20,0,0,1-2.76-3.57c-.86-1.64-4.06-6-6.05-6Z" style="fill:none;stroke:#000;stroke-miterlimit:10;stroke-width:0.708661437034607px"/><path d="M8.13,57.81H5.07A1.07,1.07,0,0,1,4,56.74,3.73,3.73,0,0,1,7.73,53h1.6a1.59,1.59,0,0,1,1.55,1.23" style="fill:none;stroke:#000;stroke-miterlimit:10;stroke-width:0.708661437034607px"/><path d="M39,63.22c1.5-2.42,3.35-3.29,7.28-3.47" style="fill:none;stroke:#000;stroke-linecap:square;stroke-linejoin:round;stroke-width:0.708661437034607px"/><path d="M7.06,59.75c3.93.18,5.77,1,7.27,3.47" style="fill:none;stroke:#000;stroke-linecap:square;stroke-linejoin:round;stroke-width:0.708661437034607px"/><path d="M14.38,63.32l-1.07.83a4.39,4.39,0,0,1-2.72.95,4.28,4.28,0,0,1-1-.11l-3.94-.87v6.34h0a2.81,2.81,0,0,0,2.81,2.81h5.06L14,72.5a5,5,0,0,1,4-2H35.28a5,5,0,0,1,4,2l.56.77h5.06a2.81,2.81,0,0,0,2.81-2.81h0V64.12L43.77,65a4.43,4.43,0,0,1-1,.11A4.36,4.36,0,0,1,40,64.15L39,63.32C38.64,63.69,14.7,63.69,14.38,63.32Z" style="fill:#003e6e;stroke:#000;stroke-linecap:round;stroke-linejoin:round;stroke-width:0.708661437034607px"/><path d="M68.16,49.66a8.94,8.94,0,0,1-9.08-8.78,8.73,8.73,0,0,1,3.59-7l.8-.6v-11h9.38v11l.81.6a8.76,8.76,0,0,1,3.59,7A9,9,0,0,1,68.16,49.66Z" style="fill:#ffc000;stroke:#000;stroke-miterlimit:10;stroke-width:0.708661437034607px"/><path d="M68.16,51.65A10.94,10.94,0,0,1,57.09,40.88a10.71,10.71,0,0,1,4.4-8.59v-20A5.45,5.45,0,0,1,67,7h2.33a5.44,5.44,0,0,1,5.5,5.36v20a10.68,10.68,0,0,1,4.4,8.59A10.93,10.93,0,0,1,68.16,51.65Z" style="fill:none;stroke:#000;stroke-miterlimit:10;stroke-width:0.708661437034607px"/><line x1="67.19" y1="30.82" x2="74.9" y2="30.82" style="fill:none;stroke:#000;stroke-miterlimit:10;stroke-width:0.708661437034607px"/><line x1="67.19" y1="25.15" x2="74.9" y2="25.15" style="fill:none;stroke:#000;stroke-miterlimit:10;stroke-width:0.708661437034607px"/><line x1="67.19" y1="19.47" x2="74.9" y2="19.47" style="fill:none;stroke:#000;stroke-miterlimit:10;stroke-width:0.708661437034607px"/><line x1="67.19" y1="13.8" x2="74.9" y2="13.8" style="fill:none;stroke:#000;stroke-miterlimit:10;stroke-width:0.708661437034607px"/><path d="M68.16,51.65A10.94,10.94,0,0,1,57.09,40.88a10.71,10.71,0,0,1,4.4-8.59v-20A5.45,5.45,0,0,1,67,7h2.33a5.44,5.44,0,0,1,5.5,5.36v20a10.68,10.68,0,0,1,4.4,8.59A10.93,10.93,0,0,1,68.16,51.65Z" style="fill:none;stroke:#000;stroke-miterlimit:10;stroke-width:0.708661437034607px"/><line x1="93.03" y1="64.13" x2="92.75" y2="64.13" style="fill:none;stroke:#999;stroke-linecap:round;stroke-linejoin:round;stroke-width:1.41732287406921px"/><line x1="89.87" y1="64.13" x2="56.78" y2="64.13" style="fill:none;stroke:#999;stroke-linecap:round;stroke-linejoin:round;stroke-width:1.41732287406921px;stroke-dasharray:0.5753920674324036,2.876960277557373"/><line x1="55.34" y1="64.13" x2="55.06" y2="64.13" style="fill:none;stroke:#999;stroke-linecap:round;stroke-linejoin:round;stroke-width:1.41732287406921px"/><polygon points="92.51 62.37 95.57 64.13 92.51 65.9 92.51 62.37" style="fill:#999"/><polygon points="52.56 64.13 56.09 62.69 55.25 64.13 56.09 65.57 52.56 64.13" style="fill:#999"/><line x1="97.15" y1="39.89" x2="96.92" y2="39.73" style="fill:none;stroke:#999;stroke-linecap:round;stroke-linejoin:round;stroke-width:1.41732287406921px"/><line x1="94.67" y1="38.15" x2="85" y2="31.35" style="fill:none;stroke:#999;stroke-linecap:round;stroke-linejoin:round;stroke-width:1.41732287406921px;stroke-dasharray:0.549720287322998,2.748601198196411"/><line x1="83.88" y1="30.56" x2="83.64" y2="30.4" style="fill:none;stroke:#999;stroke-linecap:round;stroke-linejoin:round;stroke-width:1.41732287406921px"/><polygon points="97.75 38.15 99.23 41.35 95.71 41.04 97.75 38.15" style="fill:#999"/><polygon points="81.6 28.96 85.31 29.81 83.8 30.51 83.65 32.17 81.6 28.96" style="fill:#999"/><line x1="96.04" y1="93.23" x2="95.79" y2="93.37" style="fill:none;stroke:#999;stroke-linecap:round;stroke-linejoin:round;stroke-width:1.41732287406921px"/><line x1="93.49" y1="94.65" x2="83.61" y2="100.19" style="fill:none;stroke:#999;stroke-linecap:round;stroke-linejoin:round;stroke-width:1.41732287406921px;stroke-dasharray:0.5270114541053772,2.635057210922241"/><line x1="82.46" y1="100.84" x2="82.21" y2="100.97" style="fill:none;stroke:#999;stroke-linecap:round;stroke-linejoin:round;stroke-width:1.41732287406921px"/><polygon points="94.73 91.94 98.26 91.99 96.45 95.02 94.73 91.94" style="fill:#999"/><polygon points="80.03 102.2 82.4 99.22 82.38 100.88 83.81 101.73 80.03 102.2" style="fill:#999"/><line x1="166.64" y1="64.45" x2="166.93" y2="64.45" style="fill:none;stroke:#999;stroke-linecap:round;stroke-linejoin:round;stroke-width:1.41732287406921px"/><line x1="169.87" y1="64.45" x2="186.02" y2="64.45" style="fill:none;stroke:#999;stroke-linecap:round;stroke-linejoin:round;stroke-width:1.41732287406921px;stroke-dasharray:0.5874608755111694,2.9373044967651367"/><line x1="187.49" y1="64.45" x2="187.77" y2="64.45" style="fill:none;stroke:#999;stroke-linecap:round;stroke-linejoin:round;stroke-width:1.41732287406921px"/><polygon points="167.16 66.21 164.1 64.45 167.16 62.68 167.16 66.21" style="fill:#999"/><polygon points="190.27 64.45 186.75 65.89 187.59 64.45 186.75 63.01 190.27 64.45" style="fill:#999"/><line x1="165.74" y1="43.34" x2="165.97" y2="43.17" style="fill:none;stroke:#999;stroke-linecap:round;stroke-linejoin:round;stroke-width:1.41732287406921px"/><line x1="168.06" y1="41.62" x2="177.06" y2="34.95" style="fill:none;stroke:#999;stroke-linecap:round;stroke-linejoin:round;stroke-width:1.41732287406921px;stroke-dasharray:0.5210307240486145,2.6051535606384277"/><line x1="178.11" y1="34.18" x2="178.34" y2="34.01" style="fill:none;stroke:#999;stroke-linecap:round;stroke-linejoin:round;stroke-width:1.41732287406921px"/><polygon points="167.21 44.45 163.7 44.86 165.1 41.62 167.21 44.45" style="fill:#999"/><polygon points="180.35 32.52 178.37 35.77 178.19 34.12 176.66 33.46 180.35 32.52" style="fill:#999"/><line x1="164.71" y1="87.21" x2="164.96" y2="87.35" style="fill:none;stroke:#999;stroke-linecap:round;stroke-linejoin:round;stroke-width:1.41732287406921px"/><line x1="167.64" y1="88.96" x2="175.96" y2="93.93" style="fill:none;stroke:#999;stroke-linecap:round;stroke-linejoin:round;stroke-width:1.41732287406921px;stroke-dasharray:0.6254870295524597,3.1274352073669434"/><line x1="177.3" y1="94.74" x2="177.55" y2="94.88" style="fill:none;stroke:#999;stroke-linecap:round;stroke-linejoin:round;stroke-width:1.41732287406921px"/><polygon points="164.25 88.99 162.53 85.9 166.06 85.95 164.25 88.99" style="fill:#999"/><polygon points="179.69 96.17 175.93 95.59 177.39 94.78 177.41 93.12 179.69 96.17" style="fill:#999"/><path d="M217.21,6.26A10.44,10.44,0,0,0,207.76,12a1.85,1.85,0,0,1-2.49.81,6.28,6.28,0,0,0-6,.25c-1.77,1.07-3.1,3-3.1,6.14A1.85,1.85,0,0,1,194.67,21c-3.37.57-5.86,4-5.86,7.45,0,4.13,3.17,7.41,8.64,7.41h30.26A8,8,0,0,0,229.27,20a1.84,1.84,0,0,1-1.5-2A10.75,10.75,0,0,0,217.21,6.26Z" style="fill:none;stroke:#000;stroke-miterlimit:10;stroke-width:0.708661437034607px"/><path d="M224.48,48A10.44,10.44,0,0,0,215,53.78a1.85,1.85,0,0,1-2.49.81,6.26,6.26,0,0,0-5.94.25c-1.78,1.07-3.11,3-3.11,6.14a1.86,1.86,0,0,1-1.54,1.82c-3.38.56-5.87,4-5.87,7.44,0,4.13,3.18,7.41,8.65,7.41H235a8,8,0,0,0,1.57-15.92,1.84,1.84,0,0,1-1.51-2A10.74,10.74,0,0,0,224.48,48Z" style="fill:none;stroke:#000;stroke-miterlimit:10;stroke-width:0.708661437034607px"/><path d="M211.36,88.75a10.46,10.46,0,0,0-9.46,5.77,1.84,1.84,0,0,1-2.48.81,6.28,6.28,0,0,0-5.95.25c-1.77,1.07-3.1,3-3.1,6.14a1.85,1.85,0,0,1-1.55,1.81c-3.37.57-5.86,4-5.86,7.45,0,4.13,3.17,7.41,8.64,7.41h30.26a8,8,0,0,0,1.56-15.92,1.84,1.84,0,0,1-1.5-2A10.75,10.75,0,0,0,211.36,88.75Z" style="fill:none;stroke:#000;stroke-miterlimit:10;stroke-width:0.708661437034607px"/><path d="M130.19,93.62A30.81,30.81,0,1,1,161,62.81,30.84,30.84,0,0,1,130.19,93.62Zm0-59A28.21,28.21,0,1,0,158.4,62.81,28.24,28.24,0,0,0,130.19,34.6Z"/><circle cx="130.21" cy="62.71" r="28.44" style="fill:#ffc000"/><path d="M125.61,48.6a4.62,4.62,0,0,1,2.6-4.91A4.62,4.62,0,0,1,125.61,48.6Z" style="fill:#fff;fill-rule:evenodd"/><path d="M116.33,56.46a.69.69,0,0,0-.21-.74c-1.67-1.58-5.36-5.31-3.25-6.38,2.34-1.19,8.73.52,15.82,4.25a63.22,63.22,0,0,0-8.61,5.86A24.29,24.29,0,0,1,116.33,56.46Z" style="fill:#fff;fill-rule:evenodd"/><path d="M144.35,68.66c-.81,1.21-3.15.66-6.9-.47a.78.78,0,0,0-.5,0c1.15-1.66,1.4-4.72,1-7v0a4.85,4.85,0,0,0-.53-1.87C142.39,63.34,145.17,67.25,144.35,68.66Z" style="fill:#fff;fill-rule:evenodd"/><path d="M140.4,59.5a57.78,57.78,0,0,0-8.66-5.91c7.08-3.73,13.47-5.39,15.81-4.2,2.1,1.07-1.59,4.79-3.26,6.37-.29.28-.22.41-.21.74C143.71,56.94,143.26,57.4,140.4,59.5Z" style="fill:#fff;fill-rule:evenodd"/><path d="M123,59.27a4.92,4.92,0,0,0-.53,1.88h0v0c-.4,2.23-.15,5.29,1,7a.75.75,0,0,0-.49,0c-3.76,1.13-6.09,1.67-6.9.47C115.25,67.2,118,63.28,123,59.27Z" style="fill:#fff;fill-rule:evenodd"/><path d="M130.15,74.66a16.17,16.17,0,0,1,2.73-3.88h-5.45A15.93,15.93,0,0,1,130.15,74.66Z"/><path d="M123.9,65.71a8.28,8.28,0,0,0,1.42,2.75H135a8.09,8.09,0,0,0,1.42-2.75Z"/><path d="M136.29,60.08a71.79,71.79,0,0,0-6.14-4,71.56,71.56,0,0,0-6.13,4,9.11,9.11,0,0,0-.49,3.32h13.25A9.32,9.32,0,0,0,136.29,60.08Z"/><path d="M144.29,55.76a.76.76,0,0,0,0,1.07l.1.12c4.39-3.75,7-6.65,5.71-8.93-1.45-2-7.55-1.07-15,2.3a5.45,5.45,0,0,0,.57-2.43,5.62,5.62,0,0,0-.08-.92A5.36,5.36,0,0,0,134,44,5.45,5.45,0,0,0,132.49,43l0-.06h0l.58-1.24a.4.4,0,0,0-.2-.53.4.4,0,0,0-.53.19l-.62,1.36a5.42,5.42,0,0,0-3.19,0l-.63-1.36a.39.39,0,0,0-.52-.19.4.4,0,0,0-.2.53l.56,1.2,0,.1a5.45,5.45,0,0,0-3.1,5,5.47,5.47,0,0,0,.53,2.27c-1.94-.87-12.68-5.32-14.85-2.29-2,2.76,4.07,7.6,5.68,9l.1-.12a.77.77,0,0,0,0-1.07,25.22,25.22,0,0,1-2.9-3.18c-1.14-1.57-1.17-2.5-.62-3,1.71-1.6,8.06.53,10,1.27a57.78,57.78,0,0,1,6,2.76c-10.07,5.83-16.9,12.81-15.29,15.6,1,1.75,5.22,1.52,10.63-.38l-.19-.32a.75.75,0,0,0-.88-.34c-3.75,1.13-6.09,1.68-6.9.47-1.13-2,4.6-8.68,13.49-13.81l.66-.39.67.39c8.89,5.13,14.61,11.86,13.48,13.81-.8,1.21-3.14.66-6.89-.47a.74.74,0,0,0-.88.34l-.2.32c5.41,1.9,9.62,2.13,10.64.38,1.61-2.79-5.23-9.77-15.29-15.6,7.08-3.73,13.47-5.4,15.81-4.2C149.65,50.46,146,54.18,144.29,55.76ZM125.61,48.6a4.62,4.62,0,0,1,2.6-4.91A4.62,4.62,0,0,1,125.61,48.6Zm9,0a4.62,4.62,0,0,1-2.6-4.91A4.62,4.62,0,0,1,134.66,48.61Z" style="fill-rule:evenodd"/><path d="M134.66,48.61a4.62,4.62,0,0,1-2.6-4.91A4.62,4.62,0,0,1,134.66,48.61Z" style="fill:#fff;fill-rule:evenodd"/><path d="M130,97.17a54.42,54.42,0,0,1-12.47-1.56h0c-5.74-1.4-9.06-4.53-9.11-7.87,0-3.08,2.34-4.64,6.65-5,.73-2.55,3.88-5,7.58-5a6.05,6.05,0,0,1,3.24,1c2.45-2,5.25-3.79,8.86-3.79,6.1,0,11.41,3.34,12.57,7.82,3.29,1.15,5.17,2.82,5.17,5.37a6.6,6.6,0,0,1-3.13,5.16,23.86,23.86,0,0,1-6.89,2.65A59.29,59.29,0,0,1,130,97.17Z"/><path d="M129.3,95.49a54.29,54.29,0,0,1-11.69-1.41c-4.78-1.14-7.91-3.64-8-6.38,0-.86,0-3.19,5.44-3.67l.69-.06.19-.64c.56-1.88,3.12-3.94,6.3-4h0a5,5,0,0,1,2.5.8l.61.4.58-.46c2-1.63,4.57-3.29,7.83-3.29,5.31,0,10.06,2.81,11,6.52l.14.51.5.17c3.83,1.29,4.27,2.93,4.27,4a5.15,5.15,0,0,1-2.55,4A22.6,22.6,0,0,1,141,94.35,57.32,57.32,0,0,1,129.3,95.49Z" style="fill:#fff"/></svg>