<?xml version="1.0" encoding="UTF-8"?>
<svg id="Ebene_1" data-name="Ebene 1" xmlns="http://www.w3.org/2000/svg" viewBox="0 0 275 275">
  <defs>
    <style>
      .cls-1 {
        fill: #fcbe0e;
        stroke: #fff;
        stroke-miterlimit: 10;
        stroke-width: 4px;
      }
    </style>
  </defs>
  <circle cx="135.19" cy="138.96" r="120"/>
  <g>
    <path class="cls-1" d="M66.26,206.15c9.9,9.9,26.01,9.9,35.9,0l24.29-24.29c7.29-7.29,9.19-17.95,5.74-27.01l-15.63,15.63c-.22,.28-.42,.57-.67,.83l-24.29,24.29c-4.08,4.08-10.71,4.08-14.78,0l-1.06-1.06c-4.08-4.08-4.08-10.71,0-14.78l24.29-24.29c.55-.55,1.15-1.01,1.78-1.41l14.83-14.83c-9.1-3.54-19.84-1.65-27.17,5.69l-24.29,24.29c-9.9,9.9-9.9,26.01,0,35.9l1.06,1.06Z"/>
    <path class="cls-1" d="M172.72,135.6l23.16-23.16,1.13-1.13c9.9-9.9,9.9-26.01,0-35.9l-1.06-1.06c-9.9-9.9-26.01-9.9-35.9,0l-.66,.66-23.63,23.63c-7.29,7.29-9.19,17.95-5.74,27.01l15.63-15.63c.22-.28,23.68-23.83,23.68-23.83l1.29-1.29c4.08-4.08,10.71-4.08,14.78,0l1.06,1.06c4.08,4.08,4.08,10.71,0,14.78l-1.47,1.47-22.81,22.81c-.32,.32-16.45,16.3-16.45,16.3,9.06,3.45,19.72,1.55,27.01-5.74Z"/>
    <path class="cls-1" d="M100.46,155.43c-3.7,3.7-3.7,9.75,0,13.45l2.13,2.13c3.7,3.7,9.75,3.7,13.45,0l.53-.53s0,0,0,0l15.63-15.63h0s29.33-29.33,29.33-29.33c3.7-3.7,3.7-9.75,0-13.45l-2.13-2.13c-3.7-3.7-9.75-3.7-13.45,0l-29.27,29.27-14.83,14.83-1.38,1.38Z"/>
  </g>
</svg>