<?xml version="1.0" encoding="UTF-8"?>
<svg id="Ebene_1" data-name="Ebene 1" xmlns="http://www.w3.org/2000/svg" viewBox="0 0 275 275">
  <defs>
    <style>
      .cls-1 {
        fill: #fcbf0b;
      }

      .cls-2 {
        fill: none;
        stroke: #fff;
        stroke-miterlimit: 10;
        stroke-width: 4px;
      }
    </style>
  </defs>
  <circle cx="137.5" cy="137.5" r="120"/>
  <circle class="cls-1" cx="60.11" cy="93.49" r="10.8"/>
  <circle class="cls-1" cx="215.11" cy="93.49" r="10.8"/>
  <circle class="cls-1" cx="60.11" cy="181.49" r="10.8"/>
  <circle class="cls-1" cx="215.11" cy="181.49" r="10.8"/>
  <circle class="cls-1" cx="136.61" cy="59.99" r="10.8"/>
  <circle class="cls-1" cx="136.61" cy="215.43" r="10.8"/>
  <circle class="cls-1" cx="136.61" cy="137.43" r="10.8"/>
  <g>
    <circle class="cls-2" cx="60.57" cy="93.76" r="12.07"/>
    <circle class="cls-2" cx="60.57" cy="181.24" r="12.07"/>
    <circle class="cls-2" cx="137" cy="137" r="12.07"/>
    <circle class="cls-2" cx="137" cy="59.57" r="12.07"/>
    <circle class="cls-2" cx="137" cy="215.43" r="12.07"/>
    <line class="cls-2" x1="126.94" y1="130.96" x2="72.64" y2="98.78"/>
    <line class="cls-2" x1="124.93" y1="61.58" x2="72.64" y2="86.72"/>
    <line class="cls-2" x1="126.94" y1="144.04" x2="71.63" y2="174.2"/>
    <line class="cls-2" x1="61.58" y1="104.82" x2="61.58" y2="170.18"/>
    <line class="cls-2" x1="137" y1="71.63" x2="137" y2="124.93"/>
    <line class="cls-2" x1="137" y1="149.06" x2="137" y2="202.36"/>
    <line class="cls-2" x1="128.95" y1="69.62" x2="67.61" y2="171.19"/>
    <line class="cls-2" x1="124.93" y1="212.42" x2="72.64" y2="187.28"/>
    <circle class="cls-2" cx="214.43" cy="93.76" r="12.07"/>
    <circle class="cls-2" cx="214.43" cy="181.24" r="12.07"/>
    <line class="cls-2" x1="148.06" y1="130.96" x2="202.36" y2="98.78"/>
    <line class="cls-2" x1="150.07" y1="61.58" x2="202.36" y2="86.72"/>
    <line class="cls-2" x1="148.06" y1="144.04" x2="203.37" y2="174.2"/>
    <line class="cls-2" x1="213.42" y1="104.82" x2="213.42" y2="170.18"/>
    <line class="cls-2" x1="146.05" y1="69.62" x2="207.39" y2="171.19"/>
    <line class="cls-2" x1="150.07" y1="212.42" x2="202.36" y2="187.28"/>
  </g>
</svg>