<?xml version="1.0" encoding="UTF-8"?>
<svg id="Ebene_1" data-name="Ebene 1" xmlns="http://www.w3.org/2000/svg" viewBox="0 0 275 275">
  <defs>
    <style>
      .cls-1 {
        fill: #fcbe0e;
        stroke: #fff;
        stroke-miterlimit: 10;
        stroke-width: 4px;
      }
    </style>
  </defs>
  <circle cx="137.5" cy="137.5" r="120"/>
  <g>
    <path class="cls-1" d="M211.8,179.63l-71.79-41.6c-1.34-.67-3.69-.67-5.03,0l-71.79,41.6c-1.34,.67-1.34,2.01,0,3.02l72.12,41.6c1.34,.67,3.69,.67,5.03,0l71.45-41.6c1.34-.67,1.34-2.01,0-3.02"/>
    <path class="cls-1" d="M211.8,144.43l-71.79-41.6c-1.34-.67-3.69-.67-5.03,0l-71.79,41.6c-1.34,.67-1.34,2.01,0,3.02l72.12,41.6c1.34,.67,3.69,.67,5.03,0l71.45-41.6c1.34-.67,1.34-2.01,0-3.02"/>
    <path class="cls-1" d="M178.93,70.54c-.67-.34-1.34-.67-2.35-.67H100.77c-1.68,0-3.02,.67-3.35,1.34l-27.84,44.28c-.34,.67,0,1.68,.67,2.01h.34l64.07,33.3c1.34,.67,3.02,.67,4.03,0l67.76-30.28c1.34-.67,2.01-1.34,1.34-2.35l-27.84-46.96c0-.34-.34-.34-1.01-.67"/>
  </g>
</svg>