<svg xmlns="http://www.w3.org/2000/svg" viewBox="0 0 120 120"><defs><style>.cls-1{fill:none;stroke:#ffc000;stroke-miterlimit:10;stroke-width:2.83px;}</style></defs><title>icon-</title><g id="Ebene_2" data-name="Ebene 2"><rect class="cls-1" x="5" y="21.72" width="110" height="81.05" rx="5.51"/><path class="cls-1" d="M5.41,46l53,32.16a3,3,0,0,0,3.15-.06l53-32.1"/><path d="M83.47,51.26a9,9,0,0,1-9,9H48.59a10.13,10.13,0,0,1-3.36-19.68c0-.19,0-.38,0-.57a11.25,11.25,0,0,1,21-5.61A6.75,6.75,0,0,1,76.72,40a6.77,6.77,0,0,1-.45,2.43A9,9,0,0,1,83.47,51.26Zm-17.34-4.5h-4.6V38.88a1.13,1.13,0,0,0-1.13-1.12H57a1.13,1.13,0,0,0-1.13,1.12v7.88H51.31a1.13,1.13,0,0,0-.8,1.92l7.41,7.41a1.14,1.14,0,0,0,1.59,0l7.41-7.41A1.12,1.12,0,0,0,66.13,46.76Z"/></g></svg>