<?xml version="1.0" encoding="utf-8"?>
<!-- Generator: Adobe Illustrator 24.0.3, SVG Export Plug-In . SVG Version: 6.00 Build 0)  -->
<svg version="1.1" id="Ebene_1" xmlns="http://www.w3.org/2000/svg" xmlns:xlink="http://www.w3.org/1999/xlink" x="0px" y="0px"
	 viewBox="0 0 92 92" style="enable-background:new 0 0 92 92;" xml:space="preserve">
<style type="text/css">
	.st0{fill:#FFFFFF;}
	.st1{fill:#FFFFFF;stroke:#000000;stroke-width:2.126;stroke-miterlimit:10;}
	.st2{fill:#FFC000;stroke:#000000;stroke-width:2.126;stroke-miterlimit:10;}
	.st3{fill:none;stroke:#000000;stroke-width:2.126;stroke-miterlimit:10;}
	.st4{fill:#FFC000;stroke:#000000;stroke-width:2.126;stroke-linecap:round;stroke-linejoin:round;stroke-miterlimit:10;}
	.st5{fill-rule:evenodd;clip-rule:evenodd;}
	.st6{fill:#FFC000;}
</style>
<g>
	<g>
		<circle class="st0" cx="46" cy="46" r="44.3"/>
		<path class="st0" d="M46,2.4C70,2.4,89.6,22,89.6,46S70,89.6,46,89.6S2.4,70,2.4,46S22,2.4,46,2.4 M46,1C21.1,1,1,21.1,1,46
			s20.1,45,45,45s45-20.1,45-45S70.9,1,46,1L46,1z"/>
	</g>
</g>
<g>
	<g id="Robot_1_">
		<g>
			<path class="st4" d="M37.2,66.6l3.3-14.1l-16-16c-2-2-2-5.2,0-7.2c0.8-0.8,1.8-1.3,2.9-1.4L41.2,14c0.9-0.9,2.1-1.4,3.4-1.4
				c1.3,0,2.5,0.5,3.4,1.4c1,1,1.5,2.3,1.4,3.7l7.2,6.2h9.5l2.9,12.6l-1.3,0.6l-5.3-7.7h-4.2c-0.2,0.6-0.5,1-0.9,1.5
				c-0.5,0.5-1.1,0.8-1.8,1v4.3l7.7,5.3l-0.5,1.3l-12.7-3l1.1-8.9l-6-7l-9.3,9.3l13,13h3.2l4.8,20.3L37.2,66.6L37.2,66.6z"/>
		</g>
	</g>
	<path class="st5" d="M54.1,25.7c0.1,0,0.2,0,0.3,0c0.2,0,0.4,0.1,0.5,0.2c0,0,0,0,0.1,0c0.2,0.1,0.3,0.2,0.4,0.3c0,0,0,0,0.1,0.1
		c0.1,0.1,0.2,0.3,0.3,0.5c0,0,0,0,0,0.1c0.1,0.2,0.1,0.4,0.1,0.6c0,1-0.8,1.8-1.8,1.8c0,0,0,0-0.1,0c-0.2,0-0.4,0-0.5-0.1
		c0,0,0,0-0.1,0c-0.2-0.1-0.3-0.2-0.5-0.3c0,0,0,0-0.1-0.1c-0.1-0.1-0.2-0.2-0.3-0.4c0,0,0,0,0-0.1c-0.1-0.2-0.2-0.3-0.2-0.5
		c0-0.1,0-0.2,0-0.4C52.2,26.5,53.1,25.7,54.1,25.7z"/>
	<path class="st5" d="M44.3,15.9c1.2,0,2.1,1,2.1,2.1c0,1.2-1,2.1-2.1,2.1c-1.2,0-2.1-1-2.1-2.1C42.2,16.8,43.2,15.9,44.3,15.9z"/>
	<path class="st5" d="M28.8,35.9c-1.5,0-2.7-1.2-2.7-2.7s1.2-2.7,2.7-2.7s2.7,1.2,2.7,2.7C31.5,34.7,30.3,35.9,28.8,35.9z"/>
	<path class="st5" d="M46.2,53.9c-1.2,0-2.1-1-2.1-2.1c0-1.2,1-2.1,2.1-2.1c1.2,0,2.1,1,2.1,2.1C48.3,52.9,47.3,53.9,46.2,53.9z"/>
	<path class="st3" d="M61.6,79.4H31.7c-1.1,0-1.9-0.9-1.9-1.9l1-4.8c0-1.1,0.9-1.9,1.9-1.9h27.8c1.1,0,1.9,0.9,1.9,1.9l1,4.8
		C63.5,78.5,62.7,79.4,61.6,79.4z"/>
</g>
</svg>
