<svg version="1.0" xmlns="http://www.w3.org/2000/svg" viewBox="0 0 102 102"><g fill="#FFC000"><path d="M51 99.9c-27 0-49-22-49-49C2 24 24 2.1 51 2.1s49 22 49 49c0 26.9-22 48.8-49 48.8zm0-93.3c-24.5 0-44.5 20-44.5 44.5s20 44.4 44.5 44.4 44.5-20 44.5-44.5S75.5 6.6 51 6.6z"/><path d="M50.8 81c-1.3 0-2.2-.9-2.2-2.2V52.6H25c-1.3 0-2.2-.9-2.2-2.2 0-1.3.9-2.2 2.2-2.2h23.6v-25c0-1.3.9-2.2 2.2-2.2 1.3 0 2.2.9 2.2 2.2v24.9h25.4c1.3 0 2.2.9 2.2 2.2 0 1.3-.9 2.2-2.1 2.2H53.1v26c0 1.5-1 2.5-2.3 2.5z"/></g></svg>