<?xml version="1.0" encoding="UTF-8"?>
<svg id="Ebene_1" data-name="Ebene 1" xmlns="http://www.w3.org/2000/svg" viewBox="0 0 275 275">
  <defs>
    <style>
      .cls-1 {
        fill: #fcbe0e;
      }

      .cls-1, .cls-2 {
        stroke: #fff;
        stroke-miterlimit: 10;
        stroke-width: 4px;
      }
    </style>
  </defs>
  <circle cx="135.19" cy="138.96" r="120"/>
  <polygon class="cls-1" points="200.68 161.64 234.59 144.66 234.59 128.41 201.17 143.01 200.68 161.64"/>
  <path class="cls-1" d="M44.64,107.8s-4.27,30.22,8.51,39.21l12.78,8.99,20.01,29.85h98.42c9.76,0,17.67-17.53,17.67-39.14l-17.71-38.93-139.67,.02Z"/>
  <path class="cls-1" d="M95.5,134.19c3.64,5.52,5.77,12.86,5.77,21.81,0,16.63-7.91,30.11-17.67,30.11s-17.67-13.48-17.67-30.11c0-11.17,3.2-20.55,8.5-25.75"/>
  <ellipse class="cls-2" cx="83.59" cy="156" rx="6.65" ry="11.34"/>
  <path class="cls-1" d="M202.29,147.01l-55.7-.24-17.25-12.05-39.09-.61s-12.77-1-24.95-8.22c-16.91-10.02-19.66-18.09-19.66-18.09l139.45-.71,3.32,.09c5.98,0,11.27,7.24,14.47,17.32,2.02,6.36,3.2,14.11,3.2,22.47l-3.78,.04Z"/>
</svg>