<?xml version="1.0" encoding="utf-8"?>
<!-- Generator: Adobe Illustrator 27.5.0, SVG Export Plug-In . SVG Version: 6.00 Build 0)  -->
<svg version="1.1" baseProfile="tiny" id="Ebene_1" xmlns="http://www.w3.org/2000/svg" xmlns:xlink="http://www.w3.org/1999/xlink"
	 x="0px" y="0px" viewBox="0 0 30.8 29.2" overflow="visible" xml:space="preserve">
<g>
	<path fill="#FFBC00" d="M15.4,6.7c-4.4,0-8,3.6-8,8s3.6,8,8,8s8-3.6,8-8S19.8,6.7,15.4,6.7z M20.7,12.6c-1,1.1-2.1,2.1-3.1,3.1
		c-1,1-2.1,2.1-3.1,3.1c-0.1,0.1-0.2,0.2-0.3,0.3c-0.2,0.2-0.3,0.2-0.5,0c-0.1-0.1-0.2-0.1-0.2-0.2c-1.1-1.1-2.1-2.1-3.2-3.2
		c-0.3-0.3-0.5-0.6-0.6-1c-0.1-0.6,0.2-1.1,0.7-1.4c0.5-0.3,1.2-0.3,1.6,0.1c0.4,0.3,0.8,0.7,1.2,1.1c0.3,0.3,0.5,0.5,0.8,0.9
		c0.1-0.2,0.2-0.3,0.4-0.4c1.4-1.5,2.9-2.9,4.4-4.4c0.5-0.5,1.2-0.6,1.7-0.2c0.6,0.3,0.9,1,0.7,1.6C21,12.2,20.9,12.4,20.7,12.6z"/>
	<path d="M14.9,29c0.1,0,0.1,0,0.2-0.1c-0.6-0.1-1-0.5-1.5-0.9c-0.2-0.2-0.4-0.4-0.6-0.6c-0.5-0.5-1.1-0.6-1.8-0.5
		c-0.5,0.1-1.1,0.3-1.7,0.4c-1,0.2-1.8-0.2-2.2-1.2c-0.2-0.5-0.4-1.1-0.6-1.7c0-0.1-0.1-0.2-0.1-0.4c-0.1-0.4-0.4-0.7-0.8-0.8
		c-0.5-0.2-1-0.3-1.5-0.5c-0.2-0.1-0.5-0.2-0.7-0.3c-0.6-0.3-0.9-0.9-0.9-1.6c0-0.5,0.2-1.1,0.3-1.6c0.1-0.3,0.1-0.6,0.2-0.9
		c0.1-0.4,0-0.7-0.3-1c-0.3-0.3-0.6-0.6-0.8-0.9c-0.2-0.3-0.5-0.5-0.7-0.9C1,15,1,14.3,1.4,13.6c0.2-0.3,0.5-0.6,0.8-0.9
		c0.2-0.2,0.4-0.4,0.6-0.7c0.4-0.4,0.6-0.9,0.4-1.5C3.1,10,3,9.4,2.9,8.9C2.8,8.6,2.8,8.3,2.8,8c0.1-0.5,0.3-0.9,0.8-1.2
		c0.5-0.3,1.1-0.4,1.6-0.6C5.5,6.2,5.7,6.1,6,6c0.4-0.1,0.6-0.4,0.8-0.8c0.2-0.6,0.4-1.1,0.5-1.7C7.5,3.1,7.7,2.6,8,2.3
		C8.6,1.9,9.2,1.9,9.9,2c0.5,0.1,1.1,0.2,1.6,0.4c0.6,0.1,1,0,1.4-0.4c0.4-0.4,0.8-0.7,1.2-1.1c0.2-0.2,0.4-0.3,0.6-0.4
		c0.5-0.3,1-0.3,1.5,0.1c0.4,0.2,0.7,0.5,1,0.8c0.2,0.2,0.4,0.4,0.6,0.6c0.4,0.5,1,0.6,1.6,0.4c0.6-0.1,1.1-0.3,1.7-0.4
		c0.9-0.2,1.6,0.2,2,1.1c0.2,0.5,0.4,0.9,0.5,1.4c0.2,0.9,0.8,1.4,1.7,1.6c0.5,0.1,1,0.3,1.5,0.5c0.8,0.4,1.2,1.1,1,2.1
		c-0.1,0.6-0.2,1.1-0.4,1.7c0,0.2-0.1,0.4-0.1,0.6c0,0.3,0,0.6,0.2,0.8c0.3,0.4,0.7,0.8,1,1.2c0.3,0.3,0.6,0.6,0.8,1
		c0,0.1,0.1,0.2,0.1,0.3c0,0.2,0,0.4,0,0.6c0,0-0.1,0.1-0.1,0.1c-0.1,0.4-0.4,0.8-0.6,1.1c-0.4,0.4-0.8,0.8-1.1,1.3
		c-0.3,0.3-0.4,0.7-0.3,1.1c0.1,0.5,0.2,1,0.3,1.5c0.1,0.4,0.1,0.9,0.1,1.3c0,0.7-0.5,1.2-1.2,1.4c-0.5,0.2-1,0.4-1.5,0.5
		c-0.8,0.2-1.3,0.6-1.5,1.4c0,0,0,0.1,0,0.1c-0.1,0.4-0.2,0.8-0.4,1.2c-0.4,1.1-1,1.5-2.2,1.3c-0.5-0.1-1.1-0.2-1.6-0.4
		c-0.7-0.2-1.2,0-1.7,0.5c-0.3,0.3-0.6,0.6-0.9,0.9c-0.3,0.3-0.6,0.5-1,0.6c0,0,0,0.1,0,0.1C15.6,29,15.2,29,14.9,29z M27.2,8.4
		C27.2,8.4,27.2,8.4,27.2,8.4c0-0.1,0-0.2-0.1-0.3c-0.1-0.4-0.3-0.6-0.7-0.7c-0.6-0.2-1.1-0.4-1.7-0.6c-1-0.3-1.6-0.9-1.8-1.9
		c-0.1-0.5-0.3-0.9-0.4-1.4c-0.3-0.7-0.5-0.9-1.3-0.8c-0.6,0.1-1.2,0.2-1.8,0.4c-0.7,0.2-1.3,0-1.9-0.4c-0.2-0.2-0.5-0.4-0.7-0.6
		c-0.2-0.2-0.5-0.5-0.7-0.7c-0.6-0.5-1-0.5-1.6,0c-0.1,0-0.1,0.1-0.2,0.1c-0.3,0.3-0.6,0.6-0.9,0.9c-0.4,0.4-0.9,0.7-1.5,0.7
		c-0.4,0-0.9-0.1-1.3-0.1c-0.5-0.1-0.9-0.2-1.4-0.3C8.8,2.6,8.4,2.8,8.2,3.4C8.1,3.5,8.1,3.6,8,3.7C7.9,4.2,7.7,4.6,7.6,5.1
		C7.3,6,6.8,6.5,6,6.8C5.7,6.9,5.5,7,5.3,7C4.8,7.2,4.3,7.3,3.9,7.5C3.7,7.7,3.6,7.8,3.6,8.1c0,0.2,0,0.4,0,0.7
		c0.1,0.5,0.2,0.9,0.3,1.4c0.2,0.9,0.1,1.7-0.6,2.3C3.1,12.7,3,12.8,2.8,13c-0.2,0.2-0.4,0.4-0.6,0.7c-0.5,0.6-0.4,1.2,0.1,1.8
		c0.3,0.3,0.6,0.6,0.9,0.9c0.1,0.1,0.3,0.3,0.4,0.4C4,17.5,4.1,18.2,3.9,19c-0.1,0.5-0.3,1.1-0.4,1.6c-0.1,0.5,0.1,0.9,0.6,1.1
		c0.1,0.1,0.3,0.1,0.4,0.2c0.4,0.1,0.9,0.3,1.3,0.4c0.7,0.2,1.3,0.7,1.5,1.4c0.1,0.3,0.2,0.6,0.3,0.9c0.1,0.5,0.2,1,0.5,1.4
		c0.1,0.2,0.4,0.4,0.6,0.4c0.2,0,0.4,0,0.6,0c0.6-0.1,1.2-0.2,1.7-0.3c0.8-0.2,1.6,0,2.2,0.6c0.2,0.2,0.5,0.4,0.7,0.6
		c0.3,0.2,0.5,0.5,0.8,0.7c0.4,0.3,0.8,0.3,1.2,0c0.2-0.2,0.4-0.4,0.6-0.5c0.4-0.3,0.7-0.7,1.1-1c0.4-0.3,0.9-0.5,1.4-0.4
		c0.4,0.1,0.9,0.2,1.3,0.3c0.3,0.1,0.7,0.1,1,0.2c0.4,0.1,0.7-0.1,0.9-0.5c0.1-0.2,0.2-0.4,0.2-0.6c0.2-0.6,0.4-1.1,0.6-1.7
		c0.2-0.6,0.6-0.9,1.2-1.2c0.4-0.1,0.8-0.3,1.2-0.4c0.4-0.1,0.8-0.2,1.1-0.5c0.2-0.1,0.3-0.3,0.3-0.5c0-0.3,0-0.6,0-0.8
		c-0.1-0.6-0.2-1.1-0.3-1.7c-0.1-0.7,0-1.3,0.4-1.8c0.2-0.2,0.4-0.4,0.6-0.7c0.3-0.3,0.6-0.6,0.9-1c0.3-0.4,0.3-0.8,0-1.1
		c-0.2-0.3-0.4-0.5-0.6-0.7c-0.3-0.4-0.7-0.7-1-1.1c-0.3-0.4-0.5-0.9-0.4-1.4c0-0.3,0.1-0.6,0.2-1C27,9.4,27.1,8.9,27.2,8.4z"/>
	<path d="M6.9,14.7c0-4.5,3.7-8.5,8.5-8.5c4.7,0.1,8.4,3.8,8.4,8.6c-0.1,4.6-3.8,8.4-8.5,8.3C10.7,23.1,6.9,19.3,6.9,14.7z M15.4,7
		c-4.1,0-7.5,3.3-7.7,7.3c-0.2,4.4,3.3,8,7.5,8c4.3,0.1,7.8-3.3,7.8-7.6C23.1,10.5,19.6,7,15.4,7z"/>
	<path d="M20.4,10.3c-0.6-0.3-1.3-0.2-1.7,0.2c-1.5,1.5-2.9,2.9-4.4,4.4c-0.1,0.1-0.2,0.3-0.4,0.4c-0.3-0.3-0.6-0.6-0.8-0.9
		c-0.4-0.4-0.8-0.8-1.2-1.1c-0.5-0.4-1.1-0.4-1.6-0.1c-0.5,0.3-0.7,0.9-0.7,1.4c0.1,0.4,0.3,0.7,0.6,1c1.1,1.1,2.1,2.1,3.2,3.2
		c0.1,0.1,0.1,0.1,0.2,0.2c0.2,0.1,0.3,0.1,0.5,0c0.1-0.1,0.2-0.2,0.3-0.3c1-1,2.1-2.1,3.1-3.1c1-1,2.1-2.1,3.1-3.1
		c0.2-0.2,0.3-0.5,0.4-0.7C21.3,11.3,21,10.7,20.4,10.3z"/>
</g>
</svg>
