<svg version="1.1" id="Ebene_1" xmlns="http://www.w3.org/2000/svg" x="0" y="0" viewBox="0 0 102 102" xml:space="preserve"><style>.st0{fill:#ffc000}</style><path class="st0" d="M77.8 19.7c-2.9-.3-5.8.5-8.1 2.4-4.7 3.8-5.5 10.8-1.7 15.5 1.8 2.3 4.5 3.7 7.4 4.1.4 0 .8.1 1.2.1 2.5 0 4.9-.8 6.9-2.4 4.7-3.8 5.5-10.8 1.7-15.5-1.8-2.4-4.5-3.8-7.4-4.2zm7.1 11.9c-.3 2.2-1.4 4.2-3.1 5.6l-.3.3c-3.6 2.6-8.6 2-11.4-1.5-2.9-3.6-2.3-8.8 1.3-11.7 1.5-1.2 3.3-1.8 5.2-1.8h.9c2.2.2 4.2 1.3 5.6 3.1 1.4 1.6 2 3.8 1.8 6z"/><path class="st0" d="M98.7 28.4l-1.9-.9c-.3-1.7-.8-3.3-1.4-4.8l1-1.8c.5-.9.4-2-.2-2.7l-3.1-3.8c-.6-.8-1.7-1.1-2.6-.7l-2 .7c-1.4-1-2.8-1.8-4.4-2.4l-.5-2c-.2-1-1.1-1.8-2.1-1.8l-4.9-.5c-1-.1-2 .4-2.4 1.3l-.9 1.9c-1.7.3-3.3.8-4.8 1.4l-1.8-1c-.9-.5-2-.4-2.7.2l-3.8 3.1c-.8.6-1.1 1.7-.7 2.6l.7 2c-1 1.4-1.8 2.8-2.4 4.4l-2 .5c-1 .2-1.8 1.1-1.8 2.1l-.5 4.9c-.1 1 .4 2 1.3 2.4l1.9.9c0 .3.1.5.1.8H39.2c-.5-9.9-8.6-17.7-18.6-17.7C10.4 17.1 2 25.5 2 35.7 2 46 10.4 54.4 20.6 54.4c4.4 0 8.6-1.5 11.9-4.3l9.1 9.1c-.2.2-.4.5-.6.7h-2c-1 0-1.9.6-2.3 1.6L34.9 66l-.2.8c0 .7.3 1.3.8 1.8l1.6 1.4c-.2 1.7-.1 3.3.1 5l-1.5 1.5c-.7.7-.9 1.8-.5 2.7l2 4.5c.4.9 1.3 1.5 2.3 1.4l2.1-.1c1.1 1.3 2.3 2.5 3.7 3.5v2.1c0 1 .6 1.9 1.6 2.3l4.6 1.8c.3.1.5.1.8.1.7 0 1.3-.3 1.8-.8l1.4-1.6c1.7.2 3.3.1 5-.1l1.5 1.5c.7.7 1.8.9 2.7.5l4.6-2c.9-.4 1.5-1.3 1.4-2.3l-.1-2.1c1.3-1.1 2.5-2.3 3.5-3.7h2.1c1 0 1.9-.6 2.2-1.6l1.8-4.6c.3-.9.1-2-.7-2.6L77.9 74c.2-1.7.1-3.3-.1-5l1.5-1.5c.8-.7 1-1.8.5-2.8l-2-4.5c-.4-.9-1.3-1.5-2.3-1.4l-2.1.1c-1.1-1.3-2.3-2.5-3.7-3.5v-2.1c0-1-.6-1.9-1.6-2.3l-4.6-1.8c-.9-.3-2-.1-2.6.7l-1.4 1.6c-1.7-.2-3.3-.1-5 .1L53 50.1c-.7-.8-1.8-1-2.8-.5l-4.5 2c-.9.4-1.5 1.3-1.4 2.3l.1 2.1c-.3.2-.5.4-.8.7l-9-9c2.5-2.9 4-6.3 4.4-10.1h18.3c.1.4.3.7.4 1l-1 1.8c-.5.9-.4 2 .2 2.7L60 47l.6.5h.1c.6.3 1.3.4 2 .2l2-.7c1.4 1 2.8 1.8 4.4 2.4l.5 2c.2 1 1.1 1.7 2.1 1.8l4.9.5c1 .1 2-.4 2.4-1.3l.9-1.9c1.7-.3 3.3-.8 4.8-1.4l1.8 1c.9.5 2 .4 2.7-.2l3.9-3.1c.7-.6 1-1.6.7-2.6l-.7-2c1-1.4 1.8-2.8 2.4-4.4l2-.5c1-.2 1.7-1.1 1.8-2.1l.6-4.9c.2-.5-.3-1.5-1.2-1.9zm-8.2 15l.7 1.9-3.5 2.8-1.8-1c-.7-.4-1.5-.4-2.2-.1-1.4.6-2.9 1.1-4.4 1.3-.8.1-1.5.6-1.8 1.3l-.9 1.8-4.5-.4-.5-2c-.1-.8-.7-1.5-1.4-1.8-1.4-.6-2.8-1.3-4.1-2.2-.6-.5-1.5-.6-2.2-.4l-1.9.7-2.8-3.5 1-1.8c.4-.7.4-1.5.1-2.2-.6-1.4-1.1-2.9-1.3-4.4-.1-.7-.5-1.3-1.2-1.7l-2-1 .5-4.5 2-.5c.8-.1 1.5-.7 1.8-1.4.6-1.4 1.3-2.8 2.2-4.1.5-.6.6-1.5.4-2.2l-.7-1.9 3.5-2.8 1.8 1c.7.4 1.5.4 2.2.1 1.4-.6 2.9-1.1 4.4-1.3.8-.1 1.5-.6 1.8-1.3l.9-1.8 4.5.5.5 2c.1.8.7 1.5 1.4 1.8 1.4.6 2.8 1.3 4.1 2.2.6.5 1.5.6 2.2.4l1.9-.7 2.8 3.5-1 1.8c-.4.7-.4 1.5-.1 2.2.6 1.4 1.1 2.9 1.3 4.4.1.8.6 1.5 1.3 1.8l1.8.9-.5 4.5-2 .5c-.8.1-1.5.7-1.8 1.4-.6 1.4-1.3 2.8-2.2 4.1-.4.5-.5 1.3-.3 2.1zM47.1 54l4.1-1.8 1.4 1.5c.5.6 1.3.9 2.1.8 1.5-.2 3.1-.3 4.6-.1.8.1 1.6-.2 2.1-.8l1.3-1.6 4.2 1.6v2c0 .8.4 1.5 1 2 1.3.9 2.4 2 3.3 3.2.5.6 1.3 1 2 .9l2-.1 1.8 4.1-1.5 1.4c-.6.5-.9 1.3-.8 2.1.2 1.5.3 3.1.1 4.6-.1.8.2 1.6.8 2.1l1.6 1.3-1.6 4.2h-2c-.8 0-1.5.4-2 1-.9 1.3-2 2.4-3.2 3.3-.6.5-1 1.3-.9 2l.1 2-4.1 1.8-1.4-1.5c-.5-.6-1.3-.9-2.1-.8-1.5.2-3.1.3-4.6.1-.8-.1-1.6.2-2.1.8L52.1 92l-4.2-1.6v-2c0-.8-.4-1.5-1-2-1.2-.9-2.4-2-3.3-3.2-.5-.6-1.3-.9-2-.9l-2 .1-1.8-4.1 1.5-1.4c.6-.5.9-1.3.8-2.1-.2-1.5-.3-3.1-.1-4.6.1-.8-.2-1.6-.8-2.1l-1.6-1.3 1.6-4.2h2c.8 0 1.5-.4 2-1 .9-1.3 2-2.4 3.2-3.3.6-.5.9-1.1.9-1.9l-.2-2.4zm-26.5-2.7C12 51.3 5 44.3 5 35.7s7-15.6 15.6-15.6 15.6 7 15.6 15.6-7 15.6-15.6 15.6z"/><path class="st0" d="M53.4 82.3c1.3.5 2.7.7 4 .7 4.4 0 8.6-2.7 10.3-7 2.2-5.7-.6-12.1-6.3-14.3-2.7-1.1-5.7-1-8.4.2s-4.8 3.4-5.8 6.1c-2.2 5.7.6 12.1 6.2 14.3zM49.7 69c1.7-4.3 6.5-6.4 10.8-4.8 4.3 1.7 6.4 6.5 4.8 10.8-.8 2.1-2.4 3.7-4.4 4.6s-4.3.9-6.4.1l-.4-.1c-1.9-.8-3.4-2.3-4.3-4.2-.9-2-.9-4.3-.1-6.4z"/></svg>