<svg xmlns="http://www.w3.org/2000/svg" viewBox="0 0 200 200"><path d="M155.1 90.08H44.9c-7.24 0-13.1 4.79-13.1 10.71v83.49c0 5.92 5.86 10.72 13.1 10.72h110.2c7.24 0 13.1-4.8 13.1-10.72v-83.49c0-5.92-5.86-10.71-13.1-10.71z" fill-rule="evenodd" stroke-linecap="round" stroke-linejoin="round" stroke-width="4.25" fill="none" stroke="#fff"/><path d="M60.13 57.55v31.64H45.44V54.55C45.44 26.68 67.05 4 94.9 4h10.2c27.9 0 49.46 22.68 49.46 50.55v35.53h-14.69V54.55c0-19.77-15-35.86-34.77-35.86H94.9c-19.75 0-34.77 16.09-34.77 35.86z" stroke-linecap="round" stroke-linejoin="round" stroke-width="4.25" fill="none" stroke="#fff"/><path d="M115.2 128.13a15.2 15.2 0 1 0-22.89 13.09l-4.87 36.47h25.12l-4.87-36.47a15.17 15.17 0 0 0 7.51-13.09z" stroke-miterlimit="10" stroke-width="4.25" fill="none" stroke="#fff"/></svg>