<?xml version="1.0" encoding="utf-8"?>
<!-- Generator: Adobe Illustrator 27.5.0, SVG Export Plug-In . SVG Version: 6.00 Build 0)  -->
<svg version="1.1" baseProfile="tiny" id="Ebene_1" xmlns="http://www.w3.org/2000/svg" xmlns:xlink="http://www.w3.org/1999/xlink"
	 x="0px" y="0px" viewBox="0 0 30.8 29.2" overflow="visible" xml:space="preserve">
<g>
	<polygon fill="#FFBC00" points="24.2,10 22.2,11 19.6,11.6 19.7,14.1 20.3,17 21.5,19.2 23.4,21 24.5,21.8 25.4,21.2 26.8,19.7 
		28,18.4 28.6,16.8 29.2,15.4 29.5,13.8 29.5,11.7 28.8,11.4 26.7,10.8 25.5,10.1 	"/>
	<path d="M23.9,16c0.8-0.8,1.5-1.5,2.2-2.2c0.1-0.1,0.1-0.1,0.2-0.2c0.2-0.1,0.3-0.2,0.5,0c0.2,0.2,0.2,0.4,0,0.5
		c0,0-0.1,0.1-0.1,0.1c-0.8,0.8-1.6,1.6-2.4,2.4c-0.3,0.3-0.5,0.3-0.7,0c-0.3-0.3-0.6-0.6-0.8-0.8c-0.2-0.2-0.2-0.4,0-0.6
		c0.2-0.2,0.4-0.1,0.5,0C23.4,15.5,23.6,15.7,23.9,16z"/>
	<path d="M6.8,9.5c0-0.2,0-0.5,0-0.7c0-0.6,0.4-1,1.1-1c0.4,0,0.8,0,1.3,0c0.2,0,0.3,0.1,0.3,0.2c0,0.2-0.1,0.3-0.3,0.3
		c-0.4,0-0.8,0-1.3,0c-0.4,0-0.6,0.2-0.6,0.6c0,0.5,0,0.9,0,1.4c0,0.4,0.2,0.6,0.6,0.6c0.5,0,0.9,0,1.4,0c0.4,0,0.6-0.2,0.6-0.6
		c0-0.1,0-0.3,0-0.4c0-0.1,0.1-0.2,0.2-0.2c0.1,0,0.2,0,0.3,0.2c0.1,0.4,0.1,0.9-0.3,1.2c-0.2,0.2-0.4,0.3-0.7,0.3c-0.5,0-1,0-1.4,0
		c-0.6,0-1-0.4-1-1C6.8,9.9,6.8,9.7,6.8,9.5z"/>
	<path d="M8.6,9.6c0.5-0.5,1-1,1.5-1.5c0,0,0.1-0.1,0.1-0.1c0.1-0.1,0.2-0.1,0.3,0c0.1,0.1,0.1,0.2,0,0.4c0,0,0,0-0.1,0.1
		C10,8.9,9.4,9.5,8.9,10c-0.2,0.2-0.3,0.2-0.5,0C8.2,9.8,8,9.6,7.8,9.4c-0.1-0.1-0.1-0.3,0-0.4C7.9,8.9,8,9,8.2,9.1
		C8.3,9.2,8.5,9.4,8.6,9.6z"/>
	<path d="M6.8,14.2c0-0.2,0-0.5,0-0.7c0-0.6,0.4-1,1.1-1c0.4,0,0.8,0,1.3,0c0.2,0,0.3,0.1,0.3,0.2c0,0.2-0.1,0.3-0.3,0.3
		c-0.4,0-0.8,0-1.3,0c-0.4,0-0.6,0.2-0.6,0.6c0,0.5,0,0.9,0,1.4c0,0.4,0.2,0.6,0.6,0.6c0.5,0,0.9,0,1.4,0c0.4,0,0.6-0.2,0.6-0.6
		c0-0.1,0-0.3,0-0.4c0-0.1,0.1-0.2,0.2-0.2c0.1,0,0.2,0,0.3,0.2c0.1,0.4,0.1,0.9-0.3,1.2C9.7,15.9,9.5,16,9.2,16c-0.5,0-1,0-1.4,0
		c-0.6,0-1-0.4-1-1C6.8,14.7,6.8,14.5,6.8,14.2z"/>
	<path d="M8.6,14.4c0.5-0.5,1-1,1.5-1.5c0,0,0.1-0.1,0.1-0.1c0.1-0.1,0.2-0.1,0.3,0c0.1,0.1,0.1,0.2,0,0.4c0,0,0,0-0.1,0.1
		c-0.5,0.5-1.1,1.1-1.6,1.6c-0.2,0.2-0.3,0.2-0.5,0c-0.2-0.2-0.4-0.4-0.6-0.6c-0.1-0.1-0.1-0.3,0-0.4c0.1-0.1,0.3-0.1,0.4,0
		C8.3,14,8.5,14.2,8.6,14.4z"/>
	<path d="M6.8,19c0-0.2,0-0.5,0-0.7c0-0.6,0.4-1,1.1-1c0.4,0,0.8,0,1.3,0c0.2,0,0.3,0.1,0.3,0.2c0,0.2-0.1,0.3-0.3,0.3
		c-0.4,0-0.8,0-1.3,0c-0.4,0-0.6,0.2-0.6,0.6c0,0.5,0,0.9,0,1.4c0,0.4,0.2,0.6,0.6,0.6c0.5,0,0.9,0,1.4,0c0.4,0,0.6-0.2,0.6-0.6
		c0-0.1,0-0.3,0-0.4c0-0.1,0.1-0.2,0.2-0.2c0.1,0,0.2,0,0.3,0.2c0.1,0.4,0.1,0.9-0.3,1.2c-0.2,0.2-0.4,0.3-0.7,0.3c-0.5,0-1,0-1.4,0
		c-0.6,0-1-0.4-1-1C6.8,19.5,6.8,19.3,6.8,19z"/>
	<path d="M8.7,19.2c0.5-0.5,1-1,1.5-1.5c0,0,0.1-0.1,0.1-0.1c0.1-0.1,0.2-0.1,0.3,0c0.1,0.1,0.1,0.2,0,0.4c0,0,0,0-0.1,0.1
		c-0.5,0.5-1.1,1.1-1.6,1.6c-0.2,0.2-0.3,0.2-0.5,0C8.2,19.4,8,19.2,7.8,19c-0.1-0.1-0.1-0.3,0-0.4c0.1-0.1,0.3-0.1,0.4,0
		C8.3,18.8,8.5,19,8.7,19.2z"/>
	<g id="P3rj1m.tif">
		<g>
			<g>
				<path d="M24.6,9.4c0.8,0.4,1.6,0.8,2.5,1.2c0.8,0.3,1.6,0.5,2.4,0.6c0.3,0,0.4,0.2,0.4,0.4c0,0.9,0,1.8-0.2,2.7
					c-0.3,1.8-0.8,3.5-1.9,5c-0.8,1.1-1.8,2-3,2.7c-0.1,0.1-0.3,0.1-0.4,0c-1.8-1.1-3.2-2.6-4-4.6c-0.4-1-0.7-2-0.8-3
					c-0.1-1-0.2-1.9-0.2-2.9c0-0.2,0.1-0.4,0.3-0.4c1.6-0.2,3-0.8,4.4-1.6C24.2,9.6,24.4,9.5,24.6,9.4C24.6,9.4,24.6,9.4,24.6,9.4z
					 M29.2,12.5c0-0.2,0-0.3,0-0.5c0-0.1,0-0.1-0.1-0.2c-0.5-0.1-1.1-0.2-1.6-0.4c-1-0.3-1.8-0.7-2.7-1.2c-0.1,0-0.1,0-0.2,0
					c-0.2,0.1-0.3,0.2-0.5,0.2c-1.2,0.6-2.5,1.1-3.9,1.4c-0.1,0-0.1,0-0.1,0.1c0,0.4,0,0.7,0,1.1c0.1,1,0.2,2,0.5,3
					c0.7,2.2,1.9,4,3.9,5.3c0.1,0.1,0.1,0.1,0.2,0c2.1-1.3,3.4-3.2,4-5.6C29,14.7,29.1,13.6,29.2,12.5z"/>
				<path d="M24.6,22.4c-0.1,0-0.2,0-0.4-0.1c-1.9-1.1-3.3-2.7-4.1-4.7c-0.4-0.9-0.7-1.9-0.9-3.1c-0.1-0.9-0.2-1.9-0.2-2.9
					c0-0.4,0.2-0.6,0.6-0.7c1.4-0.2,2.8-0.7,4.3-1.5c0.1-0.1,0.2-0.1,0.3-0.2l0.3-0.1l0.2,0c0.8,0.4,1.6,0.8,2.4,1.2
					c0.7,0.3,1.5,0.5,2.3,0.6c0.4,0.1,0.6,0.3,0.6,0.7c0,1,0,1.9-0.2,2.8c-0.3,2-0.9,3.7-1.9,5.1c-0.8,1.1-1.9,2.1-3.1,2.8
					C24.8,22.4,24.7,22.4,24.6,22.4z M24.6,9.7L24.6,9.7c-0.2,0.1-0.3,0.1-0.4,0.2c-1.6,0.9-3.1,1.4-4.5,1.6c-0.1,0-0.1,0-0.1,0.1
					c0,1,0,2,0.2,2.9c0.2,1.1,0.4,2,0.8,2.9c0.8,1.9,2.2,3.4,3.9,4.4c0.1,0,0.1,0,0.2,0c1.2-0.7,2.2-1.6,2.9-2.7
					c1-1.4,1.6-2.9,1.8-4.8c0.1-0.8,0.2-1.7,0.2-2.7c0-0.1,0-0.1-0.1-0.1c-0.8-0.1-1.7-0.3-2.4-0.6C26.2,10.6,25.4,10.1,24.6,9.7z
					 M24.6,21.7c-0.1,0-0.2,0-0.3-0.1c-2-1.2-3.3-3.1-4-5.4c-0.3-1-0.5-2-0.5-3c0-0.2,0-0.4,0-0.6l0-0.5c0-0.2,0.1-0.4,0.3-0.4
					c1.2-0.2,2.4-0.6,3.8-1.4c0.2-0.1,0.3-0.2,0.4-0.2c0.1-0.1,0.3-0.1,0.5,0c0.8,0.4,1.7,0.9,2.7,1.2c0.4,0.1,0.9,0.2,1.3,0.3
					l0.3,0.1c0.3,0.1,0.4,0.3,0.3,0.4c0,0.1,0,0.2,0,0.3l0,0.2c0,1.3-0.2,2.4-0.5,3.4c-0.7,2.5-2.1,4.4-4.1,5.7
					C24.7,21.7,24.7,21.7,24.6,21.7z M20.3,12.1l0,0.4c0,0.2,0,0.4,0,0.6c0.1,1,0.2,2,0.5,2.9c0.7,2.2,1.9,4,3.8,5.1
					c1.9-1.2,3.2-3,3.9-5.4c0.3-1,0.4-2.1,0.5-3.3l0-0.1c0-0.1,0-0.2,0-0.2L28.7,12c-0.4-0.1-0.9-0.2-1.3-0.3c-1-0.3-2-0.8-2.7-1.2
					c-0.1,0.1-0.3,0.2-0.4,0.2C22.7,11.4,21.5,11.9,20.3,12.1z"/>
			</g>
		</g>
	</g>
	<g>
		<path d="M30,5c-0.1-1.3-0.6-2.2-1.7-2.9c-0.5-0.4-1.2-0.5-1.8-0.6c-6.3,0-12.6,0-19,0C7.2,1.6,6.7,1.7,6.3,1.9
			C4.8,2.6,4.1,3.8,4.1,5.4c0,6.1,0,12.2,0,18.4c0,0.2,0,0.3,0,0.5c-0.2,0-0.3,0-0.4,0c-1,0-1.9,0-2.9,0c-0.4,0-0.6,0.1-0.6,0.6
			c0,1.9,1.7,3.5,3.7,3.5c5.3,0,10.6,0,15.9,0c0.3,0,0.6,0,0.9-0.1c1.7-0.4,2.8-1.9,2.8-3.7c0-1.1,0-2.3,0-3.4l-0.9-0.6
			c0,1.4,0,2.7,0,4.1c0,1.4-0.8,2.5-2,2.8c-1.7,0.5-3.4-0.7-3.5-2.4c-0.1-0.6-0.1-0.7-0.7-0.7c-3.7,0-7.4,0-11,0c-0.1,0-0.3,0-0.4,0
			c0-0.1,0-0.3,0-0.4c0-6.2,0-12.3,0-18.5c0-1.8,1.2-3,3-3c5.2,0,10.4,0,15.7,0c0.1,0,0.2,0,0.4,0c-0.1,0.1-0.2,0.2-0.2,0.2
			c-0.7,0.7-1,1.6-1,2.6c0,1.8,0,3.6,0,5.4l0.9-0.3c0-1.4,0-2.9,0-4.3c0-0.1,0-0.3,0-0.5c0.2,0,0.3,0,0.4,0c1.8,0,3.7,0,5.5,0
			C29.9,5.6,30,5.4,30,5z M16.3,25.1c0.1,0.9,0.5,1.7,1.3,2.3c-0.1,0-0.2,0-0.3,0c-4.4,0-8.9,0-13.3,0c-1.3,0-2.4-0.8-2.7-2.1
			c0-0.1,0-0.1,0-0.2C6.3,25.1,11.3,25.1,16.3,25.1z M23.7,4.7c0-1.2,1.2-2.3,2.6-2.3c1.3-0.1,2.5,1,2.7,2.3
			C27.2,4.7,25.4,4.7,23.7,4.7z"/>
		<g>
			<path d="M1.1,25.2c0,0.1,0,0.1,0,0.2c0.3,1.4,1.5,2.3,2.9,2.3c1.9,0,3.8,0,5.7,0c1.3,0,2.5,0,3.8,0h3.8c0,0,0.1,0,0.2,0l0.8,0
				l-0.5-0.4c-0.7-0.6-1.1-1.3-1.2-2.2l0-0.2H1L1.1,25.2z M16.1,25.4c0.1,0.7,0.4,1.3,0.9,1.8l-3.5,0c-3.2,0-6.3,0-9.5,0
				c-1.2,0-2.1-0.7-2.4-1.8H16.1z"/>
			<path d="M28.5,1.9c-0.6-0.4-1.3-0.6-1.9-0.7h-19l-0.1,0c-0.1,0-0.3,0.1-0.4,0.1c-0.3,0.1-0.7,0.1-1,0.3c-1.5,0.7-2.3,2-2.3,3.8
				l0,18.6l-3,0c-0.2,0-0.5,0-0.6,0.2C0,24.4,0,24.6,0,24.8c0,2.1,1.8,3.8,4,3.8c2.2,0,4.4,0,6.7,0c3.1,0,6.1,0,9.2,0
				c0.3,0,0.6,0,0.9-0.1c1.8-0.4,3.1-2.1,3.1-4v-3.6l-1.4-1l0,4.6c0,1.3-0.7,2.2-1.8,2.6c-0.7,0.2-1.5,0.1-2.1-0.3
				c-0.6-0.4-1-1.1-1.1-1.9c-0.1-0.8-0.2-0.9-1-0.9H5.2V5.4c0-1.7,1-2.7,2.7-2.7h15.4c-0.6,0.7-0.9,1.6-0.9,2.6l0,5.8l1.4-0.5V5.9
				l5.6,0c0.2,0,0.5,0,0.6-0.2c0.2-0.2,0.2-0.4,0.2-0.6C30.2,3.7,29.6,2.7,28.5,1.9z M29.7,5.3c0,0-0.1,0-0.3,0l-6.1,0v4.8L23,10.3
				l0-5c0-1,0.3-1.8,1-2.4l0.6-0.7H8c-2,0-3.3,1.3-3.3,3.3v19.1h11.7c0.1,0,0.3,0,0.4,0c0,0,0.1,0.3,0.1,0.4
				c0.1,0.9,0.5,1.7,1.3,2.3c0.7,0.5,1.7,0.7,2.6,0.4c1.4-0.4,2.2-1.6,2.2-3.1l0-3.6l0.3,0.2v3.3c0,1.7-1.1,3.1-2.6,3.5
				C20.4,28,20.2,28,19.9,28c-5.3,0-10.6,0-15.9,0c-1.9,0-3.4-1.4-3.5-3.2c0-0.2,0-0.3,0-0.3c0,0,0.1,0,0.3,0l2.2,0h1.4l0-19.1
				c0-1.6,0.7-2.6,2-3.3C6.6,2,6.9,1.9,7.2,1.9c0.1,0,0.3-0.1,0.4-0.1l18.9,0c0.5,0.1,1.2,0.2,1.7,0.6c1,0.7,1.5,1.6,1.5,2.7
				C29.8,5.2,29.7,5.3,29.7,5.3z"/>
			<path d="M26.3,2.1c-1.5,0.1-2.9,1.3-2.9,2.6l0,0.3h5.9l0-0.3C29.1,3.2,27.7,2,26.3,2.1z M24,4.5c0.2-0.9,1.2-1.8,2.3-1.8
				c0,0,0.1,0,0.1,0c1,0,2,0.8,2.3,1.8H24z"/>
		</g>
	</g>
	<path d="M19.7,9h-8.1c-0.2,0-0.4-0.2-0.4-0.4V8.4c0-0.2,0.2-0.4,0.4-0.4h8.1c0.2,0,0.4,0.2,0.4,0.4v0.3C20.1,8.8,19.9,9,19.7,9z"/>
	<path d="M16.4,10.7h-4.8c-0.2,0-0.4-0.2-0.4-0.4V10c0-0.2,0.2-0.4,0.4-0.4h4.8c0.2,0,0.4,0.2,0.4,0.4v0.3
		C16.8,10.5,16.7,10.7,16.4,10.7z"/>
	<path d="M17.1,14.1h-5.4c-0.2,0-0.4-0.2-0.4-0.4v-0.3c0-0.2,0.2-0.4,0.4-0.4h5.4c0.2,0,0.4,0.2,0.4,0.4v0.3
		C17.4,13.9,17.3,14.1,17.1,14.1z"/>
	<path d="M17.1,15.5h-5.4c-0.2,0-0.4-0.2-0.4-0.4v-0.3c0-0.2,0.2-0.4,0.4-0.4h5.4c0.2,0,0.4,0.2,0.4,0.4v0.3
		C17.4,15.4,17.3,15.5,17.1,15.5z"/>
	<path d="M17.2,19.3h-5.4c-0.2,0-0.4-0.2-0.4-0.4v-0.3c0-0.2,0.2-0.4,0.4-0.4h5.4c0.2,0,0.4,0.2,0.4,0.4v0.3
		C17.6,19.1,17.4,19.3,17.2,19.3z"/>
</g>
</svg>
