<?xml version="1.0" encoding="utf-8"?>
<!-- Generator: Adobe Illustrator 24.0.3, SVG Export Plug-In . SVG Version: 6.00 Build 0)  -->
<svg version="1.1" id="Ebene_1" xmlns="http://www.w3.org/2000/svg" xmlns:xlink="http://www.w3.org/1999/xlink" x="0px" y="0px"
	 viewBox="0 0 92 92" style="enable-background:new 0 0 92 92;" xml:space="preserve">
<style type="text/css">
	.st0{fill:#FFFFFF;}
	.st1{fill:#FFFFFF;stroke:#000000;stroke-width:2.126;stroke-miterlimit:10;}
	.st2{fill:#FFC000;stroke:#000000;stroke-width:2.126;stroke-miterlimit:10;}
	.st3{fill:none;stroke:#000000;stroke-width:2.126;stroke-miterlimit:10;}
	.st4{fill:#FFC000;stroke:#000000;stroke-width:2.126;stroke-linecap:round;stroke-linejoin:round;stroke-miterlimit:10;}
	.st5{fill-rule:evenodd;clip-rule:evenodd;}
	.st6{fill:#FFC000;}
</style>
<g>
	<circle class="st0" cx="47" cy="46" r="44.3"/>
	<path class="st0" d="M47,2.4C71,2.4,90.6,22,90.6,46S71,89.6,47,89.6S3.4,70,3.4,46S23,2.4,47,2.4 M47,1C22.1,1,2,21.1,2,46
		s20.1,45,45,45s45-20.1,45-45S71.9,1,47,1L47,1z"/>
</g>
<g>
	<polygon class="st6" points="46,47.1 37.2,51.7 38.9,41.9 31.8,35 41.6,33.5 46,24.6 50.4,33.5 60.2,35 53.1,41.9 54.8,51.7 	"/>
	<path d="M46,26.2l3.6,7.3l0.3,0.7l0.7,0.1l8.1,1.2l-5.8,5.7l-0.5,0.5l0.1,0.7l1.4,8l-7.2-3.8L46,46.3l-0.7,0.3l-7.2,3.8l1.4-8
		l0.1-0.7l-0.5-0.5l-5.8-5.7l8.1-1.2l0.7-0.1l0.3-0.7L46,26.2 M46,23l-4.9,9.9l-10.9,1.6l7.9,7.7L36.3,53l9.7-5.1l9.7,5.1l-1.9-10.9
		l7.9-7.7l-10.9-1.6L46,23L46,23z"/>
</g>
<g>
	<polygon class="st6" points="26,54.6 17.7,59 19.3,49.7 12.5,43.1 21.8,41.8 26,33.3 30.2,41.8 39.5,43.1 32.7,49.7 34.3,59 	"/>
	<path d="M26,34.9l3.4,6.8l0.3,0.7l0.7,0.1l7.5,1.1l-5.4,5.3L32,49.4l0.1,0.7l1.3,7.5l-6.7-3.5L26,53.8l-0.7,0.3l-6.7,3.5l1.3-7.5
		l0.1-0.7l-0.5-0.5L14,43.6l7.5-1.1l0.7-0.1l0.3-0.7L26,34.9 M26,31.7l-4.6,9.4L11,42.6l7.5,7.3l-1.8,10.3l9.3-4.9l9.3,4.9
		l-1.8-10.3l7.5-7.3l-10.4-1.5L26,31.7L26,31.7z"/>
</g>
<g>
	<polygon class="st6" points="66,54.6 57.7,59 59.3,49.7 52.5,43.1 61.8,41.8 66,33.3 70.2,41.8 79.5,43.1 72.7,49.7 74.3,59 	"/>
	<path d="M66,34.9l3.4,6.8l0.3,0.7l0.7,0.1l7.5,1.1l-5.4,5.3L72,49.4l0.1,0.7l1.3,7.5l-6.7-3.5L66,53.8l-0.7,0.3l-6.7,3.5l1.3-7.5
		l0.1-0.7l-0.5-0.5L54,43.6l7.5-1.1l0.7-0.1l0.3-0.7L66,34.9 M66,31.7l-4.6,9.4L51,42.6l7.5,7.3l-1.8,10.3l9.3-4.9l9.3,4.9
		l-1.8-10.3l7.5-7.3l-10.4-1.5L66,31.7L66,31.7z"/>
</g>
</svg>
