<svg id="Icon" xmlns="http://www.w3.org/2000/svg" viewBox="0 0 200 200"><defs><style>.cls-1{fill:none;stroke:#fff;stroke-miterlimit:10;stroke-width:4.25px}</style></defs><path class="cls-1" d="M23.34 100c0 26.57 12.33 50.52 35.57 69.27a131.52 131.52 0 0 0 34.83 20.18l1.65.59h9.22l1.65-.59a131.52 131.52 0 0 0 34.83-20.18c23.24-18.75 35.54-42.7 35.57-69.27.05-32.67 4.27-42.87 5.37-45l8-6.38-8.59-7.62c-1.43-1.27-35.53-31-78.59-31h-5.7C54.09 10 20 39.75 18.56 41L10 48.6l8 6.4c1.07 2.09 5.29 12.29 5.34 45zm73.9-77.58h5.52c38.39 0 69.52 27.56 69.52 27.56s-7.72 6.18-7.78 50c-.08 55.76-61.74 77.67-61.74 77.67h-5.52S35.58 155.71 35.5 100c-.06-43.83-7.78-50-7.78-50s31.13-27.62 69.52-27.62zM100 177.62l-.09-154.98"/></svg>