<?xml version="1.0" encoding="UTF-8"?>
<svg id="Ebene_1" data-name="Ebene 1" xmlns="http://www.w3.org/2000/svg" viewBox="0 0 275 275">
  <defs>
    <style>
      .cls-1 {
        fill: #fcbe0e;
        stroke: #fff;
        stroke-miterlimit: 10;
        stroke-width: 4px;
      }
    </style>
  </defs>
  <circle cx="137.5" cy="137.5" r="120"/>
  <path class="cls-1" d="M213.36,144.46c.21-2.3,.33-4.62,.33-6.96s-.12-4.67-.33-6.96l-18.99-7.25c-1.42-5.69-3.66-11.05-6.61-15.95l8.3-18.56c-2.98-3.57-6.27-6.87-9.84-9.84l-18.56,8.3c-4.9-2.94-10.26-5.19-15.95-6.61l-7.25-18.99c-2.3-.21-4.62-.33-6.96-.33s-4.67,.12-6.96,.33l-7.25,18.99c-5.69,1.42-11.05,3.66-15.95,6.61l-18.56-8.3c-3.57,2.98-6.87,6.27-9.84,9.84l8.3,18.56c-2.94,4.9-5.19,10.26-6.61,15.95l-18.99,7.25c-.21,2.3-.33,4.62-.33,6.96s.12,4.67,.33,6.96l18.99,7.25c1.42,5.69,3.66,11.05,6.61,15.95l-8.3,18.56c2.98,3.57,6.27,6.87,9.84,9.84l18.56-8.3c4.9,2.94,10.26,5.19,15.95,6.61l7.25,18.99c2.3,.21,4.62,.33,6.96,.33s4.67-.12,6.96-.33l7.25-18.99c5.69-1.42,11.05-3.66,15.95-6.61l18.56,8.3c3.57-2.98,6.87-6.27,9.84-9.84l-8.3-18.56c2.94-4.9,5.19-10.26,6.61-15.95l18.99-7.25Zm-75.86,32.41c-21.74,0-39.37-17.63-39.37-39.37s17.63-39.37,39.37-39.37,39.37,17.63,39.37,39.37-17.63,39.37-39.37,39.37Z"/>
</svg>