<svg version="1.0" xmlns="http://www.w3.org/2000/svg" viewBox="0 0 102 102"><g fill="#FFC000"><path d="M3 88.7V13.3h96v75.4H3zm2.8-2.8h90.4V32.6H5.8v53.3zm0-56.1h90.4V16.1H5.8v13.7z"/><path d="M12.3 26c-1.6 0-2.9-1.3-2.9-2.9s1.3-2.9 2.9-2.9c1.6 0 2.9 1.3 2.9 2.9S13.9 26 12.3 26zM23.5 26c-1.6 0-2.9-1.3-2.9-2.9s1.3-2.9 2.9-2.9c1.6 0 2.9 1.3 2.9 2.9S25.1 26 23.5 26zM34.6 26c-1.6 0-2.9-1.3-2.9-2.9s1.3-2.9 2.9-2.9c1.6 0 2.9 1.3 2.9 2.9S36.2 26 34.6 26zM19.1 73.3c-.4 0-.7-.2-1-.4-.3-.3-.4-.6-.4-1s.2-.7.4-1l12.8-12.8-12.8-12.7c-.3-.3-.4-.6-.4-1s.2-.7.4-1c.3-.3.6-.4 1-.4s.7.2 1 .4l13.7 13.7c.3.3.4.6.4 1s-.2.7-.4 1L20.1 72.9c-.3.3-.6.4-1 .4zM43.5 59.6c-.8 0-1.4-.6-1.4-1.4s.6-1.4 1.4-1.4h21.7c.8 0 1.4.6 1.4 1.4s-.6 1.4-1.4 1.4H43.5z"/></g></svg>