<svg version="1.0" xmlns="http://www.w3.org/2000/svg" viewBox="0 0 102 102"><path d="M38.7 92.7c-1 0-1.8-.8-1.8-1.8s.8-1.8 1.8-1.8h10.5V80H3.8c-1 0-1.8-.8-1.8-1.8v-67c0-1 .8-1.8 1.8-1.8h94.3c1 0 1.8.8 1.8 1.8v66.9c0 1-.8 1.8-1.8 1.8H52.8V89h10.9c1 0 1.8.8 1.8 1.8s-.8 1.8-1.8 1.8h-25zm-33-16.5h90.7V13H5.7v63.2z"/><path d="M30.4 66.3s-.1 0 0 0c-.5 0-.9-.2-1.3-.5-4.9-5.2-12.3-12.8-13.5-13.6-.8-.5-1.1-1.5-.7-2.3.4-.9 1.5-1.2 2.3-.8.9.4 5.3 4.8 13.1 12.9l24.2-24.2c.7-.7 1.8-.7 2.5 0l8.4 8.4 17.9-24.4c.6-.8 1.7-.9 2.4-.4.8.6.9 1.7.4 2.4L67 50c-.3.4-.8.7-1.3.7s-1-.1-1.4-.5l-8.6-8.6-24.1 24.2c-.3.3-.8.5-1.2.5zM15.7 52.2z"/></svg>