<?xml version="1.0" encoding="UTF-8"?>
<svg id="Ebene_1" data-name="Ebene 1" xmlns="http://www.w3.org/2000/svg" viewBox="0 0 275 275">
  <defs>
    <style>
      .cls-1 {
        fill: #fff;
      }
    </style>
  </defs>
  <circle cx="137.5" cy="137.5" r="120"/>
  <g>
    <path class="cls-1" d="M84.59,181.12c.32,.72,.63,1.45,.93,2.2,.3-.77,.61-1.51,.94-2.24,.33-.72,.67-1.43,1.02-2.11l9.78-19.27c.17-.33,.35-.59,.54-.77,.18-.18,.39-.32,.61-.41,.23-.09,.48-.13,.77-.13h7.75v38.08h-7.79v-21.91c0-1.06,.05-2.21,.16-3.45l-10.09,19.59c-.31,.61-.74,1.07-1.27,1.39-.53,.31-1.14,.47-1.82,.47h-1.2c-.68,0-1.29-.16-1.82-.47-.53-.31-.95-.78-1.27-1.39l-10.15-19.61c.07,.61,.12,1.22,.16,1.82,.03,.6,.05,1.16,.05,1.66v21.91h-7.79v-38.08h7.75c.29,0,.54,.04,.77,.13,.23,.09,.43,.22,.61,.41,.18,.18,.36,.44,.54,.77l9.81,19.35c.35,.66,.68,1.35,1.01,2.07h0Z"/>
    <path class="cls-1" d="M139.67,177.41c0-1.88-.24-3.58-.73-5.09-.49-1.51-1.19-2.79-2.11-3.83-.92-1.05-2.04-1.85-3.36-2.41-1.32-.56-2.83-.84-4.52-.84s-3.23,.28-4.56,.84c-1.33,.56-2.46,1.36-3.37,2.41-.92,1.05-1.62,2.32-2.1,3.83-.49,1.51-.73,3.2-.73,5.09s.24,3.6,.73,5.11c.49,1.51,1.19,2.79,2.1,3.83,.92,1.05,2.04,1.84,3.37,2.39,1.33,.55,2.85,.82,4.56,.82s3.2-.27,4.52-.82c1.32-.55,2.45-1.35,3.36-2.39,.92-1.05,1.62-2.32,2.11-3.83,.49-1.51,.73-3.21,.73-5.11h0Zm9.05,0c0,1.64-.17,3.21-.51,4.72-.34,1.51-.83,2.92-1.46,4.25-.64,1.33-1.42,2.55-2.35,3.69-.93,1.13-1.99,2.14-3.18,3.01l9.65,10.54h-7.27c-1.05,0-2-.13-2.85-.38-.85-.25-1.61-.76-2.28-1.53l-4.73-5.31c-.77,.16-1.55,.28-2.34,.37-.79,.09-1.61,.13-2.45,.13-2.96,0-5.67-.5-8.11-1.49-2.44-.99-4.53-2.37-6.26-4.12-1.73-1.75-3.08-3.81-4.03-6.18-.95-2.37-1.43-4.93-1.43-7.69s.47-5.32,1.43-7.69c.95-2.37,2.29-4.43,4.03-6.17,1.73-1.74,3.82-3.11,6.26-4.11,2.44-.99,5.14-1.49,8.11-1.49s5.66,.5,8.09,1.5c2.43,1,4.51,2.38,6.24,4.12,1.73,1.74,3.06,3.8,4.01,6.17,.95,2.37,1.43,4.93,1.43,7.66h0Z"/>
    <polygon class="cls-1" points="176.99 158.37 176.99 165.38 166.76 165.38 166.76 196.47 157.92 196.47 157.92 165.38 147.7 165.38 147.7 158.37 176.99 158.37 176.99 158.37"/>
    <polygon class="cls-1" points="210.9 158.37 210.9 165.38 200.18 165.38 200.18 196.47 191.34 196.47 191.34 165.38 181.12 165.38 181.12 158.37 210.9 158.37 210.9 158.37"/>
    <path class="cls-1" d="M99.7,113.86v28.93c0,2.09,1.69,3.78,3.78,3.78h29.57c-.25-18.07-15.11-32.69-33.35-32.71h0Z"/>
    <path class="cls-1" d="M99.7,90.01v12.3c24.48,.23,44.35,19.95,44.59,44.26h12.78c-.25-31.22-25.88-56.54-57.37-56.56h0Z"/>
    <path class="cls-1" d="M175.3,142.79v-25.74c-8.61-21.34-26.11-38.21-47.93-46.07h-23.88c-2.09,0-3.78,1.69-3.78,3.78v3.7c37.72,.23,68.36,30.65,68.61,68.11h3.2c2.09,0,3.78-1.69,3.78-3.78h0Z"/>
    <path class="cls-1" d="M165.57,81.54c3.57,3.55,6.82,7.33,9.73,11.81v-18.09c0-2.58-1.69-4.27-3.78-4.27h-19.12c4.48,3.11,9.22,6.64,13.17,10.56h0Z"/>
  </g>
</svg>