<?xml version="1.0" encoding="UTF-8"?>
<svg id="Ebene_1" data-name="Ebene 1" xmlns="http://www.w3.org/2000/svg" viewBox="0 0 275 275">
  <defs>
    <style>
      .cls-1 {
        fill: #fcbe0e;
        stroke: #fff;
        stroke-miterlimit: 10;
        stroke-width: 4px;
      }
    </style>
  </defs>
  <circle cx="137.5" cy="137.5" r="120"/>
  <g>
    <path class="cls-1" d="M75.55,143.39c.03,21.57,10.01,41.01,28.87,56.23,13.86,11.19,27.69,16.18,28.27,16.38l1.34,.48,3.74,1,3.74-1,1.34-.48c.58-.21,14.41-5.19,28.27-16.38,18.86-15.22,28.84-34.66,28.87-56.23,.04-26.52,3.46-34.8,4.35-36.51l6.47-5.18-6.95-6.15c-1.16-1.03-28.84-25.18-63.79-25.18h-4.63c-34.95,0-62.63,24.15-63.79,25.18l-6.95,6.15,6.47,5.18c.89,1.71,4.32,9.99,4.35,36.51Zm59.99-62.97h4.48c31.17,0,56.43,22.37,56.43,22.37,0,0-6.27,5.02-6.32,40.6-.06,45.26-50.12,63.05-50.12,63.05l-2.24,.68-2.24-.68s-50.05-17.79-50.12-63.05c-.05-35.58-6.32-40.6-6.32-40.6,0,0,25.27-22.37,56.43-22.37Zm0,0h2.24v126.02h-2.24s-50.05-17.79-50.12-63.05c-.05-35.58-6.32-40.6-6.32-40.6,0,0,25.27-22.37,56.43-22.37Z"/>
    <line class="cls-1" x1="137.78" y1="206.43" x2="137.71" y2="80.63"/>
  </g>
</svg>