<svg version="1.0" xmlns="http://www.w3.org/2000/svg" viewBox="0 0 102 102"><path fill="#FFC000" d="M97.2 27c-4.4-4.4-11.5-4.4-15.9 0L61.9 46.4l-6.8-6.8 19.4-19.4c2.1-2.1 3.3-4.9 3.3-7.9s-1.2-5.8-3.3-7.9C72.4 2.2 69.6 1 66.6 1s-5.8 1.2-7.9 3.3L39.2 23.7l-3.4-3.4c-.9-.9-2.1-1.3-3.4-1.2-1.2.1-2.3.6-3.2 1.5L17 32.7c-1 1-1.6 2.4-1.5 3.7l.6 23.3c0 .2-.1.5-.3.7L3.1 73.1C1.2 75 1 77.9 2.7 79.7l19.1 20c.8.8 1.9 1.3 3.1 1.3h.1c1.3 0 2.6-.6 3.6-1.5l13.9-13.9c.3-.3.6-.4.8-.3l17.6 2.9c1.5.3 3.2-.3 4.4-1.5l14.9-14.9c.9-.9 1.4-2 1.5-3.2.1-1.3-.3-2.6-1.2-3.4l-2.8-2.8L97.1 43c4.5-4.6 4.5-11.7.1-16zM61.5 7.2c1.3-1.3 3.1-2.1 5-2.1s3.7.7 5 2.1c1.3 1.3 2.1 3.1 2.1 5s-.7 3.7-2.1 5L52.2 36.7 42.1 26.6 61.5 7.2zm16.1 60.7v.2c0 .1-.1.4-.3.7L62.4 83.7c-.3.3-.6.4-.8.3L44 81.1c-1.5-.3-3.2.3-4.4 1.5L25.7 96.5c-.3.3-.5.3-.7.3h-.2l-19.1-20c-.1 0-.1-.4.3-.8l12.6-12.6c1-1 1.6-2.4 1.5-3.7l-.6-23.3c0-.2.1-.5.3-.7L32 23.5c.3-.3.6-.3.7-.3h.2l3.4 3.4 1.5 1.5 14.4 14.4 6.8 6.8 15.9 15.9 2.7 2.7zm16.7-28L74.8 59.4l-10-10.1 19.4-19.4c2.8-2.8 7.3-2.8 10.1 0 2.7 2.7 2.7 7.2 0 10z"/></svg>