<svg version="1.1" id="Ebene_1" xmlns="http://www.w3.org/2000/svg" x="0" y="0" viewBox="0 0 171 179" xml:space="preserve"><style>.st0{fill:#fff}</style><path class="st0" d="M165.9 83.3h-11V60L97.6 2.3H20.8c-8.4 0-15.2 6.8-15.2 15.2v141.8c0 8.4 6.8 15.2 15.2 15.2h118.9c8.4 0 15.2-6.8 15.2-15.2v-16.8h11V83.3zm-67-73.8l48.8 49.3h-37.9c-6 0-11-4.9-11-11V9.5zm51.8 149.8c0 6-4.9 11-11 11H20.8c-6 0-11-4.9-11-11V17.5c0-6 4.9-11 11-11h73.8v41.3c0 8.4 6.8 15.2 15.2 15.2h40.8v20.2H59.5v59.3h91.2v16.8zm11-21H63.8V87.5h97.9v50.8z"/><path class="st0" d="M83.9 122.6h12v5.3H77V99.3h6.9v23.3zM121.8 114.2c0 2.8-.5 5.3-1.6 7.4-1 2.1-2.5 3.8-4.4 5-1.9 1.2-4.1 1.7-6.5 1.7-2.4 0-4.6-.6-6.5-1.7s-3.4-2.7-4.4-4.8c-1.1-2.1-1.6-4.5-1.7-7.2V113c0-2.8.5-5.3 1.5-7.4 1-2.1 2.5-3.8 4.4-5s4.1-1.8 6.6-1.8c2.4 0 4.6.6 6.5 1.7 1.9 1.2 3.4 2.8 4.4 4.9 1.1 2.1 1.6 4.6 1.6 7.3v1.5zm-7-1.2c0-2.8-.5-5-1.4-6.5-1-1.5-2.3-2.2-4.1-2.2-3.5 0-5.3 2.6-5.5 7.8v2.1c0 2.8.5 5 1.4 6.5.9 1.5 2.3 2.3 4.1 2.3 1.7 0 3.1-.7 4-2.2s1.4-3.6 1.4-6.4V113zM148.8 124.4c-1.1 1.2-2.6 2.1-4.7 2.9-2 .7-4.3 1.1-6.7 1.1-3.7 0-6.7-1.1-9-3.4-2.2-2.3-3.4-5.5-3.6-9.6v-2.5c0-2.8.5-5.3 1.5-7.4 1-2.1 2.4-3.7 4.3-4.9 1.9-1.1 4-1.7 6.4-1.7 3.6 0 6.3.8 8.3 2.4 2 1.6 3.1 4.1 3.4 7.3h-6.6c-.2-1.6-.7-2.7-1.5-3.4-.8-.7-1.9-1-3.3-1-1.7 0-3.1.7-4 2.2s-1.4 3.6-1.4 6.3v1.7c0 2.9.5 5 1.5 6.4 1 1.4 2.5 2.2 4.6 2.2 1.8 0 3.1-.4 4-1.2v-4.4h-4.8v-4.7h11.7v11.7z"/></svg>