<?xml version="1.0" encoding="utf-8"?>
<!-- Generator: Adobe Illustrator 24.0.1, SVG Export Plug-In . SVG Version: 6.00 Build 0)  -->
<svg version="1.1" id="Ebene_1" xmlns="http://www.w3.org/2000/svg" xmlns:xlink="http://www.w3.org/1999/xlink" x="0px" y="0px"
	 viewBox="0 0 45.4 45.2" style="enable-background:new 0 0 45.4 45.2;" xml:space="preserve">
<style type="text/css">
	.st0{fill:#FFC000;}
</style>
<g>
	<path class="st0" d="M25,32.1c-0.5,0-1.1,0.2-1.4,0.4c-0.9,0.2-1.8,0.4-3.2,0.2c-5.7-1.1-9.4-6.4-8.3-12c0.5-2.7,1.9-5.1,4.2-6.7
		s5-2.1,7.8-1.6c3,0.5,5.7,2.5,7.3,5.1c1.4,2.3,1.6,5,0.9,7.4l-0.2,0.7l5.3,4.8l0.7-0.9c0.5-0.5,1.6-2.8,1.8-3.7
		c0-0.4,0.2-0.9,0.2-1.2l3.4-0.9v-0.7c0-1.2,0-2.7-0.2-3.9L43,18.2l-3.5-0.4c-0.2-0.9-0.5-1.8-0.9-2.7l2.7-2.5L40.9,12
		c-0.5-1.1-1.2-2.1-2.1-3.2l-0.5-0.7l-3.2,1.6c-0.7-0.7-1.4-1.4-2.3-1.9l1.1-3.5l-0.7-0.4c-1.1-0.7-2.1-1.2-3.4-1.6l-0.7-0.4l-2.1,3
		c-0.5-0.2-1.1-0.2-1.6-0.4c-0.5-0.2-1.1-0.2-1.6-0.2l-0.9-3.5H22c-1.2,0-2.5,0.2-3.7,0.4l-0.4,0l-0.4,3.7c-0.9,0.4-1.9,0.7-2.8,1.1
		l-2.5-2.5l-0.7,0.4c-1.1,0.7-2.1,1.4-3,2.3L8,6.7l1.6,3.2c-0.7,0.7-1.2,1.4-1.8,2.1l-3.4-0.9l-0.4,0.7c-0.7,1.1-1.2,2.3-1.6,3.5
		L2.4,16L5.2,18C5,18.3,5,18.9,4.8,19.2c0,0.4-0.2,0.9-0.2,1.2l-3.4,0.9V22c0,1.2,0,2.7,0.2,3.9l0.2,0.9l3.5,0.4
		c0.2,0.9,0.5,1.8,0.9,2.7l-2.7,2.5L3.8,33c0.5,1.1,1.2,2.1,2.1,3.2l0.5,0.7l3.2-1.6c0.7,0.7,1.4,1.4,2.3,1.9l-1.1,3.5l0.7,0.4
		c1.1,0.7,2.1,1.2,3.4,1.6l0.7,0.4l2.1-3c0.5,0.2,1.1,0.2,1.6,0.4c0.5,0.2,1.1,0.2,1.6,0.2l0.9,3.5h0.9c1.2,0,2.5-0.2,3.7-0.4
		l0.7-0.2l0.4-3.7l3.9-1.6l-5.1-6.2L25,32.1z M25,38.5l-0.4,3.4c-0.5,0-1.1,0.2-1.8,0.2L22,38.7h-0.7c-0.7,0-1.4-0.2-1.9-0.2
		c-0.7-0.2-1.2-0.4-1.9-0.5l-0.7-0.2l-1.9,2.8c-0.5-0.2-1.1-0.5-1.6-0.7l0.9-3.4l-0.5-0.4c-1.1-0.7-2.1-1.6-3-2.7L10,33l-3.2,1.4
		c-0.4-0.5-0.7-1.1-1.1-1.6l2.5-2.5l-0.4-0.7c-0.5-1.2-0.9-2.3-1.2-3.5l-0.2-0.7L3.1,25c0-0.7-0.2-1.2-0.2-1.9l3.4-0.9v-0.7
		c0-0.7,0.2-1.2,0.2-1.8c0.2-0.5,0.2-1.2,0.4-1.8l0.2-0.7l-2.8-1.9c0.2-0.5,0.5-1.2,0.7-1.8l3.4,0.9l0.4-0.7c0.7-1.1,1.4-2.1,2.5-3
		l0.5-0.5L10.1,7c0.5-0.4,0.9-0.7,1.4-1.1l2.8,2.5l0.7-0.4c1.2-0.7,2.5-1.1,3.7-1.4l0.7-0.2l0.4-3.5c0.5,0,1.1-0.2,1.8-0.2l0.7,3.4
		H23c0.7,0,1.4,0.2,1.9,0.2c0.7,0.2,1.2,0.4,1.9,0.5L27.6,7l2.3-2.7c0.5,0.2,1.1,0.5,1.6,0.7l-0.9,3.4l0.5,0.4
		c1.1,0.7,2.1,1.6,3,2.7l0.5,0.5l3.2-1.4c0.4,0.5,0.7,1.1,1.1,1.6l-2.5,2.5l0.4,0.7c0.5,1.2,0.9,2.3,1.2,3.5l0.2,0.7l3.4,0.4
		c0,0.7,0.2,1.2,0.2,1.9l-3.4,0.9v0.7c0,0.7-0.2,1.2-0.2,1.8c0,0.4-0.5,1.1-0.9,1.8l-2.5-2.3c0.7-2.8,0.4-5.8-1.2-8.5
		C31.7,13,28.5,10.7,25,10c-3.7-0.4-7.1,0.4-9.7,2.1c-2.7,1.9-4.6,4.8-5.1,8c-1.2,6.7,3.2,13.3,9.9,14.5c1.8,0.4,3,0,4.1-0.2
		c0.2,0,0.5-0.2,0.7-0.2l2.7,3.2L25,38.5z"/>
	<path class="st0" d="M42.1,39.3c0.6-1.9-0.3-3.9-2.3-5.6l-9.3-8.1c0.6-2.1,0-4.6-1.7-6.3c-1.4-1.4-3.6-2.1-5.4-1.7l-1.6,0.3
		l2.9,2.9c1,1,1,2.3,0,3.3c-0.9,0.9-2.6,0.9-3.4,0l-2.9-2.9l-0.3,1.6c-0.4,2.1,0.1,4,1.7,5.6c1.6,1.6,4.1,2.3,6.3,1.7l8.1,9.3
		c1.4,1.7,3.1,2.6,4.6,2.6c0,0,1.1,0.1,2.2-0.8C42.1,40.2,42.1,39.3,42.1,39.3z M40.7,38.8c-0.1,0.6-0.6,1-1.1,1.1
		c-1.1,0.3-2.6-0.4-3.9-1.9l-8.8-10.1l-0.6,0.3c-1.6,0.7-3.7,0.1-5-1.1c-0.7-0.7-1.1-1.4-1.3-2.3l0.3,0.3c0.7,0.7,1.9,1.1,2.9,1.1
		c1,0,2.1-0.4,2.9-1.1c1.6-1.6,1.6-4.1,0-5.7l-0.3,0c0.7,0.1,1.4,0.6,2,1.1c1.3,1.3,1.7,3.4,1.1,5l-0.3,0.6l10.3,8.8
		C40.3,36.2,41,37.6,40.7,38.8z"/>
</g>
</svg>
