<?xml version="1.0" encoding="utf-8"?>
<!-- Generator: Adobe Illustrator 24.0.3, SVG Export Plug-In . SVG Version: 6.00 Build 0)  -->
<svg version="1.1" id="Ebene_1" xmlns="http://www.w3.org/2000/svg" xmlns:xlink="http://www.w3.org/1999/xlink" x="0px" y="0px"
	 viewBox="0 0 250 110" style="enable-background:new 0 0 250 110;" xml:space="preserve">
<style type="text/css">
	.st0{fill:#F0F0F2;}
	.st1{fill:#FFFFFF;stroke:#668BA8;stroke-width:0.7087;stroke-miterlimit:10;}
	.st2{fill:#FFFFFF;}
	.st3{fill:#FFC000;stroke:#000000;stroke-width:0.7087;stroke-miterlimit:10;}
	.st4{fill:#FFFFFF;stroke:#000000;stroke-width:0.7087;stroke-miterlimit:10;}
	.st5{fill:#003E6E;stroke:#000000;stroke-width:0.7087;stroke-miterlimit:10;}
	.st6{fill:none;stroke:#FFFFFF;stroke-width:0.7087;stroke-miterlimit:10;}
	.st7{fill:none;stroke:#003E6E;stroke-width:0.7087;stroke-miterlimit:10;}
	.st8{fill:#FFC000;stroke:#000000;stroke-width:0.7087;stroke-linecap:round;stroke-linejoin:round;stroke-miterlimit:10;}
	.st9{fill-rule:evenodd;clip-rule:evenodd;}
	.st10{fill:#003E6E;stroke:#000000;stroke-miterlimit:10;}
	.st11{fill:#003E6E;stroke:#000000;stroke-width:0.7087;stroke-linecap:round;stroke-linejoin:round;stroke-miterlimit:10;}
	.st12{fill-rule:evenodd;clip-rule:evenodd;fill:#FFFFFF;}
	.st13{fill:#FFFFFF;stroke:#000000;stroke-miterlimit:10;}
	.st14{fill:#FFFFFF;stroke:#33658B;stroke-width:0.7087;stroke-miterlimit:10;}
	.st15{stroke:#000000;stroke-width:0.7087;stroke-miterlimit:10;}
	.st16{fill:none;stroke:#000000;stroke-width:0.7087;stroke-miterlimit:10;}
	.st17{fill:none;stroke:#000000;stroke-width:0.7087;stroke-linecap:square;stroke-linejoin:round;stroke-miterlimit:10;}
	.st18{fill:none;stroke:#999999;stroke-width:1.4173;stroke-linecap:round;stroke-linejoin:round;}
	.st19{fill:none;stroke:#999999;stroke-width:1.4173;stroke-linecap:round;stroke-linejoin:round;stroke-dasharray:0.5631,2.8157;}
	.st20{fill:#999999;}
	.st21{fill:none;stroke:#999999;stroke-width:1.4173;stroke-linecap:round;stroke-linejoin:round;stroke-dasharray:0.5887,2.9436;}
	.st22{fill:none;stroke:#999999;stroke-width:1.4173;stroke-linecap:round;stroke-linejoin:round;stroke-dasharray:0.5754,2.877;}
	.st23{fill:none;stroke:#999999;stroke-width:1.4173;stroke-linecap:round;stroke-linejoin:round;stroke-dasharray:0.5497,2.7486;}
	.st24{fill:none;stroke:#999999;stroke-width:1.4173;stroke-linecap:round;stroke-linejoin:round;stroke-dasharray:0.527,2.6351;}
	.st25{fill-rule:evenodd;clip-rule:evenodd;fill:#FCBF0B;}
	.st26{clip-path:url(#SVGID_2_);fill:#FFFFFF;}
	.st27{clip-path:url(#SVGID_2_);}
	.st28{fill:none;stroke:#999999;stroke-width:1.4173;stroke-linecap:round;stroke-linejoin:round;stroke-dasharray:0.5875,2.9373;}
	.st29{fill:none;stroke:#999999;stroke-width:1.4173;stroke-linecap:round;stroke-linejoin:round;stroke-dasharray:0.521,2.6052;}
	.st30{fill:none;stroke:#999999;stroke-width:1.4173;stroke-linecap:round;stroke-linejoin:round;stroke-dasharray:0.6255,3.1274;}
</style>
<g>
	<g>
		<circle class="st2" cx="124" cy="55" r="44.6"/>
		<path d="M124,10.7c24.4,0,44.3,19.9,44.3,44.3S148.4,99.3,124,99.3S79.7,79.4,79.7,55S99.6,10.7,124,10.7 M124,10
			c-24.9,0-45,20.1-45,45s20.1,45,45,45s45-20.1,45-45S148.9,10,124,10L124,10z"/>
	</g>
</g>
<g>
	<circle class="st3" cx="92.9" cy="37.7" r="4.8"/>
	<circle class="st3" cx="92.9" cy="73" r="4.8"/>
	<circle class="st3" cx="123.8" cy="23.8" r="4.8"/>
	<circle class="st3" cx="123.8" cy="87" r="4.8"/>
	<line class="st4" x1="119.7" y1="52.8" x2="97.7" y2="39.7"/>
	<line class="st4" x1="118.9" y1="24.6" x2="97.7" y2="34.8"/>
	<line class="st4" x1="119.7" y1="58" x2="97.4" y2="70.3"/>
	<line class="st4" x1="93.2" y1="42.2" x2="93.2" y2="68.6"/>
	<line class="st4" x1="123.8" y1="28.7" x2="123.8" y2="50.3"/>
	<line class="st4" x1="123.8" y1="60" x2="123.8" y2="81.7"/>
	<line class="st4" x1="120.5" y1="27.9" x2="95.8" y2="69"/>
	<line class="st4" x1="118.9" y1="85.7" x2="97.7" y2="75.6"/>
	<circle class="st3" cx="155.1" cy="37.7" r="4.8"/>
	<circle class="st3" cx="155.1" cy="73" r="4.8"/>
	<line class="st4" x1="128.3" y1="52.8" x2="150.3" y2="39.7"/>
	<line class="st4" x1="129.1" y1="24.6" x2="150.3" y2="34.8"/>
	<line class="st4" x1="128.3" y1="58" x2="150.6" y2="70.3"/>
	<line class="st4" x1="154.8" y1="42.2" x2="154.8" y2="68.6"/>
	<line class="st4" x1="127.5" y1="27.9" x2="152.3" y2="69"/>
	<line class="st4" x1="129.1" y1="85.7" x2="150.3" y2="75.6"/>
	<circle class="st5" cx="123.8" cy="55.2" r="11.2"/>
</g>
<g>
	<path class="st2" d="M130.9,53.9c-2.2,0-4,1.8-4,4v1.3c0,1-0.8,1.9-1.9,1.9c-1,0-1.9-0.8-1.9-1.9v-0.4c2.7-0.5,3.7-3.1,3.7-4.9
		c0-1.9,0-2.4,0-2.4h-2.1c0,0,0-2.6,0-2.8c0-0.4-0.3-0.7-0.7-0.7c-0.4,0-0.7,0.3-0.7,0.7s0,2.8,0,2.8h-2.7c0,0,0-2.6,0-2.8
		c0-0.4-0.3-0.7-0.7-0.7c-0.4,0-0.7,0.3-0.7,0.7s0,2.8,0,2.8h-2.1c0,0,0,1.5,0,2.4c0,1.9,1.1,4.4,3.7,4.9v0.4c0,2.2,1.8,4,4,4
		s4-1.8,4-4v-1.3h0c0-1,0.8-1.9,1.9-1.9h1.1v-2.1L130.9,53.9L130.9,53.9z"/>
</g>
</svg>
