<svg version="1.0" xmlns="http://www.w3.org/2000/svg" viewBox="0 0 102 102"><g fill="#FFF"><path d="M76.8 21.8c-2.9-.3-5.7.5-8 2.3-2.3 1.8-3.7 4.4-4 7.3-.3 2.9.5 5.7 2.3 8 2.1 2.7 5.3 4.1 8.5 4.1 2.4 0 4.8-.8 6.8-2.4 4.7-3.8 5.4-10.6 1.7-15.3-1.9-2.3-4.5-3.7-7.3-4zm7 11.7c-.3 2.2-1.3 4.1-3 5.5l-.3.3c-1.7 1.2-3.7 1.8-5.7 1.5-2.2-.2-4.1-1.3-5.5-3-2.8-3.5-2.3-8.7 1.2-11.5 1.5-1.2 3.3-1.8 5.1-1.8h.9c2.2.2 4.1 1.3 5.5 3 1.3 1.6 2 3.8 1.8 6z"/><path d="M97.3 30.3l-1.9-.9c-.3-1.6-.7-3.2-1.4-4.7l1-1.8c.5-.9.4-1.9-.2-2.7l-3-3.8c-.6-.8-1.7-1-2.6-.7l-1.9.7c-1.3-1-2.8-1.8-4.3-2.4l-.5-2c-.2-1-1.1-1.7-2.1-1.8l-4.8-.5c-1-.1-1.9.4-2.4 1.3l-.9 1.9c-1.6.3-3.2.7-4.7 1.4l-1.8-1c-.9-.5-1.9-.4-2.7.2l-3.8 3c-.7.6-1 1.7-.7 2.6l.7 1.9c-1 1.3-1.8 2.8-2.4 4.3l-2 .5c-1 .2-1.7 1.1-1.8 2.1L53 29h-4.7V15L25.8 6.4 3.6 15h-.2v19.2c0 12.4 10.1 22.4 22.4 22.4 3.7 0 7.3-.9 10.6-2.7l5.6 5.6-.7.7c-.3.3-.5.6-.7.9h-2.1c-1 0-1.9.6-2.2 1.5l-1.8 4.6-.2.8c0 .7.3 1.3.8 1.8l1.5 1.3c-.2 1.6-.1 3.3.1 4.9l-1.5 1.4c-.7.7-.9 1.8-.5 2.7l2 4.4c.4.9 1.3 1.5 2.3 1.4l2.1-.1c1.1 1.3 2.3 2.4 3.6 3.4v2.1c0 1 .6 1.9 1.5 2.2l4.5 1.8c.3.1.5.1.8.1.7 0 1.3-.3 1.8-.8l1.3-1.5c1.6.2 3.3.1 4.9-.1l1.4 1.5c.7.7 1.8.9 2.7.5l4.5-2c.9-.4 1.5-1.3 1.4-2.3l-.1-2.1c1.3-1.1 2.4-2.3 3.4-3.6h2.1c1 0 1.9-.6 2.2-1.5l1.8-4.5c.3-.9.1-2-.7-2.6l-1.5-1.3c.2-1.6.1-3.3-.1-4.9l1.5-1.4c.7-.7 1-1.8.5-2.7l-2-4.4c-.4-.9-1.3-1.5-2.3-1.4l-2.1.1c-1.1-1.3-2.3-2.4-3.6-3.4v-2.1c0-1-.6-1.9-1.5-2.2l-4.5-1.8c-.9-.3-2-.1-2.6.7l-1.3 1.5c-1.6-.2-3.3-.1-4.9.1l-1.4-1.5c-.7-.7-1.8-1-2.7-.5l-4.4 2c-.9.4-1.5 1.3-1.4 2.3l.1 1.7-5-5c5.8-4.2 9.3-11 9.3-18.1V32h4.4l-.1.6c-.1 1 .4 1.9 1.3 2.4l1.9.9c.1.4.1.8.2 1.2l.7 2.4c.2.4.3.8.5 1.2l-1 1.8c-.5.9-.4 1.9.2 2.7l3.1 3.8.5.5h.1c.6.3 1.3.4 1.9.2l1.9-.7c1.3 1 2.8 1.8 4.3 2.4l.5 2c.2 1 1.1 1.7 2 1.8l4.8.5c1 .1 1.9-.4 2.4-1.3l.9-1.9c1.6-.3 3.2-.7 4.7-1.4l1.8 1c.9.5 1.9.4 2.7-.2l3.8-3.1c.7-.6 1-1.6.7-2.5l-.7-1.9c1-1.3 1.8-2.8 2.4-4.3l2-.5c1-.2 1.7-1.1 1.8-2l.5-4.9c.2-1-.3-2-1.2-2.4zm-8 14.8L90 47l-3.5 2.8-1.7-1c-.7-.4-1.5-.4-2.2-.1-1.4.6-2.9 1-4.4 1.3-.8.1-1.4.6-1.8 1.3l-.8 1.7-4.4-.5-.5-1.9c-.1-.8-.7-1.4-1.4-1.8-1.4-.6-2.8-1.3-4-2.2-.6-.5-1.4-.6-2.2-.4l-1.9.8-2.8-3.5 1-1.7c.4-.7.4-1.5.1-2.2-.6-1.4-1-2.9-1.3-4.4-.1-.7-.5-1.3-1.1-1.7l-2-1 .5-4.4 1.9-.5c.8-.1 1.4-.7 1.8-1.4.6-1.4 1.3-2.8 2.2-4 .5-.6.6-1.4.4-2.2l-.7-1.9 3.5-2.8 1.7 1c.7.4 1.5.4 2.2.1 1.4-.6 2.9-1 4.4-1.3.8-.1 1.4-.6 1.8-1.3l.9-1.8 4.4.5.5 1.9c.1.8.7 1.4 1.4 1.8 1.4.6 2.8 1.3 4 2.2.6.5 1.4.6 2.2.4l1.9-.7 2.8 3.5-1 1.7c-.4.7-.4 1.5-.1 2.2.6 1.4 1 2.9 1.3 4.4.1.8.6 1.4 1.3 1.8l1.8.9-.7 4.4-1.9.5c-.8.1-1.4.7-1.8 1.4-.6 1.4-1.3 2.8-2.2 4-.4.6-.5 1.4-.3 2.2zM46.5 55.6l4.1-1.8 1.4 1.4c.5.6 1.3.9 2.1.8 1.5-.2 3-.3 4.6-.1.8.1 1.5-.2 2.1-.8l1.3-1.5 4.1 1.6v2c0 .8.4 1.5 1 1.9 1.2.9 2.3 2 3.3 3.1.5.6 1.2.9 2 .9l2-.1 1.8 4-1.4 1.4c-.6.5-.9 1.3-.8 2.1.2 1.5.3 3 .1 4.6-.1.8.2 1.5.8 2.1l1.5 1.3-1.6 4.1h-2c-.8 0-1.5.4-1.9 1-.9 1.2-2 2.3-3.1 3.3-.6.5-.9 1.2-.9 2l.1 2-4 1.8-1.4-1.4c-.5-.6-1.3-.9-2.1-.8-1.5.2-3 .3-4.6.1-.8-.1-1.5.2-2.1.8l-1.3 1.5-4.1-1.6v-2c0-.8-.4-1.5-1-1.9-1.2-.9-2.3-2-3.3-3.1-.5-.6-1.2-.9-2-.9l-2 .1-1.8-4.1 1.4-1.4c.6-.5.9-1.3.8-2.1-.2-1.5-.3-3-.1-4.6.1-.8-.2-1.5-.8-2.1L37.1 68l1.6-4.1h2c.8 0 1.5-.4 1.9-1 .9-1.2 2-2.3 3.1-3.3.6-.4.9-1.1.9-1.8l-.1-2.2zm-1-38.7v17.3c0 10.9-8.8 19.7-19.7 19.7-10.9 0-19.7-8.8-19.7-19.7V16.9l19.7-7.6 19.7 7.6z"/><path d="M52.8 83.4c1.3.5 2.6.7 3.9.7 4.4 0 8.5-2.6 10.1-6.9 1.1-2.7 1-5.7-.2-8.3-1.2-2.7-3.3-4.7-6-5.7-2.7-1.1-5.7-1-8.3.2-2.7 1.2-4.7 3.3-5.7 6-2.2 5.5.6 11.8 6.2 14zm-3.7-13.1c.8-2 2.3-3.7 4.3-4.5 2-.9 4.2-.9 6.3-.2 4.2 1.6 6.3 6.4 4.7 10.6-.8 2.1-2.3 3.7-4.3 4.6-2 .9-4.2.9-6.3.1l-.4-.1c-1.9-.8-3.4-2.3-4.2-4.2-.9-2-.9-4.2-.1-6.3z"/></g></svg>