<svg xmlns="http://www.w3.org/2000/svg" viewBox="0 0 120 120"><defs><style>.cls-1,.cls-3{fill:none;stroke-miterlimit:10;}.cls-1{stroke:#ffc000;stroke-width:2.83px;}.cls-2{fill:#ffc000;}.cls-3{stroke:#000;stroke-linecap:round;stroke-width:2.83px;}</style></defs><title>icon-</title><g id="Ebene_2" data-name="Ebene 2"><rect class="cls-1" x="5" y="13.97" width="110" height="90" rx="5.81"/><polygon class="cls-2" points="26.74 20.46 29.91 26.88 37 27.91 31.87 32.91 33.08 39.97 26.74 36.63 20.4 39.97 21.61 32.91 16.48 27.91 23.57 26.88 26.74 20.46"/><polygon class="cls-2" points="26.74 47.63 29.91 54.05 37 55.09 31.87 60.08 33.08 67.14 26.74 63.81 20.4 67.14 21.61 60.08 16.48 55.09 23.57 54.05 26.74 47.63"/><polygon class="cls-2" points="26.74 74.81 29.91 81.23 37 82.26 31.87 87.26 33.08 94.32 26.74 90.99 20.4 94.32 21.61 87.26 16.48 82.26 23.57 81.23 26.74 74.81"/><line class="cls-3" x1="48" y1="31.67" x2="95" y2="31.67"/><line class="cls-3" x1="48" y1="59.17" x2="95" y2="59.17"/><line class="cls-3" x1="48" y1="86.67" x2="95" y2="86.67"/></g></svg>