<?xml version="1.0" encoding="utf-8"?>
<!-- Generator: Adobe Illustrator 24.0.3, SVG Export Plug-In . SVG Version: 6.00 Build 0)  -->
<svg version="1.1" id="Ebene_1" xmlns="http://www.w3.org/2000/svg" xmlns:xlink="http://www.w3.org/1999/xlink" x="0px" y="0px"
	 viewBox="0 0 250 110" style="enable-background:new 0 0 250 110;" xml:space="preserve">
<style type="text/css">
	.st0{fill:#F0F0F2;}
	.st1{fill:#FFFFFF;stroke:#668BA8;stroke-width:0.7087;stroke-miterlimit:10;}
	.st2{fill:#FFFFFF;}
	.st3{fill:#FFC000;stroke:#000000;stroke-width:0.7087;stroke-miterlimit:10;}
	.st4{fill:#FFFFFF;stroke:#000000;stroke-width:0.7087;stroke-miterlimit:10;}
	.st5{fill:#003E6E;stroke:#000000;stroke-width:0.7087;stroke-miterlimit:10;}
	.st6{fill:none;stroke:#FFFFFF;stroke-width:0.7087;stroke-miterlimit:10;}
	.st7{fill:none;stroke:#003E6E;stroke-width:0.7087;stroke-miterlimit:10;}
	.st8{fill:#FFC000;stroke:#000000;stroke-width:0.7087;stroke-linecap:round;stroke-linejoin:round;stroke-miterlimit:10;}
	.st9{fill-rule:evenodd;clip-rule:evenodd;}
	.st10{fill:#003E6E;stroke:#000000;stroke-miterlimit:10;}
	.st11{fill:#003E6E;stroke:#000000;stroke-width:0.7087;stroke-linecap:round;stroke-linejoin:round;stroke-miterlimit:10;}
	.st12{fill-rule:evenodd;clip-rule:evenodd;fill:#FFFFFF;}
	.st13{fill:#FFFFFF;stroke:#000000;stroke-miterlimit:10;}
	.st14{fill:#FFFFFF;stroke:#33658B;stroke-width:0.7087;stroke-miterlimit:10;}
	.st15{stroke:#000000;stroke-width:0.7087;stroke-miterlimit:10;}
	.st16{fill:none;stroke:#000000;stroke-width:0.7087;stroke-miterlimit:10;}
	.st17{fill:none;stroke:#000000;stroke-width:0.7087;stroke-linecap:square;stroke-linejoin:round;stroke-miterlimit:10;}
	.st18{fill:none;stroke:#999999;stroke-width:1.4173;stroke-linecap:round;stroke-linejoin:round;}
	.st19{fill:none;stroke:#999999;stroke-width:1.4173;stroke-linecap:round;stroke-linejoin:round;stroke-dasharray:0.5631,2.8157;}
	.st20{fill:#999999;}
	.st21{fill:none;stroke:#999999;stroke-width:1.4173;stroke-linecap:round;stroke-linejoin:round;stroke-dasharray:0.5887,2.9436;}
	.st22{fill:none;stroke:#999999;stroke-width:1.4173;stroke-linecap:round;stroke-linejoin:round;stroke-dasharray:0.5754,2.877;}
	.st23{fill:none;stroke:#999999;stroke-width:1.4173;stroke-linecap:round;stroke-linejoin:round;stroke-dasharray:0.5497,2.7486;}
	.st24{fill:none;stroke:#999999;stroke-width:1.4173;stroke-linecap:round;stroke-linejoin:round;stroke-dasharray:0.527,2.6351;}
	.st25{fill-rule:evenodd;clip-rule:evenodd;fill:#FCBF0B;}
	.st26{clip-path:url(#SVGID_2_);fill:#FFFFFF;}
	.st27{clip-path:url(#SVGID_2_);}
	.st28{fill:none;stroke:#999999;stroke-width:1.4173;stroke-linecap:round;stroke-linejoin:round;stroke-dasharray:0.5875,2.9373;}
	.st29{fill:none;stroke:#999999;stroke-width:1.4173;stroke-linecap:round;stroke-linejoin:round;stroke-dasharray:0.521,2.6052;}
	.st30{fill:none;stroke:#999999;stroke-width:1.4173;stroke-linecap:round;stroke-linejoin:round;stroke-dasharray:0.6255,3.1274;}
</style>
<g>
	<g>
		<circle class="st0" cx="125" cy="55" r="34.6"/>
		<path d="M125,20.7c18.9,0,34.3,15.4,34.3,34.3S143.9,89.3,125,89.3S90.7,73.9,90.7,55S106.1,20.7,125,20.7 M125,20
			c-19.3,0-35,15.7-35,35s15.7,35,35,35s35-15.7,35-35S144.3,20,125,20L125,20z"/>
	</g>
</g>
<path class="st4" d="M107.2,80.5v-6.8c0-5,4.1-9.1,9.1-9.1h17.4c5,0,9.1,4.1,9.1,9.1v6.8H107.2z"/>
<circle class="st4" cx="125" cy="51" r="9.5"/>
<polygon class="st3" points="144.5,32.8 146.6,37.5 151.7,38.3 147.9,41.8 148.6,46.9 144.2,44.3 139.6,46.6 140.6,41.6 137.1,37.9 
	142.1,37.3 "/>
<polygon class="st3" points="105.3,32.8 107.6,37.4 112.6,38.1 109,41.7 109.8,46.7 105.3,44.4 100.8,46.7 101.7,41.7 98,38.1 
	103.1,37.4 "/>
<polygon class="st3" points="125,23.8 127.3,28.4 132.3,29.1 128.7,32.7 129.5,37.7 125,35.4 120.5,37.7 121.3,32.7 117.7,29.1 
	122.7,28.4 "/>
</svg>
