<?xml version="1.0" encoding="utf-8"?>
<!-- Generator: Adobe Illustrator 27.5.0, SVG Export Plug-In . SVG Version: 6.00 Build 0)  -->
<svg version="1.1" baseProfile="tiny" id="Ebene_1" xmlns="http://www.w3.org/2000/svg" xmlns:xlink="http://www.w3.org/1999/xlink"
	 x="0px" y="0px" viewBox="0 0 30.8 29.2" overflow="visible" xml:space="preserve">
<g>
	<path fill="#FFBC00" d="M18.3,20.9c0.2,0,0.3-0.1,0.4-0.4c0.3-0.7,0.5-1.4,0.9-2c0.5-0.7,1.1-1.4,1.6-2.1c0.9-1,1.7-2.1,2.2-3.3
		c1.3-3.1,1.1-6.1-1.2-8.6c-2.1-2.4-4.8-3.3-7.9-2.8C10.7,2.2,8,5.1,7.7,9.1c-0.2,2.3,0.6,4.4,2,6.2c0.6,0.8,1.2,1.5,1.8,2.2
		c0.7,0.9,1.3,1.9,1.7,3c0.1,0.3,0.2,0.7,0.3,1c0.3,0,0.5-0.1,0.8-0.1C15.6,21.3,16.9,21.1,18.3,20.9z"/>
	<path d="M25.4,8.7c-0.2-2-0.9-3.8-2.3-5.2C20.7,1,17.7,0,14.3,0.4c-4.1,0.5-7.5,3.7-7.9,8.5c-0.2,2.6,0.6,4.9,2.1,7
		c0.6,0.8,1.3,1.5,1.9,2.3c0.8,1,1.4,2,1.7,3.3c0,0.2,0,0.3-0.1,0.4c-0.5,0.3-0.4,0.9,0.1,1.2c0.1,0,0.2,0.2,0.2,0.3
		c0,0.2,0,0.3,0,0.5c0,0.1-0.1,0.2-0.2,0.3c-0.3,0.1-0.5,0.3-0.5,0.7c0,0.3,0.2,0.5,0.6,0.6c0.1,0,0.2,0.1,0.2,0.2
		c0.1,0.3,0.1,0.7,0.2,1c0,0.2,0.1,0.3,0.2,0.4c0.2,0.2,0.3,0.5,0.6,0.7c0.4,0.4,0.8,0.8,1.3,1c0.1,0,0.1,0.1,0.2,0.1
		c0.8,0.3,1.6,0.3,2.3,0c0.8-0.3,1.6-0.9,2-1.8c0.2-0.3,0.3-0.5,0.7-0.6c0.3,0,0.5-0.3,0.5-0.6c0-0.3-0.1-0.5-0.4-0.7
		c-0.1,0-0.2-0.1-0.3-0.1c0-0.2,0-0.4,0-0.5c0-0.1,0.1-0.2,0.2-0.2c0.4-0.2,0.6-0.4,0.6-0.7c0-0.3-0.2-0.5-0.6-0.6c0,0-0.1,0-0.1,0
		c0-0.2,0-0.3,0-0.5c0-0.2,0.1-0.4,0.3-0.4c0.5-0.1,0.7-0.8,0.2-1.1c-0.2-0.1-0.2-0.2-0.1-0.4c0.4-0.7,0.7-1.4,1.2-2
		c0.4-0.6,0.9-1.1,1.4-1.7C24.5,14.4,25.7,11.8,25.4,8.7z M14.5,27.1c1.1-0.1,2.2-0.3,3.3-0.4C17.2,27.8,15.4,28,14.5,27.1z
		 M17.8,25.3c-1.2,0.2-2.4,0.3-3.6,0.5c-0.5,0.1-0.6,0-0.6-0.6c1.6-0.2,3.1-0.4,4.7-0.7C18.5,25.2,18.5,25.2,17.8,25.3z M13.6,23.8
		c0-0.3,0-0.6,0-0.9c1.6-0.2,3.1-0.4,4.8-0.7c0,0.3,0,0.5,0,0.7c0,0.1-0.2,0.2-0.3,0.2c-1,0.2-2,0.3-3,0.4
		C14.5,23.7,14.1,23.8,13.6,23.8z M23.4,13.1c-0.5,1.2-1.3,2.3-2.2,3.3c-0.6,0.7-1.2,1.3-1.6,2.1c-0.4,0.6-0.7,1.3-0.9,2
		c-0.1,0.2-0.2,0.3-0.4,0.4c-1.3,0.2-2.7,0.4-4,0.6c-0.3,0-0.5,0.1-0.8,0.1c-0.1-0.4-0.2-0.7-0.3-1c-0.3-1.1-0.9-2.1-1.7-3
		c-0.6-0.7-1.3-1.4-1.8-2.2c-1.4-1.8-2.2-3.9-2-6.2c0.3-4,3-6.9,6.7-7.4c3.1-0.4,5.9,0.4,7.9,2.8C24.5,7.1,24.7,10,23.4,13.1z"/>
	<path d="M20.7,7.1c-0.2,0.2-0.3,0.4-0.5,0.6c-0.1,0.1-0.3,0.3-0.3,0.4C20,8.4,20.1,8.7,20.3,9c0,0,0.1,0,0.2,0.1c0.2,0,0.4,0,0.5,0
		c0.4,0,0.6,0.2,0.6,0.6c0,0.3,0,0.7,0,1c0,0.4-0.2,0.7-0.6,0.6c-0.7-0.1-1,0.2-1.2,0.8c0,0.1,0,0.3,0.1,0.3
		c0.1,0.2,0.3,0.3,0.4,0.4c0.2,0.3,0.3,0.6,0,0.8c-0.3,0.3-0.5,0.6-0.8,0.8c-0.2,0.2-0.5,0.2-0.8,0c0,0,0,0-0.1,0
		c-0.4-0.6-0.9-0.6-1.4-0.3c-0.2,0.1-0.2,0.1-0.2,0.3c0,0.2,0,0.4,0,0.5c0,0.4-0.2,0.6-0.6,0.6c-0.4,0-0.7,0-1.1,0
		c-0.3,0-0.5-0.2-0.6-0.6c0,0,0,0,0,0c0.2-0.7-0.2-1.1-0.9-1.2c-0.1,0-0.2,0-0.3,0c-0.2,0.1-0.3,0.3-0.4,0.4c-0.3,0.3-0.6,0.3-0.8,0
		c-0.3-0.3-0.5-0.5-0.8-0.8c-0.2-0.3-0.2-0.6,0-0.8c0,0,0,0,0,0c0.7-0.4,0.5-0.9,0.3-1.4c-0.1-0.1-0.2-0.2-0.3-0.2
		c-0.1,0-0.1,0-0.2,0c-0.9,0-1-0.1-1-1c0-0.2,0-0.5,0-0.7c0-0.4,0.3-0.7,0.6-0.6C11.7,9,12,8.6,12.2,8c0-0.1,0-0.3-0.1-0.3
		c-0.1-0.2-0.3-0.3-0.4-0.4c-0.2-0.3-0.2-0.6,0-0.8c0.3-0.3,0.5-0.5,0.8-0.8c0.3-0.2,0.5-0.2,0.8,0c0,0,0,0,0,0
		c0.4,0.7,0.9,0.6,1.5,0.3c0.1,0,0.2-0.2,0.2-0.3c0-0.2,0-0.4,0-0.6c0-0.4,0.2-0.6,0.6-0.6c0.4,0,0.8,0,1.1,0c0.4,0,0.6,0.2,0.5,0.6
		c-0.1,0.7,0.1,1,0.8,1.2c0.2,0.1,0.3,0.1,0.5-0.1c0.7-0.7,0.8-0.7,1.5,0c0.1,0.1,0.3,0.3,0.4,0.4C20.6,6.7,20.6,6.9,20.7,7.1z
		 M18.2,10.1c0-1.3-1-2.2-2.2-2.2c-1.2,0-2.2,1-2.2,2.2c0,1.2,1,2.2,2.2,2.2C17.2,12.3,18.2,11.3,18.2,10.1z"/>
</g>
</svg>
