<svg xmlns="http://www.w3.org/2000/svg" viewBox="0 0 120 120"><defs><style>.cls-1,.cls-2{fill:none;stroke-miterlimit:10;stroke-width:2.83px;}.cls-1{stroke:#ffc000;}.cls-2{stroke:#000;}</style></defs><title>icon-</title><g id="Ebene_1" data-name="Ebene 1"><path d="M57.37,48,48.68,56.7a4.5,4.5,0,0,1-6.36-6.36L53,39.62l4,4A7.62,7.62,0,0,0,57.37,48Zm18.87,5.54-3.71,3.7a2.6,2.6,0,0,1-3.7,0L60.59,49a5.24,5.24,0,0,1-1-6l-7.5-7.49H47.75l-6.75-9L45.5,22l9,6.75v4.36l7.5,7.5a5.21,5.21,0,0,1,6,1l8.24,8.23A2.63,2.63,0,0,1,76.24,53.55Zm-29,0a1.69,1.69,0,1,0-1.69,1.69A1.68,1.68,0,0,0,47.19,53.52ZM62.59,38l-5.77-5.77A10,10,0,0,1,59.71,25a10.12,10.12,0,0,1,9.61-2.67.85.85,0,0,1,.4,1.42L64.49,29l.79,4.78,4.78.79,5.23-5.23a.84.84,0,0,1,1.41.39A10.13,10.13,0,0,1,74,39.31,10,10,0,0,1,71,41.38L69.59,40a7.36,7.36,0,0,0-5.26-2.18A7.87,7.87,0,0,0,62.59,38Z"/></g><g id="Ebene_2" data-name="Ebene 2"><rect class="cls-1" x="5" y="12.72" width="110" height="81.05" rx="5.51"/><line class="cls-1" x1="35.5" y1="113" x2="84.5" y2="113"/><path class="cls-1" d="M53.35,94a36.05,36.05,0,0,1-.73,9c-1,4-6,10-6,10"/><path class="cls-1" d="M66.65,94a36.05,36.05,0,0,0,.73,9c1,4,6,10,6,10"/><polyline class="cls-2" points="19 81 34 63 47 75 62 63 77 69 91 54 101 64"/></g></svg>