<svg id="Logos" xmlns="http://www.w3.org/2000/svg" viewBox="0 0 725 725"><path d="M600,237.71a85.4,85.4,0,0,1-20.69,12.2,258.39,258.39,0,0,1,43.09,143.14C622.41,536.37,505.81,653,362.5,653S102.59,536.37,102.59,393.05c0-139,109.73-252.9,247.13-259.59a130.3,130.3,0,0,1-5.22-23.72C196.32,119.05,78.6,242.56,78.6,393.05,78.6,549.6,206,677,362.5,677S646.4,549.6,646.4,393.05A282.25,282.25,0,0,0,600,237.71Z"/><path d="M601.21,392.17c0,131.74-106.8,238.54-238.54,238.54S124.13,523.91,124.13,392.17s106.8-238.54,238.54-238.54c29.76,0,66.26-.55,92.54,9.41,27.75,10.52,45,32.07,66.72,51.54A238,238,0,0,1,601.21,392.17Z" style="fill:#ffc000;fill-rule:evenodd"/><ellipse cx="413.51" cy="600.12" rx="12.98" ry="12.95" transform="translate(-146.27 133.45) rotate(-15.61)"/><ellipse cx="442.99" cy="572.46" rx="14.52" ry="14.49" transform="translate(-137.74 140.37) rotate(-15.61)"/><ellipse cx="473.39" cy="526.09" rx="17.62" ry="17.57" transform="translate(-124.13 146.84) rotate(-15.61)"/><ellipse cx="484.65" cy="471.46" rx="19.16" ry="19.11" transform="translate(-109.01 147.85) rotate(-15.61)"/><ellipse cx="446.25" cy="420.86" rx="22.25" ry="22.2" transform="translate(-96.81 135.65) rotate(-15.61)"/><ellipse cx="306.24" cy="247.84" rx="14.04" ry="14" transform="translate(-55.41 91.58) rotate(-15.61)"/><ellipse cx="305.83" cy="302.27" rx="17.64" ry="17.59" transform="translate(-70.07 93.47) rotate(-15.61)"/><ellipse cx="329" cy="347.26" rx="19.44" ry="19.39" transform="translate(-81.33 101.37) rotate(-15.61)"/><ellipse cx="382.06" cy="380.91" rx="23.04" ry="22.98" transform="translate(-88.43 116.9) rotate(-15.61)"/><ellipse cx="358.29" cy="604.73" rx="12.01" ry="11.99" transform="translate(-149.55 118.76) rotate(-15.61)"/><ellipse cx="389.4" cy="575.61" rx="13.44" ry="13.41" transform="translate(-140.56 126.06) rotate(-15.61)"/><ellipse cx="412.83" cy="535.52" rx="16.31" ry="16.27" transform="translate(-128.91 130.88) rotate(-15.61)"/><ellipse cx="420.19" cy="483" rx="17.74" ry="17.69" transform="translate(-114.5 130.93) rotate(-15.61)"/><ellipse cx="379.35" cy="441.26" rx="20.6" ry="20.55" transform="translate(-104.77 118.39) rotate(-15.61)"/><ellipse cx="266.12" cy="286.23" rx="12.55" ry="12.52" transform="translate(-67.22 82.19) rotate(-15.61)"/><ellipse cx="253.09" cy="332.19" rx="15.77" ry="15.73" transform="matrix(0.96, -0.27, 0.27, 0.96, -80.07, 80.38)"/><ellipse cx="282.81" cy="373.8" rx="17.38" ry="17.34" transform="translate(-90.18 89.92) rotate(-15.61)"/><ellipse cx="328.33" cy="407.94" rx="20.6" ry="20.55" transform="translate(-97.69 103.43) rotate(-15.61)"/><ellipse cx="315.37" cy="595.62" rx="9.83" ry="9.81" transform="translate(-148.68 106.87) rotate(-15.61)"/><ellipse cx="347.28" cy="572.53" rx="11.01" ry="10.98" transform="translate(-141.29 114.61) rotate(-15.61)"/><ellipse cx="362.19" cy="540.15" rx="13.35" ry="13.32" transform="translate(-132.02 117.43) rotate(-15.61)"/><ellipse cx="368.22" cy="497.15" rx="14.52" ry="14.48" transform="matrix(0.96, -0.27, 0.27, 0.96, -120.23, 117.46)"/><ellipse cx="333.62" cy="463.24" rx="16.86" ry="16.82" transform="translate(-112.38 106.89) rotate(-15.61)"/><ellipse cx="237" cy="375.75" rx="12.91" ry="12.88" transform="translate(-92.39 77.66) rotate(-15.61)"/><ellipse cx="255.66" cy="411.54" rx="14.23" ry="14.19" transform="translate(-101.34 84) rotate(-15.61)"/><ellipse cx="292.09" cy="439.92" rx="16.86" ry="16.82" transform="translate(-107.63 94.86) rotate(-15.61)"/><ellipse cx="345.95" cy="296.7" rx="10.13" ry="10.1" transform="translate(-67.09 104.07) rotate(-15.61)"/><path d="M504.47,154.67a31,31,0,0,1,7.29-36.51A31,31,0,0,1,504.47,154.67Z" style="fill:#fff;fill-rule:evenodd"/><path d="M376.15,197.76a55.36,55.36,0,0,0-4.32,20.32l50.11,41A54.91,54.91,0,0,0,441,250.76Z"/><path d="M370.61,270.69c16-6.36,22.61-7.6,30.6-8.6L373,239C373.59,247,373.67,253.77,370.61,270.69Z"/><path d="M464.27,221.08a477.73,477.73,0,0,0-14.83-46.82,473.86,473.86,0,0,0-48.81-5.21A61.94,61.94,0,0,0,384,184.18l68.72,56.18A62.42,62.42,0,0,0,464.27,221.08Z"/><path d="M457.51,116.26a31,31,0,0,0,34.34-14.42A31,31,0,0,0,457.51,116.26Z" style="fill:none"/><path d="M524.11,232.6a5.13,5.13,0,0,0-4.75,5.41l0,1.05c38.65-.83,64.63-4.67,67.5-22.11,1.05-16.62-34.68-37.53-87.79-51.8a36.71,36.71,0,0,0,13.24-10.22,34.9,34.9,0,0,0,3.5-5.1,36.07,36.07,0,0,0,4.59-21.62,35.45,35.45,0,0,0-3.35-12l.38-.2,0,0,8.28-4a2.67,2.67,0,1,0-2.35-4.8l-9,4.38a36.76,36.76,0,0,0-16.55-13.53l2.5-9.67a2.67,2.67,0,0,0-5.17-1.34L493,95.7l-.17.69a36.77,36.77,0,0,0-12.39-.88,36.81,36.81,0,0,0-31.85,27.77c-6.37-12.71-43.24-81.36-67.34-74.8-21.88,6-11.12,56.63-8.61,70.61l1-.16a5.17,5.17,0,0,0,4.39-5.72c-.95-7.22-2.18-18.85-1.58-28.74.77-13,4.56-17.93,9.6-18.27,15.69-1.08,39.61,36.88,46.65,49.11a378.65,378.65,0,0,1,19.6,39.88c-76.93-12.41-141.95-5.24-145.42,16.1-2.18,13.38,20.62,30,56.76,43.09l.35-2.5a5.07,5.07,0,0,0-3.13-5.47c-24.28-10-38.69-17.11-37.76-26.8,2.43-14.91,60.63-25.56,128.5-14.47l5.08.84c.63,1.6,1.25,3.22,1.85,4.83,24.36,64.3,25.51,123.46,11.37,128.8-9.31,2.84-19.13-9.87-33.77-31.68a5.08,5.08,0,0,0-6-2l-2.37.83c20,32.83,40.83,51.87,53.51,47.06,20.21-7.66,14.32-72.78-13.15-145.71,52.58,10.65,92.73,29.1,99.82,45.2C574.36,227.81,539.44,231.47,524.11,232.6Zm-66.6-116.34a31,31,0,0,1,34.34-14.42A31,31,0,0,1,457.51,116.26Zm47,38.39a31,31,0,0,1,7.29-36.51A31,31,0,0,1,504.49,154.65Z"/><path d="M457.51,116.26a31,31,0,0,1,34.34-14.42A31,31,0,0,1,457.51,116.26Z" style="fill:#fff;fill-rule:evenodd"/><path d="M376.12,117.68a4.63,4.63,0,0,0,2-4.76c-2-15.24-5.3-50.19,10.14-46.83,17.19,3.75,43.15,39.7,64,89.1-27.3-4.41-47.27-5.95-69.51-6.08C376.87,126.1,376.21,121.51,376.12,117.68Z" style="fill:#fff;fill-rule:evenodd"/><path d="M469.68,299.74c-9.31,2.83-19.13-9.88-33.77-31.68a5.07,5.07,0,0,0-2.64-2c13-3.76,27.25-18.57,34.64-31.84a.71.71,0,0,1,.12-.2.22.22,0,0,1,.05-.1c3.08-5.05,5-9.44,5.18-12C482.11,263.85,479.92,295.93,469.68,299.74Z" style="fill:#fff;fill-rule:evenodd"/><path d="M488.05,235.51c-4.1-21.7-10.14-41.47-19.89-67.35,52.57,10.65,92.73,29.1,99.81,45.2,6.37,14.47-28.54,18.13-43.88,19.26-2.71.19-2.88,1.16-4.25,2.93C516.06,236.22,511.79,236.77,488.05,235.51Z" style="fill:#fff;fill-rule:evenodd"/><path d="M398.79,160.59c-2.46.67-6.38,3.44-10.71,7.46a.21.21,0,0,1-.1.07.49.49,0,0,1-.16.16c-11.54,9.88-23.22,26.81-24.32,40.28a5,5,0,0,0-2.5-2.18c-24.28-10-38.69-17.11-37.76-26.8C324.93,168.79,355.93,160.26,398.79,160.59Z" style="fill:#fff;fill-rule:evenodd"/></svg>