<?xml version="1.0" encoding="utf-8"?>
<!-- Generator: Adobe Illustrator 27.5.0, SVG Export Plug-In . SVG Version: 6.00 Build 0)  -->
<svg version="1.1" baseProfile="tiny" id="Ebene_1" xmlns="http://www.w3.org/2000/svg" xmlns:xlink="http://www.w3.org/1999/xlink"
	 x="0px" y="0px" viewBox="0 0 30.8 29.2" overflow="visible" xml:space="preserve">
<g>
	<circle fill="#FFC32A" cx="22.1" cy="8.9" r="2.9"/>
	<g id="_x30_MSIpv.tif_00000011016066178113901650000018066469508562562188_">
		<g>
			<path d="M18.9,17.8c-0.4,0-0.8,0.1-1.1,0.1c-0.3,0-0.7,0-1,0.1c-0.2,0-0.2,0-0.3,0.2c-0.4,1.3-1.4,2.1-2.8,2.1
				c-0.7,0-1.4,0-2.1,0c-0.5,0-0.6-0.2-0.7-0.6c0-0.8,0-1.5,0-2.3c0-1.2,0.9-2.3,2.1-2.6c0.1,0,0.2-0.1,0.2-0.2
				c0.1-0.7,0.1-1.4,0.2-2c0,0,0-0.1,0-0.1c-0.1,0-0.2,0-0.3,0c-1.2,0-2.5,0-3.7,0c-0.6,0-0.8-0.3-0.6-0.9c0.7-1.8,1.4-3.6,2.2-5.4
				c0.2-0.4,0.3-0.5,0.7-0.5c1.6,0,3.2,0,4.8,0c0.2,0,0.3-0.1,0.4-0.2c2.3-2.4,5-3.9,8.3-4.4c1.5-0.2,3-0.2,4.5,0.1
				C30,1,30.2,1.2,30.3,1.5c0.8,5-0.7,9.3-4.4,12.9c-0.1,0.1-0.2,0.3-0.2,0.5c0,1.6,0,3.2,0,4.7c0,0.5-0.1,0.6-0.6,0.8
				c-1.8,0.7-3.6,1.4-5.4,2.1c-0.5,0.2-0.9,0-0.9-0.6c0-1.2,0-2.5,0-3.7C18.9,18.1,18.9,18,18.9,17.8z M29.4,4
				c0-0.6-0.1-1.2-0.1-1.8c0-0.2-0.1-0.3-0.3-0.3c-1.2-0.2-2.5-0.2-3.7,0c-3.4,0.6-6.1,2.2-8.3,4.9c-1.8,2.3-2.7,5-2.7,7.9
				c0,0.1,0,0.2,0.1,0.3c0.6,0.6,1.1,1.1,1.7,1.7c0.1,0.1,0.2,0.1,0.3,0.1c0.8-0.1,1.5-0.1,2.3-0.2C24.9,15.6,29.4,10.2,29.4,4z
				 M10,11.2c0.1,0,0.2,0,0.3,0c1,0,2,0,3.1,0c0.2,0,0.3-0.1,0.4-0.3c0.4-1.5,1-2.8,1.9-4.1c0-0.1,0.1-0.1,0.1-0.2
				c-0.1,0-0.1,0-0.2,0c-1.2,0-2.4,0-3.5,0c-0.2,0-0.2,0.1-0.3,0.2c-0.4,1-0.8,2.1-1.3,3.1C10.3,10.4,10.2,10.8,10,11.2z M24.6,15.4
				c-0.1,0-0.1,0.1-0.2,0.1c-1.3,0.9-2.7,1.5-4.2,2c-0.2,0-0.2,0.1-0.2,0.3c0,1.1,0,2.1,0,3.2c0,0.1,0,0.2,0,0.2
				c0.1,0,0.1,0,0.2-0.1c1.4-0.6,2.8-1.1,4.2-1.7c0.2-0.1,0.2-0.2,0.2-0.4c0-1.1,0-2.2,0-3.4C24.6,15.6,24.6,15.6,24.6,15.4z
				 M13,19.2C13,19.2,13,19.2,13,19.2c0.3,0,0.6,0,1,0c0.7-0.1,1.3-0.6,1.5-1.3c0-0.1,0-0.3-0.1-0.4c-0.5-0.6-1.1-1.1-1.6-1.6
				c-0.1-0.1-0.2-0.2-0.4-0.1c-0.7,0.2-1.2,0.8-1.2,1.5c0,0.6,0,1.1,0,1.7c0,0.2,0.1,0.2,0.2,0.2C12.5,19.2,12.7,19.2,13,19.2z"/>
			<path d="M25.7,8.9c0,1.9-1.5,3.4-3.4,3.4c-1.9,0-3.4-1.6-3.4-3.5c0-1.8,1.6-3.3,3.4-3.3C24.2,5.5,25.7,7,25.7,8.9z M24.6,8.9
				c0-1.3-1-2.3-2.3-2.3c-1.3,0-2.3,1-2.3,2.3c0,1.3,1,2.3,2.3,2.3C23.6,11.2,24.6,10.2,24.6,8.9z"/>
		</g>
	</g>
	<g>
		<path d="M6.5,18.1c-0.2,0.1-0.4,0.3-0.5,0.4c-0.4,0.3-0.9,0.7-1.3,1c-0.5,0.4-1.1,0.8-1.6,1.3c-0.5,0.4-0.9,0.7-1.4,1.1
			c-0.2,0.2-0.4,0.3-0.7,0.5c0,0,0,0,0,0c-0.1,0.1-0.2,0.3-0.2,0.5c0,0.2,0.1,0.3,0.2,0.5c0.1,0.1,0.3,0.2,0.5,0.2
			c0.1,0,0.1,0,0.2,0c0.1,0,0.2-0.1,0.3-0.2c0.2-0.1,0.4-0.3,0.5-0.4c0.4-0.3,0.9-0.7,1.3-1c0.5-0.4,1.1-0.8,1.6-1.3
			c0.5-0.4,0.9-0.7,1.4-1.1C7,19.4,7.2,19.2,7.4,19c0,0,0,0,0,0c0.1-0.1,0.2-0.3,0.2-0.5c0-0.2-0.1-0.3-0.2-0.5
			C7.3,18,7.2,17.9,7,17.9c-0.1,0-0.1,0-0.2,0C6.7,18,6.6,18,6.5,18.1L6.5,18.1z"/>
	</g>
	<g>
		<path d="M11,23.1c-0.2,0.1-0.4,0.3-0.5,0.4c-0.4,0.3-0.9,0.7-1.3,1c-0.5,0.4-1.1,0.8-1.6,1.3c-0.5,0.4-0.9,0.7-1.4,1.1
			C6,27,5.8,27.2,5.6,27.4c0,0,0,0,0,0c-0.1,0.1-0.2,0.3-0.2,0.5c0,0.2,0.1,0.3,0.2,0.5c0.1,0.1,0.3,0.2,0.5,0.2c0.1,0,0.1,0,0.2,0
			c0.1,0,0.2-0.1,0.3-0.2C6.7,28.2,6.8,28,7,27.9c0.4-0.3,0.9-0.7,1.3-1c0.5-0.4,1.1-0.8,1.6-1.3c0.5-0.4,0.9-0.7,1.4-1.1
			c0.2-0.2,0.4-0.3,0.7-0.5c0,0,0,0,0,0c0.1-0.1,0.2-0.3,0.2-0.5c0-0.2-0.1-0.3-0.2-0.5c-0.1-0.1-0.3-0.2-0.5-0.2
			c-0.1,0-0.1,0-0.2,0C11.2,22.9,11.1,23,11,23.1L11,23.1z"/>
	</g>
	<g>
		<path d="M8.9,20.5c-0.1,0.1-0.2,0.1-0.2,0.2c-0.2,0.2-0.4,0.3-0.6,0.5c-0.3,0.2-0.6,0.5-0.9,0.7c-0.4,0.3-0.7,0.6-1.1,0.9
			c-0.4,0.3-0.8,0.7-1.2,1c-0.4,0.3-0.8,0.7-1.2,1c-0.4,0.3-0.8,0.6-1.1,0.9c-0.3,0.3-0.6,0.5-1,0.8c-0.2,0.2-0.5,0.4-0.7,0.6
			c-0.1,0.1-0.2,0.2-0.3,0.3c0,0,0,0,0,0c-0.1,0.1-0.2,0.3-0.2,0.5c0,0.2,0.1,0.3,0.2,0.5c0.1,0.1,0.3,0.2,0.5,0.2
			c0.1,0,0.1,0,0.2,0c0.1,0,0.2-0.1,0.3-0.2c0.1-0.1,0.2-0.1,0.2-0.2C1.8,28,2,27.8,2.3,27.6c0.3-0.2,0.6-0.5,0.9-0.7
			c0.4-0.3,0.7-0.6,1.1-0.9c0.4-0.3,0.8-0.7,1.2-1c0.4-0.3,0.8-0.7,1.2-1c0.4-0.3,0.8-0.6,1.1-0.9c0.3-0.3,0.6-0.5,1-0.8
			c0.2-0.2,0.5-0.4,0.7-0.6c0.1-0.1,0.2-0.2,0.3-0.3c0,0,0,0,0,0C9.9,21.3,10,21.1,10,21c0-0.2-0.1-0.3-0.2-0.5
			c-0.1-0.1-0.3-0.2-0.5-0.2c-0.1,0-0.1,0-0.2,0C9.1,20.4,9,20.4,8.9,20.5L8.9,20.5z"/>
	</g>
</g>
</svg>
