<?xml version="1.0" encoding="utf-8"?>
<!-- Generator: Adobe Illustrator 24.0.3, SVG Export Plug-In . SVG Version: 6.00 Build 0)  -->
<svg version="1.1" id="Ebene_1" xmlns="http://www.w3.org/2000/svg" xmlns:xlink="http://www.w3.org/1999/xlink" x="0px" y="0px"
	 viewBox="0 0 92 92" style="enable-background:new 0 0 92 92;" xml:space="preserve">
<style type="text/css">
	.st0{fill:#FFFFFF;}
	.st1{fill:#FFFFFF;stroke:#000000;stroke-width:2.126;stroke-miterlimit:10;}
	.st2{fill:#FFC000;stroke:#000000;stroke-width:2.126;stroke-miterlimit:10;}
	.st3{fill:none;stroke:#000000;stroke-width:2.126;stroke-miterlimit:10;}
	.st4{fill:#FFC000;stroke:#000000;stroke-width:2.126;stroke-linecap:round;stroke-linejoin:round;stroke-miterlimit:10;}
	.st5{fill-rule:evenodd;clip-rule:evenodd;}
	.st6{fill:#FFC000;}
</style>
<g>
	<g>
		<circle class="st0" cx="46" cy="46" r="44.3"/>
		<path class="st0" d="M46,2.4C70,2.4,89.6,22,89.6,46S70,89.6,46,89.6S2.4,70,2.4,46S22,2.4,46,2.4 M46,1C21.1,1,1,21.1,1,46
			s20.1,45,45,45s45-20.1,45-45S70.9,1,46,1L46,1z"/>
	</g>
</g>
<g transform="translate(0,-952.36218)">
	<path class="st2" d="M53.4,976.2c-6.8,0-11.8,3.9-14.1,8.6c-0.7,1.4-2.4,1.9-3.7,1.2c-2.8-1.4-6.2-1.2-8.9,0.4
		c-2.6,1.6-4.6,4.5-4.6,9.2c0,1.3-1,2.5-2.3,2.7c-5,0.8-8.8,6-8.8,11.1c0,6.2,4.7,11.1,12.9,11.1H69c6.6,0,12-5.3,12-12
		c0-5.8-4.2-10.7-9.6-11.8c-1.4-0.3-2.4-1.6-2.2-3C70,985,63.2,976.2,53.4,976.2z"/>
</g>
</svg>
