<?xml version="1.0" encoding="utf-8"?>
<!-- Generator: Adobe Illustrator 24.0.3, SVG Export Plug-In . SVG Version: 6.00 Build 0)  -->
<svg version="1.1" id="Ebene_1" xmlns="http://www.w3.org/2000/svg" xmlns:xlink="http://www.w3.org/1999/xlink" x="0px" y="0px"
	 viewBox="0 0 92 92" style="enable-background:new 0 0 92 92;" xml:space="preserve">
<style type="text/css">
	.st0{fill:#FFFFFF;}
	.st1{fill:#FFFFFF;stroke:#000000;stroke-width:2.126;stroke-miterlimit:10;}
	.st2{fill:#FFC000;stroke:#000000;stroke-width:2.126;stroke-miterlimit:10;}
	.st3{fill:none;stroke:#000000;stroke-width:2.126;stroke-miterlimit:10;}
	.st4{fill:#FFC000;stroke:#000000;stroke-width:2.126;stroke-linecap:round;stroke-linejoin:round;stroke-miterlimit:10;}
	.st5{fill-rule:evenodd;clip-rule:evenodd;}
	.st6{fill:#FFC000;}
</style>
<g>
	<g>
		<g>
			<circle class="st0" cx="46" cy="46" r="44.3"/>
			<path class="st0" d="M46,2.4C70,2.4,89.6,22,89.6,46S70,89.6,46,89.6S2.4,70,2.4,46S22,2.4,46,2.4 M46,1C21.1,1,1,21.1,1,46
				s20.1,45,45,45s45-20.1,45-45S70.9,1,46,1L46,1z"/>
		</g>
	</g>
	<g>
		<circle class="st2" cx="19" cy="31" r="4.2"/>
		<circle class="st2" cx="19" cy="61.7" r="4.2"/>
		<circle class="st2" cx="45.8" cy="46.2" r="4.2"/>
		<circle class="st2" cx="45.8" cy="19" r="4.2"/>
		<circle class="st2" cx="45.8" cy="73.8" r="4.2"/>
		<line class="st1" x1="42.3" y1="44.1" x2="23.2" y2="32.8"/>
		<line class="st1" x1="41.6" y1="19.7" x2="23.2" y2="28.5"/>
		<line class="st1" x1="42.3" y1="48.7" x2="22.9" y2="59.3"/>
		<line class="st1" x1="19.3" y1="34.9" x2="19.3" y2="57.9"/>
		<line class="st1" x1="45.8" y1="23.2" x2="45.8" y2="42"/>
		<line class="st1" x1="45.8" y1="50.4" x2="45.8" y2="69.2"/>
		<line class="st1" x1="43" y1="22.5" x2="21.5" y2="58.2"/>
		<line class="st1" x1="41.6" y1="72.7" x2="23.2" y2="63.9"/>
		<circle class="st2" cx="73" cy="31" r="4.2"/>
		<circle class="st2" cx="73" cy="61.7" r="4.2"/>
		<line class="st1" x1="49.7" y1="44.1" x2="68.8" y2="32.8"/>
		<line class="st1" x1="50.4" y1="19.7" x2="68.8" y2="28.5"/>
		<line class="st1" x1="49.7" y1="48.7" x2="69.1" y2="59.3"/>
		<line class="st1" x1="72.7" y1="34.9" x2="72.7" y2="57.9"/>
		<line class="st1" x1="49" y1="22.5" x2="70.6" y2="58.2"/>
		<line class="st1" x1="50.4" y1="72.7" x2="68.8" y2="63.9"/>
	</g>
</g>
</svg>
