<svg id="Icon" xmlns="http://www.w3.org/2000/svg" viewBox="0 0 200 200"><defs><style>.cls-1{fill:none;stroke:#fff;stroke-miterlimit:10;stroke-width:4.25px;}</style></defs><title>hivemq-set</title><polygon class="cls-1" points="100.59 7.73 20.02 55.3 22.34 150.11 102.73 196.5 184.59 147.94 184.59 56.46 100.59 7.73"/><polyline class="cls-1" points="20.02 55.3 83.49 91.09 101.79 80.32 119.69 91.09 182.59 55.3"/><polyline class="cls-1" points="103.01 196.78 101.3 122.91 83.33 112.01 83.49 91.09"/><polyline class="cls-1" points="119.73 91 119.69 110.98 101.3 122.91"/><polyline class="cls-1" points="83.73 112.5 101.79 101.67 119.73 110.5"/><line class="cls-1" x1="101.73" y1="81" x2="101.79" y2="101.67"/><polygon class="cls-1" points="100.4 25.47 84.32 34.58 84.32 53.31 100.59 62.76 116.5 52.81 116.5 34.58 100.4 25.47"/></svg>