<?xml version="1.0" encoding="utf-8"?>
<!-- Generator: Adobe Illustrator 24.0.3, SVG Export Plug-In . SVG Version: 6.00 Build 0)  -->
<svg version="1.1" id="Ebene_1" xmlns="http://www.w3.org/2000/svg" xmlns:xlink="http://www.w3.org/1999/xlink" x="0px" y="0px"
	 viewBox="0 0 250 110" style="enable-background:new 0 0 250 110;" xml:space="preserve">
<style type="text/css">
	.st0{fill:#F0F0F2;}
	.st1{fill:#FFFFFF;stroke:#668BA8;stroke-width:0.7087;stroke-miterlimit:10;}
	.st2{fill:#FFFFFF;}
	.st3{fill:#FFC000;stroke:#000000;stroke-width:0.7087;stroke-miterlimit:10;}
	.st4{fill:#FFFFFF;stroke:#000000;stroke-width:0.7087;stroke-miterlimit:10;}
	.st5{fill:#003E6E;stroke:#000000;stroke-width:0.7087;stroke-miterlimit:10;}
	.st6{fill:none;stroke:#FFFFFF;stroke-width:0.7087;stroke-miterlimit:10;}
	.st7{fill:none;stroke:#003E6E;stroke-width:0.7087;stroke-miterlimit:10;}
	.st8{fill:#FFC000;stroke:#000000;stroke-width:0.7087;stroke-linecap:round;stroke-linejoin:round;stroke-miterlimit:10;}
	.st9{fill-rule:evenodd;clip-rule:evenodd;}
	.st10{fill:#003E6E;stroke:#000000;stroke-miterlimit:10;}
	.st11{fill:#003E6E;stroke:#000000;stroke-width:0.7087;stroke-linecap:round;stroke-linejoin:round;stroke-miterlimit:10;}
	.st12{fill-rule:evenodd;clip-rule:evenodd;fill:#FFFFFF;}
	.st13{fill:#FFFFFF;stroke:#000000;stroke-miterlimit:10;}
	.st14{fill:#FFFFFF;stroke:#33658B;stroke-width:0.7087;stroke-miterlimit:10;}
	.st15{stroke:#000000;stroke-width:0.7087;stroke-miterlimit:10;}
	.st16{fill:none;stroke:#000000;stroke-width:0.7087;stroke-miterlimit:10;}
	.st17{fill:none;stroke:#000000;stroke-width:0.7087;stroke-linecap:square;stroke-linejoin:round;stroke-miterlimit:10;}
	.st18{fill:none;stroke:#999999;stroke-width:1.4173;stroke-linecap:round;stroke-linejoin:round;}
	.st19{fill:none;stroke:#999999;stroke-width:1.4173;stroke-linecap:round;stroke-linejoin:round;stroke-dasharray:0.5631,2.8157;}
	.st20{fill:#999999;}
	.st21{fill:none;stroke:#999999;stroke-width:1.4173;stroke-linecap:round;stroke-linejoin:round;stroke-dasharray:0.5887,2.9436;}
	.st22{fill:none;stroke:#999999;stroke-width:1.4173;stroke-linecap:round;stroke-linejoin:round;stroke-dasharray:0.5754,2.877;}
	.st23{fill:none;stroke:#999999;stroke-width:1.4173;stroke-linecap:round;stroke-linejoin:round;stroke-dasharray:0.5497,2.7486;}
	.st24{fill:none;stroke:#999999;stroke-width:1.4173;stroke-linecap:round;stroke-linejoin:round;stroke-dasharray:0.527,2.6351;}
	.st25{fill-rule:evenodd;clip-rule:evenodd;fill:#FCBF0B;}
	.st26{clip-path:url(#SVGID_2_);fill:#FFFFFF;}
	.st27{clip-path:url(#SVGID_2_);}
	.st28{fill:none;stroke:#999999;stroke-width:1.4173;stroke-linecap:round;stroke-linejoin:round;stroke-dasharray:0.5875,2.9373;}
	.st29{fill:none;stroke:#999999;stroke-width:1.4173;stroke-linecap:round;stroke-linejoin:round;stroke-dasharray:0.521,2.6052;}
	.st30{fill:none;stroke:#999999;stroke-width:1.4173;stroke-linecap:round;stroke-linejoin:round;stroke-dasharray:0.6255,3.1274;}
</style>
<g>
	<g>
		<g>
			<circle class="st0" cx="84" cy="54" r="44.6"/>
			<path d="M84,9.7c24.4,0,44.3,19.9,44.3,44.3S108.4,98.3,84,98.3S39.7,78.4,39.7,54S59.6,9.7,84,9.7 M84,9C59.1,9,39,29.1,39,54
				s20.1,45,45,45s45-20.1,45-45S108.9,9,84,9L84,9z"/>
		</g>
	</g>
	<g>
		<path class="st1" d="M59,49.4V38.6c0-4.2,3.4-7.6,7.6-7.6h33.7c4.2,0,7.6,3.4,7.6,7.6v33.7c0,4.2-3.7,7.7-7.9,7.7H90"/>
	</g>
</g>
<g>
	<g>
		<g>
			<path d="M167,9.7c24.4,0,44.3,19.9,44.3,44.3S191.4,98.3,167,98.3S122.7,78.4,122.7,54S142.6,9.7,167,9.7 M167,9
				c-24.9,0-45,20.1-45,45s20.1,45,45,45s45-20.1,45-45S191.9,9,167,9L167,9z"/>
		</g>
	</g>
</g>
<path class="st14" d="M77,80h13c3.1,0,5.1-2.6,5.1-5.7V49.4c0-3.1-2.5-5.6-5.6-5.6H64.6c-3.1,0-5.6,2.5-5.6,5.6V62"/>
<path class="st3" d="M77.1,80H62.4c-1.8,0-3.4-1.2-3.4-3V62c0-1.8,1.6-3.4,3.4-3.4h14.8c1.8,0,3.3,1.5,3.3,3.3v14.8
	C80.5,78.5,79,80,77.1,80z"/>
<g>
	<g>
		<g>
			<polygon points="72.3,71.9 75.5,63.5 67.1,66.7 			"/>
		</g>
		<line class="st15" x1="62.8" y1="76.2" x2="70.5" y2="68.5"/>
	</g>
</g>
<g>
	<path class="st16" d="M142.6,78.4c3.7,3.7,9.7,3.7,13.3,0l9-9c2.7-2.7,3.4-6.7,2.1-10l-5.8,5.8c-0.1,0.1-0.2,0.2-0.3,0.3l-9,9
		c-1.5,1.5-4,1.5-5.5,0l-0.4-0.4c-1.5-1.5-1.5-4,0-5.5l9-9c0.2-0.2,0.4-0.4,0.7-0.5l5.5-5.5c-3.4-1.3-7.4-0.6-10.1,2.1l-9,9
		c-3.7,3.7-3.7,9.7,0,13.3L142.6,78.4z"/>
	<path class="st16" d="M182.2,52.2l9-9c3.7-3.7,3.7-9.7,0-13.3l-0.4-0.4c-3.7-3.7-9.7-3.7-13.3,0l-9,9c-2.7,2.7-3.4,6.7-2.1,10
		l5.8-5.8c0.1-0.1,0.2-0.2,0.3-0.3l9-9c1.5-1.5,4-1.5,5.5,0l0.4,0.4c1.5,1.5,1.5,4,0,5.5l-9,9c-0.1,0.1-0.2,0.2-0.4,0.3l-5.7,5.7
		C175.5,55.6,179.5,54.9,182.2,52.2z"/>
	<path class="st3" d="M155.3,59.5c-1.4,1.4-1.4,3.6,0,5l0.8,0.8c1.4,1.4,3.6,1.4,5,0l0.2-0.2c0,0,0,0,0,0l5.8-5.8v0L178,48.4
		c1.4-1.4,1.4-3.6,0-5l-0.8-0.8c-1.4-1.4-3.6-1.4-5,0l-10.9,10.9l-5.5,5.5L155.3,59.5z"/>
</g>
</svg>
