<?xml version="1.0" encoding="utf-8"?>
<!-- Generator: Adobe Illustrator 24.0.3, SVG Export Plug-In . SVG Version: 6.00 Build 0)  -->
<svg version="1.1" id="Ebene_1" xmlns="http://www.w3.org/2000/svg" xmlns:xlink="http://www.w3.org/1999/xlink" x="0px" y="0px"
	 viewBox="0 0 250 123" style="enable-background:new 0 0 250 123;" xml:space="preserve">
<style type="text/css">
	.st0{fill:#F0F0F2;}
	.st1{fill:#FFFFFF;stroke:#668BA8;stroke-width:0.7087;stroke-miterlimit:10;}
	.st2{fill:#FFFFFF;}
	.st3{fill:#FFC000;stroke:#000000;stroke-width:0.7087;stroke-miterlimit:10;}
	.st4{fill:#FFFFFF;stroke:#000000;stroke-width:0.7087;stroke-miterlimit:10;}
	.st5{fill:#003E6E;stroke:#000000;stroke-width:0.7087;stroke-miterlimit:10;}
	.st6{fill:none;stroke:#FFFFFF;stroke-width:0.7087;stroke-miterlimit:10;}
	.st7{fill:none;stroke:#003E6E;stroke-width:0.7087;stroke-miterlimit:10;}
	.st8{fill:#FFC000;stroke:#000000;stroke-width:0.7087;stroke-linecap:round;stroke-linejoin:round;stroke-miterlimit:10;}
	.st9{fill-rule:evenodd;clip-rule:evenodd;}
	.st10{fill:#003E6E;stroke:#000000;stroke-miterlimit:10;}
	.st11{fill:#003E6E;stroke:#000000;stroke-width:0.7087;stroke-linecap:round;stroke-linejoin:round;stroke-miterlimit:10;}
	.st12{fill-rule:evenodd;clip-rule:evenodd;fill:#FFFFFF;}
	.st13{fill:#FFFFFF;stroke:#000000;stroke-miterlimit:10;}
	.st14{fill:#FFFFFF;stroke:#33658B;stroke-width:0.7087;stroke-miterlimit:10;}
	.st15{stroke:#000000;stroke-width:0.7087;stroke-miterlimit:10;}
	.st16{fill:none;stroke:#000000;stroke-width:0.7087;stroke-miterlimit:10;}
	.st17{fill:none;stroke:#000000;stroke-width:0.7087;stroke-linecap:square;stroke-linejoin:round;stroke-miterlimit:10;}
	.st18{fill:none;stroke:#999999;stroke-width:1.4173;stroke-linecap:round;stroke-linejoin:round;}
	.st19{fill:none;stroke:#999999;stroke-width:1.4173;stroke-linecap:round;stroke-linejoin:round;stroke-dasharray:0.5631,2.8157;}
	.st20{fill:#999999;}
	.st21{fill:none;stroke:#999999;stroke-width:1.4173;stroke-linecap:round;stroke-linejoin:round;stroke-dasharray:0.5887,2.9436;}
	.st22{fill:none;stroke:#999999;stroke-width:1.4173;stroke-linecap:round;stroke-linejoin:round;stroke-dasharray:0.5754,2.877;}
	.st23{fill:none;stroke:#999999;stroke-width:1.4173;stroke-linecap:round;stroke-linejoin:round;stroke-dasharray:0.5497,2.7486;}
	.st24{fill:none;stroke:#999999;stroke-width:1.4173;stroke-linecap:round;stroke-linejoin:round;stroke-dasharray:0.527,2.6351;}
	.st25{fill-rule:evenodd;clip-rule:evenodd;fill:#FCBF0B;}
	.st26{clip-path:url(#SVGID_2_);fill:#FFFFFF;}
	.st27{clip-path:url(#SVGID_2_);}
	.st28{fill:none;stroke:#999999;stroke-width:1.4173;stroke-linecap:round;stroke-linejoin:round;stroke-dasharray:0.5875,2.9373;}
	.st29{fill:none;stroke:#999999;stroke-width:1.4173;stroke-linecap:round;stroke-linejoin:round;stroke-dasharray:0.521,2.6052;}
	.st30{fill:none;stroke:#999999;stroke-width:1.4173;stroke-linecap:round;stroke-linejoin:round;stroke-dasharray:0.6255,3.1274;}
</style>
<g>
	<g>
		<g>
			
				<ellipse transform="matrix(0.2298 -0.9732 0.9732 0.2298 -13.3816 113.0675)" class="st2" cx="64.7" cy="65" rx="48.4" ry="48.4"/>
			<path d="M64.7,17c26.5,0,48,21.5,48,48s-21.5,48-48,48s-48-21.5-48-48S38.3,17,64.7,17 M64.7,16.2C37.8,16.2,16,38.1,16,65
				s21.8,48.7,48.7,48.7s48.7-21.8,48.7-48.7S91.7,16.2,64.7,16.2L64.7,16.2z"/>
		</g>
	</g>
	<g>
		<g>
			<path class="st3" d="M95.3,40.5H31.4c-1.3,0-2.4,1.1-2.4,2.4v34c0,1.3,1.1,2.4,2.4,2.4h64c1.3,0,2.4-1.1,2.4-2.4V42.7
				C97.7,41.4,96.6,40.5,95.3,40.5z"/>
		</g>
		<path class="st4" d="M65.7,84.1c0,6.9,3.8,13.2,7.5,13.2h1.4v4.3H52.1v-4.3h1.4c3.7,0,7.5-6.3,7.5-13.2H65.7z"/>
		<polyline class="st6" points="33.4,71 44.3,61.2 50,65.4 60.1,58.9 69.6,60.5 78.6,53.3 85.8,56.7 93.3,49.2 		"/>
		<polyline class="st7" points="33.4,74 44.3,64.2 50,68.4 60.1,52.9 69.6,63.5 78.6,56.3 85.8,59.7 93.3,56.2 		"/>
	</g>
</g>
<g>
	<g id="Robot_2_">
		<g>
			<path class="st11" d="M158,106.4l2-8.4l-9.5-9.5c-1.2-1.2-1.2-3.1,0-4.3c0.5-0.5,1.1-0.8,1.7-0.8l8.2-8.2c0.5-0.5,1.2-0.8,2-0.8
				s1.5,0.3,2,0.8c0.6,0.6,0.9,1.4,0.8,2.2l4.3,3.7h5.6l1.7,7.5l-0.8,0.4l-3.1-4.6h-2.5c-0.1,0.4-0.3,0.6-0.5,0.9
				c-0.3,0.3-0.7,0.5-1.1,0.6v2.5l4.6,3.1l-0.3,0.8l-7.5-1.8l0.7-5.3l-3.6-4.1l-5.5,5.5l7.7,7.7h1.9l2.8,12L158,106.4L158,106.4z"/>
		</g>
	</g>
	<path class="st12" d="M168.1,82.2c0.1,0,0.1,0,0.2,0c0.1,0,0.2,0.1,0.3,0.1c0,0,0,0,0.1,0c0.1,0.1,0.2,0.1,0.2,0.2c0,0,0,0,0.1,0.1
		c0.1,0.1,0.1,0.2,0.2,0.3c0,0,0,0,0,0.1c0.1,0.1,0.1,0.2,0.1,0.4c0,0.6-0.5,1.1-1.1,1.1c0,0,0,0-0.1,0c-0.1,0-0.2,0-0.3-0.1
		c0,0,0,0-0.1,0c-0.1-0.1-0.2-0.1-0.3-0.2c0,0,0,0-0.1-0.1s-0.1-0.1-0.2-0.2c0,0,0,0,0-0.1c-0.1-0.1-0.1-0.2-0.1-0.3
		c0-0.1,0-0.1,0-0.2C167,82.6,167.5,82.2,168.1,82.2z"/>
	<path class="st12" d="M162.3,76.4c0.7,0,1.2,0.6,1.2,1.2c0,0.7-0.6,1.2-1.2,1.2c-0.7,0-1.2-0.6-1.2-1.2
		C161,76.9,161.6,76.4,162.3,76.4z"/>
	<path class="st12" d="M153.1,88.2c-0.9,0-1.6-0.7-1.6-1.6s0.7-1.6,1.6-1.6c0.9,0,1.6,0.7,1.6,1.6S154,88.2,153.1,88.2z"/>
	<path class="st12" d="M163.4,98.9c-0.7,0-1.2-0.6-1.2-1.2c0-0.7,0.6-1.2,1.2-1.2c0.7,0,1.2,0.6,1.2,1.2
		C164.7,98.3,164.1,98.9,163.4,98.9z"/>
	<path class="st13" d="M172.5,114h-17.7c-0.7,0-1.1-0.5-1.1-1.1l0.6-2.8c0-0.7,0.5-1.1,1.1-1.1h16.5c0.7,0,1.1,0.5,1.1,1.1l0.6,2.8
		C173.6,113.5,173.2,114,172.5,114z"/>
</g>
<g>
	<path class="st11" d="M235.1,62.3h-36.2l-1.6,1.7c0,0,3.5,0.7,4.5,1.3c2.6,1.4,4.1,4.2,4.1,4.2h23c0,0,0-1.4,1.5-2.9
		c1.4-1.5,6.6-2.2,6.6-2.2L235.1,62.3z"/>
	<path class="st16" d="M235.4,62.5h3c0.6,0,1.1-0.5,1.1-1.1c0-2-1.7-3.7-3.7-3.7h-1.6c-0.7,0-1.4,0.5-1.5,1.2"/>
	<path class="st16" d="M207.3,53c-2,0-5.2,4.4-6,6s-2.7,3.6-2.7,3.6c-1.6,1.3-2.5,3.2-2.5,5.3V80c0,0.9,0.7,1.6,1.6,1.6h4.8
		c0.9,0,1.6-0.7,1.6-1.6v-2.1h26V80c0,0.9,0.7,1.6,1.6,1.6h4.8c0.9,0,1.6-0.7,1.6-1.6V67.8c0-2.1-0.9-4-2.5-5.3c0,0-1.9-1.9-2.7-3.6
		c-0.9-1.6-4-6-6-6H207.3z"/>
	<path class="st16" d="M198.5,62.5h-3c-0.6,0-1.1-0.5-1.1-1.1c0-2,1.7-3.7,3.7-3.7h1.6c0.7,0,1.4,0.5,1.5,1.2"/>
	<path class="st17" d="M229.2,67.9c1.5-2.4,3.3-3.3,7.2-3.4"/>
	<path class="st17" d="M197.5,64.5c3.9,0.2,5.7,1,7.2,3.4"/>
	<path class="st11" d="M204.7,68l-1.1,0.8c-0.8,0.6-1.7,0.9-2.7,0.9c-0.3,0-0.7,0-1-0.1l-3.9-0.9v6.3h0c0,1.5,1.3,2.8,2.8,2.8h5
		l0.6-0.8c0.9-1.3,2.4-2,4-2h17.1c1.6,0,3.1,0.7,4,2l0.6,0.8h5c1.5,0,2.8-1.3,2.8-2.8h0v-6.3l-3.9,0.9c-0.3,0.1-0.7,0.1-1,0.1
		c-1,0-1.9-0.3-2.7-0.9l-1.1-0.8C228.9,68.4,205.1,68.4,204.7,68z"/>
</g>
<g>
	<path class="st3" d="M164.5,52.4c-5,0-9-3.9-9-8.7c0-2.7,1.3-5.3,3.6-7l0.8-0.6v-11h9.3v11l0.8,0.6c2.2,1.6,3.6,4.2,3.6,7
		C173.5,48.4,169.5,52.4,164.5,52.4z"/>
	<path class="st16" d="M164.5,54.3c-6.1,0-11-4.8-11-10.7c0-3.4,1.6-6.5,4.4-8.5V15.2c0-2.9,2.5-5.3,5.5-5.3h2.3
		c3,0,5.5,2.4,5.5,5.3v19.9c2.7,2,4.4,5.2,4.4,8.5C175.5,49.5,170.6,54.3,164.5,54.3z"/>
	<line class="st16" x1="163.5" y1="33.6" x2="171.2" y2="33.6"/>
	<line class="st16" x1="163.5" y1="28" x2="171.2" y2="28"/>
	<line class="st16" x1="163.5" y1="22.3" x2="171.2" y2="22.3"/>
	<line class="st16" x1="163.5" y1="16.7" x2="171.2" y2="16.7"/>
	<path class="st16" d="M164.5,54.3c-6.1,0-11-4.8-11-10.7c0-3.4,1.6-6.5,4.4-8.5V15.2c0-2.9,2.5-5.3,5.5-5.3h2.3
		c3,0,5.5,2.4,5.5,5.3v19.9c2.7,2,4.4,5.2,4.4,8.5C175.5,49.5,170.6,54.3,164.5,54.3z"/>
</g>
<g>
	<g>
		<line class="st18" x1="120" y1="66.2" x2="120.2" y2="66.2"/>
		<line class="st19" x1="123.1" y1="66.2" x2="179.1" y2="66.2"/>
		<line class="st18" x1="180.5" y1="66.2" x2="180.8" y2="66.2"/>
		<g>
			<polygon class="st20" points="120.5,68 117.4,66.2 120.5,64.5 			"/>
		</g>
		<g>
			<polygon class="st20" points="183.3,66.2 179.8,67.7 180.6,66.2 179.8,64.8 			"/>
		</g>
	</g>
</g>
<g>
	<g>
		<line class="st18" x1="119" y1="45.5" x2="119.3" y2="45.3"/>
		<line class="st21" x1="121.9" y1="44.1" x2="139.8" y2="35.8"/>
		<line class="st18" x1="141.2" y1="35.2" x2="141.4" y2="35.1"/>
		<g>
			<polygon class="st20" points="120.2,46.8 116.7,46.5 118.7,43.6 			"/>
		</g>
		<g>
			<polygon class="st20" points="143.7,34 141.1,36.8 141.3,35.2 139.9,34.2 			"/>
		</g>
	</g>
</g>
<g>
	<g>
		<line class="st18" x1="117.3" y1="88.7" x2="117.6" y2="88.8"/>
		<line class="st21" x1="120.3" y1="89.8" x2="138.8" y2="96.6"/>
		<line class="st18" x1="140.2" y1="97.2" x2="140.5" y2="97.3"/>
		<g>
			<polygon class="st20" points="117.2,90.6 114.9,87.8 118.4,87.2 			"/>
		</g>
		<g>
			<polygon class="st20" points="142.8,98.1 139,98.2 140.3,97.2 140,95.5 			"/>
		</g>
	</g>
</g>
</svg>
