<?xml version="1.0" encoding="utf-8"?>
<!-- Generator: Adobe Illustrator 24.0.3, SVG Export Plug-In . SVG Version: 6.00 Build 0)  -->
<svg version="1.1" id="Ebene_1" xmlns="http://www.w3.org/2000/svg" xmlns:xlink="http://www.w3.org/1999/xlink" x="0px" y="0px"
	 viewBox="0 0 250 110" style="enable-background:new 0 0 250 110;" xml:space="preserve">
<style type="text/css">
	.st0{fill:#F0F0F2;}
	.st1{fill:#FFFFFF;stroke:#668BA8;stroke-width:0.7087;stroke-miterlimit:10;}
	.st2{fill:#FFFFFF;}
	.st3{fill:#FFC000;stroke:#000000;stroke-width:0.7087;stroke-miterlimit:10;}
	.st4{fill:#FFFFFF;stroke:#000000;stroke-width:0.7087;stroke-miterlimit:10;}
	.st5{fill:#003E6E;stroke:#000000;stroke-width:0.7087;stroke-miterlimit:10;}
	.st6{fill:none;stroke:#FFFFFF;stroke-width:0.7087;stroke-miterlimit:10;}
	.st7{fill:none;stroke:#003E6E;stroke-width:0.7087;stroke-miterlimit:10;}
	.st8{fill:#FFC000;stroke:#000000;stroke-width:0.7087;stroke-linecap:round;stroke-linejoin:round;stroke-miterlimit:10;}
	.st9{fill-rule:evenodd;clip-rule:evenodd;}
	.st10{fill:#003E6E;stroke:#000000;stroke-miterlimit:10;}
	.st11{fill:#003E6E;stroke:#000000;stroke-width:0.7087;stroke-linecap:round;stroke-linejoin:round;stroke-miterlimit:10;}
	.st12{fill-rule:evenodd;clip-rule:evenodd;fill:#FFFFFF;}
	.st13{fill:#FFFFFF;stroke:#000000;stroke-miterlimit:10;}
	.st14{fill:#FFFFFF;stroke:#33658B;stroke-width:0.7087;stroke-miterlimit:10;}
	.st15{stroke:#000000;stroke-width:0.7087;stroke-miterlimit:10;}
	.st16{fill:none;stroke:#000000;stroke-width:0.7087;stroke-miterlimit:10;}
	.st17{fill:none;stroke:#000000;stroke-width:0.7087;stroke-linecap:square;stroke-linejoin:round;stroke-miterlimit:10;}
	.st18{fill:none;stroke:#999999;stroke-width:1.4173;stroke-linecap:round;stroke-linejoin:round;}
	.st19{fill:none;stroke:#999999;stroke-width:1.4173;stroke-linecap:round;stroke-linejoin:round;stroke-dasharray:0.5631,2.8157;}
	.st20{fill:#999999;}
	.st21{fill:none;stroke:#999999;stroke-width:1.4173;stroke-linecap:round;stroke-linejoin:round;stroke-dasharray:0.5887,2.9436;}
	.st22{fill:none;stroke:#999999;stroke-width:1.4173;stroke-linecap:round;stroke-linejoin:round;stroke-dasharray:0.5754,2.877;}
	.st23{fill:none;stroke:#999999;stroke-width:1.4173;stroke-linecap:round;stroke-linejoin:round;stroke-dasharray:0.5497,2.7486;}
	.st24{fill:none;stroke:#999999;stroke-width:1.4173;stroke-linecap:round;stroke-linejoin:round;stroke-dasharray:0.527,2.6351;}
	.st25{fill-rule:evenodd;clip-rule:evenodd;fill:#FCBF0B;}
	.st26{clip-path:url(#SVGID_2_);fill:#FFFFFF;}
	.st27{clip-path:url(#SVGID_2_);}
	.st28{fill:none;stroke:#999999;stroke-width:1.4173;stroke-linecap:round;stroke-linejoin:round;stroke-dasharray:0.5875,2.9373;}
	.st29{fill:none;stroke:#999999;stroke-width:1.4173;stroke-linecap:round;stroke-linejoin:round;stroke-dasharray:0.521,2.6052;}
	.st30{fill:none;stroke:#999999;stroke-width:1.4173;stroke-linecap:round;stroke-linejoin:round;stroke-dasharray:0.6255,3.1274;}
</style>
<g>
	<g>
		<circle class="st0" cx="81" cy="56" r="44.6"/>
		<path d="M81,11.7c24.4,0,44.3,19.9,44.3,44.3s-19.9,44.3-44.3,44.3S36.7,80.4,36.7,56S56.6,11.7,81,11.7 M81,11
			c-24.9,0-45,20.1-45,45s20.1,45,45,45s45-20.1,45-45S105.9,11,81,11L81,11z"/>
	</g>
</g>
<g>
	<g>
		<path d="M162,11.7c24.4,0,44.3,19.9,44.3,44.3s-19.9,44.3-44.3,44.3S117.7,80.4,117.7,56S137.6,11.7,162,11.7 M162,11
			c-24.9,0-45,20.1-45,45s20.1,45,45,45s45-20.1,45-45S186.9,11,162,11L162,11z"/>
	</g>
</g>
<g>
	<g id="Robot_1_">
		<g>
			<path class="st8" d="M153.1,76.6l3.3-14.1l-16-16c-2-2-2-5.2,0-7.2c0.8-0.8,1.8-1.3,2.9-1.4L157.2,24c0.9-0.9,2.1-1.4,3.4-1.4
				s2.5,0.5,3.4,1.4c1,1,1.5,2.3,1.4,3.7l7.2,6.2h9.5l2.9,12.6l-1.3,0.6l-5.3-7.7h-4.2c-0.2,0.6-0.5,1-0.9,1.5
				c-0.5,0.5-1.1,0.8-1.8,1v4.3l7.7,5.3l-0.5,1.3l-12.7-3l1.1-8.9l-6-7l-9.3,9.3l13,13h3.2l4.8,20.3L153.1,76.6L153.1,76.6z"/>
		</g>
	</g>
	<path class="st9" d="M170.1,35.7c0.1,0,0.2,0,0.3,0c0.2,0,0.4,0.1,0.5,0.2c0,0,0,0,0.1,0c0.2,0.1,0.3,0.2,0.4,0.3c0,0,0,0,0.1,0.1
		c0.1,0.1,0.2,0.3,0.3,0.5c0,0,0,0,0,0.1c0.1,0.2,0.1,0.4,0.1,0.6c0,1-0.8,1.8-1.8,1.8c0,0,0,0-0.1,0c-0.2,0-0.4,0-0.5-0.1
		c0,0,0,0-0.1,0c-0.2-0.1-0.3-0.2-0.5-0.3c0,0,0,0-0.1-0.1c-0.1-0.1-0.2-0.2-0.3-0.4c0,0,0,0,0-0.1c-0.1-0.2-0.2-0.3-0.2-0.5
		c0-0.1,0-0.2,0-0.4C168.2,36.5,169.1,35.7,170.1,35.7z"/>
	<path class="st9" d="M160.4,25.9c1.2,0,2.1,1,2.1,2.1c0,1.2-1,2.1-2.1,2.1c-1.2,0-2.1-1-2.1-2.1C158.1,26.8,159.1,25.9,160.4,25.9z
		"/>
	<path class="st9" d="M144.8,45.9c-1.5,0-2.7-1.2-2.7-2.7s1.2-2.7,2.7-2.7s2.7,1.2,2.7,2.7S146.2,45.9,144.8,45.9z"/>
	<path class="st9" d="M162.1,63.9c-1.2,0-2.1-1-2.1-2.1c0-1.2,1-2.1,2.1-2.1c1.2,0,2.1,1,2.1,2.1C164.4,62.9,163.4,63.9,162.1,63.9z
		"/>
	<path class="st10" d="M177.6,89.4h-29.9c-1.1,0-1.9-0.9-1.9-1.9l1-4.8c0-1.1,0.9-1.9,1.9-1.9h27.8c1.1,0,1.9,0.9,1.9,1.9l1,4.8
		C179.4,88.5,178.6,89.4,177.6,89.4z"/>
</g>
<g>
	<path class="st4" d="M94.7,54.4l-6.5,5.3V46.9c0-0.4-0.3-0.8-0.8-0.8c-0.2,0-0.4,0.1-0.5,0.2L70.4,59.8V46.9c0-0.3-0.2-0.6-0.4-0.7
		c-0.3-0.1-0.6-0.1-0.8,0.1L51.3,60.8C51.1,61,51,61.2,51,61.4v18.3c0,0.4,0.4,0.8,0.8,0.8h53.3c0.4,0,0.8-0.4,0.8-0.8V46.9
		c0-0.3-0.2-0.6-0.4-0.7c-0.3-0.1-0.6-0.1-0.8,0.1l-2.7,2.2L94.7,54.4z M102,48.5l-0.7-13.7l0,0l-0.2-5.1c0-0.4-0.4-0.7-0.8-0.7
		h-3.6c-0.4,0-0.8,0.3-0.8,0.7l-1.2,24.7"/>
	<line class="st16" x1="95.5" y1="35" x2="101.2" y2="35"/>
	<path class="st8" d="M95.5,35h5.7l0.1-0.2l0,0l-0.2-5.1c0-0.4-0.4-0.7-0.8-0.7h-3.6c-0.4,0-0.8,0.3-0.8,0.7l-0.3,4.4L95.5,35z"/>
	<rect x="73.5" y="71.5" class="st5" width="12" height="9"/>
</g>
</svg>
