<svg version="1.0" xmlns="http://www.w3.org/2000/svg" viewBox="0 0 102 102"><path fill="#FFC000" d="M100 28.1c0-4.5-3.7-8.2-8.2-8.2-2.7 0-5.2 1.4-6.6 3.5L59 11.9c.1-.6.2-1.1.2-1.7C59.2 5.7 55.5 2 51 2s-8.2 3.7-8.2 8.2c0 .6.1 1.2.2 1.7L16.8 23.4c-1.5-2.1-3.9-3.5-6.6-3.5C5.7 20 2 23.6 2 28.1c0 3.9 2.8 7.2 6.5 8v29.7c-3.7.8-6.5 4.1-6.5 8 0 4.5 3.7 8.2 8.2 8.2 2.7 0 5.2-1.4 6.6-3.5L43 90.1c-.1.6-.2 1.1-.2 1.7 0 4.5 3.7 8.2 8.2 8.2s8.2-3.7 8.2-8.2c0-.6-.1-1.2-.2-1.7l26.2-11.5c1.5 2.1 3.9 3.5 6.6 3.5 4.5 0 8.2-3.7 8.2-8.2 0-3.9-2.8-7.2-6.5-8V36.1c3.7-.7 6.5-4 6.5-8zM88.9 66.3L72.6 40.8l13.1-7.3c1.2 1.3 2.7 2.3 4.5 2.7v29.7c-.5.1-.9.2-1.3.4zm-3.2 2.3l-27-15.1c.3-.8.4-1.6.4-2.5s-.2-1.7-.4-2.5l11-6.1L86.1 68c-.1.2-.3.4-.4.6zM55.3 53.4c-.4.8-1.1 1.4-1.8 1.8h-.1c-.3.2-.6.3-1 .4-.1 0-.1 0-.2.1-.4.1-.8.2-1.2.2s-.8-.1-1.2-.2c-.1 0-.1 0-.2-.1-.3-.1-.7-.2-1-.4h-.1c-.7-.4-1.3-1.1-1.8-1.8-.4-.7-.6-1.5-.6-2.4s.2-1.7.6-2.4c.4-.8 1.1-1.4 1.8-1.8h.1c.3-.2.7-.3 1-.4.1 0 .1 0 .2-.1.4-.1.8-.2 1.2-.2s.8.1 1.2.2c.1 0 .1 0 .2.1.3.1.7.2 1 .4h.1c.7.4 1.3 1.1 1.8 1.8.4.7.6 1.5.6 2.3 0 1-.2 1.8-.6 2.5zM11.8 65.9V36.1c1.8-.4 3.4-1.3 4.5-2.7l13.1 7.3-16.3 25.6c-.4-.2-.8-.3-1.3-.4zm4.1 2.1l16.4-25.6 11 6.1c-.3.8-.4 1.6-.4 2.5s.2 1.7.4 2.5l-27 15.1c-.1-.2-.3-.4-.4-.6zm41.2-22.4c-.2-.2-.3-.4-.5-.5-.2-.2-.5-.4-.8-.6-.2-.1-.3-.2-.5-.3-.3-.2-.6-.4-1-.5-.1-.1-.3-.1-.4-.2-.4-.2-.8-.3-1.2-.4h-.1V18.2h.1c.4-.1.8-.2 1.2-.4l14 21.9-10.8 6v-.1zm-7.9-27.5h.1V43h-.1c-.4.1-.8.2-1.2.4-.1.1-.3.1-.4.2-.3.2-.7.3-1 .5-.2.1-.3.2-.5.3-.3.2-.5.4-.8.6l-.5.5-.1.1-10.8-6 14-21.9c.5.2.9.3 1.3.4zm42.6 5.1c2.7 0 4.9 2.2 4.9 4.9S94.5 33 91.8 33c-1.8 0-3.4-1-4.2-2.5-.2-.4-.4-.7-.5-1.1v-.1c-.1-.4-.2-.8-.2-1.2 0-.7.1-1.3.4-2 .8-1.7 2.5-2.9 4.5-2.9zm-34.1-8.3l26.2 11.5v.2c-.1.5-.2 1-.2 1.5s.1 1 .1 1.4c0 .2.1.5.2.7 0 .1 0 .2.1.4L70.8 38 56.7 16l.2-.2c.3-.3.5-.6.8-.9zM51 5.3c2.7 0 4.9 2.2 4.9 4.9 0 .7-.2 1.4-.4 2l-.3.6c-.2.1-.2.2-.3.3-.1.1-.2.3-.3.4l-.2.2-.4.4-.2.2c-.3.2-.7.4-1.1.5-.1 0-.2.1-.3.1-.2 0-.3.1-.5.1h-1.5c-.2 0-.3-.1-.5-.1-.1 0-.2-.1-.3-.1-.4-.1-.8-.3-1.1-.5-.1 0-.1-.1-.2-.2-.2-.1-.3-.2-.4-.4l-.2-.2c-.1-.1-.2-.2-.3-.4-.4-.1-.4-.2-.5-.3l-.3-.6c-.3-.6-.4-1.3-.4-2-.1-2.7 2.1-4.9 4.8-4.9zM18.1 26.4l26.2-11.5c.2.3.5.6.8.9l.2.2-14.1 22-13.3-7.4c0-.1.1-.2.1-.4.1-.2.1-.5.2-.7.1-.5.1-1 .1-1.4 0-.5-.1-1-.2-1.5.1-.1.1-.1 0-.2.1 0 0 0 0 0zM5.3 28.1c0-2.7 2.2-4.9 4.9-4.9 2 0 3.7 1.2 4.5 2.9.3.6.4 1.3.4 2 0 .4-.1.8-.2 1.2v.1c-.1.4-.3.8-.5 1.1C13.6 32 12 33 10.2 33c-2.7 0-4.9-2.2-4.9-4.9zm4.9 50.7c-2.7 0-4.9-2.2-4.9-4.9S7.5 69 10.2 69c1 0 1.9.3 2.6.8.3.2.7.5.9.8l.1.1c.2.2.4.5.6.8v.1c.2.4.4.7.5 1.1v.1c.1.4.2.8.2 1.2 0 .7-.1 1.3-.4 2-.8 1.6-2.5 2.8-4.5 2.8zm34.1 8.3L18.1 75.6v-.2c.1-.5.2-1 .2-1.5s-.1-1-.1-1.4v-.2c0-.2-.1-.3-.1-.5 0-.1 0-.2-.1-.4l26.9-15.1.1.1c.2.2.3.4.5.5.2.2.5.4.8.6.2.1.3.2.5.3.3.2.6.4 1 .5.1.1.3.1.4.2.4.2.8.3 1.2.4h.1v24.8h-.1c-.4.1-.9.2-1.3.4-.1 0-.2.1-.3.1-.4.2-.8.4-1.1.6 0 0-.1 0-.1.1-.4.3-.7.5-1 .9l-.2.2c-.6.5-.8.8-1.1 1.1zm6.7 9.6c-2.7 0-4.9-2.2-4.9-4.9 0-.7.2-1.4.4-2l.3-.6c.1-.1.1-.2.2-.3.1-.1.2-.3.3-.4l.2-.2.4-.4.2-.2c.2-.1.5-.3.7-.4.1 0 .2-.1.3-.1.2-.1.4-.1.6-.2.1 0 .2 0 .3-.1.3-.1.6-.1.9-.1.3 0 .6 0 .9.1.1 0 .2 0 .3.1.2 0 .4.1.6.2.1 0 .2.1.3.1.2.1.5.2.7.4.1 0 .1.1.2.2.2.1.3.2.4.4l.2.2c.1.1.2.3.3.4.1.1.1.2.2.3l.3.6c.3.6.4 1.3.4 2 .2 2.7-2 4.9-4.7 4.9zm32.9-21.1L57.7 87.1c-.2-.3-.5-.6-.8-.9l-.2-.2c-.3-.3-.7-.6-1-.9 0 0-.1 0-.1-.1-.4-.2-.7-.4-1.1-.6-.1 0-.2-.1-.3-.1-.4-.2-.8-.3-1.3-.4h-.1V59h.1c.4-.1.8-.2 1.2-.4.1-.1.3-.1.4-.2.3-.2.7-.3 1-.5.2-.1.3-.2.5-.3.3-.2.5-.4.8-.6l.5-.5.1-.1 26.9 15.1c0 .1-.1.2-.1.4s-.1.3-.1.5v.2c-.1.5-.1.9-.1 1.4 0 .5.1 1 .2 1.5-.4 0-.4 0-.3.1-.1 0 0 0 0 0zm12.8-1.7c0 2.7-2.2 4.9-4.9 4.9-2 0-3.7-1.2-4.5-2.9-.3-.6-.4-1.3-.4-2 0-.4.1-.8.2-1.2v-.1c.1-.4.3-.8.5-1.1v-.1c.2-.3.3-.5.6-.8l.1-.1c.3-.3.6-.5.9-.8.8-.5 1.7-.8 2.6-.8 2.7.1 4.9 2.3 4.9 5z"/></svg>