<?xml version="1.0" encoding="utf-8"?>
<!-- Generator: Adobe Illustrator 24.0.1, SVG Export Plug-In . SVG Version: 6.00 Build 0)  -->
<svg version="1.1" id="Ebene_1" xmlns="http://www.w3.org/2000/svg" xmlns:xlink="http://www.w3.org/1999/xlink" x="0px" y="0px"
	 viewBox="0 0 45.4 45.2" style="enable-background:new 0 0 45.4 45.2;" xml:space="preserve">
<style type="text/css">
	.st0{fill:#FFC000;}
	.st1{fill:#FFFFFF;}
</style>
<g>
	<path class="st0" d="M31.2,5.5v17c0,1.6-1.3,2.8-2.8,2.8H3.9c-1.6,0-2.8-1.3-2.8-2.8v-17c0-1.6,1.3-2.8,2.8-2.8h24.5
		C30,2.7,31.2,3.9,31.2,5.5z M3.9,5.5v2.4c1.3,1.1,3.4,2.8,7.9,6.3c1,0.8,3,2.7,4.3,2.6c1.4,0,3.3-1.9,4.3-2.6
		c4.5-3.5,6.6-5.2,7.9-6.3V5.5H3.9z M28.4,22.5V11.5c-1.4,1.1-3.3,2.6-6.2,4.9c-1.3,1-3.6,3.3-6.1,3.2c-2.5,0-4.8-2.2-6.1-3.2
		c-2.9-2.3-4.8-3.8-6.2-4.9v10.9H28.4z"/>
</g>
<path class="st1" d="M34.3,32.7H11.4c-1.1,0-2-0.9-2-2V13.8c0-1.1,0.9-2,2-2h22.9c1.1,0,2,0.9,2,2v16.9
	C36.3,31.8,35.4,32.7,34.3,32.7z"/>
<g>
	<path class="st0" d="M38.2,13.5v17c0,1.6-1.3,2.8-2.8,2.8H10.9c-1.6,0-2.8-1.3-2.8-2.8v-17c0-1.6,1.3-2.8,2.8-2.8h24.5
		C37,10.7,38.2,11.9,38.2,13.5z M10.9,13.5v2.4c1.3,1.1,3.4,2.8,7.9,6.3c1,0.8,3,2.7,4.3,2.6c1.4,0,3.3-1.9,4.3-2.6
		c4.5-3.5,6.6-5.2,7.9-6.3v-2.4H10.9z M35.4,30.5V19.5c-1.4,1.1-3.3,2.6-6.2,4.9c-1.3,1-3.6,3.3-6.1,3.2c-2.5,0-4.8-2.2-6.1-3.2
		c-2.9-2.3-4.8-3.8-6.2-4.9v10.9H35.4z"/>
</g>
<path class="st1" d="M40.3,40.7H17.4c-1.1,0-2-0.9-2-2V21.8c0-1.1,0.9-2,2-2h22.9c1.1,0,2,0.9,2,2v16.9
	C42.3,39.8,41.4,40.7,40.3,40.7z"/>
<g>
	<path class="st0" d="M44.2,21.5v17c0,1.6-1.3,2.8-2.8,2.8H16.9c-1.6,0-2.8-1.3-2.8-2.8v-17c0-1.6,1.3-2.8,2.8-2.8h24.5
		C43,18.7,44.2,19.9,44.2,21.5z M16.9,21.5v2.4c1.3,1.1,3.4,2.8,7.9,6.3c1,0.8,3,2.7,4.3,2.6c1.4,0,3.3-1.9,4.3-2.6
		c4.5-3.5,6.6-5.2,7.9-6.3v-2.4H16.9z M41.4,38.5V27.5c-1.4,1.1-3.3,2.6-6.2,4.9c-1.3,1-3.6,3.3-6.1,3.2c-2.5,0-4.8-2.2-6.1-3.2
		c-2.9-2.3-4.8-3.8-6.2-4.9v10.9H41.4z"/>
</g>
</svg>
