<svg version="1.0" xmlns="http://www.w3.org/2000/svg" viewBox="0 0 102 102"><path d="M80.1 93.3l-16.8-7.7c-.5-.2-.9-.8-.9-1.3v-4.6l-6.2 3c-1.6.8-3.4 1.2-5.2 1.2s-3.6-.4-5.2-1.2l-6.2-3v4.6c0 .6-.4 1.1-.9 1.3l-16.8 7.7-.6.2-.6-.2-16.9-7.8c-.5-.2-.9-.8-.9-1.3V65.4c0-.6.4-1.1.9-1.3l15-6.9V40.6c0-4.7 2.7-9 6.8-11l6-2.8v-9c0-.6.4-1.1.9-1.3l16.9-7.8c.2-.1.4-.1.6-.1.2 0 .4 0 .6.1l16.9 7.7c.5.2.9.8.9 1.3v8.8l7.5 3.1c4.5 1.9 7.4 6.3 7.3 11.2v16.3L98.1 64c.5.2.9.8.9 1.3v18.8c0 .6-.4 1.1-.9 1.3l-16.8 7.7-.6.2h-.6zm2.1-19.2v15.5l13.9-6.4V67.7l-13.9 6.4zm-16.8 9.1l13.9 6.4V74.1l-13.8-6.4-.1 15.5zm-42.6-9.1v15.5l13.9-6.4V67.7l-13.9 6.4zM6 83.2l13.9 6.4V74.1L6 67.8v15.4zm21-50.8c-3.2 1.5-5.2 4.7-5.2 8.2v15.7l17.1 7.8c.5.2.9.8.9 1.3v10.8l7.5 3.6c1.2.6 2.6.9 3.9.9 1.3 0 2.7-.3 3.9-.9l7.4-3.6V65.4c0-.6.4-1.1.9-1.3l17-7.9V40.9c0-3.6-2.2-6.9-5.5-8.3l-6.4-2.7v6.7c0 .6-.4 1.1-.9 1.3l-16.8 7.7-.6.2-.6-.2-16.8-7.7c-.5-.2-.9-.8-.9-1.3v-6.4L27 32.4zm40.5 33l13.3 6.2 13.3-6.2-13.3-6.1-13.3 6.1zm-59.6 0l13.4 6.2 13.3-6.2-13.3-6.1-13.4 6.1zm26.7-29.8L48.5 42V26.5l-13.9-6.3v15.4zm16.9-9.1V42l14-6.4V20.2l-14 6.3zm-14.8-8.7L50 24l13.3-6.2L50 11.7l-13.3 6.1z"/></svg>