<?xml version="1.0" encoding="utf-8"?>
<!-- Generator: Adobe Illustrator 24.0.3, SVG Export Plug-In . SVG Version: 6.00 Build 0)  -->
<svg version="1.1" id="Ebene_1" xmlns="http://www.w3.org/2000/svg" xmlns:xlink="http://www.w3.org/1999/xlink" x="0px" y="0px"
	 viewBox="0 0 92 92" style="enable-background:new 0 0 92 92;" xml:space="preserve">
<style type="text/css">
	.st0{fill:#FFFFFF;}
	.st1{fill:#FFFFFF;stroke:#000000;stroke-width:2.126;stroke-miterlimit:10;}
	.st2{fill:#FFC000;stroke:#000000;stroke-width:2.126;stroke-miterlimit:10;}
	.st3{fill:none;stroke:#000000;stroke-width:2.126;stroke-miterlimit:10;}
	.st4{fill:#FFC000;stroke:#000000;stroke-width:2.126;stroke-linecap:round;stroke-linejoin:round;stroke-miterlimit:10;}
	.st5{fill-rule:evenodd;clip-rule:evenodd;}
	.st6{fill:#FFC000;}
</style>
<g>
	<g>
		<g>
			<circle class="st0" cx="46" cy="46" r="44.3"/>
			<path class="st0" d="M46,2.4C70,2.4,89.6,22,89.6,46S70,89.6,46,89.6S2.4,70,2.4,46S22,2.4,46,2.4 M46,1C21.1,1,1,21.1,1,46
				s20.1,45,45,45s45-20.1,45-45S70.9,1,46,1L46,1z"/>
		</g>
	</g>
	<g>
		<path class="st1" d="M21,41.4V30.6c0-4.2,3.4-7.6,7.6-7.6h33.7c4.2,0,7.6,3.4,7.6,7.6v33.7c0,4.2-3.7,7.7-7.9,7.7H52"/>
		<path class="st2" d="M39.1,72H24.4c-1.8,0-3.4-1.2-3.4-3V54c0-1.8,1.6-3.4,3.4-3.4h14.8c1.8,0,3.3,1.5,3.3,3.3v14.8
			C42.5,70.5,41,72,39.1,72z"/>
	</g>
	<g>
		<g>
			<g>
				<polygon points="34.3,63.9 37.5,55.5 29.1,58.7 				"/>
			</g>
			<line class="st1" x1="24.8" y1="68.2" x2="32.5" y2="60.5"/>
		</g>
	</g>
</g>
<path class="st3" d="M39,72h13c3.1,0,5.1-2.6,5.1-5.7V41.4c0-3.1-2.5-5.6-5.6-5.6H26.6c-3.1,0-5.6,2.5-5.6,5.6V54"/>
</svg>
