<svg id="Logos" xmlns="http://www.w3.org/2000/svg" viewBox="0 0 950 940"><path d="M86.18,831.63H58.76v76.12H47.57V831.63H20.2v-9.19h66Z"/><path d="M145.86,868.31h-37v30.24h42.94v9.2H97.64V822.44h53.61v9.19H108.89v27.48h37Z"/><path d="M189.78,869.72q-14.47-4.15-21.07-10.22a19.57,19.57,0,0,1-6.59-15,20.61,20.61,0,0,1,8.06-16.67q8.06-6.6,20.94-6.6a35.05,35.05,0,0,1,15.68,3.4A25.76,25.76,0,0,1,217.46,834a24,24,0,0,1,3.78,13.06H209.93q0-7.76-4.92-12.2t-13.89-4.44q-8.31,0-13,3.67a12.26,12.26,0,0,0-4.65,10.19,11,11,0,0,0,4.42,8.83q4.43,3.61,15.06,6.6t16.64,6.6a25.36,25.36,0,0,1,8.91,8.41,21.48,21.48,0,0,1,2.9,11.31,19.94,19.94,0,0,1-8.09,16.61q-8.09,6.24-21.62,6.24a40.06,40.06,0,0,1-16.41-3.37,27.65,27.65,0,0,1-11.75-9.23,22.53,22.53,0,0,1-4.13-13.3h11.31a14.7,14.7,0,0,0,5.72,12.22q5.7,4.49,15.26,4.48,8.91,0,13.65-3.63a11.78,11.78,0,0,0,4.75-9.9q0-6.27-4.4-9.7T189.78,869.72Z"/><path d="M293.58,831.63H266.15v76.12H255V831.63H227.6v-9.19h66Z"/><path d="M366.15,880.68q-1.59,13.53-10,20.89t-22.36,7.35q-15.12,0-24.23-10.84t-9.11-29v-8.21A48.66,48.66,0,0,1,304.71,840a31.75,31.75,0,0,1,12-13.85,33.48,33.48,0,0,1,18.05-4.84q13.59,0,21.79,7.59t9.56,21H354.84q-1.47-10.23-6.36-14.81t-13.68-4.59q-10.79,0-16.91,8t-6.12,22.69v8.27q0,13.9,5.8,22.11t16.23,8.21q9.38,0,14.39-4.25t6.65-14.79Z"/><path d="M445.92,867.85q0,12.54-4.22,21.88A31.91,31.91,0,0,1,429.75,904a33,33,0,0,1-48-14.15,50.73,50.73,0,0,1-4.42-21.24v-6.16a52,52,0,0,1,4.28-21.73,31.63,31.63,0,0,1,30-19.46,33.06,33.06,0,0,1,18.07,5,31.91,31.91,0,0,1,12,14.36,52.89,52.89,0,0,1,4.22,21.88Zm-11.19-5.51q0-15.18-6.09-23.29t-17.05-8.12q-10.66,0-16.79,8.12t-6.3,22.53v6.27q0,14.7,6.18,23.11t17,8.41q10.91,0,16.88-7.94t6.15-22.76Z"/><path d="M527.16,907.75H515.85L472.91,842v65.74H461.6V822.44h11.31l43.06,66v-66h11.19Z"/><path d="M603.19,831.63H575.77v76.12H564.58V831.63H537.21v-9.19h66Z"/><path d="M657.13,885.42H621.38l-8,22.33h-11.6l32.57-85.31h9.85l32.63,85.31H665.27Zm-32.35-9.2h29l-14.53-39.9Z"/><path d="M699.17,907.75H687.92V822.44h11.25Z"/><path d="M784.1,907.75H772.79L729.84,842v65.74H718.53V822.44h11.31l43.07,66v-66H784.1Z"/><path d="M851.1,868.31h-37v30.24h43v9.2h-54.2V822.44h53.61v9.19H814.13v27.48h37Z"/><path d="M901.17,873.24h-20v34.51h-11.3V822.44h28.24q14.41,0,22.18,6.56T928,848.1A23,23,0,0,1,923.7,862a25.68,25.68,0,0,1-12,8.84l20,36.21v.71H919.69Zm-20-9.2h17.29q8.39,0,13.33-4.35a14.68,14.68,0,0,0,5-11.62q0-7.92-4.72-12.15t-13.62-4.29H881.13Z"/><path d="M215,657.2V781.12a5.22,5.22,0,0,1-5.31,5.12L182,786c0-48.41,0-48.45,0-48.45a5.21,5.21,0,0,0-5.31-5.12H132.36a5.21,5.21,0,0,0-5.31,5.12L126.89,786c-26.4,0-27.58.24-27.58.24A5.22,5.22,0,0,1,94,781.12V657.2a5.22,5.22,0,0,1,5.31-5.12l27.58.16c0,46.81.16,47.82.16,47.82a5.21,5.21,0,0,0,5.31,5.12h44.27a5.21,5.21,0,0,0,5.31-5.12l-.07-47.88c30.93,0,27.81-.1,27.81-.1A5.22,5.22,0,0,1,215,657.2Z"/><path d="M249.06,667.61h19.87a4.62,4.62,0,0,1,4.7,4.54V781.89a4.62,4.62,0,0,1-4.7,4.53H249.06a4.62,4.62,0,0,1-4.7-4.53V672.15A4.62,4.62,0,0,1,249.06,667.61Z"/><path d="M412.76,673.63,372.92,784.78a4.7,4.7,0,0,1-4.44,3.05H338.1a4.69,4.69,0,0,1-4.44-3.05l-40-111.15a4.57,4.57,0,0,1,4.45-6h20.09a4.71,4.71,0,0,1,4.46,3.09l26.15,75.14a4.76,4.76,0,0,0,8.92,0l26-75.13a4.7,4.7,0,0,1,4.46-3.1h20.1A4.56,4.56,0,0,1,412.76,673.63Z"/><path d="M515.07,768.38v13.51a4.62,4.62,0,0,1-4.7,4.53H437.5a4.62,4.62,0,0,1-4.7-4.53V672.15a4.62,4.62,0,0,1,4.7-4.54h72.05a4.63,4.63,0,0,1,4.71,4.54v13.5a4.62,4.62,0,0,1-4.71,4.53H466.76a4.62,4.62,0,0,0-4.7,4.53s-.05-.06-.05,20.74c0,0-.6.08,43.83.08l0,22.19c-45.87,0-44,.17-44,.17,0,21.8.15,21.43.15,21.43a4.62,4.62,0,0,0,4.7,4.53h43.61A4.62,4.62,0,0,1,515.07,768.38Z"/><path d="M691.87,657.2V781.12a5.22,5.22,0,0,1-5.31,5.12H664.13a5.22,5.22,0,0,1-5.31-5.12l-.31-78.73c0-5-29.68,37.21-29.68,37.21a5.37,5.37,0,0,1-4.37,2.21H613.53a5.37,5.37,0,0,1-4.39-2.24s-29.42-42.5-29.42-37.46l.16,79a5.22,5.22,0,0,1-5.31,5.12H552.14a5.22,5.22,0,0,1-5.31-5.12V657.2a5.22,5.22,0,0,1,5.31-5.12h30a5.36,5.36,0,0,1,4.41,2.28l28.34,40.91a5.42,5.42,0,0,0,8.83,0l28.34-40.91a5.38,5.38,0,0,1,4.42-2.28h30A5.22,5.22,0,0,1,691.87,657.2Z"/><path d="M850,750.66A59,59,0,0,1,836,771a5,5,0,0,0-.24,7l18.32,19.34c-33.47,0-35.32.24-35.32.24a5.36,5.36,0,0,1-4-1.79l-6-6.77a5.5,5.5,0,0,0-5.32-1.64,88.2,88.2,0,0,1-18.85,1.89q-23.13,0-39.29-9.12a59,59,0,0,1-24.23-25Q713,739.34,713,719.34q0-19.65,8.08-35.4a60.18,60.18,0,0,1,24.23-25q16.15-9.3,39.29-9.29,22.77,0,38.93,9.29A60.75,60.75,0,0,1,847.83,684,75.84,75.84,0,0,1,856,719.34,79.84,79.84,0,0,1,850,750.66Zm-93.54-.09q9.74,11.77,28.09,11.77H785l-8.58-9.59a5.1,5.1,0,0,1,4-8.46h22.71a5.39,5.39,0,0,1,4,1.76h0c2.38,2.65,6,4.9,7.76,1.86a74,74,0,0,0,4.6-11,56.77,56.77,0,0,0,2.76-18.14A51.37,51.37,0,0,0,817.81,697a34.74,34.74,0,0,0-12.94-15q-8.54-5.47-20.29-5.48-18.18,0-28,11.86t-9.83,31Q746.76,738.81,756.49,750.57Z"/><circle cx="475" cy="309.62" r="260" style="fill:#ffc000"/><path d="M475,591.61c-155.48,0-282-126.5-282-282s126.5-282,282-282,282,126.5,282,282S630.48,591.61,475,591.61Zm0-540.13c-142.34,0-258.15,115.8-258.15,258.15S332.66,567.77,475,567.77,733.15,452,733.15,309.63,617.34,51.48,475,51.48Z"/><rect x="285.38" y="204.71" width="379.94" height="210.03" rx="18.26" style="fill:#fff"/><path d="M650.71,197H299.29a26.21,26.21,0,0,0-26.18,26.18v173.1a26.21,26.21,0,0,0,26.18,26.19H650.71a26.21,26.21,0,0,0,26.18-26.19V223.17A26.21,26.21,0,0,0,650.71,197ZM303.64,407a10.56,10.56,0,0,1-10.54-10.55V223a10.55,10.55,0,0,1,10.54-10.54H647.05A10.56,10.56,0,0,1,657.6,223v173.5A10.56,10.56,0,0,1,647.05,407Z"/><path d="M338.73,379.28a5.78,5.78,0,0,1-5.78-5.79V247a5.79,5.79,0,1,1,11.57,0V373.49A5.79,5.79,0,0,1,338.73,379.28Z"/><path d="M407,379.28a5.79,5.79,0,0,1-5.79-5.79V247a5.79,5.79,0,1,1,11.58,0V373.49A5.79,5.79,0,0,1,407,379.28Z"/><path d="M476.5,379.28a5.79,5.79,0,0,1-5.79-5.79V247a5.79,5.79,0,1,1,11.58,0V373.49A5.79,5.79,0,0,1,476.5,379.28Z"/><path d="M543.65,379.28a5.79,5.79,0,0,1-5.79-5.79V247a5.79,5.79,0,0,1,11.58,0V373.49A5.79,5.79,0,0,1,543.65,379.28Z"/><path d="M612,379.28a5.79,5.79,0,0,1-5.79-5.79V247a5.79,5.79,0,1,1,11.58,0V373.49A5.79,5.79,0,0,1,612,379.28Z"/><path d="M617.7,198.44c-12.28-6.31-120.68-61.72-144.5-62.52H473a19,19,0,0,0-2.9.16c-29.47,3.31-135.72,56.81-148.2,63.12l15.82,10.25c38.14-20.8,99.4-51.92,125.21-60a49.83,49.83,0,0,1,8.93-1.95h.77c14.9.61,85.39,36.89,129.2,61.15Z"/><path d="M503,112.07a7.72,7.72,0,0,0-7.71,7.72,22.68,22.68,0,0,1-8.07,17.35c-.71.42-1.4.84-2.09,1.27-3.09,1.94-5.81,3.65-14.33,4.05A22.75,22.75,0,0,1,463.41,99c4.28-1.88,12-6.22,16.54-11.84,1.83-2.25,4.3-6.14,4.38-10,.28-13.75-.1-26.6-.1-26.6l-15.54.11s1.19,21.45-.77,25.77c-1.74,3.83-9,6.5-13,7.91-1.11.39-2.07.73-2.83,1.07-14.28,6.28-23.51,19.79-23.51,34.42A38.23,38.23,0,0,0,466.77,158c1.45,0,2.78,0,4.07-.08.57,0,1.14.08,1.72.08a38.23,38.23,0,0,0,38.19-38.19A7.72,7.72,0,0,0,503,112.07Z"/></svg>