<svg id="Logos" xmlns="http://www.w3.org/2000/svg" viewBox="0 0 850 940"><path d="M35,816.75,64.78,891l29.75-74.25h15.56v91h-12V872.31l1.12-38.25L69.34,907.75H60.15l-29.81-73.5,1.19,38.06v35.44h-12v-91Z"/><path d="M201.42,865.19q0,13.18-4.19,22.72a35.09,35.09,0,0,1-11.75,14.9l16.25,12.75-8.19,7.56-19.19-15.25a39,39,0,0,1-9.5,1.13,34,34,0,0,1-32-20.34A54.06,54.06,0,0,1,128.17,866v-6.56a55.67,55.67,0,0,1,4.56-23.19,33.71,33.71,0,0,1,32-20.75,35.24,35.24,0,0,1,19.34,5.31,34.32,34.32,0,0,1,12.85,15.28q4.5,10,4.5,23.28Zm-12-5.88q0-16.06-6.41-24.78t-18.28-8.72q-11.31,0-17.85,8.66t-6.71,24v6.69q0,15.62,6.53,24.62t18.15,9q11.63,0,18-8.47t6.57-24.28Z"/><path d="M280.74,826.56H251.49v81.19H239.56V826.56H210.37v-9.81h70.37Z"/><path d="M358.76,826.56H329.51v81.19H317.57V826.56H288.38v-9.81h70.38Z"/><path d="M469.66,878.87Q468,893.32,459,901.16T435.16,909q-16.12,0-25.84-11.56T399.6,866.5v-8.75a51.82,51.82,0,0,1,4.53-22.31A33.74,33.74,0,0,1,417,820.66a35.72,35.72,0,0,1,19.25-5.16q14.49,0,23.25,8.09T469.66,846H457.6q-1.56-10.9-6.78-15.8t-14.59-4.89q-11.5,0-18,8.51T411.66,858v8.82q0,14.82,6.19,23.58t17.31,8.76q10,0,15.35-4.53t7.09-15.79Z"/><path d="M498.74,897.94h43.13v9.81H486.68v-91h12.06Z"/><path d="M569.07,907.75h-12v-91h12Z"/><path d="M643.08,865.69H603.65v32.25h45.81v9.81H591.65v-91h57.18v9.81H603.65v29.31h39.43Z"/><path d="M735,907.75H722.91L677.1,837.62v70.13H665v-91H677.1L723,887.19V816.75H735Z"/><path d="M818,826.56H788.74v81.19H776.8V826.56H747.61v-9.81H818Z"/><circle cx="425" cy="329.98" r="271.6" style="fill:#ffc000"/><path d="M425,614c-156.59,0-284-127.39-284-284S268.41,46,425,46,709,173.4,709,330,581.59,614,425,614Zm0-543.21C282.06,70.75,165.77,187,165.77,330S282.06,589.21,425,589.21,684.23,472.92,684.23,330,567.94,70.75,425,70.75Z"/><path d="M548.21,368.13s-48.36,4.4-131.7,4.4c-53.31,0-136.31-4.4-136.31-4.4-16.5-1.84-30.09-13.53-30.09-30.08V321.51c0-16.55,10.82-26.54,30.09-28.2,0,0,89.38-4.4,130.12-4.4s137.89,4.4,137.89,4.4c17.34,3.11,35.91,10.4,35.91,26.94v17.8C584.12,354.6,565.54,366.29,548.21,368.13Z" style="fill:#fff"/><path d="M541.53,291.06s-65.2-4.71-125.65-4.4-125.12,4.4-125.12,4.4c-13.06-3.14-16.92-15.21-16.92-30V250.61c0-13.76,19.79-27.43,37.4-29.13,0,0,65.06-4.41,109.14-4.4s102.47,5,102.47,5c15.53.8,35.54,15.77,35.59,28.51V261.1C558.44,275.85,554.58,287.92,541.53,291.06Z" style="fill:#fff"/><path d="M519.16,220.81s-52.87-3.33-89.73-3.77-98.69,3.77-98.69,3.77c-10.47,0-13.56-9.67-13.56-21.5V188.39c0-11,14.52-17.32,29.63-21.64,8.85-2.53,30.72-9.68,81.18-10.05,24.83-.18,63.86,5.75,80.23,8.83,13.8,2.59,24.46,12.65,24.5,22.86v10.92C532.72,211.14,529.63,220.81,519.16,220.81Z" style="fill:#fff"/><path d="M547.81,367.65s-65.2,4.71-125.64,4.4-125.12-3.14-125.12-3.14c-8.63-.78-16.92,14-16.92,28.71V408.1c0,13.77,19.79,27.43,37.39,29.14,0,0,65.07,4.4,109.14,4.4s102.47-5,102.47-5c15.53-.8,35.55-15.76,35.6-28.51V397.62C564.73,382.87,560.87,370.8,547.81,367.65Z" style="fill:#fff"/><path d="M519,437.9s-52.88,3.34-89.74,3.77-98.68-3.77-98.68-3.77c-10.47,0-13.57,9.68-13.57,21.5v10.92c0,11,14.74,22.23,30,26.64,8.84,2.56,29.75,8.45,80.2,8.82C452,506,491.63,500,508,497c13.79-2.59,24.46-16.43,24.5-26.64V459.4C532.51,447.58,529.42,437.9,519,437.9Z" style="fill:#fff"/><path d="M557.54,289.34l-.5-.06c-1,0-96.41-4.14-140.88-4.39h-4.09c-42.39,0-135.89,4.36-137,4.41-22.43,1.84-39.17,13.58-39.17,32.22v16.54c0,17.59,18.68,31.93,39.08,34.09l.22,0c.86,0,85.42,4.28,140.93,4.4h2.42c86.68,0,138.13-4.38,138.64-4.42h.06c20.74-2.1,39.1-16.12,39.1-34.1v-17.8C596.37,303.7,580.73,293.3,557.54,289.34Zm-141.86,80c-52.92-.12-133.21-4.29-136.85-4.48-15.91-1.83-27-12.78-27-26.68V321.26c0-18.53,14.69-23.68,26.86-24.73.91,0,91.69-4.49,132.85-4.5h4.26c42.07.26,130.82,4.22,136.47,4.47C576.57,301,579.39,312,579.39,320v18.2c0,14.23-10.88,24.95-27.07,26.68-1.45.13-51.1,4.48-134.3,4.49Z"/><path d="M528.52,218.09c-.61-.05-62-5-107.93-5.05h-.3l-4.16,0c-45.71.25-109.75,4.35-110.52,4.4-19.84,1.83-42.92,16.71-42.92,33.15V261.1c0,19.31,7,30.71,20.89,33.89l.57.13.58,0,4.55-.26c.18.05.35.12.54.16l.59.14.61,0c.64,0,65.26-4.08,124.88-4.39s124.68,4.34,125.33,4.39l.63.05.61-.15c.22-.05.42-.13.63-.18l4.43.28.59,0,.59-.13c13.86-3.18,20.89-14.58,20.89-33.89V250.59C569.53,235.17,546,218.94,528.52,218.09ZM415.85,282.63c-52.1.25-107.79,3.09-125.7,4.07-5.67-1.83-12.27-7-12.27-25.6V250.61c0-10.83,17-23.5,33.63-25.11.63,0,61.34-4.12,104.62-4.38h4.3c43.38,0,101.49,5,102.21,5,13.92.72,31.73,14.45,31.77,24.48V261.1c0,18.49-6.51,23.69-12.15,25.57C524.35,285.56,468.12,282.38,415.85,282.63Z"/><path d="M514.08,157.32C497.82,151,455.89,146.73,428.33,147c-50.4.35-73.37,6.79-86.27,11.59-18,6.7-34.09,13.87-34.09,27.9v10.92c0,21.1,9.93,25.53,18.27,25.53h.26l2-.12a21,21,0,0,0,2.22.13H331c.61,0,62.09-4.18,98.36-3.76s89,3.73,89.53,3.76h.25a20.37,20.37,0,0,0,2.32-.15l2.38.14h.24c8.33,0,18.27-4.43,18.27-25.53V186.43C542.31,173.07,527.09,162.4,514.08,157.32Zm-84.17,53.75c-1.9,0-3.87,0-5.89,0h-3.26c-33.89.17-80.55,2.92-92.1,3.63-3.1-.6-7.45-3.46-7.45-17.31V186.45c0-6.82,8.74-12.63,26.71-17.76l1.52-.44c9.38-2.73,31.33-9.11,78.58-9.46,26-.2,66.16,6.26,79.46,8.76,11.66,2.19,21.18,10.68,21.21,18.9v10.92c0,13.79-4.31,16.69-7.4,17.3C509.15,214,463.12,211.44,429.91,211.07Z"/><path d="M555.31,365.66l-.59-.13-.59,0-4.69.3-.69-.2-.6-.14-.63,0c-.61,0-57.56,4.11-113.66,4.39q-5.7,0-11.37,0l-6.29,0c-57.92-.45-118.34-3.07-118.79-3.09a11.74,11.74,0,0,0-2.9.13l-3.08-.13c-3.84-.32-7.71,1.18-11.17,4.36-6.56,6-11,17.43-11,28.37V410c0,16.44,23.08,31.32,43,33.16.64,0,58.73,3.76,103.75,4.33,3.6.05,7.12.08,10.51.08h.61c45.91,0,107.32-5,107.8-5,17.56-.85,41.14-17.09,41.21-32.53V399.56C576.2,380.25,569.17,368.84,555.31,365.66ZM416.22,439.47c-42.65-.57-97.82-4.27-98.31-4.3-16.71-1.62-33.75-14.3-33.75-25.13V399.56c0-10,4.14-19,8.22-22.73a7.86,7.86,0,0,1,2.91-1.78c15.38.6,69,2.55,120.8,2.93l6.06,0,5.62,0c50.45,0,103.25-3,120.82-4,5.63,1.89,12.11,7.12,12.11,25.56V410c0,10-17.86,23.78-31.91,24.5-.58.05-58.56,5-101.93,5C423.42,439.55,419.86,439.52,416.22,439.47Z"/><path d="M523.88,435.81h-.24l-2.38.14a20,20,0,0,0-2.31-.15h-.25c-.53,0-53.2,3.33-89.54,3.76s-97.74-3.72-98.36-3.76h-.27a21,21,0,0,0-2.23.14l-2-.13H326c-8.33,0-18.27,4.43-18.27,25.53v10.92c0,13.8,18.36,25.68,34.07,31.66,7.29,2.78,29.45,11.21,85.63,11.61h2.1c25.23,0,67.18-3,84.19-9.06,17.72-6.26,28.36-22.31,28.41-34.21V461.34C542.15,440.24,532.22,435.81,523.88,435.81ZM421.52,447.67h.81c2.54,0,5,0,7.36,0,33.22-.38,79.25-2.91,91.38-3.61,3.1.62,7.41,3.52,7.41,17.3v10.9c0,8.48-9.51,20.5-21.22,22.7-18.5,3.47-56.59,9-80.09,8.75-50.45-.37-71.27-6.39-79.11-8.66C333.14,490.71,321,480.5,321,472.26V461.34c0-13.85,4.35-16.71,7.45-17.31C340.14,444.75,387.59,447.53,421.52,447.67Z"/><path d="M445.81,407.05c0,11.88,0,22.58-21.52,21.52-25.42-1.26-21.51-9.64-21.51-21.52a21.52,21.52,0,1,1,43,0Z"/><circle cx="244.91" cy="204.38" r="12.23"/><circle cx="587.7" cy="182.69" r="12.23"/><circle cx="626.59" cy="271.48" r="19.32"/><circle cx="617.79" cy="377.13" r="17.46"/><path d="M165,657.2V781.12a5.22,5.22,0,0,1-5.31,5.12L132,786c0-48.41,0-48.45,0-48.45a5.21,5.21,0,0,0-5.31-5.12H82.36a5.21,5.21,0,0,0-5.31,5.12L76.89,786c-26.4,0-27.58.24-27.58.24A5.22,5.22,0,0,1,44,781.12V657.2a5.22,5.22,0,0,1,5.31-5.12l27.58.16c0,46.81.16,47.82.16,47.82a5.21,5.21,0,0,0,5.31,5.12h44.27a5.21,5.21,0,0,0,5.31-5.12l-.07-47.88c30.93,0,27.81-.1,27.81-.1A5.22,5.22,0,0,1,165,657.2Z"/><path d="M199.06,667.61h19.87a4.62,4.62,0,0,1,4.7,4.54V781.89a4.62,4.62,0,0,1-4.7,4.53H199.06a4.62,4.62,0,0,1-4.7-4.53V672.15A4.62,4.62,0,0,1,199.06,667.61Z"/><path d="M362.76,673.63,322.92,784.78a4.7,4.7,0,0,1-4.44,3.05H288.1a4.69,4.69,0,0,1-4.44-3.05l-40-111.15a4.56,4.56,0,0,1,4.44-6h20.09a4.71,4.71,0,0,1,4.46,3.09l26.15,75.14a4.76,4.76,0,0,0,8.92,0l26-75.13a4.7,4.7,0,0,1,4.46-3.1h20.1A4.56,4.56,0,0,1,362.76,673.63Z"/><path d="M465.07,768.38v13.51a4.62,4.62,0,0,1-4.7,4.53H387.5a4.62,4.62,0,0,1-4.7-4.53V672.15a4.62,4.62,0,0,1,4.7-4.54h72.06a4.62,4.62,0,0,1,4.7,4.54v13.5a4.62,4.62,0,0,1-4.7,4.53H416.77a4.62,4.62,0,0,0-4.71,4.53s-.05-.06-.05,20.74c0,0-.6.08,43.83.08l0,22.19c-45.87,0-44,.17-44,.17,0,21.8.15,21.43.15,21.43a4.62,4.62,0,0,0,4.71,4.53h43.6A4.62,4.62,0,0,1,465.07,768.38Z"/><path d="M641.87,657.2V781.12a5.22,5.22,0,0,1-5.31,5.12H614.13a5.22,5.22,0,0,1-5.31-5.12l-.31-78.73c0-5-29.68,37.21-29.68,37.21a5.37,5.37,0,0,1-4.37,2.21H563.53a5.37,5.37,0,0,1-4.39-2.24s-29.42-42.5-29.42-37.46l.16,79a5.22,5.22,0,0,1-5.31,5.12H502.14a5.22,5.22,0,0,1-5.31-5.12V657.2a5.22,5.22,0,0,1,5.31-5.12h30a5.36,5.36,0,0,1,4.41,2.28l28.34,40.91a5.42,5.42,0,0,0,8.83,0l28.34-40.91a5.38,5.38,0,0,1,4.42-2.28h30A5.22,5.22,0,0,1,641.87,657.2Z"/><path d="M800,750.66A59,59,0,0,1,786,771a5,5,0,0,0-.24,7l18.32,19.34c-33.47,0-35.32.24-35.32.24a5.36,5.36,0,0,1-4-1.79l-6-6.77a5.5,5.5,0,0,0-5.32-1.64,88.2,88.2,0,0,1-18.85,1.89q-23.13,0-39.29-9.12a59,59,0,0,1-24.23-25Q663,739.34,663,719.34q0-19.65,8.08-35.4a60.18,60.18,0,0,1,24.23-25q16.17-9.3,39.29-9.29,22.77,0,38.93,9.29A60.75,60.75,0,0,1,797.83,684,75.84,75.84,0,0,1,806,719.34,79.84,79.84,0,0,1,800,750.66Zm-93.54-.09q9.74,11.77,28.09,11.77H735l-8.58-9.59a5.1,5.1,0,0,1,4-8.46h22.71a5.39,5.39,0,0,1,4,1.76h0c2.38,2.65,6,4.9,7.76,1.86a75.07,75.07,0,0,0,4.61-11,57.06,57.06,0,0,0,2.75-18.14A51.37,51.37,0,0,0,767.81,697a34.74,34.74,0,0,0-12.94-15q-8.54-5.47-20.29-5.48-18.18,0-28,11.86t-9.83,31Q696.76,738.81,706.49,750.57Z"/></svg>