<svg id="Logos" xmlns="http://www.w3.org/2000/svg" viewBox="0 0 1290 340"><defs><style>.cls-2{fill:#fff}</style></defs><path d="M507.93 39.45V185.7a6.16 6.16 0 0 1-6.27 6l-32.66-.24v-57.18a6.15 6.15 0 0 0-6.26-6H410.4a6.15 6.15 0 0 0-6.26 6l-.14 57.18c-31.16 0-32.55.28-32.55.28a6.16 6.16 0 0 1-6.27-6V39.45a6.16 6.16 0 0 1 6.27-6l32.55.15c0 55.24.19 56.43.19 56.43a6.15 6.15 0 0 0 6.26 6h52.26a6.15 6.15 0 0 0 6.26-6l-.08-56.51c36.51 0 32.82-.11 32.82-.11a6.16 6.16 0 0 1 6.22 6.04zM548.14 51.74h23.45a5.44 5.44 0 0 1 5.54 5.35v129.52a5.45 5.45 0 0 1-5.54 5.35h-23.45a5.46 5.46 0 0 1-5.55-5.35V57.09a5.45 5.45 0 0 1 5.55-5.35zM741.35 58.83L694.33 190a5.55 5.55 0 0 1-5.25 3.6h-35.84A5.54 5.54 0 0 1 648 190L600.8 58.84a5.37 5.37 0 0 1 5.24-7.1h23.71a5.53 5.53 0 0 1 5.25 3.64l30.88 88.69a5.62 5.62 0 0 0 10.52 0l30.71-88.67a5.55 5.55 0 0 1 5.27-3.65h23.72a5.38 5.38 0 0 1 5.25 7.08zM862.1 170.67v15.94a5.46 5.46 0 0 1-5.55 5.35h-86a5.45 5.45 0 0 1-5.54-5.35V57.09a5.44 5.44 0 0 1 5.54-5.35h85.05a5.45 5.45 0 0 1 5.55 5.35V73a5.46 5.46 0 0 1-5.55 5.35h-50.5a5.44 5.44 0 0 0-5.55 5.34s-.07-.07-.07 24.48c0 0-.7.09 51.74.09v26.19c-54.14 0-51.9.2-51.9.2 0 25.73.19 25.29.19 25.29a5.45 5.45 0 0 0 5.55 5.35h51.46a5.45 5.45 0 0 1 5.58 5.38zM1070.76 39.45V185.7a6.15 6.15 0 0 1-6.26 6H1038a6.16 6.16 0 0 1-6.27-6l-.37-92.92c0-5.92-35 43.92-35 43.92a6.33 6.33 0 0 1-5.16 2.61h-12.89a6.32 6.32 0 0 1-5.18-2.64S938.4 86.5 938.4 92.45l.19 93.25a6.16 6.16 0 0 1-6.27 6h-26.47a6.16 6.16 0 0 1-6.27-6V39.45a6.16 6.16 0 0 1 6.27-6h35.45a6.35 6.35 0 0 1 5.21 2.68L980 84.38a6.4 6.4 0 0 0 10.42 0l33.45-48.29a6.35 6.35 0 0 1 5.21-2.68h35.46a6.15 6.15 0 0 1 6.22 6.04zM1257.44 149.76a69.64 69.64 0 0 1-16.53 24 5.84 5.84 0 0 0-.28 8.26l21.62 22.82c-39.5 0-41.69.29-41.69.29a6.34 6.34 0 0 1-4.76-2.12l-7.09-8a6.48 6.48 0 0 0-6.27-1.93 104.67 104.67 0 0 1-22.25 2.22q-27.3 0-46.37-10.76a69.59 69.59 0 0 1-28.6-29.45q-9.54-18.69-9.53-42.3 0-23.18 9.53-41.77a71 71 0 0 1 28.6-29.56q19.07-11 46.37-11 26.86 0 45.94 11a71.68 71.68 0 0 1 28.71 29.66q9.65 18.7 9.64 41.67a94.4 94.4 0 0 1-7.04 36.97zm-110.4-.11q11.48 13.89 33.15 13.89h.44l-10.14-11.32a6 6 0 0 1 4.75-10H1202a6.38 6.38 0 0 1 4.73 2.08c2.81 3.12 7 5.78 9.16 2.19a88.09 88.09 0 0 0 5.43-12.94 67.07 67.07 0 0 0 3.25-21.41 60.64 60.64 0 0 0-5.2-25.69 41 41 0 0 0-15.27-17.76q-10.08-6.46-24-6.48-21.45 0-33 14t-11.6 36.55q.05 23 11.5 36.89zM377 214l25.09 62.61L427.15 214h13.12v76.74h-10.12v-29.9l1-32.25-25.19 62.14h-7.75l-25.14-62 1 32.09v29.89H363.9V214zM517.29 254.83q0 11.13-3.54 19.16a29.55 29.55 0 0 1-9.9 12.57l13.7 10.75-6.9 6.38-16.19-12.86a33 33 0 0 1-8 .95 28.6 28.6 0 0 1-26.95-17.16 45.37 45.37 0 0 1-4-19.1V250a47 47 0 0 1 3.84-19.56 28.48 28.48 0 0 1 27-17.5 29.77 29.77 0 0 1 16.31 4.48 29 29 0 0 1 10.83 12.89 47.32 47.32 0 0 1 3.8 19.63zm-10.12-5q0-13.55-5.41-20.9t-15.41-7.35a17.83 17.83 0 0 0-15.05 7.3q-5.51 7.31-5.66 20.26v5.64q0 13.18 5.5 20.77t15.31 7.59q9.81 0 15.18-7.14t5.54-20.48zM584.18 222.26h-24.67v68.47h-10.06v-68.47h-24.62V214h59.35zM650 222.26h-24.7v68.47h-10.06v-68.47h-24.62V214H650zM743.49 266.38q-1.43 12.17-9 18.79t-20.11 6.61q-13.6 0-21.79-9.75t-8.2-26.09v-7.38a43.66 43.66 0 0 1 3.82-18.81 28.6 28.6 0 0 1 10.83-12.47 30.19 30.19 0 0 1 16.24-4.35q12.23 0 19.6 6.83t8.59 18.89h-10.15q-1.32-9.19-5.72-13.32t-12.3-4.12q-9.7 0-15.21 7.17t-5.51 20.42v7.43q0 12.51 5.22 19.89a16.87 16.87 0 0 0 14.6 7.39q8.43 0 12.94-3.83t6-13.3zM768 282.45h36.37v8.28h-46.53V214H768zM827.32 290.73H817.2V214h10.12zM889.73 255.26h-33.25v27.19h38.63v8.28h-48.75V214h48.22v8.27h-38.1V247h33.25zM967.22 290.73h-10.17l-38.63-59.14v59.14h-10.17V214h10.17l38.74 59.4V214h10.06zM1037.23 222.26h-24.67v68.47h-10.07v-68.47h-24.61V214h59.35z"/><circle cx="158.23" cy="166.69" r="140.28" fill="#ffc000"/><path d="M158.23 313.36c-80.87 0-146.67-65.79-146.67-146.67S77.36 20 158.23 20 304.9 85.82 304.9 166.69s-65.79 146.67-146.67 146.67zm0-280.56c-73.82 0-133.88 60.07-133.88 133.89s60.06 133.89 133.88 133.89 133.89-60.06 133.89-133.89S232.06 32.8 158.23 32.8z"/><path class="cls-2" d="M221.87 186.4s-25 2.27-68 2.27c-27.53 0-70.41-2.27-70.41-2.27-8.52-1-15.53-7-15.53-15.54v-8.54c0-8.55 5.58-13.71 15.53-14.57 0 0 46.17-2.27 67.21-2.27s71.22 2.27 71.22 2.27c8.95 1.61 18.55 5.37 18.55 13.92v9.19c-.02 8.55-9.62 14.59-18.57 15.54z"/><path class="cls-2" d="M218.42 146.59s-33.68-2.43-64.89-2.27-64.63 2.27-64.63 2.27c-6.74-1.62-8.74-7.86-8.74-15.48v-5.41c0-7.11 10.22-14.17 19.32-15 0 0 33.6-2.28 56.37-2.27s52.92 2.57 52.92 2.57c8 .42 18.36 8.15 18.39 14.73v5.41c0 7.59-2 13.86-8.74 15.45z"/><path class="cls-2" d="M206.87 110.31s-27.31-1.72-46.35-2-51 2-51 2c-5.41 0-7-5-7-11.11v-5.64c0-5.69 7.49-8.94 15.3-11.17 4.57-1.31 15.87-5 41.93-5.19 12.82-.1 33 3 41.44 4.55 7.12 1.34 12.63 6.54 12.65 11.81v5.64c.03 6.11-1.57 11.11-6.97 11.11zM221.66 186.15s-33.67 2.43-64.89 2.27-64.62-1.62-64.62-1.62c-4.46-.4-8.74 7.21-8.74 14.83V207c0 7.11 10.22 14.17 19.31 15.05 0 0 33.61 2.27 56.37 2.27s52.93-2.6 52.93-2.6c8-.41 18.35-8.14 18.38-14.72v-5.41c0-7.59-1.99-13.82-8.74-15.44z"/><path class="cls-2" d="M206.76 222.43s-27.31 1.72-46.35 1.95-51-1.95-51-1.95c-5.41 0-7 5-7 11.11v5.64c0 5.69 7.6 11.48 15.47 13.75 4.57 1.33 15.37 4.37 41.43 4.56 12.83.1 33.31-3 41.77-4.56 7.12-1.34 12.63-8.48 12.65-13.75v-5.64c.03-6.11-1.57-11.11-6.97-11.11z"/><path d="M226.69 145.7h-.26c-.51 0-49.79-2.14-72.76-2.27h-2.12c-21.89 0-70.18 2.25-70.74 2.28-11.58.95-20.23 7-20.23 16.64v8.54c0 9.08 9.65 16.49 20.18 17.61h.12c.44 0 44.11 2.21 72.78 2.27h1.25c44.77 0 71.35-2.26 71.61-2.28 10.71-1.08 20.19-8.33 20.19-17.61v-9.19c.03-8.57-8.04-13.94-20.02-15.99zM153.42 187c-27.33-.06-68.8-2.22-70.68-2.32-8.22-.94-13.95-6.59-13.95-13.77v-8.74c0-9.57 7.59-12.23 13.88-12.78.47 0 47.35-2.32 68.61-2.32h2.2c21.73.13 67.57 2.18 70.48 2.31 12.56 2.29 14 8 14 12.11v9.41c0 7.35-5.61 12.88-14 13.78-.76.07-26.4 2.31-69.37 2.31z"/><path d="M211.7 108.9c-.32 0-32-2.6-55.74-2.6h-2.31c-23.61.13-56.68 2.25-57.08 2.28-10.25.94-22.17 8.63-22.17 17.12v5.41c0 10 3.63 15.87 10.79 17.51l.3.07h.29l2.36-.14.28.08.3.08h.31c.34 0 33.71-2.11 64.51-2.27s64.39 2.24 64.73 2.27h.32l.31-.08a3.18 3.18 0 0 0 .33-.09l2.29.15h.31l.3-.07c7.16-1.64 10.79-7.53 10.79-17.51v-5.42c-.04-7.97-12.22-16.35-21.22-16.79zm-58.19 33.34c-26.91.13-55.67 1.59-64.93 2.1-2.92-1-6.33-3.61-6.33-13.23v-5.41c0-5.59 8.79-12.14 17.37-13 .32 0 31.68-2.13 54-2.26h2.22c22.41 0 52.42 2.56 52.79 2.59 7.19.37 16.39 7.47 16.41 12.65v5.41c0 9.55-3.36 12.24-6.27 13.21-9.22-.55-38.27-2.19-65.26-2.06z"/><path d="M204.24 77.51c-8.39-3.27-30.05-5.46-44.29-5.35-26 .19-37.89 3.51-44.55 6-9.28 3.46-17.61 7.17-17.61 14.41v5.63c0 10.9 5.13 13.19 9.43 13.19h.14l1-.06a11.26 11.26 0 0 0 1.15.07h.14c.32 0 32.07-2.16 50.8-1.94s46 1.93 46.25 1.94h.13a9.64 9.64 0 0 0 1.19-.08l1.23.07h.13c4.3 0 9.43-2.29 9.43-13.19v-5.65c.01-6.9-7.81-12.41-14.57-15.04zm-43.47 27.77H156c-17.5.09-41.6 1.51-47.56 1.88-1.61-.31-3.85-1.79-3.85-8.94v-5.66c0-3.52 4.51-6.52 13.79-9.17l.79-.23c4.84-1.41 16.18-4.7 40.58-4.88 13.41-.11 34.17 3.23 41 4.52 6 1.13 10.94 5.51 11 9.76v5.64c0 7.12-2.23 8.62-3.83 8.93-6.22-.35-30-1.66-47.15-1.85zM225.54 185.12l-.31-.07h-.3l-2.42.16-.36-.1-.31-.08h-.33c-.31 0-29.73 2.13-58.7 2.27H153.69c-29.92-.23-61.12-1.59-61.35-1.59a5.77 5.77 0 0 0-1.5.06l-1.59-.06a7.54 7.54 0 0 0-5.77 2.29c-3.39 3.11-5.67 9-5.67 14.65V208c0 8.49 11.92 16.18 22.23 17.13.32 0 30.33 1.94 53.58 2.24H159.36c23.72 0 55.43-2.58 55.68-2.61 9.07-.44 21.25-8.82 21.29-16.8v-5.41c0-9.9-3.63-15.79-10.79-17.43zm-71.84 38.12c-22-.29-50.52-2.2-50.78-2.22-8.63-.84-17.43-7.39-17.43-13v-5.41c0-5.16 2.14-9.81 4.25-11.74a4.09 4.09 0 0 1 1.5-.92c7.94.31 35.64 1.32 62.39 1.51H159.66c26.06 0 53.33-1.52 62.41-2.08 2.91 1 6.25 3.67 6.25 13.2V208c0 5.19-9.22 12.29-16.48 12.66-.3 0-30.24 2.58-52.65 2.59-1.77.03-3.61.02-5.49-.01z"/><path d="M209.31 221.35h-.13l-1.23.07a9.64 9.64 0 0 0-1.19-.08h-.13c-.28 0-27.48 1.72-46.25 1.94s-50.48-1.92-50.8-1.94h-.14a11.26 11.26 0 0 0-1.15.07l-1-.06h-.14c-4.3 0-9.43 2.29-9.43 13.19v5.64c0 7.12 9.48 13.26 17.59 16.35 3.77 1.43 15.22 5.79 44.23 6h1.08c13 0 34.7-1.58 43.49-4.68 9.15-3.24 14.64-11.52 14.67-17.67v-5.64c-.04-10.9-5.17-13.19-9.47-13.19zm-52.88 6.13H160.66c17.15-.19 40.93-1.5 47.19-1.86 1.6.32 3.83 1.82 3.83 8.94v5.63c0 4.38-4.91 10.58-11 11.72-9.55 1.8-29.23 4.65-41.36 4.52-26.06-.19-36.82-3.3-40.87-4.47-7.7-2.23-14-7.51-14-11.76v-5.64c0-7.15 2.24-8.63 3.85-8.94 6.1.38 30.61 1.78 48.13 1.86zM169 206.5c0 6.13 0 11.66-11.11 11.11-13.13-.65-11.11-5-11.11-11.11a11.11 11.11 0 1 1 22.22 0z"/><circle cx="65.22" cy="101.82" r="6.32"/><circle cx="242.26" cy="90.62" r="6.32"/><circle cx="262.35" cy="136.48" r="9.98"/><circle cx="257.81" cy="191.04" r="9.02"/></svg>