<?xml version="1.0" encoding="utf-8"?>
<!-- Generator: Adobe Illustrator 24.1.0, SVG Export Plug-In . SVG Version: 6.00 Build 0)  -->
<svg version="1.1" xmlns="http://www.w3.org/2000/svg" xmlns:xlink="http://www.w3.org/1999/xlink" x="0px" y="0px"
	 viewBox="0 0 950 850" style="enable-background:new 0 0 950 850;" xml:space="preserve">
<style type="text/css">
	.st0{display:none;}
	.st1{display:inline;}
	.st2{display:inline;fill-rule:evenodd;clip-rule:evenodd;}
	.st3{display:inline;fill:#A91917;}
	.st4{display:inline;fill-rule:evenodd;clip-rule:evenodd;fill:#A91917;}
	.st5{fill-rule:evenodd;clip-rule:evenodd;fill:#FFC000;}
	.st6{fill-rule:evenodd;clip-rule:evenodd;fill:#FFFFFF;}
	.st7{fill:none;}
	.st8{fill-rule:evenodd;clip-rule:evenodd;}
	.st9{fill:#FFC000;}
	.st10{opacity:0.5;fill:#FFFFFF;}
	.st11{fill:#FFFFFF;}
	.st12{fill:#676767;}
	.st13{fill:url(#SVGID_1_);}
	.st14{fill:url(#SVGID_2_);}
	.st15{fill:url(#SVGID_3_);}
	.st16{fill:url(#SVGID_4_);}
	.st17{fill:url(#SVGID_5_);}
	.st18{fill:url(#SVGID_6_);}
	.st19{fill:url(#SVGID_7_);}
	.st20{fill:url(#SVGID_8_);}
	.st21{fill:url(#SVGID_9_);}
	.st22{fill:url(#SVGID_10_);}
	.st23{fill:url(#SVGID_11_);}
	.st24{fill:#333333;}
	.st25{fill:url(#SVGID_12_);}
	.st26{opacity:0.2;}
	.st27{fill:url(#SVGID_13_);}
	.st28{fill:url(#SVGID_14_);}
	.st29{fill:url(#SVGID_15_);}
	.st30{fill:url(#SVGID_16_);}
	.st31{fill:url(#SVGID_17_);}
	.st32{fill:url(#SVGID_18_);}
	.st33{fill:url(#SVGID_19_);}
	.st34{fill:url(#SVGID_20_);}
	.st35{fill:url(#SVGID_21_);}
	.st36{fill:url(#SVGID_22_);}
	.st37{fill:url(#SVGID_23_);}
	.st38{fill:url(#SVGID_24_);}
	.st39{fill:url(#SVGID_25_);}
	.st40{fill:url(#SVGID_26_);}
	.st41{fill:url(#SVGID_27_);}
	.st42{fill:url(#SVGID_28_);}
	.st43{fill:url(#SVGID_29_);}
	.st44{fill:url(#SVGID_30_);}
	.st45{fill:url(#SVGID_31_);}
	.st46{fill:url(#SVGID_32_);}
	.st47{fill:url(#SVGID_33_);}
	.st48{fill:url(#SVGID_34_);}
	.st49{fill:url(#SVGID_35_);}
	.st50{fill:url(#SVGID_36_);}
	.st51{fill:url(#SVGID_37_);}
	.st52{fill:url(#SVGID_38_);}
	.st53{fill:url(#SVGID_39_);}
	.st54{fill:url(#SVGID_40_);}
	.st55{fill:url(#SVGID_41_);}
	.st56{fill:url(#SVGID_42_);}
	.st57{fill:url(#SVGID_43_);}
	.st58{fill:url(#SVGID_44_);}
	.st59{fill:url(#SVGID_45_);}
	.st60{fill:url(#SVGID_46_);}
	.st61{fill:url(#SVGID_47_);}
	.st62{fill:url(#SVGID_48_);}
	.st63{clip-path:url(#SVGID_50_);}
	.st64{clip-path:url(#SVGID_52_);}
	.st65{clip-path:url(#SVGID_54_);}
</style>
<g id="non-print-backgrounds" class="st0">
</g>
<g id="Logos">
	<g>
		<g>
			<circle class="st9" cx="475" cy="312" r="270.7"/>
			<path class="st11" d="M451.8,293.2L244.5,449.2c0,0-40.1-78.9-40.1-137.2c0-70.1,51-155,51-155L451.8,293.2z"/>
			<path d="M475,595c-156,0-283-127-283-283c0-156,127-283,283-283s283,127,283,283C758,468,631,595,475,595z M475,53.7
				c-142.4,0-258.3,115.9-258.3,258.3S332.6,570.3,475,570.3S733.3,454.4,733.3,312S617.4,53.7,475,53.7z"/>
			<path d="M260.3,463l-30.9-45.2L398.9,302L234.4,179.7l32.6-43.9L462.3,281c7.1,5.3,11.2,13.7,11,22.5c-0.2,8.8-4.6,17-11.9,22
				L260.3,463z"/>
			<polygon points="709.3,449.9 516.3,449.9 516.3,395.2 724.7,395.2 			"/>
		</g>
		<g>
			<g>
				<path d="M475.5,683.6h-34c-2.3,0-4.1,1.8-4.1,4.1v93.9c0,2.3-1.8,4.1-4.1,4.1h-25.7c-2.3,0-4.1-1.8-4.1-4.1v-93.9
					c0-2.3-1.8-4.1-4.1-4.1h-33.2c-2.3,0-4.1-1.8-4.1-4.1v-20.4c0-2.3,1.8-4.1,4.1-4.1h109.4c2.3,0,4.1,1.8,4.1,4.1v20.4
					C479.7,681.8,477.8,683.6,475.5,683.6z"/>
				<path d="M606.8,683.6h-34c-2.3,0-4.1,1.8-4.1,4.1v93.9c0,2.3-1.8,4.1-4.1,4.1h-25.7c-2.3,0-4.1-1.8-4.1-4.1v-93.9
					c0-2.3-1.8-4.1-4.1-4.1h-33.2c-2.3,0-4.1-1.8-4.1-4.1v-20.4c0-2.3,1.8-4.1,4.1-4.1h109.4c2.3,0,4.1,1.8,4.1,4.1v20.4
					C611,681.8,609.1,683.6,606.8,683.6z"/>
				<path d="M767.9,743.1c-1.6,13.7-6.6,24.2-15.1,31.6c-8.5,7.4-19.8,11.1-33.9,11.1c-15.3,0-27.5-5.5-36.7-16.4
					c-9.2-10.9-13.8-25.6-13.8-43.9v-12.4c0-12,2.1-22.6,6.4-31.7c4.3-9.1,10.4-16.1,18.2-21c7.9-4.9,17-7.3,27.3-7.3
					c13.7,0,24.7,3.8,33,11.5c8.3,7.7,13.1,18.3,14.5,31.8h-17.1c-1.5-10.3-4.7-17.8-9.6-22.4c-4.9-4.6-11.8-6.9-20.7-6.9
					c-10.9,0-19.4,4-25.6,12.1c-6.2,8.1-9.3,19.5-9.3,34.4V726c0,14,2.9,25.2,8.8,33.5c5.9,8.3,14.1,12.4,24.6,12.4
					c9.5,0,16.7-2.1,21.8-6.4c5.1-4.3,8.4-11.8,10.1-22.4H767.9z"/>
				<path d="M809.1,770.1h61.2v13.9H792V654.8h17.1V770.1z"/>
				<path d="M909,784.1h-17V654.8h17V784.1z"/>
			</g>
			<path d="M195.1,659.4V780c0,2.8-2.3,5-5.2,5h-21.8c-2.9,0-5.2-2.2-5.2-5l-0.3-76.6c0-4.9-28.9,36.2-28.9,36.2
				c-1,1.3-2.6,2.1-4.3,2.1h-10.6c-1.7,0-3.3-0.8-4.3-2.2c0,0-28.6-41.4-28.6-36.5l0.2,76.9c0,2.8-2.3,5-5.2,5H59.1
				c-2.9,0-5.2-2.2-5.2-5V659.4c0-2.8,2.3-5,5.2-5h29.2c1.7,0,3.3,0.8,4.3,2.2l27.6,39.8c2,3,6.5,3,8.6,0l27.6-39.8
				c1-1.4,2.6-2.2,4.3-2.2h29.2C192.8,654.4,195.1,656.6,195.1,659.4z"/>
			<path d="M349,750.3c-3.2,7.7-7.8,14.3-13.6,19.8c-2,1.8-2,4.8-0.2,6.8l17.8,18.8c-32.6,0-34.4,0.2-34.4,0.2
				c-1.5,0-2.9-0.6-3.9-1.7l-5.8-6.6c-1.3-1.4-3.3-2-5.2-1.6c-5.6,1.2-11.7,1.8-18.3,1.8c-15,0-27.8-3-38.2-8.9
				c-10.5-5.9-18.3-14-23.6-24.3c-5.2-10.3-7.9-21.9-7.9-34.9c0-12.7,2.6-24.2,7.9-34.4c5.2-10.2,13.1-18.3,23.6-24.4
				c10.5-6,23.2-9,38.2-9c14.8,0,27.4,3,37.9,9c10.5,6,18.4,14.2,23.7,24.5c5.3,10.3,8,21.7,8,34.4C354.8,731,352.9,741.2,349,750.3
				z M258,750.3c6.3,7.6,15.4,11.5,27.3,11.5h0.4l-8.4-9.3c-2.9-3.2-0.5-8.2,3.9-8.2h22.1c1.5,0,2.9,0.6,3.9,1.7l0,0
				c2.3,2.6,5.8,4.8,7.6,1.8c1.5-2.5,3.5-7.7,4.5-10.7c1.8-5.3,2.7-11.2,2.7-17.7c0-7.9-1.4-15-4.3-21.2
				c-2.9-6.2-7.1-11.1-12.6-14.6c-5.5-3.6-12.1-5.3-19.7-5.3c-11.8,0-20.9,3.8-27.2,11.5c-6.4,7.7-9.6,17.7-9.6,30.1
				C248.5,732.5,251.7,742.6,258,750.3z"/>
		</g>
	</g>
</g>
</svg>
