<svg id="Logos" xmlns="http://www.w3.org/2000/svg" viewBox="0 0 800 940"><path d="M140,657.2V781.12a5.22,5.22,0,0,1-5.31,5.12L107,786c0-48.41,0-48.45,0-48.45a5.21,5.21,0,0,0-5.31-5.12H57.36a5.21,5.21,0,0,0-5.31,5.12L51.89,786c-26.4,0-27.58.24-27.58.24A5.22,5.22,0,0,1,19,781.12V657.2a5.22,5.22,0,0,1,5.31-5.12l27.58.16c0,46.81.16,47.82.16,47.82a5.21,5.21,0,0,0,5.31,5.12h44.27a5.21,5.21,0,0,0,5.31-5.12l-.07-47.88c30.93,0,27.81-.1,27.81-.1A5.22,5.22,0,0,1,140,657.2Z"/><path d="M174.06,667.61h19.87a4.62,4.62,0,0,1,4.7,4.54V781.89a4.62,4.62,0,0,1-4.7,4.53H174.06a4.62,4.62,0,0,1-4.7-4.53V672.15A4.62,4.62,0,0,1,174.06,667.61Z"/><path d="M337.76,673.63,297.92,784.78a4.7,4.7,0,0,1-4.44,3.05H263.1a4.69,4.69,0,0,1-4.44-3.05l-40-111.15a4.56,4.56,0,0,1,4.44-6h20.09a4.71,4.71,0,0,1,4.46,3.09l26.15,75.14a4.76,4.76,0,0,0,8.92,0l26-75.13a4.7,4.7,0,0,1,4.46-3.1h20.1A4.56,4.56,0,0,1,337.76,673.63Z"/><path d="M440.07,768.38v13.51a4.62,4.62,0,0,1-4.7,4.53H362.5a4.62,4.62,0,0,1-4.7-4.53V672.15a4.62,4.62,0,0,1,4.7-4.54h72.06a4.62,4.62,0,0,1,4.7,4.54v13.5a4.62,4.62,0,0,1-4.7,4.53H391.77a4.62,4.62,0,0,0-4.71,4.53s-.05-.06-.05,20.74c0,0-.6.08,43.83.08l0,22.19c-45.87,0-44,.17-44,.17,0,21.8.15,21.43.15,21.43a4.62,4.62,0,0,0,4.71,4.53h43.6A4.62,4.62,0,0,1,440.07,768.38Z"/><path d="M616.87,657.2V781.12a5.22,5.22,0,0,1-5.31,5.12H589.13a5.22,5.22,0,0,1-5.31-5.12l-.31-78.73c0-5-29.68,37.21-29.68,37.21a5.37,5.37,0,0,1-4.37,2.21H538.53a5.37,5.37,0,0,1-4.39-2.24s-29.42-42.5-29.42-37.46l.16,79a5.22,5.22,0,0,1-5.31,5.12H477.14a5.22,5.22,0,0,1-5.31-5.12V657.2a5.22,5.22,0,0,1,5.31-5.12h30a5.36,5.36,0,0,1,4.41,2.28l28.34,40.91a5.42,5.42,0,0,0,8.83,0l28.34-40.91a5.38,5.38,0,0,1,4.42-2.28h30A5.22,5.22,0,0,1,616.87,657.2Z"/><path d="M775,750.66A59,59,0,0,1,761,771a5,5,0,0,0-.24,7l18.32,19.34c-33.47,0-35.32.24-35.32.24a5.36,5.36,0,0,1-4-1.79l-6-6.77a5.5,5.5,0,0,0-5.32-1.64,88.2,88.2,0,0,1-18.85,1.89q-23.13,0-39.29-9.12a59,59,0,0,1-24.23-25Q638,739.34,638,719.34q0-19.65,8.08-35.4a60.18,60.18,0,0,1,24.23-25q16.17-9.3,39.29-9.29,22.77,0,38.93,9.29A60.75,60.75,0,0,1,772.83,684,75.84,75.84,0,0,1,781,719.34,79.84,79.84,0,0,1,775,750.66Zm-93.54-.09q9.74,11.77,28.09,11.77H710l-8.58-9.59a5.1,5.1,0,0,1,4-8.46h22.71a5.39,5.39,0,0,1,4,1.76h0c2.38,2.65,6,4.9,7.76,1.86a75.07,75.07,0,0,0,4.61-11,57.06,57.06,0,0,0,2.75-18.14A51.37,51.37,0,0,0,742.81,697a34.74,34.74,0,0,0-12.94-15q-8.54-5.47-20.29-5.48-18.18,0-28,11.86t-9.83,31Q671.76,738.81,681.49,750.57Z"/><path d="M96.46,878.87q-1.68,14.45-10.65,22.29T62,909q-16.12,0-25.84-11.56T26.4,866.5v-8.75a51.82,51.82,0,0,1,4.53-22.31,33.74,33.74,0,0,1,12.85-14.78A35.72,35.72,0,0,1,63,815.5q14.49,0,23.25,8.09T96.46,846H84.4q-1.56-10.9-6.78-15.8T63,825.31q-11.51,0-18,8.51T38.46,858v8.82q0,14.82,6.19,23.58T62,899.19q10,0,15.35-4.53t7.09-15.79Z"/><path d="M183.48,865.19q0,13.37-4.5,23.34a34.07,34.07,0,0,1-12.75,15.22A35.19,35.19,0,0,1,115,888.66,54.06,54.06,0,0,1,110.29,866v-6.56a55.67,55.67,0,0,1,4.56-23.19,33.74,33.74,0,0,1,32-20.75,35.28,35.28,0,0,1,19.28,5.28A34,34,0,0,1,179,836.09q4.5,10,4.5,23.35Zm-11.94-5.88q0-16.18-6.5-24.84t-18.19-8.66q-11.37,0-17.9,8.66t-6.72,24v6.69q0,15.69,6.59,24.65t18.16,9q11.63,0,18-8.47t6.56-24.28Z"/><path d="M217.62,816.75,247.37,891l29.75-74.25h15.56v91h-12V872.31l1.13-38.25-29.88,73.69h-9.19l-29.81-73.5,1.19,38.06v35.44h-12v-91Z"/><path d="M330,816.75,359.76,891l29.75-74.25h15.56v91h-12V872.31l1.13-38.25-29.88,73.69h-9.19l-29.81-73.5,1.19,38.06v35.44h-12v-91Z"/><path d="M491,816.75v61.87q-.06,12.89-8.09,21.07t-21.78,9.18l-3.19.13q-14.94,0-23.81-8.06t-9-22.19v-62H437v61.62q0,9.89,5.44,15.35t15.5,5.47q10.19,0,15.59-5.44t5.41-15.31V816.75Z"/><path d="M580.48,907.75H568.41L522.6,837.62v70.13H510.54v-91H522.6l45.94,70.44V816.75h11.94Z"/><path d="M615.3,907.75h-12v-91h12Z"/><path d="M698.94,826.56H669.69v81.19H657.76V826.56H628.57v-9.81h70.37Z"/><path d="M741.83,862.44l23.75-45.69h13.63l-31.38,57.06v33.94h-12V873.81l-31.37-57.06h13.75Z"/><circle cx="400" cy="309.62" r="260" style="fill:#ffc000"/><path d="M340.49,398.06a79.91,79.91,0,0,0,13.76,26.72h93.64a79.54,79.54,0,0,0,13.76-26.72Z"/><path d="M401.07,484.84c12.07-21.76,18.36-29.22,26.39-37.66H374.67C382.74,455.62,389,463.08,401.07,484.84Z"/><path d="M460.56,343.49a695.21,695.21,0,0,0-59.49-38.87,688.08,688.08,0,0,0-59.45,38.87,89.48,89.48,0,0,0-4.77,32.17H465.28A90.33,90.33,0,0,0,460.56,343.49Z"/><path d="M538.14,301.6a7.42,7.42,0,0,0-.37,10.41l1,1.13c42.54-36.33,68.13-64.42,55.38-86.58-14-19.57-73.22-10.29-145.79,22.36a52.89,52.89,0,0,0,5.49-23.57,50.46,50.46,0,0,0-.77-8.92,52.49,52.49,0,0,0-29.34-38.75l.24-.56h0L429.6,165a3.86,3.86,0,0,0-7-3.23l-6.05,13.12a53.05,53.05,0,0,0-30.92,0l-6.05-13.12a3.87,3.87,0,0,0-7,3.23l5.41,11.71.44.92A53.19,53.19,0,0,0,363.69,188a53.29,53.29,0,0,0-10.25,60.26c-18.77-8.4-122.94-51.54-143.93-22.12-19,26.76,39.39,73.62,55,87l1-1.13a7.45,7.45,0,0,0-.32-10.41c-7.67-7.23-19.7-19.14-28.09-30.76-11-15.26-11.3-24.26-6-29.26,16.58-15.58,78.14,5,97.23,12.31a544.81,544.81,0,0,1,58.48,26.72C289.31,337.15,223,404.72,238.69,431.8c9.81,17,50.62,14.77,103.05-3.71l-1.9-3.11a7.34,7.34,0,0,0-8.52-3.27c-36.36,11-59,16.27-66.84,4.56-10.93-18.93,44.52-84.15,130.7-133.88l6.45-3.71c2.18,1.21,4.36,2.46,6.5,3.71,86.17,49.73,141.63,115,130.69,133.88C531,438,508.35,432.73,472,421.71a7.32,7.32,0,0,0-8.51,3.27l-1.9,3.11c52.43,18.48,93.24,20.7,103,3.71,15.62-27.08-50.61-94.65-148.16-151.19C485.1,244.4,547,228.3,569.66,239.84,590,250.21,554.28,286.3,538.14,301.6ZM357,232.25a44.82,44.82,0,0,1,25.27-47.58A44.9,44.9,0,0,1,357,232.25Zm87.79,0a44.86,44.86,0,0,1-25.27-47.58A44.87,44.87,0,0,1,444.78,232.25Z"/><path d="M357,232.25a44.82,44.82,0,0,1,25.27-47.58A44.9,44.9,0,0,1,357,232.25Z" style="fill:#fff;fill-rule:evenodd"/><path d="M538.64,426.65c-7.83,11.71-30.47,6.46-66.84-4.56a7.29,7.29,0,0,0-4.8.16c11.1-16.1,13.52-45.77,9.65-67.4a.64.64,0,0,1,0-.32.3.3,0,0,1,0-.16c-1.17-8.48-3-15.18-5.16-18.17C519.71,375.07,546.63,413,538.64,426.65Z" style="fill:#fff;fill-rule:evenodd"/><path d="M267.11,308.38A6.66,6.66,0,0,0,265,301.2c-16.18-15.27-51.91-51.38-31.53-61.75,22.69-11.55,84.7,5,153.35,41.16-34.63,20.06-58.41,36.62-83.44,56.83C275.68,317.13,270.73,312.6,267.11,308.38Z" style="fill:#fff;fill-rule:evenodd"/><path d="M500.41,337.88c-24.46-20.55-49.33-37.18-84-57.24,68.65-36.2,130.53-52.3,153.21-40.76,20.38,10.37-15.38,46.46-31.52,61.75-2.87,2.71-2.17,3.95-2.08,7.19C532.44,313,528.15,317.56,500.41,337.88Z" style="fill:#fff;fill-rule:evenodd"/><path d="M331.81,335.7c-2.14,3-4,9.68-5.17,18.16a.3.3,0,0,1,0,.16.78.78,0,0,1,0,.32c-3.87,21.64-1.45,51.3,9.65,67.41a7.19,7.19,0,0,0-4.81-.16c-36.36,11-59,16.26-66.84,4.56C256.57,412.51,283.49,374.57,331.81,335.7Z" style="fill:#fff;fill-rule:evenodd"/><path d="M444.78,232.29a44.87,44.87,0,0,1-25.27-47.59A44.89,44.89,0,0,1,444.78,232.29Z" style="fill:#fff;fill-rule:evenodd"/><path d="M400,591.61c-155.48,0-282-126.5-282-282s126.5-282,282-282,282,126.5,282,282S555.48,591.61,400,591.61Zm0-540.13c-142.34,0-258.15,115.8-258.15,258.15S257.66,567.77,400,567.77,658.15,452,658.15,309.63,542.34,51.48,400,51.48Z"/></svg>