<?xml version="1.0" encoding="UTF-8"?><svg id="Icon" xmlns="http://www.w3.org/2000/svg" viewBox="0 0 200 200"><g><g><line x1="60.19" y1="6" x2="60.19" y2="20.31" style="fill:none; stroke:#fff; stroke-linecap:round; stroke-miterlimit:10; stroke-width:4px;"/><line x1="86.14" y1="6" x2="86.14" y2="20.31" style="fill:none; stroke:#fff; stroke-linecap:round; stroke-miterlimit:10; stroke-width:4px;"/><line x1="112.09" y1="6" x2="112.09" y2="20.31" style="fill:none; stroke:#fff; stroke-linecap:round; stroke-miterlimit:10; stroke-width:4px;"/><line x1="138.05" y1="6" x2="138.05" y2="20.31" style="fill:none; stroke:#fff; stroke-linecap:round; stroke-miterlimit:10; stroke-width:4px;"/></g><g><line x1="60.19" y1="179.69" x2="60.19" y2="194" style="fill:none; stroke:#fff; stroke-linecap:round; stroke-miterlimit:10; stroke-width:4px;"/><line x1="86.14" y1="179.69" x2="86.14" y2="194" style="fill:none; stroke:#fff; stroke-linecap:round; stroke-miterlimit:10; stroke-width:4px;"/><line x1="112.09" y1="179.69" x2="112.09" y2="194" style="fill:none; stroke:#fff; stroke-linecap:round; stroke-miterlimit:10; stroke-width:4px;"/><line x1="138.05" y1="179.69" x2="138.05" y2="194" style="fill:none; stroke:#fff; stroke-linecap:round; stroke-miterlimit:10; stroke-width:4px;"/></g><g><line x1="20.56" y1="61.49" x2="3.75" y2="61.49" style="fill:none; stroke:#fff; stroke-linecap:round; stroke-miterlimit:10; stroke-width:4px;"/><line x1="20.56" y1="87.44" x2="3.75" y2="87.44" style="fill:none; stroke:#fff; stroke-linecap:round; stroke-miterlimit:10; stroke-width:4px;"/><line x1="20.56" y1="113.4" x2="3.75" y2="113.4" style="fill:none; stroke:#fff; stroke-linecap:round; stroke-miterlimit:10; stroke-width:4px;"/><line x1="20.56" y1="139.35" x2="3.75" y2="139.35" style="fill:none; stroke:#fff; stroke-linecap:round; stroke-miterlimit:10; stroke-width:4px;"/></g><g><line x1="196.25" y1="61.49" x2="179.44" y2="61.49" style="fill:none; stroke:#fff; stroke-linecap:round; stroke-miterlimit:10; stroke-width:4px;"/><line x1="196.25" y1="87.44" x2="179.44" y2="87.44" style="fill:none; stroke:#fff; stroke-linecap:round; stroke-miterlimit:10; stroke-width:4px;"/><line x1="196.25" y1="113.4" x2="179.44" y2="113.4" style="fill:none; stroke:#fff; stroke-linecap:round; stroke-miterlimit:10; stroke-width:4px;"/><line x1="196.25" y1="139.35" x2="179.44" y2="139.35" style="fill:none; stroke:#fff; stroke-linecap:round; stroke-miterlimit:10; stroke-width:4px;"/></g><rect x="20.62" y="21.92" width="156.99" height="156.99" rx="16.45" ry="16.45" style="fill:none; stroke:#fff; stroke-linecap:round; stroke-miterlimit:10; stroke-width:4px;"/><rect x="32.03" y="33.34" width="134.17" height="134.17" rx="10.97" ry="10.97" style="fill:none; stroke:#fff; stroke-linecap:round; stroke-miterlimit:10; stroke-width:4px;"/></g><path d="M87.74,70.02s.02-11.58-13.53-13.9c-10.11-1.73-17.49,5.7-19.79,12.73-2.01,6.12-1.38,12.74-1.38,12.74" style="fill:none; stroke:#fff; stroke-linecap:round; stroke-miterlimit:10; stroke-width:4px;"/><path d="M65.6,115.01s-16.21,0-18.86-11.58c-2.74-11.97,.77-19.73,8.27-21.84,10.59-2.98,15.23,3.64,15.23,3.64" style="fill:none; stroke:#fff; stroke-linecap:round; stroke-miterlimit:10; stroke-width:4px;"/><path d="M67.92,139.83s-11.25,0-14.46-9.77c-3.94-12,3.05-16.57,3.05-16.57" style="fill:none; stroke:#fff; stroke-linecap:round; stroke-miterlimit:10; stroke-width:4px;"/><path d="M82.14,126.65s-7.36-.42-11.9,7.22c-4.54,7.64,2.35,19.19,11.9,20.18,9.55,.99,16.81-8.6,16.81-8.6V52.82s-6.67-10.75-16.93-6.78c-6.9,2.67-8.98,10.08-8.98,10.08" style="fill:none; stroke:#fff; stroke-linecap:round; stroke-miterlimit:10; stroke-width:4px;"/><path d="M81.81,79.53s-4.84-.62-10.16,5.13-3.3,13.42-3.3,13.42" style="fill:none; stroke:#fff; stroke-linecap:round; stroke-miterlimit:10; stroke-width:4px;"/><path d="M87.74,115.01s-6.67,4.44-5.59,11.64c.74,4.98,4.73,8.96,7.17,10.12" style="fill:none; stroke:#fff; stroke-linecap:round; stroke-miterlimit:10; stroke-width:4px;"/><path d="M110.47,129.1s-.02,11.58,13.53,13.9c10.11,1.73,17.49-5.7,19.79-12.73,2.01-6.12,1.38-12.74,1.38-12.74" style="fill:none; stroke:#fff; stroke-linecap:round; stroke-miterlimit:10; stroke-width:4px;"/><path d="M132.61,84.11s16.21,0,18.86,11.58c2.74,11.97-.77,19.73-8.27,21.84-10.59,2.98-15.23-3.64-15.23-3.64" style="fill:none; stroke:#fff; stroke-linecap:round; stroke-miterlimit:10; stroke-width:4px;"/><path d="M130.29,59.3s11.25,0,14.46,9.77c3.94,12-3.05,16.57-3.05,16.57" style="fill:none; stroke:#fff; stroke-linecap:round; stroke-miterlimit:10; stroke-width:4px;"/><path d="M99.25,146.31s6.89,11.79,17.14,7.82c6.9-2.67,8.77-11.12,8.77-11.12" style="fill:none; stroke:#fff; stroke-linecap:round; stroke-miterlimit:10; stroke-width:4px;"/><path d="M116.06,72.47s7.36,.42,11.9-7.22c4.54-7.64-2.35-19.19-11.9-20.18-9.55-.99-16.81,8.6-16.81,8.6" style="fill:none; stroke:#fff; stroke-linecap:round; stroke-miterlimit:10; stroke-width:4px;"/><path d="M116.4,119.59s4.84,.62,10.16-5.13c5.14-5.55,3.3-13.42,3.3-13.42" style="fill:none; stroke:#fff; stroke-linecap:round; stroke-miterlimit:10; stroke-width:4px;"/><path d="M110.47,84.11s6.67-4.44,5.59-11.64c-.74-4.98-4.73-8.96-7.17-10.12" style="fill:none; stroke:#fff; stroke-linecap:round; stroke-miterlimit:10; stroke-width:4px;"/></svg>