<svg id="Ebene_1" data-name="Ebene 1" xmlns="http://www.w3.org/2000/svg" xmlns:xlink="http://www.w3.org/1999/xlink" viewBox="0 0 750 550"><defs><linearGradient id="Unbenannter_Verlauf_8" x1="407.71" y1="12.03" x2="407.71" y2="103.44" gradientUnits="userSpaceOnUse"><stop offset="0" stop-color="#fff"/><stop offset="0.35" stop-color="#fdfdfe"/><stop offset="1" stop-color="#d7e0e5"/></linearGradient><linearGradient id="Unbenannter_Verlauf_8-2" x1="521.71" y1="44.03" x2="521.71" y2="135.44" xlink:href="#Unbenannter_Verlauf_8"/><linearGradient id="Unbenannter_Verlauf_8-3" x1="491.71" y1="148.36" x2="491.71" y2="239.77" xlink:href="#Unbenannter_Verlauf_8"/><linearGradient id="Unbenannter_Verlauf_8-4" x1="601.71" y1="214.53" x2="601.71" y2="305.94" xlink:href="#Unbenannter_Verlauf_8"/><linearGradient id="Unbenannter_Verlauf_8-5" x1="491.71" y1="280.69" x2="491.71" y2="372.1" xlink:href="#Unbenannter_Verlauf_8"/><linearGradient id="Unbenannter_Verlauf_8-6" x1="407.71" y1="417.03" x2="407.71" y2="508.44" xlink:href="#Unbenannter_Verlauf_8"/><linearGradient id="Unbenannter_Verlauf_8-7" x1="521.71" y1="385.03" x2="521.71" y2="476.44" xlink:href="#Unbenannter_Verlauf_8"/><linearGradient id="Unbenannter_Verlauf_4" x1="9.36" y1="245.05" x2="198.61" y2="245.05" gradientUnits="userSpaceOnUse"><stop offset="0" stop-color="#fff"/><stop offset="1" stop-color="#ccc"/></linearGradient><linearGradient id="Unbenannter_Verlauf_4-2" x1="75.26" y1="321.96" x2="132.71" y2="321.96" xlink:href="#Unbenannter_Verlauf_4"/></defs><polyline points="103.98 174.98 103.98 46.98 342.38 47.94" style="fill:none;stroke:#003e6e;stroke-miterlimit:10;stroke-width:2px"/><polygon points="340.16 55.41 353.15 47.99 340.23 40.45 340.16 55.41" style="fill:#003e6e"/><polyline points="165.32 174.98 165.32 117.65 458.55 117.98" style="fill:none;stroke:#003e6e;stroke-miterlimit:10;stroke-width:2px"/><polygon points="456.36 125.46 469.31 118 456.37 110.5 456.36 125.46" style="fill:#003e6e"/><polyline points="122.65 166.62 122.65 70.98 349.98 71.79" style="fill:none;stroke:#f60;stroke-miterlimit:10;stroke-width:2px"/><polygon points="130.13 164.43 122.65 177.38 115.17 164.43 130.13 164.43" style="fill:#f60"/><polyline points="182.65 166.62 182.65 131.65 452.98 131.89" style="fill:none;stroke:#f60;stroke-miterlimit:10;stroke-width:2px"/><polygon points="190.13 164.43 182.65 177.38 175.17 164.43 190.13 164.43" style="fill:#f60"/><polyline points="165.32 357.05 165.32 404.38 458.55 404.05" style="fill:none;stroke:#003e6e;stroke-miterlimit:10;stroke-width:2px"/><polygon points="456.37 411.53 469.31 404.04 456.36 396.57 456.37 411.53" style="fill:#003e6e"/><polyline points="182.65 365.41 182.65 390.38 452.98 390.14" style="fill:none;stroke:#f60;stroke-miterlimit:10;stroke-width:2px"/><polygon points="175.17 367.6 182.65 354.65 190.13 367.6 175.17 367.6" style="fill:#f60"/><rect x="162.65" y="22.32" width="152" height="58.36" style="fill:#fff"/><rect x="362" y="12.03" width="91.41" height="91.41" rx="3.13" style="stroke:gray;stroke-miterlimit:10;stroke-width:2px;fill:url(#Unbenannter_Verlauf_8)"/><path d="M407.34,94.23a15,15,0,0,1-15.2-14.76,14.68,14.68,0,0,1,6-11.76l.4-.3V29.32a7,7,0,0,1,7.06-6.84H409a7,7,0,0,1,7.06,6.84V67.41l.41.3a14.7,14.7,0,0,1,6,11.76A15,15,0,0,1,407.34,94.23Z" style="fill:#fff"/><path d="M409,23.48a6,6,0,0,1,6.06,5.84V67.91l.81.6a13.7,13.7,0,0,1,5.62,11,14.2,14.2,0,0,1-28.39,0,13.7,13.7,0,0,1,5.62-11l.81-.6V29.32a6,6,0,0,1,6.06-5.84H409m0-2h-3.41a8,8,0,0,0-8.06,7.84V66.9a15.67,15.67,0,0,0-6.43,12.57,16.2,16.2,0,0,0,32.39,0A15.67,15.67,0,0,0,417.1,66.9V29.32A8,8,0,0,0,409,21.48Z"/><path d="M407.34,92.32a13.09,13.09,0,0,1-13.29-12.85,12.79,12.79,0,0,1,5.25-10.23l1.18-.87V52.21h13.71V68.37l1.19.87a12.82,12.82,0,0,1,5.25,10.23A13.09,13.09,0,0,1,407.34,92.32Z" style="fill:#b0b574"/><line x1="405.92" y1="64.76" x2="417.19" y2="64.76" style="fill:none;stroke:#000;stroke-miterlimit:10;stroke-width:2px"/><line x1="405.92" y1="56.46" x2="417.19" y2="56.46" style="fill:none;stroke:#000;stroke-miterlimit:10;stroke-width:2px"/><line x1="405.92" y1="48.15" x2="417.19" y2="48.15" style="fill:none;stroke:#000;stroke-miterlimit:10;stroke-width:2px"/><line x1="405.92" y1="39.85" x2="417.19" y2="39.85" style="fill:none;stroke:#000;stroke-miterlimit:10;stroke-width:2px"/><line x1="405.92" y1="32.59" x2="417.19" y2="32.59" style="fill:none;stroke:#000;stroke-miterlimit:10;stroke-width:2px"/><rect x="476" y="44.03" width="91.41" height="91.41" rx="3.13" style="stroke:gray;stroke-miterlimit:10;stroke-width:2px;fill:url(#Unbenannter_Verlauf_8-2)"/><path d="M521.34,126.23a15,15,0,0,1-15.2-14.76,14.68,14.68,0,0,1,6-11.76l.4-.3V61.32a7,7,0,0,1,7.06-6.84H523a7,7,0,0,1,7.06,6.84V99.41l.41.3a14.7,14.7,0,0,1,6,11.76A15,15,0,0,1,521.34,126.23Z" style="fill:#fff"/><path d="M523,55.48a6,6,0,0,1,6.06,5.84V99.91l.81.6a13.7,13.7,0,0,1,5.62,11,14.2,14.2,0,0,1-28.39,0,13.7,13.7,0,0,1,5.62-11l.81-.6V61.32a6,6,0,0,1,6.06-5.84H523m0-2h-3.41a8,8,0,0,0-8.06,7.84V98.9a15.67,15.67,0,0,0-6.43,12.57,16.2,16.2,0,0,0,32.39,0A15.67,15.67,0,0,0,531.1,98.9V61.32A8,8,0,0,0,523,53.48Z"/><path d="M521.34,124.32a13.09,13.09,0,0,1-13.29-12.85,12.79,12.79,0,0,1,5.25-10.23l1.18-.87V80.21h13.71v20.16l1.19.87a12.82,12.82,0,0,1,5.25,10.23A13.09,13.09,0,0,1,521.34,124.32Z" style="fill:#b0b574"/><line x1="519.92" y1="96.76" x2="531.19" y2="96.76" style="fill:none;stroke:#000;stroke-miterlimit:10;stroke-width:2px"/><line x1="519.92" y1="88.46" x2="531.19" y2="88.46" style="fill:none;stroke:#000;stroke-miterlimit:10;stroke-width:2px"/><line x1="519.92" y1="80.15" x2="531.19" y2="80.15" style="fill:none;stroke:#000;stroke-miterlimit:10;stroke-width:2px"/><line x1="519.92" y1="71.85" x2="531.19" y2="71.85" style="fill:none;stroke:#000;stroke-miterlimit:10;stroke-width:2px"/><line x1="519.92" y1="64.59" x2="531.19" y2="64.59" style="fill:none;stroke:#000;stroke-miterlimit:10;stroke-width:2px"/><rect x="446" y="148.36" width="91.41" height="91.41" rx="3.13" style="stroke:gray;stroke-miterlimit:10;stroke-width:2px;fill:url(#Unbenannter_Verlauf_8-3)"/><path d="M491.34,230.56a15,15,0,0,1-15.2-14.76,14.7,14.7,0,0,1,6-11.76l.4-.3V165.66a7,7,0,0,1,7.06-6.84H493a7,7,0,0,1,7.06,6.84v38.08l.41.3a14.71,14.71,0,0,1,6,11.76A15,15,0,0,1,491.34,230.56Z" style="fill:#fff"/><path d="M493,159.82a6,6,0,0,1,6.06,5.84v38.59l.81.59a13.72,13.72,0,0,1,5.62,11,14.2,14.2,0,0,1-28.39,0,13.72,13.72,0,0,1,5.62-11l.81-.59V165.66a6,6,0,0,1,6.06-5.84H493m0-2h-3.41a8,8,0,0,0-8.06,7.84v37.57a15.67,15.67,0,0,0-6.43,12.57,16.2,16.2,0,0,0,32.39,0,15.67,15.67,0,0,0-6.43-12.57V165.66a8,8,0,0,0-8.06-7.84Z"/><path d="M491.34,228.66a13.09,13.09,0,0,1-13.29-12.86,12.81,12.81,0,0,1,5.25-10.23l1.18-.87V188.54h13.71V204.7l1.19.87a12.83,12.83,0,0,1,5.25,10.23A13.09,13.09,0,0,1,491.34,228.66Z" style="fill:#b0b574"/><line x1="489.92" y1="201.09" x2="501.19" y2="201.09" style="fill:none;stroke:#000;stroke-miterlimit:10;stroke-width:2px"/><line x1="489.92" y1="192.79" x2="501.19" y2="192.79" style="fill:none;stroke:#000;stroke-miterlimit:10;stroke-width:2px"/><line x1="489.92" y1="184.49" x2="501.19" y2="184.49" style="fill:none;stroke:#000;stroke-miterlimit:10;stroke-width:2px"/><line x1="489.92" y1="176.19" x2="501.19" y2="176.19" style="fill:none;stroke:#000;stroke-miterlimit:10;stroke-width:2px"/><line x1="489.92" y1="168.92" x2="501.19" y2="168.92" style="fill:none;stroke:#000;stroke-miterlimit:10;stroke-width:2px"/><rect x="556" y="214.53" width="91.41" height="91.41" rx="3.13" style="stroke:gray;stroke-miterlimit:10;stroke-width:2px;fill:url(#Unbenannter_Verlauf_8-4)"/><path d="M601.34,296.73A15,15,0,0,1,586.14,282a14.68,14.68,0,0,1,6-11.76l.4-.3V231.82a7,7,0,0,1,7.06-6.84H603a7,7,0,0,1,7.06,6.84v38.09l.41.3a14.7,14.7,0,0,1,6,11.76A15,15,0,0,1,601.34,296.73Z" style="fill:#fff"/><path d="M603,226a6,6,0,0,1,6.06,5.84v38.59l.81.6a13.7,13.7,0,0,1,5.62,11,14.2,14.2,0,0,1-28.39,0,13.7,13.7,0,0,1,5.62-11l.81-.6V231.82a6,6,0,0,1,6.06-5.84H603m0-2h-3.41a8,8,0,0,0-8.06,7.84V269.4A15.67,15.67,0,0,0,585.14,282a16.2,16.2,0,0,0,32.39,0,15.67,15.67,0,0,0-6.43-12.57V231.82A8,8,0,0,0,603,224Z"/><path d="M601.34,294.82A13.09,13.09,0,0,1,588.05,282a12.79,12.79,0,0,1,5.25-10.23l1.18-.87V254.71h13.71v16.16l1.19.87A12.82,12.82,0,0,1,614.63,282,13.09,13.09,0,0,1,601.34,294.82Z" style="fill:#b0b574"/><line x1="599.92" y1="267.26" x2="611.19" y2="267.26" style="fill:none;stroke:#000;stroke-miterlimit:10;stroke-width:2px"/><line x1="599.92" y1="258.96" x2="611.19" y2="258.96" style="fill:none;stroke:#000;stroke-miterlimit:10;stroke-width:2px"/><line x1="599.92" y1="250.65" x2="611.19" y2="250.65" style="fill:none;stroke:#000;stroke-miterlimit:10;stroke-width:2px"/><line x1="599.92" y1="242.35" x2="611.19" y2="242.35" style="fill:none;stroke:#000;stroke-miterlimit:10;stroke-width:2px"/><line x1="599.92" y1="235.09" x2="611.19" y2="235.09" style="fill:none;stroke:#000;stroke-miterlimit:10;stroke-width:2px"/><rect x="446" y="280.69" width="91.41" height="91.41" rx="3.13" style="stroke:gray;stroke-miterlimit:10;stroke-width:2px;fill:url(#Unbenannter_Verlauf_8-5)"/><path d="M491.34,362.9a15,15,0,0,1-15.2-14.76,14.7,14.7,0,0,1,6-11.77l.4-.3V298a7,7,0,0,1,7.06-6.84H493A7,7,0,0,1,500.1,298v38.08l.41.3a14.72,14.72,0,0,1,6,11.77A15,15,0,0,1,491.34,362.9Z" style="fill:#fff"/><path d="M493,292.15A6,6,0,0,1,499.1,298v38.59l.81.6a13.7,13.7,0,0,1,5.62,11,14.2,14.2,0,0,1-28.39,0,13.7,13.7,0,0,1,5.62-11l.81-.6V298a6,6,0,0,1,6.06-5.84H493m0-2h-3.41a8,8,0,0,0-8.06,7.84v37.58a15.64,15.64,0,0,0-6.43,12.57,16.2,16.2,0,0,0,32.39,0,15.64,15.64,0,0,0-6.43-12.57V298a8,8,0,0,0-8.06-7.84Z"/><path d="M491.34,361a13.09,13.09,0,0,1-13.29-12.85,12.78,12.78,0,0,1,5.25-10.23l1.18-.87v-8.16h13.71V337l1.19.87a12.81,12.81,0,0,1,5.25,10.23A13.09,13.09,0,0,1,491.34,361Z" style="fill:#b0b574"/><line x1="489.92" y1="333.43" x2="501.19" y2="333.43" style="fill:none;stroke:#000;stroke-miterlimit:10;stroke-width:2px"/><line x1="489.92" y1="325.12" x2="501.19" y2="325.12" style="fill:none;stroke:#000;stroke-miterlimit:10;stroke-width:2px"/><line x1="489.92" y1="316.82" x2="501.19" y2="316.82" style="fill:none;stroke:#000;stroke-miterlimit:10;stroke-width:2px"/><line x1="489.92" y1="308.52" x2="501.19" y2="308.52" style="fill:none;stroke:#000;stroke-miterlimit:10;stroke-width:2px"/><line x1="489.92" y1="301.25" x2="501.19" y2="301.25" style="fill:none;stroke:#000;stroke-miterlimit:10;stroke-width:2px"/><rect x="362" y="417.03" width="91.41" height="91.41" rx="3.13" style="stroke:gray;stroke-miterlimit:10;stroke-width:2px;fill:url(#Unbenannter_Verlauf_8-6)"/><path d="M407.34,499.23a15,15,0,0,1-15.2-14.76,14.68,14.68,0,0,1,6-11.76l.4-.3V434.32a7,7,0,0,1,7.06-6.84H409a7,7,0,0,1,7.06,6.84v38.09l.41.3a14.7,14.7,0,0,1,6,11.76A15,15,0,0,1,407.34,499.23Z" style="fill:#fff"/><path d="M409,428.48a6,6,0,0,1,6.06,5.84v38.59l.81.6a13.7,13.7,0,0,1,5.62,11,14.2,14.2,0,0,1-28.39,0,13.7,13.7,0,0,1,5.62-11l.81-.6V434.32a6,6,0,0,1,6.06-5.84H409m0-2h-3.41a8,8,0,0,0-8.06,7.84V471.9a15.67,15.67,0,0,0-6.43,12.57,16.2,16.2,0,0,0,32.39,0,15.67,15.67,0,0,0-6.43-12.57V434.32a8,8,0,0,0-8.06-7.84Z"/><path d="M407.34,497.32a13.09,13.09,0,0,1-13.29-12.85,12.79,12.79,0,0,1,5.25-10.23l1.18-.87V448.21h13.71v25.16l1.19.87a12.82,12.82,0,0,1,5.25,10.23A13.09,13.09,0,0,1,407.34,497.32Z" style="fill:#b0b574"/><line x1="405.92" y1="469.76" x2="417.19" y2="469.76" style="fill:none;stroke:#000;stroke-miterlimit:10;stroke-width:2px"/><line x1="405.92" y1="461.46" x2="417.19" y2="461.46" style="fill:none;stroke:#000;stroke-miterlimit:10;stroke-width:2px"/><line x1="405.92" y1="453.15" x2="417.19" y2="453.15" style="fill:none;stroke:#000;stroke-miterlimit:10;stroke-width:2px"/><line x1="405.92" y1="444.85" x2="417.19" y2="444.85" style="fill:none;stroke:#000;stroke-miterlimit:10;stroke-width:2px"/><line x1="405.92" y1="437.59" x2="417.19" y2="437.59" style="fill:none;stroke:#000;stroke-miterlimit:10;stroke-width:2px"/><rect x="476" y="385.03" width="91.41" height="91.41" rx="3.13" style="stroke:gray;stroke-miterlimit:10;stroke-width:2px;fill:url(#Unbenannter_Verlauf_8-7)"/><path d="M521.34,467.23a15,15,0,0,1-15.2-14.76,14.68,14.68,0,0,1,6-11.76l.4-.3V402.32a7,7,0,0,1,7.06-6.84H523a7,7,0,0,1,7.06,6.84v38.09l.41.3a14.7,14.7,0,0,1,6,11.76A15,15,0,0,1,521.34,467.23Z" style="fill:#fff"/><path d="M523,396.48a6,6,0,0,1,6.06,5.84v38.59l.81.6a13.7,13.7,0,0,1,5.62,11,14.2,14.2,0,0,1-28.39,0,13.7,13.7,0,0,1,5.62-11l.81-.6V402.32a6,6,0,0,1,6.06-5.84H523m0-2h-3.41a8,8,0,0,0-8.06,7.84V439.9a15.67,15.67,0,0,0-6.43,12.57,16.2,16.2,0,0,0,32.39,0,15.67,15.67,0,0,0-6.43-12.57V402.32a8,8,0,0,0-8.06-7.84Z"/><path d="M521.34,465.32a13.09,13.09,0,0,1-13.29-12.85,12.79,12.79,0,0,1,5.25-10.23l1.18-.87V425.21h13.71v16.16l1.19.87a12.82,12.82,0,0,1,5.25,10.23A13.09,13.09,0,0,1,521.34,465.32Z" style="fill:#b0b574"/><line x1="519.92" y1="437.76" x2="531.19" y2="437.76" style="fill:none;stroke:#000;stroke-miterlimit:10;stroke-width:2px"/><line x1="519.92" y1="429.46" x2="531.19" y2="429.46" style="fill:none;stroke:#000;stroke-miterlimit:10;stroke-width:2px"/><line x1="519.92" y1="421.15" x2="531.19" y2="421.15" style="fill:none;stroke:#000;stroke-miterlimit:10;stroke-width:2px"/><line x1="519.92" y1="412.85" x2="531.19" y2="412.85" style="fill:none;stroke:#000;stroke-miterlimit:10;stroke-width:2px"/><line x1="519.92" y1="405.59" x2="531.19" y2="405.59" style="fill:none;stroke:#000;stroke-miterlimit:10;stroke-width:2px"/><polyline points="104.63 353.69 104.63 470.98 342.59 470.17" style="fill:none;stroke:#f60;stroke-miterlimit:10;stroke-width:2px"/><polygon points="340.43 477.66 353.35 470.14 340.38 462.7 340.43 477.66" style="fill:#f60"/><path d="M171.58,46.83v5H169.9V39h4.72a4.77,4.77,0,0,1,3.29,1.07A3.65,3.65,0,0,1,179.1,43a3.58,3.58,0,0,1-1.17,2.87,4.93,4.93,0,0,1-3.33,1Zm0-1.38h3a3.05,3.05,0,0,0,2.07-.64,2.35,2.35,0,0,0,.72-1.85,2.42,2.42,0,0,0-.72-1.83,2.89,2.89,0,0,0-2-.71h-3.13Z" style="fill:#003e6e"/><path d="M180.45,47a5.71,5.71,0,0,1,.55-2.51,4.06,4.06,0,0,1,3.77-2.33,4,4,0,0,1,3.14,1.35,5.16,5.16,0,0,1,1.2,3.57v.12a5.75,5.75,0,0,1-.53,2.49,4,4,0,0,1-1.52,1.72,4.22,4.22,0,0,1-2.27.61,4,4,0,0,1-3.14-1.34,5.15,5.15,0,0,1-1.2-3.56Zm1.64.2a4.07,4.07,0,0,0,.73,2.54,2.35,2.35,0,0,0,2,1,2.32,2.32,0,0,0,2-1,4.4,4.4,0,0,0,.73-2.72,4,4,0,0,0-.74-2.53,2.34,2.34,0,0,0-2-1,2.32,2.32,0,0,0-1.94,1A4.34,4.34,0,0,0,182.09,47.19Z" style="fill:#003e6e"/><path d="M192.92,51.84h-1.63V38.34h1.63Z" style="fill:#003e6e"/><path d="M197.28,51.84h-1.62V38.34h1.62Z" style="fill:#003e6e"/><path d="M199.83,51a1.05,1.05,0,0,1,.25-.7,1.16,1.16,0,0,1,1.51,0,1,1,0,0,1,.26.7.92.92,0,0,1-.26.68,1,1,0,0,1-1.76-.68Zm0-7.76a1,1,0,0,1,.25-.7,1.16,1.16,0,0,1,1.51,0,1,1,0,0,1,.26.7.92.92,0,0,1-.26.68,1.19,1.19,0,0,1-1.51,0A1,1,0,0,1,199.84,43.22Z" style="fill:#003e6e"/><path d="M217.45,40.42h-4.12V51.84h-1.68V40.42h-4.1V39h9.9Z" style="fill:#003e6e"/><path d="M222.17,52A4.15,4.15,0,0,1,219,50.74a4.69,4.69,0,0,1-1.21-3.39v-.3a5.7,5.7,0,0,1,.54-2.53,4.21,4.21,0,0,1,1.51-1.74,3.8,3.8,0,0,1,2.1-.63,3.59,3.59,0,0,1,2.89,1.22,5.33,5.33,0,0,1,1,3.5v.68h-6.44a3.43,3.43,0,0,0,.82,2.27,2.58,2.58,0,0,0,2,.87,2.77,2.77,0,0,0,1.46-.36,3.56,3.56,0,0,0,1-.93l1,.78A4,4,0,0,1,222.17,52ZM222,43.49a2.2,2.2,0,0,0-1.65.71,3.57,3.57,0,0,0-.83,2h4.77v-.12a3.09,3.09,0,0,0-.67-1.92A2,2,0,0,0,222,43.49Z" style="fill:#003e6e"/><path d="M229.28,42.33l.05,1.05a3.52,3.52,0,0,1,2.82-1.23,2.73,2.73,0,0,1,2.72,1.53,3.56,3.56,0,0,1,1.23-1.11,3.68,3.68,0,0,1,1.8-.42q3.12,0,3.18,3.32v6.37h-1.63V45.56A2.16,2.16,0,0,0,239,44a2,2,0,0,0-1.57-.51,2.1,2.1,0,0,0-2.19,2v6.31h-1.64V45.61a1.82,1.82,0,0,0-2-2.08,2.18,2.18,0,0,0-2.19,1.36v7h-1.62V42.33Z" style="fill:#003e6e"/><path d="M251.56,47.19a5.72,5.72,0,0,1-1,3.5A3.19,3.19,0,0,1,247.88,52a3.46,3.46,0,0,1-2.72-1.1v4.58h-1.63V42.33H245l.08,1.05a3.34,3.34,0,0,1,2.76-1.23,3.25,3.25,0,0,1,2.71,1.29,5.81,5.81,0,0,1,1,3.6ZM249.94,47a4.18,4.18,0,0,0-.69-2.54,2.2,2.2,0,0,0-1.88-.93,2.39,2.39,0,0,0-2.21,1.31v4.55a2.4,2.4,0,0,0,2.23,1.3,2.2,2.2,0,0,0,1.86-.93A4.6,4.6,0,0,0,249.94,47Z" style="fill:#003e6e"/><path d="M257.58,52a4.15,4.15,0,0,1-3.15-1.27,4.69,4.69,0,0,1-1.21-3.39v-.3a5.7,5.7,0,0,1,.54-2.53,4.21,4.21,0,0,1,1.51-1.74,3.8,3.8,0,0,1,2.1-.63,3.59,3.59,0,0,1,2.89,1.22,5.33,5.33,0,0,1,1,3.5v.68h-6.45a3.39,3.39,0,0,0,.83,2.27,2.56,2.56,0,0,0,2,.87,2.77,2.77,0,0,0,1.46-.36,3.56,3.56,0,0,0,1.05-.93l1,.78A4,4,0,0,1,257.58,52Zm-.21-8.52a2.2,2.2,0,0,0-1.65.71,3.49,3.49,0,0,0-.82,2h4.76v-.12a3.09,3.09,0,0,0-.67-1.92A2,2,0,0,0,257.37,43.49Z" style="fill:#003e6e"/><path d="M267.76,43.79a4.92,4.92,0,0,0-.8-.06,2.14,2.14,0,0,0-2.17,1.36v6.75h-1.62V42.33h1.58l0,1.1A2.55,2.55,0,0,1,267,42.15a1.67,1.67,0,0,1,.72.12Z" style="fill:#003e6e"/><path d="M274.78,51.84a3.26,3.26,0,0,1-.23-1A3.65,3.65,0,0,1,271.84,52a3.36,3.36,0,0,1-2.31-.79,2.57,2.57,0,0,1-.9-2,2.7,2.7,0,0,1,1.13-2.31,5.4,5.4,0,0,1,3.18-.82h1.58v-.75A1.81,1.81,0,0,0,274,44a2,2,0,0,0-1.5-.51,2.39,2.39,0,0,0-1.46.44,1.3,1.3,0,0,0-.59,1.06h-1.63a2.27,2.27,0,0,1,.5-1.37,3.56,3.56,0,0,1,1.37-1.05,4.59,4.59,0,0,1,1.91-.39,3.79,3.79,0,0,1,2.57.82,3,3,0,0,1,1,2.27v4.37a5.44,5.44,0,0,0,.33,2.09v.14Zm-2.7-1.24a2.81,2.81,0,0,0,1.45-.4,2.28,2.28,0,0,0,1-1v-2h-1.27c-2,0-3,.59-3,1.75a1.49,1.49,0,0,0,.51,1.2A2,2,0,0,0,272.08,50.6Z" style="fill:#003e6e"/><path d="M280.9,40v2.31h1.78v1.25H280.9v5.91a1.32,1.32,0,0,0,.24.86,1,1,0,0,0,.81.28,3.84,3.84,0,0,0,.77-.1v1.31a4.58,4.58,0,0,1-1.25.17,2,2,0,0,1-1.64-.66,2.82,2.82,0,0,1-.55-1.87v-5.9h-1.74V42.33h1.74V40Z" style="fill:#003e6e"/><path d="M290.45,50.9A3.47,3.47,0,0,1,287.66,52a2.94,2.94,0,0,1-2.31-.88,3.84,3.84,0,0,1-.81-2.61V42.33h1.63v6.14c0,1.44.58,2.16,1.75,2.16a2.42,2.42,0,0,0,2.48-1.39V42.33H292v9.51h-1.55Z" style="fill:#003e6e"/><path d="M299.1,43.79a5.1,5.1,0,0,0-.8-.06,2.16,2.16,0,0,0-2.18,1.36v6.75H294.5V42.33h1.58l0,1.1a2.53,2.53,0,0,1,2.27-1.28,1.73,1.73,0,0,1,.72.12Z" style="fill:#003e6e"/><path d="M304.37,52a4.15,4.15,0,0,1-3.15-1.27A4.69,4.69,0,0,1,300,47.35v-.3a5.7,5.7,0,0,1,.54-2.53,4.28,4.28,0,0,1,1.51-1.74,3.81,3.81,0,0,1,2.11-.63,3.58,3.58,0,0,1,2.88,1.22,5.28,5.28,0,0,1,1,3.5v.68h-6.44a3.33,3.33,0,0,0,.82,2.27,2.57,2.57,0,0,0,2,.87,2.8,2.8,0,0,0,1.46-.36,3.65,3.65,0,0,0,1-.93l1,.78A4,4,0,0,1,304.37,52Zm-.2-8.52a2.21,2.21,0,0,0-1.66.71,3.49,3.49,0,0,0-.82,2h4.76v-.12a3,3,0,0,0-.67-1.92A2,2,0,0,0,304.17,43.49Z" style="fill:#003e6e"/><line x1="433.95" y1="210.17" x2="220.41" y2="210.17" style="fill:none;stroke:#f60;stroke-miterlimit:10;stroke-width:2px"/><polygon points="222.6 202.69 209.65 210.17 222.6 217.65 222.6 202.69" style="fill:#f60"/><polyline points="121.63 363.75 121.63 446.4 353.98 445.78" style="fill:none;stroke:#003e6e;stroke-miterlimit:10;stroke-width:2px"/><polygon points="114.15 365.94 121.63 352.98 129.11 365.94 114.15 365.94" style="fill:#003e6e"/><rect x="9.36" y="189.43" width="189.25" height="111.25" rx="8" style="stroke:#000;stroke-miterlimit:10;stroke-width:2px;fill:url(#Unbenannter_Verlauf_4)"/><path d="M109.73,301.37c0,17.47,9.62,33.51,19.15,33.51h3.83v7.66H75.26v-7.66h3.83c9.53,0,19.15-16,19.15-33.51Z" style="stroke:#000;stroke-miterlimit:10;stroke-width:2px;fill:url(#Unbenannter_Verlauf_4-2)"/><rect x="17.86" y="197.04" width="172.25" height="96.02" rx="4.91" style="fill:#fff"/><path d="M185.2,198a3.92,3.92,0,0,1,3.91,3.91v86.2a3.91,3.91,0,0,1-3.91,3.91H22.76a3.91,3.91,0,0,1-3.9-3.91V202a3.91,3.91,0,0,1,3.9-3.91H185.2m0-2H22.76a5.93,5.93,0,0,0-5.9,5.91v86.2a5.93,5.93,0,0,0,5.9,5.91H185.2a5.93,5.93,0,0,0,5.91-5.91V202A5.93,5.93,0,0,0,185.2,196Z"/><line x1="212.15" y1="183.98" x2="428.68" y2="183.98" style="fill:none;stroke:#003e6e;stroke-miterlimit:10;stroke-width:2px"/><polygon points="426.64 190.97 438.73 183.98 426.64 177 426.64 190.97" style="fill:#003e6e"/><line x1="545.25" y1="269.17" x2="220.41" y2="269.17" style="fill:none;stroke:#f60;stroke-miterlimit:10;stroke-width:2px"/><polygon points="222.6 261.69 209.65 269.17 222.6 276.65 222.6 261.69" style="fill:#f60"/><line x1="213.52" y1="253.98" x2="542.6" y2="253.98" style="fill:none;stroke:#003e6e;stroke-miterlimit:10;stroke-width:2px"/><polygon points="540.56 260.96 552.65 253.98 540.56 247 540.56 260.96" style="fill:#003e6e"/><path d="M607.68,434a3.45,3.45,0,0,1,1.09-2.63,3.88,3.88,0,0,1,2.73-1,3.92,3.92,0,0,1,2.76,1,3.42,3.42,0,0,1,1.09,2.63,3.36,3.36,0,0,1-1.08,2.59,4.29,4.29,0,0,1-5.51,0A3.36,3.36,0,0,1,607.68,434Z"/><path d="M621.63,434a3.42,3.42,0,0,1,1.09-2.63,4.25,4.25,0,0,1,5.48,0,3.69,3.69,0,0,1,0,5.22,3.94,3.94,0,0,1-2.77,1,3.9,3.9,0,0,1-2.74-1A3.36,3.36,0,0,1,621.63,434Z"/><path d="M635.58,434a3.42,3.42,0,0,1,1.09-2.63,3.85,3.85,0,0,1,2.73-1,3.91,3.91,0,0,1,2.75,1,3.42,3.42,0,0,1,1.09,2.63,3.36,3.36,0,0,1-1.08,2.59,4.3,4.3,0,0,1-5.51,0A3.35,3.35,0,0,1,635.58,434Z"/><path d="M608.68,82.32a3.42,3.42,0,0,1,1.09-2.62,3.89,3.89,0,0,1,2.73-1,3.93,3.93,0,0,1,2.76,1,3.38,3.38,0,0,1,1.09,2.62,3.34,3.34,0,0,1-1.08,2.59,4.29,4.29,0,0,1-5.51,0A3.34,3.34,0,0,1,608.68,82.32Z"/><path d="M622.63,82.32a3.38,3.38,0,0,1,1.09-2.62,4.22,4.22,0,0,1,5.48,0,3.68,3.68,0,0,1,0,5.21,3.9,3.9,0,0,1-2.77,1,3.86,3.86,0,0,1-2.74-1A3.34,3.34,0,0,1,622.63,82.32Z"/><path d="M636.58,82.32a3.38,3.38,0,0,1,1.09-2.62,3.85,3.85,0,0,1,2.73-1,3.92,3.92,0,0,1,2.75,1,3.38,3.38,0,0,1,1.09,2.62,3.34,3.34,0,0,1-1.08,2.59,4.3,4.3,0,0,1-5.51,0A3.34,3.34,0,0,1,636.58,82.32Z"/><path d="M687,258.32a3.38,3.38,0,0,1,1.09-2.62,4.22,4.22,0,0,1,5.48,0,3.67,3.67,0,0,1,0,5.21,3.89,3.89,0,0,1-2.76,1,3.84,3.84,0,0,1-2.74-1A3.36,3.36,0,0,1,687,258.32Z"/><path d="M701,258.32a3.42,3.42,0,0,1,1.09-2.62,3.89,3.89,0,0,1,2.73-1,3.93,3.93,0,0,1,2.76,1,3.42,3.42,0,0,1,1.09,2.62,3.36,3.36,0,0,1-1.08,2.59,3.9,3.9,0,0,1-2.77,1,3.86,3.86,0,0,1-2.74-1A3.36,3.36,0,0,1,701,258.32Z"/><path d="M714.91,258.32A3.38,3.38,0,0,1,716,255.7a4.22,4.22,0,0,1,5.48,0,3.67,3.67,0,0,1,0,5.21,4.28,4.28,0,0,1-5.5,0A3.36,3.36,0,0,1,714.91,258.32Z"/><polyline points="55.32 243.32 86.23 232.98 120.23 238.73 152.48 233.32" style="fill:none;stroke:#b0b574;stroke-miterlimit:10;stroke-width:2px"/><circle cx="55.39" cy="242.88" r="3.4" style="fill:#b0b574"/><circle cx="150.64" cy="232.88" r="3.4" style="fill:#b0b574"/><circle cx="120.64" cy="237.88" r="3.4" style="fill:#b0b574"/><circle cx="87.14" cy="232.88" r="3.4" style="fill:#b0b574"/><polyline points="55.32 223.32 86.23 222.98 120.48 215.48 152.48 223.32" style="fill:none;stroke:#b0b574;stroke-miterlimit:10;stroke-width:2px"/><circle cx="54.64" cy="222.88" r="3.4" style="fill:#b0b574"/><circle cx="150.64" cy="222.88" r="3.4" style="fill:#b0b574"/><circle cx="120.64" cy="215.23" r="3.4" style="fill:#b0b574"/><circle cx="87.14" cy="222.88" r="3.4" style="fill:#b0b574"/><polyline points="55.32 269.32 86.23 258.98 120.23 264.73 152.48 259.32" style="fill:none;stroke:#b0b574;stroke-miterlimit:10;stroke-width:2px"/><circle cx="55.39" cy="268.88" r="3.4" style="fill:#b0b574"/><circle cx="150.64" cy="258.88" r="3.4" style="fill:#b0b574"/><circle cx="120.64" cy="264.88" r="3.4" style="fill:#b0b574"/><circle cx="87.14" cy="258.88" r="3.4" style="fill:#b0b574"/><polyline points="55.32 253.48 86.23 248.98 120.48 248.23 152.48 249.32" style="fill:none;stroke:#b0b574;stroke-miterlimit:10;stroke-width:2px"/><circle cx="54.64" cy="253.98" r="3.4" style="fill:#b0b574"/><circle cx="150.64" cy="248.88" r="3.4" style="fill:#b0b574"/><circle cx="120.64" cy="247.98" r="3.4" style="fill:#b0b574"/><circle cx="87.14" cy="248.88" r="3.4" style="fill:#b0b574"/><path d="M172.58,70.74h-3v5.18h-1.7V63.12h4.24a5,5,0,0,1,3.32,1A3.53,3.53,0,0,1,176.61,67a3.46,3.46,0,0,1-.65,2.09,3.83,3.83,0,0,1-1.8,1.32l3,5.44v.1h-1.81Zm-3-1.38h2.59a2.9,2.9,0,0,0,2-.65,2.2,2.2,0,0,0,.74-1.74,2.32,2.32,0,0,0-.71-1.82,3,3,0,0,0-2-.65h-2.58Z" style="fill:#f60"/><path d="M182.66,76.1a4.15,4.15,0,0,1-3.14-1.27,4.72,4.72,0,0,1-1.22-3.4v-.3a5.69,5.69,0,0,1,.54-2.52,4.24,4.24,0,0,1,1.51-1.75,3.88,3.88,0,0,1,2.11-.62,3.53,3.53,0,0,1,2.88,1.22,5.26,5.26,0,0,1,1,3.5v.67h-6.44a3.36,3.36,0,0,0,.82,2.27,2.57,2.57,0,0,0,2,.87,2.89,2.89,0,0,0,1.46-.35,3.68,3.68,0,0,0,1-.93l1,.77A4,4,0,0,1,182.66,76.1Zm-.2-8.53a2.15,2.15,0,0,0-1.65.72,3.5,3.5,0,0,0-.83,2h4.77v-.13a3.13,3.13,0,0,0-.67-1.92A2.06,2.06,0,0,0,182.46,67.57Z" style="fill:#f60"/><path d="M193.79,73.4a1.22,1.22,0,0,0-.5-1,4.76,4.76,0,0,0-1.73-.62,8.17,8.17,0,0,1-2-.64,2.74,2.74,0,0,1-1.07-.88,2.08,2.08,0,0,1-.35-1.21,2.47,2.47,0,0,1,1-2,4.48,4.48,0,0,1,5.15,0,2.67,2.67,0,0,1,1,2.14h-1.64a1.45,1.45,0,0,0-.57-1.15,2.06,2.06,0,0,0-1.42-.49,2.21,2.21,0,0,0-1.39.39,1.2,1.2,0,0,0-.5,1,1,1,0,0,0,.46.89,5.63,5.63,0,0,0,1.69.57,8.71,8.71,0,0,1,2,.65,2.82,2.82,0,0,1,1.12.91,2.23,2.23,0,0,1,.37,1.29,2.44,2.44,0,0,1-1,2,4.32,4.32,0,0,1-2.65.77,4.76,4.76,0,0,1-2-.41,3.23,3.23,0,0,1-1.38-1.13,2.7,2.7,0,0,1-.49-1.57h1.62a1.68,1.68,0,0,0,.66,1.3,2.51,2.51,0,0,0,1.61.48,2.6,2.6,0,0,0,1.48-.37A1.15,1.15,0,0,0,193.79,73.4Z" style="fill:#f60"/><path d="M205.57,71.27a5.64,5.64,0,0,1-1,3.5,3.2,3.2,0,0,1-2.69,1.33,3.49,3.49,0,0,1-2.72-1.1v4.58h-1.63V66.41H199l.08,1.06a3.34,3.34,0,0,1,2.76-1.23,3.25,3.25,0,0,1,2.71,1.29,5.78,5.78,0,0,1,1,3.59Zm-1.63-.18a4.18,4.18,0,0,0-.69-2.54,2.2,2.2,0,0,0-1.88-.93,2.37,2.37,0,0,0-2.21,1.31v4.54a2.39,2.39,0,0,0,2.23,1.3,2.2,2.2,0,0,0,1.86-.93A4.55,4.55,0,0,0,203.94,71.09Z" style="fill:#f60"/><path d="M207.2,71.08a5.54,5.54,0,0,1,.55-2.51,4,4,0,0,1,3.77-2.33,4,4,0,0,1,3.14,1.34,5.18,5.18,0,0,1,1.2,3.58v.11a5.69,5.69,0,0,1-.53,2.49,4.11,4.11,0,0,1-1.52,1.72,4.23,4.23,0,0,1-2.28.62,4,4,0,0,1-3.13-1.35,5.13,5.13,0,0,1-1.2-3.56Zm1.64.19a4.05,4.05,0,0,0,.73,2.54,2.34,2.34,0,0,0,2,1,2.32,2.32,0,0,0,2-1,4.44,4.44,0,0,0,.73-2.72,4.12,4.12,0,0,0-.74-2.54,2.38,2.38,0,0,0-2-1,2.35,2.35,0,0,0-2,1A4.43,4.43,0,0,0,208.84,71.27Z" style="fill:#f60"/><path d="M219.44,66.41l.05,1.2a3.43,3.43,0,0,1,2.85-1.37q3,0,3,3.4v6.28h-1.63V69.63a2.14,2.14,0,0,0-.47-1.52,1.89,1.89,0,0,0-1.44-.49,2.32,2.32,0,0,0-1.38.42,2.91,2.91,0,0,0-.94,1.11v6.77H217.9V66.41Z" style="fill:#f60"/><path d="M233.37,73.4a1.22,1.22,0,0,0-.5-1,4.76,4.76,0,0,0-1.73-.62,8,8,0,0,1-2-.64,2.67,2.67,0,0,1-1.07-.88,2,2,0,0,1-.35-1.21,2.47,2.47,0,0,1,1-2,3.9,3.9,0,0,1,2.52-.8,4,4,0,0,1,2.63.83,2.66,2.66,0,0,1,1,2.14h-1.63a1.45,1.45,0,0,0-.57-1.15,2.09,2.09,0,0,0-1.43-.49,2.18,2.18,0,0,0-1.38.39,1.21,1.21,0,0,0-.51,1,1,1,0,0,0,.47.89,5.65,5.65,0,0,0,1.68.57,9,9,0,0,1,2,.65,2.89,2.89,0,0,1,1.12.91,2.23,2.23,0,0,1,.36,1.29,2.44,2.44,0,0,1-1,2,4.29,4.29,0,0,1-2.64.77,4.76,4.76,0,0,1-2-.41,3.23,3.23,0,0,1-1.38-1.13,2.71,2.71,0,0,1-.5-1.57h1.63a1.7,1.7,0,0,0,.65,1.3,2.56,2.56,0,0,0,1.62.48,2.62,2.62,0,0,0,1.48-.37A1.15,1.15,0,0,0,233.37,73.4Z" style="fill:#f60"/><path d="M241.06,76.1a4.19,4.19,0,0,1-3.15-1.27,4.72,4.72,0,0,1-1.21-3.4v-.3a5.69,5.69,0,0,1,.54-2.52,4.17,4.17,0,0,1,1.51-1.75,3.87,3.87,0,0,1,2.1-.62,3.56,3.56,0,0,1,2.89,1.22,5.31,5.31,0,0,1,1,3.5v.67h-6.45a3.41,3.41,0,0,0,.82,2.27,2.6,2.6,0,0,0,2,.87,2.84,2.84,0,0,0,1.46-.35,3.86,3.86,0,0,0,1.05-.93l1,.77A4,4,0,0,1,241.06,76.1Zm-.21-8.53a2.18,2.18,0,0,0-1.65.72,3.49,3.49,0,0,0-.82,2h4.76v-.13a3.13,3.13,0,0,0-.67-1.92A2.06,2.06,0,0,0,240.85,67.57Z" style="fill:#f60"/><path d="M246.59,75.07a1,1,0,0,1,.25-.7,1,1,0,0,1,.76-.29.95.95,0,0,1,1,1,1,1,0,0,1-.26.68,1,1,0,0,1-.76.27,1,1,0,0,1-.76-.27A1,1,0,0,1,246.59,75.07Zm0-7.76a1,1,0,0,1,.25-.7,1,1,0,0,1,1.77.7.9.9,0,0,1-.26.67,1.16,1.16,0,0,1-1.51,0A1,1,0,0,1,246.6,67.31Z" style="fill:#f60"/><path d="M256.67,62.25l.94.64a4.11,4.11,0,0,0-.85,2.41v1.19h-1.61v-1a4,4,0,0,1,.42-1.77A4.38,4.38,0,0,1,256.67,62.25Zm2.77,0,.94.64a4.11,4.11,0,0,0-.85,2.41v1.19h-1.62v-1a4,4,0,0,1,.43-1.77A4.25,4.25,0,0,1,259.44,62.25Z" style="fill:#f60"/><path d="M270,75.92h-8.38V74.75l4.43-4.92A11,11,0,0,0,267.45,68a3.16,3.16,0,0,0,.37-1.45,2.25,2.25,0,0,0-.61-1.64,2.1,2.1,0,0,0-1.61-.65,2.56,2.56,0,0,0-1.89.69A2.65,2.65,0,0,0,263,66.9h-1.63A3.78,3.78,0,0,1,262.55,64,4.2,4.2,0,0,1,265.6,63a4.06,4.06,0,0,1,2.82.93,3.21,3.21,0,0,1,1,2.5q0,1.89-2.4,4.5l-3.43,3.71H270Z" style="fill:#f60"/><path d="M279.79,70.46a7.45,7.45,0,0,1-1,4.25,3.48,3.48,0,0,1-3.05,1.39,3.52,3.52,0,0,1-3-1.36,7.18,7.18,0,0,1-1-4.06V68.51a7.26,7.26,0,0,1,1-4.19,4.13,4.13,0,0,1,6.1,0,7,7,0,0,1,1,4.08Zm-1.63-2.22a5.91,5.91,0,0,0-.58-3,2.23,2.23,0,0,0-3.65,0,5.78,5.78,0,0,0-.59,2.89v2.6a6.07,6.07,0,0,0,.6,3.06,2,2,0,0,0,1.82,1,2,2,0,0,0,1.79-.93,5.76,5.76,0,0,0,.61-2.94Z" style="fill:#f60"/><path d="M282,65.23a2.24,2.24,0,0,1,.66-1.6,2.11,2.11,0,0,1,1.58-.68,2.08,2.08,0,0,1,1.56.68,2.25,2.25,0,0,1,.65,1.6,2.16,2.16,0,0,1-.65,1.59,2.1,2.1,0,0,1-1.56.66,2.16,2.16,0,0,1-1.58-.66A2.14,2.14,0,0,1,282,65.23Zm2.24,1.13a1.09,1.09,0,0,0,.8-.31,1.07,1.07,0,0,0,.33-.81,1.14,1.14,0,0,0-.33-.84,1.06,1.06,0,0,0-.8-.33,1.08,1.08,0,0,0-.81.35,1.14,1.14,0,0,0-.33.82,1.06,1.06,0,0,0,.33.79A1.1,1.1,0,0,0,284.19,66.36Z" style="fill:#f60"/><path d="M302.89,71.86a4.71,4.71,0,0,1-1.5,3.13A4.89,4.89,0,0,1,298,76.1a4.49,4.49,0,0,1-3.64-1.63A6.53,6.53,0,0,1,293,70.12V68.89a7.36,7.36,0,0,1,.63-3.14,4.85,4.85,0,0,1,1.81-2.08,5.06,5.06,0,0,1,2.71-.72,4.65,4.65,0,0,1,3.27,1.14,4.79,4.79,0,0,1,1.43,3.15h-1.7a3.7,3.7,0,0,0-.95-2.22,2.89,2.89,0,0,0-2.05-.69,3,3,0,0,0-2.54,1.19,5.53,5.53,0,0,0-.92,3.41v1.24a5.68,5.68,0,0,0,.87,3.32A2.81,2.81,0,0,0,298,74.72a3.21,3.21,0,0,0,2.15-.64,3.5,3.5,0,0,0,1-2.22Z" style="fill:#f60"/><path d="M306.15,62.25l.93.64a4.1,4.1,0,0,0-.84,2.41v1.19h-1.62v-1A4,4,0,0,1,305,63.7,4.41,4.41,0,0,1,306.15,62.25Zm2.77,0,.93.64A4.11,4.11,0,0,0,309,65.3v1.19h-1.61v-1a4,4,0,0,1,.42-1.77A4.41,4.41,0,0,1,308.92,62.25Z" style="fill:#f60"/><rect x="162.65" y="424.32" width="152" height="58.36" style="fill:#fff"/><path d="M171.58,446.83v5H169.9V439h4.72a4.77,4.77,0,0,1,3.29,1.07A3.65,3.65,0,0,1,179.1,443a3.58,3.58,0,0,1-1.17,2.87,4.93,4.93,0,0,1-3.33,1Zm0-1.38h3a3,3,0,0,0,2.07-.64,2.35,2.35,0,0,0,.72-1.85,2.42,2.42,0,0,0-.72-1.83,2.89,2.89,0,0,0-2-.71h-3.13Z" style="fill:#003e6e"/><path d="M180.45,447a5.72,5.72,0,0,1,.55-2.52,4.06,4.06,0,0,1,3.77-2.33,4,4,0,0,1,3.14,1.35,5.16,5.16,0,0,1,1.2,3.57v.12a5.75,5.75,0,0,1-.53,2.49,4,4,0,0,1-1.52,1.72,4.22,4.22,0,0,1-2.27.61,4,4,0,0,1-3.14-1.34,5.15,5.15,0,0,1-1.2-3.56Zm1.64.19a4.07,4.07,0,0,0,.73,2.54,2.35,2.35,0,0,0,2,1,2.32,2.32,0,0,0,2-1,4.39,4.39,0,0,0,.73-2.71,4,4,0,0,0-.74-2.54,2.34,2.34,0,0,0-2-1,2.32,2.32,0,0,0-1.94,1A4.36,4.36,0,0,0,182.09,447.19Z" style="fill:#003e6e"/><path d="M192.92,451.84h-1.63v-13.5h1.63Z" style="fill:#003e6e"/><path d="M197.28,451.84h-1.62v-13.5h1.62Z" style="fill:#003e6e"/><path d="M199.83,451a1.06,1.06,0,0,1,.25-.71,1.16,1.16,0,0,1,1.51,0,1,1,0,0,1,.26.71.91.91,0,0,1-.26.67,1,1,0,0,1-1.76-.67Zm0-7.77a1,1,0,0,1,.25-.7,1.16,1.16,0,0,1,1.51,0,1,1,0,0,1,.26.7.92.92,0,0,1-.26.68,1.19,1.19,0,0,1-1.51,0A1,1,0,0,1,199.84,443.22Z" style="fill:#003e6e"/><path d="M217.45,440.42h-4.12v11.42h-1.68V440.42h-4.1V439h9.9Z" style="fill:#003e6e"/><path d="M222.17,452a4.15,4.15,0,0,1-3.15-1.27,4.69,4.69,0,0,1-1.21-3.39v-.3a5.7,5.7,0,0,1,.54-2.53,4.21,4.21,0,0,1,1.51-1.74,3.8,3.8,0,0,1,2.1-.63,3.59,3.59,0,0,1,2.89,1.22,5.33,5.33,0,0,1,1,3.5v.68h-6.44a3.43,3.43,0,0,0,.82,2.27,2.58,2.58,0,0,0,2,.87,2.87,2.87,0,0,0,1.46-.35,3.74,3.74,0,0,0,1-.94l1,.78A4,4,0,0,1,222.17,452Zm-.21-8.52a2.2,2.2,0,0,0-1.65.71,3.57,3.57,0,0,0-.83,2h4.77v-.12a3.09,3.09,0,0,0-.67-1.92A2,2,0,0,0,222,443.49Z" style="fill:#003e6e"/><path d="M229.28,442.33l.05,1.05a3.52,3.52,0,0,1,2.82-1.23,2.73,2.73,0,0,1,2.72,1.53,3.56,3.56,0,0,1,1.23-1.11,3.68,3.68,0,0,1,1.8-.42q3.12,0,3.18,3.32v6.37h-1.63v-6.28A2.16,2.16,0,0,0,239,444a2,2,0,0,0-1.57-.51,2.1,2.1,0,0,0-2.19,2v6.31h-1.64v-6.23a1.82,1.82,0,0,0-2-2.08,2.18,2.18,0,0,0-2.19,1.36v6.95h-1.62v-9.51Z" style="fill:#003e6e"/><path d="M251.56,447.19a5.72,5.72,0,0,1-1,3.5,3.19,3.19,0,0,1-2.69,1.32,3.48,3.48,0,0,1-2.72-1.09v4.57h-1.63V442.33H245l.08,1.05a3.34,3.34,0,0,1,2.76-1.23,3.25,3.25,0,0,1,2.71,1.29,5.81,5.81,0,0,1,1,3.6Zm-1.62-.19a4.2,4.2,0,0,0-.69-2.54,2.2,2.2,0,0,0-1.88-.93,2.39,2.39,0,0,0-2.21,1.31v4.55a2.4,2.4,0,0,0,2.23,1.3,2.2,2.2,0,0,0,1.86-.93A4.6,4.6,0,0,0,249.94,447Z" style="fill:#003e6e"/><path d="M257.58,452a4.15,4.15,0,0,1-3.15-1.27,4.69,4.69,0,0,1-1.21-3.39v-.3a5.7,5.7,0,0,1,.54-2.53,4.21,4.21,0,0,1,1.51-1.74,3.8,3.8,0,0,1,2.1-.63,3.59,3.59,0,0,1,2.89,1.22,5.33,5.33,0,0,1,1,3.5v.68h-6.45a3.39,3.39,0,0,0,.83,2.27,2.56,2.56,0,0,0,2,.87,2.87,2.87,0,0,0,1.46-.35,3.74,3.74,0,0,0,1.05-.94l1,.78A4,4,0,0,1,257.58,452Zm-.21-8.52a2.2,2.2,0,0,0-1.65.71,3.49,3.49,0,0,0-.82,2h4.76v-.12a3.09,3.09,0,0,0-.67-1.92A2,2,0,0,0,257.37,443.49Z" style="fill:#003e6e"/><path d="M267.76,443.79a4.92,4.92,0,0,0-.8-.06,2.14,2.14,0,0,0-2.17,1.36v6.75h-1.62v-9.51h1.58l0,1.1a2.55,2.55,0,0,1,2.27-1.28,1.52,1.52,0,0,1,.72.13Z" style="fill:#003e6e"/><path d="M274.78,451.84a3.26,3.26,0,0,1-.23-1,3.65,3.65,0,0,1-2.71,1.17,3.36,3.36,0,0,1-2.31-.79,2.57,2.57,0,0,1-.9-2,2.7,2.7,0,0,1,1.13-2.31,5.4,5.4,0,0,1,3.18-.82h1.58v-.74A1.82,1.82,0,0,0,274,444a2,2,0,0,0-1.5-.51,2.39,2.39,0,0,0-1.46.44,1.3,1.3,0,0,0-.59,1.06h-1.63a2.27,2.27,0,0,1,.5-1.37,3.56,3.56,0,0,1,1.37-1,4.59,4.59,0,0,1,1.91-.39,3.79,3.79,0,0,1,2.57.82,3,3,0,0,1,1,2.27v4.37a5.44,5.44,0,0,0,.33,2.09v.14Zm-2.7-1.24a2.81,2.81,0,0,0,1.45-.4,2.28,2.28,0,0,0,1-1v-1.95h-1.27c-2,0-3,.59-3,1.75a1.49,1.49,0,0,0,.51,1.2A1.93,1.93,0,0,0,272.08,450.6Z" style="fill:#003e6e"/><path d="M280.9,440v2.3h1.78v1.26H280.9v5.9a1.32,1.32,0,0,0,.24.86,1,1,0,0,0,.81.28,3.84,3.84,0,0,0,.77-.1v1.31a4.58,4.58,0,0,1-1.25.17,2,2,0,0,1-1.64-.66,2.8,2.8,0,0,1-.55-1.87v-5.89h-1.74v-1.26h1.74V440Z" style="fill:#003e6e"/><path d="M290.45,450.9a3.47,3.47,0,0,1-2.79,1.11,2.94,2.94,0,0,1-2.31-.88,3.84,3.84,0,0,1-.81-2.61v-6.19h1.63v6.14c0,1.44.58,2.16,1.75,2.16a2.43,2.43,0,0,0,2.48-1.38v-6.92H292v9.51h-1.55Z" style="fill:#003e6e"/><path d="M299.1,443.79a5.1,5.1,0,0,0-.8-.06,2.16,2.16,0,0,0-2.18,1.36v6.75H294.5v-9.51h1.58l0,1.1a2.53,2.53,0,0,1,2.27-1.28,1.57,1.57,0,0,1,.72.13Z" style="fill:#003e6e"/><path d="M304.37,452a4.15,4.15,0,0,1-3.15-1.27,4.69,4.69,0,0,1-1.21-3.39v-.3a5.7,5.7,0,0,1,.54-2.53,4.28,4.28,0,0,1,1.51-1.74,3.81,3.81,0,0,1,2.11-.63,3.58,3.58,0,0,1,2.88,1.22,5.28,5.28,0,0,1,1,3.5v.68h-6.44a3.33,3.33,0,0,0,.82,2.27,2.57,2.57,0,0,0,2,.87,2.89,2.89,0,0,0,1.46-.35,3.85,3.85,0,0,0,1-.94l1,.78A4,4,0,0,1,304.37,452Zm-.2-8.52a2.21,2.21,0,0,0-1.66.71,3.49,3.49,0,0,0-.82,2h4.76v-.12a3,3,0,0,0-.67-1.92A2,2,0,0,0,304.17,443.49Z" style="fill:#003e6e"/><path d="M172.58,472.75h-3v5.17h-1.7V465.13h4.24a5,5,0,0,1,3.32,1,3.53,3.53,0,0,1,1.17,2.86,3.46,3.46,0,0,1-.65,2.09,3.83,3.83,0,0,1-1.8,1.32l3,5.44v.1h-1.81Zm-3-1.38h2.59a2.91,2.91,0,0,0,2-.66,2.2,2.2,0,0,0,.74-1.74,2.32,2.32,0,0,0-.71-1.82,3,3,0,0,0-2-.65h-2.58Z" style="fill:#f60"/><path d="M182.66,478.1a4.15,4.15,0,0,1-3.14-1.27,4.72,4.72,0,0,1-1.22-3.4v-.3a5.69,5.69,0,0,1,.54-2.52,4.15,4.15,0,0,1,1.51-1.74,3.81,3.81,0,0,1,2.11-.63,3.53,3.53,0,0,1,2.88,1.22,5.26,5.26,0,0,1,1,3.5v.67h-6.44a3.36,3.36,0,0,0,.82,2.27,2.57,2.57,0,0,0,2,.87,2.89,2.89,0,0,0,1.46-.35,3.68,3.68,0,0,0,1-.93l1,.77A4,4,0,0,1,182.66,478.1Zm-.2-8.53a2.15,2.15,0,0,0-1.65.72,3.5,3.5,0,0,0-.83,2h4.77v-.13a3.13,3.13,0,0,0-.67-1.92A2.06,2.06,0,0,0,182.46,469.57Z" style="fill:#f60"/><path d="M193.79,475.4a1.19,1.19,0,0,0-.5-1,4.56,4.56,0,0,0-1.73-.63,8.17,8.17,0,0,1-2-.64,2.72,2.72,0,0,1-1.07-.87,2.14,2.14,0,0,1-.35-1.22,2.44,2.44,0,0,1,1-2,3.86,3.86,0,0,1,2.53-.81,3.94,3.94,0,0,1,2.62.83,2.67,2.67,0,0,1,1,2.14h-1.64a1.45,1.45,0,0,0-.57-1.15,2.06,2.06,0,0,0-1.42-.49,2.21,2.21,0,0,0-1.39.39,1.2,1.2,0,0,0-.5,1,1,1,0,0,0,.46.89,5.63,5.63,0,0,0,1.69.57,8.71,8.71,0,0,1,2,.65,2.82,2.82,0,0,1,1.12.91,2.26,2.26,0,0,1,.37,1.3,2.44,2.44,0,0,1-1,2,4.32,4.32,0,0,1-2.65.77,4.76,4.76,0,0,1-2-.41,3.23,3.23,0,0,1-1.38-1.13,2.69,2.69,0,0,1-.49-1.56h1.62a1.68,1.68,0,0,0,.66,1.29,2.51,2.51,0,0,0,1.61.48,2.6,2.6,0,0,0,1.48-.37A1.15,1.15,0,0,0,193.79,475.4Z" style="fill:#f60"/><path d="M205.57,473.27a5.64,5.64,0,0,1-1,3.5,3.17,3.17,0,0,1-2.69,1.33,3.49,3.49,0,0,1-2.72-1.1v4.58h-1.63V468.41H199l.08,1.06a3.34,3.34,0,0,1,2.76-1.23,3.25,3.25,0,0,1,2.71,1.29,5.78,5.78,0,0,1,1,3.59Zm-1.63-.18a4.18,4.18,0,0,0-.69-2.54,2.2,2.2,0,0,0-1.88-.93,2.37,2.37,0,0,0-2.21,1.31v4.54a2.39,2.39,0,0,0,2.23,1.3,2.2,2.2,0,0,0,1.86-.93A4.55,4.55,0,0,0,203.94,473.09Z" style="fill:#f60"/><path d="M207.2,473.08a5.54,5.54,0,0,1,.55-2.51,4,4,0,0,1,3.77-2.33,4,4,0,0,1,3.14,1.34,5.18,5.18,0,0,1,1.2,3.58v.11a5.69,5.69,0,0,1-.53,2.49,4.11,4.11,0,0,1-1.52,1.72,4.23,4.23,0,0,1-2.28.62,4,4,0,0,1-3.13-1.35,5.13,5.13,0,0,1-1.2-3.56Zm1.64.19a4.05,4.05,0,0,0,.73,2.54,2.34,2.34,0,0,0,2,1,2.32,2.32,0,0,0,2-1,4.42,4.42,0,0,0,.73-2.72,4.12,4.12,0,0,0-.74-2.54,2.38,2.38,0,0,0-2-1,2.35,2.35,0,0,0-2,1A4.43,4.43,0,0,0,208.84,473.27Z" style="fill:#f60"/><path d="M219.44,468.41l.05,1.2a3.43,3.43,0,0,1,2.85-1.37q3,0,3,3.4v6.28h-1.63v-6.29a2.14,2.14,0,0,0-.47-1.52,1.89,1.89,0,0,0-1.44-.49,2.32,2.32,0,0,0-1.38.42,2.91,2.91,0,0,0-.94,1.11v6.77H217.9v-9.51Z" style="fill:#f60"/><path d="M233.37,475.4a1.19,1.19,0,0,0-.5-1,4.56,4.56,0,0,0-1.73-.63,8,8,0,0,1-2-.64,2.65,2.65,0,0,1-1.07-.87,2.06,2.06,0,0,1-.35-1.22,2.44,2.44,0,0,1,1-2,3.85,3.85,0,0,1,2.52-.81,4,4,0,0,1,2.63.83,2.66,2.66,0,0,1,1,2.14h-1.63a1.45,1.45,0,0,0-.57-1.15,2.09,2.09,0,0,0-1.43-.49,2.18,2.18,0,0,0-1.38.39,1.21,1.21,0,0,0-.51,1,1,1,0,0,0,.47.89,5.65,5.65,0,0,0,1.68.57,9,9,0,0,1,2,.65,2.89,2.89,0,0,1,1.12.91,2.26,2.26,0,0,1,.36,1.3,2.44,2.44,0,0,1-1,2,4.29,4.29,0,0,1-2.64.77,4.76,4.76,0,0,1-2-.41,3.23,3.23,0,0,1-1.38-1.13,2.7,2.7,0,0,1-.5-1.56h1.63a1.7,1.7,0,0,0,.65,1.29,2.56,2.56,0,0,0,1.62.48,2.62,2.62,0,0,0,1.48-.37A1.15,1.15,0,0,0,233.37,475.4Z" style="fill:#f60"/><path d="M241.06,478.1a4.19,4.19,0,0,1-3.15-1.27,4.72,4.72,0,0,1-1.21-3.4v-.3a5.69,5.69,0,0,1,.54-2.52,4.09,4.09,0,0,1,1.51-1.74,3.8,3.8,0,0,1,2.1-.63,3.56,3.56,0,0,1,2.89,1.22,5.31,5.31,0,0,1,1,3.5v.67h-6.45a3.41,3.41,0,0,0,.82,2.27,2.6,2.6,0,0,0,2,.87,2.84,2.84,0,0,0,1.46-.35,3.86,3.86,0,0,0,1.05-.93l1,.77A4,4,0,0,1,241.06,478.1Zm-.21-8.53a2.18,2.18,0,0,0-1.65.72,3.49,3.49,0,0,0-.82,2h4.76v-.13a3.13,3.13,0,0,0-.67-1.92A2.06,2.06,0,0,0,240.85,469.57Z" style="fill:#f60"/><path d="M246.59,477.07a1,1,0,0,1,.25-.7,1,1,0,0,1,.76-.28.93.93,0,0,1,1,1,1,1,0,0,1-.26.68,1,1,0,0,1-.76.27,1,1,0,0,1-.76-.27A1,1,0,0,1,246.59,477.07Zm0-7.76a1,1,0,0,1,.25-.7,1,1,0,0,1,1.77.7.93.93,0,0,1-.26.68,1.19,1.19,0,0,1-1.51,0A1,1,0,0,1,246.6,469.31Z" style="fill:#f60"/><path d="M256.67,464.25l.94.64a4.11,4.11,0,0,0-.85,2.41v1.19h-1.61v-1a4,4,0,0,1,.42-1.77A4.38,4.38,0,0,1,256.67,464.25Zm2.77,0,.94.64a4.11,4.11,0,0,0-.85,2.41v1.19h-1.62v-1a4,4,0,0,1,.43-1.77A4.25,4.25,0,0,1,259.44,464.25Z" style="fill:#f60"/><path d="M270,477.92h-8.38v-1.17l4.43-4.92a11,11,0,0,0,1.36-1.81,3.16,3.16,0,0,0,.37-1.45,2.25,2.25,0,0,0-.61-1.64,2.09,2.09,0,0,0-1.61-.64,2.56,2.56,0,0,0-1.89.68,2.67,2.67,0,0,0-.67,1.93h-1.63a3.78,3.78,0,0,1,1.14-2.86A4.2,4.2,0,0,1,265.6,465a4.06,4.06,0,0,1,2.82.93,3.21,3.21,0,0,1,1,2.5q0,1.89-2.4,4.5l-3.43,3.71H270Z" style="fill:#f60"/><path d="M280.15,477.92h-8.38v-1.17l4.43-4.92a10.86,10.86,0,0,0,1.35-1.81,3,3,0,0,0,.38-1.45,2.29,2.29,0,0,0-.61-1.64,2.1,2.1,0,0,0-1.62-.64,2.53,2.53,0,0,0-1.88.68,2.67,2.67,0,0,0-.67,1.93h-1.63a3.78,3.78,0,0,1,1.14-2.86,4.2,4.2,0,0,1,3-1.09,4.06,4.06,0,0,1,2.82.93,3.19,3.19,0,0,1,1,2.5q0,1.89-2.41,4.5l-3.42,3.71h6.42Z" style="fill:#f60"/><path d="M282,467.23a2.26,2.26,0,0,1,.66-1.6,2.11,2.11,0,0,1,1.58-.68,2.08,2.08,0,0,1,1.56.68,2.27,2.27,0,0,1,.65,1.6,2.2,2.2,0,0,1-.65,1.6,2.13,2.13,0,0,1-1.56.65,2.24,2.24,0,0,1-2.24-2.25Zm2.24,1.13a1.09,1.09,0,0,0,.8-.31,1.07,1.07,0,0,0,.33-.81,1.14,1.14,0,0,0-.33-.84,1.06,1.06,0,0,0-.8-.33,1.08,1.08,0,0,0-.81.35,1.14,1.14,0,0,0-.33.82,1.09,1.09,0,0,0,.33.8A1.13,1.13,0,0,0,284.19,468.36Z" style="fill:#f60"/><path d="M302.89,473.86a4.71,4.71,0,0,1-1.5,3.13A4.89,4.89,0,0,1,298,478.1a4.49,4.49,0,0,1-3.64-1.63,6.53,6.53,0,0,1-1.36-4.35v-1.23a7.4,7.4,0,0,1,.63-3.14,4.85,4.85,0,0,1,1.81-2.08,5.06,5.06,0,0,1,2.71-.72,4.65,4.65,0,0,1,3.27,1.14,4.79,4.79,0,0,1,1.43,3.15h-1.7a3.7,3.7,0,0,0-.95-2.22,2.89,2.89,0,0,0-2.05-.69,3,3,0,0,0-2.54,1.2,5.48,5.48,0,0,0-.92,3.4v1.24a5.66,5.66,0,0,0,.87,3.32,2.81,2.81,0,0,0,2.44,1.23,3.21,3.21,0,0,0,2.15-.64,3.5,3.5,0,0,0,1-2.22Z" style="fill:#f60"/><path d="M306.15,464.25l.93.64a4.1,4.1,0,0,0-.84,2.41v1.19h-1.62v-1a4,4,0,0,1,.42-1.77A4.41,4.41,0,0,1,306.15,464.25Zm2.77,0,.93.64a4.11,4.11,0,0,0-.85,2.41v1.19h-1.61v-1a4,4,0,0,1,.42-1.77A4.41,4.41,0,0,1,308.92,464.25Z" style="fill:#f60"/><rect x="248.65" y="161.32" width="152" height="58.36" style="fill:#fff"/><path d="M254.58,185.83v5H252.9V178h4.72a4.77,4.77,0,0,1,3.29,1.07A3.65,3.65,0,0,1,262.1,182a3.58,3.58,0,0,1-1.17,2.87,4.93,4.93,0,0,1-3.33,1Zm0-1.38h3a3.05,3.05,0,0,0,2.07-.64,2.35,2.35,0,0,0,.72-1.85,2.42,2.42,0,0,0-.72-1.83,2.89,2.89,0,0,0-2-.71h-3.13Z" style="fill:#003e6e"/><path d="M263.45,186a5.71,5.71,0,0,1,.55-2.51,4.06,4.06,0,0,1,3.77-2.33,4,4,0,0,1,3.14,1.35,5.16,5.16,0,0,1,1.2,3.57v.12a5.75,5.75,0,0,1-.53,2.49,4,4,0,0,1-1.52,1.72,4.22,4.22,0,0,1-2.27.61,4,4,0,0,1-3.14-1.34,5.15,5.15,0,0,1-1.2-3.56Zm1.64.2a4.07,4.07,0,0,0,.73,2.54,2.35,2.35,0,0,0,2,1,2.32,2.32,0,0,0,2-1,4.4,4.4,0,0,0,.73-2.72,4,4,0,0,0-.74-2.53,2.34,2.34,0,0,0-2-1,2.32,2.32,0,0,0-1.94,1A4.34,4.34,0,0,0,265.09,186.19Z" style="fill:#003e6e"/><path d="M275.92,190.84h-1.63v-13.5h1.63Z" style="fill:#003e6e"/><path d="M280.28,190.84h-1.62v-13.5h1.62Z" style="fill:#003e6e"/><path d="M282.83,190a1.05,1.05,0,0,1,.25-.7,1.16,1.16,0,0,1,1.51,0,1,1,0,0,1,.26.7.92.92,0,0,1-.26.68,1,1,0,0,1-1.76-.68Zm0-7.76a1,1,0,0,1,.25-.7,1.16,1.16,0,0,1,1.51,0,1,1,0,0,1,.26.7.92.92,0,0,1-.26.68,1.19,1.19,0,0,1-1.51,0A1,1,0,0,1,282.84,182.22Z" style="fill:#003e6e"/><path d="M300.45,179.42h-4.12v11.42h-1.68V179.42h-4.1V178h9.9Z" style="fill:#003e6e"/><path d="M305.17,191a4.15,4.15,0,0,1-3.15-1.27,4.69,4.69,0,0,1-1.21-3.39v-.3a5.7,5.7,0,0,1,.54-2.53,4.21,4.21,0,0,1,1.51-1.74,3.8,3.8,0,0,1,2.1-.63,3.59,3.59,0,0,1,2.89,1.22,5.33,5.33,0,0,1,1,3.5v.68h-6.44a3.43,3.43,0,0,0,.82,2.27,2.58,2.58,0,0,0,2,.87,2.77,2.77,0,0,0,1.46-.36,3.56,3.56,0,0,0,1.05-.93l1,.78A4,4,0,0,1,305.17,191Zm-.21-8.52a2.2,2.2,0,0,0-1.65.71,3.57,3.57,0,0,0-.83,2h4.77v-.12a3.09,3.09,0,0,0-.67-1.92A2,2,0,0,0,305,182.49Z" style="fill:#003e6e"/><path d="M312.28,181.33l.05,1a3.52,3.52,0,0,1,2.82-1.23,2.73,2.73,0,0,1,2.72,1.53,3.56,3.56,0,0,1,1.23-1.11,3.68,3.68,0,0,1,1.8-.42q3.12,0,3.18,3.32v6.37h-1.63v-6.28A2.16,2.16,0,0,0,322,183a2,2,0,0,0-1.57-.51,2.1,2.1,0,0,0-2.19,2v6.31h-1.64v-6.23a1.82,1.82,0,0,0-2-2.08,2.18,2.18,0,0,0-2.19,1.36v7h-1.62v-9.51Z" style="fill:#003e6e"/><path d="M334.56,186.19a5.72,5.72,0,0,1-1,3.5,3.19,3.19,0,0,1-2.69,1.32,3.46,3.46,0,0,1-2.72-1.1v4.58h-1.63V181.33H328l.08,1a3.34,3.34,0,0,1,2.76-1.23,3.25,3.25,0,0,1,2.71,1.29,5.81,5.81,0,0,1,1,3.6Zm-1.62-.19a4.18,4.18,0,0,0-.69-2.54,2.2,2.2,0,0,0-1.88-.93,2.39,2.39,0,0,0-2.21,1.31v4.55a2.4,2.4,0,0,0,2.23,1.3,2.2,2.2,0,0,0,1.86-.93A4.6,4.6,0,0,0,332.94,186Z" style="fill:#003e6e"/><path d="M340.58,191a4.15,4.15,0,0,1-3.15-1.27,4.69,4.69,0,0,1-1.21-3.39v-.3a5.7,5.7,0,0,1,.54-2.53,4.21,4.21,0,0,1,1.51-1.74,3.8,3.8,0,0,1,2.1-.63,3.59,3.59,0,0,1,2.89,1.22,5.33,5.33,0,0,1,1,3.5v.68h-6.45a3.39,3.39,0,0,0,.83,2.27,2.56,2.56,0,0,0,2,.87,2.77,2.77,0,0,0,1.46-.36,3.56,3.56,0,0,0,1.05-.93l1,.78A4,4,0,0,1,340.58,191Zm-.21-8.52a2.2,2.2,0,0,0-1.65.71,3.49,3.49,0,0,0-.82,2h4.76v-.12a3.09,3.09,0,0,0-.67-1.92A2,2,0,0,0,340.37,182.49Z" style="fill:#003e6e"/><path d="M350.76,182.79a4.92,4.92,0,0,0-.8-.06,2.14,2.14,0,0,0-2.17,1.36v6.75h-1.62v-9.51h1.58l0,1.1a2.55,2.55,0,0,1,2.27-1.28,1.67,1.67,0,0,1,.72.12Z" style="fill:#003e6e"/><path d="M357.78,190.84a3.26,3.26,0,0,1-.23-1,3.65,3.65,0,0,1-2.71,1.17,3.36,3.36,0,0,1-2.31-.79,2.57,2.57,0,0,1-.9-2,2.7,2.7,0,0,1,1.13-2.31,5.4,5.4,0,0,1,3.18-.82h1.58v-.75A1.81,1.81,0,0,0,357,183a2,2,0,0,0-1.5-.51,2.39,2.39,0,0,0-1.46.44,1.3,1.3,0,0,0-.59,1.06h-1.63a2.27,2.27,0,0,1,.5-1.37,3.56,3.56,0,0,1,1.37-1.05,4.59,4.59,0,0,1,1.91-.39,3.79,3.79,0,0,1,2.57.82,3,3,0,0,1,1,2.27v4.37a5.44,5.44,0,0,0,.33,2.09v.14Zm-2.7-1.24a2.81,2.81,0,0,0,1.45-.4,2.28,2.28,0,0,0,1-1v-1.95h-1.27c-2,0-3,.59-3,1.75a1.49,1.49,0,0,0,.51,1.2A2,2,0,0,0,355.08,189.6Z" style="fill:#003e6e"/><path d="M363.9,179v2.31h1.78v1.25H363.9v5.91a1.32,1.32,0,0,0,.24.86,1,1,0,0,0,.81.28,3.84,3.84,0,0,0,.77-.1v1.31a4.58,4.58,0,0,1-1.25.17,2,2,0,0,1-1.64-.66,2.82,2.82,0,0,1-.55-1.87v-5.9h-1.74v-1.25h1.74V179Z" style="fill:#003e6e"/><path d="M373.45,189.9a3.47,3.47,0,0,1-2.79,1.11,2.94,2.94,0,0,1-2.31-.88,3.84,3.84,0,0,1-.81-2.61v-6.19h1.63v6.14c0,1.44.58,2.16,1.75,2.16a2.42,2.42,0,0,0,2.48-1.39v-6.91H375v9.51h-1.55Z" style="fill:#003e6e"/><path d="M382.1,182.79a5.1,5.1,0,0,0-.8-.06,2.16,2.16,0,0,0-2.18,1.36v6.75H377.5v-9.51h1.58l0,1.1a2.53,2.53,0,0,1,2.27-1.28,1.73,1.73,0,0,1,.72.12Z" style="fill:#003e6e"/><path d="M387.37,191a4.15,4.15,0,0,1-3.15-1.27,4.69,4.69,0,0,1-1.21-3.39v-.3a5.7,5.7,0,0,1,.54-2.53,4.28,4.28,0,0,1,1.51-1.74,3.81,3.81,0,0,1,2.11-.63,3.58,3.58,0,0,1,2.88,1.22,5.28,5.28,0,0,1,1,3.5v.68h-6.44a3.33,3.33,0,0,0,.82,2.27,2.57,2.57,0,0,0,2,.87,2.8,2.8,0,0,0,1.46-.36,3.65,3.65,0,0,0,1-.93l1,.78A4,4,0,0,1,387.37,191Zm-.2-8.52a2.21,2.21,0,0,0-1.66.71,3.49,3.49,0,0,0-.82,2h4.76v-.12a3,3,0,0,0-.67-1.92A2,2,0,0,0,387.17,182.49Z" style="fill:#003e6e"/><path d="M258.58,209.74h-3v5.18h-1.7v-12.8h4.24a5,5,0,0,1,3.32,1,3.53,3.53,0,0,1,1.17,2.86,3.46,3.46,0,0,1-.65,2.09,3.83,3.83,0,0,1-1.8,1.32l3,5.44v.1h-1.81Zm-3-1.38h2.59a2.9,2.9,0,0,0,2-.65,2.2,2.2,0,0,0,.74-1.74,2.32,2.32,0,0,0-.71-1.82,3,3,0,0,0-2-.65h-2.58Z" style="fill:#f60"/><path d="M268.66,215.1a4.15,4.15,0,0,1-3.14-1.27,4.72,4.72,0,0,1-1.22-3.4v-.3a5.69,5.69,0,0,1,.54-2.52,4.24,4.24,0,0,1,1.51-1.75,3.88,3.88,0,0,1,2.11-.62,3.53,3.53,0,0,1,2.88,1.22,5.26,5.26,0,0,1,1,3.5v.67h-6.44a3.36,3.36,0,0,0,.82,2.27,2.57,2.57,0,0,0,2,.87,2.89,2.89,0,0,0,1.46-.35,3.68,3.68,0,0,0,1-.93l1,.77A4,4,0,0,1,268.66,215.1Zm-.2-8.53a2.15,2.15,0,0,0-1.65.72,3.5,3.5,0,0,0-.83,2h4.77v-.13a3.13,3.13,0,0,0-.67-1.92A2.06,2.06,0,0,0,268.46,206.57Z" style="fill:#f60"/><path d="M279.79,212.4a1.22,1.22,0,0,0-.5-1,4.76,4.76,0,0,0-1.73-.62,8.17,8.17,0,0,1-2-.64,2.74,2.74,0,0,1-1.07-.88,2.08,2.08,0,0,1-.35-1.21,2.47,2.47,0,0,1,1-2,4.48,4.48,0,0,1,5.15,0,2.67,2.67,0,0,1,1,2.14h-1.64a1.45,1.45,0,0,0-.57-1.15,2.06,2.06,0,0,0-1.42-.49,2.21,2.21,0,0,0-1.39.39,1.2,1.2,0,0,0-.5,1,1,1,0,0,0,.46.89,5.63,5.63,0,0,0,1.69.57,8.71,8.71,0,0,1,2,.65,2.82,2.82,0,0,1,1.12.91,2.23,2.23,0,0,1,.37,1.29,2.44,2.44,0,0,1-1,2.05,4.32,4.32,0,0,1-2.65.77,4.76,4.76,0,0,1-2-.41,3.23,3.23,0,0,1-1.38-1.13,2.7,2.7,0,0,1-.49-1.57h1.62a1.68,1.68,0,0,0,.66,1.3,2.51,2.51,0,0,0,1.61.48,2.6,2.6,0,0,0,1.48-.37A1.15,1.15,0,0,0,279.79,212.4Z" style="fill:#f60"/><path d="M291.57,210.27a5.64,5.64,0,0,1-1,3.5,3.2,3.2,0,0,1-2.69,1.33,3.49,3.49,0,0,1-2.72-1.1v4.58h-1.63V205.41H285l.08,1.06a3.34,3.34,0,0,1,2.76-1.23,3.25,3.25,0,0,1,2.71,1.29,5.78,5.78,0,0,1,1,3.59Zm-1.63-.18a4.18,4.18,0,0,0-.69-2.54,2.2,2.2,0,0,0-1.88-.93,2.37,2.37,0,0,0-2.21,1.31v4.54a2.39,2.39,0,0,0,2.23,1.3,2.2,2.2,0,0,0,1.86-.93A4.55,4.55,0,0,0,289.94,210.09Z" style="fill:#f60"/><path d="M293.2,210.08a5.54,5.54,0,0,1,.55-2.51,4,4,0,0,1,3.77-2.33,4,4,0,0,1,3.14,1.34,5.18,5.18,0,0,1,1.2,3.58v.11a5.69,5.69,0,0,1-.53,2.49,4.11,4.11,0,0,1-1.52,1.72,4.23,4.23,0,0,1-2.28.62,4,4,0,0,1-3.13-1.35,5.13,5.13,0,0,1-1.2-3.56Zm1.64.19a4.05,4.05,0,0,0,.73,2.54,2.34,2.34,0,0,0,2,1,2.32,2.32,0,0,0,2-1,4.44,4.44,0,0,0,.73-2.72,4.12,4.12,0,0,0-.74-2.54,2.38,2.38,0,0,0-2-1,2.35,2.35,0,0,0-1.95,1A4.43,4.43,0,0,0,294.84,210.27Z" style="fill:#f60"/><path d="M305.44,205.41l.05,1.2a3.43,3.43,0,0,1,2.85-1.37q3,0,3,3.4v6.28h-1.63v-6.29a2.14,2.14,0,0,0-.47-1.52,1.89,1.89,0,0,0-1.44-.49,2.32,2.32,0,0,0-1.38.42,2.91,2.91,0,0,0-.94,1.11v6.77H303.9v-9.51Z" style="fill:#f60"/><path d="M319.37,212.4a1.22,1.22,0,0,0-.5-1,4.76,4.76,0,0,0-1.73-.62,8,8,0,0,1-2-.64,2.67,2.67,0,0,1-1.07-.88,2,2,0,0,1-.35-1.21,2.47,2.47,0,0,1,1-2,3.9,3.9,0,0,1,2.52-.8,4,4,0,0,1,2.63.83,2.66,2.66,0,0,1,1,2.14h-1.63a1.45,1.45,0,0,0-.57-1.15,2.09,2.09,0,0,0-1.43-.49,2.18,2.18,0,0,0-1.38.39,1.21,1.21,0,0,0-.51,1,1,1,0,0,0,.47.89,5.65,5.65,0,0,0,1.68.57,9,9,0,0,1,2,.65,2.89,2.89,0,0,1,1.12.91,2.23,2.23,0,0,1,.36,1.29,2.44,2.44,0,0,1-1,2.05,4.29,4.29,0,0,1-2.64.77,4.76,4.76,0,0,1-2-.41,3.23,3.23,0,0,1-1.38-1.13,2.71,2.71,0,0,1-.5-1.57h1.63a1.7,1.7,0,0,0,.65,1.3,2.56,2.56,0,0,0,1.62.48,2.62,2.62,0,0,0,1.48-.37A1.15,1.15,0,0,0,319.37,212.4Z" style="fill:#f60"/><path d="M327.06,215.1a4.19,4.19,0,0,1-3.15-1.27,4.72,4.72,0,0,1-1.21-3.4v-.3a5.69,5.69,0,0,1,.54-2.52,4.17,4.17,0,0,1,1.51-1.75,3.87,3.87,0,0,1,2.1-.62,3.56,3.56,0,0,1,2.89,1.22,5.31,5.31,0,0,1,1,3.5v.67h-6.45a3.41,3.41,0,0,0,.82,2.27,2.6,2.6,0,0,0,2,.87,2.84,2.84,0,0,0,1.46-.35,3.86,3.86,0,0,0,1-.93l1,.77A4,4,0,0,1,327.06,215.1Zm-.21-8.53a2.18,2.18,0,0,0-1.65.72,3.49,3.49,0,0,0-.82,2h4.76v-.13a3.13,3.13,0,0,0-.67-1.92A2.06,2.06,0,0,0,326.85,206.57Z" style="fill:#f60"/><path d="M332.59,214.07a1,1,0,0,1,.25-.7,1,1,0,0,1,.76-.29.95.95,0,0,1,1,1,1,1,0,0,1-.26.68,1,1,0,0,1-.76.27,1,1,0,0,1-.76-.27A1,1,0,0,1,332.59,214.07Zm0-7.76a1,1,0,0,1,.25-.7,1,1,0,0,1,1.77.7.9.9,0,0,1-.26.67,1.16,1.16,0,0,1-1.51,0A1,1,0,0,1,332.6,206.31Z" style="fill:#f60"/><path d="M342.67,201.25l.94.64a4.11,4.11,0,0,0-.85,2.41v1.19h-1.61v-1a4,4,0,0,1,.42-1.77A4.38,4.38,0,0,1,342.67,201.25Zm2.77,0,.94.64a4.11,4.11,0,0,0-.85,2.41v1.19h-1.62v-1a4,4,0,0,1,.43-1.77A4.25,4.25,0,0,1,345.44,201.25Z" style="fill:#f60"/><path d="M356,214.92h-8.38v-1.17l4.43-4.92a11,11,0,0,0,1.36-1.81,3.16,3.16,0,0,0,.37-1.45,2.25,2.25,0,0,0-.61-1.64,2.1,2.1,0,0,0-1.61-.65,2.56,2.56,0,0,0-1.89.69,2.65,2.65,0,0,0-.67,1.93h-1.63a3.78,3.78,0,0,1,1.14-2.86A4.2,4.2,0,0,1,351.6,202a4.06,4.06,0,0,1,2.82.93,3.21,3.21,0,0,1,1,2.5q0,1.89-2.4,4.5l-3.43,3.71H356Z" style="fill:#f60"/><path d="M365.79,209.46a7.45,7.45,0,0,1-1,4.25,3.48,3.48,0,0,1-3.05,1.39,3.52,3.52,0,0,1-3-1.36,7.18,7.18,0,0,1-1-4.06v-2.17a7.26,7.26,0,0,1,1-4.19,4.13,4.13,0,0,1,6.1,0,7,7,0,0,1,1,4.08Zm-1.63-2.22a5.91,5.91,0,0,0-.58-3,2.23,2.23,0,0,0-3.65,0,5.78,5.78,0,0,0-.59,2.89v2.6a6.07,6.07,0,0,0,.6,3.06,2,2,0,0,0,1.82,1,2,2,0,0,0,1.79-.93,5.76,5.76,0,0,0,.61-2.94Z" style="fill:#f60"/><path d="M368,204.23a2.24,2.24,0,0,1,.66-1.6,2.11,2.11,0,0,1,1.58-.68,2.08,2.08,0,0,1,1.56.68,2.25,2.25,0,0,1,.65,1.6,2.16,2.16,0,0,1-.65,1.59,2.1,2.1,0,0,1-1.56.66,2.16,2.16,0,0,1-1.58-.66A2.14,2.14,0,0,1,368,204.23Zm2.24,1.13a1.09,1.09,0,0,0,.8-.31,1.07,1.07,0,0,0,.33-.81,1.14,1.14,0,0,0-.33-.84,1.06,1.06,0,0,0-.8-.33,1.08,1.08,0,0,0-.81.35,1.14,1.14,0,0,0-.33.82,1.06,1.06,0,0,0,.33.79A1.1,1.1,0,0,0,370.19,205.36Z" style="fill:#f60"/><path d="M388.89,210.86a4.71,4.71,0,0,1-1.5,3.13A4.89,4.89,0,0,1,384,215.1a4.49,4.49,0,0,1-3.64-1.63,6.53,6.53,0,0,1-1.36-4.35v-1.23a7.36,7.36,0,0,1,.63-3.14,4.85,4.85,0,0,1,1.81-2.08,5.06,5.06,0,0,1,2.71-.72,4.65,4.65,0,0,1,3.27,1.14,4.79,4.79,0,0,1,1.43,3.15h-1.7a3.7,3.7,0,0,0-.95-2.22,2.89,2.89,0,0,0-2.05-.69,3,3,0,0,0-2.54,1.19,5.53,5.53,0,0,0-.92,3.41v1.24a5.68,5.68,0,0,0,.87,3.32,2.81,2.81,0,0,0,2.44,1.23,3.21,3.21,0,0,0,2.15-.64,3.5,3.5,0,0,0,1-2.22Z" style="fill:#f60"/><path d="M392.15,201.25l.93.64a4.1,4.1,0,0,0-.84,2.41v1.19h-1.62v-1a4,4,0,0,1,.42-1.77A4.41,4.41,0,0,1,392.15,201.25Zm2.77,0,.93.64a4.11,4.11,0,0,0-.85,2.41v1.19h-1.61v-1a4,4,0,0,1,.42-1.77A4.41,4.41,0,0,1,394.92,201.25Z" style="fill:#f60"/><line x1="433.95" y1="340.17" x2="220.41" y2="340.17" style="fill:none;stroke:#f60;stroke-miterlimit:10;stroke-width:2px"/><polygon points="222.6 332.69 209.65 340.17 222.6 347.65 222.6 332.69" style="fill:#f60"/><line x1="212.15" y1="313.98" x2="428.68" y2="313.98" style="fill:none;stroke:#003e6e;stroke-miterlimit:10;stroke-width:2px"/><polygon points="426.64 320.96 438.73 313.98 426.64 307 426.64 320.96" style="fill:#003e6e"/><rect x="248.65" y="291.32" width="152" height="58.36" style="fill:#fff"/><path d="M257.58,315.83v5H255.9V308h4.72a4.77,4.77,0,0,1,3.29,1.07A3.65,3.65,0,0,1,265.1,312a3.58,3.58,0,0,1-1.17,2.87,4.93,4.93,0,0,1-3.33,1Zm0-1.38h3a3.05,3.05,0,0,0,2.07-.64,2.35,2.35,0,0,0,.72-1.85,2.42,2.42,0,0,0-.72-1.83,2.89,2.89,0,0,0-2-.71h-3.13Z" style="fill:#003e6e"/><path d="M266.45,316a5.71,5.71,0,0,1,.55-2.51,4.06,4.06,0,0,1,3.77-2.33,4,4,0,0,1,3.14,1.35,5.16,5.16,0,0,1,1.2,3.57v.12a5.75,5.75,0,0,1-.53,2.49,4,4,0,0,1-1.52,1.72,4.22,4.22,0,0,1-2.27.61,4,4,0,0,1-3.14-1.34,5.15,5.15,0,0,1-1.2-3.56Zm1.64.2a4.07,4.07,0,0,0,.73,2.54,2.35,2.35,0,0,0,2,1,2.32,2.32,0,0,0,2-1,4.4,4.4,0,0,0,.73-2.72,4,4,0,0,0-.74-2.53,2.34,2.34,0,0,0-2-1,2.32,2.32,0,0,0-1.94,1A4.34,4.34,0,0,0,268.09,316.19Z" style="fill:#003e6e"/><path d="M278.92,320.84h-1.63v-13.5h1.63Z" style="fill:#003e6e"/><path d="M283.28,320.84h-1.62v-13.5h1.62Z" style="fill:#003e6e"/><path d="M285.83,320a1.05,1.05,0,0,1,.25-.7,1.16,1.16,0,0,1,1.51,0,1,1,0,0,1,.26.7.92.92,0,0,1-.26.68,1,1,0,0,1-1.76-.68Zm0-7.76a1,1,0,0,1,.25-.7,1.16,1.16,0,0,1,1.51,0,1,1,0,0,1,.26.7.92.92,0,0,1-.26.68,1.19,1.19,0,0,1-1.51,0A1,1,0,0,1,285.84,312.22Z" style="fill:#003e6e"/><path d="M303.45,309.42h-4.12v11.42h-1.68V309.42h-4.1V308h9.9Z" style="fill:#003e6e"/><path d="M308.17,321a4.15,4.15,0,0,1-3.15-1.27,4.69,4.69,0,0,1-1.21-3.39v-.3a5.7,5.7,0,0,1,.54-2.53,4.21,4.21,0,0,1,1.51-1.74,3.8,3.8,0,0,1,2.1-.63,3.59,3.59,0,0,1,2.89,1.22,5.33,5.33,0,0,1,1,3.5v.68h-6.44a3.43,3.43,0,0,0,.82,2.27,2.58,2.58,0,0,0,2,.87,2.77,2.77,0,0,0,1.46-.36,3.56,3.56,0,0,0,1.05-.93l1,.78A4,4,0,0,1,308.17,321Zm-.21-8.52a2.2,2.2,0,0,0-1.65.71,3.57,3.57,0,0,0-.83,2h4.77v-.12a3.09,3.09,0,0,0-.67-1.92A2,2,0,0,0,308,312.49Z" style="fill:#003e6e"/><path d="M315.28,311.33l.05,1.05a3.52,3.52,0,0,1,2.82-1.23,2.73,2.73,0,0,1,2.72,1.53,3.56,3.56,0,0,1,1.23-1.11,3.68,3.68,0,0,1,1.8-.42q3.12,0,3.18,3.32v6.37h-1.63v-6.28A2.16,2.16,0,0,0,325,313a2,2,0,0,0-1.57-.51,2.1,2.1,0,0,0-2.19,2v6.31h-1.64v-6.23a1.82,1.82,0,0,0-2-2.08,2.18,2.18,0,0,0-2.19,1.36v6.95h-1.62v-9.51Z" style="fill:#003e6e"/><path d="M337.56,316.19a5.72,5.72,0,0,1-1,3.5,3.19,3.19,0,0,1-2.69,1.32,3.46,3.46,0,0,1-2.72-1.1v4.58h-1.63V311.33H331l.08,1.05a3.34,3.34,0,0,1,2.76-1.23,3.25,3.25,0,0,1,2.71,1.29,5.81,5.81,0,0,1,1,3.6Zm-1.62-.19a4.18,4.18,0,0,0-.69-2.54,2.2,2.2,0,0,0-1.88-.93,2.39,2.39,0,0,0-2.21,1.31v4.55a2.4,2.4,0,0,0,2.23,1.3,2.2,2.2,0,0,0,1.86-.93A4.6,4.6,0,0,0,335.94,316Z" style="fill:#003e6e"/><path d="M343.58,321a4.15,4.15,0,0,1-3.15-1.27,4.69,4.69,0,0,1-1.21-3.39v-.3a5.7,5.7,0,0,1,.54-2.53,4.21,4.21,0,0,1,1.51-1.74,3.8,3.8,0,0,1,2.1-.63,3.59,3.59,0,0,1,2.89,1.22,5.33,5.33,0,0,1,1,3.5v.68h-6.45a3.39,3.39,0,0,0,.83,2.27,2.56,2.56,0,0,0,2,.87,2.77,2.77,0,0,0,1.46-.36,3.56,3.56,0,0,0,1.05-.93l1,.78A4,4,0,0,1,343.58,321Zm-.21-8.52a2.2,2.2,0,0,0-1.65.71,3.49,3.49,0,0,0-.82,2h4.76v-.12a3.09,3.09,0,0,0-.67-1.92A2,2,0,0,0,343.37,312.49Z" style="fill:#003e6e"/><path d="M353.76,312.79a4.92,4.92,0,0,0-.8-.06,2.14,2.14,0,0,0-2.17,1.36v6.75h-1.62v-9.51h1.58l0,1.1a2.55,2.55,0,0,1,2.27-1.28,1.67,1.67,0,0,1,.72.12Z" style="fill:#003e6e"/><path d="M360.78,320.84a3.26,3.26,0,0,1-.23-1,3.65,3.65,0,0,1-2.71,1.17,3.36,3.36,0,0,1-2.31-.79,2.57,2.57,0,0,1-.9-2,2.7,2.7,0,0,1,1.13-2.31,5.4,5.4,0,0,1,3.18-.82h1.58v-.75A1.81,1.81,0,0,0,360,313a2,2,0,0,0-1.5-.51,2.39,2.39,0,0,0-1.46.44,1.3,1.3,0,0,0-.59,1.06h-1.63a2.27,2.27,0,0,1,.5-1.37,3.56,3.56,0,0,1,1.37-1,4.59,4.59,0,0,1,1.91-.39,3.79,3.79,0,0,1,2.57.82,3,3,0,0,1,1,2.27v4.37a5.44,5.44,0,0,0,.33,2.09v.14Zm-2.7-1.24a2.81,2.81,0,0,0,1.45-.4,2.28,2.28,0,0,0,1-1v-1.95h-1.27c-2,0-3,.59-3,1.75a1.49,1.49,0,0,0,.51,1.2A2,2,0,0,0,358.08,319.6Z" style="fill:#003e6e"/><path d="M366.9,309v2.31h1.78v1.25H366.9v5.91a1.32,1.32,0,0,0,.24.86,1,1,0,0,0,.81.28,3.84,3.84,0,0,0,.77-.1v1.31a4.58,4.58,0,0,1-1.25.17,2,2,0,0,1-1.64-.66,2.82,2.82,0,0,1-.55-1.87v-5.9h-1.74v-1.25h1.74V309Z" style="fill:#003e6e"/><path d="M376.45,319.9a3.47,3.47,0,0,1-2.79,1.11,2.94,2.94,0,0,1-2.31-.88,3.84,3.84,0,0,1-.81-2.61v-6.19h1.63v6.14c0,1.44.58,2.16,1.75,2.16a2.42,2.42,0,0,0,2.48-1.39v-6.91H378v9.51h-1.55Z" style="fill:#003e6e"/><path d="M385.1,312.79a5.1,5.1,0,0,0-.8-.06,2.16,2.16,0,0,0-2.18,1.36v6.75H380.5v-9.51h1.58l0,1.1a2.53,2.53,0,0,1,2.27-1.28,1.73,1.73,0,0,1,.72.12Z" style="fill:#003e6e"/><path d="M390.37,321a4.15,4.15,0,0,1-3.15-1.27,4.69,4.69,0,0,1-1.21-3.39v-.3a5.7,5.7,0,0,1,.54-2.53,4.28,4.28,0,0,1,1.51-1.74,3.81,3.81,0,0,1,2.11-.63,3.58,3.58,0,0,1,2.88,1.22,5.28,5.28,0,0,1,1,3.5v.68h-6.44a3.33,3.33,0,0,0,.82,2.27,2.57,2.57,0,0,0,2,.87,2.8,2.8,0,0,0,1.46-.36,3.65,3.65,0,0,0,1-.93l1,.78A4,4,0,0,1,390.37,321Zm-.2-8.52a2.21,2.21,0,0,0-1.66.71,3.49,3.49,0,0,0-.82,2h4.76v-.12a3,3,0,0,0-.67-1.92A2,2,0,0,0,390.17,312.49Z" style="fill:#003e6e"/><path d="M258.58,339.75h-3v5.17h-1.7v-12.8h4.24a5,5,0,0,1,3.32,1,3.53,3.53,0,0,1,1.17,2.86,3.46,3.46,0,0,1-.65,2.09,3.83,3.83,0,0,1-1.8,1.32l3,5.44v.1h-1.81Zm-3-1.38h2.59a2.91,2.91,0,0,0,2-.66,2.2,2.2,0,0,0,.74-1.74,2.32,2.32,0,0,0-.71-1.82,3,3,0,0,0-2-.65h-2.58Z" style="fill:#f60"/><path d="M268.66,345.1a4.15,4.15,0,0,1-3.14-1.27,4.72,4.72,0,0,1-1.22-3.4v-.3a5.69,5.69,0,0,1,.54-2.52,4.24,4.24,0,0,1,1.51-1.75,3.88,3.88,0,0,1,2.11-.62,3.53,3.53,0,0,1,2.88,1.22,5.26,5.26,0,0,1,1,3.5v.67h-6.44a3.36,3.36,0,0,0,.82,2.27,2.57,2.57,0,0,0,2,.87,2.89,2.89,0,0,0,1.46-.35,3.68,3.68,0,0,0,1-.93l1,.77A4,4,0,0,1,268.66,345.1Zm-.2-8.53a2.15,2.15,0,0,0-1.65.72,3.5,3.5,0,0,0-.83,2h4.77v-.13a3.13,3.13,0,0,0-.67-1.92A2.06,2.06,0,0,0,268.46,336.57Z" style="fill:#f60"/><path d="M279.79,342.4a1.19,1.19,0,0,0-.5-1,4.56,4.56,0,0,0-1.73-.63,8.17,8.17,0,0,1-2-.64,2.72,2.72,0,0,1-1.07-.87,2.14,2.14,0,0,1-.35-1.22,2.47,2.47,0,0,1,1-2,4.48,4.48,0,0,1,5.15,0,2.67,2.67,0,0,1,1,2.14h-1.64a1.45,1.45,0,0,0-.57-1.15,2.06,2.06,0,0,0-1.42-.49,2.21,2.21,0,0,0-1.39.39,1.2,1.2,0,0,0-.5,1,1,1,0,0,0,.46.89,5.63,5.63,0,0,0,1.69.57,8.71,8.71,0,0,1,2,.65,2.82,2.82,0,0,1,1.12.91,2.26,2.26,0,0,1,.37,1.3,2.44,2.44,0,0,1-1,2,4.32,4.32,0,0,1-2.65.77,4.76,4.76,0,0,1-2-.41,3.23,3.23,0,0,1-1.38-1.13,2.69,2.69,0,0,1-.49-1.56h1.62a1.68,1.68,0,0,0,.66,1.29,2.51,2.51,0,0,0,1.61.48,2.6,2.6,0,0,0,1.48-.37A1.15,1.15,0,0,0,279.79,342.4Z" style="fill:#f60"/><path d="M291.57,340.27a5.64,5.64,0,0,1-1,3.5,3.17,3.17,0,0,1-2.69,1.33,3.49,3.49,0,0,1-2.72-1.1v4.58h-1.63V335.41H285l.08,1.06a3.34,3.34,0,0,1,2.76-1.23,3.25,3.25,0,0,1,2.71,1.29,5.78,5.78,0,0,1,1,3.59Zm-1.63-.18a4.18,4.18,0,0,0-.69-2.54,2.2,2.2,0,0,0-1.88-.93,2.37,2.37,0,0,0-2.21,1.31v4.54a2.39,2.39,0,0,0,2.23,1.3,2.2,2.2,0,0,0,1.86-.93A4.55,4.55,0,0,0,289.94,340.09Z" style="fill:#f60"/><path d="M293.2,340.08a5.54,5.54,0,0,1,.55-2.51,4,4,0,0,1,3.77-2.33,4,4,0,0,1,3.14,1.34,5.18,5.18,0,0,1,1.2,3.58v.11a5.69,5.69,0,0,1-.53,2.49,4.11,4.11,0,0,1-1.52,1.72,4.23,4.23,0,0,1-2.28.62,4,4,0,0,1-3.13-1.35,5.13,5.13,0,0,1-1.2-3.56Zm1.64.19a4.05,4.05,0,0,0,.73,2.54,2.34,2.34,0,0,0,2,1,2.32,2.32,0,0,0,2-1,4.42,4.42,0,0,0,.73-2.72,4.12,4.12,0,0,0-.74-2.54,2.38,2.38,0,0,0-2-1,2.35,2.35,0,0,0-1.95,1A4.43,4.43,0,0,0,294.84,340.27Z" style="fill:#f60"/><path d="M305.44,335.41l.05,1.2a3.43,3.43,0,0,1,2.85-1.37q3,0,3,3.4v6.28h-1.63v-6.29a2.14,2.14,0,0,0-.47-1.52,1.89,1.89,0,0,0-1.44-.49,2.32,2.32,0,0,0-1.38.42,2.91,2.91,0,0,0-.94,1.11v6.77H303.9v-9.51Z" style="fill:#f60"/><path d="M319.37,342.4a1.19,1.19,0,0,0-.5-1,4.56,4.56,0,0,0-1.73-.63,8,8,0,0,1-2-.64,2.65,2.65,0,0,1-1.07-.87,2.06,2.06,0,0,1-.35-1.22,2.47,2.47,0,0,1,1-2,3.9,3.9,0,0,1,2.52-.8,4,4,0,0,1,2.63.83,2.66,2.66,0,0,1,1,2.14h-1.63a1.45,1.45,0,0,0-.57-1.15,2.09,2.09,0,0,0-1.43-.49,2.18,2.18,0,0,0-1.38.39,1.21,1.21,0,0,0-.51,1,1,1,0,0,0,.47.89,5.65,5.65,0,0,0,1.68.57,9,9,0,0,1,2,.65,2.89,2.89,0,0,1,1.12.91,2.26,2.26,0,0,1,.36,1.3,2.44,2.44,0,0,1-1,2,4.29,4.29,0,0,1-2.64.77,4.76,4.76,0,0,1-2-.41,3.23,3.23,0,0,1-1.38-1.13,2.7,2.7,0,0,1-.5-1.56h1.63a1.7,1.7,0,0,0,.65,1.29,2.56,2.56,0,0,0,1.62.48,2.62,2.62,0,0,0,1.48-.37A1.15,1.15,0,0,0,319.37,342.4Z" style="fill:#f60"/><path d="M327.06,345.1a4.19,4.19,0,0,1-3.15-1.27,4.72,4.72,0,0,1-1.21-3.4v-.3a5.69,5.69,0,0,1,.54-2.52,4.17,4.17,0,0,1,1.51-1.75,3.87,3.87,0,0,1,2.1-.62,3.56,3.56,0,0,1,2.89,1.22,5.31,5.31,0,0,1,1,3.5v.67h-6.45a3.41,3.41,0,0,0,.82,2.27,2.6,2.6,0,0,0,2,.87,2.84,2.84,0,0,0,1.46-.35,3.86,3.86,0,0,0,1-.93l1,.77A4,4,0,0,1,327.06,345.1Zm-.21-8.53a2.18,2.18,0,0,0-1.65.72,3.49,3.49,0,0,0-.82,2h4.76v-.13a3.13,3.13,0,0,0-.67-1.92A2.06,2.06,0,0,0,326.85,336.57Z" style="fill:#f60"/><path d="M332.59,344.07a1,1,0,0,1,.25-.7,1,1,0,0,1,.76-.28.93.93,0,0,1,1,1,1,1,0,0,1-.26.68,1,1,0,0,1-.76.27,1,1,0,0,1-.76-.27A1,1,0,0,1,332.59,344.07Zm0-7.76a1,1,0,0,1,.25-.7,1,1,0,0,1,1.77.7.9.9,0,0,1-.26.67,1.16,1.16,0,0,1-1.51,0A1,1,0,0,1,332.6,336.31Z" style="fill:#f60"/><path d="M342.67,331.25l.94.64a4.11,4.11,0,0,0-.85,2.41v1.19h-1.61v-1a4,4,0,0,1,.42-1.77A4.38,4.38,0,0,1,342.67,331.25Zm2.77,0,.94.64a4.11,4.11,0,0,0-.85,2.41v1.19h-1.62v-1a4,4,0,0,1,.43-1.77A4.25,4.25,0,0,1,345.44,331.25Z" style="fill:#f60"/><path d="M353,344.92h-1.63V334.08l-3.28,1.21v-1.48l4.66-1.75H353Z" style="fill:#f60"/><path d="M364,339.3a4,4,0,0,1-1.22,1,3.25,3.25,0,0,1-1.55.37,3.44,3.44,0,0,1-1.93-.54,3.59,3.59,0,0,1-1.27-1.54,5.6,5.6,0,0,1,0-4.49,3.62,3.62,0,0,1,1.38-1.58,4,4,0,0,1,2.09-.54,3.57,3.57,0,0,1,3,1.42,6.2,6.2,0,0,1,1.09,3.87v.47c0,2.5-.49,4.31-1.47,5.46a5.7,5.7,0,0,1-4.46,1.76h-.32v-1.38h.35a4.43,4.43,0,0,0,3.09-1.05A4.5,4.5,0,0,0,364,339.3Zm-2.51,0a2.53,2.53,0,0,0,1.51-.5,3.09,3.09,0,0,0,1-1.24v-.65a4.52,4.52,0,0,0-.7-2.61,2.12,2.12,0,0,0-3.48-.18,3.42,3.42,0,0,0-.65,2.17,3.54,3.54,0,0,0,.63,2.16A2,2,0,0,0,361.49,339.3Z" style="fill:#f60"/><path d="M368,334.23a2.24,2.24,0,0,1,.66-1.6,2.11,2.11,0,0,1,1.58-.68,2.08,2.08,0,0,1,1.56.68,2.25,2.25,0,0,1,.65,1.6,2.16,2.16,0,0,1-.65,1.59,2.1,2.1,0,0,1-1.56.66,2.16,2.16,0,0,1-1.58-.66A2.14,2.14,0,0,1,368,334.23Zm2.24,1.13a1.09,1.09,0,0,0,.8-.31,1.07,1.07,0,0,0,.33-.81,1.14,1.14,0,0,0-.33-.84,1.06,1.06,0,0,0-.8-.33,1.08,1.08,0,0,0-.81.35,1.14,1.14,0,0,0-.33.82,1.06,1.06,0,0,0,.33.79A1.1,1.1,0,0,0,370.19,335.36Z" style="fill:#f60"/><path d="M388.89,340.86a4.71,4.71,0,0,1-1.5,3.13A4.89,4.89,0,0,1,384,345.1a4.49,4.49,0,0,1-3.64-1.63,6.53,6.53,0,0,1-1.36-4.35v-1.23a7.36,7.36,0,0,1,.63-3.14,4.85,4.85,0,0,1,1.81-2.08,5.06,5.06,0,0,1,2.71-.72,4.65,4.65,0,0,1,3.27,1.14,4.79,4.79,0,0,1,1.43,3.15h-1.7a3.7,3.7,0,0,0-.95-2.22,2.89,2.89,0,0,0-2.05-.69,3,3,0,0,0-2.54,1.19,5.53,5.53,0,0,0-.92,3.41v1.24a5.66,5.66,0,0,0,.87,3.32,2.81,2.81,0,0,0,2.44,1.23,3.21,3.21,0,0,0,2.15-.64,3.5,3.5,0,0,0,1-2.22Z" style="fill:#f60"/><path d="M392.15,331.25l.93.64a4.1,4.1,0,0,0-.84,2.41v1.19h-1.62v-1a4,4,0,0,1,.42-1.77A4.41,4.41,0,0,1,392.15,331.25Zm2.77,0,.93.64a4.11,4.11,0,0,0-.85,2.41v1.19h-1.61v-1a4,4,0,0,1,.42-1.77A4.41,4.41,0,0,1,394.92,331.25Z" style="fill:#f60"/></svg>