<svg id="Ebene_1" data-name="Ebene 1" xmlns="http://www.w3.org/2000/svg" xmlns:xlink="http://www.w3.org/1999/xlink" viewBox="0 0 1148 379"><defs><linearGradient id="Unbenannter_Verlauf_8" x1="114.9" y1="120.54" x2="114.9" y2="267.33" gradientUnits="userSpaceOnUse"><stop offset="0" stop-color="#fff"/><stop offset="0.35" stop-color="#fdfdfe"/><stop offset="1" stop-color="#d7e0e5"/></linearGradient><linearGradient id="Unbenannter_Verlauf_8-2" x1="912.28" y1="63.65" x2="912.28" y2="190.44" xlink:href="#Unbenannter_Verlauf_8"/><linearGradient id="Unbenannter_Verlauf_8-3" x1="487" y1="92.69" x2="487" y2="319.45" xlink:href="#Unbenannter_Verlauf_8"/><linearGradient id="Unbenannter_Verlauf_4" x1="429" y1="146.38" x2="458.21" y2="196.98" gradientUnits="userSpaceOnUse"><stop offset="0" stop-color="#fff"/><stop offset="1" stop-color="#ccc"/></linearGradient><linearGradient id="Unbenannter_Verlauf_4-2" x1="519.58" y1="146.38" x2="548.79" y2="196.98" xlink:href="#Unbenannter_Verlauf_4"/><linearGradient id="Unbenannter_Verlauf_4-3" x1="429" y1="209.1" x2="458.21" y2="259.7" xlink:href="#Unbenannter_Verlauf_4"/><linearGradient id="Unbenannter_Verlauf_4-4" x1="519.58" y1="207.69" x2="548.79" y2="258.29" xlink:href="#Unbenannter_Verlauf_4"/><linearGradient id="Unbenannter_Verlauf_8-4" x1="912.28" y1="226.65" x2="912.28" y2="353.44" xlink:href="#Unbenannter_Verlauf_8"/><linearGradient id="Unbenannter_Verlauf_4-5" x1="860.99" y1="287.96" x2="963.59" y2="287.96" xlink:href="#Unbenannter_Verlauf_4"/><linearGradient id="Unbenannter_Verlauf_4-6" x1="896.72" y1="329.65" x2="927.86" y2="329.65" xlink:href="#Unbenannter_Verlauf_4"/><linearGradient id="Unbenannter_Verlauf_8-5" x1="1052.28" y1="141.65" x2="1052.28" y2="268.44" xlink:href="#Unbenannter_Verlauf_8"/><linearGradient id="Unbenannter_Verlauf_4-7" x1="63.2" y1="182.31" x2="159.44" y2="182.31" xlink:href="#Unbenannter_Verlauf_4"/><linearGradient id="Unbenannter_Verlauf_4-8" x1="69.03" y1="225.18" x2="153.73" y2="225.18" xlink:href="#Unbenannter_Verlauf_4"/><linearGradient id="Unbenannter_Verlauf_4-9" x1="126.76" y1="218.47" x2="126.76" y2="218.47" xlink:href="#Unbenannter_Verlauf_4"/><linearGradient id="Unbenannter_Verlauf_4-10" x1="110.86" y1="218.47" x2="110.86" y2="218.47" xlink:href="#Unbenannter_Verlauf_4"/><linearGradient id="Unbenannter_Verlauf_4-11" x1="94.97" y1="218.47" x2="94.97" y2="218.47" xlink:href="#Unbenannter_Verlauf_4"/><linearGradient id="Unbenannter_Verlauf_4-12" x1="79.07" y1="218.47" x2="79.07" y2="218.47" xlink:href="#Unbenannter_Verlauf_4"/><linearGradient id="Unbenannter_Verlauf_4-13" x1="142.65" y1="218.47" x2="142.65" y2="218.47" xlink:href="#Unbenannter_Verlauf_4"/><linearGradient id="Unbenannter_Verlauf_4-14" x1="1042.14" y1="192.81" x2="1065.16" y2="192.81" xlink:href="#Unbenannter_Verlauf_4"/><linearGradient id="Unbenannter_Verlauf_4-15" x1="887.6" y1="144.38" x2="938.24" y2="144.38" xlink:href="#Unbenannter_Verlauf_4"/><linearGradient id="Unbenannter_Verlauf_4-16" x1="887.6" y1="120.45" x2="937.99" y2="120.45" xlink:href="#Unbenannter_Verlauf_4"/></defs><rect x="8.03" y="4.98" width="214.23" height="40" style="fill:#333"/><rect x="832.1" y="4.98" width="310.49" height="40" style="fill:#333"/><rect x="364.55" y="4.98" width="247.2" height="40" style="fill:#ffc000"/><rect x="32.16" y="120.54" width="165.49" height="146.79" rx="5.34" style="stroke:gray;stroke-miterlimit:10;stroke-width:2px;fill:url(#Unbenannter_Verlauf_8)"/><rect x="848.58" y="63.65" width="127.4" height="126.79" rx="4.36" style="stroke:gray;stroke-miterlimit:10;stroke-width:2px;fill:url(#Unbenannter_Verlauf_8-2)"/><rect x="366.58" y="92.69" width="240.84" height="226.76" rx="6.56" style="stroke:gray;stroke-miterlimit:10;stroke-width:2px;fill:url(#Unbenannter_Verlauf_8-3)"/><line x1="412.63" y1="189.35" x2="412.63" y2="183.54" style="fill:none;stroke:#000;stroke-linecap:round;stroke-linejoin:round;stroke-width:2px"/><line x1="475.55" y1="189.35" x2="475.55" y2="183.54" style="fill:none;stroke:#000;stroke-linecap:round;stroke-linejoin:round;stroke-width:2px"/><rect x="402.46" y="160.07" width="82.28" height="23.23" rx="3.87" style="stroke:#000;stroke-miterlimit:10;stroke-width:2px;fill:url(#Unbenannter_Verlauf_4)"/><circle cx="416.01" cy="172.25" r="2.9" style="fill:#fff;stroke:#000;stroke-miterlimit:10"/><circle cx="426.18" cy="172.25" r="2.9" style="fill:#fff;stroke:#000;stroke-miterlimit:10"/><circle cx="436.34" cy="172.25" r="2.9" style="fill:#fff;stroke:#000;stroke-miterlimit:10"/><line x1="463.09" y1="165.85" x2="456.8" y2="177.46" style="fill:none;stroke:#000;stroke-miterlimit:10;stroke-width:2px"/><line x1="466.96" y1="165.85" x2="460.67" y2="177.46" style="fill:none;stroke:#000;stroke-miterlimit:10;stroke-width:2px"/><line x1="470.84" y1="165.85" x2="464.54" y2="177.46" style="fill:none;stroke:#000;stroke-miterlimit:10;stroke-width:2px"/><line x1="474.71" y1="165.85" x2="468.42" y2="177.46" style="fill:none;stroke:#000;stroke-miterlimit:10;stroke-width:2px"/><line x1="475.2" y1="172.09" x2="472.29" y2="177.46" style="fill:none;stroke:#000;stroke-miterlimit:10;stroke-width:2px"/><line x1="459.22" y1="165.85" x2="456.19" y2="171.43" style="fill:none;stroke:#000;stroke-miterlimit:10;stroke-width:2px"/><line x1="503.21" y1="189.35" x2="503.21" y2="183.54" style="fill:none;stroke:#000;stroke-linecap:round;stroke-linejoin:round;stroke-width:2px"/><line x1="566.13" y1="189.35" x2="566.13" y2="183.54" style="fill:none;stroke:#000;stroke-linecap:round;stroke-linejoin:round;stroke-width:2px"/><rect x="493.04" y="160.07" width="82.28" height="23.23" rx="3.87" style="stroke:#000;stroke-miterlimit:10;stroke-width:2px;fill:url(#Unbenannter_Verlauf_4-2)"/><circle cx="506.59" cy="172.25" r="2.9" style="fill:#fff;stroke:#000;stroke-miterlimit:10"/><circle cx="516.76" cy="172.25" r="2.9" style="fill:#fff;stroke:#000;stroke-miterlimit:10"/><circle cx="526.92" cy="172.25" r="2.9" style="fill:#fff;stroke:#000;stroke-miterlimit:10"/><line x1="553.67" y1="165.85" x2="547.38" y2="177.46" style="fill:none;stroke:#000;stroke-miterlimit:10;stroke-width:2px"/><line x1="557.54" y1="165.85" x2="551.25" y2="177.46" style="fill:none;stroke:#000;stroke-miterlimit:10;stroke-width:2px"/><line x1="561.42" y1="165.85" x2="555.12" y2="177.46" style="fill:none;stroke:#000;stroke-miterlimit:10;stroke-width:2px"/><line x1="565.29" y1="165.85" x2="559" y2="177.46" style="fill:none;stroke:#000;stroke-miterlimit:10;stroke-width:2px"/><line x1="565.78" y1="172.09" x2="562.87" y2="177.46" style="fill:none;stroke:#000;stroke-miterlimit:10;stroke-width:2px"/><line x1="549.8" y1="165.85" x2="546.77" y2="171.43" style="fill:none;stroke:#000;stroke-miterlimit:10;stroke-width:2px"/><line x1="412.63" y1="252.07" x2="412.63" y2="246.26" style="fill:none;stroke:#000;stroke-linecap:round;stroke-linejoin:round;stroke-width:2px"/><line x1="475.55" y1="252.07" x2="475.55" y2="246.26" style="fill:none;stroke:#000;stroke-linecap:round;stroke-linejoin:round;stroke-width:2px"/><rect x="402.46" y="222.78" width="82.28" height="23.23" rx="3.87" style="stroke:#000;stroke-miterlimit:10;stroke-width:2px;fill:url(#Unbenannter_Verlauf_4-3)"/><circle cx="416.01" cy="234.97" r="2.9" style="fill:#fff;stroke:#000;stroke-miterlimit:10"/><circle cx="426.18" cy="234.97" r="2.9" style="fill:#fff;stroke:#000;stroke-miterlimit:10"/><circle cx="436.34" cy="234.97" r="2.9" style="fill:#fff;stroke:#000;stroke-miterlimit:10"/><line x1="463.09" y1="228.56" x2="456.8" y2="240.18" style="fill:none;stroke:#000;stroke-miterlimit:10;stroke-width:2px"/><line x1="466.96" y1="228.56" x2="460.67" y2="240.18" style="fill:none;stroke:#000;stroke-miterlimit:10;stroke-width:2px"/><line x1="470.84" y1="228.56" x2="464.54" y2="240.18" style="fill:none;stroke:#000;stroke-miterlimit:10;stroke-width:2px"/><line x1="474.71" y1="228.56" x2="468.42" y2="240.18" style="fill:none;stroke:#000;stroke-miterlimit:10;stroke-width:2px"/><line x1="475.2" y1="234.81" x2="472.29" y2="240.18" style="fill:none;stroke:#000;stroke-miterlimit:10;stroke-width:2px"/><line x1="459.22" y1="228.56" x2="456.19" y2="234.15" style="fill:none;stroke:#000;stroke-miterlimit:10;stroke-width:2px"/><line x1="503.21" y1="250.66" x2="503.21" y2="244.85" style="fill:none;stroke:#000;stroke-linecap:round;stroke-linejoin:round;stroke-width:2px"/><line x1="566.13" y1="250.66" x2="566.13" y2="244.85" style="fill:none;stroke:#000;stroke-linecap:round;stroke-linejoin:round;stroke-width:2px"/><rect x="493.04" y="221.38" width="82.28" height="23.23" rx="3.87" style="stroke:#000;stroke-miterlimit:10;stroke-width:2px;fill:url(#Unbenannter_Verlauf_4-4)"/><circle cx="506.59" cy="233.56" r="2.9" style="fill:#fff;stroke:#000;stroke-miterlimit:10"/><circle cx="516.76" cy="233.56" r="2.9" style="fill:#fff;stroke:#000;stroke-miterlimit:10"/><circle cx="526.92" cy="233.56" r="2.9" style="fill:#fff;stroke:#000;stroke-miterlimit:10"/><line x1="553.67" y1="227.16" x2="547.38" y2="238.77" style="fill:none;stroke:#000;stroke-miterlimit:10;stroke-width:2px"/><line x1="557.54" y1="227.16" x2="551.25" y2="238.77" style="fill:none;stroke:#000;stroke-miterlimit:10;stroke-width:2px"/><line x1="561.42" y1="227.16" x2="555.12" y2="238.77" style="fill:none;stroke:#000;stroke-miterlimit:10;stroke-width:2px"/><line x1="565.29" y1="227.16" x2="559" y2="238.77" style="fill:none;stroke:#000;stroke-miterlimit:10;stroke-width:2px"/><line x1="565.78" y1="233.4" x2="562.87" y2="238.77" style="fill:none;stroke:#000;stroke-miterlimit:10;stroke-width:2px"/><line x1="549.8" y1="227.16" x2="546.77" y2="232.74" style="fill:none;stroke:#000;stroke-miterlimit:10;stroke-width:2px"/><line x1="443.6" y1="185.2" x2="443.6" y2="186.2" style="fill:none;stroke:#000;stroke-linecap:round;stroke-linejoin:round;stroke-width:2px"/><line x1="443.6" y1="191.56" x2="443.6" y2="217.46" style="fill:none;stroke:#000;stroke-linecap:round;stroke-linejoin:round;stroke-width:2px;stroke-dasharray:1.7862666845321655,5.358799934387207"/><line x1="443.6" y1="220.14" x2="443.6" y2="221.14" style="fill:none;stroke:#000;stroke-linecap:round;stroke-linejoin:round;stroke-width:2px"/><line x1="399.15" y1="202.11" x2="578.85" y2="202.11" style="fill:#fff;stroke:#000;stroke-linecap:round;stroke-linejoin:round;stroke-width:2px"/><line x1="535.21" y1="185.2" x2="535.21" y2="186.2" style="fill:none;stroke:#000;stroke-linecap:round;stroke-linejoin:round;stroke-width:2px"/><line x1="535.21" y1="191.56" x2="535.21" y2="217.46" style="fill:none;stroke:#000;stroke-linecap:round;stroke-linejoin:round;stroke-width:2px;stroke-dasharray:1.7862666845321655,5.358799934387207"/><line x1="535.21" y1="220.14" x2="535.21" y2="221.14" style="fill:none;stroke:#000;stroke-linecap:round;stroke-linejoin:round;stroke-width:2px"/><rect x="438.61" y="198.06" width="9.16" height="9.16" style="fill:#fff;stroke:#000;stroke-linecap:round;stroke-linejoin:round;stroke-width:2px"/><rect x="530.22" y="198.06" width="9.16" height="9.16" style="fill:#fff;stroke:#000;stroke-linecap:round;stroke-linejoin:round;stroke-width:2px"/><line x1="210.06" y1="202.19" x2="349.97" y2="202.19" style="fill:none;stroke:#003e6e;stroke-miterlimit:10;stroke-width:2px"/><polygon points="347.79 209.67 360.74 202.19 347.79 194.71 347.79 209.67" style="fill:#003e6e"/><path d="M222,162.18v5h-1.68V154.4h4.72a4.72,4.72,0,0,1,3.29,1.07,3.64,3.64,0,0,1,1.19,2.84,3.58,3.58,0,0,1-1.17,2.87,4.94,4.94,0,0,1-3.33,1Zm0-1.38h3a3,3,0,0,0,2.07-.63,2.35,2.35,0,0,0,.72-1.85,2.42,2.42,0,0,0-.72-1.83,2.8,2.8,0,0,0-2-.71H222Z" style="fill:#003e6e"/><path d="M237.33,166.25a3.45,3.45,0,0,1-2.79,1.12,3,3,0,0,1-2.31-.88,3.8,3.8,0,0,1-.81-2.62v-6.19h1.63v6.15c0,1.44.58,2.16,1.75,2.16a2.42,2.42,0,0,0,2.48-1.39v-6.92h1.63v9.51h-1.55Z" style="fill:#003e6e"/><path d="M249.43,162.54a5.67,5.67,0,0,1-1,3.51,3.21,3.21,0,0,1-2.69,1.32,3.33,3.33,0,0,1-2.79-1.28l-.08,1.1h-1.49v-13.5H243v5a3.33,3.33,0,0,1,2.72-1.22,3.21,3.21,0,0,1,2.72,1.31,5.81,5.81,0,0,1,1,3.58Zm-1.63-.18a4.4,4.4,0,0,0-.64-2.57,2.12,2.12,0,0,0-1.84-.9,2.4,2.4,0,0,0-2.32,1.49v4.12a2.47,2.47,0,0,0,2.33,1.49,2.1,2.1,0,0,0,1.82-.91A4.61,4.61,0,0,0,247.8,162.36Z" style="fill:#003e6e"/><path d="M253.24,167.19h-1.62v-13.5h1.62Z" style="fill:#003e6e"/><path d="M255.85,155.16a1,1,0,0,1,.25-.67,1.08,1.08,0,0,1,1.43,0,1,1,0,0,1,.25.67.92.92,0,0,1-.25.66,1.11,1.11,0,0,1-1.43,0A.92.92,0,0,1,255.85,155.16Zm1.76,12H256v-9.51h1.62Z" style="fill:#003e6e"/><path d="M265.75,164.67a1.19,1.19,0,0,0-.5-1,4.49,4.49,0,0,0-1.73-.63,8.86,8.86,0,0,1-2-.63,2.83,2.83,0,0,1-1.07-.88,2.14,2.14,0,0,1-.35-1.22,2.45,2.45,0,0,1,1-2,3.86,3.86,0,0,1,2.53-.81,4,4,0,0,1,2.62.83,2.67,2.67,0,0,1,1,2.14h-1.64a1.44,1.44,0,0,0-.56-1.15,2.11,2.11,0,0,0-1.43-.49,2.21,2.21,0,0,0-1.39.39,1.24,1.24,0,0,0-.5,1,1,1,0,0,0,.47.89,5.65,5.65,0,0,0,1.68.57,8.71,8.71,0,0,1,2,.65,2.83,2.83,0,0,1,1.12.91,2.26,2.26,0,0,1,.37,1.3,2.42,2.42,0,0,1-1,2,4.3,4.3,0,0,1-2.65.77,4.79,4.79,0,0,1-2-.41,3.18,3.18,0,0,1-1.37-1.12,2.69,2.69,0,0,1-.5-1.57h1.62a1.68,1.68,0,0,0,.66,1.29,2.53,2.53,0,0,0,1.61.48,2.6,2.6,0,0,0,1.48-.37A1.13,1.13,0,0,0,265.75,164.67Z" style="fill:#003e6e"/><path d="M271.12,158.84a3.44,3.44,0,0,1,2.81-1.33c2,0,3,1.13,3,3.4v6.28h-1.62V160.9a2.19,2.19,0,0,0-.47-1.52,1.89,1.89,0,0,0-1.44-.49,2.36,2.36,0,0,0-1.39.42,2.8,2.8,0,0,0-.93,1.11v6.77h-1.63v-13.5h1.63Z" style="fill:#003e6e"/><path d="M283.47,162.36a5.58,5.58,0,0,1,1-3.52,3.26,3.26,0,0,1,2.71-1.33,3.3,3.3,0,0,1,2.65,1.14v-5h1.62v13.5H290l-.08-1a3.3,3.3,0,0,1-2.72,1.2,3.25,3.25,0,0,1-2.69-1.35,5.68,5.68,0,0,1-1-3.54Zm1.63.18a4.28,4.28,0,0,0,.66,2.54,2.19,2.19,0,0,0,1.85.91,2.37,2.37,0,0,0,2.26-1.39v-4.37a2.41,2.41,0,0,0-2.24-1.34,2.19,2.19,0,0,0-1.87.92A4.7,4.7,0,0,0,285.1,162.54Z" style="fill:#003e6e"/><path d="M299.89,167.19a3.18,3.18,0,0,1-.23-1,3.62,3.62,0,0,1-2.71,1.18,3.32,3.32,0,0,1-2.3-.8,2.54,2.54,0,0,1-.91-2,2.7,2.7,0,0,1,1.13-2.31,5.34,5.34,0,0,1,3.18-.82h1.58v-.75a1.83,1.83,0,0,0-.51-1.36,2.07,2.07,0,0,0-1.5-.5,2.33,2.33,0,0,0-1.46.44,1.29,1.29,0,0,0-.59,1.06h-1.63a2.32,2.32,0,0,1,.5-1.38,3.56,3.56,0,0,1,1.37-1.05,4.79,4.79,0,0,1,1.91-.38,3.74,3.74,0,0,1,2.57.82,3,3,0,0,1,1,2.26V165a5.38,5.38,0,0,0,.33,2.08v.14Zm-2.7-1.24a2.9,2.9,0,0,0,1.45-.39,2.33,2.33,0,0,0,1-1v-1.95h-1.27c-2,0-3,.58-3,1.75a1.46,1.46,0,0,0,.51,1.19A2,2,0,0,0,297.19,166Z" style="fill:#003e6e"/><path d="M306,155.38v2.3h1.78v1.26H306v5.9a1.3,1.3,0,0,0,.24.86,1,1,0,0,0,.81.29,4,4,0,0,0,.77-.11v1.31a4.55,4.55,0,0,1-1.25.18,2,2,0,0,1-1.64-.66,2.82,2.82,0,0,1-.55-1.87v-5.9h-1.73v-1.26h1.73v-2.3Z" style="fill:#003e6e"/><path d="M315.56,167.19a3.18,3.18,0,0,1-.23-1,3.62,3.62,0,0,1-2.71,1.18,3.35,3.35,0,0,1-2.3-.8,2.58,2.58,0,0,1-.91-2,2.7,2.7,0,0,1,1.13-2.31,5.34,5.34,0,0,1,3.18-.82h1.58v-.75a1.83,1.83,0,0,0-.51-1.36,2.07,2.07,0,0,0-1.5-.5,2.33,2.33,0,0,0-1.46.44,1.29,1.29,0,0,0-.59,1.06h-1.63a2.32,2.32,0,0,1,.5-1.38,3.52,3.52,0,0,1,1.38-1.05,4.71,4.71,0,0,1,1.9-.38,3.74,3.74,0,0,1,2.57.82,3,3,0,0,1,1,2.26V165a5.38,5.38,0,0,0,.33,2.08v.14Zm-2.7-1.24a2.9,2.9,0,0,0,1.45-.39,2.33,2.33,0,0,0,1-1v-1.95H314c-2,0-3,.58-3,1.75a1.46,1.46,0,0,0,.51,1.19A2,2,0,0,0,312.86,166Z" style="fill:#003e6e"/><path d="M326.14,155.38v2.3h1.78v1.26h-1.78v5.9a1.3,1.3,0,0,0,.24.86,1,1,0,0,0,.81.29,4.11,4.11,0,0,0,.77-.11v1.31a4.61,4.61,0,0,1-1.25.18,2,2,0,0,1-1.64-.66,2.82,2.82,0,0,1-.56-1.87v-5.9h-1.73v-1.26h1.73v-2.3Z" style="fill:#003e6e"/><path d="M329.21,162.35a5.54,5.54,0,0,1,.55-2.51,4,4,0,0,1,1.53-1.73,4.18,4.18,0,0,1,2.23-.6,4,4,0,0,1,3.14,1.34,5.14,5.14,0,0,1,1.21,3.58v.11a5.63,5.63,0,0,1-.54,2.5,4,4,0,0,1-1.52,1.71,4.2,4.2,0,0,1-2.27.62,4,4,0,0,1-3.13-1.35,5.13,5.13,0,0,1-1.2-3.56Zm1.63.19a4,4,0,0,0,.74,2.54,2.48,2.48,0,0,0,3.93,0,4.42,4.42,0,0,0,.73-2.72,4.12,4.12,0,0,0-.74-2.54,2.4,2.4,0,0,0-2-1,2.33,2.33,0,0,0-1.94,1A4.42,4.42,0,0,0,330.84,162.54Z" style="fill:#003e6e"/><path d="M257.2,175.13l.93.63a4.12,4.12,0,0,0-.84,2.41v1.19h-1.62v-1a3.94,3.94,0,0,1,.43-1.77A4.12,4.12,0,0,1,257.2,175.13Zm2.77,0,.93.63a4.05,4.05,0,0,0-.84,2.41v1.19h-1.62v-1a4.06,4.06,0,0,1,.42-1.77A4.27,4.27,0,0,1,260,175.13Z" style="fill:#003e6e"/><path d="M264.56,177v2.3h1.77v1.26h-1.77v5.91a1.29,1.29,0,0,0,.23.85,1,1,0,0,0,.81.29,3.9,3.9,0,0,0,.77-.11v1.31a4.54,4.54,0,0,1-1.24.18,2,2,0,0,1-1.65-.66,2.82,2.82,0,0,1-.55-1.87v-5.9H261.2v-1.26h1.73V177Z" style="fill:#003e6e"/><path d="M267.62,184a5.68,5.68,0,0,1,.55-2.51,4,4,0,0,1,3.77-2.33,4,4,0,0,1,3.14,1.34,5.18,5.18,0,0,1,1.2,3.58v.11a5.77,5.77,0,0,1-.53,2.5,4.08,4.08,0,0,1-1.52,1.71A4.22,4.22,0,0,1,272,189a4,4,0,0,1-3.14-1.35,5.13,5.13,0,0,1-1.2-3.56Zm1.64.19a4,4,0,0,0,.73,2.54,2.36,2.36,0,0,0,2,1,2.31,2.31,0,0,0,2-1,4.42,4.42,0,0,0,.73-2.72,4,4,0,0,0-.74-2.53,2.46,2.46,0,0,0-3.91,0A4.36,4.36,0,0,0,269.26,184.14Z" style="fill:#003e6e"/><path d="M286.35,184.14a5.7,5.7,0,0,1-1,3.5,3.17,3.17,0,0,1-2.69,1.33,3.49,3.49,0,0,1-2.72-1.1v4.58h-1.63V179.28h1.48l.08,1.06a3.37,3.37,0,0,1,2.76-1.23,3.23,3.23,0,0,1,2.71,1.29,5.72,5.72,0,0,1,1,3.59Zm-1.62-.18a4.18,4.18,0,0,0-.69-2.54,2.21,2.21,0,0,0-1.88-.93A2.37,2.37,0,0,0,280,181.8v4.54a2.38,2.38,0,0,0,2.23,1.3,2.2,2.2,0,0,0,1.86-.93A4.55,4.55,0,0,0,284.73,184Z" style="fill:#003e6e"/><path d="M288.43,176.76a1,1,0,0,1,.24-.67.91.91,0,0,1,.71-.27,1,1,0,0,1,.73.27,1,1,0,0,1,.24.67,1,1,0,0,1-.24.66,1,1,0,0,1-.73.26.9.9,0,0,1-.71-.26A1,1,0,0,1,288.43,176.76Zm1.75,12h-1.62v-9.51h1.62Z" style="fill:#003e6e"/><path d="M296.6,187.64a2.29,2.29,0,0,0,1.52-.53,1.87,1.87,0,0,0,.72-1.31h1.54a3,3,0,0,1-.56,1.55,3.73,3.73,0,0,1-1.39,1.18,4,4,0,0,1-1.83.44,3.92,3.92,0,0,1-3.09-1.3,5.16,5.16,0,0,1-1.15-3.54v-.28a5.74,5.74,0,0,1,.51-2.47,3.8,3.8,0,0,1,1.47-1.67,4.11,4.11,0,0,1,2.25-.6,3.81,3.81,0,0,1,2.66,1,3.39,3.39,0,0,1,1.13,2.48h-1.54a2.24,2.24,0,0,0-.7-1.51,2.15,2.15,0,0,0-1.55-.6,2.28,2.28,0,0,0-1.92.9,4.2,4.2,0,0,0-.68,2.58v.3a4.1,4.1,0,0,0,.68,2.53A2.26,2.26,0,0,0,296.6,187.64Z" style="fill:#003e6e"/><path d="M303.32,175.13l.94.63a4.13,4.13,0,0,0-.85,2.41v1.19h-1.62v-1a4.08,4.08,0,0,1,.43-1.77A4.12,4.12,0,0,1,303.32,175.13Zm2.77,0,.93.63a4.19,4.19,0,0,0-.84,2.41v1.19h-1.62v-1a4.08,4.08,0,0,1,.43-1.77A4.12,4.12,0,0,1,306.09,175.13Z" style="fill:#003e6e"/><line x1="619.69" y1="126.19" x2="827.3" y2="126.19" style="fill:none;stroke:#003e6e;stroke-miterlimit:10;stroke-width:2px"/><polygon points="825.12 133.67 838.07 126.19 825.12 118.71 825.12 133.67" style="fill:#003e6e"/><path d="M633.8,110.18v5h-1.69V102.4h4.72a4.71,4.71,0,0,1,3.29,1.07,4.06,4.06,0,0,1,0,5.71,5,5,0,0,1-3.34,1Zm0-1.38h3a3.1,3.1,0,0,0,2.08-.63,2.36,2.36,0,0,0,.72-1.85,2.42,2.42,0,0,0-.72-1.83,2.81,2.81,0,0,0-2-.71H633.8Z" style="fill:#003e6e"/><path d="M649.08,114.25a3.43,3.43,0,0,1-2.78,1.12,3,3,0,0,1-2.32-.88,3.82,3.82,0,0,1-.8-2.62v-6.19h1.62v6.15c0,1.44.59,2.16,1.76,2.16A2.43,2.43,0,0,0,649,112.6v-6.92h1.62v9.51h-1.54Z" style="fill:#003e6e"/><path d="M661.19,110.54a5.67,5.67,0,0,1-1,3.51,3.19,3.19,0,0,1-2.69,1.32,3.3,3.3,0,0,1-2.78-1.28l-.08,1.1h-1.5v-13.5h1.63v5a3.29,3.29,0,0,1,2.72-1.22,3.21,3.21,0,0,1,2.72,1.31,5.81,5.81,0,0,1,1,3.58Zm-1.63-.18a4.4,4.4,0,0,0-.64-2.57,2.14,2.14,0,0,0-1.85-.9,2.39,2.39,0,0,0-2.31,1.49v4.11a2.45,2.45,0,0,0,2.33,1.5,2.1,2.1,0,0,0,1.82-.91A4.68,4.68,0,0,0,659.56,110.36Z" style="fill:#003e6e"/><path d="M665,115.19h-1.63v-13.5H665Z" style="fill:#003e6e"/><path d="M667.61,103.16a1,1,0,0,1,.24-.67.91.91,0,0,1,.72-.27.94.94,0,0,1,.72.27,1,1,0,0,1,.24.67,1,1,0,0,1-.24.66.94.94,0,0,1-.72.26.91.91,0,0,1-.72-.26A1,1,0,0,1,667.61,103.16Zm1.76,12h-1.63v-9.51h1.63Z" style="fill:#003e6e"/><path d="M677.51,112.67a1.19,1.19,0,0,0-.5-1,4.56,4.56,0,0,0-1.73-.63,8.69,8.69,0,0,1-2-.63,2.75,2.75,0,0,1-1.07-.88,2.06,2.06,0,0,1-.35-1.22,2.45,2.45,0,0,1,1-2,3.85,3.85,0,0,1,2.52-.81,4,4,0,0,1,2.63.83,2.66,2.66,0,0,1,1,2.14h-1.63a1.45,1.45,0,0,0-.57-1.15,2.07,2.07,0,0,0-1.43-.49,2.18,2.18,0,0,0-1.38.39,1.2,1.2,0,0,0-.5,1,1,1,0,0,0,.46.89,5.65,5.65,0,0,0,1.68.57,8.82,8.82,0,0,1,2,.65,3,3,0,0,1,1.12.91,2.26,2.26,0,0,1,.36,1.3,2.42,2.42,0,0,1-1,2,4.29,4.29,0,0,1-2.64.77,4.76,4.76,0,0,1-2-.41,3.28,3.28,0,0,1-1.38-1.12,2.76,2.76,0,0,1-.5-1.57h1.63a1.7,1.7,0,0,0,.65,1.29,2.56,2.56,0,0,0,1.62.48,2.62,2.62,0,0,0,1.48-.37A1.15,1.15,0,0,0,677.51,112.67Z" style="fill:#003e6e"/><path d="M682.88,106.83a3.45,3.45,0,0,1,2.81-1.32q3,0,3,3.4v6.28H687.1V108.9a2.14,2.14,0,0,0-.47-1.52,1.85,1.85,0,0,0-1.43-.49,2.36,2.36,0,0,0-1.39.42,2.8,2.8,0,0,0-.93,1.11v6.77h-1.63v-13.5h1.63Z" style="fill:#003e6e"/><path d="M695.23,110.36a5.58,5.58,0,0,1,1-3.52,3.53,3.53,0,0,1,5.36-.19v-5h1.63v13.5h-1.49l-.08-1a3.31,3.31,0,0,1-2.72,1.2,3.24,3.24,0,0,1-2.69-1.35,5.62,5.62,0,0,1-1-3.54Zm1.62.18a4.16,4.16,0,0,0,.67,2.53,2.16,2.16,0,0,0,1.85.92,2.35,2.35,0,0,0,2.25-1.39v-4.37a2.39,2.39,0,0,0-2.24-1.34,2.15,2.15,0,0,0-1.86.92A4.62,4.62,0,0,0,696.85,110.54Z" style="fill:#003e6e"/><path d="M711.64,115.19a3.5,3.5,0,0,1-.23-1,3.59,3.59,0,0,1-2.7,1.18,3.36,3.36,0,0,1-2.31-.8,2.57,2.57,0,0,1-.9-2,2.7,2.7,0,0,1,1.13-2.31,5.3,5.3,0,0,1,3.18-.82h1.58v-.75a1.83,1.83,0,0,0-.51-1.36,2.07,2.07,0,0,0-1.5-.5,2.33,2.33,0,0,0-1.46.44,1.26,1.26,0,0,0-.59,1.06h-1.64a2.27,2.27,0,0,1,.51-1.38,3.49,3.49,0,0,1,1.37-1,4.74,4.74,0,0,1,1.9-.38,3.75,3.75,0,0,1,2.58.82,3,3,0,0,1,1,2.26V113a5.36,5.36,0,0,0,.34,2.08v.14ZM709,114a2.92,2.92,0,0,0,1.45-.39,2.51,2.51,0,0,0,1-1v-2h-1.28c-2,0-3,.58-3,1.75a1.46,1.46,0,0,0,.51,1.19A1.93,1.93,0,0,0,709,114Z" style="fill:#003e6e"/><path d="M717.77,103.38v2.3h1.77v1.26h-1.77v5.9a1.3,1.3,0,0,0,.24.86,1,1,0,0,0,.81.29,4.11,4.11,0,0,0,.77-.11v1.31a4.66,4.66,0,0,1-1.25.18,2,2,0,0,1-1.64-.66,2.82,2.82,0,0,1-.56-1.87v-5.9h-1.73v-1.26h1.73v-2.3Z" style="fill:#003e6e"/><path d="M727.31,115.19a3.25,3.25,0,0,1-.22-1,3.62,3.62,0,0,1-2.71,1.18,3.36,3.36,0,0,1-2.31-.8,2.57,2.57,0,0,1-.9-2,2.7,2.7,0,0,1,1.13-2.31,5.3,5.3,0,0,1,3.18-.82h1.58v-.75a1.83,1.83,0,0,0-.51-1.36,2.07,2.07,0,0,0-1.5-.5,2.33,2.33,0,0,0-1.46.44,1.29,1.29,0,0,0-.59,1.06h-1.64a2.27,2.27,0,0,1,.51-1.38,3.49,3.49,0,0,1,1.37-1,4.74,4.74,0,0,1,1.9-.38,3.75,3.75,0,0,1,2.58.82,3,3,0,0,1,1,2.26V113a5.38,5.38,0,0,0,.33,2.08v.14ZM724.62,114a2.9,2.9,0,0,0,1.45-.39,2.51,2.51,0,0,0,1-1v-2h-1.28c-2,0-3,.58-3,1.75a1.46,1.46,0,0,0,.51,1.19A1.93,1.93,0,0,0,724.62,114Z" style="fill:#003e6e"/><path d="M737.9,103.38v2.3h1.77v1.26H737.9v5.9a1.36,1.36,0,0,0,.23.86,1,1,0,0,0,.81.29,4.08,4.08,0,0,0,.78-.11v1.31a4.66,4.66,0,0,1-1.25.18,2,2,0,0,1-1.65-.66,2.82,2.82,0,0,1-.55-1.87v-5.9h-1.73v-1.26h1.73v-2.3Z" style="fill:#003e6e"/><path d="M741,110.35a5.68,5.68,0,0,1,.55-2.51,4.17,4.17,0,0,1,1.53-1.73,4.22,4.22,0,0,1,2.24-.6,4,4,0,0,1,3.14,1.34,5.18,5.18,0,0,1,1.2,3.58v.11a5.77,5.77,0,0,1-.53,2.5,4,4,0,0,1-1.52,1.71,4.22,4.22,0,0,1-2.27.62,4,4,0,0,1-3.14-1.35,5.13,5.13,0,0,1-1.2-3.56Zm1.64.19a4.05,4.05,0,0,0,.73,2.54,2.49,2.49,0,0,0,3.94,0,4.49,4.49,0,0,0,.72-2.72,4.05,4.05,0,0,0-.74-2.54,2.37,2.37,0,0,0-2-1,2.33,2.33,0,0,0-1.94,1A4.36,4.36,0,0,0,742.6,110.54Z" style="fill:#003e6e"/><path d="M757.33,101.53l.93.63a4.12,4.12,0,0,0-.84,2.41v1.19H755.8v-1a3.94,3.94,0,0,1,.43-1.77A4.12,4.12,0,0,1,757.33,101.53Zm2.77,0,.93.63a4.05,4.05,0,0,0-.84,2.41v1.19h-1.62v-1A4.06,4.06,0,0,1,759,103,4.27,4.27,0,0,1,760.1,101.53Z" style="fill:#003e6e"/><path d="M764.69,103.38v2.3h1.77v1.26h-1.77v5.9a1.3,1.3,0,0,0,.23.86,1,1,0,0,0,.81.29,3.9,3.9,0,0,0,.77-.11v1.31a4.54,4.54,0,0,1-1.24.18,2,2,0,0,1-1.65-.66,2.82,2.82,0,0,1-.55-1.87v-5.9h-1.73v-1.26h1.73v-2.3Z" style="fill:#003e6e"/><path d="M767.75,110.35a5.68,5.68,0,0,1,.55-2.51,4.17,4.17,0,0,1,1.53-1.73,4.22,4.22,0,0,1,2.24-.6,4,4,0,0,1,3.14,1.34,5.18,5.18,0,0,1,1.2,3.58v.11a5.77,5.77,0,0,1-.53,2.5,4.08,4.08,0,0,1-1.52,1.71,4.22,4.22,0,0,1-2.27.62A4,4,0,0,1,769,114a5.13,5.13,0,0,1-1.2-3.56Zm1.64.19a4.05,4.05,0,0,0,.73,2.54,2.36,2.36,0,0,0,2,1,2.31,2.31,0,0,0,2-1,4.42,4.42,0,0,0,.73-2.72,4.05,4.05,0,0,0-.74-2.54,2.37,2.37,0,0,0-2-1,2.33,2.33,0,0,0-1.94,1A4.36,4.36,0,0,0,769.39,110.54Z" style="fill:#003e6e"/><path d="M786.48,110.54a5.7,5.7,0,0,1-1,3.5,3.17,3.17,0,0,1-2.69,1.33,3.49,3.49,0,0,1-2.72-1.1v4.58h-1.63V105.68h1.48l.08,1.06a3.37,3.37,0,0,1,2.76-1.23,3.26,3.26,0,0,1,2.72,1.29,5.78,5.78,0,0,1,1,3.59Zm-1.62-.18a4.18,4.18,0,0,0-.69-2.54,2.21,2.21,0,0,0-1.88-.93,2.37,2.37,0,0,0-2.21,1.31v4.54a2.38,2.38,0,0,0,2.23,1.3,2.2,2.2,0,0,0,1.86-.93A4.55,4.55,0,0,0,784.86,110.36Z" style="fill:#003e6e"/><path d="M788.56,103.16a1,1,0,0,1,.24-.67.91.91,0,0,1,.71-.27,1,1,0,0,1,.73.27,1,1,0,0,1,.24.67,1,1,0,0,1-.24.66,1,1,0,0,1-.73.26.9.9,0,0,1-.71-.26A1,1,0,0,1,788.56,103.16Zm1.75,12h-1.62v-9.51h1.62Z" style="fill:#003e6e"/><path d="M796.73,114a2.29,2.29,0,0,0,1.52-.53,1.87,1.87,0,0,0,.72-1.31h1.54a3,3,0,0,1-.56,1.55,3.73,3.73,0,0,1-1.39,1.18,4,4,0,0,1-1.83.44,3.92,3.92,0,0,1-3.09-1.3,5.16,5.16,0,0,1-1.15-3.54v-.28a5.74,5.74,0,0,1,.51-2.47,3.8,3.8,0,0,1,1.47-1.67,4.11,4.11,0,0,1,2.25-.6,3.81,3.81,0,0,1,2.66,1,3.39,3.39,0,0,1,1.13,2.48H799a2.24,2.24,0,0,0-.7-1.51,2.15,2.15,0,0,0-1.55-.6,2.27,2.27,0,0,0-1.92.9,4.2,4.2,0,0,0-.68,2.58v.3a4.1,4.1,0,0,0,.68,2.53A2.26,2.26,0,0,0,796.73,114Z" style="fill:#003e6e"/><path d="M803.45,101.53l.94.63a4.13,4.13,0,0,0-.85,2.41v1.19h-1.62v-1a4.08,4.08,0,0,1,.43-1.77A4.24,4.24,0,0,1,803.45,101.53Zm2.77,0,.93.63a4.19,4.19,0,0,0-.84,2.41v1.19h-1.62v-1a3.94,3.94,0,0,1,.43-1.77A4.12,4.12,0,0,1,806.22,101.53Z" style="fill:#003e6e"/><line x1="619.69" y1="206.19" x2="968.08" y2="206.19" style="fill:none;stroke:#003e6e;stroke-miterlimit:10;stroke-width:2px"/><polygon points="965.89 213.67 978.85 206.19 965.89 198.71 965.89 213.67" style="fill:#003e6e"/><path d="M633.8,190.18v5h-1.69V182.4h4.72a4.71,4.71,0,0,1,3.29,1.07,4.06,4.06,0,0,1,0,5.71,5,5,0,0,1-3.34,1Zm0-1.38h3a3.1,3.1,0,0,0,2.08-.63,2.35,2.35,0,0,0,.72-1.85,2.42,2.42,0,0,0-.72-1.83,2.81,2.81,0,0,0-2-.71H633.8Z" style="fill:#003e6e"/><path d="M649.08,194.25a3.43,3.43,0,0,1-2.78,1.12,3,3,0,0,1-2.32-.88,3.8,3.8,0,0,1-.8-2.62v-6.19h1.62v6.15c0,1.44.59,2.16,1.76,2.16A2.43,2.43,0,0,0,649,192.6v-6.92h1.62v9.51h-1.54Z" style="fill:#003e6e"/><path d="M661.19,190.54a5.67,5.67,0,0,1-1,3.51,3.19,3.19,0,0,1-2.69,1.32,3.3,3.3,0,0,1-2.78-1.28l-.08,1.1h-1.5v-13.5h1.63v5a3.31,3.31,0,0,1,2.72-1.22,3.21,3.21,0,0,1,2.72,1.31,5.81,5.81,0,0,1,1,3.58Zm-1.63-.18a4.4,4.4,0,0,0-.64-2.57,2.14,2.14,0,0,0-1.85-.9,2.39,2.39,0,0,0-2.31,1.49v4.12a2.46,2.46,0,0,0,2.33,1.49,2.1,2.1,0,0,0,1.82-.91A4.68,4.68,0,0,0,659.56,190.36Z" style="fill:#003e6e"/><path d="M665,195.19h-1.63v-13.5H665Z" style="fill:#003e6e"/><path d="M667.61,183.16a1,1,0,0,1,.24-.67.91.91,0,0,1,.72-.27.94.94,0,0,1,.72.27,1,1,0,0,1,.24.67,1,1,0,0,1-.24.66.94.94,0,0,1-.72.26.91.91,0,0,1-.72-.26A1,1,0,0,1,667.61,183.16Zm1.76,12h-1.63v-9.51h1.63Z" style="fill:#003e6e"/><path d="M677.51,192.67a1.19,1.19,0,0,0-.5-1,4.56,4.56,0,0,0-1.73-.63,8.69,8.69,0,0,1-2-.63,2.75,2.75,0,0,1-1.07-.88,2.06,2.06,0,0,1-.35-1.22,2.45,2.45,0,0,1,1-2,3.85,3.85,0,0,1,2.52-.81,4,4,0,0,1,2.63.83,2.66,2.66,0,0,1,1,2.14h-1.63a1.45,1.45,0,0,0-.57-1.15,2.07,2.07,0,0,0-1.43-.49,2.18,2.18,0,0,0-1.38.39,1.21,1.21,0,0,0-.5,1,1,1,0,0,0,.46.89,5.65,5.65,0,0,0,1.68.57,8.82,8.82,0,0,1,2,.65,3,3,0,0,1,1.12.91,2.26,2.26,0,0,1,.36,1.3,2.42,2.42,0,0,1-1,2,4.29,4.29,0,0,1-2.64.77,4.76,4.76,0,0,1-2-.41,3.21,3.21,0,0,1-1.38-1.12,2.76,2.76,0,0,1-.5-1.57h1.63a1.7,1.7,0,0,0,.65,1.29,2.56,2.56,0,0,0,1.62.48,2.62,2.62,0,0,0,1.48-.37A1.15,1.15,0,0,0,677.51,192.67Z" style="fill:#003e6e"/><path d="M682.88,186.84a3.43,3.43,0,0,1,2.81-1.33q3,0,3,3.4v6.28H687.1V188.9a2.14,2.14,0,0,0-.47-1.52,1.85,1.85,0,0,0-1.43-.49,2.36,2.36,0,0,0-1.39.42,2.8,2.8,0,0,0-.93,1.11v6.77h-1.63v-13.5h1.63Z" style="fill:#003e6e"/><path d="M695.23,190.36a5.58,5.58,0,0,1,1-3.52,3.53,3.53,0,0,1,5.36-.19v-5h1.63v13.5h-1.49l-.08-1a3.31,3.31,0,0,1-2.72,1.2,3.24,3.24,0,0,1-2.69-1.35,5.62,5.62,0,0,1-1-3.54Zm1.62.18a4.21,4.21,0,0,0,.67,2.54,2.17,2.17,0,0,0,1.85.91,2.35,2.35,0,0,0,2.25-1.39v-4.37a2.39,2.39,0,0,0-2.24-1.34,2.18,2.18,0,0,0-1.86.92A4.62,4.62,0,0,0,696.85,190.54Z" style="fill:#003e6e"/><path d="M711.64,195.19a3.5,3.5,0,0,1-.23-1,3.59,3.59,0,0,1-2.7,1.18,3.36,3.36,0,0,1-2.31-.8,2.57,2.57,0,0,1-.9-2,2.7,2.7,0,0,1,1.13-2.31,5.3,5.3,0,0,1,3.18-.82h1.58v-.75a1.83,1.83,0,0,0-.51-1.36,2.07,2.07,0,0,0-1.5-.5,2.33,2.33,0,0,0-1.46.44,1.26,1.26,0,0,0-.59,1.06h-1.64a2.27,2.27,0,0,1,.51-1.38,3.49,3.49,0,0,1,1.37-1.05,4.74,4.74,0,0,1,1.9-.38,3.75,3.75,0,0,1,2.58.82,3,3,0,0,1,1,2.26V193a5.36,5.36,0,0,0,.34,2.08v.14ZM709,194a2.92,2.92,0,0,0,1.45-.39,2.45,2.45,0,0,0,1-1v-1.95h-1.28c-2,0-3,.58-3,1.75a1.46,1.46,0,0,0,.51,1.19A1.93,1.93,0,0,0,709,194Z" style="fill:#003e6e"/><path d="M717.77,183.38v2.3h1.77v1.26h-1.77v5.9a1.3,1.3,0,0,0,.24.86,1,1,0,0,0,.81.29,4.11,4.11,0,0,0,.77-.11v1.31a4.66,4.66,0,0,1-1.25.18,2,2,0,0,1-1.64-.66,2.82,2.82,0,0,1-.56-1.87v-5.9h-1.73v-1.26h1.73v-2.3Z" style="fill:#003e6e"/><path d="M727.31,195.19a3.25,3.25,0,0,1-.22-1,3.62,3.62,0,0,1-2.71,1.18,3.36,3.36,0,0,1-2.31-.8,2.57,2.57,0,0,1-.9-2,2.7,2.7,0,0,1,1.13-2.31,5.3,5.3,0,0,1,3.18-.82h1.58v-.75a1.83,1.83,0,0,0-.51-1.36,2.07,2.07,0,0,0-1.5-.5,2.33,2.33,0,0,0-1.46.44,1.29,1.29,0,0,0-.59,1.06h-1.64a2.27,2.27,0,0,1,.51-1.38,3.49,3.49,0,0,1,1.37-1.05,4.74,4.74,0,0,1,1.9-.38,3.75,3.75,0,0,1,2.58.82,3,3,0,0,1,1,2.26V193a5.38,5.38,0,0,0,.33,2.08v.14ZM724.62,194a2.9,2.9,0,0,0,1.45-.39,2.45,2.45,0,0,0,1-1v-1.95h-1.28c-2,0-3,.58-3,1.75a1.46,1.46,0,0,0,.51,1.19A1.93,1.93,0,0,0,724.62,194Z" style="fill:#003e6e"/><path d="M737.9,183.38v2.3h1.77v1.26H737.9v5.9a1.36,1.36,0,0,0,.23.86,1,1,0,0,0,.81.29,4.08,4.08,0,0,0,.78-.11v1.31a4.66,4.66,0,0,1-1.25.18,2,2,0,0,1-1.65-.66,2.82,2.82,0,0,1-.55-1.87v-5.9h-1.73v-1.26h1.73v-2.3Z" style="fill:#003e6e"/><path d="M741,190.35a5.68,5.68,0,0,1,.55-2.51,4.17,4.17,0,0,1,1.53-1.73,4.22,4.22,0,0,1,2.24-.6,4,4,0,0,1,3.14,1.34,5.18,5.18,0,0,1,1.2,3.58v.11a5.77,5.77,0,0,1-.53,2.5,4,4,0,0,1-1.52,1.71,4.22,4.22,0,0,1-2.27.62,4,4,0,0,1-3.14-1.35,5.13,5.13,0,0,1-1.2-3.56Zm1.64.19a4,4,0,0,0,.73,2.54,2.49,2.49,0,0,0,3.94,0,4.49,4.49,0,0,0,.72-2.72,4.05,4.05,0,0,0-.74-2.54,2.37,2.37,0,0,0-2-1,2.33,2.33,0,0,0-1.94,1A4.36,4.36,0,0,0,742.6,190.54Z" style="fill:#003e6e"/><path d="M757.33,181.53l.93.63a4.12,4.12,0,0,0-.84,2.41v1.19H755.8v-1a3.94,3.94,0,0,1,.43-1.77A4.12,4.12,0,0,1,757.33,181.53Zm2.77,0,.93.63a4.05,4.05,0,0,0-.84,2.41v1.19h-1.62v-1A4.06,4.06,0,0,1,759,183,4.27,4.27,0,0,1,760.1,181.53Z" style="fill:#003e6e"/><path d="M764.69,183.38v2.3h1.77v1.26h-1.77v5.9a1.3,1.3,0,0,0,.23.86,1,1,0,0,0,.81.29,3.9,3.9,0,0,0,.77-.11v1.31a4.54,4.54,0,0,1-1.24.18,2,2,0,0,1-1.65-.66,2.82,2.82,0,0,1-.55-1.87v-5.9h-1.73v-1.26h1.73v-2.3Z" style="fill:#003e6e"/><path d="M767.75,190.35a5.68,5.68,0,0,1,.55-2.51,4.17,4.17,0,0,1,1.53-1.73,4.22,4.22,0,0,1,2.24-.6,4,4,0,0,1,3.14,1.34,5.18,5.18,0,0,1,1.2,3.58v.11a5.77,5.77,0,0,1-.53,2.5,4.08,4.08,0,0,1-1.52,1.71,4.22,4.22,0,0,1-2.27.62A4,4,0,0,1,769,194a5.13,5.13,0,0,1-1.2-3.56Zm1.64.19a4,4,0,0,0,.73,2.54,2.36,2.36,0,0,0,2,1,2.31,2.31,0,0,0,2-1,4.42,4.42,0,0,0,.73-2.72,4.05,4.05,0,0,0-.74-2.54,2.37,2.37,0,0,0-2-1,2.33,2.33,0,0,0-1.94,1A4.36,4.36,0,0,0,769.39,190.54Z" style="fill:#003e6e"/><path d="M786.48,190.54a5.7,5.7,0,0,1-1,3.5,3.17,3.17,0,0,1-2.69,1.33,3.49,3.49,0,0,1-2.72-1.1v4.58h-1.63V185.68h1.48l.08,1.06a3.37,3.37,0,0,1,2.76-1.23,3.26,3.26,0,0,1,2.72,1.29,5.78,5.78,0,0,1,1,3.59Zm-1.62-.18a4.18,4.18,0,0,0-.69-2.54,2.21,2.21,0,0,0-1.88-.93,2.37,2.37,0,0,0-2.21,1.31v4.54a2.38,2.38,0,0,0,2.23,1.3,2.2,2.2,0,0,0,1.86-.93A4.55,4.55,0,0,0,784.86,190.36Z" style="fill:#003e6e"/><path d="M788.56,183.16a1,1,0,0,1,.24-.67.91.91,0,0,1,.71-.27,1,1,0,0,1,.73.27,1,1,0,0,1,.24.67,1,1,0,0,1-.24.66,1,1,0,0,1-.73.26.9.9,0,0,1-.71-.26A1,1,0,0,1,788.56,183.16Zm1.75,12h-1.62v-9.51h1.62Z" style="fill:#003e6e"/><path d="M796.73,194a2.29,2.29,0,0,0,1.52-.53,1.87,1.87,0,0,0,.72-1.31h1.54a3,3,0,0,1-.56,1.55,3.73,3.73,0,0,1-1.39,1.18,4,4,0,0,1-1.83.44,3.92,3.92,0,0,1-3.09-1.3,5.16,5.16,0,0,1-1.15-3.54v-.28a5.74,5.74,0,0,1,.51-2.47,3.8,3.8,0,0,1,1.47-1.67,4.11,4.11,0,0,1,2.25-.6,3.81,3.81,0,0,1,2.66,1,3.39,3.39,0,0,1,1.13,2.48H799a2.24,2.24,0,0,0-.7-1.51,2.15,2.15,0,0,0-1.55-.6,2.27,2.27,0,0,0-1.92.9,4.2,4.2,0,0,0-.68,2.58v.3a4.1,4.1,0,0,0,.68,2.53A2.26,2.26,0,0,0,796.73,194Z" style="fill:#003e6e"/><path d="M803.45,181.53l.94.63a4.13,4.13,0,0,0-.85,2.41v1.19h-1.62v-1a4.08,4.08,0,0,1,.43-1.77A4.24,4.24,0,0,1,803.45,181.53Zm2.77,0,.93.63a4.19,4.19,0,0,0-.84,2.41v1.19h-1.62v-1a3.94,3.94,0,0,1,.43-1.77A4.12,4.12,0,0,1,806.22,181.53Z" style="fill:#003e6e"/><line x1="619.69" y1="286.19" x2="827.3" y2="286.19" style="fill:none;stroke:#003e6e;stroke-miterlimit:10;stroke-width:2px"/><polygon points="825.12 293.67 838.07 286.19 825.12 278.71 825.12 293.67" style="fill:#003e6e"/><path d="M633.8,270.18v5h-1.69V262.4h4.72a4.71,4.71,0,0,1,3.29,1.07,4.06,4.06,0,0,1,0,5.71,5,5,0,0,1-3.34,1Zm0-1.38h3a3.1,3.1,0,0,0,2.08-.63,2.35,2.35,0,0,0,.72-1.85,2.42,2.42,0,0,0-.72-1.83,2.81,2.81,0,0,0-2-.71H633.8Z" style="fill:#003e6e"/><path d="M649.08,274.25a3.43,3.43,0,0,1-2.78,1.12,3,3,0,0,1-2.32-.88,3.8,3.8,0,0,1-.8-2.62v-6.19h1.62v6.15c0,1.44.59,2.16,1.76,2.16A2.43,2.43,0,0,0,649,272.6v-6.92h1.62v9.51h-1.54Z" style="fill:#003e6e"/><path d="M661.19,270.54a5.67,5.67,0,0,1-1,3.51,3.19,3.19,0,0,1-2.69,1.32,3.3,3.3,0,0,1-2.78-1.28l-.08,1.1h-1.5v-13.5h1.63v5a3.31,3.31,0,0,1,2.72-1.22,3.21,3.21,0,0,1,2.72,1.31,5.81,5.81,0,0,1,1,3.58Zm-1.63-.18a4.4,4.4,0,0,0-.64-2.57,2.14,2.14,0,0,0-1.85-.9,2.39,2.39,0,0,0-2.31,1.49v4.12a2.46,2.46,0,0,0,2.33,1.49,2.1,2.1,0,0,0,1.82-.91A4.68,4.68,0,0,0,659.56,270.36Z" style="fill:#003e6e"/><path d="M665,275.19h-1.63v-13.5H665Z" style="fill:#003e6e"/><path d="M667.61,263.16a1,1,0,0,1,.24-.67.91.91,0,0,1,.72-.27.94.94,0,0,1,.72.27,1,1,0,0,1,.24.67,1,1,0,0,1-.24.66.94.94,0,0,1-.72.26.91.91,0,0,1-.72-.26A1,1,0,0,1,667.61,263.16Zm1.76,12h-1.63v-9.51h1.63Z" style="fill:#003e6e"/><path d="M677.51,272.67a1.19,1.19,0,0,0-.5-1,4.56,4.56,0,0,0-1.73-.63,8.69,8.69,0,0,1-2-.63,2.75,2.75,0,0,1-1.07-.88,2.06,2.06,0,0,1-.35-1.22,2.45,2.45,0,0,1,1-2,3.85,3.85,0,0,1,2.52-.81,4,4,0,0,1,2.63.83,2.66,2.66,0,0,1,1,2.14h-1.63a1.45,1.45,0,0,0-.57-1.15,2.07,2.07,0,0,0-1.43-.49,2.18,2.18,0,0,0-1.38.39,1.21,1.21,0,0,0-.5,1,1,1,0,0,0,.46.89,5.65,5.65,0,0,0,1.68.57,8.82,8.82,0,0,1,2,.65,3,3,0,0,1,1.12.91,2.26,2.26,0,0,1,.36,1.3,2.42,2.42,0,0,1-1,2,4.29,4.29,0,0,1-2.64.77,4.76,4.76,0,0,1-2-.41,3.21,3.21,0,0,1-1.38-1.12,2.76,2.76,0,0,1-.5-1.57h1.63a1.7,1.7,0,0,0,.65,1.29,2.56,2.56,0,0,0,1.62.48,2.62,2.62,0,0,0,1.48-.37A1.15,1.15,0,0,0,677.51,272.67Z" style="fill:#003e6e"/><path d="M682.88,266.84a3.43,3.43,0,0,1,2.81-1.33q3,0,3,3.4v6.28H687.1V268.9a2.14,2.14,0,0,0-.47-1.52,1.85,1.85,0,0,0-1.43-.49,2.36,2.36,0,0,0-1.39.42,2.8,2.8,0,0,0-.93,1.11v6.77h-1.63v-13.5h1.63Z" style="fill:#003e6e"/><path d="M695.23,270.36a5.58,5.58,0,0,1,1-3.52,3.53,3.53,0,0,1,5.36-.19v-5h1.63v13.5h-1.49l-.08-1a3.31,3.31,0,0,1-2.72,1.2,3.24,3.24,0,0,1-2.69-1.35,5.62,5.62,0,0,1-1-3.54Zm1.62.18a4.21,4.21,0,0,0,.67,2.54,2.17,2.17,0,0,0,1.85.91,2.35,2.35,0,0,0,2.25-1.39v-4.37a2.39,2.39,0,0,0-2.24-1.34,2.18,2.18,0,0,0-1.86.92A4.62,4.62,0,0,0,696.85,270.54Z" style="fill:#003e6e"/><path d="M711.64,275.19a3.5,3.5,0,0,1-.23-1,3.59,3.59,0,0,1-2.7,1.18,3.36,3.36,0,0,1-2.31-.8,2.57,2.57,0,0,1-.9-2,2.7,2.7,0,0,1,1.13-2.31,5.3,5.3,0,0,1,3.18-.82h1.58v-.75a1.83,1.83,0,0,0-.51-1.36,2.07,2.07,0,0,0-1.5-.5,2.33,2.33,0,0,0-1.46.44,1.26,1.26,0,0,0-.59,1.06h-1.64a2.27,2.27,0,0,1,.51-1.38,3.49,3.49,0,0,1,1.37-1.05,4.74,4.74,0,0,1,1.9-.38,3.75,3.75,0,0,1,2.58.82,3,3,0,0,1,1,2.26V273a5.36,5.36,0,0,0,.34,2.08v.14ZM709,274a2.92,2.92,0,0,0,1.45-.39,2.45,2.45,0,0,0,1-1v-1.95h-1.28c-2,0-3,.58-3,1.75a1.46,1.46,0,0,0,.51,1.19A1.93,1.93,0,0,0,709,274Z" style="fill:#003e6e"/><path d="M717.77,263.38v2.3h1.77v1.26h-1.77v5.9a1.3,1.3,0,0,0,.24.86,1,1,0,0,0,.81.29,4.11,4.11,0,0,0,.77-.11v1.31a4.66,4.66,0,0,1-1.25.18,2,2,0,0,1-1.64-.66,2.82,2.82,0,0,1-.56-1.87v-5.9h-1.73v-1.26h1.73v-2.3Z" style="fill:#003e6e"/><path d="M727.31,275.19a3.25,3.25,0,0,1-.22-1,3.62,3.62,0,0,1-2.71,1.18,3.36,3.36,0,0,1-2.31-.8,2.57,2.57,0,0,1-.9-2,2.7,2.7,0,0,1,1.13-2.31,5.3,5.3,0,0,1,3.18-.82h1.58v-.75a1.83,1.83,0,0,0-.51-1.36,2.07,2.07,0,0,0-1.5-.5,2.33,2.33,0,0,0-1.46.44,1.29,1.29,0,0,0-.59,1.06h-1.64a2.27,2.27,0,0,1,.51-1.38,3.49,3.49,0,0,1,1.37-1.05,4.74,4.74,0,0,1,1.9-.38,3.75,3.75,0,0,1,2.58.82,3,3,0,0,1,1,2.26V273a5.38,5.38,0,0,0,.33,2.08v.14ZM724.62,274a2.9,2.9,0,0,0,1.45-.39,2.45,2.45,0,0,0,1-1v-1.95h-1.28c-2,0-3,.58-3,1.75a1.46,1.46,0,0,0,.51,1.19A1.93,1.93,0,0,0,724.62,274Z" style="fill:#003e6e"/><path d="M737.9,263.38v2.3h1.77v1.26H737.9v5.9a1.36,1.36,0,0,0,.23.86,1,1,0,0,0,.81.29,4.08,4.08,0,0,0,.78-.11v1.31a4.66,4.66,0,0,1-1.25.18,2,2,0,0,1-1.65-.66,2.82,2.82,0,0,1-.55-1.87v-5.9h-1.73v-1.26h1.73v-2.3Z" style="fill:#003e6e"/><path d="M741,270.35a5.68,5.68,0,0,1,.55-2.51,4.17,4.17,0,0,1,1.53-1.73,4.22,4.22,0,0,1,2.24-.6,4,4,0,0,1,3.14,1.34,5.18,5.18,0,0,1,1.2,3.58v.11a5.77,5.77,0,0,1-.53,2.5,4,4,0,0,1-1.52,1.71,4.22,4.22,0,0,1-2.27.62,4,4,0,0,1-3.14-1.35,5.13,5.13,0,0,1-1.2-3.56Zm1.64.19a4,4,0,0,0,.73,2.54,2.49,2.49,0,0,0,3.94,0,4.49,4.49,0,0,0,.72-2.72,4.05,4.05,0,0,0-.74-2.54,2.37,2.37,0,0,0-2-1,2.33,2.33,0,0,0-1.94,1A4.36,4.36,0,0,0,742.6,270.54Z" style="fill:#003e6e"/><path d="M757.33,261.53l.93.63a4.12,4.12,0,0,0-.84,2.41v1.19H755.8v-1a3.94,3.94,0,0,1,.43-1.77A4.12,4.12,0,0,1,757.33,261.53Zm2.77,0,.93.63a4.05,4.05,0,0,0-.84,2.41v1.19h-1.62v-1A4.06,4.06,0,0,1,759,263,4.27,4.27,0,0,1,760.1,261.53Z" style="fill:#003e6e"/><path d="M764.69,263.38v2.3h1.77v1.26h-1.77v5.9a1.3,1.3,0,0,0,.23.86,1,1,0,0,0,.81.29,3.9,3.9,0,0,0,.77-.11v1.31a4.54,4.54,0,0,1-1.24.18,2,2,0,0,1-1.65-.66,2.82,2.82,0,0,1-.55-1.87v-5.9h-1.73v-1.26h1.73v-2.3Z" style="fill:#003e6e"/><path d="M767.75,270.35a5.68,5.68,0,0,1,.55-2.51,4.17,4.17,0,0,1,1.53-1.73,4.22,4.22,0,0,1,2.24-.6,4,4,0,0,1,3.14,1.34,5.18,5.18,0,0,1,1.2,3.58v.11a5.77,5.77,0,0,1-.53,2.5,4.08,4.08,0,0,1-1.52,1.71,4.22,4.22,0,0,1-2.27.62A4,4,0,0,1,769,274a5.13,5.13,0,0,1-1.2-3.56Zm1.64.19a4,4,0,0,0,.73,2.54,2.36,2.36,0,0,0,2,1,2.31,2.31,0,0,0,2-1,4.42,4.42,0,0,0,.73-2.72,4.05,4.05,0,0,0-.74-2.54,2.37,2.37,0,0,0-2-1,2.33,2.33,0,0,0-1.94,1A4.36,4.36,0,0,0,769.39,270.54Z" style="fill:#003e6e"/><path d="M786.48,270.54a5.7,5.7,0,0,1-1,3.5,3.17,3.17,0,0,1-2.69,1.33,3.49,3.49,0,0,1-2.72-1.1v4.58h-1.63V265.68h1.48l.08,1.06a3.37,3.37,0,0,1,2.76-1.23,3.26,3.26,0,0,1,2.72,1.29,5.78,5.78,0,0,1,1,3.59Zm-1.62-.18a4.18,4.18,0,0,0-.69-2.54,2.21,2.21,0,0,0-1.88-.93,2.37,2.37,0,0,0-2.21,1.31v4.54a2.38,2.38,0,0,0,2.23,1.3,2.2,2.2,0,0,0,1.86-.93A4.55,4.55,0,0,0,784.86,270.36Z" style="fill:#003e6e"/><path d="M788.56,263.16a1,1,0,0,1,.24-.67.91.91,0,0,1,.71-.27,1,1,0,0,1,.73.27,1,1,0,0,1,.24.67,1,1,0,0,1-.24.66,1,1,0,0,1-.73.26.9.9,0,0,1-.71-.26A1,1,0,0,1,788.56,263.16Zm1.75,12h-1.62v-9.51h1.62Z" style="fill:#003e6e"/><path d="M796.73,274a2.29,2.29,0,0,0,1.52-.53,1.87,1.87,0,0,0,.72-1.31h1.54a3,3,0,0,1-.56,1.55,3.73,3.73,0,0,1-1.39,1.18,4,4,0,0,1-1.83.44,3.92,3.92,0,0,1-3.09-1.3,5.16,5.16,0,0,1-1.15-3.54v-.28a5.74,5.74,0,0,1,.51-2.47,3.8,3.8,0,0,1,1.47-1.67,4.11,4.11,0,0,1,2.25-.6,3.81,3.81,0,0,1,2.66,1,3.39,3.39,0,0,1,1.13,2.48H799a2.24,2.24,0,0,0-.7-1.51,2.15,2.15,0,0,0-1.55-.6,2.27,2.27,0,0,0-1.92.9,4.2,4.2,0,0,0-.68,2.58v.3a4.1,4.1,0,0,0,.68,2.53A2.26,2.26,0,0,0,796.73,274Z" style="fill:#003e6e"/><path d="M803.45,261.53l.94.63a4.13,4.13,0,0,0-.85,2.41v1.19h-1.62v-1a4.08,4.08,0,0,1,.43-1.77A4.24,4.24,0,0,1,803.45,261.53Zm2.77,0,.93.63a4.19,4.19,0,0,0-.84,2.41v1.19h-1.62v-1a3.94,3.94,0,0,1,.43-1.77A4.12,4.12,0,0,1,806.22,261.53Z" style="fill:#003e6e"/><path d="M887.28,87.19h-1.7V81.28h-6.45v5.91h-1.68V74.4h1.68v5.5h6.45V74.4h1.7Z"/><path d="M890,75.16a1,1,0,0,1,.24-.67.93.93,0,0,1,.72-.27.91.91,0,0,1,.72.27,1,1,0,0,1,.25.67,1,1,0,0,1-.25.66.91.91,0,0,1-.72.26.92.92,0,0,1-.72-.26A1,1,0,0,1,890,75.16Zm1.76,12h-1.63V77.68h1.63Z"/><path d="M899.93,84.67a1.19,1.19,0,0,0-.5-1A4.56,4.56,0,0,0,897.7,83a8.69,8.69,0,0,1-2-.63,2.83,2.83,0,0,1-1.07-.88,2.14,2.14,0,0,1-.35-1.22,2.45,2.45,0,0,1,1-2,3.86,3.86,0,0,1,2.53-.81,4,4,0,0,1,2.62.83,2.67,2.67,0,0,1,1,2.14h-1.64a1.47,1.47,0,0,0-.56-1.15,2.11,2.11,0,0,0-1.43-.49,2.19,2.19,0,0,0-1.39.39,1.2,1.2,0,0,0-.5,1,1,1,0,0,0,.46.89,5.63,5.63,0,0,0,1.69.57,8.71,8.71,0,0,1,2,.65,2.9,2.9,0,0,1,1.12.91,2.26,2.26,0,0,1,.36,1.3,2.42,2.42,0,0,1-1,2,4.27,4.27,0,0,1-2.64.77,4.76,4.76,0,0,1-2-.41,3.28,3.28,0,0,1-1.38-1.12,2.75,2.75,0,0,1-.49-1.57h1.62a1.68,1.68,0,0,0,.66,1.29,2.51,2.51,0,0,0,1.61.48,2.62,2.62,0,0,0,1.48-.37A1.15,1.15,0,0,0,899.93,84.67Z"/><path d="M905.88,75.38v2.3h1.77v1.26h-1.77v5.9a1.3,1.3,0,0,0,.24.86,1,1,0,0,0,.8.29,4.08,4.08,0,0,0,.78-.11v1.31a4.66,4.66,0,0,1-1.25.18,2,2,0,0,1-1.64-.66,2.82,2.82,0,0,1-.56-1.87v-5.9h-1.73V77.68h1.73v-2.3Z"/><path d="M909,82.35a5.54,5.54,0,0,1,.55-2.51A4,4,0,0,1,911,78.11a4.16,4.16,0,0,1,2.23-.6,4,4,0,0,1,3.14,1.34,5.18,5.18,0,0,1,1.2,3.58v.11a5.63,5.63,0,0,1-.53,2.5,4,4,0,0,1-1.52,1.71,4.22,4.22,0,0,1-2.27.62A4,4,0,0,1,910.15,86a5.13,5.13,0,0,1-1.2-3.56Zm1.63.19a4.06,4.06,0,0,0,.74,2.54,2.48,2.48,0,0,0,3.93,0,4.49,4.49,0,0,0,.73-2.72,4.12,4.12,0,0,0-.74-2.54,2.4,2.4,0,0,0-2-1,2.33,2.33,0,0,0-1.94,1A4.42,4.42,0,0,0,910.58,82.54Z"/><path d="M924.24,79.14a5,5,0,0,0-.8-.06,2.13,2.13,0,0,0-2.17,1.36v6.75h-1.63V77.68h1.58l0,1.1a2.53,2.53,0,0,1,2.27-1.27,1.7,1.7,0,0,1,.72.12Z"/><path d="M925.74,75.16a1,1,0,0,1,.24-.67.93.93,0,0,1,.72-.27.91.91,0,0,1,.72.27,1,1,0,0,1,.25.67,1,1,0,0,1-.25.66.91.91,0,0,1-.72.26.92.92,0,0,1-.72-.26A1,1,0,0,1,925.74,75.16Zm1.76,12h-1.63V77.68h1.63Z"/><path d="M936,87.19a3.5,3.5,0,0,1-.23-1,3.59,3.59,0,0,1-2.7,1.18,3.36,3.36,0,0,1-2.31-.8,2.57,2.57,0,0,1-.9-2A2.7,2.7,0,0,1,931,82.25a5.3,5.3,0,0,1,3.18-.82h1.58v-.75a1.83,1.83,0,0,0-.51-1.36,2.08,2.08,0,0,0-1.51-.5,2.3,2.3,0,0,0-1.45.44,1.26,1.26,0,0,0-.59,1.06H930a2.27,2.27,0,0,1,.51-1.38,3.49,3.49,0,0,1,1.37-1,4.74,4.74,0,0,1,1.9-.38,3.75,3.75,0,0,1,2.58.82,3,3,0,0,1,1,2.26V85a5.18,5.18,0,0,0,.34,2.08v.14ZM933.27,86a2.87,2.87,0,0,0,1.45-.39,2.47,2.47,0,0,0,1-1v-2h-1.28c-2,0-3,.58-3,1.75a1.46,1.46,0,0,0,.51,1.19A2,2,0,0,0,933.27,86Z"/><path d="M941.43,77.68l.05,1.2a3.46,3.46,0,0,1,2.85-1.37q3,0,3,3.4v6.28h-1.62V80.9a2.24,2.24,0,0,0-.47-1.52,1.89,1.89,0,0,0-1.44-.49,2.36,2.36,0,0,0-1.39.42,2.8,2.8,0,0,0-.93,1.11v6.77h-1.63V77.68Z"/><path d="M37.37,26.8H30.62v4.57h7.92v2.82H27.11V17.13H38.52V20h-7.9V24h6.75Z" style="fill:#fff"/><path d="M39.63,27.76A7.67,7.67,0,0,1,41,23a4.3,4.3,0,0,1,3.64-1.76,3.88,3.88,0,0,1,3.06,1.38V16.19h3.4v18H48l-.16-1.34a4,4,0,0,1-3.26,1.58A4.3,4.3,0,0,1,41,32.66,7.82,7.82,0,0,1,39.63,27.76ZM43,28a5.08,5.08,0,0,0,.62,2.74,2,2,0,0,0,1.81.95,2.28,2.28,0,0,0,2.21-1.33v-5A2.24,2.24,0,0,0,45.47,24Q43,24,43,28Z" style="fill:#fff"/><path d="M53.19,27.76a7.4,7.4,0,0,1,1.39-4.7,4.49,4.49,0,0,1,3.74-1.78,4,4,0,0,1,3.25,1.43l.14-1.2h3.07V33.77a5.47,5.47,0,0,1-.75,2.9,4.91,4.91,0,0,1-2.13,1.87,7.51,7.51,0,0,1-3.21.65A7,7,0,0,1,56,38.63a4.87,4.87,0,0,1-2-1.44l1.5-2.06a4,4,0,0,0,3.07,1.42,2.91,2.91,0,0,0,2.1-.72,2.7,2.7,0,0,0,.75-2V33.1a3.9,3.9,0,0,1-3.08,1.33,4.5,4.5,0,0,1-3.7-1.79,7.43,7.43,0,0,1-1.41-4.74Zm3.39.25a4.67,4.67,0,0,0,.69,2.71,2.2,2.2,0,0,0,1.9,1,2.34,2.34,0,0,0,2.21-1.17V25.19A2.35,2.35,0,0,0,59.19,24a2.21,2.21,0,0,0-1.91,1A5.18,5.18,0,0,0,56.58,28Z" style="fill:#fff"/><path d="M73.22,34.43a6.23,6.23,0,0,1-4.54-1.71,6.07,6.07,0,0,1-1.75-4.56v-.33a7.73,7.73,0,0,1,.73-3.42,5.5,5.5,0,0,1,2.1-2.32,5.88,5.88,0,0,1,3.08-.81,5.28,5.28,0,0,1,4.1,1.64,6.63,6.63,0,0,1,1.49,4.65V29H70.36a3.17,3.17,0,0,0,1,2,3,3,0,0,0,2.09.75,3.66,3.66,0,0,0,3.06-1.42l1.66,1.86a5,5,0,0,1-2.06,1.68A6.67,6.67,0,0,1,73.22,34.43ZM72.83,24a2.13,2.13,0,0,0-1.63.68,3.57,3.57,0,0,0-.81,2h4.72v-.27a2.54,2.54,0,0,0-.61-1.75A2.2,2.2,0,0,0,72.83,24Z" style="fill:#fff"/><path d="M85.8,27.74a7.62,7.62,0,0,1,.73-3.37,5.37,5.37,0,0,1,2.09-2.28,6.1,6.1,0,0,1,3.17-.81A5.76,5.76,0,0,1,96,22.85a6.29,6.29,0,0,1,1.81,4.26l0,.87a6.63,6.63,0,0,1-1.63,4.68,6.3,6.3,0,0,1-8.75,0,6.75,6.75,0,0,1-1.64-4.78Zm3.39.24a4.77,4.77,0,0,0,.68,2.76,2.44,2.44,0,0,0,3.87,0,5.2,5.2,0,0,0,.69-3A4.72,4.72,0,0,0,93.74,25a2.25,2.25,0,0,0-1.95-1,2.19,2.19,0,0,0-1.92,1A5.28,5.28,0,0,0,89.19,28Z" style="fill:#fff"/><path d="M100.83,34.19V24H98.94V21.51h1.89V20.44a4.42,4.42,0,0,1,1.22-3.32A4.77,4.77,0,0,1,105.48,16a7.63,7.63,0,0,1,1.72.23l0,2.63a4.33,4.33,0,0,0-1-.11c-1.28,0-1.91.6-1.91,1.79v1h2.52V24h-2.52V34.19Z" style="fill:#fff"/><path d="M128.58,34.19h-3.52L118.22,23V34.19H114.7V17.13h3.52l6.85,11.25V17.13h3.51Z" style="fill:#fff"/><path d="M137.26,34.43a6.23,6.23,0,0,1-4.54-1.71A6.07,6.07,0,0,1,131,28.16v-.33a7.6,7.6,0,0,1,.74-3.42,5.48,5.48,0,0,1,2.09-2.32,5.89,5.89,0,0,1,3.09-.81A5.26,5.26,0,0,1,141,22.92a6.63,6.63,0,0,1,1.5,4.65V29H134.4a3.17,3.17,0,0,0,1,2,3,3,0,0,0,2.09.75,3.66,3.66,0,0,0,3.06-1.42l1.67,1.86a5.07,5.07,0,0,1-2.07,1.68A6.61,6.61,0,0,1,137.26,34.43ZM136.87,24a2.13,2.13,0,0,0-1.63.68,3.5,3.5,0,0,0-.8,2h4.71v-.27a2.54,2.54,0,0,0-.61-1.75A2.2,2.2,0,0,0,136.87,24Z" style="fill:#fff"/><path d="M148.45,18.4v3.11h2.17V24h-2.17v6.33a1.5,1.5,0,0,0,.27,1,1.33,1.33,0,0,0,1,.31,5.87,5.87,0,0,0,1-.08v2.56a6.75,6.75,0,0,1-2.05.31q-3.57,0-3.63-3.6V24h-1.86V21.51h1.86V18.4Z" style="fill:#fff"/><path d="M163.53,29.59l1.67-8.08h3.27l-3.24,12.68H162.4l-2.4-8-2.41,8h-2.82l-3.24-12.68h3.27l1.66,8.07,2.32-8.07h2.45Z" style="fill:#fff"/><path d="M169.62,27.74a7.62,7.62,0,0,1,.72-3.37,5.39,5.39,0,0,1,2.1-2.28,6.08,6.08,0,0,1,3.17-.81,5.74,5.74,0,0,1,4.18,1.57,6.3,6.3,0,0,1,1.82,4.26l0,.87A6.59,6.59,0,0,1,180,32.66a6.3,6.3,0,0,1-8.75,0,6.74,6.74,0,0,1-1.63-4.78ZM173,28a4.77,4.77,0,0,0,.68,2.76,2.44,2.44,0,0,0,3.87,0,5.2,5.2,0,0,0,.69-3,4.72,4.72,0,0,0-.69-2.75,2.42,2.42,0,0,0-3.87,0A5.28,5.28,0,0,0,173,28Z" style="fill:#fff"/><path d="M190.84,24.69a9.6,9.6,0,0,0-1.22-.09,2.48,2.48,0,0,0-2.52,1.3v8.29h-3.39V21.51h3.2L187,23a3.14,3.14,0,0,1,2.82-1.74,3.62,3.62,0,0,1,1.06.15Z" style="fill:#fff"/><path d="M197.07,29.11l-1.21,1.22v3.86h-3.39v-18h3.39v10l.65-.85,3.25-3.81h4.06l-4.58,5.29,5,7.39h-3.89Z" style="fill:#fff"/><path d="M858.52,17.13l4.38,12.38,4.36-12.38h4.62V34.19h-3.53V29.53l.35-8-4.61,12.71h-2.41l-4.59-12.7.35,8v4.66h-3.52V17.13Z" style="fill:#fff"/><path d="M888.94,26.05a10.18,10.18,0,0,1-.78,4.15A7.07,7.07,0,0,1,886,33l2.84,2.23-2.24,2L883,34.32a7.83,7.83,0,0,1-1.29.11,7.1,7.1,0,0,1-3.79-1,6.78,6.78,0,0,1-2.58-2.91,9.94,9.94,0,0,1-.92-4.36V25.3a10.21,10.21,0,0,1,.91-4.44,6.82,6.82,0,0,1,2.56-2.94,7.55,7.55,0,0,1,7.58,0A6.84,6.84,0,0,1,888,20.86a10.16,10.16,0,0,1,.91,4.43Zm-3.56-.78a7.09,7.09,0,0,0-1-4.07,3.39,3.39,0,0,0-5.47,0,7.12,7.12,0,0,0-1,4v.83a7.26,7.26,0,0,0,1,4.05,3.12,3.12,0,0,0,2.77,1.44,3.08,3.08,0,0,0,2.71-1.38,7.2,7.2,0,0,0,1-4.05Z" style="fill:#fff"/><path d="M904,20h-5.22V34.19h-3.52V20h-5.15V17.13H904Z" style="fill:#fff"/><path d="M919,20h-5.23V34.19h-3.51V20h-5.16V17.13H919Z" style="fill:#fff"/><path d="M935.92,30.68h-6.17l-1.17,3.51h-3.74l6.36-17.06h3.25l6.39,17.06H937.1Zm-5.22-2.85H935l-2.14-6.39Z" style="fill:#fff"/><path d="M953.06,28a7.57,7.57,0,0,1-1.33,4.69,4.24,4.24,0,0,1-3.59,1.77,4,4,0,0,1-3.1-1.34v6h-3.39V21.51h3.14l.12,1.25a4,4,0,0,1,3.21-1.48A4.29,4.29,0,0,1,951.76,23a7.8,7.8,0,0,1,1.3,4.78Zm-3.38-.25a5,5,0,0,0-.63-2.73,2,2,0,0,0-1.82-1A2.21,2.21,0,0,0,945,25.25v5.19a2.25,2.25,0,0,0,2.21,1.26Q949.68,31.7,949.68,27.72Z" style="fill:#fff"/><path d="M966.58,28a7.57,7.57,0,0,1-1.34,4.69,4.24,4.24,0,0,1-3.59,1.77,4,4,0,0,1-3.1-1.34v6h-3.39V21.51h3.14l.12,1.25a4,4,0,0,1,3.21-1.48A4.29,4.29,0,0,1,965.27,23a7.8,7.8,0,0,1,1.31,4.78Zm-3.39-.25a5,5,0,0,0-.63-2.73,2,2,0,0,0-1.82-1,2.22,2.22,0,0,0-2.19,1.22v5.19a2.25,2.25,0,0,0,2.21,1.26Q963.19,31.7,963.19,27.72Z" style="fill:#fff"/><path d="M972.25,34.19h-3.4v-18h3.4Z" style="fill:#fff"/><path d="M975,18.23a1.66,1.66,0,0,1,.51-1.25,1.92,1.92,0,0,1,1.39-.49,1.89,1.89,0,0,1,1.38.49,1.63,1.63,0,0,1,.52,1.25,1.66,1.66,0,0,1-.52,1.27,2.19,2.19,0,0,1-2.76,0A1.7,1.7,0,0,1,975,18.23Zm3.6,16h-3.4V21.51h3.4Z" style="fill:#fff"/><path d="M986.67,31.7a2.25,2.25,0,0,0,1.53-.52,1.82,1.82,0,0,0,.61-1.37H992a4.35,4.35,0,0,1-.7,2.36,4.65,4.65,0,0,1-1.89,1.67,6,6,0,0,1-2.66.59,5.52,5.52,0,0,1-4.29-1.73,6.88,6.88,0,0,1-1.57-4.78V27.7A6.78,6.78,0,0,1,982.43,23a5.46,5.46,0,0,1,4.28-1.74,5.33,5.33,0,0,1,3.81,1.35A4.77,4.77,0,0,1,992,26.24h-3.17a2.35,2.35,0,0,0-.61-1.61,2.27,2.27,0,0,0-3.34.24,5,5,0,0,0-.6,2.8V28a5,5,0,0,0,.6,2.82A2.05,2.05,0,0,0,986.67,31.7Z" style="fill:#fff"/><path d="M1001.26,34.19a3.87,3.87,0,0,1-.34-1.13,4.1,4.1,0,0,1-3.2,1.37,4.47,4.47,0,0,1-3.08-1.08,3.47,3.47,0,0,1-1.23-2.72,3.58,3.58,0,0,1,1.5-3.09,7.27,7.27,0,0,1,4.31-1.09h1.56v-.73a2.11,2.11,0,0,0-.45-1.41,1.77,1.77,0,0,0-1.42-.52,2,2,0,0,0-1.34.41,1.37,1.37,0,0,0-.49,1.12h-3.39a3.45,3.45,0,0,1,.68-2,4.66,4.66,0,0,1,1.92-1.47,7.12,7.12,0,0,1,2.79-.53,5.48,5.48,0,0,1,3.72,1.18,4.11,4.11,0,0,1,1.38,3.31v5.49a6.17,6.17,0,0,0,.5,2.73v.2Zm-2.8-2.35a2.82,2.82,0,0,0,1.38-.34,2.14,2.14,0,0,0,.94-.89V28.43h-1.26c-1.7,0-2.6.58-2.71,1.76v.19a1.39,1.39,0,0,0,.44,1.05A1.76,1.76,0,0,0,998.46,31.84Z" style="fill:#fff"/><path d="M1010.84,18.4v3.11H1013V24h-2.16v6.33a1.5,1.5,0,0,0,.27,1,1.32,1.32,0,0,0,1,.31,5.83,5.83,0,0,0,1-.08v2.56a6.7,6.7,0,0,1-2,.31q-3.55,0-3.63-3.6V24h-1.85V21.51h1.85V18.4Z" style="fill:#fff"/><path d="M1014.87,18.23a1.66,1.66,0,0,1,.51-1.25,2.2,2.2,0,0,1,2.77,0,1.8,1.8,0,0,1,0,2.52,1.89,1.89,0,0,1-1.37.49,1.93,1.93,0,0,1-1.38-.49A1.66,1.66,0,0,1,1014.87,18.23Zm3.6,16h-3.4V21.51h3.4Z" style="fill:#fff"/><path d="M1020.73,27.74a7.62,7.62,0,0,1,.72-3.37,5.39,5.39,0,0,1,2.1-2.28,6.08,6.08,0,0,1,3.17-.81,5.78,5.78,0,0,1,4.19,1.57,6.34,6.34,0,0,1,1.81,4.26l0,.87a6.59,6.59,0,0,1-1.63,4.68,6.3,6.3,0,0,1-8.75,0,6.74,6.74,0,0,1-1.63-4.78Zm3.38.24a4.77,4.77,0,0,0,.68,2.76,2.44,2.44,0,0,0,3.87,0,5.2,5.2,0,0,0,.69-3,4.72,4.72,0,0,0-.69-2.75,2.42,2.42,0,0,0-3.87,0A5.28,5.28,0,0,0,1024.11,28Z" style="fill:#fff"/><path d="M1037.94,21.51l.11,1.47a4.42,4.42,0,0,1,3.64-1.7,3.66,3.66,0,0,1,3,1.18,5.53,5.53,0,0,1,1,3.54v8.19h-3.39V26.08a2.14,2.14,0,0,0-.47-1.56,2.06,2.06,0,0,0-1.55-.49,2.34,2.34,0,0,0-2.15,1.22v8.94h-3.39V21.51Z" style="fill:#fff"/><path d="M1068.34,34.19h-3.51L1058,23V34.19h-3.51V17.13H1058l6.86,11.25V17.13h3.5Z" style="fill:#fff"/><path d="M1070.66,27.74a7.49,7.49,0,0,1,.73-3.37,5.31,5.31,0,0,1,2.09-2.28,6.1,6.1,0,0,1,3.17-.81,5.76,5.76,0,0,1,4.19,1.57,6.34,6.34,0,0,1,1.81,4.26l0,.87a6.59,6.59,0,0,1-1.63,4.68,6.29,6.29,0,0,1-8.74,0,6.75,6.75,0,0,1-1.64-4.78Zm3.39.24a4.69,4.69,0,0,0,.68,2.76,2.43,2.43,0,0,0,3.86,0,5.11,5.11,0,0,0,.7-3,4.64,4.64,0,0,0-.7-2.75,2.23,2.23,0,0,0-1.94-1,2.19,2.19,0,0,0-1.92,1A5.2,5.2,0,0,0,1074.05,28Z" style="fill:#fff"/><path d="M1084.23,27.76a7.6,7.6,0,0,1,1.33-4.72,4.3,4.3,0,0,1,3.64-1.76,3.9,3.9,0,0,1,3.06,1.38V16.19h3.4v18h-3.06l-.17-1.34a4,4,0,0,1-3.25,1.58,4.31,4.31,0,0,1-3.6-1.77A7.88,7.88,0,0,1,1084.23,27.76Zm3.39.25a5.08,5.08,0,0,0,.62,2.74,2,2,0,0,0,1.8.95,2.28,2.28,0,0,0,2.22-1.33v-5a2.24,2.24,0,0,0-2.19-1.33C1088.43,24,1087.62,25.36,1087.62,28Z" style="fill:#fff"/><path d="M1104.12,34.43a6.21,6.21,0,0,1-4.54-1.71,6.07,6.07,0,0,1-1.75-4.56v-.33a7.73,7.73,0,0,1,.73-3.42,5.5,5.5,0,0,1,2.1-2.32,5.88,5.88,0,0,1,3.08-.81,5.28,5.28,0,0,1,4.1,1.64,6.68,6.68,0,0,1,1.49,4.65V29h-8.07a3.17,3.17,0,0,0,1,2,3,3,0,0,0,2.09.75,3.67,3.67,0,0,0,3.06-1.42l1.66,1.86a5,5,0,0,1-2.06,1.68A6.67,6.67,0,0,1,1104.12,34.43ZM1103.73,24a2.11,2.11,0,0,0-1.63.68,3.57,3.57,0,0,0-.81,2H1106v-.27a2.48,2.48,0,0,0-.6-1.75A2.22,2.22,0,0,0,1103.73,24Z" style="fill:#fff"/><path d="M1118.12,30.69a1.08,1.08,0,0,0-.61-1,7,7,0,0,0-2-.64q-4.52-.95-4.52-3.84a3.48,3.48,0,0,1,1.4-2.82,5.65,5.65,0,0,1,3.66-1.13,6.05,6.05,0,0,1,3.86,1.14,3.56,3.56,0,0,1,1.45,2.95H1118a1.59,1.59,0,0,0-.47-1.2,2,2,0,0,0-1.46-.48,2,2,0,0,0-1.32.39,1.21,1.21,0,0,0-.47,1,1,1,0,0,0,.53.91,5.53,5.53,0,0,0,1.8.6,15.23,15.23,0,0,1,2.13.57,3.49,3.49,0,0,1,2.68,3.41,3.32,3.32,0,0,1-1.48,2.81,6.49,6.49,0,0,1-3.85,1.07,6.72,6.72,0,0,1-2.83-.57,4.8,4.8,0,0,1-1.94-1.56,3.6,3.6,0,0,1-.7-2.14h3.21a1.77,1.77,0,0,0,.67,1.38,2.64,2.64,0,0,0,1.66.48,2.49,2.49,0,0,0,1.47-.36A1.14,1.14,0,0,0,1118.12,30.69Z" style="fill:#fff"/><path d="M423.17,17.13l4.38,12.38,4.36-12.38h4.62V34.19H433V29.53l.35-8-4.6,12.71h-2.42l-4.59-12.7.35,8v4.66h-3.51V17.13Z"/><path d="M453.59,26.05a10.35,10.35,0,0,1-.77,4.15A7.09,7.09,0,0,1,450.67,33l2.84,2.23-2.24,2-3.63-2.92a7.83,7.83,0,0,1-1.29.11,7.12,7.12,0,0,1-3.79-1A6.76,6.76,0,0,1,440,30.5a10.09,10.09,0,0,1-.93-4.36V25.3a10.21,10.21,0,0,1,.91-4.44,6.82,6.82,0,0,1,2.56-2.94,7.57,7.57,0,0,1,7.59,0,6.82,6.82,0,0,1,2.56,2.94,10.16,10.16,0,0,1,.91,4.43ZM450,25.27a7.18,7.18,0,0,0-1-4.07,3.39,3.39,0,0,0-5.47,0,7,7,0,0,0-1,4v.83a7.26,7.26,0,0,0,1,4.05,3.13,3.13,0,0,0,2.77,1.44,3.1,3.1,0,0,0,2.72-1.38,7.29,7.29,0,0,0,1-4.05Z"/><path d="M468.63,20H463.4V34.19h-3.52V20h-5.15V17.13h13.9Z"/><path d="M483.66,20h-5.22V34.19h-3.52V20h-5.16V17.13h13.9Z"/><path d="M490.94,34.19V17.13h6a7.87,7.87,0,0,1,4.71,1.19,4.06,4.06,0,0,1,1.6,3.49,3.87,3.87,0,0,1-.64,2.21,3.78,3.78,0,0,1-1.8,1.4,3.55,3.55,0,0,1,2.07,1.32,3.88,3.88,0,0,1,.76,2.44,4.48,4.48,0,0,1-1.57,3.72,7,7,0,0,1-4.48,1.29Zm3.51-9.91h2.61c1.77,0,2.66-.74,2.66-2.12a2,2,0,0,0-.68-1.67,3.54,3.54,0,0,0-2.12-.51h-2.47Zm0,2.48v4.61h3a3,3,0,0,0,1.94-.59,2.05,2.05,0,0,0,.69-1.64,2.15,2.15,0,0,0-2.42-2.38Z"/><path d="M513.16,24.69a9.6,9.6,0,0,0-1.22-.09,2.48,2.48,0,0,0-2.52,1.3v8.29H506V21.51h3.2l.1,1.51a3.14,3.14,0,0,1,2.82-1.74,3.51,3.51,0,0,1,1.05.15Z"/><path d="M513.84,27.74a7.62,7.62,0,0,1,.72-3.37,5.39,5.39,0,0,1,2.1-2.28,6.08,6.08,0,0,1,3.17-.81A5.78,5.78,0,0,1,524,22.85a6.34,6.34,0,0,1,1.81,4.26l0,.87a6.59,6.59,0,0,1-1.63,4.68,6.3,6.3,0,0,1-8.75,0,6.74,6.74,0,0,1-1.63-4.78Zm3.38.24a4.77,4.77,0,0,0,.68,2.76,2.44,2.44,0,0,0,3.87,0,5.2,5.2,0,0,0,.69-3,4.72,4.72,0,0,0-.69-2.75,2.42,2.42,0,0,0-3.87,0A5.28,5.28,0,0,0,517.22,28Z"/><path d="M532.54,29.11l-1.22,1.22v3.86h-3.38v-18h3.38v10l.66-.85,3.24-3.81h4.07l-4.58,5.29,5,7.39H535.8Z"/><path d="M546.36,34.43a6.21,6.21,0,0,1-4.54-1.71,6.08,6.08,0,0,1-1.76-4.56v-.33a7.74,7.74,0,0,1,.74-3.42,5.48,5.48,0,0,1,2.09-2.32,5.94,5.94,0,0,1,3.09-.81,5.28,5.28,0,0,1,4.1,1.64,6.68,6.68,0,0,1,1.49,4.65V29H543.5a3.17,3.17,0,0,0,1,2,3,3,0,0,0,2.09.75,3.69,3.69,0,0,0,3.06-1.42l1.66,1.86a5,5,0,0,1-2.06,1.68A6.67,6.67,0,0,1,546.36,34.43ZM546,24a2.11,2.11,0,0,0-1.63.68,3.57,3.57,0,0,0-.81,2h4.71v-.27a2.44,2.44,0,0,0-.61-1.75A2.18,2.18,0,0,0,546,24Z"/><path d="M560.62,24.69a9.6,9.6,0,0,0-1.22-.09,2.48,2.48,0,0,0-2.52,1.3v8.29h-3.39V21.51h3.2l.1,1.51a3.14,3.14,0,0,1,2.82-1.74,3.62,3.62,0,0,1,1.06.15Z"/><rect x="848.58" y="226.65" width="127.4" height="126.79" rx="4.36" style="stroke:gray;stroke-miterlimit:10;stroke-width:2px;fill:url(#Unbenannter_Verlauf_8-4)"/><path d="M871,245.84h-5.36l-1.2,3.35h-1.74l4.88-12.79h1.48L874,249.19h-1.73Zm-4.85-1.38h4.35l-2.18-6Z"/><path d="M883.48,244.54a5.7,5.7,0,0,1-1,3.5,3.17,3.17,0,0,1-2.69,1.33,3.49,3.49,0,0,1-2.72-1.1v4.58h-1.63V239.68h1.49l.08,1.06a3.34,3.34,0,0,1,2.76-1.23,3.25,3.25,0,0,1,2.71,1.29,5.78,5.78,0,0,1,1,3.59Zm-1.63-.18a4.18,4.18,0,0,0-.69-2.54,2.2,2.2,0,0,0-1.88-.93,2.37,2.37,0,0,0-2.21,1.31v4.54a2.38,2.38,0,0,0,2.23,1.3,2.2,2.2,0,0,0,1.86-.93A4.55,4.55,0,0,0,881.85,244.36Z"/><path d="M893.57,244.54a5.7,5.7,0,0,1-1,3.5,3.17,3.17,0,0,1-2.69,1.33,3.49,3.49,0,0,1-2.72-1.1v4.58h-1.63V239.68H887l.08,1.06a3.34,3.34,0,0,1,2.76-1.23,3.25,3.25,0,0,1,2.71,1.29,5.78,5.78,0,0,1,1,3.59Zm-1.62-.18a4.18,4.18,0,0,0-.69-2.54,2.2,2.2,0,0,0-1.88-.93,2.37,2.37,0,0,0-2.21,1.31v4.54a2.38,2.38,0,0,0,2.23,1.3,2.2,2.2,0,0,0,1.86-.93A4.55,4.55,0,0,0,892,244.36Z"/><path d="M897.41,249.19h-1.63v-13.5h1.63Z"/><path d="M900,237.16a1,1,0,0,1,.24-.67.91.91,0,0,1,.71-.27,1,1,0,0,1,.73.27,1,1,0,0,1,.24.67,1,1,0,0,1-.24.66,1,1,0,0,1-.73.26.9.9,0,0,1-.71-.26A1,1,0,0,1,900,237.16Zm1.75,12h-1.62v-9.51h1.62Z"/><path d="M908.19,248a2.29,2.29,0,0,0,1.52-.53,1.87,1.87,0,0,0,.72-1.31H912a3,3,0,0,1-.56,1.55,3.73,3.73,0,0,1-1.39,1.18,4,4,0,0,1-1.83.44,3.92,3.92,0,0,1-3.09-1.3,5.16,5.16,0,0,1-1.15-3.54v-.28a5.74,5.74,0,0,1,.51-2.47,3.8,3.8,0,0,1,1.47-1.67,4.11,4.11,0,0,1,2.25-.6,3.81,3.81,0,0,1,2.66,1A3.39,3.39,0,0,1,912,243h-1.54a2.24,2.24,0,0,0-.7-1.51,2.15,2.15,0,0,0-1.55-.6,2.28,2.28,0,0,0-1.92.9,4.2,4.2,0,0,0-.68,2.58v.3a4.1,4.1,0,0,0,.68,2.53A2.26,2.26,0,0,0,908.19,248Z"/><path d="M919.67,249.19a3.5,3.5,0,0,1-.23-1,3.62,3.62,0,0,1-2.71,1.18,3.35,3.35,0,0,1-2.3-.8,2.57,2.57,0,0,1-.9-2,2.68,2.68,0,0,1,1.13-2.31,5.29,5.29,0,0,1,3.17-.82h1.58v-.75a1.83,1.83,0,0,0-.51-1.36,2.07,2.07,0,0,0-1.5-.5,2.33,2.33,0,0,0-1.46.44,1.29,1.29,0,0,0-.59,1.06h-1.63a2.32,2.32,0,0,1,.5-1.38,3.52,3.52,0,0,1,1.38-1.05,4.71,4.71,0,0,1,1.9-.38,3.74,3.74,0,0,1,2.57.82,3,3,0,0,1,1,2.26V247a5.38,5.38,0,0,0,.33,2.08v.14ZM917,248a2.9,2.9,0,0,0,1.45-.39,2.33,2.33,0,0,0,1-1v-1.95h-1.27c-2,0-3,.58-3,1.75a1.46,1.46,0,0,0,.51,1.19A2,2,0,0,0,917,248Z"/><path d="M925.79,237.38v2.3h1.78v1.26h-1.78v5.9a1.3,1.3,0,0,0,.24.86,1,1,0,0,0,.81.29,3.9,3.9,0,0,0,.77-.11v1.31a4.54,4.54,0,0,1-1.24.18,2,2,0,0,1-1.65-.66,2.82,2.82,0,0,1-.55-1.87v-5.9h-1.73v-1.26h1.73v-2.3Z"/><path d="M929.48,237.16a1,1,0,0,1,.24-.67.91.91,0,0,1,.72-.27.94.94,0,0,1,.72.27,1,1,0,0,1,.24.67,1,1,0,0,1-.24.66.94.94,0,0,1-.72.26.91.91,0,0,1-.72-.26A1,1,0,0,1,929.48,237.16Zm1.76,12h-1.63v-9.51h1.63Z"/><path d="M933.41,244.35a5.54,5.54,0,0,1,.55-2.51,4,4,0,0,1,1.53-1.73,4.16,4.16,0,0,1,2.23-.6,4,4,0,0,1,3.14,1.34,5.18,5.18,0,0,1,1.2,3.58v.11a5.63,5.63,0,0,1-.53,2.5,4,4,0,0,1-1.52,1.71,4.22,4.22,0,0,1-2.27.62,4,4,0,0,1-3.13-1.35,5.13,5.13,0,0,1-1.2-3.56Zm1.63.19a4,4,0,0,0,.74,2.54,2.48,2.48,0,0,0,3.93,0,4.49,4.49,0,0,0,.73-2.72,4.12,4.12,0,0,0-.74-2.54,2.4,2.4,0,0,0-2-1,2.33,2.33,0,0,0-1.94,1A4.42,4.42,0,0,0,935,244.54Z"/><path d="M945.64,239.68l.05,1.2a3.46,3.46,0,0,1,2.85-1.37q3,0,3,3.4v6.28H950V242.9a2.24,2.24,0,0,0-.47-1.52,1.89,1.89,0,0,0-1.44-.49,2.36,2.36,0,0,0-1.39.42,2.8,2.8,0,0,0-.93,1.11v6.77H944.1v-9.51Z"/><path d="M959.57,246.67a1.18,1.18,0,0,0-.49-1,4.62,4.62,0,0,0-1.74-.63,8.86,8.86,0,0,1-2-.63,2.83,2.83,0,0,1-1.07-.88,2.14,2.14,0,0,1-.35-1.22,2.45,2.45,0,0,1,1-2,3.86,3.86,0,0,1,2.53-.81,4,4,0,0,1,2.62.83,2.67,2.67,0,0,1,1,2.14h-1.64a1.44,1.44,0,0,0-.56-1.15,2.11,2.11,0,0,0-1.43-.49,2.21,2.21,0,0,0-1.39.39,1.24,1.24,0,0,0-.5,1,1,1,0,0,0,.47.89,5.65,5.65,0,0,0,1.68.57,8.71,8.71,0,0,1,2,.65,2.83,2.83,0,0,1,1.12.91,2.19,2.19,0,0,1,.37,1.3,2.42,2.42,0,0,1-1,2,4.3,4.3,0,0,1-2.65.77,4.79,4.79,0,0,1-2-.41,3.18,3.18,0,0,1-1.37-1.12,2.69,2.69,0,0,1-.5-1.57h1.62a1.68,1.68,0,0,0,.66,1.29,2.53,2.53,0,0,0,1.61.48,2.6,2.6,0,0,0,1.48-.37A1.13,1.13,0,0,0,959.57,246.67Z"/><rect x="860.99" y="257.8" width="102.6" height="60.31" rx="4.34" style="stroke:#000;stroke-miterlimit:10;fill:url(#Unbenannter_Verlauf_4-5)"/><path d="M915.4,318.49c0,9.47,5.22,18.17,10.38,18.17h2.08v4.15H896.72v-4.15h2.07c5.17,0,10.38-8.7,10.38-18.17Z" style="stroke:#000;stroke-miterlimit:10;fill:url(#Unbenannter_Verlauf_4-6)"/><rect x="865.55" y="261.89" width="93.47" height="52.14" rx="2.7" style="fill:#fff"/><path d="M956.32,262.39a2.19,2.19,0,0,1,2.2,2.2v46.73a2.2,2.2,0,0,1-2.2,2.21H868.26a2.21,2.21,0,0,1-2.21-2.21V264.59a2.2,2.2,0,0,1,2.21-2.2h88.06m0-1H868.26a3.22,3.22,0,0,0-3.21,3.2v46.73a3.23,3.23,0,0,0,3.21,3.21h88.06a3.22,3.22,0,0,0,3.2-3.21V264.59a3.21,3.21,0,0,0-3.2-3.2Z"/><path d="M920.1,282.8l2.65-3.69a16,16,0,0,1,2.7,1.12l-.73,4.48a12.11,12.11,0,0,1,3,3.05l4.47-.74a15.35,15.35,0,0,1,1.13,2.71l-3.69,2.65a11.71,11.71,0,0,1,0,4.31l3.69,2.65a15.25,15.25,0,0,1-1.13,2.7l-4.47-.73a12.28,12.28,0,0,1-3,3.05l.73,4.47a15.25,15.25,0,0,1-2.7,1.13l-2.65-3.69a11.71,11.71,0,0,1-4.31,0L913.14,310a15,15,0,0,1-2.71-1.13l.74-4.47a12.11,12.11,0,0,1-3-3.05l-4.48.73a16,16,0,0,1-1.12-2.7l3.68-2.65a12.32,12.32,0,0,1,0-4.31l-3.68-2.65a16.1,16.1,0,0,1,1.12-2.71l4.48.74a12,12,0,0,1,3-3.05l-.74-4.48a15.76,15.76,0,0,1,2.71-1.12l2.65,3.69a11.71,11.71,0,0,1,4.31,0Z" style="fill:none;stroke:#000;stroke-miterlimit:10"/><circle cx="917.94" cy="294.53" r="5.75" style="fill:none;stroke:#000;stroke-miterlimit:10"/><path d="M900.9,291.13l-1.55-3a8.9,8.9,0,0,1-3.18-.47l-2.36,2.43a11,11,0,0,1-1.87-1.12l1-3.22a9,9,0,0,1-1.92-2.58l-3.38.06a12.67,12.67,0,0,1-.54-2.12l3-1.56a8.8,8.8,0,0,1,.09-1.61,8.88,8.88,0,0,1,.38-1.56L888.17,274a11.77,11.77,0,0,1,1.13-1.87l3.22,1a9.16,9.16,0,0,1,2.58-1.91l-.06-3.38a11.77,11.77,0,0,1,2.12-.54l1.55,3a8.9,8.9,0,0,1,3.18.47l2.36-2.44a11.77,11.77,0,0,1,1.87,1.13l-1,3.22A8.87,8.87,0,0,1,907,275.3l3.38-.06a12.43,12.43,0,0,1,.54,2.12l-3,1.55a8.9,8.9,0,0,1-.47,3.18l1.88,1.8" style="fill:none;stroke:#000;stroke-miterlimit:10"/><circle cx="899.03" cy="279.23" r="4.28" style="fill:none;stroke:#000;stroke-miterlimit:10"/><rect x="988.58" y="141.65" width="127.4" height="126.79" rx="4.36" style="stroke:gray;stroke-miterlimit:10;stroke-width:2px;fill:url(#Unbenannter_Verlauf_8-5)"/><path d="M1037.63,151.4l4.18,10.44L1046,151.4h2.19v12.79h-1.69v-5l.16-5.38-4.2,10.36h-1.3L1037,153.86l.17,5.35v5h-1.69V151.4Z"/><path d="M1058.4,158.28h-5.55v4.53h6.45v1.38h-8.13V151.4h8v1.38h-6.36v4.12h5.55Z"/><path d="M1065.17,158.49A8.07,8.07,0,0,1,1062,157a2.94,2.94,0,0,1-1-2.25,3.08,3.08,0,0,1,1.21-2.5,4.78,4.78,0,0,1,3.14-1,5.24,5.24,0,0,1,2.35.51,3.86,3.86,0,0,1,1.6,1.41,3.56,3.56,0,0,1,.57,2h-1.7a2.34,2.34,0,0,0-.74-1.83,3,3,0,0,0-2.08-.67,3.08,3.08,0,0,0-1.95.55,1.86,1.86,0,0,0-.7,1.53,1.63,1.63,0,0,0,.67,1.32,6.47,6.47,0,0,0,2.26,1,10.51,10.51,0,0,1,2.49,1,3.74,3.74,0,0,1,1.34,1.27,3.19,3.19,0,0,1,.43,1.69,3,3,0,0,1-1.21,2.49,5.14,5.14,0,0,1-3.24.94,6,6,0,0,1-2.46-.51,4.07,4.07,0,0,1-1.77-1.38,3.41,3.41,0,0,1-.62-2h1.7a2.22,2.22,0,0,0,.86,1.84,3.65,3.65,0,0,0,2.29.67,3.24,3.24,0,0,0,2-.55,1.91,1.91,0,0,0,.06-2.94A7.64,7.64,0,0,0,1065.17,158.49Z"/><path d="M156.52,150.23H66.12a2.92,2.92,0,0,0-2.92,2.92v58.32a2.92,2.92,0,0,0,2.92,2.92h90.4a2.92,2.92,0,0,0,2.92-2.92V153.15A2.92,2.92,0,0,0,156.52,150.23Z" style="stroke:#000;stroke-miterlimit:10;fill:url(#Unbenannter_Verlauf_4-7)"/><path d="M69,233.4A2.58,2.58,0,0,0,71.6,236h79.57a2.57,2.57,0,0,0,2.56-2.57v-19H69Z" style="stroke:#000;stroke-miterlimit:10;fill:url(#Unbenannter_Verlauf_4-8)"/><rect x="74.41" y="161.02" width="37.33" height="26.83" style="fill:#fff;stroke:#000;stroke-miterlimit:10"/><rect x="74.41" y="197.18" width="14.58" height="8.17" style="fill:#fff;stroke:#000;stroke-miterlimit:10"/><rect x="97.16" y="197.18" width="14.58" height="8.17" style="fill:#fff;stroke:#000;stroke-miterlimit:10"/><circle cx="135.36" cy="174.73" r="13.71" style="fill:#fff;stroke:#000;stroke-miterlimit:10"/><line x1="126.76" y1="214.1" x2="126.76" y2="222.85" style="stroke:#000;stroke-miterlimit:10;fill:url(#Unbenannter_Verlauf_4-9)"/><circle cx="126.76" cy="226.35" r="4.67" style="fill:#fff;stroke:#000;stroke-miterlimit:10"/><line x1="110.86" y1="214.1" x2="110.86" y2="222.85" style="stroke:#000;stroke-miterlimit:10;fill:url(#Unbenannter_Verlauf_4-10)"/><circle cx="110.86" cy="226.35" r="4.67" style="fill:#fff;stroke:#000;stroke-miterlimit:10"/><line x1="94.97" y1="214.1" x2="94.97" y2="222.85" style="stroke:#000;stroke-miterlimit:10;fill:url(#Unbenannter_Verlauf_4-11)"/><circle cx="94.97" cy="226.35" r="4.67" style="fill:#fff;stroke:#000;stroke-miterlimit:10"/><line x1="79.07" y1="214.1" x2="79.07" y2="222.85" style="stroke:#000;stroke-miterlimit:10;fill:url(#Unbenannter_Verlauf_4-12)"/><circle cx="79.07" cy="226.35" r="4.67" style="fill:#fff;stroke:#000;stroke-miterlimit:10"/><line x1="142.65" y1="214.1" x2="142.65" y2="222.85" style="stroke:#000;stroke-miterlimit:10;fill:url(#Unbenannter_Verlauf_4-13)"/><circle cx="142.65" cy="226.35" r="4.67" style="fill:#fff;stroke:#000;stroke-miterlimit:10"/><polyline points="1058.58 203.5 1058.58 222.41 1048.71 222.41 1048.71 203.5" style="fill:#fff;stroke:#000;stroke-miterlimit:10"/><circle cx="1053.65" cy="192.81" r="11.51" style="stroke:#000;stroke-miterlimit:10;fill:url(#Unbenannter_Verlauf_4-14)"/><line x1="1043.78" y1="227.34" x2="1063.51" y2="227.34" style="fill:none;stroke:#000;stroke-linecap:round;stroke-miterlimit:10"/><line x1="1040.49" y1="232.27" x2="1066.8" y2="232.27" style="fill:none;stroke:#000;stroke-linecap:round;stroke-miterlimit:10"/><line x1="1037.2" y1="237.2" x2="1070.09" y2="237.2" style="fill:none;stroke:#000;stroke-linecap:round;stroke-miterlimit:10"/><line x1="1033.91" y1="242.14" x2="1073.38" y2="242.14" style="fill:none;stroke:#000;stroke-linecap:round;stroke-miterlimit:10"/><path d="M887.65,119.66l0,37.6c0,6.54,11.28,11.84,25.19,11.84a49.49,49.49,0,0,0,11.57-1.32l13.88-13.87V122.48S887.32,119.66,887.65,119.66Z" style="stroke:#000;stroke-miterlimit:10;fill:url(#Unbenannter_Verlauf_4-15)"/><ellipse cx="912.8" cy="120.45" rx="25.2" ry="11.84" style="stroke:#000;stroke-miterlimit:10;fill:url(#Unbenannter_Verlauf_4-16)"/><path d="M920.91,142.55a38.41,38.41,0,0,1-8.12.72c-13.91,0-25.19-5.3-25.19-11.84" style="fill:none;stroke:#000;stroke-miterlimit:10"/><path d="M918.09,155.31c-1.39.14-3.84.23-5.3.23-13.91,0-25.19-5.3-25.19-11.84" style="fill:none;stroke:#000;stroke-miterlimit:10"/><circle cx="936.3" cy="152.97" r="18.18" style="fill:#fff"/><line x1="938.03" y1="120.31" x2="938.01" y2="135.38" style="fill:none;stroke:#000;stroke-miterlimit:10"/><path d="M921.88,142.54c3.47-4.51,8.68-7.59,13.94-7.59A17.87,17.87,0,1,1,918,152.82" style="fill:none;stroke:#000;stroke-miterlimit:10"/><polygon points="926.03 143.7 919.03 147.52 919.21 139.55 926.03 143.7"/><polyline points="927.05 153.17 935.69 154.54 942.39 144.04" style="fill:none;stroke:#000;stroke-miterlimit:10"/></svg>