<svg id="Ebene_1" data-name="Ebene 1" xmlns="http://www.w3.org/2000/svg" xmlns:xlink="http://www.w3.org/1999/xlink" viewBox="0 0 650 450"><defs><linearGradient id="Unbenannter_Verlauf_4" x1="18.36" y1="335.05" x2="207.61" y2="335.05" gradientUnits="userSpaceOnUse"><stop offset="0" stop-color="#fff"/><stop offset="1" stop-color="#ccc"/></linearGradient><linearGradient id="Unbenannter_Verlauf_4-2" x1="84.26" y1="411.96" x2="141.71" y2="411.96" xlink:href="#Unbenannter_Verlauf_4"/><linearGradient id="Unbenannter_Verlauf_4-3" x1="18.36" y1="95.05" x2="207.61" y2="95.05" xlink:href="#Unbenannter_Verlauf_4"/><linearGradient id="Unbenannter_Verlauf_4-4" x1="84.26" y1="171.96" x2="141.71" y2="171.96" xlink:href="#Unbenannter_Verlauf_4"/><linearGradient id="Unbenannter_Verlauf_8" x1="586.77" y1="87.78" x2="586.77" y2="179.19" gradientUnits="userSpaceOnUse"><stop offset="0" stop-color="#fff"/><stop offset="0.35" stop-color="#fdfdfe"/><stop offset="1" stop-color="#d7e0e5"/></linearGradient><linearGradient id="Unbenannter_Verlauf_8-2" x1="586.77" y1="294.54" x2="586.77" y2="385.95" xlink:href="#Unbenannter_Verlauf_8"/></defs><rect x="18.36" y="279.43" width="189.25" height="111.25" rx="8" style="stroke:#000;stroke-miterlimit:10;stroke-width:2px;fill:url(#Unbenannter_Verlauf_4)"/><path d="M118.73,391.37c0,17.47,9.62,33.51,19.15,33.51h3.83v7.66H84.26v-7.66h3.83c9.53,0,19.15-16,19.15-33.51Z" style="stroke:#000;stroke-miterlimit:10;stroke-width:2px;fill:url(#Unbenannter_Verlauf_4-2)"/><rect x="26.86" y="287.04" width="172.25" height="96.02" rx="4.91" style="fill:#fff"/><path d="M194.2,288a3.92,3.92,0,0,1,3.91,3.91v86.2a3.91,3.91,0,0,1-3.91,3.91H31.76a3.91,3.91,0,0,1-3.9-3.91V292a3.91,3.91,0,0,1,3.9-3.91H194.2m0-2H31.76a5.93,5.93,0,0,0-5.9,5.91v86.2a5.93,5.93,0,0,0,5.9,5.91H194.2a5.93,5.93,0,0,0,5.91-5.91V292A5.93,5.93,0,0,0,194.2,286Z"/><polyline points="42.32 334.32 63.34 334.32 141.49 334.32" style="fill:none;stroke:#b0b574;stroke-miterlimit:10;stroke-width:2px"/><polyline points="141.03 333.95 147.38 331.65 170.98 323.11" style="fill:#b0b574;stroke:#f60;stroke-miterlimit:10;stroke-width:2px"/><circle cx="44.39" cy="333.88" r="3.4" style="fill:#b0b574"/><circle cx="139.64" cy="333.88" r="3.4" style="fill:#b0b574"/><circle cx="107.89" cy="333.88" r="3.4" style="fill:#b0b574"/><circle cx="76.14" cy="333.88" r="3.4" style="fill:#b0b574"/><circle cx="171.98" cy="322.32" r="3.4" style="fill:#f60"/><rect x="18.36" y="39.43" width="189.25" height="111.25" rx="8" style="stroke:#000;stroke-miterlimit:10;stroke-width:2px;fill:url(#Unbenannter_Verlauf_4-3)"/><path d="M118.73,151.37c0,17.47,9.62,33.51,19.15,33.51h3.83v7.66H84.26v-7.66h3.83c9.53,0,19.15-16,19.15-33.51Z" style="stroke:#000;stroke-miterlimit:10;stroke-width:2px;fill:url(#Unbenannter_Verlauf_4-4)"/><rect x="26.86" y="47.04" width="172.25" height="96.02" rx="4.91" style="fill:#fff"/><path d="M194.2,48A3.92,3.92,0,0,1,198.11,52v86.2a3.91,3.91,0,0,1-3.91,3.91H31.76a3.91,3.91,0,0,1-3.9-3.91V52A3.91,3.91,0,0,1,31.76,48H194.2m0-2H31.76A5.93,5.93,0,0,0,25.86,52v86.2a5.93,5.93,0,0,0,5.9,5.91H194.2a5.93,5.93,0,0,0,5.91-5.91V52A5.93,5.93,0,0,0,194.2,46Z"/><polyline points="42.32 94.32 63.34 94.32 141.49 94.32" style="fill:none;stroke:#b0b574;stroke-miterlimit:10;stroke-width:2px"/><circle cx="44.39" cy="93.88" r="3.4" style="fill:#b0b574"/><circle cx="139.64" cy="93.88" r="3.4" style="fill:#b0b574"/><circle cx="107.89" cy="93.88" r="3.4" style="fill:#b0b574"/><circle cx="76.14" cy="93.88" r="3.4" style="fill:#b0b574"/><line x1="499.83" y1="66.34" x2="268.57" y2="66.34" style="fill:none;stroke:#b0b574;stroke-miterlimit:10;stroke-width:2px"/><polygon points="270.76 58.86 257.81 66.34 270.76 73.82 270.76 58.86" style="fill:#b0b574"/><rect x="304.17" y="51.48" width="151.31" height="24" style="fill:#fff"/><line x1="255.86" y1="42.84" x2="491.74" y2="42.84" style="fill:none;stroke:#003e6e;stroke-miterlimit:10;stroke-width:2px"/><polygon points="489.55 50.32 502.5 42.84 489.55 35.36 489.55 50.32" style="fill:#003e6e"/><rect x="303.64" y="29.48" width="151.84" height="24" style="fill:#fff"/><path d="M312.58,42.83v5H310.9V35h4.72a4.77,4.77,0,0,1,3.29,1.07A3.65,3.65,0,0,1,320.1,39a3.58,3.58,0,0,1-1.17,2.87,4.93,4.93,0,0,1-3.33,1Zm0-1.38h3a3,3,0,0,0,2.07-.64,2.34,2.34,0,0,0,.72-1.84,2.43,2.43,0,0,0-.72-1.84,2.89,2.89,0,0,0-2-.71h-3.13Z" style="fill:#003e6e"/><path d="M321.45,43a5.71,5.71,0,0,1,.55-2.51,4.06,4.06,0,0,1,3.77-2.33,4,4,0,0,1,3.14,1.35,5.16,5.16,0,0,1,1.2,3.57v.12a5.75,5.75,0,0,1-.53,2.49,4,4,0,0,1-1.52,1.72,4.22,4.22,0,0,1-2.27.61,4,4,0,0,1-3.14-1.34,5.15,5.15,0,0,1-1.2-3.56Zm1.64.2a4.07,4.07,0,0,0,.73,2.54,2.48,2.48,0,0,0,3.93,0,4.45,4.45,0,0,0,.73-2.73,4,4,0,0,0-.74-2.53,2.46,2.46,0,0,0-3.91,0A4.34,4.34,0,0,0,323.09,43.19Z" style="fill:#003e6e"/><path d="M333.92,47.84h-1.63V34.34h1.63Z" style="fill:#003e6e"/><path d="M338.28,47.84h-1.62V34.34h1.62Z" style="fill:#003e6e"/><path d="M340.83,47a1.06,1.06,0,0,1,.25-.71,1.16,1.16,0,0,1,1.51,0,1,1,0,0,1,.26.71.91.91,0,0,1-.26.67,1,1,0,0,1-1.76-.67Zm0-7.77a1,1,0,0,1,.25-.7,1.16,1.16,0,0,1,1.51,0,1,1,0,0,1,.26.7.92.92,0,0,1-.26.68,1.19,1.19,0,0,1-1.51,0A1,1,0,0,1,340.84,39.22Z" style="fill:#003e6e"/><path d="M358.45,36.42h-4.12V47.84h-1.68V36.42h-4.1V35h9.9Z" style="fill:#003e6e"/><path d="M363.17,48A4.15,4.15,0,0,1,360,46.74a4.69,4.69,0,0,1-1.21-3.39v-.3a5.7,5.7,0,0,1,.54-2.53,4.21,4.21,0,0,1,1.51-1.74,3.8,3.8,0,0,1,2.1-.63,3.59,3.59,0,0,1,2.89,1.22,5.33,5.33,0,0,1,1,3.5v.68h-6.44a3.43,3.43,0,0,0,.82,2.27,2.58,2.58,0,0,0,2,.87,2.77,2.77,0,0,0,1.46-.36,3.56,3.56,0,0,0,1.05-.93l1,.78A4,4,0,0,1,363.17,48ZM363,39.49a2.2,2.2,0,0,0-1.65.71,3.57,3.57,0,0,0-.83,2h4.77v-.12a3.09,3.09,0,0,0-.67-1.92A2.06,2.06,0,0,0,363,39.49Z" style="fill:#003e6e"/><path d="M370.28,38.33l.05,1.05a3.52,3.52,0,0,1,2.82-1.23,2.72,2.72,0,0,1,2.72,1.53,3.56,3.56,0,0,1,1.23-1.11,3.68,3.68,0,0,1,1.8-.42q3.12,0,3.18,3.32v6.37h-1.63V41.56A2.16,2.16,0,0,0,380,40a2,2,0,0,0-1.57-.51,2.1,2.1,0,0,0-2.19,2v6.31h-1.64V41.61a1.82,1.82,0,0,0-2-2.08,2.19,2.19,0,0,0-2.19,1.36v7h-1.62V38.33Z" style="fill:#003e6e"/><path d="M392.57,43.19a5.72,5.72,0,0,1-1,3.5A3.19,3.19,0,0,1,388.88,48a3.46,3.46,0,0,1-2.72-1.1v4.58h-1.63V38.33H386l.08,1.05a3.34,3.34,0,0,1,2.76-1.23,3.25,3.25,0,0,1,2.71,1.29,5.81,5.81,0,0,1,1,3.6ZM390.94,43a4.18,4.18,0,0,0-.69-2.54,2.2,2.2,0,0,0-1.88-.93,2.39,2.39,0,0,0-2.21,1.31v4.55a2.4,2.4,0,0,0,2.23,1.3,2.2,2.2,0,0,0,1.86-.93A4.6,4.6,0,0,0,390.94,43Z" style="fill:#003e6e"/><path d="M398.58,48a4.15,4.15,0,0,1-3.15-1.27,4.69,4.69,0,0,1-1.21-3.39v-.3a5.7,5.7,0,0,1,.54-2.53,4.21,4.21,0,0,1,1.51-1.74,3.8,3.8,0,0,1,2.1-.63,3.59,3.59,0,0,1,2.89,1.22,5.33,5.33,0,0,1,1,3.5v.68h-6.45a3.39,3.39,0,0,0,.83,2.27,2.56,2.56,0,0,0,2,.87,2.75,2.75,0,0,0,1.46-.36,3.56,3.56,0,0,0,1.05-.93l1,.78A4,4,0,0,1,398.58,48Zm-.21-8.52a2.2,2.2,0,0,0-1.65.71,3.49,3.49,0,0,0-.82,2h4.76v-.12a3.09,3.09,0,0,0-.67-1.92A2.06,2.06,0,0,0,398.37,39.49Z" style="fill:#003e6e"/><path d="M408.76,39.79a4.92,4.92,0,0,0-.8-.06,2.14,2.14,0,0,0-2.17,1.36v6.75h-1.62V38.33h1.58l0,1.1A2.52,2.52,0,0,1,408,38.15a1.52,1.52,0,0,1,.72.13Z" style="fill:#003e6e"/><path d="M415.78,47.84a3.26,3.26,0,0,1-.23-1A3.65,3.65,0,0,1,412.84,48a3.36,3.36,0,0,1-2.31-.79,2.57,2.57,0,0,1-.9-2,2.7,2.7,0,0,1,1.13-2.31,5.4,5.4,0,0,1,3.18-.82h1.58v-.75A1.81,1.81,0,0,0,415,40a2,2,0,0,0-1.5-.51,2.39,2.39,0,0,0-1.46.44,1.3,1.3,0,0,0-.59,1.06h-1.63a2.27,2.27,0,0,1,.5-1.37,3.56,3.56,0,0,1,1.37-1.05,4.59,4.59,0,0,1,1.91-.39,3.79,3.79,0,0,1,2.57.82,3,3,0,0,1,1,2.27v4.37a5.44,5.44,0,0,0,.33,2.09v.14Zm-2.7-1.24a2.81,2.81,0,0,0,1.45-.4,2.28,2.28,0,0,0,1-1v-2h-1.27c-2,0-3,.59-3,1.75a1.49,1.49,0,0,0,.51,1.2A2,2,0,0,0,413.08,46.6Z" style="fill:#003e6e"/><path d="M421.9,36v2.3h1.78v1.25H421.9v5.91a1.32,1.32,0,0,0,.24.86,1,1,0,0,0,.81.28,3.84,3.84,0,0,0,.77-.1v1.31a4.58,4.58,0,0,1-1.25.17,2,2,0,0,1-1.64-.66,2.82,2.82,0,0,1-.55-1.87v-5.9h-1.73V38.33h1.73V36Z" style="fill:#003e6e"/><path d="M431.45,46.9A3.46,3.46,0,0,1,428.66,48a2.94,2.94,0,0,1-2.31-.88,3.84,3.84,0,0,1-.81-2.61V38.33h1.63v6.14c0,1.44.58,2.16,1.76,2.16a2.42,2.42,0,0,0,2.47-1.39V38.33H433v9.51h-1.55Z" style="fill:#003e6e"/><path d="M440.1,39.79a5.1,5.1,0,0,0-.8-.06,2.13,2.13,0,0,0-2.17,1.36v6.75H435.5V38.33h1.58l0,1.1a2.53,2.53,0,0,1,2.27-1.28,1.57,1.57,0,0,1,.72.13Z" style="fill:#003e6e"/><path d="M445.37,48a4.15,4.15,0,0,1-3.15-1.27A4.69,4.69,0,0,1,441,43.35v-.3a5.7,5.7,0,0,1,.54-2.53,4.28,4.28,0,0,1,1.51-1.74,3.81,3.81,0,0,1,2.11-.63,3.58,3.58,0,0,1,2.88,1.22,5.28,5.28,0,0,1,1,3.5v.68h-6.44a3.33,3.33,0,0,0,.82,2.27,2.57,2.57,0,0,0,2,.87,2.8,2.8,0,0,0,1.46-.36,3.52,3.52,0,0,0,1-.93l1,.78A4,4,0,0,1,445.37,48Zm-.2-8.52a2.17,2.17,0,0,0-1.65.71,3.43,3.43,0,0,0-.83,2h4.76v-.12a3,3,0,0,0-.67-1.92A2,2,0,0,0,445.17,39.49Z" style="fill:#003e6e"/><path d="M315.92,66.66h-3v5.18h-1.7V59h4.24a5,5,0,0,1,3.33,1,3.54,3.54,0,0,1,1.16,2.86A3.43,3.43,0,0,1,319.3,65a3.83,3.83,0,0,1-1.8,1.33l3,5.43v.11h-1.81Zm-3-1.38h2.59a2.93,2.93,0,0,0,2-.65,2.2,2.2,0,0,0,.74-1.74,2.34,2.34,0,0,0-.7-1.83,3,3,0,0,0-2.05-.64h-2.58Z" style="fill:#b0b574"/><path d="M326,72a4.15,4.15,0,0,1-3.15-1.27,4.69,4.69,0,0,1-1.21-3.39v-.3a5.7,5.7,0,0,1,.54-2.53,4.21,4.21,0,0,1,1.51-1.74,3.8,3.8,0,0,1,2.1-.63,3.59,3.59,0,0,1,2.89,1.22,5.33,5.33,0,0,1,1,3.5v.68h-6.45a3.39,3.39,0,0,0,.83,2.27,2.56,2.56,0,0,0,2,.87,2.75,2.75,0,0,0,1.46-.36,3.56,3.56,0,0,0,1-.93l1,.78A4,4,0,0,1,326,72Zm-.21-8.52a2.2,2.2,0,0,0-1.65.71,3.49,3.49,0,0,0-.82,2h4.76v-.12a3.09,3.09,0,0,0-.67-1.92A2.06,2.06,0,0,0,325.79,63.49Z" style="fill:#b0b574"/><path d="M337.12,69.32a1.2,1.2,0,0,0-.49-1,4.93,4.93,0,0,0-1.73-.63,7.65,7.65,0,0,1-2-.63,2.79,2.79,0,0,1-1.08-.88,2.1,2.1,0,0,1-.34-1.21,2.47,2.47,0,0,1,1-2,3.83,3.83,0,0,1,2.52-.81,4,4,0,0,1,2.63.84,2.64,2.64,0,0,1,1,2.13H337a1.47,1.47,0,0,0-.57-1.15,2.13,2.13,0,0,0-1.43-.48,2.29,2.29,0,0,0-1.39.38,1.24,1.24,0,0,0-.5,1,1,1,0,0,0,.47.88,5.65,5.65,0,0,0,1.68.57,9.25,9.25,0,0,1,2,.65,2.92,2.92,0,0,1,1.12.91,2.21,2.21,0,0,1,.37,1.3,2.42,2.42,0,0,1-1,2,4.23,4.23,0,0,1-2.65.77,4.79,4.79,0,0,1-2-.4,3.33,3.33,0,0,1-1.37-1.13,2.73,2.73,0,0,1-.5-1.57h1.63a1.67,1.67,0,0,0,.65,1.3,2.55,2.55,0,0,0,1.61.48,2.65,2.65,0,0,0,1.49-.38A1.14,1.14,0,0,0,337.12,69.32Z" style="fill:#b0b574"/><path d="M348.9,67.19a5.72,5.72,0,0,1-1,3.5A3.19,3.19,0,0,1,345.22,72a3.48,3.48,0,0,1-2.73-1.1v4.58h-1.62V62.33h1.48l.08,1.05a3.34,3.34,0,0,1,2.76-1.23,3.24,3.24,0,0,1,2.71,1.29,5.75,5.75,0,0,1,1,3.6ZM347.28,67a4.18,4.18,0,0,0-.69-2.54,2.21,2.21,0,0,0-1.88-.93,2.41,2.41,0,0,0-2.22,1.31v4.55a2.41,2.41,0,0,0,2.24,1.3,2.2,2.2,0,0,0,1.86-.93A4.6,4.6,0,0,0,347.28,67Z" style="fill:#b0b574"/><path d="M350.54,67a5.57,5.57,0,0,1,.55-2.51,4.05,4.05,0,0,1,1.52-1.72,4.14,4.14,0,0,1,2.24-.61A4,4,0,0,1,358,63.5a5.16,5.16,0,0,1,1.2,3.57v.12a5.61,5.61,0,0,1-.53,2.49,4,4,0,0,1-1.52,1.72,4.22,4.22,0,0,1-2.27.61,4,4,0,0,1-3.13-1.34,5.15,5.15,0,0,1-1.2-3.56Zm1.63.2a4.14,4.14,0,0,0,.73,2.54,2.49,2.49,0,0,0,3.94,0,4.52,4.52,0,0,0,.73-2.73,4,4,0,0,0-.75-2.53,2.46,2.46,0,0,0-3.91,0A4.4,4.4,0,0,0,352.17,67.19Z" style="fill:#b0b574"/><path d="M362.77,62.33l.05,1.19a3.49,3.49,0,0,1,2.85-1.37c2,0,3,1.14,3,3.4v6.29h-1.62v-6.3a2.26,2.26,0,0,0-.47-1.52,1.93,1.93,0,0,0-1.44-.49,2.36,2.36,0,0,0-1.39.42,2.87,2.87,0,0,0-.93,1.11v6.78h-1.63V62.33Z" style="fill:#b0b574"/><path d="M376.7,69.32a1.18,1.18,0,0,0-.5-1,4.85,4.85,0,0,0-1.73-.63,7.92,7.92,0,0,1-2-.63,2.83,2.83,0,0,1-1.07-.88,2.1,2.1,0,0,1-.35-1.21,2.47,2.47,0,0,1,1-2,3.86,3.86,0,0,1,2.53-.81,3.94,3.94,0,0,1,2.62.84,2.65,2.65,0,0,1,1,2.13H376.6A1.46,1.46,0,0,0,376,64a2.15,2.15,0,0,0-1.43-.48,2.27,2.27,0,0,0-1.39.38,1.24,1.24,0,0,0-.5,1,1,1,0,0,0,.47.88,5.65,5.65,0,0,0,1.68.57,9.25,9.25,0,0,1,2,.65,2.92,2.92,0,0,1,1.12.91,2.21,2.21,0,0,1,.37,1.3,2.42,2.42,0,0,1-1,2,4.23,4.23,0,0,1-2.65.77,4.79,4.79,0,0,1-2-.4,3.36,3.36,0,0,1-1.38-1.13,2.72,2.72,0,0,1-.49-1.57h1.62a1.68,1.68,0,0,0,.66,1.3,2.53,2.53,0,0,0,1.61.48,2.6,2.6,0,0,0,1.48-.38A1.15,1.15,0,0,0,376.7,69.32Z" style="fill:#b0b574"/><path d="M384.39,72a4.15,4.15,0,0,1-3.15-1.27A4.73,4.73,0,0,1,380,67.35v-.3a5.7,5.7,0,0,1,.54-2.53,4.28,4.28,0,0,1,1.51-1.74,3.81,3.81,0,0,1,2.11-.63,3.56,3.56,0,0,1,2.88,1.22,5.28,5.28,0,0,1,1,3.5v.68h-6.44a3.38,3.38,0,0,0,.82,2.27,2.57,2.57,0,0,0,2,.87,2.8,2.8,0,0,0,1.46-.36,3.4,3.4,0,0,0,1-.93l1,.78A4,4,0,0,1,384.39,72Zm-.2-8.52a2.17,2.17,0,0,0-1.65.71,3.5,3.5,0,0,0-.83,2h4.76v-.12a3.08,3.08,0,0,0-.66-1.92A2.06,2.06,0,0,0,384.19,63.49Z" style="fill:#b0b574"/><path d="M389.93,71a1,1,0,0,1,.25-.71,1,1,0,0,1,.75-.28,1,1,0,0,1,.76.28A1,1,0,0,1,392,71a1,1,0,0,1-.26.67,1,1,0,0,1-.76.27,1,1,0,0,1-.75-.27A1,1,0,0,1,389.93,71Zm0-7.77a1,1,0,0,1,.25-.7.94.94,0,0,1,.75-.28,1,1,0,0,1,.76.28,1,1,0,0,1,.26.7,1,1,0,0,1-.26.68,1,1,0,0,1-.76.27,1,1,0,0,1-.75-.27A1,1,0,0,1,389.94,63.22Z" style="fill:#b0b574"/><path d="M400,58.17l.93.63a4.14,4.14,0,0,0-.84,2.41v1.2h-1.62v-1a4,4,0,0,1,.43-1.78A4.31,4.31,0,0,1,400,58.17Zm2.77,0,.93.63a4.08,4.08,0,0,0-.84,2.41v1.2h-1.62v-1a4.11,4.11,0,0,1,.42-1.78A4.47,4.47,0,0,1,402.78,58.17Z" style="fill:#b0b574"/><path d="M413.38,71.84H405V70.67l4.43-4.92a10.47,10.47,0,0,0,1.36-1.82,3,3,0,0,0,.37-1.44,2.33,2.33,0,0,0-.6-1.65,2.13,2.13,0,0,0-1.62-.64,2.48,2.48,0,0,0-1.88.69,2.63,2.63,0,0,0-.68,1.92h-1.62A3.81,3.81,0,0,1,405.88,60a4.26,4.26,0,0,1,3.05-1.09,4.07,4.07,0,0,1,2.82.94,3.2,3.2,0,0,1,1,2.49q0,1.89-2.41,4.5L407,70.51h6.43Z" style="fill:#b0b574"/><path d="M423.12,66.38a7.42,7.42,0,0,1-1,4.24,4.06,4.06,0,0,1-6.08,0,7,7,0,0,1-1-4.06V64.43a7.26,7.26,0,0,1,1-4.19,3.49,3.49,0,0,1,3.06-1.38,3.53,3.53,0,0,1,3,1.33,7,7,0,0,1,1,4.08Zm-1.62-2.22a5.91,5.91,0,0,0-.58-3,2,2,0,0,0-1.84-.95,2,2,0,0,0-1.82.94,5.92,5.92,0,0,0-.59,2.89v2.6a6,6,0,0,0,.61,3.07,2.17,2.17,0,0,0,3.61,0,5.85,5.85,0,0,0,.61-2.93Z" style="fill:#b0b574"/><path d="M425.29,61.15a2.27,2.27,0,0,1,.65-1.6,2.12,2.12,0,0,1,1.59-.69,2.06,2.06,0,0,1,1.56.69,2.23,2.23,0,0,1,.64,1.6,2.19,2.19,0,0,1-.64,1.59,2.1,2.1,0,0,1-1.56.66,2.15,2.15,0,0,1-1.58-.66A2.17,2.17,0,0,1,425.29,61.15Zm2.24,1.13a1.13,1.13,0,0,0,.8-.32,1.07,1.07,0,0,0,.32-.81,1.16,1.16,0,0,0-.32-.83,1.14,1.14,0,0,0-1.62,0,1.17,1.17,0,0,0-.32.81,1.09,1.09,0,0,0,.32.8A1.12,1.12,0,0,0,427.53,62.28Z" style="fill:#b0b574"/><path d="M446.22,67.78a4.73,4.73,0,0,1-1.5,3.13,4.87,4.87,0,0,1-3.35,1.1,4.51,4.51,0,0,1-3.63-1.62A6.57,6.57,0,0,1,436.37,66V64.81a7.22,7.22,0,0,1,.64-3.14,4.71,4.71,0,0,1,1.8-2.08,5.06,5.06,0,0,1,2.71-.73A4.62,4.62,0,0,1,444.79,60a4.75,4.75,0,0,1,1.43,3.15h-1.69a3.7,3.7,0,0,0-1-2.22,2.87,2.87,0,0,0-2.05-.69,3,3,0,0,0-2.54,1.2,5.51,5.51,0,0,0-.91,3.41v1.24a5.62,5.62,0,0,0,.87,3.31,2.81,2.81,0,0,0,2.43,1.23,3.27,3.27,0,0,0,2.16-.63,3.6,3.6,0,0,0,1-2.22Z" style="fill:#b0b574"/><path d="M449.48,58.17l.93.63a4.22,4.22,0,0,0-.84,2.41v1.2H448v-1a4.12,4.12,0,0,1,.43-1.78A4.31,4.31,0,0,1,449.48,58.17Zm2.77,0,.93.63a4.22,4.22,0,0,0-.84,2.41v1.2h-1.62v-1a4,4,0,0,1,.43-1.78A4.31,4.31,0,0,1,452.25,58.17Z" style="fill:#b0b574"/><circle cx="234.02" cy="55.65" r="12.65" style="fill:gray"/><path d="M235.38,61.8h-1.64V51l-3.28,1.2V50.69l4.66-1.75h.26Z" style="fill:#fff"/><line x1="499.83" y1="153.34" x2="268.57" y2="153.34" style="fill:none;stroke:#b0b574;stroke-miterlimit:10;stroke-width:2px"/><polygon points="270.76 145.86 257.81 153.34 270.76 160.82 270.76 145.86" style="fill:#b0b574"/><rect x="304.17" y="138.48" width="151.31" height="24" style="fill:#fff"/><line x1="255.86" y1="129.84" x2="491.74" y2="129.84" style="fill:none;stroke:#003e6e;stroke-miterlimit:10;stroke-width:2px"/><polygon points="489.55 137.32 502.5 129.84 489.55 122.36 489.55 137.32" style="fill:#003e6e"/><rect x="303.64" y="116.48" width="151.84" height="24" style="fill:#fff"/><path d="M312.58,129.83v5H310.9V122h4.72a4.77,4.77,0,0,1,3.29,1.07A3.65,3.65,0,0,1,320.1,126a3.58,3.58,0,0,1-1.17,2.87,4.93,4.93,0,0,1-3.33,1Zm0-1.38h3a3,3,0,0,0,2.07-.64,2.34,2.34,0,0,0,.72-1.84,2.43,2.43,0,0,0-.72-1.84,2.89,2.89,0,0,0-2-.71h-3.13Z" style="fill:#003e6e"/><path d="M321.45,130a5.71,5.71,0,0,1,.55-2.51,4.06,4.06,0,0,1,3.77-2.33,4,4,0,0,1,3.14,1.35,5.16,5.16,0,0,1,1.2,3.57v.12a5.75,5.75,0,0,1-.53,2.49,4,4,0,0,1-1.52,1.72,4.22,4.22,0,0,1-2.27.61,4,4,0,0,1-3.14-1.34,5.15,5.15,0,0,1-1.2-3.56Zm1.64.2a4.07,4.07,0,0,0,.73,2.54,2.48,2.48,0,0,0,3.93,0,4.45,4.45,0,0,0,.73-2.73,4,4,0,0,0-.74-2.53,2.46,2.46,0,0,0-3.91,0A4.34,4.34,0,0,0,323.09,130.19Z" style="fill:#003e6e"/><path d="M333.92,134.84h-1.63v-13.5h1.63Z" style="fill:#003e6e"/><path d="M338.28,134.84h-1.62v-13.5h1.62Z" style="fill:#003e6e"/><path d="M340.83,134a1.06,1.06,0,0,1,.25-.71,1.16,1.16,0,0,1,1.51,0,1,1,0,0,1,.26.71.91.91,0,0,1-.26.67,1,1,0,0,1-1.76-.67Zm0-7.77a1,1,0,0,1,.25-.7,1.16,1.16,0,0,1,1.51,0,1,1,0,0,1,.26.7.92.92,0,0,1-.26.68,1.19,1.19,0,0,1-1.51,0A1,1,0,0,1,340.84,126.22Z" style="fill:#003e6e"/><path d="M358.45,123.42h-4.12v11.42h-1.68V123.42h-4.1V122h9.9Z" style="fill:#003e6e"/><path d="M363.17,135a4.15,4.15,0,0,1-3.15-1.27,4.69,4.69,0,0,1-1.21-3.39v-.3a5.7,5.7,0,0,1,.54-2.53,4.21,4.21,0,0,1,1.51-1.74,3.8,3.8,0,0,1,2.1-.63,3.59,3.59,0,0,1,2.89,1.22,5.33,5.33,0,0,1,1,3.5v.68h-6.44a3.43,3.43,0,0,0,.82,2.27,2.58,2.58,0,0,0,2,.87,2.77,2.77,0,0,0,1.46-.36,3.56,3.56,0,0,0,1.05-.93l1,.78A4,4,0,0,1,363.17,135Zm-.21-8.52a2.2,2.2,0,0,0-1.65.71,3.57,3.57,0,0,0-.83,2h4.77v-.12a3.09,3.09,0,0,0-.67-1.92A2.06,2.06,0,0,0,363,126.49Z" style="fill:#003e6e"/><path d="M370.28,125.33l.05,1a3.52,3.52,0,0,1,2.82-1.23,2.72,2.72,0,0,1,2.72,1.53,3.56,3.56,0,0,1,1.23-1.11,3.68,3.68,0,0,1,1.8-.42q3.12,0,3.18,3.32v6.37h-1.63v-6.28A2.16,2.16,0,0,0,380,127a2,2,0,0,0-1.57-.51,2.1,2.1,0,0,0-2.19,2v6.31h-1.64v-6.23a1.82,1.82,0,0,0-2-2.08,2.19,2.19,0,0,0-2.19,1.36v7h-1.62v-9.51Z" style="fill:#003e6e"/><path d="M392.57,130.19a5.72,5.72,0,0,1-1,3.5,3.19,3.19,0,0,1-2.69,1.32,3.46,3.46,0,0,1-2.72-1.1v4.58h-1.63V125.33H386l.08,1a3.34,3.34,0,0,1,2.76-1.23,3.25,3.25,0,0,1,2.71,1.29,5.81,5.81,0,0,1,1,3.6Zm-1.63-.19a4.18,4.18,0,0,0-.69-2.54,2.2,2.2,0,0,0-1.88-.93,2.39,2.39,0,0,0-2.21,1.31v4.55a2.4,2.4,0,0,0,2.23,1.3,2.2,2.2,0,0,0,1.86-.93A4.6,4.6,0,0,0,390.94,130Z" style="fill:#003e6e"/><path d="M398.58,135a4.15,4.15,0,0,1-3.15-1.27,4.69,4.69,0,0,1-1.21-3.39v-.3a5.7,5.7,0,0,1,.54-2.53,4.21,4.21,0,0,1,1.51-1.74,3.8,3.8,0,0,1,2.1-.63,3.59,3.59,0,0,1,2.89,1.22,5.33,5.33,0,0,1,1,3.5v.68h-6.45a3.39,3.39,0,0,0,.83,2.27,2.56,2.56,0,0,0,2,.87,2.75,2.75,0,0,0,1.46-.36,3.56,3.56,0,0,0,1.05-.93l1,.78A4,4,0,0,1,398.58,135Zm-.21-8.52a2.2,2.2,0,0,0-1.65.71,3.49,3.49,0,0,0-.82,2h4.76v-.12a3.09,3.09,0,0,0-.67-1.92A2.06,2.06,0,0,0,398.37,126.49Z" style="fill:#003e6e"/><path d="M408.76,126.79a4.92,4.92,0,0,0-.8-.06,2.14,2.14,0,0,0-2.17,1.36v6.75h-1.62v-9.51h1.58l0,1.1a2.52,2.52,0,0,1,2.26-1.28,1.52,1.52,0,0,1,.72.13Z" style="fill:#003e6e"/><path d="M415.78,134.84a3.26,3.26,0,0,1-.23-1,3.65,3.65,0,0,1-2.71,1.17,3.36,3.36,0,0,1-2.31-.79,2.57,2.57,0,0,1-.9-2,2.7,2.7,0,0,1,1.13-2.31,5.4,5.4,0,0,1,3.18-.82h1.58v-.75A1.81,1.81,0,0,0,415,127a2,2,0,0,0-1.5-.51,2.39,2.39,0,0,0-1.46.44,1.3,1.3,0,0,0-.59,1.06h-1.63a2.27,2.27,0,0,1,.5-1.37,3.56,3.56,0,0,1,1.37-1,4.59,4.59,0,0,1,1.91-.39,3.79,3.79,0,0,1,2.57.82,3,3,0,0,1,1,2.27v4.37a5.44,5.44,0,0,0,.33,2.09v.14Zm-2.7-1.24a2.81,2.81,0,0,0,1.45-.4,2.28,2.28,0,0,0,1-1v-1.95h-1.27c-2,0-3,.59-3,1.75a1.49,1.49,0,0,0,.51,1.2A2,2,0,0,0,413.08,133.6Z" style="fill:#003e6e"/><path d="M421.9,123v2.3h1.78v1.25H421.9v5.91a1.32,1.32,0,0,0,.24.86,1,1,0,0,0,.81.28,3.84,3.84,0,0,0,.77-.1v1.31a4.58,4.58,0,0,1-1.25.17,2,2,0,0,1-1.64-.66,2.82,2.82,0,0,1-.55-1.87v-5.9h-1.73v-1.25h1.73V123Z" style="fill:#003e6e"/><path d="M431.45,133.9a3.46,3.46,0,0,1-2.79,1.11,2.94,2.94,0,0,1-2.31-.88,3.84,3.84,0,0,1-.81-2.61v-6.19h1.63v6.14c0,1.44.58,2.16,1.76,2.16a2.42,2.42,0,0,0,2.47-1.39v-6.91H433v9.51h-1.55Z" style="fill:#003e6e"/><path d="M440.1,126.79a5.1,5.1,0,0,0-.8-.06,2.13,2.13,0,0,0-2.17,1.36v6.75H435.5v-9.51h1.58l0,1.1a2.53,2.53,0,0,1,2.27-1.28,1.57,1.57,0,0,1,.72.13Z" style="fill:#003e6e"/><path d="M445.37,135a4.15,4.15,0,0,1-3.15-1.27,4.69,4.69,0,0,1-1.21-3.39v-.3a5.7,5.7,0,0,1,.54-2.53,4.28,4.28,0,0,1,1.51-1.74,3.81,3.81,0,0,1,2.11-.63,3.58,3.58,0,0,1,2.88,1.22,5.28,5.28,0,0,1,1,3.5v.68h-6.44a3.33,3.33,0,0,0,.82,2.27,2.57,2.57,0,0,0,2,.87,2.8,2.8,0,0,0,1.46-.36,3.52,3.52,0,0,0,1-.93l1,.78A4,4,0,0,1,445.37,135Zm-.2-8.52a2.17,2.17,0,0,0-1.65.71,3.43,3.43,0,0,0-.83,2h4.76v-.12a3,3,0,0,0-.67-1.92A2,2,0,0,0,445.17,126.49Z" style="fill:#003e6e"/><path d="M315.92,153.66h-3v5.18h-1.7V146h4.24a5,5,0,0,1,3.33,1,3.54,3.54,0,0,1,1.16,2.86,3.43,3.43,0,0,1-.64,2.08,3.83,3.83,0,0,1-1.8,1.33l3,5.43v.11h-1.81Zm-3-1.38h2.59a2.93,2.93,0,0,0,2-.65,2.2,2.2,0,0,0,.74-1.74,2.34,2.34,0,0,0-.7-1.83,3,3,0,0,0-2.05-.64h-2.58Z" style="fill:#b0b574"/><path d="M326,159a4.15,4.15,0,0,1-3.15-1.27,4.69,4.69,0,0,1-1.21-3.39v-.3a5.7,5.7,0,0,1,.54-2.53,4.21,4.21,0,0,1,1.51-1.74,3.8,3.8,0,0,1,2.1-.63,3.59,3.59,0,0,1,2.89,1.22,5.33,5.33,0,0,1,1,3.5v.68h-6.45a3.39,3.39,0,0,0,.83,2.27,2.56,2.56,0,0,0,2,.87,2.75,2.75,0,0,0,1.46-.36,3.56,3.56,0,0,0,1-.93l1,.78A4,4,0,0,1,326,159Zm-.21-8.52a2.2,2.2,0,0,0-1.65.71,3.49,3.49,0,0,0-.82,2h4.76v-.12a3.09,3.09,0,0,0-.67-1.92A2.06,2.06,0,0,0,325.79,150.49Z" style="fill:#b0b574"/><path d="M337.12,156.32a1.2,1.2,0,0,0-.49-1,4.93,4.93,0,0,0-1.73-.63,7.65,7.65,0,0,1-2-.63,2.79,2.79,0,0,1-1.08-.88,2.1,2.1,0,0,1-.34-1.21,2.47,2.47,0,0,1,1-2,3.83,3.83,0,0,1,2.52-.81,4,4,0,0,1,2.63.84,2.64,2.64,0,0,1,1,2.13H337a1.47,1.47,0,0,0-.57-1.15,2.13,2.13,0,0,0-1.43-.48,2.29,2.29,0,0,0-1.39.38,1.24,1.24,0,0,0-.5,1,1,1,0,0,0,.47.88,5.65,5.65,0,0,0,1.68.57,9.25,9.25,0,0,1,2,.65,2.92,2.92,0,0,1,1.12.91,2.21,2.21,0,0,1,.37,1.3,2.42,2.42,0,0,1-1,2,4.23,4.23,0,0,1-2.65.77,4.79,4.79,0,0,1-2-.4,3.33,3.33,0,0,1-1.37-1.13,2.73,2.73,0,0,1-.5-1.57h1.63a1.67,1.67,0,0,0,.65,1.3,2.55,2.55,0,0,0,1.61.48,2.65,2.65,0,0,0,1.49-.38A1.14,1.14,0,0,0,337.12,156.32Z" style="fill:#b0b574"/><path d="M348.9,154.19a5.72,5.72,0,0,1-1,3.5,3.19,3.19,0,0,1-2.69,1.32,3.48,3.48,0,0,1-2.73-1.1v4.58h-1.62V149.33h1.48l.08,1a3.34,3.34,0,0,1,2.76-1.23,3.24,3.24,0,0,1,2.71,1.29,5.75,5.75,0,0,1,1,3.6Zm-1.62-.19a4.18,4.18,0,0,0-.69-2.54,2.21,2.21,0,0,0-1.88-.93,2.41,2.41,0,0,0-2.22,1.31v4.55a2.41,2.41,0,0,0,2.24,1.3,2.2,2.2,0,0,0,1.86-.93A4.6,4.6,0,0,0,347.28,154Z" style="fill:#b0b574"/><path d="M350.54,154a5.57,5.57,0,0,1,.55-2.51,4.05,4.05,0,0,1,1.52-1.72,4.14,4.14,0,0,1,2.24-.61A4,4,0,0,1,358,150.5a5.16,5.16,0,0,1,1.2,3.57v.12a5.61,5.61,0,0,1-.53,2.49,4,4,0,0,1-1.52,1.72,4.22,4.22,0,0,1-2.27.61,4,4,0,0,1-3.13-1.34,5.15,5.15,0,0,1-1.2-3.56Zm1.63.2a4.14,4.14,0,0,0,.73,2.54,2.49,2.49,0,0,0,3.94,0,4.52,4.52,0,0,0,.73-2.73,4,4,0,0,0-.75-2.53,2.46,2.46,0,0,0-3.91,0A4.4,4.4,0,0,0,352.17,154.19Z" style="fill:#b0b574"/><path d="M362.77,149.33l.05,1.19a3.49,3.49,0,0,1,2.85-1.37c2,0,3,1.14,3,3.4v6.29h-1.62v-6.3a2.26,2.26,0,0,0-.47-1.52,1.93,1.93,0,0,0-1.44-.49,2.36,2.36,0,0,0-1.39.42,2.87,2.87,0,0,0-.93,1.11v6.78h-1.63v-9.51Z" style="fill:#b0b574"/><path d="M376.7,156.32a1.18,1.18,0,0,0-.5-1,4.85,4.85,0,0,0-1.73-.63,7.92,7.92,0,0,1-2-.63,2.83,2.83,0,0,1-1.07-.88,2.1,2.1,0,0,1-.35-1.21,2.47,2.47,0,0,1,1-2,3.86,3.86,0,0,1,2.53-.81,3.94,3.94,0,0,1,2.62.84,2.65,2.65,0,0,1,1,2.13H376.6A1.46,1.46,0,0,0,376,151a2.15,2.15,0,0,0-1.43-.48,2.27,2.27,0,0,0-1.39.38,1.24,1.24,0,0,0-.5,1,1,1,0,0,0,.47.88,5.65,5.65,0,0,0,1.68.57,9.25,9.25,0,0,1,2,.65,2.92,2.92,0,0,1,1.12.91,2.21,2.21,0,0,1,.37,1.3,2.42,2.42,0,0,1-1,2,4.23,4.23,0,0,1-2.65.77,4.79,4.79,0,0,1-2-.4,3.36,3.36,0,0,1-1.38-1.13,2.72,2.72,0,0,1-.49-1.57h1.62a1.68,1.68,0,0,0,.66,1.3,2.53,2.53,0,0,0,1.61.48,2.6,2.6,0,0,0,1.48-.38A1.15,1.15,0,0,0,376.7,156.32Z" style="fill:#b0b574"/><path d="M384.39,159a4.15,4.15,0,0,1-3.15-1.27,4.73,4.73,0,0,1-1.21-3.39v-.3a5.7,5.7,0,0,1,.54-2.53,4.28,4.28,0,0,1,1.51-1.74,3.81,3.81,0,0,1,2.11-.63,3.56,3.56,0,0,1,2.88,1.22,5.28,5.28,0,0,1,1,3.5v.68h-6.44a3.38,3.38,0,0,0,.82,2.27,2.57,2.57,0,0,0,2,.87,2.8,2.8,0,0,0,1.46-.36,3.4,3.4,0,0,0,1-.93l1,.78A4,4,0,0,1,384.39,159Zm-.2-8.52a2.17,2.17,0,0,0-1.65.71,3.5,3.5,0,0,0-.83,2h4.76v-.12a3.08,3.08,0,0,0-.66-1.92A2.06,2.06,0,0,0,384.19,150.49Z" style="fill:#b0b574"/><path d="M389.93,158a1,1,0,0,1,.25-.71,1,1,0,0,1,.75-.28,1,1,0,0,1,.76.28,1,1,0,0,1,.26.71,1,1,0,0,1-.26.67,1,1,0,0,1-.76.27,1,1,0,0,1-.75-.27A1,1,0,0,1,389.93,158Zm0-7.77a1,1,0,0,1,.25-.7.94.94,0,0,1,.75-.28,1,1,0,0,1,.76.28,1,1,0,0,1,.26.7,1,1,0,0,1-.26.68,1,1,0,0,1-.76.27,1,1,0,0,1-.75-.27A1,1,0,0,1,389.94,150.22Z" style="fill:#b0b574"/><path d="M400,145.17l.93.63a4.14,4.14,0,0,0-.84,2.41v1.2h-1.62v-1a4,4,0,0,1,.43-1.78A4.31,4.31,0,0,1,400,145.17Zm2.77,0,.93.63a4.08,4.08,0,0,0-.84,2.41v1.2h-1.62v-1a4.11,4.11,0,0,1,.42-1.78A4.47,4.47,0,0,1,402.78,145.17Z" style="fill:#b0b574"/><path d="M413.38,158.84H405v-1.17l4.43-4.92a10.47,10.47,0,0,0,1.36-1.82,3,3,0,0,0,.37-1.44,2.33,2.33,0,0,0-.6-1.65,2.13,2.13,0,0,0-1.62-.64,2.48,2.48,0,0,0-1.88.69,2.63,2.63,0,0,0-.68,1.92h-1.62a3.81,3.81,0,0,1,1.13-2.86,4.26,4.26,0,0,1,3.05-1.09,4.07,4.07,0,0,1,2.82.94,3.2,3.2,0,0,1,1,2.49q0,1.89-2.41,4.5L407,157.51h6.43Z" style="fill:#b0b574"/><path d="M423.12,153.38a7.42,7.42,0,0,1-1,4.24,4.06,4.06,0,0,1-6.08,0,7,7,0,0,1-1-4.06v-2.17a7.26,7.26,0,0,1,1-4.19,3.49,3.49,0,0,1,3.06-1.38,3.53,3.53,0,0,1,3,1.33,7,7,0,0,1,1,4.08Zm-1.62-2.22a5.91,5.91,0,0,0-.58-3,2,2,0,0,0-1.84-1,2,2,0,0,0-1.82.94,5.92,5.92,0,0,0-.59,2.89v2.6a6,6,0,0,0,.61,3.07,2.17,2.17,0,0,0,3.61.05,5.85,5.85,0,0,0,.61-2.93Z" style="fill:#b0b574"/><path d="M425.29,148.15a2.27,2.27,0,0,1,.65-1.6,2.12,2.12,0,0,1,1.59-.69,2.06,2.06,0,0,1,1.56.69,2.23,2.23,0,0,1,.64,1.6,2.19,2.19,0,0,1-.64,1.59,2.1,2.1,0,0,1-1.56.66,2.15,2.15,0,0,1-1.58-.66A2.17,2.17,0,0,1,425.29,148.15Zm2.24,1.13a1.13,1.13,0,0,0,.8-.32,1.07,1.07,0,0,0,.32-.81,1.16,1.16,0,0,0-.32-.83,1.14,1.14,0,0,0-1.62,0,1.17,1.17,0,0,0-.32.81,1.09,1.09,0,0,0,.32.8A1.12,1.12,0,0,0,427.53,149.28Z" style="fill:#b0b574"/><path d="M446.22,154.78a4.73,4.73,0,0,1-1.5,3.13,4.87,4.87,0,0,1-3.35,1.1,4.51,4.51,0,0,1-3.63-1.62,6.57,6.57,0,0,1-1.37-4.35v-1.23a7.22,7.22,0,0,1,.64-3.14,4.71,4.71,0,0,1,1.8-2.08,5.06,5.06,0,0,1,2.71-.73,4.62,4.62,0,0,1,3.27,1.14,4.75,4.75,0,0,1,1.43,3.15h-1.69a3.7,3.7,0,0,0-1-2.22,2.87,2.87,0,0,0-2.05-.69,3,3,0,0,0-2.54,1.2,5.51,5.51,0,0,0-.91,3.41v1.24a5.62,5.62,0,0,0,.87,3.31,2.81,2.81,0,0,0,2.43,1.23,3.27,3.27,0,0,0,2.16-.63,3.6,3.6,0,0,0,1-2.22Z" style="fill:#b0b574"/><path d="M449.48,145.17l.93.63a4.22,4.22,0,0,0-.84,2.41v1.2H448v-1a4.12,4.12,0,0,1,.43-1.78A4.31,4.31,0,0,1,449.48,145.17Zm2.77,0,.93.63a4.22,4.22,0,0,0-.84,2.41v1.2h-1.62v-1a4,4,0,0,1,.43-1.78A4.31,4.31,0,0,1,452.25,145.17Z" style="fill:#b0b574"/><circle cx="234.02" cy="139.83" r="12.65" style="fill:gray"/><path d="M238.42,146H230v-1.17l4.43-4.92a10.47,10.47,0,0,0,1.36-1.82,3,3,0,0,0,.37-1.45,2.32,2.32,0,0,0-.6-1.64,2.13,2.13,0,0,0-1.62-.64,2.52,2.52,0,0,0-1.89.69,2.67,2.67,0,0,0-.67,1.92h-1.62a3.81,3.81,0,0,1,1.13-2.86A4.26,4.26,0,0,1,234,133a4.07,4.07,0,0,1,2.82.94,3.19,3.19,0,0,1,1,2.49q0,1.89-2.41,4.5L232,144.65h6.43Z" style="fill:#fff"/><line x1="499.83" y1="236.34" x2="268.57" y2="236.34" style="fill:none;stroke:#b0b574;stroke-miterlimit:10;stroke-width:2px"/><polygon points="270.76 228.86 257.81 236.34 270.76 243.82 270.76 228.86" style="fill:#b0b574"/><rect x="304.17" y="221.48" width="151.31" height="24" style="fill:#fff"/><line x1="255.86" y1="212.84" x2="491.74" y2="212.84" style="fill:none;stroke:#003e6e;stroke-miterlimit:10;stroke-width:2px"/><polygon points="489.55 220.32 502.5 212.84 489.55 205.36 489.55 220.32" style="fill:#003e6e"/><rect x="303.64" y="199.48" width="151.84" height="24" style="fill:#fff"/><path d="M312.58,212.83v5H310.9V205h4.72a4.77,4.77,0,0,1,3.29,1.07A3.65,3.65,0,0,1,320.1,209a3.58,3.58,0,0,1-1.17,2.87,4.93,4.93,0,0,1-3.33,1Zm0-1.38h3a3,3,0,0,0,2.07-.64,2.34,2.34,0,0,0,.72-1.84,2.43,2.43,0,0,0-.72-1.84,2.89,2.89,0,0,0-2-.71h-3.13Z" style="fill:#003e6e"/><path d="M321.45,213a5.71,5.71,0,0,1,.55-2.51,4.06,4.06,0,0,1,3.77-2.33,4,4,0,0,1,3.14,1.35,5.16,5.16,0,0,1,1.2,3.57v.12a5.75,5.75,0,0,1-.53,2.49,4,4,0,0,1-1.52,1.72,4.22,4.22,0,0,1-2.27.61,4,4,0,0,1-3.14-1.34,5.15,5.15,0,0,1-1.2-3.56Zm1.64.2a4.07,4.07,0,0,0,.73,2.54,2.48,2.48,0,0,0,3.93,0,4.45,4.45,0,0,0,.73-2.73,4,4,0,0,0-.74-2.53,2.46,2.46,0,0,0-3.91,0A4.34,4.34,0,0,0,323.09,213.19Z" style="fill:#003e6e"/><path d="M333.92,217.84h-1.63v-13.5h1.63Z" style="fill:#003e6e"/><path d="M338.28,217.84h-1.62v-13.5h1.62Z" style="fill:#003e6e"/><path d="M340.83,217a1.06,1.06,0,0,1,.25-.71,1.16,1.16,0,0,1,1.51,0,1,1,0,0,1,.26.71.91.91,0,0,1-.26.67,1,1,0,0,1-1.76-.67Zm0-7.77a1,1,0,0,1,.25-.7,1.16,1.16,0,0,1,1.51,0,1,1,0,0,1,.26.7.92.92,0,0,1-.26.68,1.19,1.19,0,0,1-1.51,0A1,1,0,0,1,340.84,209.22Z" style="fill:#003e6e"/><path d="M358.45,206.42h-4.12v11.42h-1.68V206.42h-4.1V205h9.9Z" style="fill:#003e6e"/><path d="M363.17,218a4.15,4.15,0,0,1-3.15-1.27,4.69,4.69,0,0,1-1.21-3.39v-.3a5.7,5.7,0,0,1,.54-2.53,4.21,4.21,0,0,1,1.51-1.74,3.8,3.8,0,0,1,2.1-.63,3.59,3.59,0,0,1,2.89,1.22,5.33,5.33,0,0,1,1,3.5v.68h-6.44a3.43,3.43,0,0,0,.82,2.27,2.58,2.58,0,0,0,2,.87,2.77,2.77,0,0,0,1.46-.36,3.56,3.56,0,0,0,1.05-.93l1,.78A4,4,0,0,1,363.17,218Zm-.21-8.52a2.2,2.2,0,0,0-1.65.71,3.57,3.57,0,0,0-.83,2h4.77v-.12a3.09,3.09,0,0,0-.67-1.92A2.06,2.06,0,0,0,363,209.49Z" style="fill:#003e6e"/><path d="M370.28,208.33l.05,1a3.52,3.52,0,0,1,2.82-1.23,2.72,2.72,0,0,1,2.72,1.53,3.56,3.56,0,0,1,1.23-1.11,3.68,3.68,0,0,1,1.8-.42q3.12,0,3.18,3.32v6.37h-1.63v-6.28A2.16,2.16,0,0,0,380,210a2,2,0,0,0-1.57-.51,2.1,2.1,0,0,0-2.19,2v6.31h-1.64v-6.23a1.82,1.82,0,0,0-2-2.08,2.19,2.19,0,0,0-2.19,1.36v7h-1.62v-9.51Z" style="fill:#003e6e"/><path d="M392.57,213.19a5.72,5.72,0,0,1-1,3.5,3.19,3.19,0,0,1-2.69,1.32,3.46,3.46,0,0,1-2.72-1.1v4.58h-1.63V208.33H386l.08,1a3.34,3.34,0,0,1,2.76-1.23,3.25,3.25,0,0,1,2.71,1.29,5.81,5.81,0,0,1,1,3.6Zm-1.63-.19a4.18,4.18,0,0,0-.69-2.54,2.2,2.2,0,0,0-1.88-.93,2.39,2.39,0,0,0-2.21,1.31v4.55a2.4,2.4,0,0,0,2.23,1.3,2.2,2.2,0,0,0,1.86-.93A4.6,4.6,0,0,0,390.94,213Z" style="fill:#003e6e"/><path d="M398.58,218a4.15,4.15,0,0,1-3.15-1.27,4.69,4.69,0,0,1-1.21-3.39v-.3a5.7,5.7,0,0,1,.54-2.53,4.21,4.21,0,0,1,1.51-1.74,3.8,3.8,0,0,1,2.1-.63,3.59,3.59,0,0,1,2.89,1.22,5.33,5.33,0,0,1,1,3.5v.68h-6.45a3.39,3.39,0,0,0,.83,2.27,2.56,2.56,0,0,0,2,.87,2.75,2.75,0,0,0,1.46-.36,3.56,3.56,0,0,0,1.05-.93l1,.78A4,4,0,0,1,398.58,218Zm-.21-8.52a2.2,2.2,0,0,0-1.65.71,3.49,3.49,0,0,0-.82,2h4.76v-.12a3.09,3.09,0,0,0-.67-1.92A2.06,2.06,0,0,0,398.37,209.49Z" style="fill:#003e6e"/><path d="M408.76,209.79a4.92,4.92,0,0,0-.8-.06,2.14,2.14,0,0,0-2.17,1.36v6.75h-1.62v-9.51h1.58l0,1.1a2.52,2.52,0,0,1,2.26-1.28,1.52,1.52,0,0,1,.72.13Z" style="fill:#003e6e"/><path d="M415.78,217.84a3.26,3.26,0,0,1-.23-1,3.65,3.65,0,0,1-2.71,1.17,3.36,3.36,0,0,1-2.31-.79,2.57,2.57,0,0,1-.9-2,2.7,2.7,0,0,1,1.13-2.31,5.4,5.4,0,0,1,3.18-.82h1.58v-.75A1.81,1.81,0,0,0,415,210a2,2,0,0,0-1.5-.51,2.39,2.39,0,0,0-1.46.44,1.3,1.3,0,0,0-.59,1.06h-1.63a2.27,2.27,0,0,1,.5-1.37,3.56,3.56,0,0,1,1.37-1.05,4.59,4.59,0,0,1,1.91-.39,3.79,3.79,0,0,1,2.57.82,3,3,0,0,1,1,2.27v4.37a5.44,5.44,0,0,0,.33,2.09v.14Zm-2.7-1.24a2.81,2.81,0,0,0,1.45-.4,2.28,2.28,0,0,0,1-1v-1.95h-1.27c-2,0-3,.59-3,1.75a1.49,1.49,0,0,0,.51,1.2A2,2,0,0,0,413.08,216.6Z" style="fill:#003e6e"/><path d="M421.9,206v2.3h1.78v1.25H421.9v5.91a1.32,1.32,0,0,0,.24.86,1,1,0,0,0,.81.28,3.84,3.84,0,0,0,.77-.1v1.31a4.58,4.58,0,0,1-1.25.17,2,2,0,0,1-1.64-.66,2.82,2.82,0,0,1-.55-1.87v-5.9h-1.73v-1.25h1.73V206Z" style="fill:#003e6e"/><path d="M431.45,216.9a3.46,3.46,0,0,1-2.79,1.11,2.94,2.94,0,0,1-2.31-.88,3.84,3.84,0,0,1-.81-2.61v-6.19h1.63v6.14c0,1.44.58,2.16,1.76,2.16a2.42,2.42,0,0,0,2.47-1.39v-6.91H433v9.51h-1.55Z" style="fill:#003e6e"/><path d="M440.1,209.79a5.1,5.1,0,0,0-.8-.06,2.13,2.13,0,0,0-2.17,1.36v6.75H435.5v-9.51h1.58l0,1.1a2.53,2.53,0,0,1,2.27-1.28,1.57,1.57,0,0,1,.72.13Z" style="fill:#003e6e"/><path d="M445.37,218a4.15,4.15,0,0,1-3.15-1.27,4.69,4.69,0,0,1-1.21-3.39v-.3a5.7,5.7,0,0,1,.54-2.53,4.28,4.28,0,0,1,1.51-1.74,3.81,3.81,0,0,1,2.11-.63,3.58,3.58,0,0,1,2.88,1.22,5.28,5.28,0,0,1,1,3.5v.68h-6.44a3.33,3.33,0,0,0,.82,2.27,2.57,2.57,0,0,0,2,.87,2.8,2.8,0,0,0,1.46-.36,3.52,3.52,0,0,0,1-.93l1,.78A4,4,0,0,1,445.37,218Zm-.2-8.52a2.17,2.17,0,0,0-1.65.71,3.43,3.43,0,0,0-.83,2h4.76v-.12a3,3,0,0,0-.67-1.92A2,2,0,0,0,445.17,209.49Z" style="fill:#003e6e"/><path d="M315.92,236.66h-3v5.18h-1.7V229h4.24a5,5,0,0,1,3.33,1,3.54,3.54,0,0,1,1.16,2.86,3.43,3.43,0,0,1-.64,2.08,3.83,3.83,0,0,1-1.8,1.33l3,5.43v.11h-1.81Zm-3-1.38h2.59a2.93,2.93,0,0,0,2-.65,2.2,2.2,0,0,0,.74-1.74,2.34,2.34,0,0,0-.7-1.83,3,3,0,0,0-2.05-.64h-2.58Z" style="fill:#b0b574"/><path d="M326,242a4.15,4.15,0,0,1-3.15-1.27,4.69,4.69,0,0,1-1.21-3.39v-.3a5.7,5.7,0,0,1,.54-2.53,4.21,4.21,0,0,1,1.51-1.74,3.8,3.8,0,0,1,2.1-.63,3.59,3.59,0,0,1,2.89,1.22,5.33,5.33,0,0,1,1,3.5v.68h-6.45a3.39,3.39,0,0,0,.83,2.27,2.56,2.56,0,0,0,2,.87,2.75,2.75,0,0,0,1.46-.36,3.56,3.56,0,0,0,1-.93l1,.78A4,4,0,0,1,326,242Zm-.21-8.52a2.2,2.2,0,0,0-1.65.71,3.49,3.49,0,0,0-.82,2h4.76v-.12a3.09,3.09,0,0,0-.67-1.92A2.06,2.06,0,0,0,325.79,233.49Z" style="fill:#b0b574"/><path d="M337.12,239.32a1.2,1.2,0,0,0-.49-1,4.93,4.93,0,0,0-1.73-.63,7.65,7.65,0,0,1-2-.63,2.79,2.79,0,0,1-1.08-.88,2.1,2.1,0,0,1-.34-1.21,2.47,2.47,0,0,1,1-2,3.83,3.83,0,0,1,2.52-.81,4,4,0,0,1,2.63.84,2.64,2.64,0,0,1,1,2.13H337a1.47,1.47,0,0,0-.57-1.15,2.13,2.13,0,0,0-1.43-.48,2.29,2.29,0,0,0-1.39.38,1.24,1.24,0,0,0-.5,1,1,1,0,0,0,.47.88,5.65,5.65,0,0,0,1.68.57,9.25,9.25,0,0,1,2,.65,2.92,2.92,0,0,1,1.12.91,2.21,2.21,0,0,1,.37,1.3,2.42,2.42,0,0,1-1,2,4.23,4.23,0,0,1-2.65.77,4.79,4.79,0,0,1-2-.4,3.33,3.33,0,0,1-1.37-1.13,2.73,2.73,0,0,1-.5-1.57h1.63a1.67,1.67,0,0,0,.65,1.3,2.55,2.55,0,0,0,1.61.48,2.65,2.65,0,0,0,1.49-.38A1.14,1.14,0,0,0,337.12,239.32Z" style="fill:#b0b574"/><path d="M348.9,237.19a5.72,5.72,0,0,1-1,3.5,3.19,3.19,0,0,1-2.69,1.32,3.48,3.48,0,0,1-2.73-1.1v4.58h-1.62V232.33h1.48l.08,1a3.34,3.34,0,0,1,2.76-1.23,3.24,3.24,0,0,1,2.71,1.29,5.75,5.75,0,0,1,1,3.6Zm-1.62-.19a4.18,4.18,0,0,0-.69-2.54,2.21,2.21,0,0,0-1.88-.93,2.41,2.41,0,0,0-2.22,1.31v4.55a2.41,2.41,0,0,0,2.24,1.3,2.2,2.2,0,0,0,1.86-.93A4.6,4.6,0,0,0,347.28,237Z" style="fill:#b0b574"/><path d="M350.54,237a5.57,5.57,0,0,1,.55-2.51,4.05,4.05,0,0,1,1.52-1.72,4.14,4.14,0,0,1,2.24-.61A4,4,0,0,1,358,233.5a5.16,5.16,0,0,1,1.2,3.57v.12a5.61,5.61,0,0,1-.53,2.49,4,4,0,0,1-1.52,1.72,4.22,4.22,0,0,1-2.27.61,4,4,0,0,1-3.13-1.34,5.15,5.15,0,0,1-1.2-3.56Zm1.63.2a4.14,4.14,0,0,0,.73,2.54,2.49,2.49,0,0,0,3.94,0,4.52,4.52,0,0,0,.73-2.73,4,4,0,0,0-.75-2.53,2.46,2.46,0,0,0-3.91,0A4.4,4.4,0,0,0,352.17,237.19Z" style="fill:#b0b574"/><path d="M362.77,232.33l.05,1.19a3.49,3.49,0,0,1,2.85-1.37c2,0,3,1.14,3,3.4v6.29h-1.62v-6.3a2.26,2.26,0,0,0-.47-1.52,1.93,1.93,0,0,0-1.44-.49,2.36,2.36,0,0,0-1.39.42,2.87,2.87,0,0,0-.93,1.11v6.78h-1.63v-9.51Z" style="fill:#b0b574"/><path d="M376.7,239.32a1.18,1.18,0,0,0-.5-1,4.85,4.85,0,0,0-1.73-.63,7.92,7.92,0,0,1-2-.63,2.83,2.83,0,0,1-1.07-.88,2.1,2.1,0,0,1-.35-1.21,2.47,2.47,0,0,1,1-2,3.86,3.86,0,0,1,2.53-.81,3.94,3.94,0,0,1,2.62.84,2.65,2.65,0,0,1,1,2.13H376.6A1.46,1.46,0,0,0,376,234a2.15,2.15,0,0,0-1.43-.48,2.27,2.27,0,0,0-1.39.38,1.24,1.24,0,0,0-.5,1,1,1,0,0,0,.47.88,5.65,5.65,0,0,0,1.68.57,9.25,9.25,0,0,1,2,.65,2.92,2.92,0,0,1,1.12.91,2.21,2.21,0,0,1,.37,1.3,2.42,2.42,0,0,1-1,2,4.23,4.23,0,0,1-2.65.77,4.79,4.79,0,0,1-2-.4,3.36,3.36,0,0,1-1.38-1.13,2.72,2.72,0,0,1-.49-1.57h1.62a1.68,1.68,0,0,0,.66,1.3,2.53,2.53,0,0,0,1.61.48,2.6,2.6,0,0,0,1.48-.38A1.15,1.15,0,0,0,376.7,239.32Z" style="fill:#b0b574"/><path d="M384.39,242a4.15,4.15,0,0,1-3.15-1.27,4.73,4.73,0,0,1-1.21-3.39v-.3a5.7,5.7,0,0,1,.54-2.53,4.28,4.28,0,0,1,1.51-1.74,3.81,3.81,0,0,1,2.11-.63,3.56,3.56,0,0,1,2.88,1.22,5.28,5.28,0,0,1,1,3.5v.68h-6.44a3.38,3.38,0,0,0,.82,2.27,2.57,2.57,0,0,0,2,.87,2.8,2.8,0,0,0,1.46-.36,3.4,3.4,0,0,0,1-.93l1,.78A4,4,0,0,1,384.39,242Zm-.2-8.52a2.17,2.17,0,0,0-1.65.71,3.5,3.5,0,0,0-.83,2h4.76v-.12a3.08,3.08,0,0,0-.66-1.92A2.06,2.06,0,0,0,384.19,233.49Z" style="fill:#b0b574"/><path d="M389.93,241a1,1,0,0,1,.25-.71,1,1,0,0,1,.75-.28,1,1,0,0,1,.76.28,1,1,0,0,1,.26.71,1,1,0,0,1-.26.67,1,1,0,0,1-.76.27,1,1,0,0,1-.75-.27A1,1,0,0,1,389.93,241Zm0-7.77a1,1,0,0,1,.25-.7.94.94,0,0,1,.75-.28,1,1,0,0,1,.76.28,1,1,0,0,1,.26.7,1,1,0,0,1-.26.68,1,1,0,0,1-.76.27,1,1,0,0,1-.75-.27A1,1,0,0,1,389.94,233.22Z" style="fill:#b0b574"/><path d="M400,228.17l.93.63a4.14,4.14,0,0,0-.84,2.41v1.2h-1.62v-1a4,4,0,0,1,.43-1.78A4.31,4.31,0,0,1,400,228.17Zm2.77,0,.93.63a4.08,4.08,0,0,0-.84,2.41v1.2h-1.62v-1a4.11,4.11,0,0,1,.42-1.78A4.47,4.47,0,0,1,402.78,228.17Z" style="fill:#b0b574"/><path d="M413.38,241.84H405v-1.17l4.43-4.92a10.47,10.47,0,0,0,1.36-1.82,3,3,0,0,0,.37-1.44,2.33,2.33,0,0,0-.6-1.65,2.13,2.13,0,0,0-1.62-.64,2.48,2.48,0,0,0-1.88.69,2.63,2.63,0,0,0-.68,1.92h-1.62a3.81,3.81,0,0,1,1.13-2.86,4.26,4.26,0,0,1,3.05-1.09,4.07,4.07,0,0,1,2.82.94,3.2,3.2,0,0,1,1,2.49q0,1.89-2.41,4.5L407,240.51h6.43Z" style="fill:#b0b574"/><path d="M423.12,236.38a7.42,7.42,0,0,1-1,4.24,4.06,4.06,0,0,1-6.08,0,7,7,0,0,1-1-4.06v-2.17a7.26,7.26,0,0,1,1-4.19,3.49,3.49,0,0,1,3.06-1.38,3.53,3.53,0,0,1,3,1.33,7,7,0,0,1,1,4.08Zm-1.62-2.22a5.91,5.91,0,0,0-.58-3,2,2,0,0,0-1.84-1,2,2,0,0,0-1.82.94,5.92,5.92,0,0,0-.59,2.89v2.6a6,6,0,0,0,.61,3.07,2.17,2.17,0,0,0,3.61.05,5.85,5.85,0,0,0,.61-2.93Z" style="fill:#b0b574"/><path d="M425.29,231.15a2.27,2.27,0,0,1,.65-1.6,2.12,2.12,0,0,1,1.59-.69,2.06,2.06,0,0,1,1.56.69,2.23,2.23,0,0,1,.64,1.6,2.19,2.19,0,0,1-.64,1.59,2.1,2.1,0,0,1-1.56.66,2.15,2.15,0,0,1-1.58-.66A2.17,2.17,0,0,1,425.29,231.15Zm2.24,1.13a1.13,1.13,0,0,0,.8-.32,1.07,1.07,0,0,0,.32-.81,1.16,1.16,0,0,0-.32-.83,1.14,1.14,0,0,0-1.62,0,1.17,1.17,0,0,0-.32.81,1.09,1.09,0,0,0,.32.8A1.12,1.12,0,0,0,427.53,232.28Z" style="fill:#b0b574"/><path d="M446.22,237.78a4.73,4.73,0,0,1-1.5,3.13,4.87,4.87,0,0,1-3.35,1.1,4.51,4.51,0,0,1-3.63-1.62,6.57,6.57,0,0,1-1.37-4.35v-1.23a7.22,7.22,0,0,1,.64-3.14,4.71,4.71,0,0,1,1.8-2.08,5.06,5.06,0,0,1,2.71-.73,4.62,4.62,0,0,1,3.27,1.14,4.75,4.75,0,0,1,1.43,3.15h-1.69a3.7,3.7,0,0,0-1-2.22,2.87,2.87,0,0,0-2.05-.69,3,3,0,0,0-2.54,1.2,5.51,5.51,0,0,0-.91,3.41v1.24a5.62,5.62,0,0,0,.87,3.31,2.81,2.81,0,0,0,2.43,1.23,3.27,3.27,0,0,0,2.16-.63,3.6,3.6,0,0,0,1-2.22Z" style="fill:#b0b574"/><path d="M449.48,228.17l.93.63a4.22,4.22,0,0,0-.84,2.41v1.2H448v-1a4.12,4.12,0,0,1,.43-1.78A4.31,4.31,0,0,1,449.48,228.17Zm2.77,0,.93.63a4.22,4.22,0,0,0-.84,2.41v1.2h-1.62v-1a4,4,0,0,1,.43-1.78A4.31,4.31,0,0,1,452.25,228.17Z" style="fill:#b0b574"/><circle cx="234.02" cy="224" r="12.65" style="fill:gray"/><path d="M232.4,223h1.22a2.64,2.64,0,0,0,1.81-.61,2,2,0,0,0,.66-1.59,2,2,0,0,0-2.24-2.25,2.31,2.31,0,0,0-1.69.61,2.09,2.09,0,0,0-.63,1.59h-1.62a3.29,3.29,0,0,1,1.11-2.53,4.59,4.59,0,0,1,5.67,0,3.45,3.45,0,0,1,1,2.66,2.83,2.83,0,0,1-.54,1.62,3.29,3.29,0,0,1-1.47,1.17,3,3,0,0,1,2.21,3,3.52,3.52,0,0,1-1.13,2.74,4.21,4.21,0,0,1-2.92,1,4.35,4.35,0,0,1-2.94-1,3.24,3.24,0,0,1-1.13-2.57h1.64a2.07,2.07,0,0,0,.66,1.61,2.9,2.9,0,0,0,3.57,0,2.39,2.39,0,0,0,.62-1.76,2.18,2.18,0,0,0-.68-1.72,3,3,0,0,0-2-.61H232.4Z" style="fill:#fff"/><line x1="499.83" y1="356.34" x2="268.57" y2="356.34" style="fill:none;stroke:#f60;stroke-miterlimit:10;stroke-width:2px"/><polygon points="270.76 348.86 257.81 356.34 270.76 363.82 270.76 348.86" style="fill:#f60"/><rect x="304.17" y="341.48" width="151.31" height="24" style="fill:#fff"/><line x1="255.86" y1="332.84" x2="491.74" y2="332.84" style="fill:none;stroke:#003e6e;stroke-miterlimit:10;stroke-width:2px"/><polygon points="489.55 340.32 502.5 332.84 489.55 325.36 489.55 340.32" style="fill:#003e6e"/><rect x="303.64" y="319.48" width="151.84" height="24" style="fill:#fff"/><path d="M312.58,332.83v5H310.9V325h4.72a4.77,4.77,0,0,1,3.29,1.07A3.65,3.65,0,0,1,320.1,329a3.58,3.58,0,0,1-1.17,2.87,4.93,4.93,0,0,1-3.33,1Zm0-1.38h3a3.05,3.05,0,0,0,2.07-.64,2.34,2.34,0,0,0,.72-1.84,2.43,2.43,0,0,0-.72-1.84,2.89,2.89,0,0,0-2-.71h-3.13Z" style="fill:#003e6e"/><path d="M321.45,333a5.68,5.68,0,0,1,.55-2.51,4.06,4.06,0,0,1,3.77-2.33,4,4,0,0,1,3.14,1.35,5.16,5.16,0,0,1,1.2,3.57v.12a5.75,5.75,0,0,1-.53,2.49,4,4,0,0,1-1.52,1.72,4.22,4.22,0,0,1-2.27.61,4,4,0,0,1-3.14-1.34,5.15,5.15,0,0,1-1.2-3.56Zm1.64.2a4.07,4.07,0,0,0,.73,2.54,2.48,2.48,0,0,0,3.93,0,4.45,4.45,0,0,0,.73-2.73,4,4,0,0,0-.74-2.53,2.46,2.46,0,0,0-3.91,0A4.34,4.34,0,0,0,323.09,333.19Z" style="fill:#003e6e"/><path d="M333.92,337.84h-1.63v-13.5h1.63Z" style="fill:#003e6e"/><path d="M338.28,337.84h-1.62v-13.5h1.62Z" style="fill:#003e6e"/><path d="M340.83,337a1.05,1.05,0,0,1,.25-.7,1.16,1.16,0,0,1,1.51,0,1,1,0,0,1,.26.7.92.92,0,0,1-.26.68,1,1,0,0,1-1.76-.68Zm0-7.76a1,1,0,0,1,.25-.7,1.16,1.16,0,0,1,1.51,0,1,1,0,0,1,.26.7.92.92,0,0,1-.26.68,1.19,1.19,0,0,1-1.51,0A1,1,0,0,1,340.84,329.22Z" style="fill:#003e6e"/><path d="M358.45,326.42h-4.12v11.42h-1.68V326.42h-4.1V325h9.9Z" style="fill:#003e6e"/><path d="M363.17,338a4.15,4.15,0,0,1-3.15-1.27,4.69,4.69,0,0,1-1.21-3.39v-.3a5.7,5.7,0,0,1,.54-2.53,4.21,4.21,0,0,1,1.51-1.74,3.8,3.8,0,0,1,2.1-.63,3.59,3.59,0,0,1,2.89,1.22,5.33,5.33,0,0,1,1,3.5v.68h-6.44a3.43,3.43,0,0,0,.82,2.27,2.58,2.58,0,0,0,2,.87,2.77,2.77,0,0,0,1.46-.36,3.56,3.56,0,0,0,1.05-.93l1,.78A4,4,0,0,1,363.17,338Zm-.21-8.52a2.2,2.2,0,0,0-1.65.71,3.57,3.57,0,0,0-.83,2h4.77v-.12a3.09,3.09,0,0,0-.67-1.92A2.06,2.06,0,0,0,363,329.49Z" style="fill:#003e6e"/><path d="M370.28,328.33l.05,1.05a3.52,3.52,0,0,1,2.82-1.23,2.72,2.72,0,0,1,2.72,1.53,3.56,3.56,0,0,1,1.23-1.11,3.68,3.68,0,0,1,1.8-.42q3.12,0,3.18,3.32v6.37h-1.63v-6.28A2.16,2.16,0,0,0,380,330a2,2,0,0,0-1.57-.51,2.1,2.1,0,0,0-2.19,2v6.31h-1.64v-6.23a1.82,1.82,0,0,0-2-2.08,2.19,2.19,0,0,0-2.19,1.36v6.95h-1.62v-9.51Z" style="fill:#003e6e"/><path d="M392.57,333.19a5.74,5.74,0,0,1-1,3.5,3.19,3.19,0,0,1-2.69,1.32,3.46,3.46,0,0,1-2.72-1.1v4.58h-1.63V328.33H386l.08,1.05a3.34,3.34,0,0,1,2.76-1.23,3.25,3.25,0,0,1,2.71,1.29,5.79,5.79,0,0,1,1,3.6Zm-1.63-.19a4.18,4.18,0,0,0-.69-2.54,2.2,2.2,0,0,0-1.88-.93,2.39,2.39,0,0,0-2.21,1.31v4.54a2.39,2.39,0,0,0,2.23,1.31,2.2,2.2,0,0,0,1.86-.93A4.6,4.6,0,0,0,390.94,333Z" style="fill:#003e6e"/><path d="M398.58,338a4.15,4.15,0,0,1-3.15-1.27,4.69,4.69,0,0,1-1.21-3.39v-.3a5.7,5.7,0,0,1,.54-2.53,4.21,4.21,0,0,1,1.51-1.74,3.8,3.8,0,0,1,2.1-.63,3.59,3.59,0,0,1,2.89,1.22,5.33,5.33,0,0,1,1,3.5v.68h-6.45a3.39,3.39,0,0,0,.83,2.27,2.56,2.56,0,0,0,2,.87,2.75,2.75,0,0,0,1.46-.36,3.56,3.56,0,0,0,1.05-.93l1,.78A4,4,0,0,1,398.58,338Zm-.21-8.52a2.2,2.2,0,0,0-1.65.71,3.49,3.49,0,0,0-.82,2h4.76v-.12a3.09,3.09,0,0,0-.67-1.92A2.06,2.06,0,0,0,398.37,329.49Z" style="fill:#003e6e"/><path d="M408.76,329.79a4.86,4.86,0,0,0-.8-.07,2.15,2.15,0,0,0-2.17,1.37v6.75h-1.62v-9.51h1.58l0,1.1a2.52,2.52,0,0,1,2.26-1.28,1.52,1.52,0,0,1,.72.13Z" style="fill:#003e6e"/><path d="M415.78,337.84a3.26,3.26,0,0,1-.23-1,3.65,3.65,0,0,1-2.71,1.17,3.36,3.36,0,0,1-2.31-.79,2.57,2.57,0,0,1-.9-2,2.7,2.7,0,0,1,1.13-2.31,5.4,5.4,0,0,1,3.18-.82h1.58v-.75A1.81,1.81,0,0,0,415,330a2,2,0,0,0-1.5-.51,2.39,2.39,0,0,0-1.46.44,1.3,1.3,0,0,0-.59,1.07h-1.63a2.27,2.27,0,0,1,.5-1.38,3.56,3.56,0,0,1,1.37-1,4.59,4.59,0,0,1,1.91-.39,3.79,3.79,0,0,1,2.57.82,3,3,0,0,1,1,2.27v4.37a5.44,5.44,0,0,0,.33,2.09v.14Zm-2.7-1.24a2.81,2.81,0,0,0,1.45-.4,2.28,2.28,0,0,0,1-1v-1.95h-1.27c-2,0-3,.59-3,1.75a1.49,1.49,0,0,0,.51,1.2A2,2,0,0,0,413.08,336.6Z" style="fill:#003e6e"/><path d="M421.9,326v2.3h1.78v1.25H421.9v5.91a1.32,1.32,0,0,0,.24.86,1,1,0,0,0,.81.28,3.84,3.84,0,0,0,.77-.1v1.31a4.58,4.58,0,0,1-1.25.17,2,2,0,0,1-1.64-.66,2.82,2.82,0,0,1-.55-1.87v-5.9h-1.73v-1.25h1.73V326Z" style="fill:#003e6e"/><path d="M431.45,336.9a3.46,3.46,0,0,1-2.79,1.11,2.94,2.94,0,0,1-2.31-.88,3.84,3.84,0,0,1-.81-2.61v-6.19h1.63v6.14c0,1.44.58,2.16,1.76,2.16a2.42,2.42,0,0,0,2.47-1.39v-6.91H433v9.51h-1.55Z" style="fill:#003e6e"/><path d="M440.1,329.79a5.07,5.07,0,0,0-.8-.07,2.14,2.14,0,0,0-2.17,1.37v6.75H435.5v-9.51h1.58l0,1.1a2.53,2.53,0,0,1,2.27-1.28,1.57,1.57,0,0,1,.72.13Z" style="fill:#003e6e"/><path d="M445.37,338a4.15,4.15,0,0,1-3.15-1.27,4.69,4.69,0,0,1-1.21-3.39v-.3a5.7,5.7,0,0,1,.54-2.53,4.28,4.28,0,0,1,1.51-1.74,3.81,3.81,0,0,1,2.11-.63,3.58,3.58,0,0,1,2.88,1.22,5.28,5.28,0,0,1,1,3.5v.68h-6.44a3.33,3.33,0,0,0,.82,2.27,2.57,2.57,0,0,0,2,.87,2.8,2.8,0,0,0,1.46-.36,3.52,3.52,0,0,0,1-.93l1,.78A4,4,0,0,1,445.37,338Zm-.2-8.52a2.17,2.17,0,0,0-1.65.71,3.43,3.43,0,0,0-.83,2h4.76v-.12a3,3,0,0,0-.67-1.92A2,2,0,0,0,445.17,329.49Z" style="fill:#003e6e"/><path d="M315.92,356.66h-3v5.18h-1.7V349h4.24a5,5,0,0,1,3.33,1,3.54,3.54,0,0,1,1.16,2.86,3.43,3.43,0,0,1-.64,2.08,3.9,3.9,0,0,1-1.8,1.33l3,5.43v.11h-1.81Zm-3-1.38h2.59a2.93,2.93,0,0,0,2-.65,2.18,2.18,0,0,0,.74-1.74,2.34,2.34,0,0,0-.7-1.83,3,3,0,0,0-2.05-.64h-2.58Z" style="fill:#f60"/><path d="M326,362a4.15,4.15,0,0,1-3.15-1.27,4.69,4.69,0,0,1-1.21-3.39v-.3a5.7,5.7,0,0,1,.54-2.53,4.21,4.21,0,0,1,1.51-1.74,3.8,3.8,0,0,1,2.1-.63,3.59,3.59,0,0,1,2.89,1.22,5.33,5.33,0,0,1,1,3.5v.68h-6.45a3.39,3.39,0,0,0,.83,2.27,2.56,2.56,0,0,0,2,.87,2.75,2.75,0,0,0,1.46-.36,3.56,3.56,0,0,0,1-.93l1,.78A4,4,0,0,1,326,362Zm-.21-8.52a2.2,2.2,0,0,0-1.65.71,3.49,3.49,0,0,0-.82,2h4.76v-.12a3.09,3.09,0,0,0-.67-1.92A2.06,2.06,0,0,0,325.79,353.49Z" style="fill:#f60"/><path d="M337.12,359.31a1.19,1.19,0,0,0-.49-1,4.93,4.93,0,0,0-1.73-.63,7.65,7.65,0,0,1-2-.63,2.79,2.79,0,0,1-1.08-.88,2.1,2.1,0,0,1-.34-1.21,2.47,2.47,0,0,1,1-2,3.83,3.83,0,0,1,2.52-.81,4,4,0,0,1,2.63.84,2.64,2.64,0,0,1,1,2.13H337a1.47,1.47,0,0,0-.57-1.15,2.13,2.13,0,0,0-1.43-.48,2.23,2.23,0,0,0-1.39.39,1.2,1.2,0,0,0-.5,1,1,1,0,0,0,.47.89,5.65,5.65,0,0,0,1.68.57,9.25,9.25,0,0,1,2,.65,2.92,2.92,0,0,1,1.12.91,2.21,2.21,0,0,1,.37,1.3,2.42,2.42,0,0,1-1,2,4.23,4.23,0,0,1-2.65.77,4.79,4.79,0,0,1-2-.4,3.33,3.33,0,0,1-1.37-1.13,2.73,2.73,0,0,1-.5-1.57h1.63a1.67,1.67,0,0,0,.65,1.3,2.55,2.55,0,0,0,1.61.48,2.65,2.65,0,0,0,1.49-.38A1.14,1.14,0,0,0,337.12,359.31Z" style="fill:#f60"/><path d="M348.9,357.19a5.74,5.74,0,0,1-1,3.5,3.19,3.19,0,0,1-2.69,1.32,3.48,3.48,0,0,1-2.73-1.1v4.58h-1.62V352.33h1.48l.08,1.05a3.34,3.34,0,0,1,2.76-1.23,3.24,3.24,0,0,1,2.71,1.29,5.73,5.73,0,0,1,1,3.6Zm-1.62-.19a4.18,4.18,0,0,0-.69-2.54,2.21,2.21,0,0,0-1.88-.93,2.41,2.41,0,0,0-2.22,1.31v4.54a2.4,2.4,0,0,0,2.24,1.31,2.2,2.2,0,0,0,1.86-.93A4.6,4.6,0,0,0,347.28,357Z" style="fill:#f60"/><path d="M350.54,357a5.54,5.54,0,0,1,.55-2.51,4.05,4.05,0,0,1,1.52-1.72,4.14,4.14,0,0,1,2.24-.61A4,4,0,0,1,358,353.5a5.16,5.16,0,0,1,1.2,3.57v.12a5.61,5.61,0,0,1-.53,2.49,4,4,0,0,1-1.52,1.72,4.22,4.22,0,0,1-2.27.61,4,4,0,0,1-3.13-1.34,5.15,5.15,0,0,1-1.2-3.56Zm1.63.2a4.14,4.14,0,0,0,.73,2.54,2.49,2.49,0,0,0,3.94,0,4.52,4.52,0,0,0,.73-2.73,4,4,0,0,0-.75-2.53,2.46,2.46,0,0,0-3.91,0A4.4,4.4,0,0,0,352.17,357.19Z" style="fill:#f60"/><path d="M362.77,352.33l.05,1.19a3.49,3.49,0,0,1,2.85-1.37c2,0,3,1.14,3,3.4v6.29h-1.62v-6.29a2.27,2.27,0,0,0-.47-1.53,1.93,1.93,0,0,0-1.44-.49,2.36,2.36,0,0,0-1.39.42,2.8,2.8,0,0,0-.93,1.11v6.78h-1.63v-9.51Z" style="fill:#f60"/><path d="M376.7,359.31a1.18,1.18,0,0,0-.5-1,4.85,4.85,0,0,0-1.73-.63,7.92,7.92,0,0,1-2-.63,2.83,2.83,0,0,1-1.07-.88,2.1,2.1,0,0,1-.35-1.21,2.47,2.47,0,0,1,1-2,3.86,3.86,0,0,1,2.53-.81,3.94,3.94,0,0,1,2.62.84,2.65,2.65,0,0,1,1,2.13H376.6A1.46,1.46,0,0,0,376,354a2.15,2.15,0,0,0-1.43-.48,2.21,2.21,0,0,0-1.39.39,1.2,1.2,0,0,0-.5,1,1,1,0,0,0,.47.89,5.65,5.65,0,0,0,1.68.57,9.25,9.25,0,0,1,2,.65,2.92,2.92,0,0,1,1.12.91,2.21,2.21,0,0,1,.37,1.3,2.42,2.42,0,0,1-1,2,4.23,4.23,0,0,1-2.65.77,4.79,4.79,0,0,1-2-.4,3.36,3.36,0,0,1-1.38-1.13,2.72,2.72,0,0,1-.49-1.57h1.62a1.68,1.68,0,0,0,.66,1.3,2.53,2.53,0,0,0,1.61.48,2.6,2.6,0,0,0,1.48-.38A1.15,1.15,0,0,0,376.7,359.31Z" style="fill:#f60"/><path d="M384.39,362a4.15,4.15,0,0,1-3.15-1.27,4.73,4.73,0,0,1-1.21-3.39v-.3a5.7,5.7,0,0,1,.54-2.53,4.28,4.28,0,0,1,1.51-1.74,3.81,3.81,0,0,1,2.11-.63,3.56,3.56,0,0,1,2.88,1.22,5.28,5.28,0,0,1,1,3.5v.68h-6.44a3.38,3.38,0,0,0,.82,2.27,2.57,2.57,0,0,0,2,.87,2.8,2.8,0,0,0,1.46-.36,3.4,3.4,0,0,0,1-.93l1,.78A4,4,0,0,1,384.39,362Zm-.2-8.52a2.17,2.17,0,0,0-1.65.71,3.5,3.5,0,0,0-.83,2h4.76v-.12a3.08,3.08,0,0,0-.66-1.92A2.06,2.06,0,0,0,384.19,353.49Z" style="fill:#f60"/><path d="M389.93,361a1,1,0,0,1,.25-.7,1,1,0,0,1,.75-.28,1,1,0,0,1,.76.28,1,1,0,0,1,.26.7,1,1,0,0,1-.26.68,1,1,0,0,1-.76.27,1,1,0,0,1-.75-.27A1,1,0,0,1,389.93,361Zm0-7.76a1,1,0,0,1,.25-.7.94.94,0,0,1,.75-.28,1,1,0,0,1,.76.28,1,1,0,0,1,.26.7,1,1,0,0,1-.26.68,1,1,0,0,1-.76.27,1,1,0,0,1-.75-.27A1,1,0,0,1,389.94,353.22Z" style="fill:#f60"/><path d="M400,348.17l.93.63a4.14,4.14,0,0,0-.84,2.41v1.2h-1.62v-1a4,4,0,0,1,.43-1.78A4.31,4.31,0,0,1,400,348.17Zm2.77,0,.93.63a4.08,4.08,0,0,0-.84,2.41v1.2h-1.62v-1a4.11,4.11,0,0,1,.42-1.78A4.47,4.47,0,0,1,402.78,348.17Z" style="fill:#f60"/><path d="M413.38,361.84H405v-1.17l4.43-4.92a10.47,10.47,0,0,0,1.36-1.82,3,3,0,0,0,.37-1.44,2.33,2.33,0,0,0-.6-1.65,2.13,2.13,0,0,0-1.62-.64,2.48,2.48,0,0,0-1.88.69,2.63,2.63,0,0,0-.68,1.92h-1.62a3.77,3.77,0,0,1,1.13-2.85,4.22,4.22,0,0,1,3.05-1.09,4.06,4.06,0,0,1,2.82.93,3.2,3.2,0,0,1,1,2.49q0,1.89-2.41,4.5L407,360.51h6.43Z" style="fill:#f60"/><path d="M420.44,361.84h-1.63V351l-3.28,1.21v-1.48l4.66-1.75h.25Z" style="fill:#f60"/><path d="M425.29,351.15a2.27,2.27,0,0,1,.65-1.6,2.11,2.11,0,0,1,1.59-.68,2,2,0,0,1,1.56.68,2.24,2.24,0,0,1,.64,1.6,2.19,2.19,0,0,1-.64,1.59,2.1,2.1,0,0,1-1.56.66,2.15,2.15,0,0,1-1.58-.66A2.17,2.17,0,0,1,425.29,351.15Zm2.24,1.13a1.16,1.16,0,0,0,.8-.31,1.11,1.11,0,0,0,.32-.82,1.16,1.16,0,0,0-.32-.83,1.14,1.14,0,0,0-1.62,0,1.17,1.17,0,0,0-.32.81,1.11,1.11,0,0,0,.32.8A1.12,1.12,0,0,0,427.53,352.28Z" style="fill:#f60"/><path d="M446.22,357.78a4.73,4.73,0,0,1-1.5,3.13,4.87,4.87,0,0,1-3.35,1.1,4.51,4.51,0,0,1-3.63-1.62,6.57,6.57,0,0,1-1.37-4.35v-1.23a7.22,7.22,0,0,1,.64-3.14,4.71,4.71,0,0,1,1.8-2.08,5.06,5.06,0,0,1,2.71-.72,4.61,4.61,0,0,1,3.27,1.13,4.75,4.75,0,0,1,1.43,3.15h-1.69a3.7,3.7,0,0,0-1-2.22,2.87,2.87,0,0,0-2.05-.69,3,3,0,0,0-2.54,1.2,5.51,5.51,0,0,0-.91,3.41v1.24a5.62,5.62,0,0,0,.87,3.31,2.81,2.81,0,0,0,2.43,1.23,3.27,3.27,0,0,0,2.16-.63,3.6,3.6,0,0,0,1-2.22Z" style="fill:#f60"/><path d="M449.48,348.17l.93.63a4.22,4.22,0,0,0-.84,2.41v1.2H448v-1a4.12,4.12,0,0,1,.43-1.78A4.31,4.31,0,0,1,449.48,348.17Zm2.77,0,.93.63a4.22,4.22,0,0,0-.84,2.41v1.2h-1.62v-1a4,4,0,0,1,.43-1.78A4.31,4.31,0,0,1,452.25,348.17Z" style="fill:#f60"/><circle cx="234.02" cy="344.98" r="12.65" style="fill:gray"/><path d="M235.9,346.84h1.77v1.32H235.9v3h-1.64v-3h-5.83v-1l5.73-8.87h1.74Zm-5.62,0h4v-6.28l-.19.35Z" style="fill:#fff"/><rect x="541.07" y="87.78" width="91.41" height="91.41" rx="3.13" style="stroke:gray;stroke-miterlimit:10;stroke-width:2px;fill:url(#Unbenannter_Verlauf_8)"/><path d="M586.4,170a15,15,0,0,1-15.19-14.76,14.71,14.71,0,0,1,6-11.76l.41-.3V105.08a7,7,0,0,1,7.06-6.84h3.41a7,7,0,0,1,7.06,6.84v38.08l.4.3a14.7,14.7,0,0,1,6,11.76A15,15,0,0,1,586.4,170Z" style="fill:#fff"/><path d="M588.11,99.24a6,6,0,0,1,6.06,5.84v38.59l.81.59a13.72,13.72,0,0,1,5.62,11,14.2,14.2,0,0,1-28.39,0,13.72,13.72,0,0,1,5.62-11l.81-.59V105.08a6,6,0,0,1,6.06-5.84h3.41m0-2H584.7a8,8,0,0,0-8.06,7.84v37.57a15.67,15.67,0,0,0-6.43,12.57,16.2,16.2,0,0,0,32.39,0,15.67,15.67,0,0,0-6.43-12.57V105.08a8,8,0,0,0-8.06-7.84Z"/><path d="M586.4,168.08a13.1,13.1,0,0,1-13.29-12.86A12.82,12.82,0,0,1,578.37,145l1.18-.87V128h13.71v16.16l1.18.87a12.81,12.81,0,0,1,5.25,10.23A13.09,13.09,0,0,1,586.4,168.08Z" style="fill:#b0b574"/><line x1="584.99" y1="140.51" x2="596.26" y2="140.51" style="fill:none;stroke:#000;stroke-miterlimit:10;stroke-width:2px"/><line x1="584.99" y1="132.21" x2="596.26" y2="132.21" style="fill:none;stroke:#000;stroke-miterlimit:10;stroke-width:2px"/><line x1="584.99" y1="123.91" x2="596.26" y2="123.91" style="fill:none;stroke:#000;stroke-miterlimit:10;stroke-width:2px"/><line x1="584.99" y1="115.61" x2="596.26" y2="115.61" style="fill:none;stroke:#000;stroke-miterlimit:10;stroke-width:2px"/><line x1="584.99" y1="108.34" x2="596.26" y2="108.34" style="fill:none;stroke:#000;stroke-miterlimit:10;stroke-width:2px"/><rect x="541.07" y="294.54" width="91.41" height="91.41" rx="3.13" style="stroke:gray;stroke-miterlimit:10;stroke-width:2px;fill:url(#Unbenannter_Verlauf_8-2)"/><path d="M586.4,376.74A15,15,0,0,1,571.21,362a14.71,14.71,0,0,1,6-11.76l.41-.3V311.84A7,7,0,0,1,584.7,305h3.41a7,7,0,0,1,7.06,6.85v38.08l.4.3a14.7,14.7,0,0,1,6,11.76A15,15,0,0,1,586.4,376.74Z" style="fill:#fff"/><path d="M588.11,306a6,6,0,0,1,6.06,5.85v38.58l.81.6a13.72,13.72,0,0,1,5.62,11,14.2,14.2,0,0,1-28.39,0,13.72,13.72,0,0,1,5.62-11l.81-.6V311.84A6,6,0,0,1,584.7,306h3.41m0-2H584.7a8,8,0,0,0-8.06,7.85v37.57A15.67,15.67,0,0,0,570.21,362a16.2,16.2,0,0,0,32.39,0,15.67,15.67,0,0,0-6.43-12.57V311.84a8,8,0,0,0-8.06-7.85Z"/><path d="M586.4,374.84A13.1,13.1,0,0,1,573.11,362a12.82,12.82,0,0,1,5.26-10.23l1.18-.87V333.72h13.71v17.16l1.18.87A12.81,12.81,0,0,1,599.69,362,13.09,13.09,0,0,1,586.4,374.84Z" style="fill:#b0b574"/><line x1="584.99" y1="347.27" x2="596.26" y2="347.27" style="fill:none;stroke:#000;stroke-miterlimit:10;stroke-width:2px"/><line x1="584.99" y1="338.97" x2="596.26" y2="338.97" style="fill:none;stroke:#000;stroke-miterlimit:10;stroke-width:2px"/><line x1="584.99" y1="322.36" x2="596.26" y2="322.36" style="fill:none;stroke:#000;stroke-miterlimit:10;stroke-width:2px"/><line x1="584.99" y1="315.1" x2="596.26" y2="315.1" style="fill:none;stroke:#000;stroke-miterlimit:10;stroke-width:2px"/><rect x="579.53" y="328.33" width="13.75" height="5.49" style="fill:#f60"/><line x1="584.99" y1="330.67" x2="596.26" y2="330.67" style="fill:none;stroke:#000;stroke-miterlimit:10;stroke-width:2px"/></svg>