<svg id="Ebene_1" data-name="Ebene 1" xmlns="http://www.w3.org/2000/svg" viewBox="0 0 1294.9 540.5"><defs><style>.cls-1,.cls-10,.cls-25,.cls-26,.cls-7{fill:#4d4d4d;}.cls-1{opacity:0.2;}.cls-1,.cls-11,.cls-12,.cls-13,.cls-15,.cls-16,.cls-2,.cls-23,.cls-24,.cls-25,.cls-26,.cls-3,.cls-7{isolation:isolate;}.cls-2,.cls-3{fill:#1a1a1a;opacity:0.25;}.cls-2{stroke:#f2f2f2;}.cls-19,.cls-2,.cls-20,.cls-27,.cls-3,.cls-34,.cls-36,.cls-4,.cls-41,.cls-5,.cls-7,.cls-8,.cls-9{stroke-miterlimit:10;}.cls-3,.cls-33,.cls-34,.cls-35,.cls-38,.cls-39,.cls-4{stroke:#fff;}.cls-4,.cls-41{fill:#ffc000;}.cls-19,.cls-21,.cls-22,.cls-33,.cls-34,.cls-35,.cls-37,.cls-40,.cls-42,.cls-5,.cls-8,.cls-9{fill:none;}.cls-5{stroke:#f7931e;}.cls-19,.cls-20,.cls-33,.cls-34,.cls-5,.cls-9{stroke-width:2px;}.cls-23,.cls-24,.cls-6{fill:#f7931e;}.cls-7{stroke:#d3d0cb;opacity:0.75;}.cls-8{stroke:#7b0041;}.cls-9{stroke:#4d4d4d;}.cls-12,.cls-13,.cls-15,.cls-16,.cls-23,.cls-24,.cls-25{font-size:18.75px;}.cls-12,.cls-13{fill:#333;}.cls-12,.cls-15,.cls-23,.cls-25,.cls-26{font-family:Roboto-Regular, Roboto;}.cls-13,.cls-16,.cls-24{font-family:Roboto-Bold, Roboto;font-weight:700;}.cls-14{letter-spacing:0.02em;}.cls-15,.cls-16,.cls-20,.cls-31,.cls-36,.cls-38,.cls-39{fill:#fff;}.cls-17{letter-spacing:-0.01em;}.cls-18{letter-spacing:0em;}.cls-19{stroke:#00788c;}.cls-20{stroke:#b3b3b3;}.cls-21,.cls-37,.cls-40,.cls-41,.cls-42{stroke:#000;}.cls-21,.cls-33,.cls-37,.cls-38,.cls-39,.cls-42{stroke-linecap:round;}.cls-21,.cls-33,.cls-35,.cls-37,.cls-38,.cls-39,.cls-40,.cls-42{stroke-linejoin:round;}.cls-21{stroke-width:3px;}.cls-26{font-size:18.75px;}.cls-27{fill:#e6e6e6;stroke:#464646;}.cls-28{fill:#fcc414;}.cls-29{fill:#030303;}.cls-30,.cls-31{fill-rule:evenodd;}.cls-32{fill:#6a6a6a;}.cls-35,.cls-37,.cls-38,.cls-40{stroke-width:4px;}.cls-36{stroke:#4f4646;}.cls-39,.cls-42{stroke-width:10px;}</style></defs><g id="Ebene_6" data-name="Ebene 6"><circle class="cls-1" cx="667" cy="272.9" r="175.5"/><circle class="cls-2" cx="1163.5" cy="401.8" r="130.9"/><circle class="cls-3" cx="1161.2" cy="137" r="127.4"/><circle class="cls-1" cx="186.1" cy="263.2" r="186.1"/></g><g id="Ebene_4" data-name="Ebene 4"><circle class="cls-4" cx="186.1" cy="263.2" r="158.9"/><path class="cls-5" d="M225.1,172.4A172.2,172.2,0,0,1,397.3,344.6H540.4" transform="translate(-36.5 -84.5)"/><polygon class="cls-6" points="502 267.1 514.1 260.1 502 253.1 502 267.1"/><circle class="cls-7" cx="1163.5" cy="401.8" r="118.4"/><circle class="cls-7" cx="1161.2" cy="137" r="118.4"/><path class="cls-8" d="M824.1,299.6" transform="translate(-36.5 -84.5)"/><path class="cls-9" d="M1197.8,85.5a136.86,136.86,0,0,0-132.2,101.7c-.3,1-170.2,67.9-212.3,84.4" transform="translate(-36.5 -84.5)"/><polygon class="cls-10" points="816.1 179.9 807.4 190.8 821.2 192.9 816.1 179.9"/><g class="cls-11"><text class="cls-12" transform="translate(138.87 162.87)">Publisher:</text><text class="cls-13" transform="translate(223.17 162.87)"> </text><text class="cls-13" transform="translate(129.97 183.29)">Sma<tspan class="cls-14" x="37.82" y="0">r</tspan><tspan x="45.12" y="0">t Sensor</tspan></text></g><g class="cls-11"><text class="cls-15" transform="translate(1109.24 60.39)">Subscriber:</text><text class="cls-16" transform="translate(1204.34 60.39)"> </text><text class="cls-16" transform="translate(1124.44 83.49)">Machine</text></g><g class="cls-11"><text class="cls-15" transform="translate(1112.19 476.31)">Subscriber:</text><text class="cls-16" transform="translate(1207.29 476.31)"> </text><text class="cls-16" transform="translate(1125.29 498.81)">Bac<tspan class="cls-17" x="31.8" y="0">k</tspan><tspan class="cls-18" x="41.64" y="0">end</tspan></text></g><path class="cls-9" d="M869.7,413.7l191.6,72.1c0,75.5,61.2,138.2,136.7,138.2" transform="translate(-36.5 -84.5)"/><polygon class="cls-10" points="832.7 336.5 823.8 325.7 837.6 323.4 832.7 336.5"/><path class="cls-19" d="M1065.6,187.2" transform="translate(-36.5 -84.5)"/></g><circle class="cls-20" cx="667" cy="272.9" r="146.6"/><path class="cls-5" d="M1060.3,437.7,862.8,363.9c-.3,8.7-2.2,23.5-5.4,32.2" transform="translate(-36.5 -84.5)"/><polygon class="cls-6" points="1024.3 345.9 1033.2 356.7 1019.4 359 1024.3 345.9"/><path class="cls-5" d="M1058.2,240.9,859.7,314.8l-3.4,1.5c-1.6-8-4.7-20.2-8.4-27.8" transform="translate(-36.5 -84.5)"/><polygon class="cls-6" points="1017.3 150.6 1031.1 152.9 1022.2 163.7 1017.3 150.6"/><path class="cls-21" d="M1189,270.2" transform="translate(-36.5 -84.5)"/><rect class="cls-22" x="32.3" y="485.2" width="325.9" height="24.9"/><g class="cls-11"><text class="cls-23" transform="translate(402.36 245.73)">publish</text><text class="cls-24" transform="translate(455.85 225.36)"> </text><text class="cls-11" x="-36.5" y="-84.5"/></g><g class="cls-11"><text class="cls-23" transform="matrix(0.94, -0.35, 0.35, 0.94, 894.7, 191)">publish </text></g><g class="cls-11"><text class="cls-23" transform="translate(901.5 295.28) rotate(19.88)">publish </text></g><text class="cls-25" transform="translate(873.66 335.12) rotate(19.88)">subscribe</text><text class="cls-26" transform="translate(872.85 155.22) rotate(-21.47)">subscribe</text><path class="cls-27" d="M168,416.5" transform="translate(-36.5 -84.5)"/><circle class="cls-28" cx="667.03" cy="196.77" r="48.51"/><path class="cls-29" d="M703.5,334a52.55,52.55,0,1,1,52.55-52.55A52.61,52.61,0,0,1,703.5,334Zm0-100.65a48.11,48.11,0,1,0,48.11,48.1A48.16,48.16,0,0,0,703.5,233.34Z" transform="translate(-36.5 -84.5)"/><path class="cls-30" d="M711.41,267.61a7.9,7.9,0,0,1-4.46-8.4A7.94,7.94,0,0,1,711.41,267.61Z" transform="translate(-36.5 -84.5)"/><path class="cls-30" d="M693,296.89a14.08,14.08,0,0,0,2.43,4.71H712a14.08,14.08,0,0,0,2.43-4.71Zm34.9-17a1.31,1.31,0,0,0-.06,1.84l.18.2c7.51-6.41,12-11.37,9.77-15.29-2.48-3.45-12.92-1.81-25.74,3.95a9.47,9.47,0,0,0,.84-5.74,9.21,9.21,0,0,0-2.59-5,9,9,0,0,0-2.6-1.83l0-.1h0l1-2.14a.69.69,0,0,0-.34-.9.67.67,0,0,0-.9.33l-1.07,2.32a9.4,9.4,0,0,0-5.46,0l-1.07-2.32a.68.68,0,0,0-.91-.33.68.68,0,0,0-.33.9l1,2.07.08.17a9.13,9.13,0,0,0-2.59,1.83,9.28,9.28,0,0,0-2.72,6.77,9.42,9.42,0,0,0,.91,3.87c-3.32-1.48-21.71-9.1-25.42-3.91-3.35,4.73,7,13,9.72,15.36l.18-.2a1.33,1.33,0,0,0-.06-1.84,41.81,41.81,0,0,1-5-5.43c-2-2.69-2-4.28-1.06-5.17,2.93-2.75,13.8.9,17.17,2.18a95.33,95.33,0,0,1,10.33,4.72c-17.23,10-28.93,21.91-26.16,26.69,1.73,3,8.93,2.61,18.19-.65l-.33-.55a1.3,1.3,0,0,0-1.51-.58c-6.42,1.95-10.42,2.87-11.8.81-1.93-3.35,7.86-14.86,23.08-23.64l1.14-.66,1.15.66c15.21,8.78,25,20.29,23.07,23.64-1.38,2.06-5.38,1.14-11.8-.81a1.29,1.29,0,0,0-1.5.58l-.34.55c9.26,3.26,16.46,3.65,18.2.65,2.75-4.78-8.94-16.71-26.17-26.69,12.13-6.4,23.05-9.24,27.06-7.2C737.06,270.78,730.74,277.15,727.89,279.85Zm-32-12.24a7.89,7.89,0,0,1,4.46-8.4A7.94,7.94,0,0,1,695.91,267.61Zm15.5,0a7.91,7.91,0,0,1-4.46-8.4A7.93,7.93,0,0,1,711.41,267.61Zm2.78,19.64a120.87,120.87,0,0,0-10.5-6.86,119.36,119.36,0,0,0-10.5,6.86,15.86,15.86,0,0,0-.84,5.68H715A16.08,16.08,0,0,0,714.19,287.25ZM699,305.56a27.48,27.48,0,0,1,4.66,6.65,27.48,27.48,0,0,1,4.66-6.65Z" transform="translate(-36.5 -84.5)"/><path class="cls-31" d="M711.41,267.61a7.91,7.91,0,0,1-4.46-8.4A7.93,7.93,0,0,1,711.41,267.61Z" transform="translate(-36.5 -84.5)"/><path class="cls-31" d="M695.91,267.61a7.89,7.89,0,0,1,4.46-8.4A7.94,7.94,0,0,1,695.91,267.61Z" transform="translate(-36.5 -84.5)"/><path class="cls-31" d="M680,281.05a1.19,1.19,0,0,0-.37-1.27c-2.86-2.69-9.17-9.07-5.57-10.9,4-2,15,.87,27.08,7.27a108.28,108.28,0,0,0-14.73,10C681.55,282.59,680.67,281.79,680,281.05Z" transform="translate(-36.5 -84.5)"/><path class="cls-31" d="M728,301.93c-1.38,2.07-5.38,1.14-11.8-.8a1.24,1.24,0,0,0-.85,0c2-2.85,2.39-8.08,1.7-11.9v-.09a8.6,8.6,0,0,0-.91-3.21C724.64,292.83,729.39,299.53,728,301.93Z" transform="translate(-36.5 -84.5)"/><path class="cls-29" d="M659.73,342.61v20.86a.87.87,0,0,1-.89.86l-4.66,0c0-8.15,0-8.15,0-8.15a.87.87,0,0,0-.89-.86h-7.45a.88.88,0,0,0-.9.86l0,8.15c-4.45,0-4.65,0-4.65,0a.87.87,0,0,1-.89-.86V342.61a.88.88,0,0,1,.89-.86l4.65,0c0,7.88,0,8.05,0,8.05a.88.88,0,0,0,.9.86h7.45a.88.88,0,0,0,.89-.86v-8.06c5.21,0,4.68,0,4.68,0A.88.88,0,0,1,659.73,342.61Z" transform="translate(-36.5 -84.5)"/><path class="cls-29" d="M665.47,344.37h3.34a.77.77,0,0,1,.79.76V363.6a.77.77,0,0,1-.79.76h-3.34a.77.77,0,0,1-.79-.76V345.13A.77.77,0,0,1,665.47,344.37Z" transform="translate(-36.5 -84.5)"/><path class="cls-29" d="M693,345.38l-6.7,18.71a.8.8,0,0,1-.75.51h-5.11a.8.8,0,0,1-.75-.51L673,345.38a.76.76,0,0,1,.75-1h3.38a.79.79,0,0,1,.75.52l4.4,12.64a.8.8,0,0,0,1.5,0l4.38-12.64a.79.79,0,0,1,.75-.52h3.39A.76.76,0,0,1,693,345.38Z" transform="translate(-36.5 -84.5)"/><path class="cls-29" d="M710.24,361.33v2.27a.77.77,0,0,1-.79.76H697.19a.77.77,0,0,1-.79-.76V345.13a.77.77,0,0,1,.79-.76h12.13a.78.78,0,0,1,.79.76v2.27a.79.79,0,0,1-.79.77h-7.21a.78.78,0,0,0-.79.76s0,0,0,3.49c0,0-.1,0,7.38,0v3.74c-7.72,0-7.4,0-7.4,0,0,3.67,0,3.6,0,3.6a.78.78,0,0,0,.79.76h7.34A.78.78,0,0,1,710.24,361.33Z" transform="translate(-36.5 -84.5)"/><path class="cls-29" d="M740,342.61v20.86a.87.87,0,0,1-.89.86h-3.78a.87.87,0,0,1-.89-.86l-.05-13.25c0-.84-5,6.26-5,6.26a.88.88,0,0,1-.73.38h-1.84a.91.91,0,0,1-.74-.38s-5-7.16-5-6.31l0,13.3a.87.87,0,0,1-.89.86h-3.78a.87.87,0,0,1-.89-.86V342.61a.88.88,0,0,1,.89-.86h5.06a.89.89,0,0,1,.74.39l4.77,6.88a.92.92,0,0,0,1.49,0l4.77-6.88a.91.91,0,0,1,.74-.39h5.06A.88.88,0,0,1,740,342.61Z" transform="translate(-36.5 -84.5)"/><path class="cls-29" d="M766.63,358.35a10.12,10.12,0,0,1-2.36,3.42.82.82,0,0,0,0,1.17l3.08,3.26c-5.63,0-5.94,0-5.94,0a.92.92,0,0,1-.68-.3l-1-1.14a.94.94,0,0,0-.9-.28,15,15,0,0,1-3.17.32,13.27,13.27,0,0,1-6.61-1.53,9.91,9.91,0,0,1-4.08-4.21,13,13,0,0,1-1.36-6,12.85,12.85,0,0,1,1.36-6A10.08,10.08,0,0,1,749,342.9a14.66,14.66,0,0,1,13.16,0,10.15,10.15,0,0,1,4.09,4.23,12.74,12.74,0,0,1,1.38,5.94A13.46,13.46,0,0,1,766.63,358.35Zm-15.75,0a5.79,5.79,0,0,0,4.73,2h.06l-1.44-1.61a.86.86,0,0,1,.67-1.43h3.82a.92.92,0,0,1,.68.3h0c.4.44,1,.82,1.31.31a12.68,12.68,0,0,0,.77-1.84,9.58,9.58,0,0,0,.46-3.06,8.55,8.55,0,0,0-.74-3.66,5.79,5.79,0,0,0-2.18-2.53,6.11,6.11,0,0,0-3.41-.93,5.77,5.77,0,0,0-4.71,2,7.86,7.86,0,0,0-1.66,5.21A8,8,0,0,0,750.88,358.33Z" transform="translate(-36.5 -84.5)"/><path class="cls-29" d="M644.17,377.38v.9h-4a.32.32,0,0,1-.32-.32V371.8a.38.38,0,0,1,.38-.38h3.88v.9h-3.19v2.06h2.73v.9h-2.73v2.1Z" transform="translate(-36.5 -84.5)"/><path class="cls-29" d="M651,371.42v6.86h-1.19l-3.14-5.1v5.1h-1.07v-6.86h1.18l3.15,5.1v-5.1Z" transform="translate(-36.5 -84.5)"/><path class="cls-29" d="M657.39,372.36h-2v5.92H654.3v-5.92h-2v-.94h5.1Z" transform="translate(-36.5 -84.5)"/><path class="cls-29" d="M663,377.38v.9h-4.3v-6.86h4.26v.9h-3.19v2.06h2.73v.9h-2.73v2.1Z" transform="translate(-36.5 -84.5)"/><path class="cls-29" d="M666.65,375.48h-1.18v2.8H664.4v-6.86h2.5c1.55,0,2.33.68,2.33,2a2,2,0,0,1-.37,1.27,1.79,1.79,0,0,1-1.09.66l1.78,2.89h-1.21Zm-1.18-.92h1.43a1.35,1.35,0,0,0,.94-.28,1.11,1.11,0,0,0,.3-.85,1,1,0,0,0-.3-.83,1.46,1.46,0,0,0-.94-.26h-1.43Z" transform="translate(-36.5 -84.5)"/><path class="cls-29" d="M675.7,373.53a2.05,2.05,0,0,1-.58,1.56,2.56,2.56,0,0,1-1.75.53h-1.43v2.66h-1.07v-6.86h2.5C674.92,371.42,675.7,372.12,675.7,373.53Zm-1.39-.91a1.41,1.41,0,0,0-.94-.28h-1.43v2.36h1.43a1.31,1.31,0,0,0,.94-.3,1.19,1.19,0,0,0,.3-.9A1.14,1.14,0,0,0,674.31,372.62Z" transform="translate(-36.5 -84.5)"/><path class="cls-29" d="M679.17,375.48H678v2.8h-1.07v-6.86h2.5c1.55,0,2.33.68,2.33,2a2.08,2.08,0,0,1-.36,1.27,1.84,1.84,0,0,1-1.1.66l1.78,2.89h-1.2Zm-1.18-.92h1.43a1.35,1.35,0,0,0,.94-.28,1.12,1.12,0,0,0,.31-.85,1,1,0,0,0-.31-.83,1.46,1.46,0,0,0-.94-.26H678Z" transform="translate(-36.5 -84.5)"/><path class="cls-29" d="M683.39,371.42h1.07v6.86h-1.07Z" transform="translate(-36.5 -84.5)"/><path class="cls-29" d="M685.91,377.94v-1a5.11,5.11,0,0,0,2.39.56,1.5,1.5,0,0,0,1-.28.92.92,0,0,0,.33-.74.78.78,0,0,0-.3-.67,2.74,2.74,0,0,0-.9-.39l-.62-.17a4.83,4.83,0,0,1-.9-.35,1.72,1.72,0,0,1-.64-.59,1.77,1.77,0,0,1-.26-1,1.91,1.91,0,0,1,.59-1.51,2.43,2.43,0,0,1,1.65-.51,4.75,4.75,0,0,1,1.13.11,4,4,0,0,1,1,.36v1a4.53,4.53,0,0,0-2.11-.5c-.78,0-1.17.34-1.17,1a.81.81,0,0,0,.27.66,2.36,2.36,0,0,0,.88.38l.62.17a4.6,4.6,0,0,1,1,.36,1.7,1.7,0,0,1,.64.61,1.92,1.92,0,0,1,.25,1,1.83,1.83,0,0,1-.65,1.45,2.67,2.67,0,0,1-1.77.53A5.55,5.55,0,0,1,685.91,377.94Z" transform="translate(-36.5 -84.5)"/><path class="cls-29" d="M696.44,377.38v.9h-4.29v-6.86h4.25v.9h-3.19v2.06H696v.9h-2.74v2.1Z" transform="translate(-36.5 -84.5)"/><path class="cls-29" d="M706.47,371.42v6.86H705.4V373l-1.95,2.76h-.56L701,373v5.27h-1.07v-6.86h1.2l2.09,3,2.1-3Z" transform="translate(-36.5 -84.5)"/><path class="cls-29" d="M714.21,376.47a3,3,0,0,1-.84,1.22l1,1.17h-1.26l-.57-.68a3.75,3.75,0,0,1-1.4.25,3.43,3.43,0,0,1-1.83-.46,3,3,0,0,1-1.13-1.28,4.31,4.31,0,0,1-.38-1.83,4.25,4.25,0,0,1,.38-1.81,3,3,0,0,1,1.13-1.28,3.35,3.35,0,0,1,1.83-.47,3.31,3.31,0,0,1,1.82.47,3,3,0,0,1,1.13,1.29,4.53,4.53,0,0,1,.09,3.41Zm-5-.25a2.11,2.11,0,0,0,.76.95,2.09,2.09,0,0,0,1.22.34,2.38,2.38,0,0,0,.73-.11l-1.1-1.26H712l.67.76a2.4,2.4,0,0,0,.53-.89,3.69,3.69,0,0,0,.19-1.18,3.19,3.19,0,0,0-.27-1.33,2.15,2.15,0,0,0-.76-.94,2.1,2.1,0,0,0-1.21-.34,2,2,0,0,0-1.22.35,2.08,2.08,0,0,0-.76.94,3.66,3.66,0,0,0,0,2.71Z" transform="translate(-36.5 -84.5)"/><path class="cls-29" d="M720.43,372.36h-2v5.92h-1.07v-5.92h-2v-.94h5.11Z" transform="translate(-36.5 -84.5)"/><path class="cls-29" d="M726.25,372.36h-2v5.92h-1.07v-5.92h-2v-.94h5.1Z" transform="translate(-36.5 -84.5)"/><path class="cls-29" d="M734.21,375.4a1.6,1.6,0,0,1,.31,1,1.69,1.69,0,0,1-.58,1.41,3.11,3.11,0,0,1-1.93.46h-2.5v-6.86H732a2.53,2.53,0,0,1,1.73.46,1.75,1.75,0,0,1,.51,1.38,1.78,1.78,0,0,1-.23.93,1.54,1.54,0,0,1-.73.61A1.77,1.77,0,0,1,734.21,375.4Zm-3.63-1H732c.77,0,1.16-.36,1.16-1.08a1,1,0,0,0-.27-.79,1.36,1.36,0,0,0-.89-.23h-1.43Zm2.49,1.13a1.82,1.82,0,0,0-1.06-.25h-1.43v2.12H732a1.86,1.86,0,0,0,1.11-.25,1,1,0,0,0,.32-.82A.9.9,0,0,0,733.07,375.53Z" transform="translate(-36.5 -84.5)"/><path class="cls-29" d="M738.26,375.48h-1.19v2.8H736v-6.86h2.49q2.34,0,2.34,2a2,2,0,0,1-.37,1.27,1.78,1.78,0,0,1-1.1.66l1.78,2.89H740Zm-1.19-.92h1.43a1.32,1.32,0,0,0,.94-.28,1.08,1.08,0,0,0,.31-.85,1,1,0,0,0-.31-.83,1.43,1.43,0,0,0-.94-.26h-1.43Z" transform="translate(-36.5 -84.5)"/><path class="cls-29" d="M743.54,378a2.92,2.92,0,0,1-1.13-1.28,4.31,4.31,0,0,1-.38-1.83,4.25,4.25,0,0,1,.38-1.81,3,3,0,0,1,1.13-1.28,3.78,3.78,0,0,1,3.65,0,3,3,0,0,1,1.13,1.29,4.2,4.2,0,0,1,.38,1.8,4.31,4.31,0,0,1-.38,1.83,2.92,2.92,0,0,1-1.13,1.28,3.85,3.85,0,0,1-3.65,0Zm3-.81a2.18,2.18,0,0,0,.76-1,3.36,3.36,0,0,0,.26-1.38,3.19,3.19,0,0,0-.26-1.33,2.1,2.1,0,0,0-.77-.94,2.31,2.31,0,0,0-2.43,0,2.22,2.22,0,0,0-.76.94,3.8,3.8,0,0,0,0,2.71,2.25,2.25,0,0,0,.76.95,2.14,2.14,0,0,0,1.23.34A2.1,2.1,0,0,0,746.58,377.16Z" transform="translate(-36.5 -84.5)"/><path class="cls-29" d="M751.56,375.35l-.43.46v2.47h-1.07v-6.86h1.07v2.92l2.72-2.92h1.34l-2.92,3.16,3,3.7h-1.36Z" transform="translate(-36.5 -84.5)"/><path class="cls-29" d="M760.7,377.38v.9h-4.29v-6.86h4.25v.9h-3.19v2.06h2.74v.9h-2.74v2.1Z" transform="translate(-36.5 -84.5)"/><path class="cls-29" d="M764.28,375.48h-.84a.22.22,0,0,0-.22.22v2.36a.22.22,0,0,1-.22.22h-.63a.22.22,0,0,1-.22-.22v-6.42a.22.22,0,0,1,.22-.22h2.28c1.56,0,2.33.68,2.33,2a2.08,2.08,0,0,1-.36,1.27,1.69,1.69,0,0,1-.83.58.23.23,0,0,0-.12.33l1.42,2.31a.21.21,0,0,1-.18.33h-.69a.21.21,0,0,1-.19-.11l-1.56-2.58A.21.21,0,0,0,764.28,375.48Zm-1.06-1.14a.22.22,0,0,0,.22.22h1.21a1.35,1.35,0,0,0,.94-.28,1.12,1.12,0,0,0,.31-.85,1,1,0,0,0-.31-.83,1.46,1.46,0,0,0-.94-.26h-1.21a.22.22,0,0,0-.22.22Z" transform="translate(-36.5 -84.5)"/><path class="cls-31" d="M721.23,286.26a98.52,98.52,0,0,0-14.83-10.11c12.13-6.39,23.05-9.23,27.06-7.2,3.6,1.84-2.72,8.21-5.57,10.91-.5.48-.38.7-.37,1.27C726.89,281.87,726.13,282.67,721.23,286.26Z" transform="translate(-36.5 -84.5)"/><path class="cls-31" d="M691.46,285.87a8.23,8.23,0,0,0-.91,3.21,0,0,0,0,1,0,0,.13.13,0,0,1,0,.06c-.68,3.82-.25,9.05,1.71,11.9a1.24,1.24,0,0,0-.85,0c-6.42,1.95-10.42,2.87-11.8.81C678.17,299.44,682.93,292.74,691.46,285.87Z" transform="translate(-36.5 -84.5)"/><path class="cls-32" d="M222.6,436.68v-54.5a17.9,17.9,0,1,0-4.48,0v54.5Zm-15.66-72.25a13.43,13.43,0,1,1,13.42,13.43A13.43,13.43,0,0,1,206.94,364.43Z" transform="translate(-36.5 -84.5)"/><path class="cls-32" d="M220.36,312.49c-46.15,0-69.29,56.11-36.73,88.67L186.8,398c-29.7-29.7-8.65-81,33.56-81s63.3,51.29,33.56,81l3.17,3.16C289.6,368.65,266.56,312.49,220.36,312.49Z" transform="translate(-36.5 -84.5)"/><path class="cls-32" d="M245.19,389.26a35.09,35.09,0,1,0-49.65,0l3.16-3.17a30.61,30.61,0,1,1,43.32,0Z" transform="translate(-36.5 -84.5)"/><path class="cls-32" d="M174.89,409.9a64.29,64.29,0,1,1,90.93,0l3.17,3.17a68.75,68.75,0,1,0-97.26,0Z" transform="translate(-36.5 -84.5)"/><g id="Robot"><path class="cls-33" d="M1181.83,283.5l6-25.33-28.69-28.7a9.2,9.2,0,0,1,0-13l0,0a9,9,0,0,1,5.15-2.56l24.92-24.94a8.72,8.72,0,0,1,14.89,6.73L1217,206.75h17.09l5.13,22.68-2.25,1-9.55-13.81h-7.62a6.44,6.44,0,0,1-1.61,2.63A6.59,6.59,0,0,1,1215,221v7.76l13.8,9.57-1,2.25L1205,235.42l2-16.07-10.9-12.55-16.77,16.78,23.32,23.31h6l8.64,36.61Z" transform="translate(-36.5 -84.5)"/></g><path class="cls-31" d="M1212.22,210a3.68,3.68,0,0,1,.66.06,3.16,3.16,0,0,1,.94.36l.13.07a3.24,3.24,0,0,1,.73.65l.11.13a3.27,3.27,0,0,1,.48.83l0,.14a3.29,3.29,0,0,1,.19,1,3.24,3.24,0,0,1-3.24,3.24h-.12a3.21,3.21,0,0,1-1-.19h-.1a3.45,3.45,0,0,1-.83-.48l-.12-.11a2.77,2.77,0,0,1-.61-.71l-.07-.13a3,3,0,0,1-.43-1.58,3.24,3.24,0,0,1,3.17-3.31Z" transform="translate(-36.5 -84.5)"/><path class="cls-31" d="M1194.68,192.29a3.87,3.87,0,1,1-3.87,3.87h0A3.87,3.87,0,0,1,1194.68,192.29Z" transform="translate(-36.5 -84.5)"/><path class="cls-31" d="M1166.61,228.39a4.89,4.89,0,1,1,4.89-4.89,4.89,4.89,0,0,1-4.89,4.89Z" transform="translate(-36.5 -84.5)"/><path class="cls-31" d="M1198,260.71a3.87,3.87,0,1,1,3.86-3.87h0a3.86,3.86,0,0,1-3.86,3.86Z" transform="translate(-36.5 -84.5)"/><path class="cls-34" d="M1225.68,304.71H1171.9a3.48,3.48,0,0,1-3.47-3.48l1.88-8.7a3.49,3.49,0,0,1,3.47-3.48h50a3.5,3.5,0,0,1,3.48,3.48l1.88,8.7A3.5,3.5,0,0,1,1225.68,304.71Z" transform="translate(-36.5 -84.5)"/><line class="cls-35" x1="1165.46" y1="415.63" x2="1165.46" y2="431.11"/><path class="cls-34" d="M1248.09,460.8h-92.34a2.33,2.33,0,0,1-2.37-2.37V447.37a2.33,2.33,0,0,1,2.37-2.37H1248a2.33,2.33,0,0,1,2.37,2.37v11.06A2.27,2.27,0,0,1,1248.09,460.8Z" transform="translate(-36.5 -84.5)"/><rect class="cls-36" x="1189.79" y="365.16" width="14.53" height="6.87"/><rect class="cls-36" x="1189.79" y="384.91" width="14.53" height="6.87"/><rect class="cls-36" x="1189.79" y="404.65" width="14.53" height="6.87"/><line class="cls-37" x1="1139.32" y1="429.93" x2="1191.6" y2="429.93"/><line class="cls-38" x1="1139.32" y1="429.93" x2="1191.6" y2="429.93"/><line class="cls-39" x1="1161.51" y1="429.93" x2="1169.41" y2="429.93"/><path class="cls-34" d="M1248.16,480.74h-92.33a2.33,2.33,0,0,1-2.37-2.37V467.31a2.33,2.33,0,0,1,2.37-2.37h92.25a2.33,2.33,0,0,1,2.37,2.37v11.06A2.26,2.26,0,0,1,1248.16,480.74Z" transform="translate(-36.5 -84.5)"/><path class="cls-34" d="M1248.09,500.49h-92.34a2.33,2.33,0,0,1-2.37-2.37V487.06a2.33,2.33,0,0,1,2.37-2.37H1248a2.33,2.33,0,0,1,2.37,2.37v11.06A2.27,2.27,0,0,1,1248.09,500.49Z" transform="translate(-36.5 -84.5)"/><line class="cls-40" x1="664.76" y1="365.72" x2="664.76" y2="381.21"/><path class="cls-41" d="M747.38,410.89H655.05a2.33,2.33,0,0,1-2.37-2.37V397.46a2.33,2.33,0,0,1,2.37-2.37H747.3a2.33,2.33,0,0,1,2.37,2.37v11.06A2.26,2.26,0,0,1,747.38,410.89Z" transform="translate(-36.5 -84.5)"/><rect class="cls-36" x="689.08" y="315.25" width="14.53" height="6.87"/><path class="cls-41" d="M747.38,430.72H655.05a2.33,2.33,0,0,1-2.37-2.37V417.29a2.33,2.33,0,0,1,2.37-2.37H747.3a2.33,2.33,0,0,1,2.37,2.37v11.06A2.31,2.31,0,0,1,747.38,430.72Z" transform="translate(-36.5 -84.5)"/><rect class="cls-36" x="689.08" y="335" width="14.53" height="6.87"/><path class="cls-41" d="M747.38,450.46H655.05a2.33,2.33,0,0,1-2.37-2.37V437a2.32,2.32,0,0,1,2.37-2.36H747.3a2.32,2.32,0,0,1,2.37,2.36v11.06A2.3,2.3,0,0,1,747.38,450.46Z" transform="translate(-36.5 -84.5)"/><rect class="cls-36" x="689.08" y="354.75" width="14.53" height="6.87"/><line class="cls-37" x1="638.61" y1="380.02" x2="690.9" y2="380.02"/><line class="cls-37" x1="638.61" y1="380.02" x2="690.9" y2="380.02"/><line class="cls-42" x1="660.81" y1="380.02" x2="668.71" y2="380.02"/></svg>