<svg width="57" height="42" viewBox="0 0 57 42" fill="none" xmlns="http://www.w3.org/2000/svg">
<g clip-path="url(#clip0_327_433)">
<path d="M12.9012 41.9866C8.85454 41.9866 4.806 41.9866 0.759377 41.9866C-0.00950148 41.9866 3.58938e-05 41.9866 3.59613e-05 41.2141C0.00576015 35.1073 0.0172078 28.9986 0.00576099 22.8918C3.75797e-05 20.0397 0.492273 17.2796 1.38326 14.5789C2.58904 10.9236 4.51792 7.73795 7.42554 5.20016C10.108 2.85789 13.2389 1.43374 16.7055 0.693869C18.7183 0.264515 20.7426 0.0498374 22.7955 0.0249197C23.1541 0.0210862 23.3068 0.0900905 23.3201 0.502193C23.4098 3.53642 23.5224 6.57065 23.6388 9.60488C23.6693 10.3927 23.6807 10.3428 22.8985 10.4195C19.6207 10.7415 16.4823 11.5082 13.857 13.6512C11.6477 15.4548 10.8655 17.8738 11.0238 20.6646C11.0429 21.0153 11.2451 21.0096 11.4779 21.0096C13.0061 21.0096 14.5324 21.0077 16.0606 21.0057C19.0178 21.0019 21.977 20.9981 24.9342 20.9962C25.1135 20.9962 25.291 21.0077 25.4703 21.0192C25.7164 21.0345 25.8214 21.1265 25.8214 21.4179C25.808 26.7081 25.808 31.9984 25.8099 37.2886C25.8099 38.7089 25.8099 40.1292 25.8328 41.5496C25.8385 41.9022 25.7164 42 25.3826 41.9981C22.6676 41.9866 19.9546 41.9866 17.2397 41.9847C15.7935 41.9847 14.3473 41.9847 12.9012 41.9847L12.9012 41.9866Z" fill="#FFC000"/>
<path d="M56.9847 41.9847C54.6972 41.9847 52.4573 41.9847 50.2156 41.9847C44.656 41.9885 39.0964 41.9924 33.5368 41.9943C32.9187 41.9943 32.3005 41.9789 31.6843 41.9943C31.3332 42.0019 31.2016 41.8869 31.2035 41.5151C31.2168 36.3705 31.2092 31.2259 31.2264 26.0813C31.2321 24.1723 31.1596 22.2498 31.3523 20.356C31.8693 15.267 33.5826 10.6457 37.0302 6.77577C39.1918 4.35107 41.8476 2.69499 44.8735 1.5641C47.8269 0.461967 50.8948 0.128454 54.0065 3.15946e-05C54.3728 -0.0153024 54.4949 0.115038 54.5064 0.467721C54.6151 3.58437 54.7296 6.70101 54.8536 9.81575C54.8708 10.2336 54.783 10.4214 54.2984 10.4272C52.5947 10.4464 50.9615 10.8872 49.3398 11.3741C47.4205 11.9491 45.7072 12.8941 44.3145 14.3412C42.6126 16.1104 42.0822 18.2974 42.2425 20.6991C42.2635 21.0249 42.4619 21.0077 42.6775 21.0077C44.1409 21.0096 45.6042 21.0154 47.0656 21.0134C50.1049 21.0096 53.1461 21.0039 56.1853 20.9981C57.0019 21 57 21 57 21.7955C56.9943 28.1169 56.9905 34.4384 56.9847 40.7599C56.9847 41.1471 56.9847 41.5362 56.9847 41.9847Z" fill="#FFC000"/>
</g>
<defs>
<clipPath id="clip0_327_433">
<rect width="57" height="42" fill="white" transform="translate(57 42) rotate(-180)"/>
</clipPath>
</defs>
</svg>
