<?xml version="1.0" encoding="utf-8"?>
<!-- Generator: Adobe Illustrator 26.5.2, SVG Export Plug-In . SVG Version: 6.00 Build 0)  -->
<svg version="1.1" id="Ebene_1" xmlns="http://www.w3.org/2000/svg" xmlns:xlink="http://www.w3.org/1999/xlink" x="0px" y="0px"
	 viewBox="0 0 45 66" style="enable-background:new 0 0 45 66;" xml:space="preserve">
<style type="text/css">
	.st0{fill:#FFFFFF;}
	.st1{fill:#1F759C;}
</style>
<rect x="6.6" y="6.4" class="st0" width="31.3" height="54.2"/>
<g>
	<path class="st1" d="M42.5,1.7c-13.3,0-26.6,0-39.9,0C1.7,1.7,1.4,2,1.4,2.9c0,20,0,39.9,0,59.9c0,0.9,0.5,1.3,1.3,1.3
		c13.2,0,26.4,0,39.6,0c1,0,1.1-0.1,1.1-1.1c0-10,0-20.1,0-30.1c0-10.1,0-20.1,0-30.3C43.4,1.8,43.3,1.7,42.5,1.7z M16.9,9.5
		c0-0.6,0.3-0.9,0.9-0.9c0.1,0,0.1,0,0.2,0c1.1,0,2.3,0,3.4,0c1,0,2,0,3.2,0c0.1,0,0.1,0,0.2,0c0,0,0.1,0,0.2,0c0.1,0,0.8,0,0.9,0
		c0.2,0,0.2,0.1,0.2,0.9c0,0.4,0,0.7-0.5,0.7c-0.1,0-0.7,0-0.7,0c-1.9,0-3.8,0-5.6,0c-0.8,0-0.8,0-0.8,0.8c0,1.1,0,2.2,0,3.3
		c0,0.4,0,0.7-0.2,0.7c0,0-0.5,0-0.5,0c0,0-0.5,0-0.6,0c-0.3,0-0.3-0.2-0.3-0.7C16.9,12.7,16.9,11.1,16.9,9.5z M23.5,13
		c-0.3,0-0.5,0-0.6,0.1c-0.1,0.1-0.1,0.3-0.1,0.6c0,0.2,0,0.3,0,0.5c-0.1,0.2,0,0.5-0.1,0.6C22.6,15,22.3,15,22,15
		c-0.4,0-0.8-0.1-0.8-0.6c0-0.8,0-2.6,0-2.8c0-0.3,0.4-0.3,0.7-0.3c0.1,0,3.2,0,3.6,0c0.4,0,0.5,0,0.5,0.2c0,0.6,0,2,0,2.6
		c0,0.4,0.1,0.6,0,0.9c-0.1,0.1-0.6,0-0.9,0c-0.5,0-0.8,0.1-0.8-0.4c0-0.1,0-1.3,0-1.4C24.3,12.9,24.3,13,23.5,13z M12.3,16.3
		c1.2,0,2.4,0,3.6,0c2.3,0,4.5,0,6.7,0c3.3,0,6.6,0,9.9,0.1c0.2,0,0.6-0.1,0.8,0.1c0.2,0.1,0.2,0.6,0.1,0.8
		c-0.1,0.2-0.1,0.3-0.3,0.4c0,0-0.4,0-0.5,0c-6.7,0-13.5,0-20.2,0c-0.3,0-0.7,0-0.8-0.5C11.5,16.6,11.7,16.3,12.3,16.3z M33.4,20.5
		c0,0.2-0.2,0.5-0.4,0.5c-0.5,0.1-0.2,0.1-0.7,0.1c-5.9,0-14,0-19.9,0c-0.8,0-0.8-0.4-0.8-0.8c0-0.3,0.1-0.6,0.5-0.7
		c0.2,0,0.4,0,0.6,0c3.2,0,16.5,0,19.7-0.1c0.3,0,0.6,0,0.8,0.2C33.4,19.8,33.5,20.3,33.4,20.5z M37,34.8c0,0.2-0.1,0.3-0.2,0.5
		c-1.4,1.5-2.9,3.1-4.3,4.6c-0.8,0.8-1.5,1.6-2.3,2.4c-1.9,2-3.8,3.9-5.6,5.9c-2,2.1-3.9,4.3-5.9,6.4c-0.7,0.8-1.4,1.6-2.2,2.3
		c-0.3,0.3-0.7,0.7-1.2,0.3c-0.2-0.2-0.2-0.3-0.2-0.5c-0.1-0.3,0-0.6,0.1-1c0.3-0.8,0.5-1.7,0.8-2.5c0.4-1.3,0.9-2.5,1.3-3.8
		c0.5-1.7,1-3.4,1.5-5.1c0-0.1,0.1-0.2,0.1-0.3c0-0.1,0.1-0.2,0.1-0.2c0-0.1-0.2-0.2-0.5-0.2c-1.8,0-3.5,0-5.2,0c-0.7,0-1-0.3-1-0.9
		c0-0.2,0-0.4,0.1-0.6c0.6-1.6,1.1-3.2,1.6-4.8c0.1-0.4,0.3-0.8,0.4-1.2c0.1-0.2,0.1-0.3,0.1-0.4c-0.1-0.1-0.3-0.1-0.6-0.1
		c-1.6,0-3.2,0-4.8,0c-0.6-0.1-1-0.3-1.1-0.8c-0.1-0.3-0.1-0.6,0.1-1c0.3-0.9,0.6-1.9,0.9-2.9c0.4-1.2,0.8-2.4,1.2-3.6
		c0.3-0.8,0.5-1.7,0.8-2.5c0.2-0.5,0.3-1.1,0.6-1.6c0-0.3,0.5-0.5,0.7-0.5c6.3,0,13.4,0,19.7,0c0.1,0,0.2,0,0.3,0
		c0.8,0,1.2,0.3,1.2,0.9c0,0.2,0,0.5-0.2,0.9c-0.4,1.2-0.7,2.4-1.1,3.6c-0.3,1.1-0.7,2.2-1.1,3.3c-0.1,0.4-0.3,0.7-0.4,1.1
		c-0.1,0.4-0.3,0.8-0.4,1.3c1.9,0,3.7,0,5.5,0c0.2,0,0.4,0,0.6,0C36.9,34,37.2,34.4,37,34.8z"/>
</g>
<path class="st1" d="M34.3,35.6C28.8,41.4,23.4,47.2,17.9,53c0,0-0.1,0-0.1-0.1c0.2-0.6,0.3-1.2,0.5-1.8c0.4-1.2,0.8-2.4,1.2-3.7
	c0.5-1.4,0.9-2.8,1.4-4.2c0.3-0.8,0-1.2-0.8-1.2c-1.8,0-3.5,0-5.3,0c-0.6,0-0.6-0.1-0.4-0.7c0.4-1.1,0.7-2.2,1.1-3.3
	c0.3-0.9,0.6-1.8,0.9-2.7c0.1-0.2,0.1-0.4,0.2-0.6c0.2-0.8-0.3-1.1-1-1.1c-1.6,0-3.3,0-4.9,0c-0.2,0-0.4,0-0.7,0
	c0.4-1.1,0.7-2.1,1-3.1c0.4-1.2,0.8-2.5,1.2-3.7c0.2-0.8,0.5-1.5,0.8-2.3c0-0.1,0.2-0.2,0.3-0.2c0.2,0,0.3,0,0.5,0
	c5.7,0,11.4,0,17.2,0c0.9,0,0.9,0,0.6,0.8c-0.6,1.7-1.2,3.5-1.7,5.2c-0.4,1.3-0.8,2.6-1.2,3.9c-0.1,0.5,0.4,1,1,1c0.8,0,1.6,0,2.3,0
	c0.8,0,1.6,0,2.4,0C34.2,35.6,34.2,35.6,34.3,35.6z"/>
</svg>
