<?xml version="1.0" encoding="utf-8"?>
<!-- Generator: Adobe Illustrator 24.3.0, SVG Export Plug-In . SVG Version: 6.00 Build 0)  -->
<svg version="1.1" id="Ebene_1" xmlns="http://www.w3.org/2000/svg" xmlns:xlink="http://www.w3.org/1999/xlink" x="0px" y="0px"
	 viewBox="0 0 1347 904" enable-background="new 0 0 1347 904" xml:space="preserve">
<g>
	<g>
		<line fill="none" stroke="#003E6E" stroke-width="2" stroke-miterlimit="10" x1="929.4" y1="12" x2="929.4" y2="13"/>
		
			<line fill="none" stroke="#003E6E" stroke-width="2" stroke-miterlimit="10" stroke-dasharray="2.0102,6.0307" x1="929.4" y1="19" x2="929.4" y2="747.7"/>
		<line fill="none" stroke="#003E6E" stroke-width="2" stroke-miterlimit="10" x1="929.4" y1="750.8" x2="929.4" y2="751.8"/>
	</g>
</g>
<g>
	<g>
		<line fill="none" stroke="#666666" stroke-width="2" stroke-miterlimit="10" x1="959" y1="369" x2="800.7" y2="369"/>
		<g>
			<polygon fill="#666666" points="957.2,363.1 967.6,369 957.2,375 			"/>
		</g>
		<g>
			<polygon fill="#666666" points="802.4,363.1 792.1,369 802.4,375 			"/>
		</g>
	</g>
</g>
<g>
	<g>
		<line fill="none" stroke="#666666" stroke-width="2" stroke-miterlimit="10" x1="460.4" y1="367" x2="380" y2="367"/>
		<g>
			<polygon fill="#666666" points="458.6,361.1 469,367 458.6,373 			"/>
		</g>
	</g>
</g>
<g>
	<g>
		<polyline fill="none" stroke="#666666" stroke-width="2" stroke-miterlimit="10" points="961.4,52 852,52 852,259 800.7,259 		"/>
		<g>
			<polygon fill="#666666" points="959.6,46 970,52 959.6,58 			"/>
		</g>
		<g>
			<polygon fill="#666666" points="802.4,253 792.1,259 802.4,265 			"/>
		</g>
	</g>
</g>
<g>
	<g>
		<polyline fill="none" stroke="#666666" stroke-width="2" stroke-miterlimit="10" points="462.4,281 421,281 421,157 382.1,157 		
			"/>
		<g>
			<polygon fill="#666666" points="460.6,275 471,281 460.6,287 			"/>
		</g>
	</g>
</g>
<g>
	<g>
		<polyline fill="none" stroke="#666666" stroke-width="2" stroke-miterlimit="10" points="462.4,321 396.2,321 396.2,257 98,257 		
			"/>
		<g>
			<polygon fill="#666666" points="460.6,315 471,321 460.6,327 			"/>
		</g>
	</g>
</g>
<g>
	<g>
		<polyline fill="none" stroke="#666666" stroke-width="2" stroke-miterlimit="10" points="960.5,161 871.6,161 871.6,296 
			800.7,296 		"/>
		<g>
			<polygon fill="#666666" points="958.7,155 969.1,161 958.7,167 			"/>
		</g>
		<g>
			<polygon fill="#666666" points="802.4,290 792.1,296 802.4,302 			"/>
		</g>
	</g>
</g>
<g>
	<g>
		<polyline fill="none" stroke="#666666" stroke-width="2" stroke-miterlimit="10" points="962.5,266 891.2,266 891.2,333 
			800.7,333 		"/>
		<g>
			<polygon fill="#666666" points="960.7,260 971.1,266 960.7,272 			"/>
		</g>
		<g>
			<polygon fill="#666666" points="802.4,327 792.1,333 802.4,339 			"/>
		</g>
	</g>
</g>
<g>
	<g>
		<polyline fill="none" stroke="#666666" stroke-width="2" stroke-miterlimit="10" points="961.4,688 852,688 852,481 800.7,481 		
			"/>
		<g>
			<polygon fill="#666666" points="959.6,682 970,688 959.6,694 			"/>
		</g>
		<g>
			<polygon fill="#666666" points="802.4,475 792.1,481 802.4,487 			"/>
		</g>
	</g>
</g>
<g>
	<g>
		<polyline fill="none" stroke="#666666" stroke-width="2" stroke-miterlimit="10" points="960.5,579 871.6,579 871.6,444 
			800.7,444 		"/>
		<g>
			<polygon fill="#666666" points="958.7,573 969.1,579 958.7,585 			"/>
		</g>
		<g>
			<polygon fill="#666666" points="802.4,438 792.1,444 802.4,450 			"/>
		</g>
	</g>
</g>
<g>
	<g>
		<polyline fill="none" stroke="#666666" stroke-width="2" stroke-miterlimit="10" points="962.5,474 891.2,474 891.2,407 
			800.7,407 		"/>
		<g>
			<polygon fill="#666666" points="960.7,468 971.1,474 960.7,480 			"/>
		</g>
		<g>
			<polygon fill="#666666" points="802.4,401 792.1,407 802.4,413 			"/>
		</g>
	</g>
</g>
<linearGradient id="SVGID_1_" gradientUnits="userSpaceOnUse" x1="53" y1="804.692" x2="1309" y2="804.692">
	<stop  offset="0" style="stop-color:#003E6E"/>
	<stop  offset="0.62" style="stop-color:#333333"/>
	<stop  offset="0.909" style="stop-color:#FFC000"/>
</linearGradient>
<rect x="53" y="752.4" fill="url(#SVGID_1_)" width="1256" height="104.6"/>
<g>
	<path fill="#FFFFFF" d="M265.7,804.8c0,4-0.7,7.5-2.2,10.6c-1.5,3.1-3.6,5.4-6.3,7.1c-2.7,1.7-5.8,2.5-9.3,2.5
		c-3.5,0-6.6-0.8-9.3-2.4s-4.8-3.9-6.3-6.9c-1.5-3-2.3-6.4-2.4-10.3v-2.3c0-4,0.7-7.6,2.2-10.6c1.5-3.1,3.6-5.4,6.3-7.1
		c2.7-1.7,5.9-2.5,9.4-2.5c3.5,0,6.6,0.8,9.3,2.5c2.7,1.7,4.8,4,6.3,7.1c1.5,3,2.3,6.5,2.3,10.5V804.8z M255.6,803.1
		c0-4.1-0.7-7.2-2-9.3c-1.4-2.1-3.3-3.2-5.8-3.2c-5,0-7.6,3.7-7.9,11.1l0,3c0,4,0.7,7.1,2,9.3c1.3,2.2,3.3,3.2,5.9,3.2
		c2.5,0,4.4-1.1,5.8-3.2c1.4-2.1,2-5.2,2.1-9.1V803.1z"/>
	<path fill="#FFFFFF" d="M300.5,791.1h-12.3v33.4h-9.9v-33.4h-12.1v-7.6h34.3V791.1z"/>
</g>
<g>
	<rect x="475.9" y="223.5" width="308.6" height="298.6"/>
	<path d="M784,224l0,297.6l-307.6,0l0-297.6L784,224 M785,223l-309.6,0l0,299.6l309.6,0L785,223L785,223z"/>
</g>
<g>
	<path d="M1195.5,825h-9.9v-41h9.9V825z"/>
	<path d="M1233.8,791.7h-12.3V825h-9.9v-33.4h-12.1V784h34.3V791.7z"/>
</g>
<g>
	<rect x="163.5" y="817.3" fill="#FFFFFF" width="13.9" height="11"/>
	<g>
		<line fill="none" stroke="#000000" stroke-miterlimit="10" x1="188.8" y1="779.3" x2="194.9" y2="779.3"/>
		<linearGradient id="SVGID_2_" gradientUnits="userSpaceOnUse" x1="141.1985" y1="801.1777" x2="199.8942" y2="801.1777">
			<stop  offset="0" style="stop-color:#FFFFFF"/>
			<stop  offset="1" style="stop-color:#CCCCCC"/>
		</linearGradient>
		<path fill="url(#SVGID_2_)" stroke="#000000" stroke-miterlimit="10" d="M187.9,800.8l-7,5.7v-13.7c0-0.5-0.4-0.8-0.8-0.8
			c-0.2,0-0.4,0.1-0.5,0.2l-17.6,14.4v-13.7c0-0.5-0.4-0.8-0.8-0.9c-0.2,0-0.4,0.1-0.5,0.2l-19.1,15.5c-0.2,0.2-0.3,0.4-0.3,0.7
			v19.6c0,0.5,0.4,0.8,0.8,0.8h57c0.5,0,0.8-0.4,0.8-0.8v-35.1c0-0.5-0.4-0.8-0.8-0.8c-0.2,0-0.4,0.1-0.5,0.2l-2.8,2.3L187.9,800.8z
			 M195.7,794.4l-0.7-14.7l0,0l-0.3-5.4c0-0.4-0.4-0.8-0.8-0.8H190c-0.4,0-0.8,0.3-0.8,0.8l-1.3,26.4 M165.1,828.8v-9h10.8v9"/>
	</g>
</g>
<rect x="475.3" y="222.5" fill="#4D4D4D" width="85.7" height="300.5"/>
<rect x="976.2" y="217.3" fill="#FFCB39" width="330" height="95"/>
<rect x="976.2" y="322.8" fill="#FFCB39" width="330" height="95"/>
<g>
	<path d="M1023.1,252.1h-9.2l-1.8,5.3h-5.6l9.5-25.6h4.9l9.6,25.6h-5.6L1023.1,252.1z M1015.3,247.8h6.4l-3.2-9.6L1015.3,247.8z"/>
	<path d="M1036.4,238.3l0.2,2.2c1.4-1.7,3.2-2.5,5.5-2.5c2,0,3.5,0.6,4.5,1.8s1.5,3,1.5,5.3v12.3h-5.1v-12.2c0-1.1-0.2-1.9-0.7-2.3
		s-1.2-0.7-2.3-0.7c-1.4,0-2.5,0.6-3.2,1.8v13.4h-5.1v-19H1036.4z"/>
	<path d="M1062.9,257.3c-0.2-0.5-0.4-1-0.5-1.7c-1.2,1.4-2.8,2.1-4.8,2.1c-1.9,0-3.4-0.5-4.6-1.6s-1.8-2.4-1.8-4.1
		c0-2,0.7-3.6,2.2-4.6s3.7-1.6,6.5-1.6h2.3v-1.1c0-0.9-0.2-1.6-0.7-2.1s-1.2-0.8-2.1-0.8c-0.9,0-1.5,0.2-2,0.6s-0.7,1-0.7,1.7h-5.1
		c0-1.1,0.3-2.1,1-3.1s1.6-1.7,2.9-2.2s2.6-0.8,4.2-0.8c2.3,0,4.2,0.6,5.6,1.8s2.1,2.8,2.1,5v8.2c0,1.8,0.3,3.2,0.8,4.1v0.3H1062.9z
		 M1058.7,253.8c0.8,0,1.4-0.2,2.1-0.5s1.1-0.8,1.4-1.3v-3.3h-1.9c-2.5,0-3.9,0.9-4.1,2.6l0,0.3c0,0.6,0.2,1.2,0.7,1.6
		S1058,253.8,1058.7,253.8z"/>
	<path d="M1076.6,257.3h-5.1v-27h5.1V257.3z"/>
	<path d="M1087.9,250.1l3.5-11.8h5.4l-7.6,22l-0.4,1c-1.1,2.5-3,3.7-5.6,3.7c-0.7,0-1.5-0.1-2.2-0.3v-3.8l0.8,0c1,0,1.7-0.1,2.2-0.4
		s0.8-0.8,1.1-1.5l0.6-1.6l-6.7-19.1h5.5L1087.9,250.1z"/>
	<path d="M1104.9,233.6v4.7h3.3v3.7h-3.3v9.5c0,0.7,0.1,1.2,0.4,1.5s0.8,0.5,1.5,0.5c0.6,0,1.1,0,1.5-0.1v3.8c-1,0.3-2,0.5-3.1,0.5
		c-3.6,0-5.4-1.8-5.4-5.4V242h-2.8v-3.7h2.8v-4.7H1104.9z"/>
	<path d="M1111,233.4c0-0.8,0.3-1.4,0.8-1.9s1.2-0.7,2.1-0.7c0.9,0,1.6,0.2,2.1,0.7s0.8,1.1,0.8,1.9c0,0.8-0.3,1.4-0.8,1.9
		s-1.2,0.7-2.1,0.7s-1.5-0.2-2.1-0.7S1111,234.2,1111,233.4z M1116.3,257.3h-5.1v-19h5.1V257.3z"/>
	<path d="M1128.4,253.6c0.9,0,1.7-0.3,2.3-0.8s0.9-1.2,0.9-2.1h4.8c0,1.3-0.4,2.5-1.1,3.5s-1.6,1.9-2.8,2.5s-2.5,0.9-4,0.9
		c-2.7,0-4.9-0.9-6.4-2.6s-2.4-4.1-2.4-7.2v-0.3c0-2.9,0.8-5.3,2.3-7s3.7-2.6,6.4-2.6c2.4,0,4.3,0.7,5.7,2s2.2,3.2,2.2,5.4h-4.8
		c0-1-0.3-1.8-0.9-2.4s-1.4-0.9-2.3-0.9c-1.2,0-2.1,0.4-2.7,1.3s-0.9,2.3-0.9,4.2v0.5c0,2,0.3,3.4,0.9,4.2
		C1126.3,253.2,1127.2,253.6,1128.4,253.6z"/>
	<path d="M1149.6,252.1c0-0.6-0.3-1.1-0.9-1.5s-1.6-0.7-3-1c-4.5-0.9-6.8-2.9-6.8-5.8c0-1.7,0.7-3.1,2.1-4.2s3.2-1.7,5.5-1.7
		c2.4,0,4.3,0.6,5.8,1.7s2.2,2.6,2.2,4.4h-5.1c0-0.7-0.2-1.3-0.7-1.8s-1.2-0.7-2.2-0.7c-0.9,0-1.5,0.2-2,0.6s-0.7,0.9-0.7,1.5
		c0,0.6,0.3,1,0.8,1.4s1.4,0.6,2.7,0.9s2.3,0.5,3.2,0.9c2.7,1,4,2.7,4,5.1c0,1.7-0.7,3.1-2.2,4.2s-3.4,1.6-5.8,1.6
		c-1.6,0-3-0.3-4.2-0.9s-2.2-1.3-2.9-2.3s-1.1-2.1-1.1-3.2h4.8c0,0.9,0.4,1.6,1,2.1s1.5,0.7,2.5,0.7c1,0,1.7-0.2,2.2-0.6
		S1149.6,252.7,1149.6,252.1z"/>
	<path d="M1008.7,297.3v-25.6h9c3.1,0,5.5,0.6,7.1,1.8s2.4,2.9,2.4,5.2c0,1.3-0.3,2.4-1,3.3s-1.5,1.7-2.7,2.1c1.3,0.3,2.3,1,3.1,2
		s1.1,2.2,1.1,3.7c0,2.5-0.8,4.3-2.4,5.6s-3.8,1.9-6.7,1.9H1008.7z M1014,282.5h3.9c2.7,0,4-1.1,4-3.2c0-1.2-0.3-2-1-2.5
		s-1.7-0.8-3.2-0.8h-3.7V282.5z M1014,286.2v6.9h4.5c1.2,0,2.2-0.3,2.9-0.9s1-1.4,1-2.5c0-2.3-1.2-3.5-3.6-3.6H1014z"/>
	<path d="M1031.3,273.4c0-0.8,0.3-1.4,0.8-1.9s1.2-0.7,2.1-0.7c0.9,0,1.6,0.2,2.1,0.7s0.8,1.1,0.8,1.9c0,0.8-0.3,1.4-0.8,1.9
		s-1.2,0.7-2.1,0.7s-1.5-0.2-2.1-0.7S1031.3,274.2,1031.3,273.4z M1036.7,297.3h-5.1v-19h5.1V297.3z"/>
	<path d="M1040.1,287.7c0-2.9,0.7-5.3,2.1-7s3.3-2.7,5.6-2.7c2.1,0,3.7,0.7,4.9,2.1l0.2-1.8h4.6v18.4c0,1.7-0.4,3.1-1.1,4.3
		s-1.8,2.2-3.2,2.8s-3,1-4.8,1c-1.4,0-2.8-0.3-4.1-0.8s-2.3-1.3-3-2.2l2.2-3.1c1.3,1.4,2.8,2.1,4.6,2.1c1.3,0,2.4-0.4,3.1-1.1
		s1.1-1.7,1.1-3.1v-1c-1.2,1.3-2.7,2-4.6,2c-2.3,0-4.1-0.9-5.5-2.7s-2.1-4.2-2.1-7.1V287.7z M1045.2,288.1c0,1.7,0.3,3.1,1,4.1
		c0.7,1,1.6,1.5,2.8,1.5c1.5,0,2.7-0.6,3.3-1.7v-8c-0.7-1.2-1.8-1.7-3.3-1.7c-1.2,0-2.2,0.5-2.9,1.5
		C1045.6,284.6,1045.2,286.1,1045.2,288.1z"/>
	<path d="M1070.7,297.3v-25.6h7.9c2.2,0,4.3,0.5,6,1.5s3.2,2.5,4.2,4.3s1.5,4,1.5,6.4v1.2c0,2.4-0.5,4.5-1.5,6.3s-2.4,3.3-4.1,4.3
		s-3.8,1.5-6,1.5H1070.7z M1076,276v17.1h2.5c2.1,0,3.6-0.7,4.7-2s1.6-3.3,1.7-5.8v-1.4c0-2.6-0.5-4.6-1.6-5.9s-2.7-2-4.7-2H1076z"
		/>
	<path d="M1104.8,297.3c-0.2-0.5-0.4-1-0.5-1.7c-1.2,1.4-2.8,2.1-4.8,2.1c-1.9,0-3.4-0.5-4.6-1.6s-1.8-2.4-1.8-4.1
		c0-2,0.7-3.6,2.2-4.6s3.7-1.6,6.5-1.6h2.3v-1.1c0-0.9-0.2-1.6-0.7-2.1s-1.2-0.8-2.1-0.8c-0.9,0-1.5,0.2-2,0.6s-0.7,1-0.7,1.7h-5.1
		c0-1.1,0.3-2.1,1-3.1s1.6-1.7,2.9-2.2s2.6-0.8,4.2-0.8c2.3,0,4.2,0.6,5.6,1.8s2.1,2.8,2.1,5v8.2c0,1.8,0.3,3.2,0.8,4.1v0.3H1104.8z
		 M1100.6,293.8c0.8,0,1.4-0.2,2.1-0.5s1.1-0.8,1.4-1.3v-3.3h-1.9c-2.5,0-3.9,0.9-4.1,2.6l0,0.3c0,0.6,0.2,1.2,0.7,1.6
		S1099.8,293.8,1100.6,293.8z"/>
	<path d="M1119.2,273.6v4.7h3.3v3.7h-3.3v9.5c0,0.7,0.1,1.2,0.4,1.5s0.8,0.5,1.5,0.5c0.6,0,1.1,0,1.5-0.1v3.8c-1,0.3-2,0.5-3.1,0.5
		c-3.6,0-5.4-1.8-5.4-5.4V282h-2.8v-3.7h2.8v-4.7H1119.2z"/>
	<path d="M1136.3,297.3c-0.2-0.5-0.4-1-0.5-1.7c-1.2,1.4-2.8,2.1-4.8,2.1c-1.9,0-3.4-0.5-4.6-1.6s-1.8-2.4-1.8-4.1
		c0-2,0.7-3.6,2.2-4.6s3.7-1.6,6.5-1.6h2.3v-1.1c0-0.9-0.2-1.6-0.7-2.1s-1.2-0.8-2.1-0.8c-0.9,0-1.5,0.2-2,0.6s-0.7,1-0.7,1.7h-5.1
		c0-1.1,0.3-2.1,1-3.1s1.6-1.7,2.9-2.2s2.6-0.8,4.2-0.8c2.3,0,4.2,0.6,5.6,1.8s2.1,2.8,2.1,5v8.2c0,1.8,0.3,3.2,0.8,4.1v0.3H1136.3z
		 M1132.1,293.8c0.8,0,1.4-0.2,2.1-0.5s1.1-0.8,1.4-1.3v-3.3h-1.9c-2.5,0-3.9,0.9-4.1,2.6l0,0.3c0,0.6,0.2,1.2,0.7,1.6
		S1131.3,293.8,1132.1,293.8z"/>
</g>
<rect x="976.2" y="428.4" fill="#FFCB39" width="330" height="95"/>
<g>
	<path d="M1015.6,357.3l6.6,18.6l6.5-18.6h6.9v25.6h-5.3v-7l0.5-12.1l-6.9,19.1h-3.6l-6.9-19.1l0.5,12.1v7h-5.3v-25.6H1015.6z"/>
	<path d="M1055.6,371.8h-10.1v6.9h11.9v4.2h-17.2v-25.6h17.1v4.3h-11.8v6.1h10.1V371.8z"/>
	<path d="M1073.8,376.2c0-1-0.4-1.8-1.1-2.3s-2-1.1-3.8-1.7s-3.3-1.2-4.3-1.7c-2.9-1.6-4.4-3.7-4.4-6.3c0-1.4,0.4-2.6,1.2-3.7
		s1.9-1.9,3.4-2.5s3.1-0.9,4.9-0.9c1.8,0,3.5,0.3,4.9,1s2.5,1.6,3.3,2.8s1.2,2.6,1.2,4.1h-5.3c0-1.2-0.4-2.1-1.1-2.7s-1.8-1-3.1-1
		c-1.3,0-2.3,0.3-3,0.8s-1.1,1.3-1.1,2.2c0,0.8,0.4,1.5,1.3,2.1s2.1,1.1,3.7,1.6c3,0.9,5.2,2,6.6,3.4s2.1,3,2.1,5
		c0,2.2-0.8,4-2.5,5.2s-3.9,1.9-6.8,1.9c-2,0-3.8-0.4-5.4-1.1s-2.8-1.7-3.7-3s-1.3-2.7-1.3-4.4h5.3c0,2.8,1.7,4.2,5.1,4.2
		c1.3,0,2.2-0.3,2.9-0.8S1073.8,377.1,1073.8,376.2z"/>
</g>
<rect x="976.2" y="533.9" fill="#FFCB39" width="330" height="95"/>
<g>
	<path d="M1024.1,477.3H1014v6.9h11.9v4.2h-17.2v-25.6h17.1v4.3H1014v6.1h10.1V477.3z"/>
	<path d="M1038.4,479h-4.2v9.4h-5.3v-25.6h9.5c3,0,5.4,0.7,7,2s2.5,3.3,2.5,5.7c0,1.7-0.4,3.2-1.1,4.4s-1.9,2.1-3.4,2.8l5.5,10.5
		v0.2h-5.7L1038.4,479z M1034.2,474.8h4.3c1.3,0,2.3-0.3,3.1-1s1.1-1.6,1.1-2.8c0-1.2-0.3-2.2-1-2.8s-1.7-1-3.2-1h-4.2V474.8z"/>
	<path d="M1057.2,479.4v9h-5.3v-25.6h10c1.9,0,3.6,0.4,5.1,1.1s2.6,1.7,3.4,3s1.2,2.8,1.2,4.4c0,2.5-0.9,4.5-2.6,5.9
		s-4.1,2.2-7.1,2.2H1057.2z M1057.2,475.1h4.7c1.4,0,2.5-0.3,3.2-1s1.1-1.6,1.1-2.8c0-1.3-0.4-2.3-1.1-3s-1.8-1.2-3.1-1.2h-4.8
		V475.1z"/>
</g>
<rect x="976.2" y="639.5" fill="#FFCB39" width="330" height="95"/>
<g>
	<path d="M1015.6,568.3l6.6,18.6l6.5-18.6h6.9v25.6h-5.3v-7l0.5-12.1l-6.9,19.1h-3.6l-6.9-19.1l0.5,12.1v7h-5.3v-25.6H1015.6z"/>
	<path d="M1039.1,584.3c0-1.9,0.4-3.6,1.1-5s1.8-2.6,3.1-3.4s2.9-1.2,4.8-1.2c2.6,0,4.7,0.8,6.3,2.4s2.5,3.7,2.7,6.4l0,1.3
		c0,2.9-0.8,5.3-2.4,7s-3.8,2.6-6.6,2.6s-4.9-0.9-6.6-2.6s-2.5-4.1-2.5-7.2V584.3z M1044.2,584.6c0,1.8,0.3,3.2,1,4.1
		c0.7,1,1.7,1.4,2.9,1.4c1.2,0,2.2-0.5,2.9-1.4c0.7-0.9,1-2.5,1-4.5c0-1.8-0.3-3.1-1-4.1c-0.7-1-1.7-1.5-2.9-1.5
		c-1.2,0-2.2,0.5-2.9,1.5C1044.5,581.1,1044.2,582.6,1044.2,584.6z"/>
	<path d="M1077.4,584.6c0,3-0.7,5.4-2,7.1s-3.1,2.6-5.4,2.6c-2.1,0-3.7-0.8-4.9-2.4l-0.2,2h-4.6v-27h5.1v9.7
		c1.2-1.4,2.7-2.1,4.6-2.1c2.3,0,4.1,0.9,5.5,2.6s2,4.1,2,7.2V584.6z M1072.3,584.2c0-1.9-0.3-3.3-0.9-4.2s-1.5-1.3-2.7-1.3
		c-1.6,0-2.7,0.7-3.3,2v7.5c0.6,1.3,1.7,2,3.4,2c1.6,0,2.7-0.8,3.2-2.4C1072.2,587,1072.3,585.8,1072.3,584.2z"/>
	<path d="M1080.5,570c0-0.8,0.3-1.4,0.8-1.9s1.2-0.7,2.1-0.7c0.9,0,1.6,0.2,2.1,0.7s0.8,1.1,0.8,1.9c0,0.8-0.3,1.4-0.8,1.9
		s-1.2,0.7-2.1,0.7s-1.5-0.2-2.1-0.7S1080.5,570.8,1080.5,570z M1085.9,593.9h-5.1v-19h5.1V593.9z"/>
	<path d="M1095.4,593.9h-5.1v-27h5.1V593.9z"/>
	<path d="M1108.4,594.3c-2.8,0-5.1-0.9-6.8-2.6s-2.6-4-2.6-6.8v-0.5c0-1.9,0.4-3.6,1.1-5.1s1.8-2.7,3.1-3.5s2.9-1.2,4.6-1.2
		c2.6,0,4.7,0.8,6.1,2.5s2.2,4,2.2,7v2.1h-12.1c0.2,1.2,0.7,2.2,1.5,3s1.9,1.1,3.1,1.1c2,0,3.5-0.7,4.6-2.1l2.5,2.8
		c-0.8,1.1-1.8,1.9-3.1,2.5S1109.9,594.3,1108.4,594.3z M1107.8,578.7c-1,0-1.8,0.3-2.5,1s-1,1.7-1.2,2.9h7.1v-0.4
		c0-1.1-0.3-2-0.9-2.6S1108.9,578.7,1107.8,578.7z"/>
	<path d="M1142.8,588.7h-9.2l-1.8,5.3h-5.6l9.5-25.6h4.9l9.6,25.6h-5.6L1142.8,588.7z M1135,584.4h6.4l-3.2-9.6L1135,584.4z"/>
	<path d="M1168.5,584.6c0,2.9-0.7,5.3-2,7s-3.1,2.6-5.4,2.6c-1.9,0-3.5-0.7-4.7-2v9h-5.1v-26.3h4.7l0.2,1.9c1.2-1.5,2.8-2.2,4.8-2.2
		c2.3,0,4.2,0.9,5.5,2.6s2,4.1,2,7.2V584.6z M1163.5,584.2c0-1.8-0.3-3.1-0.9-4.1s-1.5-1.4-2.7-1.4c-1.6,0-2.7,0.6-3.3,1.8v7.8
		c0.6,1.3,1.7,1.9,3.3,1.9C1162.2,590.2,1163.5,588.2,1163.5,584.2z"/>
	<path d="M1188.8,584.6c0,2.9-0.7,5.3-2,7s-3.1,2.6-5.4,2.6c-1.9,0-3.5-0.7-4.7-2v9h-5.1v-26.3h4.7l0.2,1.9c1.2-1.5,2.8-2.2,4.8-2.2
		c2.3,0,4.2,0.9,5.5,2.6s2,4.1,2,7.2V584.6z M1183.7,584.2c0-1.8-0.3-3.1-0.9-4.1s-1.5-1.4-2.7-1.4c-1.6,0-2.7,0.6-3.3,1.8v7.8
		c0.6,1.3,1.7,1.9,3.3,1.9C1182.5,590.2,1183.7,588.2,1183.7,584.2z"/>
	<path d="M1202.3,588.7c0-0.6-0.3-1.1-0.9-1.5s-1.6-0.7-3-1c-4.5-0.9-6.8-2.9-6.8-5.8c0-1.7,0.7-3.1,2.1-4.2s3.2-1.7,5.5-1.7
		c2.4,0,4.3,0.6,5.8,1.7s2.2,2.6,2.2,4.4h-5.1c0-0.7-0.2-1.3-0.7-1.8s-1.2-0.7-2.2-0.7c-0.9,0-1.5,0.2-2,0.6s-0.7,0.9-0.7,1.5
		c0,0.6,0.3,1,0.8,1.4s1.4,0.6,2.7,0.9s2.3,0.5,3.2,0.9c2.7,1,4,2.7,4,5.1c0,1.7-0.7,3.1-2.2,4.2s-3.4,1.6-5.8,1.6
		c-1.6,0-3-0.3-4.2-0.9s-2.2-1.3-2.9-2.3s-1.1-2.1-1.1-3.2h4.8c0,0.9,0.4,1.6,1,2.1s1.5,0.7,2.5,0.7c1,0,1.7-0.2,2.2-0.6
		S1202.3,589.3,1202.3,588.7z"/>
</g>
<g>
	<path d="M1029.7,687.3c0,2.5-0.4,4.7-1.3,6.6s-2.2,3.4-3.8,4.4s-3.6,1.5-5.7,1.5c-2.1,0-4-0.5-5.7-1.5s-3-2.5-3.9-4.4
		s-1.4-4.1-1.4-6.5v-1.3c0-2.5,0.5-4.7,1.4-6.7s2.2-3.4,3.8-4.4s3.6-1.5,5.7-1.5s4,0.5,5.7,1.5s2.9,2.5,3.8,4.4s1.4,4.1,1.4,6.6
		V687.3z M1024.4,686.1c0-2.7-0.5-4.7-1.4-6.1s-2.3-2.1-4.1-2.1c-1.8,0-3.1,0.7-4.1,2.1s-1.4,3.4-1.5,6.1v1.2c0,2.6,0.5,4.6,1.4,6.1
		s2.3,2.2,4.1,2.2c1.8,0,3.1-0.7,4.1-2.1s1.4-3.4,1.4-6.1V686.1z"/>
	<path d="M1039.3,675.8v4.7h3.3v3.7h-3.3v9.5c0,0.7,0.1,1.2,0.4,1.5s0.8,0.5,1.5,0.5c0.6,0,1.1,0,1.5-0.1v3.8c-1,0.3-2,0.5-3.1,0.5
		c-3.6,0-5.4-1.8-5.4-5.4v-10.2h-2.8v-3.7h2.8v-4.7H1039.3z"/>
	<path d="M1050.3,682.5c1.3-1.6,3-2.4,5.1-2.4c4.1,0,6.2,2.4,6.3,7.2v12.2h-5.1v-12c0-1.1-0.2-1.9-0.7-2.4s-1.2-0.8-2.3-0.8
		c-1.5,0-2.6,0.6-3.2,1.7v13.5h-5.1v-27h5.1V682.5z"/>
	<path d="M1074.3,699.8c-2.8,0-5.1-0.9-6.8-2.6s-2.6-4-2.6-6.8v-0.5c0-1.9,0.4-3.6,1.1-5.1s1.8-2.7,3.1-3.5s2.9-1.2,4.6-1.2
		c2.6,0,4.7,0.8,6.1,2.5s2.2,4,2.2,7v2.1H1070c0.2,1.2,0.7,2.2,1.5,3s1.9,1.1,3.1,1.1c2,0,3.5-0.7,4.6-2.1l2.5,2.8
		c-0.8,1.1-1.8,1.9-3.1,2.5S1075.9,699.8,1074.3,699.8z M1073.7,684.2c-1,0-1.8,0.3-2.5,1s-1,1.7-1.2,2.9h7.1v-0.4
		c0-1.1-0.3-2-0.9-2.6S1074.8,684.2,1073.7,684.2z"/>
	<path d="M1095.7,685.2c-0.7-0.1-1.3-0.1-1.8-0.1c-1.9,0-3.2,0.7-3.8,2v12.4h-5.1v-19h4.8l0.1,2.3c1-1.7,2.4-2.6,4.2-2.6
		c0.6,0,1.1,0.1,1.6,0.2L1095.7,685.2z"/>
	<path d="M1108.4,694.2c0-0.6-0.3-1.1-0.9-1.5s-1.6-0.7-3-1c-4.5-0.9-6.8-2.9-6.8-5.8c0-1.7,0.7-3.1,2.1-4.2s3.2-1.7,5.5-1.7
		c2.4,0,4.3,0.6,5.8,1.7s2.2,2.6,2.2,4.4h-5.1c0-0.7-0.2-1.3-0.7-1.8s-1.2-0.7-2.2-0.7c-0.9,0-1.5,0.2-2,0.6s-0.7,0.9-0.7,1.5
		c0,0.6,0.3,1,0.8,1.4s1.4,0.6,2.7,0.9s2.3,0.5,3.2,0.9c2.7,1,4,2.7,4,5.1c0,1.7-0.7,3.1-2.2,4.2s-3.4,1.6-5.8,1.6
		c-1.6,0-3-0.3-4.2-0.9s-2.2-1.3-2.9-2.3s-1.1-2.1-1.1-3.2h4.8c0,0.9,0.4,1.6,1,2.1s1.5,0.7,2.5,0.7c1,0,1.7-0.2,2.2-0.6
		S1108.4,694.8,1108.4,694.2z"/>
</g>
<rect x="976.2" y="111.8" fill="#FFCB39" width="330" height="95"/>
<rect x="976.2" y="6.2" fill="#FFCB39" width="330" height="95"/>
<g>
	<path d="M1024.1,35.8H1014v10.5h-5.3V20.7h16.7v4.3H1014v6.6h10.1V35.8z"/>
	<path d="M1039.1,44.3c-1.3,1.5-3,2.3-5.2,2.3c-2,0-3.6-0.6-4.7-1.8s-1.6-2.9-1.6-5.2V27.2h5.1v12.3c0,2,0.9,3,2.7,3
		c1.7,0,2.9-0.6,3.6-1.8V27.2h5.1v19h-4.8L1039.1,44.3z"/>
	<path d="M1053.9,22.6v4.7h3.3V31h-3.3v9.5c0,0.7,0.1,1.2,0.4,1.5s0.8,0.5,1.5,0.5c0.6,0,1.1,0,1.5-0.1v3.8c-1,0.3-2,0.5-3.1,0.5
		c-3.6,0-5.4-1.8-5.4-5.4V31h-2.8v-3.7h2.8v-4.7H1053.9z"/>
	<path d="M1071.4,44.3c-1.3,1.5-3,2.3-5.2,2.3c-2,0-3.6-0.6-4.7-1.8s-1.6-2.9-1.6-5.2V27.2h5.1v12.3c0,2,0.9,3,2.7,3
		c1.7,0,2.9-0.6,3.6-1.8V27.2h5.1v19h-4.8L1071.4,44.3z"/>
	<path d="M1090.8,32c-0.7-0.1-1.3-0.1-1.8-0.1c-1.9,0-3.2,0.7-3.8,2v12.4h-5.1v-19h4.8l0.1,2.3c1-1.7,2.4-2.6,4.2-2.6
		c0.6,0,1.1,0.1,1.6,0.2L1090.8,32z"/>
	<path d="M1101.7,46.6c-2.8,0-5.1-0.9-6.8-2.6s-2.6-4-2.6-6.8v-0.5c0-1.9,0.4-3.6,1.1-5.1s1.8-2.7,3.1-3.5s2.9-1.2,4.6-1.2
		c2.6,0,4.6,0.8,6.1,2.5s2.2,4,2.2,7v2.1h-12.1c0.2,1.2,0.7,2.2,1.5,3s1.9,1.1,3.1,1.1c2,0,3.5-0.7,4.6-2.1l2.5,2.8
		c-0.8,1.1-1.8,1.9-3.1,2.5S1103.3,46.6,1101.7,46.6z M1101.1,31c-1,0-1.8,0.3-2.5,1c-0.6,0.7-1,1.7-1.2,2.9h7.1v-0.4
		c0-1.1-0.3-2-0.9-2.6C1103,31.3,1102.2,31,1101.1,31z"/>
	<path d="M1136.2,41h-9.2l-1.8,5.3h-5.6l9.5-25.6h4.9l9.6,25.6h-5.6L1136.2,41z M1128.3,36.7h6.4l-3.2-9.6L1128.3,36.7z"/>
	<path d="M1161.9,36.9c0,2.9-0.7,5.3-2,7s-3.1,2.6-5.4,2.6c-1.9,0-3.5-0.7-4.7-2v9h-5.1V27.2h4.7l0.2,1.9c1.2-1.5,2.8-2.2,4.8-2.2
		c2.3,0,4.2,0.9,5.5,2.6s2,4.1,2,7.2V36.9z M1156.8,36.6c0-1.8-0.3-3.1-0.9-4.1s-1.5-1.4-2.7-1.4c-1.6,0-2.7,0.6-3.3,1.8v7.8
		c0.6,1.3,1.7,1.9,3.3,1.9C1155.6,42.5,1156.8,40.5,1156.8,36.6z"/>
	<path d="M1182.1,36.9c0,2.9-0.7,5.3-2,7s-3.1,2.6-5.4,2.6c-1.9,0-3.5-0.7-4.7-2v9h-5.1V27.2h4.7l0.2,1.9c1.2-1.5,2.8-2.2,4.8-2.2
		c2.3,0,4.2,0.9,5.5,2.6s2,4.1,2,7.2V36.9z M1177.1,36.6c0-1.8-0.3-3.1-0.9-4.1s-1.5-1.4-2.7-1.4c-1.6,0-2.7,0.6-3.3,1.8v7.8
		c0.6,1.3,1.7,1.9,3.3,1.9C1175.9,42.5,1177.1,40.5,1177.1,36.6z"/>
	<path d="M1195.6,41c0-0.6-0.3-1.1-0.9-1.5s-1.6-0.7-3-1c-4.5-0.9-6.8-2.9-6.8-5.8c0-1.7,0.7-3.1,2.1-4.2s3.2-1.7,5.5-1.7
		c2.4,0,4.3,0.6,5.8,1.7s2.2,2.6,2.2,4.4h-5.1c0-0.7-0.2-1.3-0.7-1.8s-1.2-0.7-2.2-0.7c-0.9,0-1.5,0.2-2,0.6s-0.7,0.9-0.7,1.5
		c0,0.6,0.3,1,0.8,1.4s1.4,0.6,2.7,0.9s2.3,0.5,3.2,0.9c2.7,1,4,2.7,4,5.1c0,1.7-0.7,3.1-2.2,4.2s-3.4,1.6-5.8,1.6
		c-1.6,0-3-0.3-4.2-0.9s-2.2-1.3-2.9-2.3s-1.1-2.1-1.1-3.2h4.8c0,0.9,0.4,1.6,1,2.1s1.5,0.7,2.5,0.7c1,0,1.7-0.2,2.2-0.6
		S1195.6,41.6,1195.6,41z"/>
	<path d="M1212.1,39.4c0-1.2,0.3-2.3,1-3.3s1.9-2.1,3.6-3.4c-0.8-1-1.4-2-1.8-2.9s-0.7-1.8-0.7-2.8c0-2,0.6-3.6,1.9-4.9
		s3-1.9,5.1-1.9c1.9,0,3.5,0.6,4.7,1.7s1.8,2.6,1.8,4.3c0,2-1,3.8-3.1,5.4l-2,1.4l4.4,5.1c0.7-1.4,1-2.9,1-4.5h4.3
		c0,3.3-0.8,6-2.3,8.1l3.8,4.4h-5.8l-1.3-1.5c-1.9,1.2-4.1,1.9-6.5,1.9c-2.5,0-4.6-0.7-6.1-2S1212.1,41.5,1212.1,39.4z M1220.7,42.5
		c1.2,0,2.4-0.3,3.5-1l-5-5.8l-0.4,0.3c-1,0.9-1.6,1.9-1.6,3.1c0,1,0.3,1.8,1,2.5C1218.8,42.2,1219.6,42.5,1220.7,42.5z M1218.8,27
		c0,0.9,0.5,2,1.5,3.3l1.4-0.9c0.7-0.4,1.2-0.9,1.4-1.3s0.4-0.9,0.4-1.5s-0.2-1.1-0.7-1.5s-1-0.7-1.7-0.7c-0.7,0-1.3,0.2-1.7,0.7
		S1218.8,26.2,1218.8,27z"/>
	<path d="M1014.3,86.3h-5.3V60.7h5.3V86.3z"/>
	<path d="M1023.5,67.2l0.2,2.2c1.4-1.7,3.2-2.5,5.5-2.5c2,0,3.5,0.6,4.5,1.8s1.5,3,1.5,5.3v12.3h-5.1V74.1c0-1.1-0.2-1.9-0.7-2.3
		s-1.2-0.7-2.3-0.7c-1.4,0-2.5,0.6-3.2,1.8v13.4h-5.1v-19H1023.5z"/>
	<path d="M1045.1,62.6v4.7h3.3V71h-3.3v9.5c0,0.7,0.1,1.2,0.4,1.5s0.8,0.5,1.5,0.5c0.6,0,1.1,0,1.5-0.1v3.8c-1,0.3-2,0.5-3.1,0.5
		c-3.6,0-5.4-1.8-5.4-5.4V71h-2.8v-3.7h2.8v-4.7H1045.1z"/>
	<path d="M1059.9,86.6c-2.8,0-5.1-0.9-6.8-2.6s-2.6-4-2.6-6.8v-0.5c0-1.9,0.4-3.6,1.1-5.1s1.8-2.7,3.1-3.5s2.9-1.2,4.6-1.2
		c2.6,0,4.6,0.8,6.1,2.5s2.2,4,2.2,7v2.1h-12.1c0.2,1.2,0.7,2.2,1.5,3s1.9,1.1,3.1,1.1c2,0,3.5-0.7,4.6-2.1l2.5,2.8
		c-0.8,1.1-1.8,1.9-3.1,2.5S1061.5,86.6,1059.9,86.6z M1059.4,71c-1,0-1.8,0.3-2.5,1c-0.6,0.7-1,1.7-1.2,2.9h7.1v-0.4
		c0-1.1-0.3-2-0.9-2.6C1061.3,71.3,1060.4,71,1059.4,71z"/>
	<path d="M1069.9,76.6c0-2.9,0.7-5.3,2.1-7s3.3-2.7,5.6-2.7c2.1,0,3.7,0.7,4.9,2.1l0.2-1.8h4.6v18.4c0,1.7-0.4,3.1-1.1,4.3
		s-1.8,2.2-3.2,2.8s-3,1-4.8,1c-1.4,0-2.8-0.3-4.1-0.8s-2.3-1.3-3-2.2l2.2-3.1c1.3,1.4,2.8,2.1,4.6,2.1c1.3,0,2.4-0.4,3.1-1.1
		s1.1-1.7,1.1-3.1v-1c-1.2,1.3-2.7,2-4.6,2c-2.3,0-4.1-0.9-5.5-2.7s-2.1-4.2-2.1-7.1V76.6z M1075,77c0,1.7,0.3,3.1,1,4.1
		c0.7,1,1.6,1.5,2.8,1.5c1.5,0,2.7-0.6,3.3-1.7v-8c-0.7-1.2-1.8-1.7-3.3-1.7c-1.2,0-2.2,0.5-2.9,1.5S1075,75,1075,77z"/>
	<path d="M1101.9,72c-0.7-0.1-1.3-0.1-1.8-0.1c-1.9,0-3.2,0.7-3.8,2v12.4h-5.1v-19h4.8l0.1,2.3c1-1.7,2.4-2.6,4.2-2.6
		c0.6,0,1.1,0.1,1.6,0.2L1101.9,72z"/>
	<path d="M1114.8,86.3c-0.2-0.5-0.4-1-0.5-1.7c-1.2,1.4-2.8,2.1-4.8,2.1c-1.9,0-3.4-0.5-4.6-1.6s-1.8-2.4-1.8-4.1
		c0-2,0.7-3.6,2.2-4.6s3.7-1.6,6.5-1.6h2.3v-1.1c0-0.9-0.2-1.6-0.7-2.1s-1.2-0.8-2.1-0.8c-0.9,0-1.5,0.2-2,0.6s-0.7,1-0.7,1.7h-5.1
		c0-1.1,0.3-2.1,1-3.1s1.6-1.7,2.9-2.2s2.6-0.8,4.2-0.8c2.3,0,4.2,0.6,5.6,1.8s2.1,2.8,2.1,5v8.2c0,1.8,0.3,3.2,0.8,4.1v0.3H1114.8z
		 M1110.6,82.7c0.8,0,1.4-0.2,2.1-0.5s1.1-0.8,1.4-1.3v-3.3h-1.9c-2.5,0-3.9,0.9-4.1,2.6l0,0.3c0,0.6,0.2,1.2,0.7,1.6
		S1109.8,82.7,1110.6,82.7z"/>
	<path d="M1129.2,62.6v4.7h3.3V71h-3.3v9.5c0,0.7,0.1,1.2,0.4,1.5s0.8,0.5,1.5,0.5c0.6,0,1.1,0,1.5-0.1v3.8c-1,0.3-2,0.5-3.1,0.5
		c-3.6,0-5.4-1.8-5.4-5.4V71h-2.8v-3.7h2.8v-4.7H1129.2z"/>
	<path d="M1135.2,62.3c0-0.8,0.3-1.4,0.8-1.9s1.2-0.7,2.1-0.7c0.9,0,1.6,0.2,2.1,0.7s0.8,1.1,0.8,1.9c0,0.8-0.3,1.4-0.8,1.9
		s-1.2,0.7-2.1,0.7s-1.5-0.2-2.1-0.7S1135.2,63.1,1135.2,62.3z M1140.6,86.3h-5.1v-19h5.1V86.3z"/>
	<path d="M1144,76.6c0-1.9,0.4-3.6,1.1-5s1.8-2.6,3.1-3.4s3-1.2,4.8-1.2c2.6,0,4.7,0.8,6.3,2.4s2.5,3.7,2.7,6.4l0,1.3
		c0,2.9-0.8,5.3-2.4,7s-3.8,2.6-6.6,2.6s-4.9-0.9-6.6-2.6s-2.5-4.1-2.5-7.2V76.6z M1149.1,76.9c0,1.8,0.3,3.2,1,4.1s1.7,1.4,2.9,1.4
		c1.2,0,2.2-0.5,2.9-1.4c0.7-0.9,1-2.5,1-4.5c0-1.8-0.3-3.1-1-4.1c-0.7-1-1.7-1.5-2.9-1.5c-1.2,0-2.2,0.5-2.9,1.5
		C1149.4,73.4,1149.1,74.9,1149.1,76.9z"/>
	<path d="M1169.8,67.2l0.2,2.2c1.4-1.7,3.2-2.5,5.5-2.5c2,0,3.5,0.6,4.5,1.8s1.5,3,1.5,5.3v12.3h-5.1V74.1c0-1.1-0.2-1.9-0.7-2.3
		s-1.2-0.7-2.3-0.7c-1.4,0-2.5,0.6-3.2,1.8v13.4h-5.1v-19H1169.8z"/>
</g>
<g>
	
		<line fill="none" stroke="#000000" stroke-width="2" stroke-linecap="round" stroke-linejoin="round" x1="1079.8" y1="821.2" x2="1079.8" y2="814.8"/>
	
		<line fill="none" stroke="#000000" stroke-width="2" stroke-linecap="round" stroke-linejoin="round" x1="1149" y1="821.2" x2="1149" y2="814.8"/>
	<linearGradient id="SVGID_3_" gradientUnits="userSpaceOnUse" x1="1097.8201" y1="773.9418" x2="1129.9597" y2="829.6093">
		<stop  offset="0" style="stop-color:#FFFFFF"/>
		<stop  offset="1" style="stop-color:#CCCCCC"/>
	</linearGradient>
	<path fill="url(#SVGID_3_)" stroke="#000000" stroke-miterlimit="10" d="M1072.9,789h82c2.4,0,4.3,1.9,4.3,4.3v17
		c0,2.4-1.9,4.3-4.3,4.3h-82c-2.4,0-4.3-1.9-4.3-4.3v-17C1068.6,790.9,1070.5,789,1072.9,789z"/>
	<circle fill="#FFFFFF" stroke="#000000" stroke-miterlimit="10" cx="1083.5" cy="802.4" r="3.2"/>
	<circle fill="#FFFFFF" stroke="#000000" stroke-miterlimit="10" cx="1094.7" cy="802.4" r="3.2"/>
	<circle fill="#FFFFFF" stroke="#000000" stroke-miterlimit="10" cx="1105.9" cy="802.4" r="3.2"/>
	<line fill="none" stroke="#000000" stroke-width="2" stroke-miterlimit="10" x1="1135.3" y1="795.4" x2="1128.4" y2="808.1"/>
	<line fill="none" stroke="#000000" stroke-width="2" stroke-miterlimit="10" x1="1139.6" y1="795.4" x2="1132.7" y2="808.1"/>
	<line fill="none" stroke="#000000" stroke-width="2" stroke-miterlimit="10" x1="1143.8" y1="795.4" x2="1136.9" y2="808.1"/>
	<line fill="none" stroke="#000000" stroke-width="2" stroke-miterlimit="10" x1="1148.1" y1="795.4" x2="1141.2" y2="808.1"/>
	<line fill="none" stroke="#000000" stroke-width="2" stroke-miterlimit="10" x1="1148.6" y1="802.2" x2="1145.4" y2="808.1"/>
	<line fill="none" stroke="#000000" stroke-width="2" stroke-miterlimit="10" x1="1131.1" y1="795.4" x2="1127.7" y2="801.5"/>
</g>
<g>
	<path fill="#FFFFFF" d="M623,350.6c0-1.2-0.4-2.2-1.3-2.9s-2.5-1.4-4.7-2.1c-2.3-0.7-4.1-1.5-5.4-2.2c-3.6-2-5.5-4.6-5.5-7.9
		c0-1.7,0.5-3.3,1.5-4.6c1-1.4,2.4-2.4,4.2-3.2c1.8-0.8,3.9-1.1,6.1-1.1c2.3,0,4.3,0.4,6.1,1.2c1.8,0.8,3.2,2,4.2,3.5
		s1.5,3.2,1.5,5.1l-6.6,0c0-1.5-0.5-2.6-1.4-3.4c-0.9-0.8-2.2-1.2-3.9-1.2c-1.6,0-2.9,0.3-3.8,1c-0.9,0.7-1.3,1.6-1.3,2.7
		c0,1,0.5,1.9,1.6,2.6c1,0.7,2.6,1.4,4.6,2c3.8,1.1,6.5,2.5,8.2,4.2c1.7,1.7,2.6,3.8,2.6,6.2c0,2.8-1,4.9-3.1,6.5
		c-2.1,1.6-4.9,2.4-8.5,2.4c-2.5,0-4.7-0.5-6.7-1.4c-2-0.9-3.6-2.1-4.6-3.7c-1.1-1.6-1.6-3.4-1.6-5.4l6.6,0c0,3.5,2.1,5.3,6.3,5.3
		c1.6,0,2.8-0.3,3.7-1C622.5,352.6,623,351.7,623,350.6z"/>
	<path fill="#FFFFFF" d="M643.5,354.3c1.2,0,2.1-0.3,2.9-1c0.7-0.6,1.1-1.5,1.1-2.6l6,0c0,1.6-0.5,3.1-1.3,4.4
		c-0.9,1.3-2,2.4-3.5,3.1c-1.5,0.7-3.2,1.1-5,1.1c-3.4,0-6.1-1.1-8-3.2c-2-2.2-2.9-5.1-2.9-9v-0.4c0-3.7,1-6.6,2.9-8.8
		c1.9-2.2,4.6-3.3,8-3.3c3,0,5.4,0.8,7.2,2.5c1.8,1.7,2.7,3.9,2.7,6.8l-6,0c0-1.2-0.4-2.2-1.1-3c-0.7-0.8-1.7-1.2-2.9-1.2
		c-1.5,0-2.6,0.5-3.4,1.6c-0.8,1.1-1.1,2.8-1.1,5.2v0.7c0,2.5,0.4,4.2,1.1,5.3C640.9,353.7,642,354.3,643.5,354.3z"/>
	<path fill="#FFFFFF" d="M670.9,359c-0.3-0.6-0.5-1.3-0.6-2.1c-1.5,1.7-3.5,2.6-6,2.6c-2.3,0-4.3-0.7-5.8-2c-1.5-1.3-2.3-3-2.3-5.1
		c0-2.5,0.9-4.5,2.8-5.8c1.9-1.3,4.6-2,8.1-2l2.9,0v-1.4c0-1.1-0.3-2-0.8-2.6c-0.6-0.7-1.5-1-2.7-1c-1.1,0-1.9,0.3-2.5,0.8
		c-0.6,0.5-0.9,1.2-0.9,2.1l-6.3,0c0-1.4,0.4-2.7,1.3-3.8s2.1-2.1,3.6-2.8c1.6-0.7,3.3-1,5.2-1c2.9,0,5.3,0.7,7,2.2
		c1.7,1.5,2.6,3.5,2.6,6.2v10.3c0,2.3,0.3,4,0.9,5.1v0.4L670.9,359z M665.6,354.5c0.9,0,1.8-0.2,2.6-0.6c0.8-0.4,1.4-1,1.8-1.7v-4.1
		l-2.4,0c-3.2,0-4.9,1.1-5.1,3.3l0,0.4c0,0.8,0.3,1.4,0.8,2C663.9,354.3,664.7,354.5,665.6,354.5z"/>
	<path fill="#FFFFFF" d="M680.2,346.9c0-3.7,0.8-6.7,2.5-8.9c1.7-2.2,3.9-3.3,6.8-3.3c2.3,0,4.2,0.9,5.7,2.6l0-12.1l6.4,0l0,33.8
		l-5.7,0l-0.3-2.5c-1.6,2-3.6,3-6.1,3c-2.8,0-5-1.1-6.7-3.3C681.1,353.9,680.2,350.8,680.2,346.9z M686.6,347.4
		c0,2.2,0.4,3.9,1.2,5.1c0.8,1.2,1.9,1.8,3.4,1.8c2,0,3.3-0.8,4.2-2.5l0-9.4c-0.8-1.7-2.2-2.5-4.1-2.5
		C688.1,339.9,686.6,342.4,686.6,347.4z"/>
	<path fill="#FFFFFF" d="M720.4,359c-0.3-0.6-0.5-1.3-0.6-2.1c-1.5,1.7-3.5,2.6-6,2.6c-2.3,0-4.3-0.7-5.8-2c-1.5-1.3-2.3-3-2.3-5.1
		c0-2.5,0.9-4.5,2.8-5.8c1.9-1.3,4.6-2,8.1-2l2.9,0v-1.4c0-1.1-0.3-2-0.8-2.6c-0.6-0.7-1.5-1-2.7-1c-1.1,0-1.9,0.3-2.5,0.8
		c-0.6,0.5-0.9,1.2-0.9,2.1l-6.3,0c0-1.4,0.4-2.7,1.3-3.8s2.1-2.1,3.6-2.8c1.6-0.7,3.3-1,5.2-1c2.9,0,5.3,0.7,7,2.2
		c1.7,1.5,2.6,3.5,2.6,6.2v10.3c0,2.3,0.3,4,0.9,5.1v0.4L720.4,359z M715.1,354.5c0.9,0,1.8-0.2,2.6-0.6c0.8-0.4,1.4-1,1.8-1.7v-4.1
		h-2.4c-3.2,0-4.9,1.1-5.1,3.3l0,0.4c0,0.8,0.3,1.4,0.8,2C713.4,354.3,714.1,354.5,715.1,354.5z"/>
	<path fill="#FFFFFF" d="M652.6,413l-6.6,0l0-13.7l-12.9,0l0,13.7l-6.6,0l0-32l6.6,0l0,13l12.9,0l0-13l6.6,0L652.6,413z"/>
	<path fill="#FFFFFF" d="M657,400.9c0-2.4,0.5-4.5,1.4-6.3s2.2-3.3,3.9-4.3c1.7-1,3.7-1.5,5.9-1.5c3.2,0,5.8,1,7.9,2.9
		c2,2,3.2,4.6,3.4,8l0,1.6c0,3.6-1,6.6-3.1,8.8s-4.8,3.3-8.2,3.3c-3.4,0-6.2-1.1-8.2-3.3c-2-2.2-3.1-5.2-3.1-9V400.9z M663.3,401.3
		c0,2.3,0.4,4,1.3,5.2c0.8,1.2,2.1,1.8,3.6,1.8c1.5,0,2.7-0.6,3.6-1.8c0.9-1.2,1.3-3.1,1.3-5.7c0-2.2-0.4-3.9-1.3-5.1
		c-0.9-1.2-2.1-1.8-3.6-1.8c-1.6,0-2.8,0.6-3.6,1.8C663.7,396.9,663.3,398.8,663.3,401.3z"/>
	<path fill="#FFFFFF" d="M696.3,406.4c0-0.8-0.4-1.4-1.2-1.8c-0.8-0.4-2-0.8-3.7-1.2c-5.7-1.2-8.5-3.6-8.5-7.2
		c0-2.1,0.9-3.9,2.6-5.3c1.8-1.4,4-2.1,6.9-2.1c3,0,5.4,0.7,7.2,2.1c1.8,1.4,2.7,3.3,2.7,5.5l-6.4,0c0-0.9-0.3-1.7-0.9-2.3
		c-0.6-0.6-1.5-0.9-2.7-0.9c-1.1,0-1.9,0.2-2.5,0.7s-0.9,1.1-0.9,1.8c0,0.7,0.3,1.3,1,1.7c0.7,0.4,1.8,0.8,3.4,1.1
		c1.6,0.3,2.9,0.7,4,1.1c3.4,1.2,5,3.4,5,6.4c0,2.2-0.9,3.9-2.8,5.3c-1.9,1.3-4.3,2-7.2,2c-2,0-3.8-0.4-5.3-1.1
		c-1.5-0.7-2.8-1.7-3.6-2.9c-0.9-1.2-1.3-2.6-1.3-4l6,0c0.1,1.1,0.5,2,1.3,2.6c0.8,0.6,1.8,0.9,3.1,0.9c1.2,0,2.1-0.2,2.8-0.7
		C696,407.7,696.3,407.1,696.3,406.4z"/>
	<path fill="#FFFFFF" d="M714.1,383.3v5.8l4.1,0l0,4.7l-4.1,0l0,11.9c0,0.9,0.2,1.5,0.5,1.9s1,0.6,1.9,0.6c0.7,0,1.3-0.1,1.9-0.2
		v4.8c-1.2,0.4-2.5,0.6-3.8,0.6c-4.5,0-6.7-2.2-6.8-6.7l0-12.8l-3.5,0l0-4.7l3.5,0v-5.8L714.1,383.3z"/>
</g>
<g>
	<line fill="none" stroke="#FFFFFF" stroke-miterlimit="10" x1="524.7" y1="348.1" x2="524.7" y2="358.1"/>
	<line fill="none" stroke="#FFFFFF" stroke-miterlimit="10" x1="530.9" y1="341.1" x2="530.9" y2="358.1"/>
	<g>
		<g>
			<path fill-rule="evenodd" clip-rule="evenodd" fill="none" stroke="#FFFFFF" stroke-miterlimit="10" d="M542.2,368.1h-47.5
				c-1,0-1.7,0.8-1.7,1.7V395c0,1,0.8,1.7,1.7,1.7h47.5c1,0,1.7-0.8,1.7-1.7v-25.2C544,368.9,543.2,368.1,542.2,368.1z"/>
		</g>
		<path fill="none" stroke="#FFFFFF" stroke-miterlimit="10" d="M520.2,399.5c0,5.1,2.8,9.8,5.6,9.8h1.1v2.2h-16.8v-2.2h1.1
			c2.8,0,5.6-4.7,5.6-9.8H520.2z"/>
		<polyline fill="none" stroke="#FFFFFF" stroke-miterlimit="10" points="496.2,390.8 504.3,383.6 508.5,386.6 516.1,381.9 
			523.1,383 529.8,377.7 535.1,380.2 540.7,374.6 		"/>
	</g>
	<g>
		<g>
			<path fill-rule="evenodd" clip-rule="evenodd" fill="none" stroke="#FFFFFF" stroke-miterlimit="10" d="M542.2,336.1h-47.5
				c-1,0-1.7,0.8-1.7,1.7V363c0,1,0.8,1.7,1.7,1.7h47.5c1,0,1.7-0.8,1.7-1.7v-25.2C544,336.9,543.2,336.1,542.2,336.1z"/>
		</g>
	</g>
	<line fill="none" stroke="#FFFFFF" stroke-miterlimit="10" x1="500" y1="343.1" x2="500" y2="358.1"/>
	<line fill="none" stroke="#FFFFFF" stroke-miterlimit="10" x1="518.5" y1="347.1" x2="518.5" y2="358.1"/>
	<line fill="none" stroke="#FFFFFF" stroke-miterlimit="10" x1="512.4" y1="350.1" x2="512.4" y2="358.1"/>
	<line fill="none" stroke="#FFFFFF" stroke-miterlimit="10" x1="506.2" y1="348.1" x2="506.2" y2="358.1"/>
	<line fill="none" stroke="#FFFFFF" stroke-miterlimit="10" x1="537" y1="343.1" x2="537" y2="358.1"/>
</g>
<g>
	<path d="M1029.5,171.8h-5.3v-11H1014v11h-5.3v-25.6h5.3v10.4h10.3v-10.4h5.3V171.8z"/>
	<path d="M1033.8,147.9c0-0.8,0.3-1.4,0.8-1.9s1.2-0.7,2.1-0.7c0.9,0,1.6,0.2,2.1,0.7s0.8,1.1,0.8,1.9c0,0.8-0.3,1.4-0.8,1.9
		s-1.2,0.7-2.1,0.7s-1.5-0.2-2.1-0.7S1033.8,148.6,1033.8,147.9z M1039.2,171.8h-5.1v-19h5.1V171.8z"/>
	<path d="M1053.6,166.5c0-0.6-0.3-1.1-0.9-1.5s-1.6-0.7-3-1c-4.5-0.9-6.8-2.9-6.8-5.8c0-1.7,0.7-3.1,2.1-4.2s3.2-1.7,5.5-1.7
		c2.4,0,4.3,0.6,5.8,1.7s2.2,2.6,2.2,4.4h-5.1c0-0.7-0.2-1.3-0.7-1.8s-1.2-0.7-2.2-0.7c-0.9,0-1.5,0.2-2,0.6s-0.7,0.9-0.7,1.5
		c0,0.6,0.3,1,0.8,1.4s1.4,0.6,2.7,0.9s2.3,0.5,3.2,0.9c2.7,1,4,2.7,4,5.1c0,1.7-0.7,3.1-2.2,4.2s-3.4,1.6-5.8,1.6
		c-1.6,0-3-0.3-4.2-0.9s-2.2-1.3-2.9-2.3s-1.1-2.1-1.1-3.2h4.8c0,0.9,0.4,1.6,1,2.1s1.5,0.7,2.5,0.7c1,0,1.7-0.2,2.2-0.6
		S1053.6,167.1,1053.6,166.5z"/>
	<path d="M1067.9,148.1v4.7h3.3v3.7h-3.3v9.5c0,0.7,0.1,1.2,0.4,1.5s0.8,0.5,1.5,0.5c0.6,0,1.1,0,1.5-0.1v3.8c-1,0.3-2,0.5-3.1,0.5
		c-3.6,0-5.4-1.8-5.4-5.4v-10.2h-2.8v-3.7h2.8v-4.7H1067.9z"/>
	<path d="M1072.7,162.1c0-1.9,0.4-3.6,1.1-5s1.8-2.6,3.1-3.4s2.9-1.2,4.8-1.2c2.6,0,4.7,0.8,6.3,2.4s2.5,3.7,2.7,6.4l0,1.3
		c0,2.9-0.8,5.3-2.4,7s-3.8,2.6-6.6,2.6s-4.9-0.9-6.6-2.6s-2.5-4.1-2.5-7.2V162.1z M1077.8,162.5c0,1.8,0.3,3.2,1,4.1
		s1.7,1.4,2.9,1.4c1.2,0,2.2-0.5,2.9-1.4c0.7-0.9,1-2.5,1-4.5c0-1.8-0.3-3.1-1-4.1c-0.7-1-1.7-1.5-2.9-1.5c-1.2,0-2.2,0.5-2.9,1.5
		C1078.1,158.9,1077.8,160.4,1077.8,162.5z"/>
	<path d="M1104.5,157.5c-0.7-0.1-1.3-0.1-1.8-0.1c-1.9,0-3.2,0.7-3.8,2v12.4h-5.1v-19h4.8l0.1,2.3c1-1.7,2.4-2.6,4.2-2.6
		c0.6,0,1.1,0.1,1.6,0.2L1104.5,157.5z"/>
	<path d="M1106.9,147.9c0-0.8,0.3-1.4,0.8-1.9s1.2-0.7,2.1-0.7c0.9,0,1.6,0.2,2.1,0.7s0.8,1.1,0.8,1.9c0,0.8-0.3,1.4-0.8,1.9
		s-1.2,0.7-2.1,0.7s-1.5-0.2-2.1-0.7S1106.9,148.6,1106.9,147.9z M1112.3,171.8h-5.1v-19h5.1V171.8z"/>
	<path d="M1127.5,171.8c-0.2-0.5-0.4-1-0.5-1.7c-1.2,1.4-2.8,2.1-4.8,2.1c-1.9,0-3.4-0.5-4.6-1.6s-1.8-2.4-1.8-4.1
		c0-2,0.7-3.6,2.2-4.6s3.7-1.6,6.5-1.6h2.3v-1.1c0-0.9-0.2-1.6-0.7-2.1s-1.2-0.8-2.1-0.8c-0.9,0-1.5,0.2-2,0.6s-0.7,1-0.7,1.7h-5.1
		c0-1.1,0.3-2.1,1-3.1s1.6-1.7,2.9-2.2s2.6-0.8,4.2-0.8c2.3,0,4.2,0.6,5.6,1.8s2.1,2.8,2.1,5v8.2c0,1.8,0.3,3.2,0.8,4.1v0.3H1127.5z
		 M1123.3,168.3c0.8,0,1.4-0.2,2.1-0.5s1.1-0.8,1.4-1.3v-3.3h-1.9c-2.5,0-3.9,0.9-4.1,2.6l0,0.3c0,0.6,0.2,1.2,0.7,1.6
		S1122.6,168.3,1123.3,168.3z"/>
	<path d="M1140.5,152.8l0.2,2.2c1.4-1.7,3.2-2.5,5.5-2.5c2,0,3.5,0.6,4.5,1.8s1.5,3,1.5,5.3v12.3h-5.1v-12.2c0-1.1-0.2-1.9-0.7-2.3
		s-1.2-0.7-2.3-0.7c-1.4,0-2.5,0.6-3.2,1.8v13.4h-5.1v-19H1140.5z"/>
</g>
<rect x="75.3" y="106.1" fill="#003E6E" width="298" height="100"/>
<rect x="75.2" y="105.7" opacity="0.3" width="72.9" height="100"/>
<g>
	<path fill="#FFFFFF" d="M174.5,157.6v9h-5.3V141h10c1.9,0,3.6,0.4,5.1,1.1s2.6,1.7,3.4,3s1.2,2.8,1.2,4.4c0,2.5-0.9,4.5-2.6,5.9
		s-4.1,2.2-7.1,2.2H174.5z M174.5,153.4h4.7c1.4,0,2.5-0.3,3.2-1s1.1-1.6,1.1-2.8c0-1.3-0.4-2.3-1.1-3s-1.8-1.2-3.1-1.2h-4.8V153.4z
		"/>
	<path fill="#FFFFFF" d="M202.8,152.4c-0.7-0.1-1.3-0.1-1.8-0.1c-1.9,0-3.2,0.7-3.8,2v12.4h-5.1v-19h4.8l0.1,2.3
		c1-1.7,2.4-2.6,4.2-2.6c0.6,0,1.1,0.1,1.6,0.2L202.8,152.4z"/>
	<path fill="#FFFFFF" d="M203.8,157c0-1.9,0.4-3.6,1.1-5s1.8-2.6,3.1-3.4s2.9-1.2,4.8-1.2c2.6,0,4.7,0.8,6.3,2.4s2.5,3.7,2.7,6.4
		l0,1.3c0,2.9-0.8,5.3-2.4,7s-3.8,2.6-6.6,2.6s-4.9-0.9-6.6-2.6s-2.5-4.1-2.5-7.2V157z M208.9,157.3c0,1.8,0.3,3.2,1,4.1
		s1.7,1.4,2.9,1.4c1.2,0,2.2-0.5,2.9-1.4c0.7-0.9,1-2.5,1-4.5c0-1.8-0.3-3.1-1-4.1c-0.7-1-1.7-1.5-2.9-1.5c-1.2,0-2.2,0.5-2.9,1.5
		C209.3,153.8,208.9,155.3,208.9,157.3z"/>
	<path fill="#FFFFFF" d="M231.1,142.9v4.7h3.3v3.7h-3.3v9.5c0,0.7,0.1,1.2,0.4,1.5s0.8,0.5,1.5,0.5c0.6,0,1.1,0,1.5-0.1v3.8
		c-1,0.3-2,0.5-3.1,0.5c-3.6,0-5.4-1.8-5.4-5.4v-10.2h-2.8v-3.7h2.8v-4.7H231.1z"/>
	<path fill="#FFFFFF" d="M235.8,157c0-1.9,0.4-3.6,1.1-5s1.8-2.6,3.1-3.4s2.9-1.2,4.8-1.2c2.6,0,4.7,0.8,6.3,2.4s2.5,3.7,2.7,6.4
		l0,1.3c0,2.9-0.8,5.3-2.4,7s-3.8,2.6-6.6,2.6s-4.9-0.9-6.6-2.6s-2.5-4.1-2.5-7.2V157z M240.9,157.3c0,1.8,0.3,3.2,1,4.1
		s1.7,1.4,2.9,1.4c1.2,0,2.2-0.5,2.9-1.4c0.7-0.9,1-2.5,1-4.5c0-1.8-0.3-3.1-1-4.1c-0.7-1-1.7-1.5-2.9-1.5c-1.2,0-2.2,0.5-2.9,1.5
		C241.3,153.8,240.9,155.3,240.9,157.3z"/>
	<path fill="#FFFFFF" d="M264.9,162.9c0.9,0,1.7-0.3,2.3-0.8s0.9-1.2,0.9-2.1h4.8c0,1.3-0.4,2.5-1.1,3.5s-1.6,1.9-2.8,2.5
		s-2.5,0.9-4,0.9c-2.7,0-4.9-0.9-6.4-2.6s-2.4-4.1-2.4-7.2v-0.3c0-2.9,0.8-5.3,2.3-7s3.7-2.6,6.4-2.6c2.4,0,4.3,0.7,5.7,2
		s2.2,3.2,2.2,5.4h-4.8c0-1-0.3-1.8-0.9-2.4s-1.4-0.9-2.3-0.9c-1.2,0-2.1,0.4-2.7,1.3c-0.6,0.9-0.9,2.3-0.9,4.2v0.5
		c0,2,0.3,3.4,0.9,4.2C262.8,162.5,263.7,162.9,264.9,162.9z"/>
	<path fill="#FFFFFF" d="M275,157c0-1.9,0.4-3.6,1.1-5s1.8-2.6,3.1-3.4s2.9-1.2,4.8-1.2c2.6,0,4.7,0.8,6.3,2.4s2.5,3.7,2.7,6.4
		l0,1.3c0,2.9-0.8,5.3-2.4,7s-3.8,2.6-6.6,2.6s-4.9-0.9-6.6-2.6s-2.5-4.1-2.5-7.2V157z M280,157.3c0,1.8,0.3,3.2,1,4.1
		s1.7,1.4,2.9,1.4c1.2,0,2.2-0.5,2.9-1.4c0.7-0.9,1-2.5,1-4.5c0-1.8-0.3-3.1-1-4.1c-0.7-1-1.7-1.5-2.9-1.5c-1.2,0-2.2,0.5-2.9,1.5
		C280.4,153.8,280,155.3,280,157.3z"/>
	<path fill="#FFFFFF" d="M301.5,166.6h-5.1v-27h5.1V166.6z"/>
	<path fill="#FFFFFF" d="M324.1,149.9l4.8-8.8h6.1l-7.5,12.7l7.6,12.9H329l-4.9-9l-4.9,9h-6.1l7.6-12.9l-7.5-12.7h6.1L324.1,149.9z"
		/>
</g>
<rect x="75.3" y="316.1" fill="#B0B574" width="298" height="100"/>
<rect x="75.2" y="316" opacity="0.3" width="72.9" height="100"/>
<g>
	<path fill="#FFFFFF" d="M174.5,367.6v9h-5.3V351h10c1.9,0,3.6,0.4,5.1,1.1s2.6,1.7,3.4,3s1.2,2.8,1.2,4.4c0,2.5-0.9,4.5-2.6,5.9
		s-4.1,2.2-7.1,2.2H174.5z M174.5,363.4h4.7c1.4,0,2.5-0.3,3.2-1s1.1-1.6,1.1-2.8c0-1.3-0.4-2.3-1.1-3s-1.8-1.2-3.1-1.2h-4.8V363.4z
		"/>
	<path fill="#FFFFFF" d="M202.8,362.4c-0.7-0.1-1.3-0.1-1.8-0.1c-1.9,0-3.2,0.7-3.8,2v12.4h-5.1v-19h4.8l0.1,2.3
		c1-1.7,2.4-2.6,4.2-2.6c0.6,0,1.1,0.1,1.6,0.2L202.8,362.4z"/>
	<path fill="#FFFFFF" d="M203.8,367c0-1.9,0.4-3.6,1.1-5s1.8-2.6,3.1-3.4s2.9-1.2,4.8-1.2c2.6,0,4.7,0.8,6.3,2.4s2.5,3.7,2.7,6.4
		l0,1.3c0,2.9-0.8,5.3-2.4,7s-3.8,2.6-6.6,2.6s-4.9-0.9-6.6-2.6s-2.5-4.1-2.5-7.2V367z M208.9,367.3c0,1.8,0.3,3.2,1,4.1
		s1.7,1.4,2.9,1.4c1.2,0,2.2-0.5,2.9-1.4c0.7-0.9,1-2.5,1-4.5c0-1.8-0.3-3.1-1-4.1c-0.7-1-1.7-1.5-2.9-1.5c-1.2,0-2.2,0.5-2.9,1.5
		C209.3,363.8,208.9,365.3,208.9,367.3z"/>
	<path fill="#FFFFFF" d="M231.1,352.9v4.7h3.3v3.7h-3.3v9.5c0,0.7,0.1,1.2,0.4,1.5s0.8,0.5,1.5,0.5c0.6,0,1.1,0,1.5-0.1v3.8
		c-1,0.3-2,0.5-3.1,0.5c-3.6,0-5.4-1.8-5.4-5.4v-10.2h-2.8v-3.7h2.8v-4.7H231.1z"/>
	<path fill="#FFFFFF" d="M235.8,367c0-1.9,0.4-3.6,1.1-5s1.8-2.6,3.1-3.4s2.9-1.2,4.8-1.2c2.6,0,4.7,0.8,6.3,2.4s2.5,3.7,2.7,6.4
		l0,1.3c0,2.9-0.8,5.3-2.4,7s-3.8,2.6-6.6,2.6s-4.9-0.9-6.6-2.6s-2.5-4.1-2.5-7.2V367z M240.9,367.3c0,1.8,0.3,3.2,1,4.1
		s1.7,1.4,2.9,1.4c1.2,0,2.2-0.5,2.9-1.4c0.7-0.9,1-2.5,1-4.5c0-1.8-0.3-3.1-1-4.1c-0.7-1-1.7-1.5-2.9-1.5c-1.2,0-2.2,0.5-2.9,1.5
		C241.3,363.8,240.9,365.3,240.9,367.3z"/>
	<path fill="#FFFFFF" d="M264.9,372.9c0.9,0,1.7-0.3,2.3-0.8s0.9-1.2,0.9-2.1h4.8c0,1.3-0.4,2.5-1.1,3.5s-1.6,1.9-2.8,2.5
		s-2.5,0.9-4,0.9c-2.7,0-4.9-0.9-6.4-2.6s-2.4-4.1-2.4-7.2v-0.3c0-2.9,0.8-5.3,2.3-7s3.7-2.6,6.4-2.6c2.4,0,4.3,0.7,5.7,2
		s2.2,3.2,2.2,5.4h-4.8c0-1-0.3-1.8-0.9-2.4s-1.4-0.9-2.3-0.9c-1.2,0-2.1,0.4-2.7,1.3c-0.6,0.9-0.9,2.3-0.9,4.2v0.5
		c0,2,0.3,3.4,0.9,4.2C262.8,372.5,263.7,372.9,264.9,372.9z"/>
	<path fill="#FFFFFF" d="M275,367c0-1.9,0.4-3.6,1.1-5s1.8-2.6,3.1-3.4s2.9-1.2,4.8-1.2c2.6,0,4.7,0.8,6.3,2.4s2.5,3.7,2.7,6.4
		l0,1.3c0,2.9-0.8,5.3-2.4,7s-3.8,2.6-6.6,2.6s-4.9-0.9-6.6-2.6s-2.5-4.1-2.5-7.2V367z M280,367.3c0,1.8,0.3,3.2,1,4.1
		s1.7,1.4,2.9,1.4c1.2,0,2.2-0.5,2.9-1.4c0.7-0.9,1-2.5,1-4.5c0-1.8-0.3-3.1-1-4.1c-0.7-1-1.7-1.5-2.9-1.5c-1.2,0-2.2,0.5-2.9,1.5
		C280.4,363.8,280,365.3,280,367.3z"/>
	<path fill="#FFFFFF" d="M301.5,376.6h-5.1v-27h5.1V376.6z"/>
	<path fill="#FFFFFF" d="M324.1,359.9l4.8-8.8h6.1l-7.5,12.7l7.6,12.9H329l-4.9-9l-4.9,9h-6.1l7.6-12.9l-7.5-12.7h6.1L324.1,359.9z"
		/>
</g>
<rect x="75.3" y="546.1" fill="#FF6600" width="298" height="100"/>
<rect x="75.2" y="546" opacity="0.3" width="72.9" height="100"/>
<g>
	<path fill="#FFFFFF" d="M174.5,597.6v9h-5.3V581h10c1.9,0,3.6,0.4,5.1,1.1s2.6,1.7,3.4,3s1.2,2.8,1.2,4.4c0,2.5-0.9,4.5-2.6,5.9
		s-4.1,2.2-7.1,2.2H174.5z M174.5,593.4h4.7c1.4,0,2.5-0.3,3.2-1s1.1-1.6,1.1-2.8c0-1.3-0.4-2.3-1.1-3s-1.8-1.2-3.1-1.2h-4.8V593.4z
		"/>
	<path fill="#FFFFFF" d="M202.8,592.4c-0.7-0.1-1.3-0.1-1.8-0.1c-1.9,0-3.2,0.7-3.8,2v12.4h-5.1v-19h4.8l0.1,2.3
		c1-1.7,2.4-2.6,4.2-2.6c0.6,0,1.1,0.1,1.6,0.2L202.8,592.4z"/>
	<path fill="#FFFFFF" d="M203.8,597c0-1.9,0.4-3.6,1.1-5s1.8-2.6,3.1-3.4s2.9-1.2,4.8-1.2c2.6,0,4.7,0.8,6.3,2.4s2.5,3.7,2.7,6.4
		l0,1.3c0,2.9-0.8,5.3-2.4,7s-3.8,2.6-6.6,2.6s-4.9-0.9-6.6-2.6s-2.5-4.1-2.5-7.2V597z M208.9,597.3c0,1.8,0.3,3.2,1,4.1
		c0.7,1,1.7,1.4,2.9,1.4c1.2,0,2.2-0.5,2.9-1.4c0.7-0.9,1-2.5,1-4.5c0-1.8-0.3-3.1-1-4.1c-0.7-1-1.7-1.5-2.9-1.5
		c-1.2,0-2.2,0.5-2.9,1.5C209.3,593.8,208.9,595.3,208.9,597.3z"/>
	<path fill="#FFFFFF" d="M231.1,582.9v4.7h3.3v3.7h-3.3v9.5c0,0.7,0.1,1.2,0.4,1.5s0.8,0.5,1.5,0.5c0.6,0,1.1,0,1.5-0.1v3.8
		c-1,0.3-2,0.5-3.1,0.5c-3.6,0-5.4-1.8-5.4-5.4v-10.2h-2.8v-3.7h2.8v-4.7H231.1z"/>
	<path fill="#FFFFFF" d="M235.8,597c0-1.9,0.4-3.6,1.1-5s1.8-2.6,3.1-3.4s2.9-1.2,4.8-1.2c2.6,0,4.7,0.8,6.3,2.4s2.5,3.7,2.7,6.4
		l0,1.3c0,2.9-0.8,5.3-2.4,7s-3.8,2.6-6.6,2.6s-4.9-0.9-6.6-2.6s-2.5-4.1-2.5-7.2V597z M240.9,597.3c0,1.8,0.3,3.2,1,4.1
		c0.7,1,1.7,1.4,2.9,1.4c1.2,0,2.2-0.5,2.9-1.4c0.7-0.9,1-2.5,1-4.5c0-1.8-0.3-3.1-1-4.1c-0.7-1-1.7-1.5-2.9-1.5
		c-1.2,0-2.2,0.5-2.9,1.5C241.3,593.8,240.9,595.3,240.9,597.3z"/>
	<path fill="#FFFFFF" d="M264.9,602.9c0.9,0,1.7-0.3,2.3-0.8s0.9-1.2,0.9-2.1h4.8c0,1.3-0.4,2.5-1.1,3.5s-1.6,1.9-2.8,2.5
		s-2.5,0.9-4,0.9c-2.7,0-4.9-0.9-6.4-2.6s-2.4-4.1-2.4-7.2v-0.3c0-2.9,0.8-5.3,2.3-7s3.7-2.6,6.4-2.6c2.4,0,4.3,0.7,5.7,2
		s2.2,3.2,2.2,5.4h-4.8c0-1-0.3-1.8-0.9-2.4c-0.6-0.6-1.4-0.9-2.3-0.9c-1.2,0-2.1,0.4-2.7,1.3s-0.9,2.3-0.9,4.2v0.5
		c0,2,0.3,3.4,0.9,4.2S263.7,602.9,264.9,602.9z"/>
	<path fill="#FFFFFF" d="M275,597c0-1.9,0.4-3.6,1.1-5s1.8-2.6,3.1-3.4s2.9-1.2,4.8-1.2c2.6,0,4.7,0.8,6.3,2.4s2.5,3.7,2.7,6.4
		l0,1.3c0,2.9-0.8,5.3-2.4,7s-3.8,2.6-6.6,2.6s-4.9-0.9-6.6-2.6s-2.5-4.1-2.5-7.2V597z M280,597.3c0,1.8,0.3,3.2,1,4.1
		c0.7,1,1.7,1.4,2.9,1.4c1.2,0,2.2-0.5,2.9-1.4c0.7-0.9,1-2.5,1-4.5c0-1.8-0.3-3.1-1-4.1c-0.7-1-1.7-1.5-2.9-1.5
		c-1.2,0-2.2,0.5-2.9,1.5C280.4,593.8,280,595.3,280,597.3z"/>
	<path fill="#FFFFFF" d="M301.5,606.6h-5.1v-27h5.1V606.6z"/>
	<path fill="#FFFFFF" d="M324.1,589.9l4.8-8.8h6.1l-7.5,12.7l7.6,12.9H329l-4.9-9l-4.9,9h-6.1l7.6-12.9l-7.5-12.7h6.1L324.1,589.9z"
		/>
</g>
<g>
	<g>
		<line fill="none" stroke="#FFFFFF" stroke-linecap="round" stroke-miterlimit="10" x1="100.9" y1="569.7" x2="100.9" y2="573.7"/>
		<line fill="none" stroke="#FFFFFF" stroke-linecap="round" stroke-miterlimit="10" x1="108.2" y1="569.7" x2="108.2" y2="573.7"/>
		<line fill="none" stroke="#FFFFFF" stroke-linecap="round" stroke-miterlimit="10" x1="115.4" y1="569.7" x2="115.4" y2="573.7"/>
		<line fill="none" stroke="#FFFFFF" stroke-linecap="round" stroke-miterlimit="10" x1="122.7" y1="569.7" x2="122.7" y2="573.7"/>
	</g>
	<g>
		<line fill="none" stroke="#FFFFFF" stroke-linecap="round" stroke-miterlimit="10" x1="100.9" y1="618.3" x2="100.9" y2="622.3"/>
		<line fill="none" stroke="#FFFFFF" stroke-linecap="round" stroke-miterlimit="10" x1="108.2" y1="618.3" x2="108.2" y2="622.3"/>
		<line fill="none" stroke="#FFFFFF" stroke-linecap="round" stroke-miterlimit="10" x1="115.4" y1="618.3" x2="115.4" y2="622.3"/>
		<line fill="none" stroke="#FFFFFF" stroke-linecap="round" stroke-miterlimit="10" x1="122.7" y1="618.3" x2="122.7" y2="622.3"/>
	</g>
	<g>
		<line fill="none" stroke="#FFFFFF" stroke-linecap="round" stroke-miterlimit="10" x1="89.8" y1="585.2" x2="85.1" y2="585.2"/>
		<line fill="none" stroke="#FFFFFF" stroke-linecap="round" stroke-miterlimit="10" x1="89.8" y1="592.5" x2="85.1" y2="592.5"/>
		<line fill="none" stroke="#FFFFFF" stroke-linecap="round" stroke-miterlimit="10" x1="89.8" y1="599.7" x2="85.1" y2="599.7"/>
		<line fill="none" stroke="#FFFFFF" stroke-linecap="round" stroke-miterlimit="10" x1="89.8" y1="607" x2="85.1" y2="607"/>
	</g>
	<g>
		<line fill="none" stroke="#FFFFFF" stroke-linecap="round" stroke-miterlimit="10" x1="139" y1="585.2" x2="134.3" y2="585.2"/>
		<line fill="none" stroke="#FFFFFF" stroke-linecap="round" stroke-miterlimit="10" x1="139" y1="592.5" x2="134.3" y2="592.5"/>
		<line fill="none" stroke="#FFFFFF" stroke-linecap="round" stroke-miterlimit="10" x1="139" y1="599.7" x2="134.3" y2="599.7"/>
		<line fill="none" stroke="#FFFFFF" stroke-linecap="round" stroke-miterlimit="10" x1="139" y1="607" x2="134.3" y2="607"/>
	</g>
	<path fill="none" stroke="#FFFFFF" stroke-linecap="round" stroke-miterlimit="10" d="M115.6,601.6H108c-0.9,0-1.7-0.8-1.7-1.7
		v-7.7c0-0.9,0.8-1.7,1.7-1.7h7.7c0.9,0,1.7,0.8,1.7,1.7v7.7C117.3,600.9,116.6,601.6,115.6,601.6z"/>
	<path fill="none" stroke="#FFFFFF" stroke-linecap="round" stroke-miterlimit="10" d="M129.2,618.1H94.4c-2.5,0-4.6-2.1-4.6-4.6
		v-34.8c0-2.5,2.1-4.6,4.6-4.6h34.8c2.5,0,4.6,2.1,4.6,4.6v34.8C133.8,616,131.7,618.1,129.2,618.1z"/>
	<path fill="none" stroke="#FFFFFF" stroke-linecap="round" stroke-miterlimit="10" d="M127.5,614.9H96.1c-1.7,0-3.1-1.4-3.1-3.1
		v-31.4c0-1.7,1.4-3.1,3.1-3.1h31.4c1.7,0,3.1,1.4,3.1,3.1v31.4C130.6,613.5,129.2,614.9,127.5,614.9z"/>
</g>
<g>
	<g>
		<line fill="none" stroke="#FFFFFF" stroke-linecap="round" stroke-miterlimit="10" x1="100.9" y1="339.7" x2="100.9" y2="343.7"/>
		<line fill="none" stroke="#FFFFFF" stroke-linecap="round" stroke-miterlimit="10" x1="108.2" y1="339.7" x2="108.2" y2="343.7"/>
		<line fill="none" stroke="#FFFFFF" stroke-linecap="round" stroke-miterlimit="10" x1="115.4" y1="339.7" x2="115.4" y2="343.7"/>
		<line fill="none" stroke="#FFFFFF" stroke-linecap="round" stroke-miterlimit="10" x1="122.7" y1="339.7" x2="122.7" y2="343.7"/>
	</g>
	<g>
		<line fill="none" stroke="#FFFFFF" stroke-linecap="round" stroke-miterlimit="10" x1="100.9" y1="388.3" x2="100.9" y2="392.3"/>
		<line fill="none" stroke="#FFFFFF" stroke-linecap="round" stroke-miterlimit="10" x1="108.2" y1="388.3" x2="108.2" y2="392.3"/>
		<line fill="none" stroke="#FFFFFF" stroke-linecap="round" stroke-miterlimit="10" x1="115.4" y1="388.3" x2="115.4" y2="392.3"/>
		<line fill="none" stroke="#FFFFFF" stroke-linecap="round" stroke-miterlimit="10" x1="122.7" y1="388.3" x2="122.7" y2="392.3"/>
	</g>
	<g>
		<line fill="none" stroke="#FFFFFF" stroke-linecap="round" stroke-miterlimit="10" x1="89.8" y1="355.2" x2="85.1" y2="355.2"/>
		<line fill="none" stroke="#FFFFFF" stroke-linecap="round" stroke-miterlimit="10" x1="89.8" y1="362.5" x2="85.1" y2="362.5"/>
		<line fill="none" stroke="#FFFFFF" stroke-linecap="round" stroke-miterlimit="10" x1="89.8" y1="369.7" x2="85.1" y2="369.7"/>
		<line fill="none" stroke="#FFFFFF" stroke-linecap="round" stroke-miterlimit="10" x1="89.8" y1="377" x2="85.1" y2="377"/>
	</g>
	<g>
		<line fill="none" stroke="#FFFFFF" stroke-linecap="round" stroke-miterlimit="10" x1="139" y1="355.2" x2="134.3" y2="355.2"/>
		<line fill="none" stroke="#FFFFFF" stroke-linecap="round" stroke-miterlimit="10" x1="139" y1="362.5" x2="134.3" y2="362.5"/>
		<line fill="none" stroke="#FFFFFF" stroke-linecap="round" stroke-miterlimit="10" x1="139" y1="369.7" x2="134.3" y2="369.7"/>
		<line fill="none" stroke="#FFFFFF" stroke-linecap="round" stroke-miterlimit="10" x1="139" y1="377" x2="134.3" y2="377"/>
	</g>
	<path fill="none" stroke="#FFFFFF" stroke-linecap="round" stroke-miterlimit="10" d="M115.6,371.6H108c-0.9,0-1.7-0.8-1.7-1.7
		v-7.7c0-0.9,0.8-1.7,1.7-1.7h7.7c0.9,0,1.7,0.8,1.7,1.7v7.7C117.3,370.9,116.6,371.6,115.6,371.6z"/>
	<path fill="none" stroke="#FFFFFF" stroke-linecap="round" stroke-miterlimit="10" d="M129.2,388.1H94.4c-2.5,0-4.6-2.1-4.6-4.6
		v-34.8c0-2.5,2.1-4.6,4.6-4.6h34.8c2.5,0,4.6,2.1,4.6,4.6v34.8C133.8,386,131.7,388.1,129.2,388.1z"/>
	<path fill="none" stroke="#FFFFFF" stroke-linecap="round" stroke-miterlimit="10" d="M127.5,384.9H96.1c-1.7,0-3.1-1.4-3.1-3.1
		v-31.4c0-1.7,1.4-3.1,3.1-3.1h31.4c1.7,0,3.1,1.4,3.1,3.1v31.4C130.6,383.5,129.2,384.9,127.5,384.9z"/>
</g>
<g>
	<g>
		<line fill="none" stroke="#FFFFFF" stroke-linecap="round" stroke-miterlimit="10" x1="100.9" y1="129.3" x2="100.9" y2="133.3"/>
		<line fill="none" stroke="#FFFFFF" stroke-linecap="round" stroke-miterlimit="10" x1="108.2" y1="129.3" x2="108.2" y2="133.3"/>
		<line fill="none" stroke="#FFFFFF" stroke-linecap="round" stroke-miterlimit="10" x1="115.4" y1="129.3" x2="115.4" y2="133.3"/>
		<line fill="none" stroke="#FFFFFF" stroke-linecap="round" stroke-miterlimit="10" x1="122.7" y1="129.3" x2="122.7" y2="133.3"/>
	</g>
	<g>
		<line fill="none" stroke="#FFFFFF" stroke-linecap="round" stroke-miterlimit="10" x1="100.9" y1="178" x2="100.9" y2="182"/>
		<line fill="none" stroke="#FFFFFF" stroke-linecap="round" stroke-miterlimit="10" x1="108.2" y1="178" x2="108.2" y2="182"/>
		<line fill="none" stroke="#FFFFFF" stroke-linecap="round" stroke-miterlimit="10" x1="115.4" y1="178" x2="115.4" y2="182"/>
		<line fill="none" stroke="#FFFFFF" stroke-linecap="round" stroke-miterlimit="10" x1="122.7" y1="178" x2="122.7" y2="182"/>
	</g>
	<g>
		<line fill="none" stroke="#FFFFFF" stroke-linecap="round" stroke-miterlimit="10" x1="89.8" y1="144.9" x2="85.1" y2="144.9"/>
		<line fill="none" stroke="#FFFFFF" stroke-linecap="round" stroke-miterlimit="10" x1="89.8" y1="152.1" x2="85.1" y2="152.1"/>
		<line fill="none" stroke="#FFFFFF" stroke-linecap="round" stroke-miterlimit="10" x1="89.8" y1="159.4" x2="85.1" y2="159.4"/>
		<line fill="none" stroke="#FFFFFF" stroke-linecap="round" stroke-miterlimit="10" x1="89.8" y1="166.7" x2="85.1" y2="166.7"/>
	</g>
	<g>
		<line fill="none" stroke="#FFFFFF" stroke-linecap="round" stroke-miterlimit="10" x1="139" y1="144.9" x2="134.3" y2="144.9"/>
		<line fill="none" stroke="#FFFFFF" stroke-linecap="round" stroke-miterlimit="10" x1="139" y1="152.1" x2="134.3" y2="152.1"/>
		<line fill="none" stroke="#FFFFFF" stroke-linecap="round" stroke-miterlimit="10" x1="139" y1="159.4" x2="134.3" y2="159.4"/>
		<line fill="none" stroke="#FFFFFF" stroke-linecap="round" stroke-miterlimit="10" x1="139" y1="166.7" x2="134.3" y2="166.7"/>
	</g>
	<path fill="none" stroke="#FFFFFF" stroke-linecap="round" stroke-miterlimit="10" d="M115.6,161.3H108c-0.9,0-1.7-0.8-1.7-1.7
		v-7.7c0-0.9,0.8-1.7,1.7-1.7h7.7c0.9,0,1.7,0.8,1.7,1.7v7.7C117.3,160.5,116.6,161.3,115.6,161.3z"/>
	<path fill="none" stroke="#FFFFFF" stroke-linecap="round" stroke-miterlimit="10" d="M129.2,177.8H94.4c-2.5,0-4.6-2.1-4.6-4.6
		v-34.8c0-2.5,2.1-4.6,4.6-4.6h34.8c2.5,0,4.6,2.1,4.6,4.6v34.8C133.8,175.7,131.7,177.8,129.2,177.8z"/>
	<path fill="none" stroke="#FFFFFF" stroke-linecap="round" stroke-miterlimit="10" d="M127.5,174.6H96.1c-1.7,0-3.1-1.4-3.1-3.1
		v-31.4c0-1.7,1.4-3.1,3.1-3.1h31.4c1.7,0,3.1,1.4,3.1,3.1v31.4C130.6,173.2,129.2,174.6,127.5,174.6z"/>
</g>
<g>
	<g>
		<line fill="none" stroke="#666666" stroke-width="2" stroke-miterlimit="10" x1="30" y1="257" x2="36" y2="257"/>
		
			<line fill="none" stroke="#666666" stroke-width="2" stroke-miterlimit="10" stroke-dasharray="11.2,11.2" x1="47.2" y1="257" x2="86.4" y2="257"/>
		<line fill="none" stroke="#666666" stroke-width="2" stroke-miterlimit="10" x1="92" y1="257" x2="98" y2="257"/>
	</g>
</g>
<g>
	<g>
		<line fill="none" stroke="#666666" stroke-width="2" stroke-miterlimit="10" x1="30" y1="477" x2="36" y2="477"/>
		
			<line fill="none" stroke="#666666" stroke-width="2" stroke-miterlimit="10" stroke-dasharray="11.2,11.2" x1="47.2" y1="477" x2="86.4" y2="477"/>
		<line fill="none" stroke="#666666" stroke-width="2" stroke-miterlimit="10" x1="92" y1="477" x2="98" y2="477"/>
	</g>
</g>
<g>
	<g>
		<polyline fill="none" stroke="#666666" stroke-width="2" stroke-miterlimit="10" points="462.4,453 421,453 421,577 382.1,577 		
			"/>
		<g>
			<polygon fill="#666666" points="460.6,447.1 471,453 460.6,459 			"/>
		</g>
	</g>
</g>
<g>
	<g>
		<polyline fill="none" stroke="#666666" stroke-width="2" stroke-miterlimit="10" points="462.4,413 396.2,413 396.2,477 98,477 		
			"/>
		<g>
			<polygon fill="#666666" points="460.6,407.1 471,413 460.6,419 			"/>
		</g>
	</g>
</g>
<g>
	<path d="M1187.2,885c0-1.2,0.3-2.3,0.8-3.3c0.5-1,1.3-1.8,2.3-2.4c1-0.6,2-0.9,3.1-0.9s2.2,0.3,3.1,0.9s1.7,1.4,2.3,2.4
		c0.5,1,0.8,2.1,0.8,3.3c0,1.2-0.3,2.2-0.8,3.2s-1.3,1.8-2.2,2.4c-1,0.6-2,0.9-3.2,0.9c-1.2,0-2.2-0.3-3.2-0.9
		c-1-0.6-1.7-1.4-2.3-2.4S1187.2,886.2,1187.2,885z M1188.2,885c0,1,0.2,1.9,0.7,2.8s1.1,1.5,1.9,2c0.8,0.5,1.7,0.7,2.6,0.7
		s1.8-0.2,2.6-0.7c0.8-0.5,1.4-1.2,1.9-2s0.7-1.8,0.7-2.8c0-1-0.2-1.9-0.7-2.8s-1.1-1.5-1.9-2c-0.8-0.5-1.7-0.7-2.6-0.7
		c-0.9,0-1.8,0.2-2.6,0.7c-0.8,0.5-1.4,1.2-1.9,2C1188.5,883.1,1188.2,884,1188.2,885z M1196.3,886.2c0,0.9-0.3,1.6-0.8,2.1
		c-0.5,0.5-1.2,0.7-2.1,0.7c-0.9,0-1.7-0.3-2.2-0.9c-0.6-0.6-0.8-1.5-0.8-2.5v-1c0-1,0.3-1.9,0.8-2.5c0.6-0.6,1.3-0.9,2.2-0.9
		c0.9,0,1.7,0.2,2.2,0.7s0.8,1.2,0.8,2h-1.3c0-0.6-0.1-1-0.4-1.2c-0.3-0.3-0.7-0.4-1.2-0.4c-0.6,0-1,0.2-1.3,0.6
		c-0.3,0.4-0.5,1-0.5,1.7v1c0,0.7,0.2,1.3,0.5,1.7c0.3,0.4,0.8,0.6,1.3,0.6c0.5,0,0.9-0.1,1.2-0.4c0.3-0.2,0.4-0.7,0.4-1.3H1196.3z"
		/>
	<path d="M1214.4,891.4h-1.6v-5.9h-5.2v5.9h-1.6v-12.8h1.6v5.5h5.2v-5.5h1.6V891.4z"/>
	<path d="M1218.8,879.4c0,0.3-0.1,0.5-0.2,0.7s-0.4,0.3-0.7,0.3c-0.3,0-0.5-0.1-0.7-0.3s-0.2-0.4-0.2-0.7s0.1-0.5,0.2-0.7
		s0.4-0.3,0.7-0.3s0.5,0.1,0.7,0.3C1218.7,878.9,1218.8,879.2,1218.8,879.4z M1218.7,891.4h-1.6v-9.5h1.6V891.4z"/>
	<path d="M1223.8,889.1l1.8-7.1h1.6l-2.8,9.5h-1.2l-2.9-9.5h1.6L1223.8,889.1z"/>
	<path d="M1232.1,891.6c-1.2,0-2.1-0.4-2.7-1.1s-1-1.7-1-3.1v-1.2c0-1.4,0.3-2.5,0.9-3.3c0.6-0.8,1.5-1.2,2.6-1.2
		c1.1,0,1.9,0.4,2.5,1.1s0.8,1.8,0.8,3.3v1h-5.3v0.2c0,1,0.2,1.8,0.6,2.2c0.4,0.5,0.9,0.7,1.7,0.7c0.5,0,0.9-0.1,1.2-0.3
		c0.3-0.2,0.7-0.4,1-0.8l0.8,1C1234.5,891.1,1233.5,891.6,1232.1,891.6z M1231.9,883.1c-0.6,0-1.1,0.2-1.4,0.7s-0.5,1.1-0.5,2.1h3.7
		v-0.2c0-0.9-0.2-1.5-0.5-1.9C1233,883.3,1232.5,883.1,1231.9,883.1z"/>
	<path d="M1239.4,878.6l3.3,10.4l3.3-10.4h2.1v12.8h-1.6v-5l0.1-5l-3.3,10h-1.2l-3.3-9.9l0.2,5v5h-1.6v-12.8H1239.4z"/>
	<path d="M1259.2,886.2c0,1.1-0.2,2.1-0.5,2.9c-0.3,0.8-0.7,1.4-1.3,1.8l1.9,1.7l-1.1,1.1l-2.3-2.1c-0.4,0.1-0.7,0.1-1.1,0.1
		c-1.3,0-2.4-0.5-3.1-1.4c-0.8-0.9-1.2-2.2-1.2-3.9v-2.3c0-1.7,0.4-3.1,1.1-4s1.8-1.4,3.2-1.4c1.4,0,2.4,0.5,3.2,1.4s1.1,2.3,1.1,4
		V886.2z M1257.6,883.9c0-1.4-0.2-2.4-0.7-3c-0.4-0.7-1.1-1-2-1c-0.9,0-1.5,0.3-2,1c-0.5,0.7-0.7,1.7-0.7,3v2.3c0,1.3,0.2,2.3,0.7,3
		c0.5,0.7,1.1,1,2,1c0.9,0,1.6-0.3,2-0.9s0.7-1.6,0.7-2.9V883.9z"/>
	<path d="M1273.9,889.9l-0.3,0.4c-0.8,0.9-2,1.4-3.6,1.4c-1.4,0-2.5-0.5-3.3-1.4c-0.8-0.9-1.2-2.2-1.2-3.9v-2.5c0-1.8,0.4-3.1,1.1-4
		c0.7-0.9,1.8-1.3,3.2-1.3c1.2,0,2.2,0.3,2.9,1c0.7,0.7,1.1,1.6,1.1,2.9h-1.6c-0.1-0.8-0.3-1.4-0.7-1.9c-0.4-0.4-1-0.7-1.7-0.7
		c-0.9,0-1.6,0.3-2,0.9s-0.7,1.6-0.7,2.9v2.6c0,1.3,0.2,2.3,0.7,3s1.2,1,2.1,1c0.9,0,1.5-0.2,2-0.6l0.2-0.2v-2.9h-2.3v-1.4h3.9
		V889.9z"/>
	<path d="M1277.8,881.9l0,0.9c0.6-0.7,1.3-1.1,2.3-1.1c1.1,0,1.8,0.5,2.2,1.4c0.6-0.9,1.4-1.4,2.5-1.4c1.8,0,2.6,1.1,2.7,3.3v6.4
		h-1.5v-6.3c0-0.7-0.1-1.2-0.4-1.5s-0.7-0.5-1.2-0.5c-0.5,0-0.8,0.2-1.1,0.5s-0.5,0.8-0.5,1.4v6.4h-1.6v-6.3c0-1.3-0.6-2-1.6-2
		c-0.8,0-1.3,0.4-1.7,1.2v7.1h-1.5v-9.5H1277.8z"/>
	<path d="M1296.7,887.1c0,1.5-0.3,2.6-0.8,3.3s-1.3,1.1-2.3,1.1c-1,0-1.8-0.4-2.3-1.3l-0.1,1.1h-1.4v-13.5h1.5v5
		c0.5-0.8,1.2-1.2,2.2-1.2c1,0,1.8,0.4,2.3,1.1s0.8,1.9,0.8,3.3V887.1z M1295.2,886.3c0-1.1-0.2-1.9-0.5-2.4
		c-0.3-0.5-0.8-0.7-1.5-0.7c-0.8,0-1.4,0.4-1.8,1.3v4.5c0.4,0.9,1,1.3,1.8,1.3c0.7,0,1.2-0.2,1.5-0.7c0.3-0.5,0.5-1.3,0.5-2.3V886.3
		z"/>
	<path d="M1307.3,891.4h-1.6v-5.9h-5.2v5.9h-1.6v-12.8h1.6v5.5h5.2v-5.5h1.6V891.4z"/>
</g>
</svg>
