<?xml version="1.0" encoding="UTF-8"?>
<svg data-name="Ebene 1" viewBox="0 0 1573 940" xmlns="http://www.w3.org/2000/svg" xmlns:xlink="http://www.w3.org/1999/xlink">
<defs>
<linearGradient id="b" x1="22" x2="1541" y1="833.69" y2="833.69" gradientUnits="userSpaceOnUse">
<stop stop-color="#e6e6e6" offset="0"/>
<stop stop-color="#4d4d4d" offset="1"/>
</linearGradient>
<linearGradient id="a" x1="229.2" x2="287.89" y1="830.18" y2="830.18" gradientUnits="userSpaceOnUse">
<stop stop-color="#fff" offset="0"/>
<stop stop-color="#ccc" offset="1"/>
</linearGradient>
<linearGradient id="c" x1="1274.8" x2="1307" y1="802.94" y2="858.61" xlink:href="#a"/>
</defs>
<rect x="354.96" y="268.87" width="298.04" height="104.38" fill="#999"/>
<line x1="369.68" x2="263.57" y1="173.37" y2="173.37" fill="none" stroke="#666" stroke-miterlimit="10" stroke-width="2px"/>
<rect x="33.79" y="147.16" width="251.6" height="52.41" fill="#999"/>
<rect x="31.7" y="147.16" width="62.41" height="52.41" fill="#1a1a1a"/>
<line x1="1124.4" x2="1124.4" y1="14" y2="15" fill="none" stroke="#003e6e" stroke-miterlimit="10" stroke-width="2px"/>
<line x1="1124.4" x2="1124.4" y1="21.01" y2="763" fill="none" stroke="#003e6e" stroke-dasharray="2.0026662349700928,6.007998943328857" stroke-miterlimit="10" stroke-width="2px"/>
<line x1="1124.4" x2="1124.4" y1="766" y2="767" fill="none" stroke="#003e6e" stroke-miterlimit="10" stroke-width="2px"/>
<line x1="700.47" x2="700.47" y1="14" y2="15" fill="none" stroke="#003e6e" stroke-miterlimit="10" stroke-width="2px"/>
<line x1="700.47" x2="700.47" y1="21.01" y2="763" fill="none" stroke="#003e6e" stroke-dasharray="2.0026662349700928,6.007998943328857" stroke-miterlimit="10" stroke-width="2px"/>
<line x1="700.47" x2="700.47" y1="766" y2="767" fill="none" stroke="#003e6e" stroke-miterlimit="10" stroke-width="2px"/>
<line x1="369.68" x2="263.57" y1="39.73" y2="39.73" fill="none" stroke="#666" stroke-miterlimit="10" stroke-width="2px"/>
<line x1="369.68" x2="263.57" y1="97.38" y2="97.38" fill="none" stroke="#666" stroke-miterlimit="10" stroke-width="2px"/>
<line x1="369.68" x2="263.57" y1="231.01" y2="231.01" fill="none" stroke="#666" stroke-miterlimit="10" stroke-width="2px"/>
<line x1="373.68" x2="267.57" y1="302.29" y2="302.29" fill="none" stroke="#666" stroke-miterlimit="10" stroke-width="2px"/>
<polyline points="369.68 323.25 301.39 323.25 301.39 363.16 285.39 363.16" fill="none" stroke="#666" stroke-miterlimit="10" stroke-width="2px"/>
<polyline points="369.68 344.21 315.29 344.21 315.29 419.15 285.39 419.15" fill="none" stroke="#666" stroke-miterlimit="10" stroke-width="2px"/>
<polyline points="369.68 365.18 329.19 365.18 329.19 476.8 285.39 476.8" fill="none" stroke="#666" stroke-miterlimit="10" stroke-width="2px"/>
<rect x="22" y="781.38" width="1519" height="104.63" fill="url(#b)"/>
<path d="m353.66 833.84a24.16 24.16 0 0 1-2.22 10.61 16.41 16.41 0 0 1-6.32 7.11 17.6 17.6 0 0 1-9.33 2.49 17.88 17.88 0 0 1-9.29-2.4 16.44 16.44 0 0 1-6.32-6.89 23.51 23.51 0 0 1-2.38-10.27v-2.31a24.36 24.36 0 0 1 2.2-10.63 16.47 16.47 0 0 1 6.34-7.1 18.71 18.71 0 0 1 18.67 0 16.68 16.68 0 0 1 6.35 7.05 23.46 23.46 0 0 1 2.3 10.5zm-10-1.72c0-4.07-0.69-7.16-2.05-9.27a6.54 6.54 0 0 0-5.84-3.17q-7.43 0-7.85 11.15v3c0 4 0.67 7.1 2 9.26a6.53 6.53 0 0 0 5.94 3.24 6.45 6.45 0 0 0 5.77-3.18q2-3.18 2.06-9.15z" fill="#1d1d1b"/>
<path d="m388.54 820.13h-12.3v33.36h-9.88v-33.36h-12.08v-7.62h34.26z" fill="#1d1d1b"/>
<rect x="1181.3" y="134.25" width="340" height="104.38" fill="#4d4d4d"/>
<path d="M1293.63,171.36l6.58,18.56,6.54-18.56h6.92V197h-5.29v-7l.53-12.08L1302,197h-3.62l-6.89-19.06L1292,190v7h-5.28v-25.6Z" fill="#fff"/>
<path d="m1333.7 185.86h-10.13v6.86h11.89v4.28h-17.16v-25.6h17.12v4.27h-11.85v6.1h10.13z" fill="#fff"/>
<path d="m1351.8 190.24a2.71 2.71 0 0 0-1-2.29 13.66 13.66 0 0 0-3.8-1.69 26.78 26.78 0 0 1-4.34-1.75q-4.36-2.35-4.36-6.34a6.2 6.2 0 0 1 1.17-3.71 7.69 7.69 0 0 1 3.35-2.54 12.84 12.84 0 0 1 4.92-0.91 11.5 11.5 0 0 1 4.88 1 7.91 7.91 0 0 1 3.34 2.81 7.32 7.32 0 0 1 1.18 4.11h-5.27a3.44 3.44 0 0 0-1.11-2.73 4.55 4.55 0 0 0-3.11-1 4.85 4.85 0 0 0-3 0.82 2.58 2.58 0 0 0-1.07 2.15 2.46 2.46 0 0 0 1.26 2.09 14.2 14.2 0 0 0 3.7 1.59 16.11 16.11 0 0 1 6.56 3.35 6.7 6.7 0 0 1 2 5 6.17 6.17 0 0 1-2.51 5.21 11 11 0 0 1-6.77 1.89 13.09 13.09 0 0 1-5.38-1.08 8.46 8.46 0 0 1-3.7-3 7.55 7.55 0 0 1-1.27-4.35h5.29q0 4.23 5.06 4.23a5 5 0 0 0 2.94-0.76 2.49 2.49 0 0 0 1.04-2.1z" fill="#fff"/>
<rect x="1181.2" y="254.65" width="340" height="104.38" fill="#4d4d4d"/>
<rect x="1180.3" y="254.65" width="85" height="104.38" fill="gray"/>
<path d="m1307.6 317.36h-5.27v-11h-10.3v11h-5.28v-25.6h5.28v10.38h10.28v-10.38h5.27z" fill="#fff"/>
<path d="m1311.8 293.42a2.5 2.5 0 0 1 0.77-1.88 3.28 3.28 0 0 1 4.15 0 2.67 2.67 0 0 1 0 3.78 3.29 3.29 0 0 1-4.13 0 2.52 2.52 0 0 1-0.79-1.9zm5.4 23.94h-5.1v-19h5.1z" fill="#fff"/>
<path d="M1331.69,312.1a1.65,1.65,0,0,0-.92-1.47,10.76,10.76,0,0,0-3-.95q-6.8-1.43-6.79-5.77a5.23,5.23,0,0,1,2.1-4.23,8.48,8.48,0,0,1,5.5-1.69,9.17,9.17,0,0,1,5.79,1.7,5.41,5.41,0,0,1,2.17,4.43h-5.08a2.46,2.46,0,0,0-.71-1.8,3,3,0,0,0-2.19-.71,3,3,0,0,0-2,.58,1.83,1.83,0,0,0-.7,1.48,1.56,1.56,0,0,0,.8,1.36,8.29,8.29,0,0,0,2.7.89,22.87,22.87,0,0,1,3.2.86c2.68,1,4,2.69,4,5.11a5,5,0,0,1-2.23,4.21,9.65,9.65,0,0,1-5.77,1.61,10,10,0,0,1-4.24-.85,7.1,7.1,0,0,1-2.91-2.34,5.46,5.46,0,0,1-1.06-3.21h4.82a2.68,2.68,0,0,0,1,2.08,4,4,0,0,0,2.5.72,3.64,3.64,0,0,0,2.2-.56A1.72,1.72,0,0,0,1331.69,312.1Z" fill="#fff"/>
<path d="M1346,293.66v4.68h3.25v3.73H1346v9.49a2.27,2.27,0,0,0,.41,1.51,2,2,0,0,0,1.54.46,7.48,7.48,0,0,0,1.5-.13v3.85a10.31,10.31,0,0,1-3.08.46q-5.34,0-5.45-5.4V302.07h-2.78v-3.73h2.78v-4.68Z" fill="#fff"/>
<path d="m1350.8 307.67a11.21 11.21 0 0 1 1.09-5 8 8 0 0 1 3.13-3.43 9.16 9.16 0 0 1 4.76-1.21 8.65 8.65 0 0 1 6.28 2.35 9.45 9.45 0 0 1 2.72 6.4v1.3a9.92 9.92 0 0 1-2.44 7 9.46 9.46 0 0 1-13.12 0 10.08 10.08 0 0 1-2.45-7.17zm5.08 0.36a7.12 7.12 0 0 0 1 4.15 3.34 3.34 0 0 0 2.91 1.43 3.39 3.39 0 0 0 2.89-1.41 7.83 7.83 0 0 0 1-4.54 7.07 7.07 0 0 0-1-4.12 3.39 3.39 0 0 0-2.92-1.46 3.32 3.32 0 0 0-2.88 1.46 7.86 7.86 0 0 0-1 4.46z" fill="#fff"/>
<path d="M1382.58,303.1a14.43,14.43,0,0,0-1.83-.14q-2.88,0-3.78,2v12.45h-5.08v-19h4.8l.14,2.27a4.7,4.7,0,0,1,4.24-2.62,5.07,5.07,0,0,1,1.58.23Z" fill="#fff"/>
<path d="m1385 293.42a2.49 2.49 0 0 1 0.76-1.88 3.29 3.29 0 0 1 4.16 0 2.47 2.47 0 0 1 0.77 1.88 2.52 2.52 0 0 1-0.78 1.9 3.29 3.29 0 0 1-4.13 0 2.52 2.52 0 0 1-0.78-1.9zm5.39 23.94h-5.09v-19h5.09z" fill="#fff"/>
<path d="M1405.59,317.36a6,6,0,0,1-.51-1.71,6.15,6.15,0,0,1-4.8,2.06,6.74,6.74,0,0,1-4.63-1.62,5.18,5.18,0,0,1-1.84-4.08,5.39,5.39,0,0,1,2.24-4.64,11.14,11.14,0,0,1,6.48-1.63h2.34v-1.09a3.15,3.15,0,0,0-.68-2.11,2.64,2.64,0,0,0-2.13-.79,3,3,0,0,0-2,.61,2.12,2.12,0,0,0-.73,1.69h-5.08a5.11,5.11,0,0,1,1-3.06,6.74,6.74,0,0,1,2.89-2.2,10.35,10.35,0,0,1,4.18-.8,8.35,8.35,0,0,1,5.58,1.76,6.19,6.19,0,0,1,2.07,5V313a9.13,9.13,0,0,0,.75,4.1v.3Zm-4.2-3.53a4.29,4.29,0,0,0,2.07-.51,3.27,3.27,0,0,0,1.41-1.34v-3.27H1403c-2.54,0-3.9.88-4.06,2.64l0,.3a2,2,0,0,0,.67,1.56A2.62,2.62,0,0,0,1401.39,313.83Z" fill="#fff"/>
<path d="M1418.54,298.34l.16,2.2a6.64,6.64,0,0,1,5.47-2.55,5.52,5.52,0,0,1,4.5,1.77,8.32,8.32,0,0,1,1.51,5.31v12.29h-5.08V305.19a3.27,3.27,0,0,0-.7-2.34,3.14,3.14,0,0,0-2.34-.73,3.5,3.5,0,0,0-3.22,1.83v13.41h-5.08v-19Z" fill="#fff"/>
<rect x="1181.2" y="375.05" width="340" height="104.38" fill="#4d4d4d"/>
<rect x="1180.3" y="375.05" width="85" height="104.38" fill="gray"/>
<path d="M1301.19,432.49H1292l-1.76,5.27h-5.61l9.53-25.59H1299l9.58,25.59H1303Zm-7.82-4.27h6.4l-3.22-9.58Z" fill="#fff"/>
<path d="M1314.46,418.74l.16,2.2a6.64,6.64,0,0,1,5.47-2.55,5.49,5.49,0,0,1,4.5,1.78,8.27,8.27,0,0,1,1.51,5.3v12.29H1321V425.6a3.3,3.3,0,0,0-.7-2.35,3.14,3.14,0,0,0-2.34-.73,3.5,3.5,0,0,0-3.22,1.83v13.41h-5.08v-19Z" fill="#fff"/>
<path d="M1341,437.76a5.89,5.89,0,0,1-.51-1.7,6.15,6.15,0,0,1-4.8,2.05,6.8,6.8,0,0,1-4.63-1.61,5.22,5.22,0,0,1-1.83-4.08,5.34,5.34,0,0,1,2.24-4.64,11,11,0,0,1,6.47-1.64h2.34v-1.09a3.14,3.14,0,0,0-.67-2.11,2.71,2.71,0,0,0-2.14-.79,3,3,0,0,0-2,.62,2.07,2.07,0,0,0-.73,1.68h-5.08a5.06,5.06,0,0,1,1-3.05,6.71,6.71,0,0,1,2.88-2.21,10.56,10.56,0,0,1,4.18-.8,8.26,8.26,0,0,1,5.58,1.77,6.15,6.15,0,0,1,2.07,5v8.25a8.93,8.93,0,0,0,.76,4.09v.3Zm-4.2-3.53a4.47,4.47,0,0,0,2.08-.5,3.32,3.32,0,0,0,1.4-1.35v-3.27h-1.9q-3.81,0-4.06,2.64v.3a2,2,0,0,0,.66,1.56A2.62,2.62,0,0,0,1336.77,434.23Z" fill="#fff"/>
<path d="m1354.6 437.76h-5.09v-27h5.09z" fill="#fff"/>
<path d="M1365.9,430.57l3.51-11.83h5.45l-7.64,22-.43,1a5.79,5.79,0,0,1-5.62,3.72,8.06,8.06,0,0,1-2.25-.33v-3.85l.77,0a4.25,4.25,0,0,0,2.16-.44,2.94,2.94,0,0,0,1.11-1.46l.6-1.57-6.66-19.07h5.47Z" fill="#fff"/>
<path d="M1383,414.07v4.67h3.25v3.73H1383V432a2.26,2.26,0,0,0,.4,1.51,2,2,0,0,0,1.55.46,8.25,8.25,0,0,0,1.49-.12v3.85a10.56,10.56,0,0,1-3.07.45q-5.34,0-5.45-5.39V422.47h-2.78v-3.73h2.78v-4.67Z" fill="#fff"/>
<path d="M1389,413.82a2.49,2.49,0,0,1,.76-1.88,2.87,2.87,0,0,1,2.08-.74,2.91,2.91,0,0,1,2.08.74,2.69,2.69,0,0,1,0,3.78,3.25,3.25,0,0,1-4.13,0A2.5,2.5,0,0,1,1389,413.82Zm5.39,23.94h-5.1v-19h5.1Z" fill="#fff"/>
<path d="M1406.49,434a3.3,3.3,0,0,0,2.28-.78,2.71,2.71,0,0,0,.92-2.05h4.76a6.42,6.42,0,0,1-1.06,3.54,6.92,6.92,0,0,1-2.83,2.49,8.82,8.82,0,0,1-4,.89,8.25,8.25,0,0,1-6.43-2.59,10.27,10.27,0,0,1-2.35-7.16V428a10.11,10.11,0,0,1,2.33-7,8.16,8.16,0,0,1,6.42-2.62,8,8,0,0,1,5.72,2,7.17,7.17,0,0,1,2.19,5.41h-4.76a3.53,3.53,0,0,0-.92-2.42,3,3,0,0,0-2.32-.92,3.06,3.06,0,0,0-2.68,1.29,7.53,7.53,0,0,0-.9,4.2v.53a7.55,7.55,0,0,0,.89,4.22A3.1,3.1,0,0,0,1406.49,434Z" fill="#fff"/>
<path d="M1427.65,432.5a1.63,1.63,0,0,0-.92-1.46,10.49,10.49,0,0,0-3-1q-6.8-1.43-6.79-5.77a5.22,5.22,0,0,1,2.1-4.22,8.47,8.47,0,0,1,5.49-1.7,9.18,9.18,0,0,1,5.8,1.7,5.41,5.41,0,0,1,2.17,4.43h-5.08a2.47,2.47,0,0,0-.71-1.8,3,3,0,0,0-2.19-.71,3,3,0,0,0-2,.58,1.83,1.83,0,0,0-.7,1.48,1.56,1.56,0,0,0,.8,1.36,8.25,8.25,0,0,0,2.7.9,21.17,21.17,0,0,1,3.19.85c2.69,1,4,2.69,4,5.11a5,5,0,0,1-2.23,4.21,9.59,9.59,0,0,1-5.77,1.61,10,10,0,0,1-4.24-.85,7.1,7.1,0,0,1-2.91-2.34,5.39,5.39,0,0,1-1.06-3.21h4.82a2.66,2.66,0,0,0,1,2.08,4,4,0,0,0,2.5.72,3.71,3.71,0,0,0,2.2-.55A1.74,1.74,0,0,0,1427.65,432.5Z" fill="#fff"/>
<rect x="1181.2" y="496.45" width="340" height="104.38" fill="#4d4d4d"/>
<rect x="1180.3" y="496.45" width="85" height="104.38" fill="gray"/>
<path d="M1301.19,553.89H1292l-1.76,5.27h-5.61l9.53-25.59H1299l9.58,25.59H1303Zm-7.82-4.27h6.4l-3.22-9.58Z" fill="#fff"/>
<path d="m1326.9 549.83a11.4 11.4 0 0 1-2 7 6.42 6.42 0 0 1-5.39 2.64 5.91 5.91 0 0 1-4.66-2v9h-5.08v-26.33h4.71l0.18 1.87a6 6 0 0 1 4.81-2.22 6.45 6.45 0 0 1 5.47 2.6 11.75 11.75 0 0 1 2 7.18zm-5.08-0.37a7.49 7.49 0 0 0-0.94-4.1 3.07 3.07 0 0 0-2.73-1.44 3.33 3.33 0 0 0-3.29 1.83v7.79a3.39 3.39 0 0 0 3.32 1.88q3.64 0 3.64-5.96z" fill="#fff"/>
<path d="m1347.2 549.83a11.4 11.4 0 0 1-2 7 6.39 6.39 0 0 1-5.39 2.64 5.89 5.89 0 0 1-4.65-2v9h-5.08v-26.33h4.71l0.17 1.87a6 6 0 0 1 4.82-2.22 6.46 6.46 0 0 1 5.47 2.6 11.75 11.75 0 0 1 2 7.18zm-5.08-0.37a7.58 7.58 0 0 0-0.94-4.1 3.07 3.07 0 0 0-2.74-1.44 3.31 3.31 0 0 0-3.28 1.83v7.79a3.39 3.39 0 0 0 3.32 1.88c2.42 0 3.64-1.99 3.64-5.96z" fill="#fff"/>
<path d="m1355.7 559.16h-5.1v-27h5.1z" fill="#fff"/>
<path d="m1359.8 535.22a2.5 2.5 0 0 1 0.77-1.88 2.87 2.87 0 0 1 2.08-0.74 2.91 2.91 0 0 1 2.08 0.74 2.69 2.69 0 0 1 0 3.78 3.25 3.25 0 0 1-4.13 0 2.46 2.46 0 0 1-0.8-1.9zm5.4 23.94h-5.1v-19h5.1z" fill="#fff"/>
<path d="M1377.32,555.42a3.37,3.37,0,0,0,2.29-.77,2.7,2.7,0,0,0,.91-2.06h4.77a6.5,6.5,0,0,1-1.06,3.54,7,7,0,0,1-2.84,2.5,8.87,8.87,0,0,1-4,.88,8.24,8.24,0,0,1-6.43-2.59,10.25,10.25,0,0,1-2.36-7.16v-.34a10.15,10.15,0,0,1,2.34-7,8.19,8.19,0,0,1,6.42-2.62,8,8,0,0,1,5.72,2,7.26,7.26,0,0,1,2.19,5.41h-4.77a3.43,3.43,0,0,0-.91-2.41,3.4,3.4,0,0,0-5,.36,7.43,7.43,0,0,0-.91,4.2v.53a7.53,7.53,0,0,0,.9,4.22A3.1,3.1,0,0,0,1377.32,555.42Z" fill="#fff"/>
<path d="M1399.21,559.16a5.25,5.25,0,0,1-.51-1.7,6.15,6.15,0,0,1-4.8,2,6.73,6.73,0,0,1-4.63-1.61,5.19,5.19,0,0,1-1.84-4.08,5.38,5.38,0,0,1,2.24-4.64,11.14,11.14,0,0,1,6.48-1.64h2.34v-1.09a3.16,3.16,0,0,0-.68-2.11,2.68,2.68,0,0,0-2.13-.79,3,3,0,0,0-2,.62,2.11,2.11,0,0,0-.73,1.69h-5.08a5.09,5.09,0,0,1,1-3.06,6.68,6.68,0,0,1,2.89-2.21,10.53,10.53,0,0,1,4.18-.8,8.3,8.3,0,0,1,5.58,1.77,6.17,6.17,0,0,1,2.07,5v8.25a9.08,9.08,0,0,0,.75,4.09v.3Zm-4.2-3.53a4.4,4.4,0,0,0,2.07-.5,3.35,3.35,0,0,0,1.41-1.35v-3.27h-1.9c-2.54,0-3.9.88-4.06,2.64l0,.3a2,2,0,0,0,.67,1.56A2.58,2.58,0,0,0,1395,555.63Z" fill="#fff"/>
<path d="M1413.57,535.47v4.67h3.25v3.73h-3.25v9.49a2.3,2.3,0,0,0,.4,1.51,2,2,0,0,0,1.55.46,8.44,8.44,0,0,0,1.5-.12v3.85a10.68,10.68,0,0,1-3.08.45c-3.56,0-5.38-1.79-5.45-5.39V543.87h-2.78v-3.73h2.78v-4.67Z" fill="#fff"/>
<path d="m1419.6 535.22a2.49 2.49 0 0 1 0.76-1.88 3.29 3.29 0 0 1 4.16 0 2.69 2.69 0 0 1 0 3.78 3.25 3.25 0 0 1-4.13 0 2.49 2.49 0 0 1-0.79-1.9zm5.39 23.94h-5.09v-19h5.08z" fill="#fff"/>
<path d="m1428.4 549.48a11.26 11.26 0 0 1 1.09-5.05 8 8 0 0 1 3.13-3.43 9.25 9.25 0 0 1 4.76-1.21 8.64 8.64 0 0 1 6.28 2.36 9.43 9.43 0 0 1 2.72 6.4v1.3a9.94 9.94 0 0 1-2.44 7 9.48 9.48 0 0 1-13.12 0 10.1 10.1 0 0 1-2.45-7.17zm5.08 0.36a7.07 7.07 0 0 0 1 4.14 3.66 3.66 0 0 0 5.8 0 7.77 7.77 0 0 0 1-4.53 7 7 0 0 0-1-4.12 3.39 3.39 0 0 0-2.92-1.46 3.31 3.31 0 0 0-2.88 1.45 7.92 7.92 0 0 0-1 4.52z" fill="#fff"/>
<path d="M1454.23,540.14l.16,2.2a6.63,6.63,0,0,1,5.46-2.55,5.49,5.49,0,0,1,4.5,1.78,8.28,8.28,0,0,1,1.52,5.31v12.28h-5.08V547a3.3,3.3,0,0,0-.71-2.35,3.18,3.18,0,0,0-2.34-.73,3.48,3.48,0,0,0-3.21,1.83v13.41h-5.08v-19Z" fill="#fff"/>
<path d="M1480,553.91a1.64,1.64,0,0,0-.93-1.47,10.27,10.27,0,0,0-3-1q-6.78-1.43-6.78-5.76a5.23,5.23,0,0,1,2.1-4.23,8.47,8.47,0,0,1,5.49-1.7,9.11,9.11,0,0,1,5.79,1.71,5.35,5.35,0,0,1,2.17,4.43h-5.08a2.47,2.47,0,0,0-.7-1.81,3,3,0,0,0-2.2-.71,3.05,3.05,0,0,0-2,.58,1.84,1.84,0,0,0-.71,1.48,1.56,1.56,0,0,0,.8,1.36,8.1,8.1,0,0,0,2.7.9,21.33,21.33,0,0,1,3.2.85c2.68,1,4,2.69,4,5.12a5,5,0,0,1-2.24,4.21,9.64,9.64,0,0,1-5.76,1.6,10,10,0,0,1-4.25-.85,7.23,7.23,0,0,1-2.91-2.34,5.44,5.44,0,0,1-1-3.2h4.81a2.67,2.67,0,0,0,1,2.07,4,4,0,0,0,2.49.72,3.68,3.68,0,0,0,2.21-.55A1.73,1.73,0,0,0,1480,553.91Z" fill="#fff"/>
<rect x="33.79" y="13.53" width="251.6" height="52.41" fill="#999"/>
<rect x="31.7" y="13.53" width="62.41" height="52.41" fill="#1a1a1a"/>
<path d="M106.44,48V30.92h4.81a7.71,7.71,0,0,1,3.94,1,6.62,6.62,0,0,1,2.64,2.8,9.15,9.15,0,0,1,1,4.17V40a9.16,9.16,0,0,1-.94,4.23A6.52,6.52,0,0,1,115.18,47a8.26,8.26,0,0,1-4,1Zm2.25-15.23V46.15h2.36a5.14,5.14,0,0,0,4-1.62,6.67,6.67,0,0,0,1.45-4.61v-1a6.78,6.78,0,0,0-1.37-4.52,4.86,4.86,0,0,0-3.87-1.64Z" fill="#fff"/>
<path d="M127.1,48.22a5.54,5.54,0,0,1-4.2-1.69A6.28,6.28,0,0,1,121.28,42v-.4a7.62,7.62,0,0,1,.72-3.37,5.65,5.65,0,0,1,2-2.32,5.06,5.06,0,0,1,2.81-.84,4.77,4.77,0,0,1,3.84,1.63A7.09,7.09,0,0,1,132,41.37v.9h-8.59a4.5,4.5,0,0,0,1.1,3,3.42,3.42,0,0,0,2.66,1.15,3.8,3.8,0,0,0,2-.47,4.8,4.8,0,0,0,1.39-1.24l1.33,1A5.34,5.34,0,0,1,127.1,48.22Zm-.27-11.37a2.9,2.9,0,0,0-2.21,1,4.67,4.67,0,0,0-1.1,2.68h6.35v-.17a4.13,4.13,0,0,0-.89-2.56A2.74,2.74,0,0,0,126.83,36.85Z" fill="#fff"/>
<path d="M138.58,45l3.14-9.73h2.22L139.39,48h-1.65l-4.6-12.68h2.22Z" fill="#fff"/>
<path d="M146,31.94a1.27,1.27,0,0,1,.33-.89,1.2,1.2,0,0,1,.95-.36,1.24,1.24,0,0,1,1,.36,1.27,1.27,0,0,1,.33.89,1.17,1.17,0,0,1-1.29,1.23,1.2,1.2,0,0,1-.95-.35A1.23,1.23,0,0,1,146,31.94ZM148.38,48h-2.17V35.31h2.17Z" fill="#fff"/>
<path d="M156.93,46.45a3.11,3.11,0,0,0,2-.7,2.47,2.47,0,0,0,1-1.76H162a3.9,3.9,0,0,1-.75,2.07,5,5,0,0,1-1.84,1.57,5.63,5.63,0,0,1-6.57-1.14,6.88,6.88,0,0,1-1.53-4.73V41.4a7.68,7.68,0,0,1,.68-3.29,5.27,5.27,0,0,1,1.95-2.24,5.57,5.57,0,0,1,3-.8,5.08,5.08,0,0,1,3.54,1.28A4.53,4.53,0,0,1,162,39.67h-2.05a3,3,0,0,0-.93-2,2.94,2.94,0,0,0-2.07-.79A3,3,0,0,0,154.36,38a5.57,5.57,0,0,0-.91,3.44v.41a5.51,5.51,0,0,0,.9,3.38A3.05,3.05,0,0,0,156.93,46.45Z" fill="#fff"/>
<path d="M169.67,48.22a5.54,5.54,0,0,1-4.2-1.69A6.32,6.32,0,0,1,163.86,42v-.4a7.62,7.62,0,0,1,.72-3.37,5.63,5.63,0,0,1,2-2.32,5.08,5.08,0,0,1,2.81-.84,4.75,4.75,0,0,1,3.84,1.63,7,7,0,0,1,1.38,4.67v.9H166a4.5,4.5,0,0,0,1.09,3,3.45,3.45,0,0,0,2.67,1.15,3.79,3.79,0,0,0,1.94-.47,4.83,4.83,0,0,0,1.4-1.24l1.32,1A5.33,5.33,0,0,1,169.67,48.22Zm-.27-11.37a2.88,2.88,0,0,0-2.2,1,4.61,4.61,0,0,0-1.1,2.68h6.35v-.17a4.2,4.2,0,0,0-.89-2.56A2.74,2.74,0,0,0,169.4,36.85Z" fill="#fff"/>
<rect x="33.79" y="71.17" width="251.6" height="52.41" fill="#999"/>
<rect x="31.7" y="71.17" width="62.41" height="52.41" fill="#1a1a1a"/>
<path d="M111.46,98a10.62,10.62,0,0,1-4.21-2,3.89,3.89,0,0,1-1.32-3,4.12,4.12,0,0,1,1.61-3.33,6.41,6.41,0,0,1,4.19-1.32,6.93,6.93,0,0,1,3.14.68A5.06,5.06,0,0,1,117,90.89a4.84,4.84,0,0,1,.76,2.61h-2.27a3.12,3.12,0,0,0-1-2.44,4,4,0,0,0-2.78-.88,4.07,4.07,0,0,0-2.59.73,2.45,2.45,0,0,0-.93,2,2.19,2.19,0,0,0,.88,1.76,8.49,8.49,0,0,0,3,1.33,13.62,13.62,0,0,1,3.33,1.31A5.1,5.1,0,0,1,117.21,99a4.25,4.25,0,0,1,.58,2.26,4,4,0,0,1-1.62,3.32,6.89,6.89,0,0,1-4.32,1.25,8,8,0,0,1-3.28-.68,5.42,5.42,0,0,1-2.35-1.84,4.51,4.51,0,0,1-.83-2.66h2.26a3,3,0,0,0,1.15,2.44,4.79,4.79,0,0,0,3,.9,4.37,4.37,0,0,0,2.73-.73,2.36,2.36,0,0,0,1-2,2.32,2.32,0,0,0-.88-1.94A10,10,0,0,0,111.46,98Z" fill="#fff"/>
<path d="M125.6,105.87a5.55,5.55,0,0,1-4.2-1.7,6.24,6.24,0,0,1-1.62-4.52v-.4a7.62,7.62,0,0,1,.72-3.37,5.65,5.65,0,0,1,2-2.32,5.06,5.06,0,0,1,2.81-.84,4.74,4.74,0,0,1,3.84,1.63A7.06,7.06,0,0,1,130.54,99v.91H122a4.48,4.48,0,0,0,1.1,3,3.43,3.43,0,0,0,2.66,1.16,3.8,3.8,0,0,0,2-.47,5,5,0,0,0,1.39-1.24l1.33,1A5.34,5.34,0,0,1,125.6,105.87Zm-.27-11.37a2.9,2.9,0,0,0-2.21,1,4.64,4.64,0,0,0-1.1,2.67h6.35V98a4.11,4.11,0,0,0-.89-2.56A2.7,2.7,0,0,0,125.33,94.5Z" fill="#fff"/>
<path d="M135.1,93l.07,1.6a4.62,4.62,0,0,1,3.8-1.83q4,0,4.05,4.53v8.38h-2.17V97.24a2.86,2.86,0,0,0-.62-2,2.51,2.51,0,0,0-1.92-.66,3.16,3.16,0,0,0-1.85.56,3.81,3.81,0,0,0-1.24,1.48v9h-2.17V93Z" fill="#fff"/>
<path d="M153.67,102.27a1.58,1.58,0,0,0-.66-1.36,6.16,6.16,0,0,0-2.31-.84,11.08,11.08,0,0,1-2.61-.85,3.72,3.72,0,0,1-1.43-1.17,2.78,2.78,0,0,1-.46-1.62,3.29,3.29,0,0,1,1.32-2.63,5.11,5.11,0,0,1,3.36-1.08,5.3,5.3,0,0,1,3.5,1.11,3.53,3.53,0,0,1,1.34,2.85h-2.18a2,2,0,0,0-.75-1.53,2.83,2.83,0,0,0-1.91-.65A3,3,0,0,0,149,95a1.62,1.62,0,0,0-.66,1.34,1.31,1.31,0,0,0,.62,1.19,7.7,7.7,0,0,0,2.24.76,11.37,11.37,0,0,1,2.63.87,3.88,3.88,0,0,1,1.5,1.21,3,3,0,0,1,.48,1.73,3.23,3.23,0,0,1-1.36,2.72,5.64,5.64,0,0,1-3.52,1,6.38,6.38,0,0,1-2.7-.54,4.34,4.34,0,0,1-1.83-1.51,3.56,3.56,0,0,1-.67-2.09h2.17a2.26,2.26,0,0,0,.87,1.73,3.39,3.39,0,0,0,2.16.64,3.51,3.51,0,0,0,2-.5A1.51,1.51,0,0,0,153.67,102.27Z" fill="#fff"/>
<path d="M158.09,99.18a7.56,7.56,0,0,1,.73-3.35,5.45,5.45,0,0,1,2-2.3,5.56,5.56,0,0,1,3-.81A5.38,5.38,0,0,1,168,94.51a6.94,6.94,0,0,1,1.59,4.77v.15a7.6,7.6,0,0,1-.7,3.33,5.45,5.45,0,0,1-2,2.29,5.68,5.68,0,0,1-3,.82,5.36,5.36,0,0,1-4.18-1.79,6.86,6.86,0,0,1-1.6-4.75Zm2.18.25a5.44,5.44,0,0,0,1,3.39,3.14,3.14,0,0,0,2.62,1.28,3.08,3.08,0,0,0,2.62-1.3,5.9,5.9,0,0,0,1-3.62,5.41,5.41,0,0,0-1-3.38,3.29,3.29,0,0,0-5.22,0A5.85,5.85,0,0,0,160.27,99.43Z" fill="#fff"/>
<path d="M178.48,94.9a5.93,5.93,0,0,0-1.06-.08,2.86,2.86,0,0,0-2.9,1.81v9h-2.17V93h2.11l0,1.47a3.38,3.38,0,0,1,3-1.7,2.22,2.22,0,0,1,1,.16Z" fill="#fff"/>
<path d="M64.9,119a10.27,10.27,0,0,1-10.4-10.12,10.06,10.06,0,0,1,4.13-8.08V82a5.12,5.12,0,0,1,5.18-5H66a5.11,5.11,0,0,1,5.18,5V100.8a10.06,10.06,0,0,1,4.13,8.08A10.27,10.27,0,0,1,64.9,119Z" fill="none" stroke="#fff" stroke-miterlimit="10"/>
<line x1="63.99" x2="71.23" y1="99.43" y2="99.43" fill="none" stroke="#fff" stroke-miterlimit="10"/>
<line x1="63.99" x2="71.23" y1="87.71" y2="87.71" fill="none" stroke="#fff" stroke-miterlimit="10"/>
<line x1="63.99" x2="71.23" y1="93.57" y2="93.57" fill="none" stroke="#fff" stroke-miterlimit="10"/>
<rect x="33.79" y="277.66" width="251.6" height="52.41" fill="#999"/>
<rect x="31.7" y="277.66" width="62.41" height="52.41" fill="#1a1a1a"/>
<path d="M106.44,312.12V295.05h4.81a7.71,7.71,0,0,1,3.94,1,6.67,6.67,0,0,1,2.64,2.8,9.15,9.15,0,0,1,1,4.17v1.09a9.16,9.16,0,0,1-.94,4.23,6.52,6.52,0,0,1-2.66,2.79,8.26,8.26,0,0,1-4,1Zm2.25-15.23v13.39h2.36a5.14,5.14,0,0,0,4-1.62,6.67,6.67,0,0,0,1.45-4.61v-1a6.8,6.8,0,0,0-1.37-4.52,4.89,4.89,0,0,0-3.87-1.64Z" fill="#fff"/>
<path d="M121.85,296.07a1.28,1.28,0,0,1,.32-.89,1.2,1.2,0,0,1,1-.36,1.22,1.22,0,0,1,1,.36,1.29,1.29,0,0,1,.33.89,1.17,1.17,0,0,1-1.29,1.23,1.2,1.2,0,0,1-1-.35A1.21,1.21,0,0,1,121.85,296.07Zm2.34,16.05H122V299.44h2.17Z" fill="#fff"/>
<path d="m127.14 305.67a7.45 7.45 0 0 1 1.37-4.71 4.73 4.73 0 0 1 7.26-0.12l0.1-1.4h2v12.37a5.13 5.13 0 0 1-1.46 3.88 5.35 5.35 0 0 1-3.92 1.42 6.55 6.55 0 0 1-2.68-0.59 4.61 4.61 0 0 1-2-1.6l1.12-1.3a4.24 4.24 0 0 0 3.41 1.72 3.34 3.34 0 0 0 2.47-0.89 3.4 3.4 0 0 0 0.88-2.51v-1.09a4.44 4.44 0 0 1-3.55 1.5 4.34 4.34 0 0 1-3.6-1.79 7.85 7.85 0 0 1-1.4-4.89zm2.18 0.25a5.74 5.74 0 0 0 0.88 3.37 2.88 2.88 0 0 0 2.46 1.22 3.17 3.17 0 0 0 3-1.86v-5.79a3.21 3.21 0 0 0-3-1.82 2.9 2.9 0 0 0-2.48 1.23 6.24 6.24 0 0 0-0.86 3.65z" fill="#fff"/>
<path d="M141.13,296.07a1.29,1.29,0,0,1,.33-.89,1.2,1.2,0,0,1,.95-.36,1.24,1.24,0,0,1,1,.36,1.29,1.29,0,0,1,.33.89,1.22,1.22,0,0,1-.33.88,1.23,1.23,0,0,1-1,.35,1.2,1.2,0,0,1-.95-.35A1.22,1.22,0,0,1,141.13,296.07Zm2.35,16.05h-2.17V299.44h2.17Z" fill="#fff"/>
<path d="M149.89,296.37v3.07h2.37v1.67h-2.37V309a1.69,1.69,0,0,0,.32,1.14,1.34,1.34,0,0,0,1.07.38,5.45,5.45,0,0,0,1-.14v1.75a6.5,6.5,0,0,1-1.66.23,2.68,2.68,0,0,1-2.19-.88,3.77,3.77,0,0,1-.74-2.49v-7.87h-2.31v-1.67h2.31v-3.07Z" fill="#fff"/>
<path d="M162.62,312.12a4.46,4.46,0,0,1-.31-1.34,4.83,4.83,0,0,1-3.61,1.57,4.49,4.49,0,0,1-3.08-1.06,3.43,3.43,0,0,1-1.2-2.69,3.59,3.59,0,0,1,1.51-3.07,7,7,0,0,1,4.24-1.1h2.11v-1a2.46,2.46,0,0,0-.68-1.81,2.76,2.76,0,0,0-2-.67,3.09,3.09,0,0,0-1.94.59,1.71,1.71,0,0,0-.79,1.41h-2.18a3,3,0,0,1,.68-1.83,4.47,4.47,0,0,1,1.82-1.4,6.23,6.23,0,0,1,2.54-.52,5,5,0,0,1,3.43,1.1,4,4,0,0,1,1.29,3v5.83a7.07,7.07,0,0,0,.45,2.78v.19Zm-3.6-1.66a3.81,3.81,0,0,0,1.93-.52,3.24,3.24,0,0,0,1.33-1.37V306h-1.7q-4,0-4,2.34a2,2,0,0,0,.68,1.59A2.63,2.63,0,0,0,159,310.46Z" fill="#fff"/>
<path d="M170.2,312.12H168v-18h2.17Z" fill="#fff"/>
<path d="m182.36 312.12h-2.25v-17.07h2.25z" fill="#fff"/>
<path d="M188.19,299.44l.07,1.59a4.6,4.6,0,0,1,3.79-1.83q4,0,4.06,4.54v8.38h-2.17v-8.39a2.93,2.93,0,0,0-.63-2,2.5,2.5,0,0,0-1.91-.66,3.13,3.13,0,0,0-1.86.57,3.79,3.79,0,0,0-1.24,1.47v9h-2.17V299.44Z" fill="#fff"/>
<path d="m210.09 305.92a7.53 7.53 0 0 1-1.33 4.66 4.23 4.23 0 0 1-3.58 1.77 4.69 4.69 0 0 1-3.64-1.46v6.11h-2.16v-17.56h2l0.1 1.4a4.49 4.49 0 0 1 3.68-1.64 4.33 4.33 0 0 1 3.62 1.73 7.69 7.69 0 0 1 1.33 4.79zm-2.17-0.25a5.56 5.56 0 0 0-0.91-3.38 3 3 0 0 0-2.51-1.29 3.2 3.2 0 0 0-3 1.75v6.06a3.21 3.21 0 0 0 3 1.73 2.93 2.93 0 0 0 2.48-1.23 6.16 6.16 0 0 0 0.94-3.64z" fill="#fff"/>
<path d="M220.67,310.86a4.57,4.57,0,0,1-3.71,1.49,3.91,3.91,0,0,1-3.09-1.18,5.07,5.07,0,0,1-1.08-3.48v-8.25H215v8.19c0,1.92.78,2.88,2.35,2.88a3.25,3.25,0,0,0,3.3-1.85v-9.22h2.17v12.68h-2.06Z" fill="#fff"/>
<path d="M229,296.37v3.07h2.37v1.67H229V309a1.74,1.74,0,0,0,.32,1.14,1.35,1.35,0,0,0,1.08.38,5.56,5.56,0,0,0,1-.14v1.75a6.56,6.56,0,0,1-1.66.23,2.72,2.72,0,0,1-2.2-.88,3.77,3.77,0,0,1-.73-2.49v-7.87h-2.31v-1.67h2.31v-3.07Z" fill="#fff"/>
<rect x="33.79" y="335.3" width="251.6" height="52.41" fill="#999"/>
<rect x="32.22" y="335.3" width="62.41" height="52.41" fill="#1a1a1a"/>
<path d="M106.44,369.76V352.7h4.81a7.71,7.71,0,0,1,3.94,1,6.62,6.62,0,0,1,2.64,2.8,9.15,9.15,0,0,1,1,4.17v1.09a9.16,9.16,0,0,1-.94,4.23,6.52,6.52,0,0,1-2.66,2.79,8.14,8.14,0,0,1-4,1Zm2.25-15.22v13.38h2.36a5.16,5.16,0,0,0,4-1.61,6.67,6.67,0,0,0,1.45-4.61v-1a6.78,6.78,0,0,0-1.37-4.52,4.86,4.86,0,0,0-3.87-1.64Z" fill="#fff"/>
<path d="M121.85,353.72a1.27,1.27,0,0,1,.32-.89,1.2,1.2,0,0,1,1-.36,1.22,1.22,0,0,1,1,.36,1.27,1.27,0,0,1,.33.89,1.23,1.23,0,0,1-.33.88,1.25,1.25,0,0,1-1,.35,1.16,1.16,0,0,1-1.27-1.23Zm2.34,16H122V357.08h2.17Z" fill="#fff"/>
<path d="m127.14 363.32a7.48 7.48 0 0 1 1.37-4.72 4.74 4.74 0 0 1 7.26-0.11l0.1-1.41h2v12.38a5.14 5.14 0 0 1-1.46 3.88 5.39 5.39 0 0 1-3.92 1.42 6.55 6.55 0 0 1-2.68-0.59 4.63 4.63 0 0 1-2-1.61l1.12-1.3a4.25 4.25 0 0 0 3.41 1.73 3.34 3.34 0 0 0 2.47-0.89 3.41 3.41 0 0 0 0.88-2.51v-1.09a4.44 4.44 0 0 1-3.55 1.5 4.34 4.34 0 0 1-3.6-1.79 7.85 7.85 0 0 1-1.4-4.89zm2.18 0.24a5.72 5.72 0 0 0 0.88 3.37 2.86 2.86 0 0 0 2.46 1.23 3.16 3.16 0 0 0 3-1.87v-5.78a3.19 3.19 0 0 0-3-1.82 2.9 2.9 0 0 0-2.48 1.23 6.22 6.22 0 0 0-0.86 3.64z" fill="#fff"/>
<path d="M141.13,353.72a1.27,1.27,0,0,1,.33-.89,1.2,1.2,0,0,1,.95-.36,1.24,1.24,0,0,1,1,.36,1.27,1.27,0,0,1,.33.89,1.23,1.23,0,0,1-.33.88,1.27,1.27,0,0,1-1,.35,1.17,1.17,0,0,1-1.28-1.23Zm2.35,16h-2.17V357.08h2.17Z" fill="#fff"/>
<path d="M149.89,354v3.07h2.37v1.68h-2.37v7.87a1.73,1.73,0,0,0,.32,1.15,1.34,1.34,0,0,0,1.07.38,5.45,5.45,0,0,0,1-.14v1.75a6.5,6.5,0,0,1-1.66.23,2.68,2.68,0,0,1-2.19-.88,3.8,3.8,0,0,1-.74-2.5v-7.86h-2.31v-1.68h2.31V354Z" fill="#fff"/>
<path d="M162.62,369.76a4.37,4.37,0,0,1-.31-1.33A4.86,4.86,0,0,1,158.7,370a4.54,4.54,0,0,1-3.08-1.06,3.45,3.45,0,0,1-1.2-2.69,3.6,3.6,0,0,1,1.51-3.08,7.11,7.11,0,0,1,4.24-1.09h2.11v-1a2.44,2.44,0,0,0-.68-1.81,2.76,2.76,0,0,0-2-.67,3.15,3.15,0,0,0-1.94.58,1.71,1.71,0,0,0-.79,1.42h-2.18a3,3,0,0,1,.68-1.83,4.47,4.47,0,0,1,1.82-1.4,6.07,6.07,0,0,1,2.54-.52,5,5,0,0,1,3.43,1.1,3.93,3.93,0,0,1,1.29,3v5.84a7.1,7.1,0,0,0,.45,2.78v.18Zm-3.6-1.65a3.72,3.72,0,0,0,1.93-.53,3.19,3.19,0,0,0,1.33-1.37v-2.6h-1.7q-4,0-4,2.33a2,2,0,0,0,.68,1.6A2.63,2.63,0,0,0,159,368.11Z" fill="#fff"/>
<path d="M170.2,369.76H168v-18h2.17Z" fill="#fff"/>
<path d="M193.07,361.78a10.6,10.6,0,0,1-.84,4.38,6.32,6.32,0,0,1-2.39,2.85,6.59,6.59,0,0,1-9.61-2.83,10.25,10.25,0,0,1-.88-4.24v-1.23a10.27,10.27,0,0,1,.86-4.35,6.29,6.29,0,0,1,6-3.89,6.61,6.61,0,0,1,3.61,1,6.35,6.35,0,0,1,2.41,2.87,10.63,10.63,0,0,1,.84,4.38Zm-2.24-1.1a7.7,7.7,0,0,0-1.21-4.66,4,4,0,0,0-3.41-1.62,4,4,0,0,0-3.36,1.62,7.48,7.48,0,0,0-1.26,4.51v1.25a7.71,7.71,0,0,0,1.23,4.63,4,4,0,0,0,3.41,1.68,4,4,0,0,0,3.37-1.59,7.58,7.58,0,0,0,1.23-4.55Z" fill="#fff"/>
<path d="m203.94 368.51a4.64 4.64 0 0 1-3.72 1.49 3.94 3.94 0 0 1-3.09-1.18 5.14 5.14 0 0 1-1.07-3.49v-8.25h2.17v8.2q0 2.88 2.34 2.88a3.26 3.26 0 0 0 3.31-1.85v-9.23h2.12v12.68h-2z" fill="#fff"/>
<path d="M212.28,354v3.07h2.37v1.68h-2.37v7.87a1.73,1.73,0,0,0,.32,1.15,1.34,1.34,0,0,0,1.07.38,5.64,5.64,0,0,0,1-.14v1.75A6.64,6.64,0,0,1,213,370a2.68,2.68,0,0,1-2.19-.88,3.8,3.8,0,0,1-.74-2.5v-7.86H207.8v-1.68h2.31V354Z" fill="#fff"/>
<path d="m227.89 363.56a7.57 7.57 0 0 1-1.33 4.67 4.23 4.23 0 0 1-3.56 1.77 4.63 4.63 0 0 1-3.63-1.47v6.11h-2.17v-17.56h2l0.1 1.41a4.49 4.49 0 0 1 3.68-1.64 4.32 4.32 0 0 1 3.62 1.72 7.67 7.67 0 0 1 1.33 4.8zm-2.17-0.24a5.61 5.61 0 0 0-0.91-3.39 3 3 0 0 0-2.51-1.24 3.17 3.17 0 0 0-3 1.75v6.05a3.18 3.18 0 0 0 3 1.74 2.92 2.92 0 0 0 2.5-1.23 6.13 6.13 0 0 0 0.92-3.68z" fill="#fff"/>
<path d="M238.47,368.51a4.6,4.6,0,0,1-3.71,1.49,3.92,3.92,0,0,1-3.09-1.18,5,5,0,0,1-1.07-3.49v-8.25h2.16v8.2c0,1.92.78,2.88,2.35,2.88a3.24,3.24,0,0,0,3.3-1.85v-9.23h2.17v12.68h-2.06Z" fill="#fff"/>
<path d="M246.81,354v3.07h2.37v1.68h-2.37v7.87a1.79,1.79,0,0,0,.32,1.15,1.35,1.35,0,0,0,1.08.38,5.56,5.56,0,0,0,1-.14v1.75a6.5,6.5,0,0,1-1.66.23,2.72,2.72,0,0,1-2.2-.88,3.8,3.8,0,0,1-.73-2.5v-7.86h-2.31v-1.68h2.31V354Z" fill="#fff"/>
<rect x="33.79" y="392.95" width="251.6" height="52.41" fill="#999"/>
<rect x="31.7" y="392.95" width="62.41" height="52.41" fill="#1a1a1a"/>
<path d="m115.86 423h-7.15l-1.61 4.46h-2.32l6.52-17.06h2l6.52 17.06h-2.3zm-6.47-1.84h5.8l-2.91-8z" fill="#fff"/>
<path d="M123.8,414.73l.07,1.6a4.63,4.63,0,0,1,3.8-1.83q4,0,4,4.53v8.38h-2.16V419a3,3,0,0,0-.63-2,2.55,2.55,0,0,0-1.92-.65,3.16,3.16,0,0,0-1.85.56,3.9,3.9,0,0,0-1.24,1.48v9h-2.17V414.73Z" fill="#fff"/>
<path d="M142.82,427.41a4.78,4.78,0,0,1-.3-1.33,4.86,4.86,0,0,1-3.61,1.57,4.52,4.52,0,0,1-3.08-1.06,3.45,3.45,0,0,1-1.2-2.69,3.58,3.58,0,0,1,1.51-3.08,7.07,7.07,0,0,1,4.23-1.1h2.11v-1a2.41,2.41,0,0,0-.68-1.81,2.72,2.72,0,0,0-2-.68,3.2,3.2,0,0,0-2,.59,1.73,1.73,0,0,0-.78,1.42h-2.18a3,3,0,0,1,.67-1.84,4.66,4.66,0,0,1,1.83-1.4,6.23,6.23,0,0,1,2.54-.51,5,5,0,0,1,3.43,1.09,4,4,0,0,1,1.29,3v5.84a7,7,0,0,0,.45,2.77v.19Zm-3.6-1.65a3.85,3.85,0,0,0,1.94-.53,3.16,3.16,0,0,0,1.32-1.37v-2.6h-1.7q-4,0-4,2.33a2,2,0,0,0,.68,1.6A2.6,2.6,0,0,0,139.22,425.76Z" fill="#fff"/>
<path d="m150.4 427.41h-2.16v-18h2.16z" fill="#fff"/>
<path d="M153.3,421a7.5,7.5,0,0,1,.73-3.36,5.48,5.48,0,0,1,2-2.29,5.55,5.55,0,0,1,3-.81,5.35,5.35,0,0,1,4.19,1.79,6.9,6.9,0,0,1,1.6,4.77v.15a7.5,7.5,0,0,1-.71,3.33,5.43,5.43,0,0,1-2,2.29,5.68,5.68,0,0,1-3,.82,5.32,5.32,0,0,1-4.18-1.8,6.82,6.82,0,0,1-1.6-4.74Zm2.18.25a5.38,5.38,0,0,0,1,3.39,3.13,3.13,0,0,0,2.62,1.28,3.1,3.1,0,0,0,2.62-1.3,5.9,5.9,0,0,0,1-3.62,5.44,5.44,0,0,0-1-3.39,3.29,3.29,0,0,0-5.22,0A5.92,5.92,0,0,0,155.48,421.21Z" fill="#fff"/>
<path d="M167,421a7.43,7.43,0,0,1,1.38-4.72,4.72,4.72,0,0,1,7.25-.11l.11-1.41h2v12.38A5.18,5.18,0,0,1,176.3,431a5.41,5.41,0,0,1-3.92,1.41,6.55,6.55,0,0,1-2.69-.58,4.63,4.63,0,0,1-2-1.61l1.12-1.3a4.24,4.24,0,0,0,3.41,1.72,3.3,3.3,0,0,0,2.47-.89,3.39,3.39,0,0,0,.89-2.5v-1.09a4.46,4.46,0,0,1-3.55,1.5,4.33,4.33,0,0,1-3.61-1.8A7.8,7.8,0,0,1,167,421Zm2.18.24a5.72,5.72,0,0,0,.88,3.37,2.86,2.86,0,0,0,2.46,1.23,3.18,3.18,0,0,0,3-1.87v-5.79a3.22,3.22,0,0,0-3-1.81,2.87,2.87,0,0,0-2.47,1.23A6.13,6.13,0,0,0,169.22,421.21Z" fill="#fff"/>
<path d="m189.72 427.41h-2.25v-17.06h2.25z" fill="#fff"/>
<path d="M195.54,414.73l.08,1.6a4.6,4.6,0,0,1,3.79-1.83q4,0,4.06,4.53v8.38H201.3V419a3,3,0,0,0-.63-2,2.54,2.54,0,0,0-1.91-.65,3.19,3.19,0,0,0-1.86.56,3.9,3.9,0,0,0-1.24,1.48v9h-2.17V414.73Z" fill="#fff"/>
<path d="M217.45,421.21a7.57,7.57,0,0,1-1.33,4.67,4.24,4.24,0,0,1-3.58,1.77,4.67,4.67,0,0,1-3.64-1.47v6.11h-2.16V414.73h2l.1,1.41a4.46,4.46,0,0,1,3.68-1.64,4.32,4.32,0,0,1,3.62,1.72,7.73,7.73,0,0,1,1.33,4.79Zm-2.17-.24a5.68,5.68,0,0,0-.91-3.39,3,3,0,0,0-2.51-1.24,3.19,3.19,0,0,0-3,1.74v6.06a3.19,3.19,0,0,0,3,1.74,2.94,2.94,0,0,0,2.48-1.24A6.13,6.13,0,0,0,215.28,421Z" fill="#fff"/>
<path d="M228,426.16a4.61,4.61,0,0,1-3.72,1.49,3.93,3.93,0,0,1-3.08-1.18,5.11,5.11,0,0,1-1.08-3.49v-8.25h2.17v8.19c0,1.93.78,2.89,2.35,2.89A3.25,3.25,0,0,0,228,424v-9.23h2.17v12.68h-2.06Z" fill="#fff"/>
<path d="M236.37,411.66v3.07h2.37v1.68h-2.37v7.87a1.79,1.79,0,0,0,.32,1.15,1.35,1.35,0,0,0,1.08.38,5.56,5.56,0,0,0,1-.14v1.74a6.18,6.18,0,0,1-1.67.24,2.74,2.74,0,0,1-2.19-.88,3.8,3.8,0,0,1-.73-2.5v-7.86H231.9v-1.68h2.31v-3.07Z" fill="#fff"/>
<rect x="33.79" y="450.6" width="251.6" height="52.41" fill="#999"/>
<rect x="31.7" y="450.6" width="62.41" height="52.41" fill="#1a1a1a"/>
<path d="M115.86,480.59h-7.15l-1.61,4.47h-2.32L111.3,468h2l6.52,17.06h-2.3Zm-6.47-1.84h5.8l-2.91-8Z" fill="#fff"/>
<path d="M123.8,472.38l.07,1.59a4.62,4.62,0,0,1,3.8-1.82q4,0,4,4.53v8.38h-2.16v-8.39a2.93,2.93,0,0,0-.63-2A2.51,2.51,0,0,0,127,474a3.09,3.09,0,0,0-1.85.56,3.86,3.86,0,0,0-1.24,1.47v9h-2.17V472.38Z" fill="#fff"/>
<path d="M142.82,485.06a4.88,4.88,0,0,1-.3-1.34,4.83,4.83,0,0,1-3.61,1.57,4.47,4.47,0,0,1-3.08-1.06,3.42,3.42,0,0,1-1.2-2.69,3.56,3.56,0,0,1,1.51-3.07,7.07,7.07,0,0,1,4.23-1.1h2.11v-1a2.39,2.39,0,0,0-.68-1.81,2.72,2.72,0,0,0-2-.68,3.2,3.2,0,0,0-2,.59,1.73,1.73,0,0,0-.78,1.42h-2.18a3,3,0,0,1,.67-1.84,4.57,4.57,0,0,1,1.83-1.4,6.23,6.23,0,0,1,2.54-.51,5,5,0,0,1,3.43,1.09,4,4,0,0,1,1.29,3v5.83a7.07,7.07,0,0,0,.45,2.78v.19Zm-3.6-1.65a3.85,3.85,0,0,0,1.94-.53,3.16,3.16,0,0,0,1.32-1.37v-2.6h-1.7c-2.65,0-4,.77-4,2.33a2,2,0,0,0,.68,1.59A2.56,2.56,0,0,0,139.22,483.41Z" fill="#fff"/>
<path d="m150.4 485.06h-2.16v-18h2.16z" fill="#fff"/>
<path d="M153.3,478.6a7.46,7.46,0,0,1,.73-3.35,5.51,5.51,0,0,1,2-2.3,5.63,5.63,0,0,1,3-.8,5.32,5.32,0,0,1,4.19,1.79,6.86,6.86,0,0,1,1.6,4.77v.15a7.46,7.46,0,0,1-.71,3.32,5.37,5.37,0,0,1-2,2.29,5.59,5.59,0,0,1-3,.82,5.31,5.31,0,0,1-4.18-1.79,6.85,6.85,0,0,1-1.6-4.75Zm2.18.26a5.38,5.38,0,0,0,1,3.39,3.32,3.32,0,0,0,5.24,0,5.91,5.91,0,0,0,1-3.63,5.41,5.41,0,0,0-1-3.38,3.3,3.3,0,0,0-5.22,0A6,6,0,0,0,155.48,478.86Z" fill="#fff"/>
<path d="M167,478.61a7.41,7.41,0,0,1,1.38-4.71,4.72,4.72,0,0,1,7.25-.11l.11-1.41h2v12.37a5.15,5.15,0,0,1-1.46,3.88,5.38,5.38,0,0,1-3.92,1.42,6.55,6.55,0,0,1-2.69-.58,4.63,4.63,0,0,1-2-1.61l1.12-1.3a4.24,4.24,0,0,0,3.41,1.72,3.3,3.3,0,0,0,2.47-.89,3.4,3.4,0,0,0,.89-2.51v-1.09a4.46,4.46,0,0,1-3.55,1.5,4.32,4.32,0,0,1-3.61-1.79A7.81,7.81,0,0,1,167,478.61Zm2.18.25a5.74,5.74,0,0,0,.88,3.37,2.85,2.85,0,0,0,2.46,1.22,3.18,3.18,0,0,0,3-1.86V475.8a3.22,3.22,0,0,0-3-1.81,2.87,2.87,0,0,0-2.47,1.23A6.13,6.13,0,0,0,169.22,478.86Z" fill="#fff"/>
<path d="M200.43,477.08a10.63,10.63,0,0,1-.84,4.38,6.43,6.43,0,0,1-2.39,2.85,6.61,6.61,0,0,1-9.61-2.83,10.1,10.1,0,0,1-.88-4.25V476a10.45,10.45,0,0,1,.85-4.35,6.73,6.73,0,0,1,9.62-2.9,6.4,6.4,0,0,1,2.41,2.87,10.7,10.7,0,0,1,.84,4.38Zm-2.24-1.1a7.59,7.59,0,0,0-1.22-4.66,4,4,0,0,0-3.41-1.62,4,4,0,0,0-3.35,1.62,7.44,7.44,0,0,0-1.26,4.51v1.25a7.68,7.68,0,0,0,1.23,4.62,4.34,4.34,0,0,0,6.78.1,7.59,7.59,0,0,0,1.23-4.56Z" fill="#fff"/>
<path d="m211.29 483.81a4.6 4.6 0 0 1-3.71 1.48 4 4 0 0 1-3.09-1.17 5.16 5.16 0 0 1-1.07-3.49v-8.25h2.17v8.19q0 2.88 2.34 2.88a3.24 3.24 0 0 0 3.31-1.85v-9.22h2.16v12.68h-2.06z" fill="#fff"/>
<path d="M219.64,469.31v3.07H222v1.68h-2.37v7.87a1.69,1.69,0,0,0,.32,1.14,1.3,1.3,0,0,0,1.07.38,4.73,4.73,0,0,0,1-.14v1.75a6.09,6.09,0,0,1-1.66.23,2.71,2.71,0,0,1-2.19-.87,3.8,3.8,0,0,1-.74-2.5v-7.86h-2.31v-1.68h2.31v-3.07Z" fill="#fff"/>
<path d="m235.25 478.86a7.53 7.53 0 0 1-1.33 4.66 4.23 4.23 0 0 1-3.58 1.77 4.62 4.62 0 0 1-3.63-1.46v6.1h-2.17v-17.55h2l0.1 1.41a4.46 4.46 0 0 1 3.68-1.64 4.32 4.32 0 0 1 3.62 1.72 7.71 7.71 0 0 1 1.33 4.79zm-2.17-0.25a5.58 5.58 0 0 0-0.91-3.38 3 3 0 0 0-2.51-1.24 3.18 3.18 0 0 0-2.95 1.74v6.06a3.17 3.17 0 0 0 3 1.73 2.93 2.93 0 0 0 2.48-1.23 6.16 6.16 0 0 0 0.89-3.68z" fill="#fff"/>
<path d="M245.83,483.81a4.6,4.6,0,0,1-3.71,1.48,3.94,3.94,0,0,1-3.09-1.17,5.06,5.06,0,0,1-1.07-3.49v-8.25h2.16v8.19c0,1.92.78,2.88,2.35,2.88a3.24,3.24,0,0,0,3.3-1.85v-9.22h2.17v12.68h-2.06Z" fill="#fff"/>
<path d="M254.17,469.31v3.07h2.37v1.68h-2.37v7.87a1.74,1.74,0,0,0,.32,1.14,1.31,1.31,0,0,0,1.08.38,4.81,4.81,0,0,0,1-.14v1.75a6.14,6.14,0,0,1-1.66.23,2.74,2.74,0,0,1-2.2-.87,3.8,3.8,0,0,1-.73-2.5v-7.86H249.7v-1.68H252v-3.07Z" fill="#fff"/>
<path d="M119.56,173.64a10.63,10.63,0,0,1-.84,4.38,6.38,6.38,0,0,1-2.39,2.85,6.59,6.59,0,0,1-9.61-2.83,10.1,10.1,0,0,1-.88-4.25v-1.23a10.37,10.37,0,0,1,.85-4.34,6.32,6.32,0,0,1,6-3.89,6.62,6.62,0,0,1,3.62,1,6.41,6.41,0,0,1,2.41,2.87,10.61,10.61,0,0,1,.84,4.37Zm-2.24-1.1a7.61,7.61,0,0,0-1.22-4.66,4,4,0,0,0-3.41-1.62,4,4,0,0,0-3.35,1.62,7.46,7.46,0,0,0-1.26,4.51v1.25a7.73,7.73,0,0,0,1.23,4.63,4.33,4.33,0,0,0,6.78.09,7.58,7.58,0,0,0,1.23-4.55Z" fill="#fff"/>
<path d="M125.19,174.94v6.68h-2.25V164.56h6.29a6.34,6.34,0,0,1,4.39,1.43,4.85,4.85,0,0,1,1.59,3.79,4.76,4.76,0,0,1-1.56,3.82,6.56,6.56,0,0,1-4.44,1.34Zm0-1.84h4a4,4,0,0,0,2.76-.85,3.1,3.1,0,0,0,1-2.46,3.23,3.23,0,0,0-1-2.44,3.77,3.77,0,0,0-2.63-.95h-4.17Z" fill="#fff"/>
<path d="M150.63,176.21a6.29,6.29,0,0,1-2,4.18,6.55,6.55,0,0,1-4.47,1.47,6,6,0,0,1-4.85-2.17,8.76,8.76,0,0,1-1.82-5.8v-1.64a9.71,9.71,0,0,1,.85-4.19,6.41,6.41,0,0,1,2.41-2.77,6.74,6.74,0,0,1,3.61-1,6.19,6.19,0,0,1,4.36,1.51,6.41,6.41,0,0,1,1.91,4.2h-2.26a4.89,4.89,0,0,0-1.28-3,3.83,3.83,0,0,0-2.73-.91,4,4,0,0,0-3.38,1.59,7.3,7.3,0,0,0-1.23,4.54V174a7.58,7.58,0,0,0,1.16,4.43,3.77,3.77,0,0,0,3.25,1.64,4.38,4.38,0,0,0,2.88-.85,4.77,4.77,0,0,0,1.33-3Z" fill="#fff"/>
<path d="m157.87 175.26h-5.72v-1.77h5.72z" fill="#fff"/>
<path d="m172.33 164.56v11.6a5.42 5.42 0 0 1-1.52 4 6.09 6.09 0 0 1-4.08 1.72h-0.6a6.41 6.41 0 0 1-4.46-1.51 5.4 5.4 0 0 1-1.69-4.16v-11.65h2.23v11.56a3.55 3.55 0 0 0 3.92 3.9 3.93 3.93 0 0 0 2.92-1 3.89 3.89 0 0 0 1-2.87v-11.59z" fill="#fff"/>
<path d="M185,177.16H177.9l-1.61,4.46H174l6.52-17.06h2L189,181.62h-2.31Zm-6.46-1.84h5.8l-2.91-8Z" fill="#fff"/>
<rect x="33.79" y="204.81" width="251.6" height="52.41" fill="#999"/>
<rect x="31.7" y="204.81" width="62.41" height="52.41" fill="#1a1a1a"/>
<path d="M109.34,222.21l5.58,13.92,5.58-13.92h2.92v17.06h-2.25v-6.64l.21-7.17-5.6,13.81h-1.73l-5.59-13.78.23,7.14v6.64h-2.25V222.21Z" fill="#fff"/>
<path d="M126.47,232.81a7.49,7.49,0,0,1,.74-3.35,5.4,5.4,0,0,1,5-3.1,5.36,5.36,0,0,1,4.19,1.79,7,7,0,0,1,1.6,4.77v.15a7.56,7.56,0,0,1-.71,3.32,5.35,5.35,0,0,1-2,2.3,5.68,5.68,0,0,1-3,.82,5.33,5.33,0,0,1-4.18-1.8,6.87,6.87,0,0,1-1.6-4.74Zm2.18.26a5.44,5.44,0,0,0,1,3.39,3.32,3.32,0,0,0,5.25,0,5.91,5.91,0,0,0,1-3.63,5.43,5.43,0,0,0-1-3.38,3.16,3.16,0,0,0-2.63-1.29,3.09,3.09,0,0,0-2.59,1.28A5.85,5.85,0,0,0,128.65,233.07Z" fill="#fff"/>
<path d="M140.21,232.83a7.46,7.46,0,0,1,1.38-4.7,4.71,4.71,0,0,1,7.15-.25v-6.61h2.17v18h-2l-.11-1.36a4.42,4.42,0,0,1-3.62,1.6,4.33,4.33,0,0,1-3.59-1.81,7.47,7.47,0,0,1-1.39-4.71Zm2.17.24a5.61,5.61,0,0,0,.89,3.38,2.88,2.88,0,0,0,2.46,1.22,3.16,3.16,0,0,0,3-1.86V230a3.17,3.17,0,0,0-3-1.79,2.88,2.88,0,0,0-2.48,1.23A6.13,6.13,0,0,0,142.38,233.07Z" fill="#fff"/>
<path d="m165 233.07a7.53 7.53 0 0 1-1.34 4.67 4.27 4.27 0 0 1-3.59 1.77 4.41 4.41 0 0 1-3.71-1.7l-0.11 1.46h-2v-18h2.17v6.73a4.37 4.37 0 0 1 3.62-1.63 4.31 4.31 0 0 1 3.63 1.74 7.77 7.77 0 0 1 1.32 4.78zm-2.17-0.24a5.89 5.89 0 0 0-0.86-3.43 2.84 2.84 0 0 0-2.46-1.2 3.17 3.17 0 0 0-3.08 2v5.48a3.27 3.27 0 0 0 3.1 2 2.84 2.84 0 0 0 2.43-1.21 6.23 6.23 0 0 0 0.88-3.64z" fill="#fff"/>
<path d="M175.56,238a4.6,4.6,0,0,1-3.71,1.49,4,4,0,0,1-3.09-1.18,5.11,5.11,0,0,1-1.07-3.49v-8.25h2.17v8.19c0,1.93.78,2.89,2.34,2.89a3.25,3.25,0,0,0,3.31-1.86v-9.22h2.16v12.68h-2.06Z" fill="#fff"/>
<path d="M188.35,235.91a1.61,1.61,0,0,0-.66-1.37,6.37,6.37,0,0,0-2.31-.83,10.92,10.92,0,0,1-2.61-.85,3.66,3.66,0,0,1-1.43-1.17,2.79,2.79,0,0,1-.47-1.62,3.26,3.26,0,0,1,1.32-2.63,5.14,5.14,0,0,1,3.37-1.08,5.32,5.32,0,0,1,3.5,1.11,3.54,3.54,0,0,1,1.34,2.85h-2.18a1.94,1.94,0,0,0-.76-1.54,2.8,2.8,0,0,0-1.9-.64,3,3,0,0,0-1.85.51A1.63,1.63,0,0,0,183,230a1.33,1.33,0,0,0,.62,1.19,7.79,7.79,0,0,0,2.25.76,11.91,11.91,0,0,1,2.63.86A3.79,3.79,0,0,1,190,234a2.94,2.94,0,0,1,.49,1.73,3.25,3.25,0,0,1-1.36,2.72,5.73,5.73,0,0,1-3.53,1,6.36,6.36,0,0,1-2.69-.54,4.31,4.31,0,0,1-1.84-1.51,3.62,3.62,0,0,1-.66-2.09h2.17a2.26,2.26,0,0,0,.87,1.73,3.42,3.42,0,0,0,2.15.64,3.54,3.54,0,0,0,2-.5A1.54,1.54,0,0,0,188.35,235.91Z" fill="#fff"/>
<rect x="41.78" y="218.73" width="20.23" height="24.57" fill="none" stroke="#fff" stroke-miterlimit="10"/>
<polygon points="58.4 235.35 55.51 235.35 55.51 238.24 48.28 238.24 48.28 235.35 45.39 235.35 45.39 226.68 58.4 226.68" fill="none" stroke="#fff" stroke-miterlimit="10"/>
<polygon points="84.41 235.35 81.52 235.35 81.52 238.24 74.29 238.24 74.29 235.35 71.4 235.35 71.4 226.68 84.41 226.68" fill="none" stroke="#fff" stroke-miterlimit="10"/>
<rect x="67.79" y="218.73" width="20.23" height="24.57" fill="none" stroke="#fff" stroke-miterlimit="10"/>
<path d="m1372.5 854h-9.85v-41h9.85z" fill="#fff"/>
<path d="M1410.77,820.67h-12.3V854h-9.88V820.67h-12.08V813h34.26Z" fill="#fff"/>
<path d="M75.32,425.1s-.15-12.18-.15-13.8a10.56,10.56,0,1,0-21.11,0v13.8" fill="none" stroke="#fff" stroke-miterlimit="10"/>
<line x1="53.17" x2="74.89" y1="433.57" y2="433.57" fill="none" stroke="#fff" stroke-miterlimit="10"/>
<polygon points="73.72 437.56 80.63 433.57 73.72 429.58" fill="#fff"/>
<path d="M76.63,482.3s-.15-12.18-.15-13.8a10.56,10.56,0,1,0-21.11,0v13.8" fill="none" stroke="#fff" stroke-miterlimit="10"/>
<line x1="76.62" x2="54.91" y1="491.66" y2="491.66" fill="none" stroke="#fff" stroke-miterlimit="10"/>
<polygon points="56.07 487.67 49.17 491.66 56.07 495.65" fill="#fff"/>
<line x1="53.06" x2="74.77" y1="319.38" y2="319.38" fill="none" stroke="#fff" stroke-miterlimit="10"/>
<polygon points="73.61 323.37 80.52 319.38 73.61 315.39" fill="#fff"/>
<line x1="69.89" x2="69.89" y1="284.34" y2="310.91" fill="none" stroke="#fff" stroke-miterlimit="10"/>
<line x1="61.03" x2="61.03" y1="284.34" y2="310.91" fill="none" stroke="#fff" stroke-miterlimit="10"/>
<line x1="51.28" x2="78.74" y1="291.42" y2="291.42" fill="none" stroke="#fff" stroke-miterlimit="10"/>
<line x1="51.28" x2="78.74" y1="300.28" y2="300.28" fill="none" stroke="#fff" stroke-miterlimit="10"/>
<line x1="74.62" x2="52.9" y1="377.47" y2="377.47" fill="none" stroke="#fff" stroke-miterlimit="10"/>
<polygon points="54.07 373.48 47.16 377.47 54.07 381.46" fill="#fff"/>
<line x1="69.31" x2="69.31" y1="341.54" y2="368.12" fill="none" stroke="#fff" stroke-miterlimit="10"/>
<line x1="60.45" x2="60.45" y1="341.54" y2="368.12" fill="none" stroke="#fff" stroke-miterlimit="10"/>
<line x1="50.71" x2="78.16" y1="348.63" y2="348.63" fill="none" stroke="#fff" stroke-miterlimit="10"/>
<line x1="50.71" x2="78.16" y1="357.49" y2="357.49" fill="none" stroke="#fff" stroke-miterlimit="10"/>
<rect x="251.53" y="846.34" width="13.95" height="10.96" fill="#fff"/>
<line x1="276.77" x2="282.91" y1="808.31" y2="808.31" fill="none" stroke="#000" stroke-miterlimit="10"/>
<path d="M275.91,829.77l-7,5.71V821.74a.84.84,0,0,0-.83-.84.86.86,0,0,0-.54.18l-17.6,14.4V821.73a.84.84,0,0,0-.82-.85.8.8,0,0,0-.55.19L229.5,836.59a.83.83,0,0,0-.3.66v19.6a.84.84,0,0,0,.84.84h57a.84.84,0,0,0,.83-.84V821.73a.82.82,0,0,0-.82-.83.81.81,0,0,0-.52.19l-2.85,2.31Zm7.79-6.37-.7-14.65h0l-.25-5.4a.84.84,0,0,0-.84-.79H278a.82.82,0,0,0-.84.79l-1.26,26.41m-22.78,28v-9h10.81v9" fill="url(#a)" stroke="#000" stroke-miterlimit="10"/>
<rect x="1180.3" y="134.23" width="85" height="104.38" fill="gray"/>
<rect x="354.96" y="16.36" width="298.04" height="100" fill="#999"/>
<rect x="350.39" y="16.36" width="85" height="100" fill="#1a1a1a"/>
<path d="M479.12,75.84a9.07,9.07,0,0,1-4,2.64,16.83,16.83,0,0,1-5.77.94A11.41,11.41,0,0,1,463.5,78a9.57,9.57,0,0,1-3.86-4.21,14.73,14.73,0,0,1-1.4-6.48V65.54a15.76,15.76,0,0,1,1.29-6.64,9.51,9.51,0,0,1,3.73-4.29,12.28,12.28,0,0,1,12.82.69,9.25,9.25,0,0,1,3,6.32H474a5.09,5.09,0,0,0-1.56-3.22,5,5,0,0,0-3.31-1,4.71,4.71,0,0,0-4.1,2,10.69,10.69,0,0,0-1.42,6v1.63q0,4,1.53,6.08a5.24,5.24,0,0,0,4.48,2.06c2,0,3.39-.42,4.24-1.27V69.51h-4.8V65.63h10.07Z" fill="#fff"/>
<path d="M494.08,79.07a5.8,5.8,0,0,1-.51-1.7,6.15,6.15,0,0,1-4.8,2,6.75,6.75,0,0,1-4.63-1.61,5.23,5.23,0,0,1-1.84-4.08,5.38,5.38,0,0,1,2.24-4.64A11.14,11.14,0,0,1,491,67.45h2.34V66.36a3.16,3.16,0,0,0-.68-2.11,2.68,2.68,0,0,0-2.13-.79,3,3,0,0,0-2,.62,2.08,2.08,0,0,0-.73,1.69h-5.08a5.11,5.11,0,0,1,1-3.06,6.73,6.73,0,0,1,2.88-2.21,10.53,10.53,0,0,1,4.18-.8,8.26,8.26,0,0,1,5.58,1.77,6.17,6.17,0,0,1,2.07,5v8.25a9.08,9.08,0,0,0,.75,4.09v.3Zm-4.2-3.53A4.4,4.4,0,0,0,492,75a3.18,3.18,0,0,0,1.41-1.35V70.42h-1.9q-3.81,0-4.06,2.64l0,.3a2,2,0,0,0,.67,1.56A2.62,2.62,0,0,0,489.88,75.54Z" fill="#fff"/>
<path d="M508.44,55.38v4.67h3.25v3.73h-3.25v9.49a2.24,2.24,0,0,0,.41,1.51,2,2,0,0,0,1.54.46,8.36,8.36,0,0,0,1.5-.12V79a10.63,10.63,0,0,1-3.08.45c-3.56,0-5.38-1.79-5.45-5.39V63.78h-2.78V60.05h2.78V55.38Z" fill="#fff"/>
<path d="M523.28,79.42a9.33,9.33,0,0,1-6.81-2.56A9.09,9.09,0,0,1,513.84,70v-.49A11.51,11.51,0,0,1,515,64.4a8.14,8.14,0,0,1,3.13-3.48,8.88,8.88,0,0,1,4.64-1.22,7.88,7.88,0,0,1,6.14,2.46q2.24,2.46,2.24,7v2.08H519a4.71,4.71,0,0,0,1.48,3,4.52,4.52,0,0,0,3.14,1.13,5.48,5.48,0,0,0,4.59-2.13l2.5,2.8a7.66,7.66,0,0,1-3.1,2.52A10.19,10.19,0,0,1,523.28,79.42ZM522.7,63.8a3.16,3.16,0,0,0-2.45,1A5.31,5.31,0,0,0,519,67.75h7.07v-.4a3.82,3.82,0,0,0-.92-2.63A3.28,3.28,0,0,0,522.7,63.8Z" fill="#fff"/>
<path d="M550.52,72.17,553,60.05h4.9l-4.85,19h-4.25l-3.6-12-3.61,12h-4.23l-4.86-19h4.91l2.48,12.1,3.48-12.1h3.67Z" fill="#fff"/>
<path d="M571.46,79.07a5.8,5.8,0,0,1-.51-1.7,6.15,6.15,0,0,1-4.8,2,6.73,6.73,0,0,1-4.63-1.61,5.19,5.19,0,0,1-1.84-4.08,5.38,5.38,0,0,1,2.24-4.64,11.14,11.14,0,0,1,6.48-1.64h2.34V66.36a3.16,3.16,0,0,0-.68-2.11,2.68,2.68,0,0,0-2.13-.79,3,3,0,0,0-2,.62,2.11,2.11,0,0,0-.73,1.69H560.1a5.11,5.11,0,0,1,1-3.06A6.76,6.76,0,0,1,564,60.5a10.53,10.53,0,0,1,4.18-.8,8.3,8.3,0,0,1,5.58,1.77,6.17,6.17,0,0,1,2.07,5v8.25a9.08,9.08,0,0,0,.75,4.09v.3Zm-4.2-3.53a4.4,4.4,0,0,0,2.07-.5,3.24,3.24,0,0,0,1.41-1.35V70.42h-1.9c-2.54,0-3.9.88-4.06,2.64l0,.3a2,2,0,0,0,.67,1.56A2.62,2.62,0,0,0,567.26,75.54Z" fill="#fff"/>
<path d="M586.58,71.88l3.51-11.83h5.45L587.9,82l-.43,1a5.79,5.79,0,0,1-5.62,3.72,8.06,8.06,0,0,1-2.25-.33V82.57l.77,0a4.25,4.25,0,0,0,2.16-.44,2.89,2.89,0,0,0,1.11-1.46l.6-1.56-6.66-19.08H583Z" fill="#fff"/>
<rect x="363.59" y="71.24" width="58.6" height="22.74" rx="3.23" fill="none" stroke="#fff" stroke-miterlimit="10"/>
<circle cx="373.24" cy="83.01" r="2.07" fill="#fff"/>
<circle cx="380.48" cy="83.01" r="2.07" fill="#fff"/>
<circle cx="387.72" cy="83.01" r="2.07" fill="#fff"/>
<line x1="397.04" x2="412.89" y1="82.27" y2="82.27" fill="none" stroke="#fff" stroke-miterlimit="10"/>
<path d="M411.58,49.3a28.27,28.27,0,0,0-35.38.08" fill="none" stroke="#fff" stroke-linecap="round" stroke-miterlimit="10"/>
<path d="m405.3 56.49a18.2 18.2 0 0 0-22.78 0" fill="none" stroke="#fff" stroke-linecap="round" stroke-miterlimit="10"/>
<path d="m389.08 64a7.74 7.74 0 0 1 9.69 0" fill="none" stroke="#fff" stroke-linecap="round" stroke-miterlimit="10"/>
<rect x="354.96" y="141.52" width="298.04" height="104.38" fill="#999"/>
<rect x="350.39" y="141.52" width="85" height="104.38" fill="#1a1a1a"/>
<path d="M479.12,201a9.15,9.15,0,0,1-4,2.64,16.83,16.83,0,0,1-5.77.94,11.41,11.41,0,0,1-5.83-1.45,9.57,9.57,0,0,1-3.86-4.21,14.73,14.73,0,0,1-1.4-6.48V190.7a15.76,15.76,0,0,1,1.29-6.64,9.51,9.51,0,0,1,3.73-4.29,12.28,12.28,0,0,1,12.82.69,9.23,9.23,0,0,1,3,6.32H474a5.09,5.09,0,0,0-1.56-3.22,5,5,0,0,0-3.31-1,4.68,4.68,0,0,0-4.1,2,10.68,10.68,0,0,0-1.42,6v1.64q0,4,1.53,6.08a5.24,5.24,0,0,0,4.48,2.06c2,0,3.39-.43,4.24-1.27v-4.41h-4.8v-3.89h10.07Z" fill="#fff"/>
<path d="M494.08,204.23a5.89,5.89,0,0,1-.51-1.7,6.15,6.15,0,0,1-4.8,2.05,6.8,6.8,0,0,1-4.63-1.61,5.23,5.23,0,0,1-1.84-4.08,5.38,5.38,0,0,1,2.24-4.64,11.06,11.06,0,0,1,6.48-1.64h2.34v-1.09a3.15,3.15,0,0,0-.68-2.11,2.68,2.68,0,0,0-2.13-.79,3,3,0,0,0-2,.62,2.07,2.07,0,0,0-.73,1.68h-5.08a5.06,5.06,0,0,1,1-3,6.65,6.65,0,0,1,2.88-2.21,10.53,10.53,0,0,1,4.18-.8,8.26,8.26,0,0,1,5.58,1.77,6.15,6.15,0,0,1,2.07,5v8.25a9.08,9.08,0,0,0,.75,4.09v.3Zm-4.2-3.53a4.4,4.4,0,0,0,2.07-.5,3.24,3.24,0,0,0,1.41-1.35v-3.27h-1.9q-3.81,0-4.06,2.64l0,.3a2,2,0,0,0,.67,1.56A2.62,2.62,0,0,0,489.88,200.7Z" fill="#fff"/>
<path d="M508.44,180.54v4.67h3.25v3.73h-3.25v9.49a2.25,2.25,0,0,0,.41,1.51,2,2,0,0,0,1.54.46,8.36,8.36,0,0,0,1.5-.12v3.85a10.63,10.63,0,0,1-3.08.45q-5.34,0-5.45-5.39V188.94h-2.78v-3.73h2.78v-4.67Z" fill="#fff"/>
<path d="M523.28,204.58a9.33,9.33,0,0,1-6.81-2.56,9.09,9.09,0,0,1-2.63-6.84v-.49a11.51,11.51,0,0,1,1.11-5.13,8.14,8.14,0,0,1,3.13-3.48,8.88,8.88,0,0,1,4.64-1.22,7.88,7.88,0,0,1,6.14,2.46q2.24,2.46,2.24,7v2.07H519a4.71,4.71,0,0,0,1.48,3,4.52,4.52,0,0,0,3.14,1.13,5.48,5.48,0,0,0,4.59-2.13l2.5,2.8a7.82,7.82,0,0,1-3.1,2.52A10.19,10.19,0,0,1,523.28,204.58ZM522.7,189a3.16,3.16,0,0,0-2.45,1,5.31,5.31,0,0,0-1.21,2.93h7.07v-.41a3.81,3.81,0,0,0-.92-2.62A3.28,3.28,0,0,0,522.7,189Z" fill="#fff"/>
<path d="m550.52 197.32 2.5-12.11h4.9l-4.85 19h-4.25l-3.6-12-3.61 12h-4.23l-4.86-19h4.91l2.48 12.1 3.48-12.1h3.67z" fill="#fff"/>
<path d="M571.46,204.23a5.89,5.89,0,0,1-.51-1.7,6.15,6.15,0,0,1-4.8,2.05,6.78,6.78,0,0,1-4.63-1.61,5.19,5.19,0,0,1-1.84-4.08,5.38,5.38,0,0,1,2.24-4.64,11.06,11.06,0,0,1,6.48-1.64h2.34v-1.09a3.15,3.15,0,0,0-.68-2.11,2.68,2.68,0,0,0-2.13-.79,3,3,0,0,0-2,.62,2.1,2.1,0,0,0-.73,1.68H560.1a5.06,5.06,0,0,1,1-3,6.68,6.68,0,0,1,2.89-2.21,10.53,10.53,0,0,1,4.18-.8,8.3,8.3,0,0,1,5.58,1.77,6.15,6.15,0,0,1,2.07,5v8.25a9.08,9.08,0,0,0,.75,4.09v.3Zm-4.2-3.53a4.4,4.4,0,0,0,2.07-.5,3.29,3.29,0,0,0,1.41-1.35v-3.27h-1.9c-2.54,0-3.9.88-4.06,2.64l0,.3a2,2,0,0,0,.67,1.56A2.62,2.62,0,0,0,567.26,200.7Z" fill="#fff"/>
<path d="M586.58,197l3.51-11.83h5.45l-7.64,22-.43,1a5.79,5.79,0,0,1-5.62,3.72,8.06,8.06,0,0,1-2.25-.33v-3.85l.77,0a4.25,4.25,0,0,0,2.16-.44,2.94,2.94,0,0,0,1.11-1.46l.6-1.57-6.66-19.07H583Z" fill="#fff"/>
<rect x="363.59" y="197.69" width="58.6" height="22.74" rx="3.23" fill="none" stroke="#fff" stroke-miterlimit="10"/>
<circle cx="373.24" cy="209.46" r="2.07" fill="#fff"/>
<circle cx="380.48" cy="209.46" r="2.07" fill="#fff"/>
<circle cx="387.72" cy="209.46" r="2.07" fill="#fff"/>
<line x1="397.04" x2="412.89" y1="208.72" y2="208.72" fill="none" stroke="#fff" stroke-miterlimit="10"/>
<path d="M411.58,175.75a28.27,28.27,0,0,0-35.38.08" fill="none" stroke="#fff" stroke-linecap="round" stroke-miterlimit="10"/>
<path d="M405.3,182.94a18.2,18.2,0,0,0-22.78.05" fill="none" stroke="#fff" stroke-linecap="round" stroke-miterlimit="10"/>
<path d="m389.08 190.45a7.75 7.75 0 0 1 9.69 0" fill="none" stroke="#fff" stroke-linecap="round" stroke-miterlimit="10"/>
<rect x="350.39" y="268.87" width="85" height="104.38" fill="#1a1a1a"/>
<path d="M479.12,328.34a9.17,9.17,0,0,1-4,2.65,16.83,16.83,0,0,1-5.77.94,11.41,11.41,0,0,1-5.83-1.45,9.63,9.63,0,0,1-3.86-4.21,14.74,14.74,0,0,1-1.4-6.49V318a15.75,15.75,0,0,1,1.29-6.63,9.51,9.51,0,0,1,3.73-4.29,12.25,12.25,0,0,1,12.82.68,9.27,9.27,0,0,1,3,6.32H474a5.09,5.09,0,0,0-1.56-3.21,5,5,0,0,0-3.31-1,4.68,4.68,0,0,0-4.1,2,10.68,10.68,0,0,0-1.42,6v1.64q0,4,1.53,6.08a5.23,5.23,0,0,0,4.48,2.05c2,0,3.39-.42,4.24-1.26V322h-4.8v-3.89h10.07Z" fill="#fff"/>
<path d="M494.08,331.58a6,6,0,0,1-.51-1.71,6.12,6.12,0,0,1-4.8,2.06,6.76,6.76,0,0,1-4.63-1.62,5.19,5.19,0,0,1-1.84-4.07,5.4,5.4,0,0,1,2.24-4.65A11.14,11.14,0,0,1,491,320h2.34v-1.09a3.15,3.15,0,0,0-.68-2.11,2.64,2.64,0,0,0-2.13-.79,3,3,0,0,0-2,.61,2.1,2.1,0,0,0-.73,1.69h-5.08a5.11,5.11,0,0,1,1-3.06,6.71,6.71,0,0,1,2.88-2.2,10.35,10.35,0,0,1,4.18-.8,8.31,8.31,0,0,1,5.58,1.76,6.19,6.19,0,0,1,2.07,5v8.24a9.13,9.13,0,0,0,.75,4.1v.3Zm-4.2-3.53a4.29,4.29,0,0,0,2.07-.51,3.22,3.22,0,0,0,1.41-1.34v-3.27h-1.9q-3.81,0-4.06,2.64l0,.3a2,2,0,0,0,.67,1.56A2.62,2.62,0,0,0,489.88,328.05Z" fill="#fff"/>
<path d="M508.44,307.88v4.68h3.25v3.73h-3.25v9.49a2.25,2.25,0,0,0,.41,1.51,2,2,0,0,0,1.54.46,7.48,7.48,0,0,0,1.5-.13v3.85a10.31,10.31,0,0,1-3.08.46q-5.34,0-5.45-5.4V316.29h-2.78v-3.73h2.78v-4.68Z" fill="#fff"/>
<path d="m523.28 331.93a9.29 9.29 0 0 1-6.81-2.57 9.09 9.09 0 0 1-2.63-6.83v-0.53a11.46 11.46 0 0 1 1.11-5.12 8 8 0 0 1 3.13-3.48 8.88 8.88 0 0 1 4.64-1.22 7.88 7.88 0 0 1 6.14 2.46q2.24 2.46 2.24 7v2.07h-12.1a4.73 4.73 0 0 0 1.48 3 4.51 4.51 0 0 0 3.14 1.12 5.47 5.47 0 0 0 4.59-2.12l2.5 2.79a7.76 7.76 0 0 1-3.1 2.53 10.19 10.19 0 0 1-4.33 0.9zm-0.58-15.63a3.17 3.17 0 0 0-2.45 1 5.31 5.31 0 0 0-1.21 2.93h7.07v-0.41a3.79 3.79 0 0 0-0.92-2.62 3.24 3.24 0 0 0-2.49-0.9z" fill="#fff"/>
<path d="m550.52 324.67 2.5-12.11h4.9l-4.85 19h-4.25l-3.6-12-3.61 12h-4.23l-4.86-19h4.91l2.48 12.09 3.48-12.09h3.67z" fill="#fff"/>
<path d="M571.46,331.58a6,6,0,0,1-.51-1.71,6.12,6.12,0,0,1-4.8,2.06,6.74,6.74,0,0,1-4.63-1.62,5.16,5.16,0,0,1-1.84-4.07,5.4,5.4,0,0,1,2.24-4.65A11.14,11.14,0,0,1,568.4,320h2.34v-1.09a3.15,3.15,0,0,0-.68-2.11,2.64,2.64,0,0,0-2.13-.79,3,3,0,0,0-2,.61,2.14,2.14,0,0,0-.73,1.69H560.1a5.11,5.11,0,0,1,1-3.06A6.74,6.74,0,0,1,564,313a10.35,10.35,0,0,1,4.18-.8,8.35,8.35,0,0,1,5.58,1.76,6.19,6.19,0,0,1,2.07,5v8.24a9.13,9.13,0,0,0,.75,4.1v.3Zm-4.2-3.53a4.29,4.29,0,0,0,2.07-.51,3.27,3.27,0,0,0,1.41-1.34v-3.27h-1.9c-2.54,0-3.9.88-4.06,2.64l0,.3a2,2,0,0,0,.67,1.56A2.62,2.62,0,0,0,567.26,328.05Z" fill="#fff"/>
<path d="M586.58,324.39l3.51-11.83h5.45l-7.64,22-.43,1a5.78,5.78,0,0,1-5.62,3.73,8.06,8.06,0,0,1-2.25-.33v-3.85h.77a4.26,4.26,0,0,0,2.16-.43,2.94,2.94,0,0,0,1.11-1.46l.6-1.57-6.66-19.07H583Z" fill="#fff"/>
<rect x="363.59" y="323.75" width="58.6" height="22.74" rx="3.23" fill="none" stroke="#fff" stroke-miterlimit="10"/>
<circle cx="373.24" cy="335.52" r="2.07" fill="#fff"/>
<circle cx="380.48" cy="335.52" r="2.07" fill="#fff"/>
<circle cx="387.72" cy="335.52" r="2.07" fill="#fff"/>
<line x1="397.04" x2="412.89" y1="334.78" y2="334.78" fill="none" stroke="#fff" stroke-miterlimit="10"/>
<path d="M411.58,301.81a28.28,28.28,0,0,0-35.38.07" fill="none" stroke="#fff" stroke-linecap="round" stroke-miterlimit="10"/>
<path d="M405.3,309a18.2,18.2,0,0,0-22.78.05" fill="none" stroke="#fff" stroke-linecap="round" stroke-miterlimit="10"/>
<path d="m389.08 316.51a7.75 7.75 0 0 1 9.69 0" fill="none" stroke="#fff" stroke-linecap="round" stroke-miterlimit="10"/>
<rect x="354.96" y="396.22" width="298.04" height="104.38" fill="#dedede"/>
<rect x="350.39" y="396.22" width="85" height="104.38" fill="gray"/>
<path d="m463.1 449.91v9h-5.28v-25.6h10a11.6 11.6 0 0 1 5.07 1.06 7.8 7.8 0 0 1 3.37 3 8.43 8.43 0 0 1 1.17 4.43 7.37 7.37 0 0 1-2.57 5.93 10.71 10.71 0 0 1-7.13 2.17zm0-4.27h4.71a4.62 4.62 0 0 0 3.19-1 3.57 3.57 0 0 0 1.1-2.81 4.21 4.21 0 0 0-1.11-3 4.14 4.14 0 0 0-3.06-1.19h-4.83z"/>
<path d="M486.32,454.69h11.2v4.24H481v-25.6h5.28Z"/>
<path d="M519.51,450.4a9.09,9.09,0,0,1-3,6.51,10.76,10.76,0,0,1-7.26,2.37,9.63,9.63,0,0,1-7.74-3.32c-1.88-2.2-2.82-5.24-2.82-9.09V445.3a15.3,15.3,0,0,1,1.3-6.5,9.86,9.86,0,0,1,3.72-4.32,11.61,11.61,0,0,1,12.75.88,9.7,9.7,0,0,1,3.13,6.66h-5.27a5.39,5.39,0,0,0-1.38-3.6,5.14,5.14,0,0,0-3.62-1.11,4.47,4.47,0,0,0-3.94,1.89q-1.31,1.89-1.35,5.86V447q0,4.15,1.26,6.07a4.41,4.41,0,0,0,4,1.91,5.23,5.23,0,0,0,3.65-1.11,5.09,5.09,0,0,0,1.38-3.46Z"/>
<path d="m421.94 420.86h-58.1a1.87 1.87 0 0 0-1.87 1.87v37.48a1.88 1.88 0 0 0 1.87 1.88h58.1a1.89 1.89 0 0 0 1.88-1.88v-37.48a1.88 1.88 0 0 0-1.88-1.87z" fill="none" stroke="#fff" stroke-miterlimit="10"/>
<path d="m365.72 474.31a1.66 1.66 0 0 0 1.65 1.65h51.13a1.66 1.66 0 0 0 1.65-1.65v-12.22h-54.43z" fill="none" stroke="#fff" stroke-miterlimit="10"/>
<rect x="369.17" y="427.79" width="23.99" height="17.24" fill="none" stroke="#fff" stroke-miterlimit="10"/>
<rect x="369.17" y="451.03" width="9.37" height="5.25" fill="none" stroke="#fff" stroke-miterlimit="10"/>
<rect x="383.79" y="451.03" width="9.37" height="5.25" fill="none" stroke="#fff" stroke-miterlimit="10"/>
<circle cx="408.34" cy="436.6" r="8.81" fill="none" stroke="#fff" stroke-miterlimit="10"/>
<circle cx="402.81" cy="469.77" r="3" fill="none" stroke="#fff" stroke-miterlimit="10"/>
<line x1="402.81" x2="402.81" y1="461.9" y2="467.52" fill="none" stroke="#fff" stroke-miterlimit="10"/>
<circle cx="392.6" cy="469.77" r="3" fill="none" stroke="#fff" stroke-miterlimit="10"/>
<line x1="392.6" x2="392.6" y1="461.9" y2="467.52" fill="none" stroke="#fff" stroke-miterlimit="10"/>
<circle cx="382.38" cy="469.77" r="3" fill="none" stroke="#fff" stroke-miterlimit="10"/>
<line x1="382.38" x2="382.38" y1="461.9" y2="467.52" fill="none" stroke="#fff" stroke-miterlimit="10"/>
<circle cx="372.17" cy="469.77" r="3" fill="none" stroke="#fff" stroke-miterlimit="10"/>
<line x1="372.17" x2="372.17" y1="461.9" y2="467.52" fill="none" stroke="#fff" stroke-miterlimit="10"/>
<circle cx="413.03" cy="469.77" r="3" fill="none" stroke="#fff" stroke-miterlimit="10"/>
<line x1="413.03" x2="413.03" y1="461.9" y2="467.52" fill="none" stroke="#fff" stroke-miterlimit="10"/>
<rect x="354.96" y="523.57" width="298.04" height="104.38" fill="#dedede"/>
<rect x="350.39" y="523.57" width="85" height="104.38" fill="gray"/>
<path d="m463.1 577.26v9h-5.28v-25.6h10a11.46 11.46 0 0 1 5.07 1.06 7.8 7.8 0 0 1 3.37 3 8.41 8.41 0 0 1 1.17 4.42 7.38 7.38 0 0 1-2.57 5.94 10.77 10.77 0 0 1-7.13 2.17zm0-4.27h4.71a4.62 4.62 0 0 0 3.19-1 3.57 3.57 0 0 0 1.1-2.81 4 4 0 0 0-4.17-4.24h-4.83z"/>
<path d="M486.32,582h11.2v4.24H481v-25.6h5.28Z"/>
<path d="M519.51,577.75a9.07,9.07,0,0,1-3,6.5,10.71,10.71,0,0,1-7.26,2.38,9.63,9.63,0,0,1-7.74-3.32q-2.82-3.31-2.82-9.09v-1.57a15.27,15.27,0,0,1,1.3-6.5,9.75,9.75,0,0,1,3.72-4.32,11.63,11.63,0,0,1,12.75.87,9.74,9.74,0,0,1,3.13,6.67h-5.27a5.35,5.35,0,0,0-1.38-3.6,5.14,5.14,0,0,0-3.62-1.12,4.47,4.47,0,0,0-3.94,1.89q-1.31,1.89-1.35,5.87v1.93q0,4.15,1.26,6.06a4.4,4.4,0,0,0,4,1.92,5.18,5.18,0,0,0,3.65-1.12,5,5,0,0,0,1.38-3.45Z"/>
<path d="m421.94 548.21h-58.1a1.87 1.87 0 0 0-1.87 1.87v37.48a1.88 1.88 0 0 0 1.87 1.88h58.1a1.89 1.89 0 0 0 1.88-1.88v-37.48a1.88 1.88 0 0 0-1.88-1.87z" fill="none" stroke="#fff" stroke-miterlimit="10"/>
<path d="m365.72 601.65a1.65 1.65 0 0 0 1.65 1.65h51.13a1.65 1.65 0 0 0 1.65-1.65v-12.21h-54.43z" fill="none" stroke="#fff" stroke-miterlimit="10"/>
<rect x="369.17" y="555.14" width="23.99" height="17.24" fill="none" stroke="#fff" stroke-miterlimit="10"/>
<rect x="369.17" y="578.38" width="9.37" height="5.25" fill="none" stroke="#fff" stroke-miterlimit="10"/>
<rect x="383.79" y="578.38" width="9.37" height="5.25" fill="none" stroke="#fff" stroke-miterlimit="10"/>
<circle cx="408.34" cy="563.95" r="8.81" fill="none" stroke="#fff" stroke-miterlimit="10"/>
<circle cx="402.81" cy="597.12" r="3" fill="none" stroke="#fff" stroke-miterlimit="10"/>
<line x1="402.81" x2="402.81" y1="589.25" y2="594.87" fill="none" stroke="#fff" stroke-miterlimit="10"/>
<circle cx="392.6" cy="597.12" r="3" fill="none" stroke="#fff" stroke-miterlimit="10"/>
<line x1="392.6" x2="392.6" y1="589.25" y2="594.87" fill="none" stroke="#fff" stroke-miterlimit="10"/>
<circle cx="382.38" cy="597.12" r="3" fill="none" stroke="#fff" stroke-miterlimit="10"/>
<line x1="382.38" x2="382.38" y1="589.25" y2="594.87" fill="none" stroke="#fff" stroke-miterlimit="10"/>
<circle cx="372.17" cy="597.12" r="3" fill="none" stroke="#fff" stroke-miterlimit="10"/>
<line x1="372.17" x2="372.17" y1="589.25" y2="594.87" fill="none" stroke="#fff" stroke-miterlimit="10"/>
<circle cx="413.03" cy="597.12" r="3" fill="none" stroke="#fff" stroke-miterlimit="10"/>
<line x1="413.03" x2="413.03" y1="589.25" y2="594.87" fill="none" stroke="#fff" stroke-miterlimit="10"/>
<ellipse cx="1214.9" cy="287.64" rx="25.2" ry="11.84" fill="none" stroke="#fff" stroke-miterlimit="10"/>
<path d="M1223,309.74a39.07,39.07,0,0,1-8.12.71c-13.91,0-25.19-5.3-25.19-11.83" fill="none" stroke="#fff" stroke-miterlimit="10"/>
<path d="M1220.2,322.49c-1.39.15-3.84.24-5.3.24-13.91,0-25.19-5.3-25.19-11.84" fill="none" stroke="#fff" stroke-miterlimit="10"/>
<path d="m1226.5 335a49.49 49.49 0 0 1-11.57 1.32c-13.91 0-25.19-5.3-25.19-11.84v-37.6" fill="none" stroke="#fff" stroke-miterlimit="10"/>
<line x1="1240.1" x2="1240.1" y1="287.5" y2="302.57" fill="none" stroke="#fff" stroke-miterlimit="10"/>
<path d="m1224 309.73c3.47-4.51 8.68-7.59 13.94-7.59a17.87 17.87 0 1 1-17.88 17.86" fill="none" stroke="#fff" stroke-miterlimit="10"/>
<polygon points="1228.1 310.89 1221.1 314.71 1221.3 306.74" fill="#fff"/>
<polyline points="1229.2 320.35 1237.8 321.73 1244.5 311.23" fill="none" stroke="#fff" stroke-miterlimit="10"/>
<rect x="1190.9" y="400.08" width="63.7" height="35.83" rx="2.16" fill="none" stroke="#fff" stroke-miterlimit="10"/>
<path d="m1224.9 439.35c0 6.38 3.51 12.25 7 12.25h1.4v2.8h-21v-2.8h1.4c3.48 0 7-5.87 7-12.25z" fill="none" stroke="#fff" stroke-miterlimit="10"/>
<polyline points="1194.9 428.5 1205.1 419.4 1210.3 423.25 1219.8 417.3 1228.5 418.7 1236.9 412.05 1243.6 415.2 1250.6 408.2" fill="none" stroke="#fff" stroke-miterlimit="10"/>
<path d="M1237.58,539.83l4-5.55a24.59,24.59,0,0,1,4.07,1.69l-1.11,6.75a18,18,0,0,1,4.59,4.58l6.74-1.1a23.15,23.15,0,0,1,1.7,4.07l-5.56,4a17.46,17.46,0,0,1,.3,3.25,17.28,17.28,0,0,1-.3,3.24l5.56,4a23.57,23.57,0,0,1-1.7,4.08l-6.74-1.11a17.88,17.88,0,0,1-4.59,4.59l1.11,6.74a24.63,24.63,0,0,1-4.07,1.7l-4-5.56a17.65,17.65,0,0,1-6.48,0l-4,5.56A23.93,23.93,0,0,1,1223,579l1.1-6.74a18,18,0,0,1-4.58-4.59l-6.75,1.11a24.34,24.34,0,0,1-1.69-4.08l5.55-4a18.16,18.16,0,0,1-.29-3.24,18.36,18.36,0,0,1,.29-3.25l-5.55-4a23.89,23.89,0,0,1,1.69-4.07l6.75,1.1a18.12,18.12,0,0,1,4.58-4.58L1223,536a23.89,23.89,0,0,1,4.07-1.69l4,5.55a18.24,18.24,0,0,1,6.48,0Z" fill="none" stroke="#fff" stroke-miterlimit="10"/>
<circle cx="1234.3" cy="557.51" r="8.65" fill="none" stroke="#fff" stroke-miterlimit="10"/>
<path d="M1208.68,552.38l-2.34-4.53a13.3,13.3,0,0,1-2.43-.13,14,14,0,0,1-2.36-.57l-3.55,3.66a18.63,18.63,0,0,1-2.82-1.69l1.55-4.85a13.47,13.47,0,0,1-2.89-3.89l-5.09.09a19.12,19.12,0,0,1-.81-3.19l4.53-2.34a14.27,14.27,0,0,1,.14-2.43,13.32,13.32,0,0,1,.57-2.36l-3.67-3.54a17.45,17.45,0,0,1,1.7-2.82l4.85,1.54a13.39,13.39,0,0,1,3.88-2.88l-.08-5.1a17.84,17.84,0,0,1,3.18-.8l2.35,4.53a13.25,13.25,0,0,1,4.78.7l3.55-3.66a16.71,16.71,0,0,1,2.82,1.69l-1.55,4.85a13.42,13.42,0,0,1,2.89,3.88l5.09-.08a18,18,0,0,1,.81,3.19l-4.53,2.34a13.24,13.24,0,0,1-.13,2.42,12.92,12.92,0,0,1-.58,2.36l2.83,2.71" fill="none" stroke="#fff" stroke-miterlimit="10"/>
<circle cx="1205.9" cy="534.46" r="6.45" fill="none" stroke="#fff" stroke-miterlimit="10"/>
<polyline points="1228.8 176.33 1228.8 199.54 1216.7 199.54 1216.7 176.33" fill="none" stroke="#fff" stroke-miterlimit="10"/>
<circle cx="1222.8" cy="163.21" r="14.13" fill="none" stroke="#fff" stroke-miterlimit="10"/>
<line x1="1210.6" x2="1234.9" y1="205.59" y2="205.59" fill="none" stroke="#fff" stroke-linecap="round" stroke-miterlimit="10"/>
<line x1="1206.6" x2="1238.9" y1="211.65" y2="211.65" fill="none" stroke="#fff" stroke-linecap="round" stroke-miterlimit="10"/>
<line x1="1202.6" x2="1242.9" y1="217.7" y2="217.7" fill="none" stroke="#fff" stroke-linecap="round" stroke-miterlimit="10"/>
<line x1="1198.5" x2="1247" y1="223.76" y2="223.76" fill="none" stroke="#fff" stroke-linecap="round" stroke-miterlimit="10"/>
<rect x="1181.3" y="16.38" width="340" height="104.38" fill="#4d4d4d"/>
<path d="m1300 72.38a2.72 2.72 0 0 0-1.06-2.3 14.13 14.13 0 0 0-3.8-1.69 26.63 26.63 0 0 1-4.34-1.75c-2.9-1.57-4.36-3.68-4.36-6.34a6.17 6.17 0 0 1 1.17-3.7 7.59 7.59 0 0 1 3.36-2.54 12.64 12.64 0 0 1 4.91-0.92 11.55 11.55 0 0 1 4.89 1 7.73 7.73 0 0 1 3.33 2.8 7.36 7.36 0 0 1 1.19 4.11h-5.29a3.47 3.47 0 0 0-1.1-2.73 4.57 4.57 0 0 0-3.12-1 4.89 4.89 0 0 0-3 0.81 2.58 2.58 0 0 0-1.07 2.16 2.48 2.48 0 0 0 1.25 2.09 14.23 14.23 0 0 0 3.7 1.58 15.92 15.92 0 0 1 6.56 3.36 6.68 6.68 0 0 1 2.06 5 6.16 6.16 0 0 1-2.52 5.21 11 11 0 0 1-6.76 1.89 13.06 13.06 0 0 1-5.38-1.08 8.52 8.52 0 0 1-3.7-3 7.61 7.61 0 0 1-1.28-4.36h5.36c0 2.82 1.69 4.24 5.07 4.24a4.91 4.91 0 0 0 2.93-0.77 2.49 2.49 0 0 0 1-2.07z" fill="#fff"/>
<path d="M1329,70.56a9.07,9.07,0,0,1-3,6.51,10.73,10.73,0,0,1-7.25,2.37,9.63,9.63,0,0,1-7.75-3.31q-2.82-3.31-2.82-9.1V65.47a15.5,15.5,0,0,1,1.3-6.51,9.78,9.78,0,0,1,3.72-4.31,11.58,11.58,0,0,1,12.75.87,9.7,9.7,0,0,1,3.13,6.66h-5.27a5.39,5.39,0,0,0-1.38-3.6,5.13,5.13,0,0,0-3.61-1.11,4.48,4.48,0,0,0-4,1.89q-1.3,1.89-1.34,5.86v1.93c0,2.77.41,4.79,1.25,6.07a4.39,4.39,0,0,0,4,1.91,5.22,5.22,0,0,0,3.64-1.11,5,5,0,0,0,1.38-3.46Z" fill="#fff"/>
<path d="m1346.9 73.82h-9.25l-1.75 5.27h-5.61l9.52-25.59h4.89l9.58 25.59h-5.61zm-7.82-4.28h6.4l-3.22-9.54z" fill="#fff"/>
<path d="M1356.65,79.09V53.5h7.88a11.91,11.91,0,0,1,6,1.52,10.54,10.54,0,0,1,4.15,4.32,13.29,13.29,0,0,1,1.5,6.37v1.18a13.4,13.4,0,0,1-1.47,6.35,10.53,10.53,0,0,1-4.14,4.3,12,12,0,0,1-6,1.55Zm5.28-21.32V74.85h2.54a5.71,5.71,0,0,0,4.73-2,9.1,9.1,0,0,0,1.67-5.78V65.7a9.33,9.33,0,0,0-1.61-5.92,5.72,5.72,0,0,0-4.73-2Z" fill="#fff"/>
<path d="m1394.1 73.82h-9.25l-1.76 5.27h-5.6l9.48-25.59h4.89l9.58 25.59h-5.61zm-7.82-4.28h6.4l-3.22-9.54z" fill="#fff"/>
<rect x="1180.3" y="16.36" width="85" height="104.38" fill="gray"/>
<path d="m56.87 21a6 6 0 1 0 6 6 6 6 0 0 0-6-6zm0 8.75a2.79 2.79 0 1 1 2.78-2.75 2.78 2.78 0 0 1-2.78 2.75z" fill="none" stroke="#fff" stroke-miterlimit="10"/>
<line x1="61.86" x2="72.09" y1="23.44" y2="23.44" fill="none" stroke="#fff" stroke-miterlimit="10"/>
<line x1="61.86" x2="68.68" y1="30.25" y2="30.25" fill="none" stroke="#fff" stroke-miterlimit="10"/>
<path d="M71.8,23.85a5.12,5.12,0,0,1,.79-.92c1.27-1.17,7.22-1.64,7.22-1.64l7.63,7.21v5.88l-2.64-.63L84,30.11l-5-4-4,2.17-1.29,4,5,4.22,3.72.06L83.62,39l-5.76,1.14L68.6,35.25s0-7.09.9-8.56a5.18,5.18,0,0,1,.75-1Z" fill="none" stroke="#fff" stroke-miterlimit="10"/>
<circle cx="72.82" cy="26.84" r=".97" fill="#fff"/>
<polyline points="59.75 31.94 62.08 52.42 50.9 52.42 53.23 31.94" fill="none" stroke="#fff" stroke-miterlimit="10"/>
<path d="M66.5,60.5H47.41A.49.49,0,0,1,47,60l1.63-4.33a.49.49,0,0,1,.46-.51H64.17a.49.49,0,0,1,.47.51L67,60A.48.48,0,0,1,66.5,60.5Z" fill="none" stroke="#fff" stroke-miterlimit="10"/>
<rect x="354.96" y="650.91" width="298.04" height="104.38" fill="#dedede"/>
<rect x="350.39" y="650.91" width="85" height="104.38" fill="gray"/>
<path d="M458.87,713.62V688h7.88a12,12,0,0,1,6,1.52,10.54,10.54,0,0,1,4.15,4.32,13.33,13.33,0,0,1,1.5,6.38v1.17a13.37,13.37,0,0,1-1.47,6.35,10.55,10.55,0,0,1-4.14,4.31,12,12,0,0,1-6,1.54Zm5.28-21.32v17.09h2.54a5.74,5.74,0,0,0,4.73-2,9.13,9.13,0,0,0,1.67-5.79v-1.35a9.37,9.37,0,0,0-1.61-5.92,5.72,5.72,0,0,0-4.73-2Z"/>
<path d="m490.69 714a9.33 9.33 0 0 1-6.81-2.56 9.09 9.09 0 0 1-2.63-6.84v-0.49a11.51 11.51 0 0 1 1.11-5.13 8.14 8.14 0 0 1 3.13-3.48 8.88 8.88 0 0 1 4.64-1.22 7.88 7.88 0 0 1 6.14 2.46q2.24 2.46 2.24 7v2.08h-12.11a4.71 4.71 0 0 0 1.48 3 4.52 4.52 0 0 0 3.14 1.13 5.48 5.48 0 0 0 4.59-2.13l2.5 2.8a7.74 7.74 0 0 1-3.1 2.52 10.19 10.19 0 0 1-4.32 0.86zm-0.58-15.62a3.16 3.16 0 0 0-2.45 1 5.31 5.31 0 0 0-1.21 2.93h7.07v-0.4a3.77 3.77 0 0 0-0.92-2.63 3.28 3.28 0 0 0-2.49-0.93z"/>
<path d="m508.28 707.42 3.54-12.82h5.31l-6.42 19h-4.85l-6.42-19h5.31z"/>
<path d="m519.32 689.68a2.5 2.5 0 0 1 0.77-1.88 2.87 2.87 0 0 1 2.08-0.74 2.91 2.91 0 0 1 2.08 0.74 2.69 2.69 0 0 1 0 3.78 3.25 3.25 0 0 1-4.13 0 2.46 2.46 0 0 1-0.8-1.9zm5.4 23.94h-5.1v-19h5.1z"/>
<path d="M536.81,709.88a3.37,3.37,0,0,0,2.29-.77,2.74,2.74,0,0,0,.91-2.06h4.77a6.59,6.59,0,0,1-1.06,3.54,7,7,0,0,1-2.84,2.5,8.9,8.9,0,0,1-4,.88,8.24,8.24,0,0,1-6.43-2.59,10.25,10.25,0,0,1-2.36-7.16v-.34a10.15,10.15,0,0,1,2.34-7,8.16,8.16,0,0,1,6.42-2.62,8,8,0,0,1,5.72,2,7.26,7.26,0,0,1,2.19,5.41H540a3.48,3.48,0,0,0-.91-2.41,3.4,3.4,0,0,0-5,.36,7.43,7.43,0,0,0-.91,4.2v.53a7.53,7.53,0,0,0,.9,4.22A3.09,3.09,0,0,0,536.81,709.88Z"/>
<path d="m556.43 714a9.33 9.33 0 0 1-6.81-2.56 9.13 9.13 0 0 1-2.63-6.84v-0.49a11.51 11.51 0 0 1 1.11-5.11 8.17 8.17 0 0 1 3.14-3.48 8.82 8.82 0 0 1 4.63-1.22 7.88 7.88 0 0 1 6.14 2.46c1.5 1.64 2.24 4 2.24 7v2.08h-12.11a4.72 4.72 0 0 0 1.49 3 4.47 4.47 0 0 0 3.13 1.13 5.48 5.48 0 0 0 4.59-2.13l2.5 2.8a7.61 7.61 0 0 1-3.1 2.52 10.19 10.19 0 0 1-4.32 0.84zm-0.58-15.62a3.18 3.18 0 0 0-2.45 1 5.31 5.31 0 0 0-1.21 2.93h7.07v-0.4a3.82 3.82 0 0 0-0.91-2.63 3.31 3.31 0 0 0-2.5-0.93z"/>
<path d="m374.54 668a10.6 10.6 0 1 0 10.6 10.6 10.61 10.61 0 0 0-10.6-10.6zm0 15.55a5 5 0 1 1 4.95-4.95 4.95 4.95 0 0 1-4.95 4.96z" fill="none" stroke="#fff" stroke-miterlimit="10"/>
<line x1="383.41" x2="401.59" y1="672.34" y2="672.34" fill="none" stroke="#fff" stroke-miterlimit="10"/>
<line x1="383.41" x2="395.53" y1="684.45" y2="684.45" fill="none" stroke="#fff" stroke-miterlimit="10"/>
<path d="M401.07,673.07a8.62,8.62,0,0,1,1.41-1.63c2.26-2.07,12.82-2.91,12.82-2.91l13.56,12.81v10.44l-4.68-1.12-1.4-6.46-9-7.06-7,3.85-2.29,7.09,9,7.49,6.61.11,2,4.37-10.24,2-16.45-8.73s0-12.6,1.6-15.22a9.07,9.07,0,0,1,1.33-1.7Z" fill="none" stroke="#fff" stroke-miterlimit="10"/>
<circle cx="402.88" cy="678.4" r="1.73" fill="#fff"/>
<polyline points="379.66 687.45 383.79 723.84 363.94 723.84 368.08 687.45" fill="none" stroke="#fff" stroke-miterlimit="10"/>
<path d="M391.65,738.19H357.74a.87.87,0,0,1-.83-.9l2.9-7.7a.87.87,0,0,1,.83-.91h26.88a.87.87,0,0,1,.82.91l4.14,7.7A.86.86,0,0,1,391.65,738.19Z" fill="none" stroke="#fff" stroke-miterlimit="10"/>
<line x1="1256.8" x2="1256.8" y1="850.21" y2="843.82" fill="none" stroke="#000" stroke-linecap="round" stroke-linejoin="round" stroke-width="2px"/>
<line x1="1326" x2="1326" y1="850.21" y2="843.82" fill="none" stroke="#000" stroke-linecap="round" stroke-linejoin="round" stroke-width="2px"/>
<rect x="1245.6" y="818" width="90.52" height="25.56" rx="4.26" fill="url(#c)" stroke="#000" stroke-miterlimit="10"/>
<circle cx="1260.5" cy="831.4" r="3.19" fill="#fff" stroke="#000" stroke-miterlimit="10"/>
<circle cx="1271.7" cy="831.4" r="3.19" fill="#fff" stroke="#000" stroke-miterlimit="10"/>
<circle cx="1282.9" cy="831.4" r="3.19" fill="#fff" stroke="#000" stroke-miterlimit="10"/>
<line x1="1312.3" x2="1305.4" y1="824.35" y2="837.13" fill="none" stroke="#000" stroke-miterlimit="10" stroke-width="2px"/>
<line x1="1316.6" x2="1309.7" y1="824.35" y2="837.13" fill="none" stroke="#000" stroke-miterlimit="10" stroke-width="2px"/>
<line x1="1320.8" x2="1313.9" y1="824.35" y2="837.13" fill="none" stroke="#000" stroke-miterlimit="10" stroke-width="2px"/>
<line x1="1325.1" x2="1318.2" y1="824.35" y2="837.13" fill="none" stroke="#000" stroke-miterlimit="10" stroke-width="2px"/>
<line x1="1325.6" x2="1322.4" y1="831.23" y2="837.13" fill="none" stroke="#000" stroke-miterlimit="10" stroke-width="2px"/>
<line x1="1308.1" x2="1304.7" y1="824.35" y2="830.5" fill="none" stroke="#000" stroke-miterlimit="10" stroke-width="2px"/>
<rect transform="translate(127.28 9.58) rotate(45)" x="49.46" y="155.81" width="5.24" height="5.24" fill="none" stroke="#fff" stroke-miterlimit="10"/>
<rect transform="translate(131.88 15.12) rotate(45)" x="44.89" y="163.96" width="5.59" height="5.59" fill="none" stroke="#fff" stroke-miterlimit="10"/>
<rect transform="translate(137.41 19.27) rotate(45)" x="43.66" y="173.72" width="3.58" height="3.58" fill="none" stroke="#fff" stroke-miterlimit="10"/>
<rect transform="translate(132.15 20.79) rotate(45)" x="39.19" y="168.13" width="3.58" height="3.58" fill="none" stroke="#fff" stroke-miterlimit="10"/>
<rect transform="translate(125.96 15.74) rotate(45)" x="42.19" y="158.13" width="3.58" height="3.58" fill="none" stroke="#fff" stroke-miterlimit="10"/>
<path d="m70.59 158.49a16.71 16.71 0 0 0-11 4.09l-1.9-1.9-4 3.95 2.28 2.28a16.47 16.47 0 0 0-1.62 3.89l-1.18-1.18-4 3.95 3.35 3.35-3.35 3.36 4 3.95 2.07-2.07a16.75 16.75 0 1 0 15.25-23.67zm-16.72 18.43a0.28 0.28 0 0 1 0 0.09zm16.72 8.38a10.06 10.06 0 1 1 10.06-10.05 10.06 10.06 0 0 1-10.06 10.05z" fill="none" stroke="#fff" stroke-miterlimit="10"/>
<line x1="1230.5" x2="1230.5" y1="37.07" y2="49.57" fill="none" stroke="#fff" stroke-miterlimit="10"/>
<line x1="1238.2" x2="1238.2" y1="28.32" y2="49.57" fill="none" stroke="#fff" stroke-miterlimit="10"/>
<rect x="1190.9" y="62.08" width="63.7" height="35.83" rx="2.16" fill="none" stroke="#fff" stroke-miterlimit="10"/>
<path d="m1224.9 101.35c0 6.38 3.51 12.25 7 12.25h1.4v2.8h-21v-2.8h1.4c3.48 0 7-5.87 7-12.25z" fill="none" stroke="#fff" stroke-miterlimit="10"/>
<polyline points="1194.9 90.5 1205.1 81.4 1210.3 85.25 1219.8 79.3 1228.5 80.7 1236.9 74.05 1243.6 77.2 1250.6 70.2" fill="none" stroke="#fff" stroke-miterlimit="10"/>
<rect x="1190.9" y="22.08" width="63.7" height="35.83" rx="2.16" fill="none" stroke="#fff" stroke-miterlimit="10"/>
<line x1="1199.7" x2="1199.7" y1="30.82" y2="49.57" fill="none" stroke="#fff" stroke-miterlimit="10"/>
<line x1="1222.8" x2="1222.8" y1="35.82" y2="49.57" fill="none" stroke="#fff" stroke-miterlimit="10"/>
<line x1="1215.1" x2="1215.1" y1="39.57" y2="49.57" fill="none" stroke="#fff" stroke-miterlimit="10"/>
<line x1="1207.4" x2="1207.4" y1="37.07" y2="49.57" fill="none" stroke="#fff" stroke-miterlimit="10"/>
<line x1="1246" x2="1246" y1="30.82" y2="49.57" fill="none" stroke="#fff" stroke-miterlimit="10"/>
<line x1="675.37" x2="1157.6" y1="727.73" y2="444.27" fill="none" stroke="#999" stroke-miterlimit="10" stroke-width="2px"/>
<polygon points="682.94 734.85 663 735 672.84 717.65" fill="#999"/>
<polygon points="1160.2 454.35 1170 437 1150.1 437.15" fill="#999"/>
<polyline points="673.8 697.83 858.96 569.51 858 510 677.86 461.72" fill="none" stroke="#999" stroke-miterlimit="10" stroke-width="2px"/>
<polygon points="681.88 704.36 662 706 670.51 687.97" fill="#999"/>
<polygon points="683.26 452.84 664 458 678.1 472.1" fill="#999"/>
<polyline points="678.16 550.38 928 394 932 218 1155.6 213.3" fill="none" stroke="#999" stroke-miterlimit="10" stroke-width="2px"/>
<polygon points="685.93 557.29 666 558 675.35 540.38" fill="#999"/>
<polygon points="1152.9 223.33 1170 213 1152.5 203.39" fill="#999"/>
<polyline points="675.8 408.83 820 309 821 265 1153.6 268.83" fill="none" stroke="#999" stroke-miterlimit="10" stroke-width="2px"/>
<polygon points="683.88 415.37 664 417 672.52 398.97" fill="#999"/>
<polygon points="1150.6 278.77 1168 269 1150.8 258.83" fill="#999"/>
<polyline points="677.94 479.04 912 323 916 147 1155.6 142.28" fill="none" stroke="#999" stroke-miterlimit="10" stroke-width="2px"/>
<polygon points="685.9 485.72 666 487 674.84 469.12" fill="#999"/>
<polygon points="1152.9 152.31 1170 142 1152.5 132.37" fill="#999"/>
<polyline points="677.02 598.81 853 452 853.14 426.34 681.19 352.65" fill="none" stroke="#999" stroke-miterlimit="10" stroke-width="2px"/>
<polygon points="685.65 604.6 666 608 672.87 589.28" fill="#999"/>
<polygon points="687.8 344.64 668 347 679.95 362.97" fill="#999"/>
<polyline points="672.36 665.07 940.17 408.33 941 364 680.94 239.21" fill="none" stroke="#999" stroke-miterlimit="10" stroke-width="2px"/>
<polygon points="681.37 670.25 662 675 667.57 655.85" fill="#999"/>
<polygon points="687.88 231.48 668 233 679.25 249.46" fill="#999"/>
<line x1="678.75" x2="1155.2" y1="571.42" y2="325.58" fill="none" stroke="#999" stroke-miterlimit="10" stroke-width="2px"/>
<polygon points="685.92 578.94 666 578 676.77 561.22" fill="#999"/>
<polygon points="1157.2 335.78 1168 319 1148.1 318.06" fill="#999"/>
<line x1="673.67" x2="1165.3" y1="434.64" y2="82.36" fill="none" stroke="#999" stroke-miterlimit="10" stroke-width="2px"/>
<polygon points="681.85 441.05 662 443 670.23 424.83" fill="#999"/>
<polygon points="1168.8 92.17 1177 74 1157.2 75.95" fill="#999"/>
<line x1="676.45" x2="1163.6" y1="75.83" y2="534.17" fill="none" stroke="#999" stroke-miterlimit="10" stroke-width="2px"/>
<polygon points="671.74 85.1 666 66 685.41 70.57" fill="#999"/>
<polygon points="1154.6 539.43 1174 544 1168.3 524.9" fill="#999"/>
<polyline points="679.35 151 865 151 1083 570 1158.9 584.34" fill="none" stroke="#999" stroke-miterlimit="10" stroke-width="2px"/>
<polygon points="682.27 160.97 665 151 682.27 141.03" fill="#999"/>
<polygon points="1154.2 593.59 1173 587 1157.9 574" fill="#999"/>
<polyline points="679.35 56 865 56 1086 438 1161.5 508.23" fill="none" stroke="#999" stroke-miterlimit="10" stroke-width="2px"/>
<polygon points="682.27 65.97 665 56 682.27 46.03" fill="#999"/>
<polygon points="1152.6 513.54 1172 518 1166.2 498.94" fill="#999"/>
<line x1="674.61" x2="1160.4" y1="295.86" y2="560.14" fill="none" stroke="#999" stroke-miterlimit="10" stroke-width="2px"/>
<polygon points="672.4 306.01 662 289 681.94 288.49" fill="#999"/>
<polygon points="1153.1 567.51 1173 567 1162.6 549.99" fill="#999"/>
<line x1="679.35" x2="1164.6" y1="41" y2="41" fill="none" stroke="#999" stroke-miterlimit="10" stroke-width="2px"/>
<polygon points="682.27 50.97 665 41 682.27 31.03" fill="#999"/>
<polygon points="1161.7 50.97 1179 41 1161.7 31.03" fill="#999"/>
<line x1="683.19" x2="1154.8" y1="94.13" y2="164.87" fill="none" stroke="#999" stroke-miterlimit="10" stroke-width="2px"/>
<polygon points="684.6 104.42 669 92 687.56 84.7" fill="#999"/>
<polygon points="1150.4 174.3 1169 167 1153.4 154.58" fill="#999"/>
<line x1="681.33" x2="1155.7" y1="320.23" y2="294.77" fill="none" stroke="#999" stroke-miterlimit="10" stroke-width="2px"/>
<polygon points="684.78 330.03 667 321 683.71 310.12" fill="#999"/>
<polygon points="1153.3 304.88 1170 294 1152.2 284.97" fill="#999"/>
<line x1="680.7" x2="1156.6" y1="189" y2="189" fill="none" stroke="#999" stroke-miterlimit="10" stroke-width="2px"/>
<polygon points="683.62 198.97 666.35 189 683.62 179.03" fill="#999"/>
<polygon points="1153.7 198.97 1171 189 1153.7 179.03" fill="#999"/>
<line x1="679.9" x2="1158.7" y1="217.13" y2="411.6" fill="none" stroke="#999" stroke-miterlimit="10" stroke-width="2px"/>
<polygon points="678.85 227.47 666.6 211.73 686.35 208.99" fill="#999"/>
<polygon points="1152.2 419.74 1172 417 1159.8 401.26" fill="#999"/>
<path d="M1418.22,915a7,7,0,0,1,.82-3.3,6.17,6.17,0,0,1,2.28-2.39,6,6,0,0,1,6.28,0,6.14,6.14,0,0,1,2.27,2.39,7,7,0,0,1,0,6.54,6.16,6.16,0,0,1-2.24,2.43,6,6,0,0,1-6.38,0,6.26,6.26,0,0,1-2.26-2.42A6.9,6.9,0,0,1,1418.22,915Zm1,0a5.73,5.73,0,0,0,.71,2.79,5.16,5.16,0,0,0,1.91,2,5,5,0,0,0,5.22,0,5.23,5.23,0,0,0,1.91-2,5.91,5.91,0,0,0,0-5.56,5.25,5.25,0,0,0-1.9-2,5,5,0,0,0-2.63-.73,5,5,0,0,0-2.62.72,5.28,5.28,0,0,0-1.91,2A5.79,5.79,0,0,0,1419.23,915Zm8,1.16a2.68,2.68,0,0,1-.76,2,3.06,3.06,0,0,1-2.15.71,2.81,2.81,0,0,1-2.21-.93,3.61,3.61,0,0,1-.83-2.52v-1a3.57,3.57,0,0,1,.84-2.48,2.85,2.85,0,0,1,2.2-.92,3,3,0,0,1,2.16.72,2.69,2.69,0,0,1,.76,2H1426a1.6,1.6,0,0,0-.42-1.25,1.74,1.74,0,0,0-1.21-.38,1.54,1.54,0,0,0-1.3.61,2.67,2.67,0,0,0-.48,1.69v1a2.63,2.63,0,0,0,.48,1.67,1.56,1.56,0,0,0,1.3.6,1.72,1.72,0,0,0,1.21-.37,1.61,1.61,0,0,0,.41-1.26Z"/>
<path d="m1445.4 921.45h-1.62v-5.92h-5.15v5.92h-1.6v-12.8h1.6v5.5h5.15v-5.5h1.62z"/>
<path d="M1449.81,909.41a1,1,0,0,1-.22.66,1,1,0,0,1-1.33,0,1,1,0,0,1-.22-.66,1,1,0,0,1,.22-.66.79.79,0,0,1,.66-.28.82.82,0,0,1,.67.28A1.09,1.09,0,0,1,1449.81,909.41Zm-.12,12h-1.56v-9.51h1.56Z"/>
<path d="m1454.8 919.08 1.8-7.14h1.58l-2.82 9.51h-1.16l-2.86-9.51h1.63z"/>
<path d="M1463.12,921.62a3.46,3.46,0,0,1-2.73-1.06,4.56,4.56,0,0,1-1-3.1V916.3a5.35,5.35,0,0,1,.92-3.33,3.07,3.07,0,0,1,2.59-1.21,3,3,0,0,1,2.5,1.06,5.48,5.48,0,0,1,.84,3.32v1H1461v.22a3.41,3.41,0,0,0,.58,2.22,2,2,0,0,0,1.65.69,2.73,2.73,0,0,0,1.21-.25,3,3,0,0,0,1-.83l.81,1A3.51,3.51,0,0,1,1463.12,921.62Zm-.18-8.52a1.63,1.63,0,0,0-1.43.66,3.93,3.93,0,0,0-.53,2.06h3.75v-.21a3.73,3.73,0,0,0-.49-1.93A1.51,1.51,0,0,0,1462.94,913.1Z"/>
<path d="M1470.44,908.65l3.34,10.44,3.34-10.44h2.07v12.8h-1.61v-5l.15-5-3.35,10h-1.23l-3.33-9.94.15,5v5h-1.61v-12.8Z"/>
<path d="M1490.21,916.16a8,8,0,0,1-.45,2.86,4.1,4.1,0,0,1-1.29,1.81l1.91,1.71-1.09,1.07-2.3-2.1a5.8,5.8,0,0,1-1.07.11,3.85,3.85,0,0,1-3.15-1.4,6.2,6.2,0,0,1-1.17-3.94V914a6.42,6.42,0,0,1,1.13-4,4.23,4.23,0,0,1,6.34,0,6.37,6.37,0,0,1,1.14,4Zm-1.61-2.23a5.52,5.52,0,0,0-.66-3,2.54,2.54,0,0,0-4,0,5.18,5.18,0,0,0-.69,3v2.28a5.46,5.46,0,0,0,.68,3,2.55,2.55,0,0,0,4,.1,5.16,5.16,0,0,0,.69-2.88Z"/>
<path d="M1504.9,919.86l-.28.35a4.43,4.43,0,0,1-3.55,1.41,4.1,4.1,0,0,1-3.26-1.37,5.91,5.91,0,0,1-1.21-3.89v-2.52a6.35,6.35,0,0,1,1.08-4,4.53,4.53,0,0,1,6.08-.32,4.23,4.23,0,0,1,1.14,2.9h-1.61a3.16,3.16,0,0,0-.66-1.86,2.12,2.12,0,0,0-1.72-.68,2.31,2.31,0,0,0-2,.9,5.19,5.19,0,0,0-.67,2.88v2.61a5.09,5.09,0,0,0,.74,3,2.44,2.44,0,0,0,2.12,1,2.79,2.79,0,0,0,2-.63l.24-.22v-2.93H1501v-1.39h4Z"/>
<path d="M1508.78,911.94l0,.88a2.82,2.82,0,0,1,2.29-1.06,2.25,2.25,0,0,1,2.23,1.38,2.82,2.82,0,0,1,2.49-1.38c1.76,0,2.65,1.09,2.69,3.28v6.41H1517v-6.26a2.64,2.64,0,0,0-.37-1.54,1.44,1.44,0,0,0-1.25-.51,1.38,1.38,0,0,0-1.14.55,2.36,2.36,0,0,0-.51,1.38v6.38h-1.57v-6.33c0-1.32-.55-2-1.61-2a1.7,1.7,0,0,0-1.66,1.18v7.13h-1.54v-9.51Z"/>
<path d="M1527.74,917.15a5.73,5.73,0,0,1-.8,3.35,2.65,2.65,0,0,1-2.32,1.12,2.46,2.46,0,0,1-2.27-1.3l-.07,1.13h-1.42V908h1.55v5a2.45,2.45,0,0,1,2.19-1.22,2.68,2.68,0,0,1,2.35,1.11,5.81,5.81,0,0,1,.79,3.34Zm-1.54-.89a4.56,4.56,0,0,0-.47-2.4,1.71,1.71,0,0,0-1.53-.72,1.9,1.9,0,0,0-1.79,1.3V919a1.89,1.89,0,0,0,1.81,1.28,1.63,1.63,0,0,0,1.51-.73,4.65,4.65,0,0,0,.47-2.3Z"/>
<path d="m1538.3 921.45h-1.61v-5.92h-5.15v5.92h-1.56v-12.8h1.61v5.5h5.15v-5.5h1.61z"/>
</svg>
