<?xml version="1.0" encoding="utf-8"?>
<!-- Generator: Adobe Illustrator 26.2.1, SVG Export Plug-In . SVG Version: 6.00 Build 0)  -->
<svg version="1.1" id="Layer_1" xmlns="http://www.w3.org/2000/svg" xmlns:xlink="http://www.w3.org/1999/xlink" x="0px" y="0px"
	 viewBox="0 0 956.3 335.8" style="enable-background:new 0 0 956.3 335.8;" xml:space="preserve">
<style type="text/css">
	.st0{fill:#1F759C;}
	.st1{fill:#231F20;}
	.st2{fill:#FFFFFF;}
	.st3{fill:none;}
</style>
<path class="st0" d="M217.9,166.5c0,47.7,0,95.3,0,143c0,9.2-0.1,9.3-9,9.3c-60,0-120,0-180,0c-8.9,0-9.9-1.1-9.9-10.2
	c0-94.8,0-189.7,0-284.5c0-9.4,0.5-9.9,9.9-9.9c60.5,0,121,0,181.5,0c7.1,0,7.5,0.5,7.5,7.8C217.9,70.2,217.9,118.4,217.9,166.5z
	 M119.1,118C119.1,118,119.1,117.9,119.1,118c-14.5,0-29,0.1-43.5-0.1c-5.4-0.1-9,1.5-10.1,7.3c-0.5,2.8-1.7,5.4-2.5,8.1
	c-3.9,12.2-7.8,24.4-11.6,36.6c-2.3,7.4-0.5,9.6,7.5,9.6c6,0,12,0,18,0c3.7,0,4.7,1.5,3.5,5c-2.9,8.5-4.9,17.3-8.5,25.5
	c-2.9,6.7,0.7,9,6.4,8.9c6.7-0.2,13.3-0.1,20,0c2.4,0,4.5,0.3,3.5,3.7c-3.1,10.3-6.1,20.7-9.3,31c-2.7,8.7-5.7,17.4-8.2,26.1
	c-0.4,1.5,0.7,3.5,1.2,5.3c1.6-0.4,3.5-0.4,4.7-1.3c2.3-1.8,4.3-4.1,6.3-6.3c20-22.1,40-44.2,60-66.3c9.4-10.4,18.9-20.6,28.2-31.1
	c1.3-1.4,2.5-4.1,2-5.5c-0.5-1.3-3.4-2.2-5.3-2.4c-7.1-0.6-14.3-0.9-21.4-1.2c-3.2-0.1-4-1.1-3-4.3c4.3-13.3,8.4-26.6,12.5-40
	c2.2-7.1,1.1-8.7-6.3-8.8C148.4,117.9,133.7,118,119.1,118z M118.6,101.5c0,0.1,0,0.2,0,0.3c-11.7,0-23.3,0-35,0
	c-4.2,0-8.4-0.2-12.5,0.2c-1.3,0.1-2.3,2.1-3.5,3.2c1.1,1,2,2.5,3.3,2.8c2.9,0.7,5.9,0.9,8.9,0.9c25.8,0.1,51.6,0.1,77.4,0
	c3.3,0,6.7-0.3,9.9-1c1.1-0.2,2.8-1.8,2.8-2.8c0-1.1-1.4-2.7-2.5-3.2c-1.4-0.6-3.3-0.4-4.9-0.4C147.9,101.5,133.3,101.5,118.6,101.5
	z M118.8,86.3c0-0.2,0-0.3,0-0.5c-14.6,0-29.3,0-43.9,0c-1.5,0-3.1-0.2-4.4,0.3c-1.1,0.5-2.6,1.9-2.7,2.9c0,1.1,1.3,2.6,2.4,3.2
	c1,0.6,2.6,0.3,3.9,0.3c29.6,0,59.3,0,88.9,0c1.5,0,3.1,0.1,4.4-0.4c1.1-0.4,2.7-2,2.5-2.5c-0.4-1.2-1.6-2.4-2.8-2.9
	c-1.1-0.5-2.6-0.3-3.9-0.3C148.5,86.3,133.6,86.3,118.8,86.3z M113.8,47.3c-5.3,0-10.7-0.3-16,0.2c-1.9,0.2-5.2,2-5.3,3.2
	c-0.5,8.1-0.5,16.3-0.1,24.4c0.1,1.3,2.9,2.5,4.5,3.8c1-1.6,2.8-3.2,3-4.9c0.4-4.3,0.3-8.7,0.1-13c-0.2-3.7,1.2-5,4.9-5
	c8.2,0.2,16.3,0.3,24.5-0.2c2.1-0.1,5.5-2.4,5.7-4.1c0.5-3.5-2.7-4.4-5.8-4.4C124.1,47.3,119,47.3,113.8,47.3z M124.4,60.2
	c-11.9,0-13.2,1.3-11.7,13.3c0.2,1.7,1.4,3.3,2.2,5c1.7-1.6,3.5-3,5-4.8c0.5-0.6,0-2.1,0.5-2.9c0.7-1.1,2-2.8,2.8-2.7
	c1.3,0.2,2.6,1.5,3.5,2.6c0.5,0.7,0.1,2,0.5,2.9c0.9,1.8,2.1,3.4,3.1,5c1.6-1.8,4.4-3.5,4.7-5.5C136.9,61.9,135.3,60.2,124.4,60.2z"
	/>
<path class="st1" d="M283,22.6c6.8,0,13.7-0.2,20.5,0.1c9.1,0.4,13,4.6,13,13.6c0,11,0,22,0,33c0,5.2-1.3,6.5-6.5,6.5
	c-7.6,0-8.3-0.6-8.4-6.5c0-9-0.2-18,0.1-27c0.1-4.5-1.6-6.5-6-6.5c-8.5,0-17,0.1-25.5,0c-4,0-5.8,1.9-5.7,5.8c0.2,9-0.3,18,0.7,26.9
	c0.4,4.1,2.9,8.5,5.5,11.9c10.1,12.8,20.8,25.2,31.1,37.8c4.1,5,8.1,10.1,11.6,15.6c1.8,2.8,3,6.4,3.1,9.7
	c0.3,12.8,0.2,25.7,0.1,38.5c0,9.5-3.5,13.4-13.1,13.9c-6.5,0.4-13,0.2-19.5,0.2c-7.7,0-15.3,0.1-23-0.1
	c-6.7-0.2-10.7-4.5-10.8-11.1c-0.1-12.8-0.1-25.7-0.2-38.5c0-3.4,0.5-5.9,4.7-5.9c4,0,8.4-1,9.3,4.8c0.3,2,0.4,4,0.4,6
	c0,8.8,0.1,17.7,0,26.5c0,3.1,0.6,5.1,4.4,5c9.7-0.2,19.3-0.1,29,0c2.8,0,3.9-1.1,3.8-3.8c-0.1-11,0.4-22-0.3-33
	c-0.2-3.8-2.6-7.9-5.1-11c-13.4-16.8-27.1-33.3-40.9-49.8c-3.9-4.7-5.8-9.9-5.7-16c0.1-10.8-0.2-21.7-0.3-32.5
	c-0.1-10.2,3.4-13.8,13.7-14.1C269.7,22.4,276.4,22.5,283,22.6C283,22.6,283,22.6,283,22.6z"/>
<path class="st1" d="M936.2,159.1c0,21,0,42,0,63c0,11.2-3.9,14.9-15,15c-10.7,0-21.3,0.1-32,0c-7.9-0.1-12.7-4.7-13.1-12.6
	c-0.1-2.7-0.1-5.3,0.1-8c0.4-4.1,2.4-6.9,7-6.8c5,0.1,7.3,2.2,7.2,7.5c-0.2,8.1,0.5,6.8,7.2,6.9c6.5,0.1,13-0.1,19.5,0.1
	c3.2,0.1,4.5-0.9,4.4-4.3c-0.2-5.8-0.1-11.7-0.1-17.5c0.1-4.1-1.6-6.1-5.9-6c-6.5,0.1-13,0-19.5-0.2c-10.7-0.3-18.8-6.9-20.4-17.6
	c-1.1-7.2-1-14.6-1.1-21.9c-0.1-15.2-0.1-30.3,0.2-45.5c0.2-9.1,2.7-17.2,12.3-20.9c1.8-0.7,3.9-1.3,5.8-1
	c12.1,1.8,24.2,1.3,36.3-0.1c6.8-0.8,7-0.3,7,6.6C936.3,116.8,936.2,138,936.2,159.1z M921.1,143.1c0-11.8-0.1-23.6,0-35.4
	c0-4.2-1.7-6.2-5.9-6.1c-5.3,0.1-10.7-0.2-16-0.1c-6,0.1-10.4,3.9-10.4,9.8c-0.2,21-0.2,41.9,0,62.9c0,5.5,3.9,8.9,9.3,8.9
	c6.2,0.1,12.3-0.1,18.5,0.1c3.5,0.1,4.6-1.1,4.6-4.6C921,166.8,921.1,154.9,921.1,143.1z"/>
<path class="st1" d="M342.9,162.8c0-22,0-44,0-66c0-7.9,0.9-9.1,8.7-7.9c12.2,1.9,24.2,0.9,36.3-0.5c2.3-0.3,4.7-0.2,7,0.1
	c6.5,0.8,9.1,3.6,9.2,10.1c0.2,13.3,0.2,26.7,0.3,40c0,11,0.1,22,0,33c-0.1,15.1-8.1,23.6-23.1,24.5c-5.8,0.3-11.7,0.3-17.5,0.2
	c-4.2-0.1-6.1,1.7-6,6c0.1,9.5-0.1,19,0.1,28.5c0.1,5.3-2.3,6.5-7,6.4c-6.4-0.2-7.7-0.8-7.7-6.3c-0.1-22.7,0-45.3,0-68
	C343,162.9,343,162.9,342.9,162.8z M357.8,143.7C357.8,143.7,357.8,143.7,357.8,143.7c-0.1,11.6,0,23.3-0.1,34.9
	c0,3.2,0.8,4.5,4.2,4.4c5.6-0.2,11.3,0.1,17,0c6.4-0.1,10.6-4.1,10.7-10.7c0.1-21.9,0-43.9,0.1-65.9c0-4-1.9-5.2-5.6-5.1
	c-6.3,0.2-12.6,0.3-19,0.4c-6.1,0.1-7.2,1.2-7.3,7.4C357.8,120.7,357.8,132.2,357.8,143.7z"/>
<path class="st1" d="M664.6,88.6c1-0.1,1.8-0.3,2.5-0.1c12.2,3.5,24.5,1.6,36.7,0.7c3.3-0.2,6.7-0.3,10-0.4
	c8.5-0.1,10.3,1.4,10.3,10.1c0.2,18.8,0.1,37.6,0.1,56.5c0,6.7-0.1,13.3-0.2,20c-0.2,11.4-7.1,19.2-18.5,20.2
	c-7.1,0.6-14.3,0.6-21.5,0.6c-4,0-5.8,1.6-5.8,5.7c0.1,9.5,0.1,19-0.2,28.5c-0.1,2.1-1.5,5.7-2.9,6c-3.2,0.8-6.8,0.1-10.2-0.4
	c-0.5-0.1-1.1-2.3-1.1-3.5c0-47,0-93.9,0-140.9C664,90.7,664.3,89.8,664.6,88.6z M678.3,142.6c0.1,0,0.2,0,0.3,0
	c0,12.1,0,24.3,0,36.4c0,2.8,1,4.2,4.1,4.1c5.8-0.2,11.6,0,17.5-0.1c6.7-0.2,10.2-3.5,10.3-10.2c0.1-22.1,0-44.3,0.1-66.4
	c0-3.6-1.6-5.1-5.2-5c-7,0.2-14,0.5-21,0.5c-4.5,0-6.2,2-6.2,6.4C678.4,119.7,678.3,131.2,678.3,142.6z"/>
<path class="st1" d="M605,128.8c6.5-10.4,13-20.8,19.5-31.2c5.9-9.4,8.5-10.5,20.3-8c-0.6,1.2-1,2.4-1.7,3.4
	c-8.2,12.8-16.2,25.6-24.6,38.2c-2.7,4.1-3,7.5-0.5,11.9c9.2,15.6,17.9,31.5,26.8,47.3c2.6,4.6,1.9,5.8-3.2,6.3
	c-6.7,0.7-10.2-1-13.4-7c-6.9-12.7-13.7-25.5-20.5-38.3c-1-1.8-2-3.6-3.1-5.5c-0.5,0-0.9,0.1-1.4,0.1c-0.3,1.7-0.9,3.5-0.9,5.2
	c-0.1,12.5,0,25,0,37.5c0,6.9-6.6,10.7-12.6,7c-1.1-0.7-1.8-2.8-1.8-4.2c-0.1-54.2,0-108.3,0-162.5c0-6.2,0.8-6.4,8.7-6.7
	c5.4-0.1,5.9,3,5.9,7.1c0,30.7,0,61.3,0,92c0,2.4,0.4,4.7,0.6,7.1C604,128.8,604.5,128.8,605,128.8z"/>
<path class="st1" d="M488.3,145.1c0,14.2,0,28.3,0,42.5c0,8.2-5.9,11.4-13.5,7.8c-2.2-1.1-4.9-1.8-7.4-1.6
	c-8.3,0.6-16.5,1.9-24.8,2.7c-11.2,1.1-14.8-2-14.9-13c-0.1-12.7-0.1-25.3,0-38c0.1-9,2.8-12.4,12.2-12.9c8.4-0.5,17,0.2,25.4,0.4
	c8.2,0.2,8.2,0.2,8.2-7.9c0-6.3-0.1-12.7,0.1-19c0.1-3.4-0.9-4.8-4.5-4.7c-7.2,0.2-14.3,0.1-21.5,0c-3.4-0.1-4.9,1.5-4.9,4.8
	c0,1.8-0.1,3.7-0.1,5.5c0.2,6.9-5.4,10.6-11.7,7.5c-1.2-0.6-2.6-2.5-2.5-3.8c0.3-7.1,0.6-14.3,2-21.2c0.4-2.2,4.4-5,6.8-5.1
	c13.8-0.5,27.6-0.4,41.4-0.2c5.5,0.1,9.5,5.1,9.6,11.4C488.3,115.1,488.3,130.1,488.3,145.1C488.3,145.1,488.3,145.1,488.3,145.1z
	 M473.5,164.6c0-5.2,0-10.3,0-15.5c0-2.9-1.2-4.1-4.2-4.1c-7.6,0.1-15.3,0.1-22.9,0c-3.7,0-5.5,1.5-5.4,5.4
	c0.1,9.1,0.1,18.3-0.1,27.4c-0.1,4.1,1.8,5.7,5.7,5.6c7.8-0.2,15.6-0.1,23.4-0.6c1.2-0.1,3.3-2.1,3.4-3.4
	C473.7,174.6,473.5,169.6,473.5,164.6z"/>
<path class="st1" d="M850.5,141.6c0,15,0,30,0,45c0,8.6-3.4,10.8-11.6,9c-5.1-1.1-10.4-1.3-15.6-1.2c-6.8,0.2-13.6,1.4-20.4,1.9
	c-9.6,0.8-14.3-3.6-14.3-13.3c-0.1-25.8,0-51.7,0-77.5c0-2.3,0-4.7,0-7c0-9.3,3.6-12.1,12.4-9.4c1.1,0.3,2.1,3.1,2.1,4.7
	c0.2,14.3,0.1,28.7,0.1,43c0,13.7,0.1,27.3-0.1,41c0,3.6,0.9,5.1,4.8,4.9c7.5-0.3,15-0.3,22.5,0c4.5,0.2,5.7-1.4,5.7-5.8
	c-0.2-27.3-0.1-54.7-0.1-82c0-6.3,0-6.3,6.8-6.3c7.4,0,7.7,0.3,7.7,6.3C850.5,110.6,850.5,126.1,850.5,141.6
	C850.5,141.6,850.5,141.6,850.5,141.6z"/>
<path class="st1" d="M749.6,109.7c0-26.7,0-53.3,0.1-80c0-2.2,0.9-6.1,2.1-6.4c3.4-0.9,7.2-0.7,10.7-0.2c0.8,0.1,1.7,3.4,1.7,5.2
	c0.1,13.5,0.1,27,0.1,40.5c0,39.8,0,79.6,0,119.4c0,7-0.9,8-7,8.1c-7,0-7.6-0.5-7.6-7.7C749.5,162.3,749.6,136,749.6,109.7z"/>
<path class="st1" d="M512.6,142.3c0-15.3-0.1-30.7,0-46c0.1-8.5,0.6-9.2,8.4-7c9.4,2.6,18.5,0.2,27.8-0.3c2.5-0.1,5-0.2,7.5-0.3
	c9-0.3,11.9,1.9,12.4,10.8c0.4,6.5,0.3,13,0,19.5c-0.2,4.7-2,5.3-9.8,5.3c-4.1,0-4.6-2.1-4.5-5.4c0.1-4-0.1-8,0.1-12
	c0.1-4.2-1.9-5.7-5.8-5.4c-4.7,0.3-9.3,0.4-14,0.8c-6,0.5-7.5,2.1-7.5,8.2c0,20.5,0.1,41,0.2,61.5c0,5.8,0.1,11.7,0,17.5
	c-0.1,6.7-0.6,7.1-8.8,7c-4.9-0.1-6-1.4-6-7.5C512.7,173.3,512.6,157.8,512.6,142.3C512.6,142.3,512.6,142.3,512.6,142.3z"/>
<path class="st2" d="M119.1,118c14.7,0,29.3-0.1,44,0c7.4,0.1,8.5,1.6,6.3,8.8c-4.1,13.3-8.2,26.7-12.5,40c-1,3.2-0.3,4.2,3,4.3
	c7.2,0.2,14.3,0.6,21.4,1.2c1.9,0.2,4.8,1.1,5.3,2.4c0.5,1.4-0.7,4.1-2,5.5c-9.3,10.5-18.8,20.7-28.2,31.1c-20,22.1-40,44.2-60,66.3
	c-2,2.2-4,4.5-6.3,6.3c-1.2,0.9-3.1,0.9-4.7,1.3c-0.4-1.8-1.6-3.8-1.2-5.3c2.5-8.8,5.5-17.4,8.2-26.1c3.2-10.3,6.2-20.7,9.3-31
	c1-3.4-1.2-3.6-3.5-3.7c-6.7,0-13.3-0.2-20,0c-5.7,0.2-9.3-2.2-6.4-8.9c3.6-8.2,5.6-17,8.5-25.5c1.2-3.6,0.2-5-3.5-5c-6,0-12,0-18,0
	c-8,0-9.7-2.2-7.5-9.6c3.8-12.2,7.7-24.4,11.6-36.6c0.9-2.7,2-5.3,2.5-8.1c1.1-5.8,4.7-7.4,10.1-7.3C90.1,118,104.6,117.9,119.1,118
	C119.1,117.9,119.1,118,119.1,118z M59.6,166.3c9,0,17.1-0.1,25.2,0c5.5,0.1,6.9,2,5.2,7.1c-2.8,8.7-5.7,17.4-8.6,26
	c-2,6.1-1.5,7,4.9,7c6.5,0,13-0.1,19.5,0c5.4,0.1,6.5,1.5,4.9,6.8c-1.6,5.3-3.5,10.4-5.2,15.6c-3,9.3-5.9,18.5-8.8,27.8
	c0.5,0.3,1,0.6,1.4,0.9c25.5-27.3,51.1-54.6,76.6-81.9c-0.2-0.4-0.5-0.9-0.7-1.3c-1.6-0.1-3.2-0.4-4.7-0.4
	c-4.8-0.1-9.7,0.1-14.5-0.1c-5.6-0.2-7.2-2.3-5.6-7.6c4.1-13.2,8.2-26.3,12.5-39.5c1.1-3.5,0.4-5-3.4-5c-26.7,0-53.3-0.1-80,0.2
	c-2,0-5,2.3-5.7,4.2C68.2,139,64.2,152.1,59.6,166.3z"/>
<path class="st2" d="M118.6,101.5c14.7,0,29.3,0,44,0c1.7,0,3.5-0.2,4.9,0.4c1.2,0.5,2.5,2.1,2.5,3.2c0,1-1.6,2.6-2.8,2.8
	c-3.2,0.6-6.6,1-9.9,1c-25.8,0.1-51.6,0.1-77.4,0c-3,0-6-0.3-8.9-0.9c-1.2-0.3-2.2-1.8-3.3-2.8c1.2-1.1,2.2-3.1,3.5-3.2
	c4.1-0.4,8.3-0.2,12.5-0.2c11.7,0,23.3,0,35,0C118.6,101.7,118.6,101.6,118.6,101.5z"/>
<path class="st2" d="M118.8,86.3c14.8,0,29.6,0,44.4,0c1.3,0,2.8-0.2,3.9,0.3c1.2,0.6,2.4,1.7,2.8,2.9c0.2,0.6-1.5,2.1-2.5,2.5
	c-1.3,0.5-2.9,0.4-4.4,0.4c-29.6,0-59.3,0-88.9,0c-1.3,0-2.9,0.2-3.9-0.3c-1.1-0.6-2.4-2.1-2.4-3.2c0-1,1.5-2.4,2.7-2.9
	c1.3-0.5,2.9-0.3,4.4-0.3c14.6,0,29.3,0,43.9,0C118.8,86,118.8,86.1,118.8,86.3z"/>
<path class="st2" d="M113.8,47.3c5.2,0,10.3,0,15.5,0c3.1,0,6.3,1,5.8,4.4c-0.2,1.7-3.6,3.9-5.7,4.1c-8.1,0.5-16.3,0.4-24.5,0.2
	c-3.7-0.1-5.1,1.2-4.9,5c0.3,4.3,0.3,8.7-0.1,13c-0.2,1.7-1.9,3.3-3,4.9c-1.6-1.3-4.5-2.5-4.5-3.8c-0.4-8.1-0.4-16.3,0.1-24.4
	c0.1-1.2,3.4-3,5.3-3.2C103.1,47.1,108.5,47.3,113.8,47.3z"/>
<path class="st2" d="M124.4,60.2c10.9,0,12.4,1.7,10.6,13c-0.3,2-3.1,3.7-4.7,5.5c-1.1-1.7-2.2-3.3-3.1-5c-0.4-0.8,0-2.2-0.5-2.9
	c-0.9-1.1-2.2-2.4-3.5-2.6c-0.8-0.1-2.1,1.6-2.8,2.7c-0.5,0.8,0.1,2.2-0.5,2.9c-1.5,1.7-3.3,3.2-5,4.8c-0.8-1.7-2-3.3-2.2-5
	C111.2,61.6,112.5,60.2,124.4,60.2z"/>
<path class="st3" d="M921.1,143.1c0,11.8-0.1,23.6,0.1,35.4c0,3.5-1.1,4.7-4.6,4.6c-6.1-0.2-12.3,0-18.5-0.1
	c-5.4-0.1-9.3-3.5-9.3-8.9c-0.2-21-0.2-41.9,0-62.9c0.1-5.9,4.5-9.7,10.4-9.8c5.3-0.1,10.6,0.2,16,0.1c4.3,0,5.9,2,5.9,6.1
	C921.1,119.5,921.1,131.3,921.1,143.1z"/>
<path class="st3" d="M357.8,143.7c0-11.5,0-22.9,0-34.4c0-6.2,1.1-7.3,7.3-7.4c6.3-0.1,12.6-0.2,19-0.4c3.7-0.1,5.6,1,5.6,5.1
	c-0.1,22,0,43.9-0.1,65.9c0,6.6-4.2,10.6-10.7,10.7c-5.7,0.1-11.3-0.1-17,0c-3.3,0.1-4.2-1.2-4.2-4.4
	C357.9,167,357.8,155.3,357.8,143.7C357.8,143.7,357.8,143.7,357.8,143.7z"/>
<path class="st3" d="M678.3,142.6c0-11.5,0.1-23,0-34.4c0-4.4,1.7-6.4,6.2-6.4c7,0,14-0.2,21-0.5c3.6-0.1,5.2,1.4,5.2,5
	c0,22.1,0.1,44.3-0.1,66.4c0,6.7-3.6,10.1-10.3,10.2c-5.8,0.1-11.7-0.1-17.5,0.1c-3.1,0.1-4.1-1.2-4.1-4.1c0-12.1,0-24.3,0-36.4
	C678.5,142.6,678.4,142.6,678.3,142.6z"/>
<path class="st3" d="M473.5,164.6c0,5,0.2,10-0.2,14.9c-0.1,1.3-2.1,3.3-3.4,3.4c-7.8,0.4-15.6,0.4-23.4,0.6
	c-3.9,0.1-5.8-1.5-5.7-5.6c0.2-9.1,0.2-18.3,0.1-27.4c0-3.9,1.8-5.4,5.4-5.4c7.6,0.1,15.3,0.1,22.9,0c3-0.1,4.2,1.1,4.2,4.1
	C473.5,154.3,473.5,159.4,473.5,164.6z"/>
<path class="st0" d="M59.6,166.3c4.6-14.2,8.6-27.2,13.1-40.1c0.7-1.9,3.7-4.1,5.7-4.2c26.7-0.3,53.3-0.2,80-0.2
	c3.8,0,4.5,1.5,3.4,5c-4.3,13.1-8.4,26.3-12.5,39.5c-1.6,5.3,0,7.4,5.6,7.6c4.8,0.2,9.7,0,14.5,0.1c1.6,0,3.2,0.3,4.7,0.4
	c0.2,0.4,0.5,0.9,0.7,1.3c-25.5,27.3-51.1,54.6-76.6,81.9c-0.5-0.3-1-0.6-1.4-0.9c2.9-9.3,5.8-18.6,8.8-27.8
	c1.7-5.2,3.6-10.4,5.2-15.6c1.6-5.3,0.5-6.7-4.9-6.8c-6.5-0.1-13,0-19.5,0c-6.4,0-6.9-0.8-4.9-7c2.9-8.7,5.8-17.3,8.6-26
	c1.7-5.2,0.3-7.1-5.2-7.1C76.7,166.2,68.6,166.3,59.6,166.3z"/>
<g>
	<path d="M924.4,63.1V47h-4.7v-3.3h12.6V47h-4.7v16.1H924.4z"/>
	<path d="M934.3,63.1V43.7h4.8l2.9,13.2l2.9-13.2h4.8v19.3h-3V47.8l-3.2,15.2h-3.1l-3.1-15.2v15.2H934.3z"/>
</g>
<g>
	<path class="st0" d="M645.3,301.1v3.7c0,1.9-0.4,3.6-1.1,5.3c-0.7,1.7-1.7,3.2-2.9,4.5c-1.2,1.3-2.7,2.3-4.4,3.1
		c-1.7,0.8-3.5,1.1-5.4,1.1c-1.6,0-3.3-0.2-5-0.7s-3.2-1.2-4.6-2.4c-1.4-1.1-2.5-2.6-3.4-4.4c-0.9-1.8-1.3-4.1-1.3-6.8v-33.3
		c0-2,0.3-3.8,1-5.5s1.6-3.2,2.9-4.4c1.2-1.2,2.7-2.2,4.5-2.9c1.7-0.7,3.6-1.1,5.7-1.1c4.1,0,7.4,1.3,9.9,4c1.2,1.3,2.2,2.8,2.9,4.6
		c0.7,1.8,1.1,3.7,1.1,5.8v3.4h-8.7v-2.9c0-1.7-0.5-3.2-1.4-4.4c-1-1.2-2.3-1.9-3.9-1.9c-2.2,0-3.6,0.7-4.3,2
		c-0.7,1.3-1.1,3-1.1,5.1V304c0,1.8,0.4,3.2,1.1,4.4c0.8,1.2,2.1,1.8,4.1,1.8c0.6,0,1.2-0.1,1.8-0.3c0.7-0.2,1.3-0.5,1.8-1
		c0.5-0.5,0.9-1.1,1.3-1.9c0.3-0.8,0.5-1.8,0.5-3v-3H645.3z"/>
	<path class="st0" d="M651.9,272.1c0-2.4,0.4-4.6,1.3-6.5c0.9-1.9,2-3.4,3.4-4.7c1.4-1.2,2.9-2.1,4.6-2.7c1.7-0.6,3.5-0.9,5.2-0.9
		c1.8,0,3.5,0.3,5.2,0.9c1.7,0.6,3.3,1.5,4.7,2.7c1.4,1.2,2.5,2.8,3.3,4.7c0.8,1.9,1.3,4,1.3,6.5v32c0,2.5-0.4,4.7-1.3,6.5
		c-0.9,1.8-2,3.3-3.3,4.5c-1.4,1.2-3,2.2-4.7,2.8s-3.5,0.9-5.2,0.9c-1.8,0-3.5-0.3-5.2-0.9c-1.7-0.6-3.3-1.6-4.6-2.8
		c-1.4-1.2-2.5-2.7-3.4-4.5c-0.8-1.8-1.3-4-1.3-6.5V272.1z M660.5,304.1c0,2.1,0.6,3.6,1.7,4.6c1.2,1,2.5,1.5,4.1,1.5
		c1.6,0,3-0.5,4.1-1.5c1.2-1,1.7-2.5,1.7-4.6v-32c0-2.1-0.6-3.6-1.7-4.6c-1.2-1-2.5-1.5-4.1-1.5c-1.6,0-3,0.5-4.1,1.5
		c-1.2,1-1.7,2.5-1.7,4.6V304.1z"/>
	<path class="st0" d="M688.6,318.3v-60.5h8.3l11.1,32h0.2l11-32h8.4v60.5H719v-36.8h-0.2l-8.6,26h-4.3l-8.5-26h-0.2v36.8H688.6z"/>
	<path class="st0" d="M735.8,318.3v-60.5h13c2.4,0,4.5,0.3,6.3,0.9c1.8,0.6,3.5,1.7,4.9,3.3c1.5,1.6,2.5,3.4,3.1,5.6
		c0.6,2.1,0.8,5,0.8,8.6c0,2.7-0.2,5-0.5,6.9c-0.3,1.9-1,3.6-2,5.3c-1.2,2-2.8,3.5-4.8,4.6c-2,1.1-4.6,1.7-7.8,1.7h-4.4v23.6H735.8z
		 M744.5,266v20.6h4.2c1.8,0,3.1-0.3,4.1-0.8c1-0.5,1.7-1.2,2.1-2.1c0.5-0.9,0.7-1.9,0.8-3.1c0.1-1.2,0.1-2.6,0.1-4.2
		c0-1.4,0-2.8-0.1-4c-0.1-1.3-0.3-2.4-0.8-3.4c-0.5-1-1.1-1.7-2-2.2c-0.9-0.5-2.2-0.8-3.9-0.8H744.5z"/>
	<path class="st0" d="M763.4,318.3l13.5-60.5h7.2l13.5,60.5H789l-2.5-13h-11.8l-2.5,13H763.4z M784.8,297.2l-4.2-21.9h-0.2
		l-4.2,21.9H784.8z"/>
	<path class="st0" d="M802.9,318.3V266h-10v-8.2h28.7v8.2h-10v52.4H802.9z"/>
	<path class="st0" d="M825.7,318.3v-60.5h8.7v60.5H825.7z"/>
	<path class="st0" d="M842.8,318.3v-60.5h12.7c2.8,0,5.1,0.4,7.1,1.3c2,0.9,3.6,2,4.8,3.4c1.2,1.4,2.1,3,2.7,4.9
		c0.5,1.8,0.8,3.8,0.8,5.7v2.2c0,1.6-0.1,3-0.4,4.2c-0.3,1.1-0.6,2.1-1.1,3c-1,1.6-2.4,2.9-4.4,4.1c2,1,3.5,2.4,4.5,4.2
		c1,1.9,1.4,4.4,1.4,7.7v3.4c0,5.3-1.3,9.4-3.9,12.2c-2.6,2.8-6.7,4.2-12.4,4.2H842.8z M851.4,266v16.7h3.9c2.9,0,4.8-0.7,5.8-2.2
		c1-1.4,1.5-3.6,1.5-6.3c0-2.7-0.6-4.8-1.7-6.1c-1.1-1.4-3.1-2-6-2H851.4z M851.4,290.3v19.4h3.7c1.8,0,3.1-0.3,4.1-0.8
		c1-0.5,1.7-1.2,2.3-2.1s0.8-2,0.9-3.2c0.1-1.2,0.2-2.6,0.2-4.1c0-1.5-0.1-2.9-0.3-4c-0.2-1.1-0.5-2.1-1-2.9
		c-0.6-0.8-1.3-1.4-2.3-1.7c-1-0.4-2.2-0.6-3.8-0.6H851.4z"/>
	<path class="st0" d="M879,318.3v-60.5h8.7v51.8h17.2v8.7H879z"/>
	<path class="st0" d="M910.4,318.3v-60.5h25.8v8.2h-17.2v17.8h15v8.2h-15v17.8h17.2v8.7H910.4z"/>
</g>
</svg>
