<?xml version="1.0" encoding="utf-8"?>
<!-- Generator: Adobe Illustrator 25.2.0, SVG Export Plug-In . SVG Version: 6.00 Build 0)  -->
<svg version="1.1" xmlns="http://www.w3.org/2000/svg" xmlns:xlink="http://www.w3.org/1999/xlink" x="0px" y="0px"
	 viewBox="0 0 248.9 127.6" enable-background="new 0 0 248.9 127.6" xml:space="preserve">
<g id="bg">
</g>
<g id="lines">
	<g>
		<g>
			<linearGradient id="SVGID_1_" gradientUnits="userSpaceOnUse" x1="44.3701" y1="54.8784" x2="44.3701" y2="91.9766">
				<stop  offset="0" style="stop-color:#FFFFFF"/>
				<stop  offset="0.9997" style="stop-color:#E6E6E6"/>
			</linearGradient>
			
				<path fill-rule="evenodd" clip-rule="evenodd" fill="url(#SVGID_1_)" stroke="#000000" stroke-width="2" stroke-miterlimit="10" d="
				M75.1,54.9H13.6c-1.2,0-2.2,1-2.2,2.2v32.6c0,1.2,1,2.2,2.2,2.2h61.5c1.2,0,2.2-1,2.2-2.2V57.1C77.3,55.9,76.3,54.9,75.1,54.9z"
				/>
		</g>
		<path fill="#BFBFBF" stroke="#000000" stroke-width="2" stroke-miterlimit="10" d="M46.5,95.5c0,6.6,3.6,12.7,7.2,12.7h1.4v2.9
			H33.5v-2.9h1.4c3.6,0,7.2-6.1,7.2-12.7H46.5z"/>
		<polyline fill="none" stroke="#003E6E" stroke-width="2" stroke-miterlimit="10" points="15.6,84.3 26.1,74.9 31.5,78.9 
			41.3,72.7 50.3,74.2 59,67.3 65.9,70.5 73.2,63.3 		"/>
	</g>
	<rect x="21.3" y="82.5" fill="#FFC000" width="3.3" height="6.3"/>
	<rect x="28.6" y="84" fill="#FFC000" width="3.3" height="4.8"/>
	<rect x="35.9" y="80.4" fill="#FFC000" width="3.3" height="8.4"/>
	<rect x="43.2" y="76.4" fill="#FFC000" width="3.3" height="12.4"/>
	<rect x="50.5" y="79.3" fill="#FFC000" width="3.3" height="9.5"/>
	<rect x="57.8" y="72.6" fill="#FFC000" width="3.3" height="16.2"/>
	
		<radialGradient id="SVGID_2_" cx="-278.2607" cy="110.7182" r="15.6178" gradientTransform="matrix(2.1173 0 0 0.1196 633.2948 98.2991)" gradientUnits="userSpaceOnUse">
		<stop  offset="0" style="stop-color:#999999"/>
		<stop  offset="1" style="stop-color:#999999;stop-opacity:0"/>
	</radialGradient>
	<ellipse fill="url(#SVGID_2_)" cx="44.1" cy="111.5" rx="34" ry="4.1"/>
	<g>
		<g>
			<linearGradient id="SVGID_3_" gradientUnits="userSpaceOnUse" x1="44.3701" y1="54.8784" x2="44.3701" y2="91.9766">
				<stop  offset="0" style="stop-color:#FFFFFF"/>
				<stop  offset="0.9997" style="stop-color:#E6E6E6"/>
			</linearGradient>
			<path fill-rule="evenodd" clip-rule="evenodd" fill="url(#SVGID_3_)" stroke="#000000" stroke-miterlimit="10" d="M75.1,54.9
				H13.6c-1.2,0-2.2,1-2.2,2.2v32.6c0,1.2,1,2.2,2.2,2.2h61.5c1.2,0,2.2-1,2.2-2.2V57.1C77.3,55.9,76.3,54.9,75.1,54.9z"/>
		</g>
		<path fill="#BFBFBF" stroke="#000000" stroke-miterlimit="10" d="M46.5,95.5c0,6.6,3.6,12.7,7.2,12.7h1.4v2.9H33.5v-2.9h1.4
			c3.6,0,7.2-6.1,7.2-12.7H46.5z"/>
		<polyline fill="none" stroke="#003E6E" stroke-miterlimit="10" points="15.6,84.3 26.1,74.9 31.5,78.9 41.3,72.7 50.3,74.2 
			59,67.3 65.9,70.5 73.2,63.3 		"/>
	</g>
	<rect x="21.3" y="82.5" fill="#FFC000" width="3.3" height="6.3"/>
	<rect x="28.6" y="84" fill="#FFC000" width="3.3" height="4.8"/>
	<rect x="35.9" y="80.4" fill="#FFC000" width="3.3" height="8.4"/>
	<rect x="43.2" y="76.4" fill="#FFC000" width="3.3" height="12.4"/>
	<rect x="50.5" y="79.3" fill="#FFC000" width="3.3" height="9.5"/>
	<rect x="57.8" y="72.6" fill="#FFC000" width="3.3" height="16.2"/>
	<g>
		<g>
			<line fill="none" stroke="#FFC000" stroke-width="2" stroke-miterlimit="10" x1="79.9" y1="63.9" x2="80.9" y2="63.9"/>
			
				<line fill="none" stroke="#FFC000" stroke-width="2" stroke-miterlimit="10" stroke-dasharray="1.9424,1.9424" x1="82.9" y1="63.9" x2="101.3" y2="64.2"/>
			<polyline fill="none" stroke="#FFC000" stroke-width="2" stroke-miterlimit="10" points="102.3,64.3 103.3,64.3 103.3,63.3 			
				"/>
			
				<line fill="none" stroke="#FFC000" stroke-width="2" stroke-miterlimit="10" stroke-dasharray="2.0391,2.0391" x1="103.3" y1="61.2" x2="103.3" y2="13.3"/>
			<polyline fill="none" stroke="#FFC000" stroke-width="2" stroke-miterlimit="10" points="103.3,12.3 103.3,11.3 104.3,11.3 			
				"/>
			
				<line fill="none" stroke="#FFC000" stroke-width="2" stroke-miterlimit="10" stroke-dasharray="1.9358,1.9358" x1="106.2" y1="11.3" x2="147.8" y2="11.8"/>
			<line fill="none" stroke="#FFC000" stroke-width="2" stroke-miterlimit="10" x1="148.8" y1="11.8" x2="149.8" y2="11.8"/>
		</g>
	</g>
	<g>
		<g>
			<line fill="none" stroke="#FFC000" stroke-width="2" stroke-miterlimit="10" x1="79.9" y1="74" x2="80.9" y2="74"/>
			
				<line fill="none" stroke="#FFC000" stroke-width="2" stroke-miterlimit="10" stroke-dasharray="2.1036,2.1036" x1="83" y1="74" x2="107.2" y2="74.3"/>
			<polyline fill="none" stroke="#FFC000" stroke-width="2" stroke-miterlimit="10" points="108.3,74.3 109.3,74.3 109.3,73.3 			
				"/>
			
				<line fill="none" stroke="#FFC000" stroke-width="2" stroke-miterlimit="10" stroke-dasharray="2.2475,2.2475" x1="109.3" y1="71" x2="109.3" y2="58.7"/>
			<polyline fill="none" stroke="#FFC000" stroke-width="2" stroke-miterlimit="10" points="109.3,57.5 109.3,56.5 110.3,56.6 			
				"/>
			
				<line fill="none" stroke="#FFC000" stroke-width="2" stroke-miterlimit="10" stroke-dasharray="2.027,2.027" x1="112.3" y1="56.6" x2="123.4" y2="56.9"/>
			<line fill="none" stroke="#FFC000" stroke-width="2" stroke-miterlimit="10" x1="124.5" y1="56.9" x2="125.5" y2="56.9"/>
		</g>
	</g>
	<g>
		<g>
			<line fill="none" stroke="#FFC000" stroke-width="2" stroke-miterlimit="10" x1="79.9" y1="83.9" x2="80.9" y2="83.9"/>
			
				<line fill="none" stroke="#FFC000" stroke-width="2" stroke-miterlimit="10" stroke-dasharray="1.9542,1.9542" x1="82.9" y1="84" x2="113.2" y2="84.5"/>
			<polyline fill="none" stroke="#FFC000" stroke-width="2" stroke-miterlimit="10" points="114.1,84.5 115.1,84.6 115.1,85.6 			
				"/>
			
				<line fill="none" stroke="#FFC000" stroke-width="2" stroke-miterlimit="10" stroke-dasharray="2.063,2.063" x1="115.1" y1="87.6" x2="115.1" y2="111.3"/>
			<polyline fill="none" stroke="#FFC000" stroke-width="2" stroke-miterlimit="10" points="115.1,112.4 115.1,113.4 116.1,113.4 
							"/>
			
				<line fill="none" stroke="#FFC000" stroke-width="2" stroke-miterlimit="10" stroke-dasharray="2.0569,2.0569" x1="118.2" y1="113.4" x2="150.1" y2="114.1"/>
			<line fill="none" stroke="#FFC000" stroke-width="2" stroke-miterlimit="10" x1="151.1" y1="114.1" x2="152.1" y2="114.1"/>
		</g>
	</g>
	<g>
		<path fill="#FFFFFF" stroke="#000000" stroke-miterlimit="10" d="M156.9,25.5h-2.4c-1,0-1.8-0.8-1.8-1.8V5c0-1,0.8-1.8,1.8-1.8
			h27.9c1,0,1.8,0.8,1.8,1.8v4.2"/>
		<line fill="none" stroke="#000000" stroke-miterlimit="10" x1="152.6" y1="6.8" x2="157.9" y2="10.1"/>
		<path fill="#FFFFFF" stroke="#000000" stroke-miterlimit="10" d="M161.5,32.3H159c-1,0-1.8-0.8-1.8-1.8V11.8c0-1,0.8-1.8,1.8-1.8
			h27.9c1,0,1.8,0.8,1.8,1.8v4.7"/>
		<line fill="#FFFFFF" stroke="#000000" stroke-miterlimit="10" x1="157.2" y1="13.5" x2="162.6" y2="16.9"/>
		<g>
			<path fill="#FFFFFF" d="M163.5,38.6c-0.7,0-1.3-0.6-1.3-1.3V18.5c0-0.7,0.6-1.3,1.3-1.3h27.9c0.7,0,1.3,0.6,1.3,1.3v18.7
				c0,0.7-0.6,1.3-1.3,1.3H163.5z"/>
			<path d="M191.4,17.7c0.4,0,0.8,0.4,0.8,0.8v18.7c0,0.4-0.4,0.8-0.8,0.8h-27.9c-0.4,0-0.8-0.4-0.8-0.8V18.5c0-0.4,0.4-0.8,0.8-0.8
				H191.4 M191.4,16.7h-27.9c-1,0-1.8,0.8-1.8,1.8v18.7c0,1,0.8,1.8,1.8,1.8h27.9c1,0,1.8-0.8,1.8-1.8V18.5
				C193.2,17.5,192.4,16.7,191.4,16.7L191.4,16.7z"/>
		</g>
		<polyline fill="none" stroke="#000000" stroke-miterlimit="10" points="161.7,20.3 176.3,29.3 177.5,29.6 178.7,29.3 193.2,20.3 
					"/>
	</g>
	<g>
		<linearGradient id="SVGID_4_" gradientUnits="userSpaceOnUse" x1="169.22" y1="93.475" x2="169.22" y2="122.5932">
			<stop  offset="0" style="stop-color:#FFFFFF"/>
			<stop  offset="0.9997" style="stop-color:#003E6E"/>
		</linearGradient>
		<polygon fill="url(#SVGID_4_)" stroke="#000000" stroke-miterlimit="10" points="171.1,93.5 172.1,122.6 166.3,122.6 167.3,95.7 
					"/>
		<line fill="none" stroke="#000000" stroke-miterlimit="10" x1="163.6" y1="122.6" x2="174.6" y2="122.6"/>
		<g>
			<path fill="#FFFFFF" stroke="#000000" stroke-miterlimit="10" d="M176.9,92c-1.7-0.5-3.3-1-4.8-1.3c0.4,0.8,0.5,1.7,0.2,2.6
				c-0.3,0.8-0.8,1.5-1.5,1.9c1.3,0.6,2.8,1.2,4.4,1.7c5.9,1.9,11,2.4,11.4,1C187.2,96.6,182.8,93.9,176.9,92z"/>
			<path fill="#FFFFFF" stroke="#000000" stroke-miterlimit="10" d="M170.2,89.1c0.5,0.2,1,0.5,1.3,0.8c-0.1-1.5-0.4-3.1-0.8-4.9
				c-1.3-6-3.5-10.7-4.9-10.4c-1.4,0.3-1.5,5.4-0.2,11.5c0.3,1.4,0.6,2.7,1,3.9C167.5,89.1,168.9,88.7,170.2,89.1z"/>
			<path fill="#FFFFFF" stroke="#000000" stroke-miterlimit="10" d="M168.1,95.5c-1.4-0.5-2.3-1.7-2.3-3.1c-1,0.7-2,1.6-3,2.5
				c-4.6,4.1-7.5,8.3-6.6,9.4c1,1.1,5.5-1.4,10.1-5.5c1.2-1,2.2-2.1,3.1-3.1C168.9,95.7,168.5,95.7,168.1,95.5z"/>
		</g>
		<g>
			<path fill="#FFFFFF" d="M169.3,95.3c-1.7,0-3-1.4-3-3s1.4-3,3-3c1.7,0,3,1.4,3,3S171,95.3,169.3,95.3z"/>
			<path d="M169.3,89.7c1.4,0,2.5,1.1,2.5,2.5s-1.1,2.5-2.5,2.5s-2.5-1.1-2.5-2.5S167.9,89.7,169.3,89.7 M169.3,88.7
				c-1.9,0-3.5,1.6-3.5,3.5s1.6,3.5,3.5,3.5s3.5-1.6,3.5-3.5S171.3,88.7,169.3,88.7L169.3,88.7z"/>
		</g>
		<polygon fill="#003E6E" stroke="#000000" stroke-miterlimit="10" points="171.1,93.5 172.1,122.6 166.3,122.6 167.3,95.7 		"/>
		<line fill="none" stroke="#000000" stroke-miterlimit="10" x1="163.6" y1="122.6" x2="174.6" y2="122.6"/>
		<g>
			<path fill="#FFFFFF" stroke="#000000" stroke-miterlimit="10" d="M176.9,92c-1.7-0.5-3.3-1-4.8-1.3c0.4,0.8,0.5,1.7,0.2,2.6
				c-0.3,0.8-0.8,1.5-1.5,1.9c1.3,0.6,2.8,1.2,4.4,1.7c5.9,1.9,11,2.4,11.4,1C187.2,96.6,182.8,93.9,176.9,92z"/>
			<path fill="#FFFFFF" stroke="#000000" stroke-miterlimit="10" d="M170.2,89.1c0.5,0.2,1,0.5,1.3,0.8c-0.1-1.5-0.4-3.1-0.8-4.9
				c-1.3-6-3.5-10.7-4.9-10.4c-1.4,0.3-1.5,5.4-0.2,11.5c0.3,1.4,0.6,2.7,1,3.9C167.5,89.1,168.9,88.7,170.2,89.1z"/>
			<path fill="#FFFFFF" stroke="#000000" stroke-miterlimit="10" d="M168.1,95.5c-1.4-0.5-2.3-1.7-2.3-3.1c-1,0.7-2,1.6-3,2.5
				c-4.6,4.1-7.5,8.3-6.6,9.4c1,1.1,5.5-1.4,10.1-5.5c1.2-1,2.2-2.1,3.1-3.1C168.9,95.7,168.5,95.7,168.1,95.5z"/>
		</g>
		<g>
			<path fill="#FFFFFF" d="M169.3,95.3c-1.7,0-3-1.4-3-3s1.4-3,3-3c1.7,0,3,1.4,3,3S171,95.3,169.3,95.3z"/>
			<path d="M169.3,89.7c1.4,0,2.5,1.1,2.5,2.5s-1.1,2.5-2.5,2.5s-2.5-1.1-2.5-2.5S167.9,89.7,169.3,89.7 M169.3,88.7
				c-1.9,0-3.5,1.6-3.5,3.5s1.6,3.5,3.5,3.5s3.5-1.6,3.5-3.5S171.3,88.7,169.3,88.7L169.3,88.7z"/>
		</g>
		<polygon fill="#003E6E" stroke="#000000" stroke-miterlimit="10" points="192.3,93.5 193.4,122.6 187.5,122.6 188.5,95.7 		"/>
		<line fill="none" stroke="#000000" stroke-miterlimit="10" x1="184.8" y1="122.6" x2="195.8" y2="122.6"/>
		<g>
			<path fill="#FFFFFF" stroke="#000000" stroke-miterlimit="10" d="M198.1,92c-1.7-0.5-3.3-1-4.8-1.3c0.4,0.8,0.5,1.7,0.2,2.6
				c-0.3,0.8-0.8,1.5-1.5,1.9c1.3,0.6,2.8,1.2,4.4,1.7c5.9,1.9,11,2.4,11.4,1C208.4,96.6,204,93.9,198.1,92z"/>
			<path fill="#FFFFFF" stroke="#000000" stroke-miterlimit="10" d="M191.4,89.1c0.5,0.2,1,0.5,1.3,0.8c-0.1-1.5-0.4-3.1-0.8-4.9
				c-1.3-6-3.5-10.7-4.9-10.4c-1.4,0.3-1.5,5.4-0.2,11.5c0.3,1.4,0.6,2.7,1,3.9C188.8,89.1,190.1,88.7,191.4,89.1z"/>
			<path fill="#FFFFFF" stroke="#000000" stroke-miterlimit="10" d="M189.3,95.5c-1.4-0.5-2.3-1.7-2.3-3.1c-1,0.7-2,1.6-3,2.5
				c-4.6,4.1-7.5,8.3-6.6,9.4c1,1.1,5.5-1.4,10.1-5.5c1.2-1,2.2-2.1,3.1-3.1C190.1,95.7,189.7,95.7,189.3,95.5z"/>
		</g>
		<g>
			<path fill="#FFFFFF" d="M190.5,95.3c-1.7,0-3-1.4-3-3s1.4-3,3-3c1.7,0,3,1.4,3,3S192.2,95.3,190.5,95.3z"/>
			<path d="M190.5,89.7c1.4,0,2.5,1.1,2.5,2.5s-1.1,2.5-2.5,2.5s-2.5-1.1-2.5-2.5S189.2,89.7,190.5,89.7 M190.5,88.7
				c-1.9,0-3.5,1.6-3.5,3.5s1.6,3.5,3.5,3.5s3.5-1.6,3.5-3.5S192.5,88.7,190.5,88.7L190.5,88.7z"/>
		</g>
		<polygon fill="#003E6E" stroke="#000000" stroke-miterlimit="10" points="213.5,93.5 214.6,122.6 208.8,122.6 209.7,95.7 		"/>
		<line fill="none" stroke="#000000" stroke-miterlimit="10" x1="206" y1="122.6" x2="217.1" y2="122.6"/>
		<g>
			<path fill="#FFFFFF" stroke="#000000" stroke-miterlimit="10" d="M219.4,92c-1.7-0.5-3.3-1-4.8-1.3c0.4,0.8,0.5,1.7,0.2,2.6
				c-0.3,0.8-0.8,1.5-1.5,1.9c1.3,0.6,2.8,1.2,4.4,1.7c5.9,1.9,11,2.4,11.4,1C229.6,96.6,225.2,93.9,219.4,92z"/>
			<path fill="#FFFFFF" stroke="#000000" stroke-miterlimit="10" d="M212.6,89.1c0.5,0.2,1,0.5,1.3,0.8c-0.1-1.5-0.4-3.1-0.8-4.9
				c-1.3-6-3.5-10.7-4.9-10.4s-1.5,5.4-0.2,11.5c0.3,1.4,0.6,2.7,1,3.9C210,89.1,211.4,88.7,212.6,89.1z"/>
			<path fill="#FFFFFF" stroke="#000000" stroke-miterlimit="10" d="M210.5,95.5c-1.4-0.5-2.3-1.7-2.3-3.1c-1,0.7-2,1.6-3,2.5
				c-4.6,4.1-7.5,8.3-6.6,9.4c1,1.1,5.5-1.4,10.1-5.5c1.2-1,2.2-2.1,3.1-3.1C211.3,95.7,210.9,95.7,210.5,95.5z"/>
		</g>
		<g>
			<circle fill="#FFFFFF" cx="211.8" cy="92.3" r="3"/>
			<path d="M211.8,89.7c1.4,0,2.5,1.1,2.5,2.5s-1.1,2.5-2.5,2.5s-2.5-1.1-2.5-2.5S210.4,89.7,211.8,89.7 M211.8,88.7
				c-1.9,0-3.5,1.6-3.5,3.5s1.6,3.5,3.5,3.5c1.9,0,3.5-1.6,3.5-3.5S213.7,88.7,211.8,88.7L211.8,88.7z"/>
		</g>
	</g>
	<g>
		<path fill="#FFFFFF" stroke="#000000" stroke-miterlimit="10" d="M159,67.4l-27.4,0c0,0-1.5,0.2-2.1-0.4s-0.8-1.3-0.8-1.3
			l-0.1-6.3c0-1.6,1-3.4,2.2-4.5h28.7c1.3,1,2.2,2.8,2.2,6l0.1,4.6c0,0-0.2,1.4-0.9,1.7C160.4,67.5,159,67.4,159,67.4z"/>
		<g>
			<path fill="#FFFFFF" d="M157.7,60.4c-0.5,0-0.8-0.1-1.7-0.7l-0.5-0.4c1-1.4,1.8-1.7,4.7-2.2c0,0,0.2,0,0.3,0c0.1,0,0.2,0,0.2,0
				c0.2,0.4,0.4,1.3,0.5,1.6l0,1.1l-2.7,0.6c-0.2,0.1-0.5,0.1-0.7,0.1L157.7,60.4z"/>
			<path d="M160.3,57.6c0.1,0.4,0.3,0.8,0.3,1.1l0,0.6l-2.3,0.5c-0.2,0-0.4,0.1-0.6,0.1l-0.1,0c-0.3,0-0.5-0.1-1.4-0.6l-0.1-0.1
				C157,58.4,157.8,58.1,160.3,57.6L160.3,57.6 M160.5,56.6c-0.2,0-0.4,0-0.4,0c-3.1,0.6-4.1,0.9-5.2,2.8l0.8,0.7
				c1,0.6,1.4,0.8,2,0.8c0,0,0.1,0,0.1,0c0.3,0,0.5,0,0.8-0.1l3.1-0.7l-0.1-1.6c0,0-0.3-1.1-0.6-1.7C161,56.7,160.7,56.6,160.5,56.6
				L160.5,56.6z"/>
		</g>
		<path fill="none" stroke="#000000" stroke-miterlimit="10" d="M159.8,55.2h2.4c0.5,0,0.8-0.4,0.8-0.8c0-1.6-1.3-2.9-2.9-2.9h-1.3
			c-0.6,0-1.1,0.4-1.2,1"/>
		<path fill="none" stroke="#000000" stroke-miterlimit="10" d="M130.6,55.2h-2.4c-0.5,0-0.8-0.4-0.8-0.8c0-1.6,1.3-2.9,2.9-2.9h1.3
			c0.6,0,1.1,0.4,1.2,1"/>
		<path fill="none" stroke="#000000" stroke-linejoin="bevel" stroke-miterlimit="10" d="M134.9,67.5l0,1.6c0,0.7-0.5,1.3-1.2,1.3
			H130c-0.7,0-1.3-0.7-1.3-1.3v-3.9c0,0,0.2,2.3,1.5,2.3C131.4,67.5,134.9,67.5,134.9,67.5z"/>
		<path fill="none" stroke="#000000" stroke-miterlimit="10" d="M134.9,67.5l0.4-0.7c0.7-1,1.9-1.6,3.2-1.6H152
			c1.3,0,2.4,0.6,3.2,1.6l0.4,0.6"/>
		<path fill="none" stroke="#000000" stroke-miterlimit="10" d="M154.9,59.6h-19.5c0,0-1.5,1.5-2.9,1.3c-1.2-0.2-3.9-0.7-3.9-0.7"/>
		<g>
			<path fill="#FFFFFF" d="M132.5,60.4c-0.2,0-0.5,0-0.7-0.1l-2.7-0.6c0,0,0-1.1,0-1.1c0,0,0.2-1,0.5-1.5c0,0,0.1,0,0.1,0
				c0.1,0,0.3,0,0.3,0c2.9,0.5,3.8,0.8,4.7,2.2l-0.5,0.4C133.8,60.2,133.2,60.4,132.5,60.4z"/>
			<path d="M130,57.6L130,57.6c2.5,0.5,3.4,0.7,4.1,1.7l-0.1,0.1c-0.4,0.3-1,0.5-1.5,0.5c-0.2,0-0.4,0-0.6-0.1l-2.3-0.5l0-0.6
				C129.8,58.4,129.9,58,130,57.6 M129.8,56.6c-0.2,0-0.5,0-0.6,0.2c-0.3,0.6-0.6,1.7-0.6,1.7l-0.1,1.6l3.1,0.7
				c0.3,0.1,0.5,0.1,0.8,0.1c0.8,0,1.5-0.3,2.1-0.8l0.8-0.7c-1.2-1.9-2.2-2.2-5.2-2.8C130.2,56.7,130,56.6,129.8,56.6L129.8,56.6z"
				/>
		</g>
		<path fill="none" stroke="#000000" stroke-miterlimit="10" d="M159.5,54.9c0,0-1.3-1.2-1.9-2.5c-0.7-1.3-3.2-4.7-4.8-4.7h-15.3
			c-1.6,0-4.1,3.5-4.8,4.7c-0.7,1.3-2,2.5-2,2.5H159.5z"/>
		<path fill="none" stroke="#000000" stroke-linejoin="bevel" stroke-miterlimit="10" d="M155.4,67.5l0,1.6c0,0.7,0.5,1.3,1.2,1.3h4
			c0.7,0,1.2-0.7,1.2-1.3v-3.5c0,0-0.4,1.9-2,1.9C158.7,67.5,155.4,67.5,155.4,67.5z"/>
	</g>
	<g>
		<path fill="#FFFFFF" stroke="#000000" stroke-miterlimit="10" d="M199.1,67.4l-27.4,0c0,0-1.5,0.2-2.1-0.4
			c-0.6-0.6-0.8-1.3-0.8-1.3l-0.1-6.3c0-1.6,1-3.4,2.2-4.5h28.7c1.3,1,2.2,2.8,2.2,6l0.1,4.6c0,0-0.2,1.4-0.9,1.7
			C200.5,67.5,199.1,67.4,199.1,67.4z"/>
		<g>
			<path fill="#FFFFFF" d="M197.8,60.4c-0.5,0-0.8-0.1-1.7-0.7l-0.5-0.4c1-1.4,1.8-1.7,4.7-2.2c0,0,0.2,0,0.3,0c0.1,0,0.2,0,0.2,0
				c0.2,0.4,0.4,1.3,0.5,1.6l0,1.1l-2.7,0.6c-0.2,0.1-0.5,0.1-0.7,0.1L197.8,60.4z"/>
			<path d="M200.5,57.6c0.1,0.4,0.3,0.8,0.3,1.1l0,0.6l-2.3,0.5c-0.2,0-0.4,0.1-0.6,0.1l-0.1,0c-0.3,0-0.5-0.1-1.4-0.6l-0.1-0.1
				C197.1,58.4,198,58.1,200.5,57.6L200.5,57.6 M200.7,56.6c-0.2,0-0.4,0-0.4,0c-3.1,0.6-4.1,0.9-5.2,2.8l0.8,0.7
				c1,0.6,1.4,0.8,2,0.8c0,0,0.1,0,0.1,0c0.3,0,0.5,0,0.8-0.1l3.1-0.7l-0.1-1.6c0,0-0.3-1.1-0.6-1.7
				C201.1,56.7,200.9,56.6,200.7,56.6L200.7,56.6z"/>
		</g>
		<path fill="none" stroke="#000000" stroke-miterlimit="10" d="M199.9,55.2h2.4c0.5,0,0.8-0.4,0.8-0.8c0-1.6-1.3-2.9-2.9-2.9H199
			c-0.6,0-1.1,0.4-1.2,1"/>
		<path fill="none" stroke="#000000" stroke-miterlimit="10" d="M170.8,55.2h-2.4c-0.5,0-0.8-0.4-0.8-0.8c0-1.6,1.3-2.9,2.9-2.9h1.3
			c0.6,0,1.1,0.4,1.2,1"/>
		<path fill="none" stroke="#000000" stroke-linejoin="bevel" stroke-miterlimit="10" d="M175,67.5l0,1.6c0,0.7-0.5,1.3-1.2,1.3
			h-3.7c-0.7,0-1.3-0.7-1.3-1.3v-3.9c0,0,0.2,2.3,1.5,2.3C171.6,67.5,175,67.5,175,67.5z"/>
		<path fill="none" stroke="#000000" stroke-miterlimit="10" d="M175,67.5l0.4-0.7c0.7-1,1.9-1.6,3.2-1.6h13.5
			c1.3,0,2.4,0.6,3.2,1.6l0.4,0.6"/>
		<path fill="none" stroke="#000000" stroke-miterlimit="10" d="M195.1,59.6h-19.5c0,0-1.5,1.5-2.9,1.3c-1.2-0.2-3.9-0.7-3.9-0.7"/>
		<g>
			<path fill="#FFFFFF" d="M172.7,60.4c-0.2,0-0.5,0-0.7-0.1l-2.7-0.6c0,0,0-1.1,0-1.1c0,0,0.2-1,0.5-1.5c0,0,0.1,0,0.1,0
				c0.1,0,0.3,0,0.3,0c2.9,0.5,3.8,0.8,4.7,2.2l-0.5,0.4C174,60.2,173.4,60.4,172.7,60.4z"/>
			<path d="M170.2,57.6L170.2,57.6c2.5,0.5,3.4,0.7,4.1,1.7l-0.1,0.1c-0.4,0.3-1,0.5-1.5,0.5c-0.2,0-0.4,0-0.6-0.1l-2.3-0.5l0-0.6
				C169.9,58.4,170.1,58,170.2,57.6 M170,56.6c-0.2,0-0.5,0-0.6,0.2c-0.3,0.6-0.6,1.7-0.6,1.7l-0.1,1.6l3.1,0.7
				c0.3,0.1,0.5,0.1,0.8,0.1c0.8,0,1.5-0.3,2.1-0.8l0.8-0.7c-1.2-1.9-2.2-2.2-5.2-2.8C170.4,56.7,170.2,56.6,170,56.6L170,56.6z"/>
		</g>
		<path fill="none" stroke="#000000" stroke-miterlimit="10" d="M199.7,54.9c0,0-1.3-1.2-1.9-2.5c-0.7-1.3-3.2-4.7-4.8-4.7h-15.3
			c-1.6,0-4.1,3.5-4.8,4.7c-0.7,1.3-2,2.5-2,2.5H199.7z"/>
		<path fill="none" stroke="#000000" stroke-linejoin="bevel" stroke-miterlimit="10" d="M195.6,67.5l0,1.6c0,0.7,0.5,1.3,1.2,1.3h4
			c0.7,0,1.2-0.7,1.2-1.3v-3.5c0,0-0.4,1.9-2,1.9C198.9,67.5,195.6,67.5,195.6,67.5z"/>
	</g>
	<g>
		<path fill="#FFFFFF" stroke="#000000" stroke-miterlimit="10" d="M239.3,67.4l-27.4,0c0,0-1.5,0.2-2.1-0.4s-0.8-1.3-0.8-1.3
			l-0.1-6.3c0-1.6,1-3.4,2.2-4.5h28.7c1.3,1,2.2,2.8,2.2,6l0.1,4.6c0,0-0.2,1.4-0.9,1.7C240.7,67.5,239.3,67.4,239.3,67.4z"/>
		<g>
			<path fill="#FFFFFF" d="M238,60.4c-0.5,0-0.8-0.1-1.7-0.7l-0.5-0.4c1-1.4,1.8-1.7,4.7-2.2c0,0,0.2,0,0.3,0c0.1,0,0.2,0,0.2,0
				c0.2,0.4,0.4,1.3,0.5,1.6l0,1.1l-2.7,0.6c-0.2,0.1-0.5,0.1-0.7,0.1L238,60.4z"/>
			<path d="M240.6,57.6c0.1,0.4,0.3,0.8,0.3,1.1l0,0.6l-2.3,0.5c-0.2,0-0.4,0.1-0.6,0.1l-0.1,0c-0.3,0-0.5-0.1-1.4-0.6l-0.1-0.1
				C237.3,58.4,238.2,58.1,240.6,57.6L240.6,57.6 M240.8,56.6c-0.2,0-0.4,0-0.4,0c-3.1,0.6-4.1,0.9-5.2,2.8l0.8,0.7
				c1,0.6,1.4,0.8,2,0.8c0,0,0.1,0,0.1,0c0.3,0,0.5,0,0.8-0.1l3.1-0.7l-0.1-1.6c0,0-0.3-1.1-0.6-1.7
				C241.3,56.7,241.1,56.6,240.8,56.6L240.8,56.6z"/>
		</g>
		<path fill="none" stroke="#000000" stroke-miterlimit="10" d="M240.1,55.2h2.4c0.5,0,0.8-0.4,0.8-0.8c0-1.6-1.3-2.9-2.9-2.9h-1.3
			c-0.6,0-1.1,0.4-1.2,1"/>
		<path fill="none" stroke="#000000" stroke-miterlimit="10" d="M210.9,55.2h-2.4c-0.5,0-0.8-0.4-0.8-0.8c0-1.6,1.3-2.9,2.9-2.9h1.3
			c0.6,0,1.1,0.4,1.2,1"/>
		<path fill="none" stroke="#000000" stroke-linejoin="bevel" stroke-miterlimit="10" d="M215.2,67.5l0,1.6c0,0.7-0.5,1.3-1.2,1.3
			h-3.7c-0.7,0-1.3-0.7-1.3-1.3v-3.9c0,0,0.2,2.3,1.5,2.3C211.7,67.5,215.2,67.5,215.2,67.5z"/>
		<path fill="none" stroke="#000000" stroke-miterlimit="10" d="M215.2,67.5l0.4-0.7c0.7-1,1.9-1.6,3.2-1.6h13.5
			c1.3,0,2.4,0.6,3.2,1.6l0.4,0.6"/>
		<path fill="none" stroke="#000000" stroke-miterlimit="10" d="M235.2,59.6h-19.5c0,0-1.5,1.5-2.9,1.3c-1.2-0.2-3.9-0.7-3.9-0.7"/>
		<g>
			<path fill="#FFFFFF" d="M212.9,60.4c-0.2,0-0.5,0-0.7-0.1l-2.7-0.6l0-1.1l0,0c0,0,0.2-1,0.5-1.5c0,0,0.1,0,0.1,0
				c0.1,0,0.3,0,0.3,0c2.9,0.5,3.8,0.8,4.7,2.2l-0.5,0.4C214.2,60.2,213.5,60.4,212.9,60.4z"/>
			<path d="M210.4,57.6L210.4,57.6c2.5,0.5,3.4,0.7,4.1,1.7l-0.1,0.1c-0.4,0.3-1,0.5-1.5,0.5c-0.2,0-0.4,0-0.6-0.1l-2.3-0.5l0-0.6
				C210.1,58.4,210.2,58,210.4,57.6 M210.2,56.6c-0.2,0-0.5,0-0.6,0.2c-0.3,0.6-0.6,1.7-0.6,1.7l-0.1,1.6l3.1,0.7
				c0.3,0.1,0.5,0.1,0.8,0.1c0.8,0,1.5-0.3,2.1-0.8l0.8-0.7c-1.2-1.9-2.2-2.2-5.2-2.8C210.6,56.7,210.4,56.6,210.2,56.6L210.2,56.6z
				"/>
		</g>
		<path fill="none" stroke="#000000" stroke-miterlimit="10" d="M239.9,54.9c0,0-1.3-1.2-1.9-2.5c-0.7-1.3-3.2-4.7-4.8-4.7h-15.3
			c-1.6,0-4.1,3.5-4.8,4.7c-0.7,1.3-2,2.5-2,2.5H239.9z"/>
		<path fill="none" stroke="#000000" stroke-linejoin="bevel" stroke-miterlimit="10" d="M235.8,67.5l0,1.6c0,0.7,0.5,1.3,1.2,1.3h4
			c0.7,0,1.2-0.7,1.2-1.3v-3.5c0,0-0.4,1.9-2,1.9C239,67.5,235.8,67.5,235.8,67.5z"/>
	</g>
</g>
</svg>
