<?xml version="1.0" encoding="utf-8"?>
<!-- Generator: Adobe Illustrator 25.2.0, SVG Export Plug-In . SVG Version: 6.00 Build 0)  -->
<svg version="1.1" xmlns="http://www.w3.org/2000/svg" xmlns:xlink="http://www.w3.org/1999/xlink" x="0px" y="0px"
	 viewBox="0 0 249.8 127.6" enable-background="new 0 0 249.8 127.6" xml:space="preserve">
<g id="bg">
	<g>
		<g>
			<linearGradient id="SVGID_1_" gradientUnits="userSpaceOnUse" x1="62.9526" y1="15.6891" x2="62.9526" y2="74.0912">
				<stop  offset="0" style="stop-color:#FFFFFF"/>
				<stop  offset="0.9997" style="stop-color:#E6E6E6"/>
			</linearGradient>
			
				<path fill-rule="evenodd" clip-rule="evenodd" fill="url(#SVGID_1_)" stroke="#000000" stroke-width="2" stroke-miterlimit="10" d="
				M111.3,15.7H14.6c-1.9,0-3.5,1.6-3.5,3.5v51.4c0,1.9,1.6,3.5,3.5,3.5h96.8c1.9,0,3.5-1.6,3.5-3.5V19.2
				C114.9,17.3,113.3,15.7,111.3,15.7z"/>
		</g>
		<path fill="#BFBFBF" stroke="#000000" stroke-width="2" stroke-miterlimit="10" d="M66.4,79.7c0,10.4,5.7,20,11.4,20h2.3v4.6H45.8
			v-4.6h2.3c5.7,0,11.4-9.6,11.4-20H66.4z"/>
		<polyline fill="none" stroke="#003E6E" stroke-width="2" stroke-miterlimit="10" points="17.6,62 34.1,47.2 42.7,53.4 58.1,43.7 
			72.4,46 86.1,35.2 96.9,40.3 108.3,28.9 		"/>
	</g>
	<rect x="26.7" y="59.2" fill="#FFC000" width="5.2" height="9.9"/>
	<rect x="38.2" y="61.6" fill="#FFC000" width="5.2" height="7.5"/>
	<rect x="49.6" y="55.8" fill="#FFC000" width="5.2" height="13.2"/>
	<rect x="61.1" y="49.5" fill="#FFC000" width="5.2" height="19.6"/>
	<rect x="72.6" y="54.2" fill="#FFC000" width="5.2" height="14.9"/>
	<rect x="84.1" y="43.6" fill="#FFC000" width="5.2" height="25.5"/>
	<rect x="95.5" y="48" fill="#FFC000" width="5.2" height="21.1"/>
	
		<radialGradient id="SVGID_2_" cx="-737.0321" cy="107.2866" r="24.5863" gradientTransform="matrix(2.1173 0 0 0.1196 1623.1073 92.0621)" gradientUnits="userSpaceOnUse">
		<stop  offset="0" style="stop-color:#999999"/>
		<stop  offset="1" style="stop-color:#999999;stop-opacity:0"/>
	</radialGradient>
	<ellipse fill="url(#SVGID_2_)" cx="62.6" cy="104.9" rx="53.5" ry="6.4"/>
	<g>
		<g>
			<linearGradient id="SVGID_3_" gradientUnits="userSpaceOnUse" x1="62.9526" y1="15.6891" x2="62.9526" y2="74.0912">
				<stop  offset="0" style="stop-color:#FFFFFF"/>
				<stop  offset="0.9997" style="stop-color:#E6E6E6"/>
			</linearGradient>
			<path fill-rule="evenodd" clip-rule="evenodd" fill="url(#SVGID_3_)" stroke="#000000" stroke-miterlimit="10" d="M111.3,15.7
				H14.6c-1.9,0-3.5,1.6-3.5,3.5v51.4c0,1.9,1.6,3.5,3.5,3.5h96.8c1.9,0,3.5-1.6,3.5-3.5V19.2C114.9,17.3,113.3,15.7,111.3,15.7z"/>
		</g>
		<path fill="#BFBFBF" stroke="#000000" stroke-miterlimit="10" d="M66.4,79.7c0,10.4,5.7,20,11.4,20h2.3v4.6H45.8v-4.6h2.3
			c5.7,0,11.4-9.6,11.4-20H66.4z"/>
		<polyline fill="none" stroke="#003E6E" stroke-miterlimit="10" points="17.6,62 34.1,47.2 42.7,53.4 58.1,43.7 72.4,46 86.1,35.2 
			96.9,40.3 108.3,28.9 		"/>
	</g>
	<rect x="26.7" y="59.2" fill="#FFC000" width="5.2" height="9.9"/>
	<rect x="38.2" y="61.6" fill="#FFC000" width="5.2" height="7.5"/>
	<rect x="49.6" y="55.8" fill="#FFC000" width="5.2" height="13.2"/>
	<rect x="61.1" y="49.5" fill="#FFC000" width="5.2" height="19.6"/>
	<rect x="72.6" y="54.2" fill="#FFC000" width="5.2" height="14.9"/>
	<rect x="84.1" y="43.6" fill="#FFC000" width="5.2" height="25.5"/>
	<rect x="95.5" y="48" fill="#FFC000" width="5.2" height="21.1"/>
	<g>
		<g>
			<linearGradient id="SVGID_4_" gradientUnits="userSpaceOnUse" x1="187.7036" y1="16.0692" x2="187.7036" y2="74.4713">
				<stop  offset="0" style="stop-color:#FFFFFF"/>
				<stop  offset="0.9997" style="stop-color:#E6E6E6"/>
			</linearGradient>
			<path fill-rule="evenodd" clip-rule="evenodd" fill="url(#SVGID_4_)" stroke="#000000" stroke-miterlimit="10" d="M236.1,16.1
				h-96.8c-1.9,0-3.5,1.6-3.5,3.5V71c0,1.9,1.6,3.5,3.5,3.5h96.8c1.9,0,3.5-1.6,3.5-3.5V19.6C239.6,17.7,238,16.1,236.1,16.1z"/>
		</g>
		<path fill="#BFBFBF" stroke="#000000" stroke-miterlimit="10" d="M191.1,80.1c0,10.4,5.7,20,11.4,20h2.3v4.6h-34.2V100h2.3
			c5.7,0,11.4-9.6,11.4-20H191.1z"/>
		<polyline fill="none" stroke="#003E6E" stroke-miterlimit="10" points="142.4,62.4 158.9,47.6 167.5,53.8 182.9,44.1 197.1,46.4 
			210.8,35.6 221.6,40.7 233.1,29.3 		"/>
	</g>
	<rect x="151.5" y="59.6" fill="#FFC000" width="5.2" height="9.9"/>
	<rect x="162.9" y="61.9" fill="#FFC000" width="5.2" height="7.5"/>
	<rect x="174.4" y="56.2" fill="#FFC000" width="5.2" height="13.2"/>
	<rect x="185.9" y="49.9" fill="#FFC000" width="5.2" height="19.6"/>
	<rect x="197.3" y="54.6" fill="#FFC000" width="5.2" height="14.9"/>
	<rect x="208.8" y="43.9" fill="#FFC000" width="5.2" height="25.5"/>
	<rect x="220.3" y="48.4" fill="#FFC000" width="5.2" height="21.1"/>
	
		<radialGradient id="SVGID_5_" cx="-678.1131" cy="107.4555" r="24.5863" gradientTransform="matrix(2.1173 0 0 0.1196 1623.1073 92.4221)" gradientUnits="userSpaceOnUse">
		<stop  offset="0" style="stop-color:#999999"/>
		<stop  offset="1" style="stop-color:#999999;stop-opacity:0"/>
	</radialGradient>
	<ellipse fill="url(#SVGID_5_)" cx="187.3" cy="105.3" rx="53.5" ry="6.4"/>
	<g>
		<g>
			<linearGradient id="SVGID_6_" gradientUnits="userSpaceOnUse" x1="187.7036" y1="16.0692" x2="187.7036" y2="74.4713">
				<stop  offset="0" style="stop-color:#FFFFFF"/>
				<stop  offset="0.9997" style="stop-color:#E6E6E6"/>
			</linearGradient>
			<path fill-rule="evenodd" clip-rule="evenodd" fill="url(#SVGID_6_)" stroke="#000000" stroke-miterlimit="10" d="M236.1,16.1
				h-96.8c-1.9,0-3.5,1.6-3.5,3.5V71c0,1.9,1.6,3.5,3.5,3.5h96.8c1.9,0,3.5-1.6,3.5-3.5V19.6C239.6,17.7,238,16.1,236.1,16.1z"/>
		</g>
		<path fill="#BFBFBF" stroke="#000000" stroke-miterlimit="10" d="M191.1,80.1c0,10.4,5.7,20,11.4,20h2.3v4.6h-34.2V100h2.3
			c5.7,0,11.4-9.6,11.4-20H191.1z"/>
	</g>
	<circle fill="#FFC000" cx="162.7" cy="45.9" r="15.7"/>
	<path fill="#003E6E" d="M178.1,42.8c-0.6-3-2.1-5.8-4.2-7.9l-11.1,10.9L178.1,42.8z"/>
	<g>
		<path fill="#FFFFFF" d="M205,61.1c-4.1,0-7.9-1.6-10.7-4.5s-4.5-6.7-4.5-10.7c0-4.1,1.6-7.9,4.5-10.7s6.7-4.5,10.7-4.5
			c4.1,0,7.9,1.6,10.7,4.5s4.5,6.7,4.5,10.7c0,4.1-1.6,7.9-4.5,10.7S209.1,61.1,205,61.1z"/>
		<path fill="#999999" d="M205,31.2c3.9,0,7.6,1.5,10.4,4.3c5.7,5.7,5.7,15.1,0,20.8c-2.8,2.8-6.5,4.3-10.4,4.3s-7.6-1.5-10.4-4.3
			c-5.7-5.7-5.7-15.1,0-20.8C197.4,32.8,201.1,31.2,205,31.2 M205,30.2c-4,0-8,1.5-11.1,4.6c-6.1,6.1-6.1,16.1,0,22.2
			c3.1,3.1,7.1,4.6,11.1,4.6s8-1.5,11.1-4.6c6.1-6.1,6.1-16.1,0-22.2C213.1,31.8,209.1,30.2,205,30.2L205,30.2z"/>
	</g>
	<path fill="#FFC000" d="M196.4,59c2.6,1.7,5.6,2.6,8.6,2.6l0.2-15.5L196.4,59z"/>
</g>
<g id="lines">
</g>
</svg>
