<?xml version="1.0" encoding="utf-8"?>
<!-- Generator: Adobe Illustrator 25.2.0, SVG Export Plug-In . SVG Version: 6.00 Build 0)  -->
<svg version="1.1" xmlns="http://www.w3.org/2000/svg" xmlns:xlink="http://www.w3.org/1999/xlink" x="0px" y="0px"
	 viewBox="0 0 197.3 127.6" enable-background="new 0 0 197.3 127.6" xml:space="preserve">
<g id="bg">
</g>
<g id="lines">
	<g transform="translate(0,-952.36218)">
		<linearGradient id="SVGID_1_" gradientUnits="userSpaceOnUse" x1="58.6447" y1="976.3459" x2="58.6447" y2="1045.5409">
			<stop  offset="0" style="stop-color:#FFFFFF"/>
			<stop  offset="0.9997" style="stop-color:#003E6E"/>
		</linearGradient>
		<path fill="url(#SVGID_1_)" stroke="#000000" stroke-miterlimit="10" d="M70.2,976.3c-10.6,0-18.4,6.2-22.1,13.5
			c-1.1,2.1-3.7,3-5.8,1.9c-4.4-2.2-9.7-1.9-13.9,0.6c-4.1,2.5-7.3,7-7.3,14.3c0,2.1-1.5,3.9-3.6,4.2c-7.9,1.3-13.7,9.4-13.7,17.4
			c0,9.6,7.4,17.3,20.2,17.3h70.6c10.4,0,18.7-8.3,18.7-18.7c0-9.2-6.5-16.7-15.1-18.4c-2.2-0.4-3.7-2.4-3.5-4.7
			C96.2,990.3,85.6,976.3,70.2,976.3z"/>
	</g>
	<g>
		<circle fill="#FFC000" stroke="#FFFFFF" stroke-miterlimit="10" cx="152.4" cy="86.4" r="3.6"/>
		<circle fill="#FFC000" stroke="#FFFFFF" stroke-miterlimit="10" cx="162.9" cy="77.7" r="4.7"/>
		<circle fill="#FFC000" stroke="#FFFFFF" stroke-miterlimit="10" cx="172.5" cy="66.2" r="5.4"/>
		<circle fill="#FFC000" stroke="#FFFFFF" stroke-miterlimit="10" cx="180.6" cy="51.4" r="6"/>
		<circle fill="#FFC000" stroke="#FFFFFF" stroke-miterlimit="10" cx="183.5" cy="34.3" r="6.7"/>
		<circle fill="#FFC000" stroke="#FFFFFF" stroke-miterlimit="10" cx="177.5" cy="17.7" r="7.3"/>
	</g>
	<g>
		<circle fill="#FFC000" stroke="#FFFFFF" stroke-miterlimit="10" cx="125.2" cy="88.6" r="3.6"/>
		<circle fill="#FFC000" stroke="#FFFFFF" stroke-miterlimit="10" cx="136.8" cy="81.9" r="4.7"/>
		<circle fill="#FFC000" stroke="#FFFFFF" stroke-miterlimit="10" cx="147.9" cy="72.3" r="5.3"/>
		<circle fill="#FFC000" stroke="#FFFFFF" stroke-miterlimit="10" cx="157.5" cy="59.3" r="5.9"/>
		<circle fill="#FFC000" stroke="#FFFFFF" stroke-miterlimit="10" cx="162.3" cy="43.3" r="6.6"/>
		<circle fill="#FFC000" stroke="#FFFFFF" stroke-miterlimit="10" cx="159.6" cy="26.5" r="7.2"/>
		<circle fill="#FFC000" stroke="#FFFFFF" stroke-miterlimit="10" cx="149.2" cy="12.2" r="7.8"/>
	</g>
	<g>
		<circle fill="#FFC000" stroke="#FFFFFF" stroke-miterlimit="10" cx="91.5" cy="71.7" r="2.6"/>
		<circle fill="#FFC000" stroke="#FFFFFF" stroke-miterlimit="10" cx="100.9" cy="73.7" r="3.4"/>
		<circle fill="#FFC000" stroke="#FFFFFF" stroke-miterlimit="10" cx="111.6" cy="74" r="3.8"/>
		<circle fill="#FFC000" stroke="#FFFFFF" stroke-miterlimit="10" cx="123.4" cy="72" r="4.3"/>
		<circle fill="#FFC000" stroke="#FFFFFF" stroke-miterlimit="10" cx="134.2" cy="66.1" r="4.7"/>
		<circle fill="#FFC000" stroke="#FFFFFF" stroke-miterlimit="10" cx="140.8" cy="55.5" r="5.2"/>
		<circle fill="#FFC000" stroke="#FFFFFF" stroke-miterlimit="10" cx="140.8" cy="42.4" r="5.6"/>
	</g>
	
		<radialGradient id="SVGID_2_" cx="55.7172" cy="111.4025" r="23.2206" gradientTransform="matrix(2.2455 0 0 0.1196 -64.279 99.7576)" gradientUnits="userSpaceOnUse">
		<stop  offset="0" style="stop-color:#999999"/>
		<stop  offset="1" style="stop-color:#999999;stop-opacity:0"/>
	</radialGradient>
	<ellipse fill="url(#SVGID_2_)" cx="60.8" cy="113.1" rx="53.6" ry="6"/>
</g>
</svg>
