<?xml version="1.0" encoding="utf-8"?>
<!-- Generator: Adobe Illustrator 25.2.0, SVG Export Plug-In . SVG Version: 6.00 Build 0)  -->
<svg version="1.1" xmlns="http://www.w3.org/2000/svg" xmlns:xlink="http://www.w3.org/1999/xlink" x="0px" y="0px"
	 viewBox="0 0 279.9 127.6" enable-background="new 0 0 279.9 127.6" xml:space="preserve">
<g id="bg">
	<g>
		<g>
			<linearGradient id="SVGID_1_" gradientUnits="userSpaceOnUse" x1="58.013" y1="25.3175" x2="58.013" y2="80.4756">
				<stop  offset="0" style="stop-color:#FFFFFF"/>
				<stop  offset="0.9997" style="stop-color:#E6E6E6"/>
			</linearGradient>
			
				<path fill-rule="evenodd" clip-rule="evenodd" fill="url(#SVGID_1_)" stroke="#000000" stroke-width="2" stroke-miterlimit="10" d="
				M103.7,25.3H12.3c-1.8,0-3.3,1.5-3.3,3.3v48.5c0,1.8,1.5,3.3,3.3,3.3h91.4c1.8,0,3.3-1.5,3.3-3.3V28.6
				C107,26.8,105.5,25.3,103.7,25.3z"/>
		</g>
		<path fill="#BFBFBF" stroke="#000000" stroke-width="2" stroke-miterlimit="10" d="M61.2,85.8c0,9.8,5.4,18.9,10.8,18.9h2.2v4.3
			H41.8v-4.3H44c5.4,0,10.8-9,10.8-18.9H61.2z"/>
		<polyline fill="none" stroke="#003E6E" stroke-width="2" stroke-miterlimit="10" points="15.2,69.1 30.8,55.1 38.9,61 53.4,51.8 
			66.9,54 79.8,43.7 90.1,48.6 100.8,37.8 		"/>
	</g>
	<g>
		<linearGradient id="SVGID_2_" gradientUnits="userSpaceOnUse" x1="217.1378" y1="29.4541" x2="217.1378" y2="115.5189">
			<stop  offset="0" style="stop-color:#FFFFFF"/>
			<stop  offset="0.9997" style="stop-color:#E6E6E6"/>
		</linearGradient>
		<path fill="url(#SVGID_2_)" stroke="#000000" stroke-miterlimit="10" d="M244.2,71.8l-10.9,8.9V59.3c0-0.7-0.6-1.3-1.3-1.3
			c-0.3,0-0.6,0.1-0.8,0.3l-27.4,22.4V59.3c0-0.5-0.3-1-0.7-1.2c-0.5-0.2-1-0.1-1.4,0.2l-29.7,24.2c-0.3,0.2-0.5,0.6-0.5,1V114
			c0,0.7,0.6,1.3,1.3,1.3h88.8c0.7,0,1.3-0.6,1.3-1.3V59.3c0-0.5-0.3-0.9-0.7-1.1c-0.5-0.2-1-0.2-1.4,0.2l-4.4,3.6L244.2,71.8z
			 M256.3,61.9l-1.1-22.8l0,0l-0.4-8.4c0-0.7-0.6-1.2-1.3-1.2h-6.1c-0.7,0-1.3,0.5-1.3,1.2l-2,41.1 M208.7,115.5v-14.1h16.8v14.1"/>
		<line fill="none" stroke="#000000" stroke-miterlimit="10" x1="245.5" y1="39.5" x2="255.1" y2="39.5"/>
	</g>
	<g>
		<g>
			<line fill="none" stroke="#FFC000" stroke-width="5" stroke-miterlimit="10" x1="110.3" y1="56.3" x2="112.8" y2="56.3"/>
			
				<line fill="none" stroke="#FFC000" stroke-width="5" stroke-miterlimit="10" stroke-dasharray="5.3921,5.3921" x1="118.2" y1="56.3" x2="126.3" y2="56.3"/>
			<polyline fill="none" stroke="#FFC000" stroke-width="5" stroke-miterlimit="10" points="129,56.3 131.5,56.3 131.5,58.8 			"/>
			
				<line fill="none" stroke="#FFC000" stroke-width="5" stroke-miterlimit="10" stroke-dasharray="5.3361,5.3361" x1="131.5" y1="64.1" x2="131.5" y2="93.5"/>
			<polyline fill="none" stroke="#FFC000" stroke-width="5" stroke-miterlimit="10" points="131.5,96.1 131.5,98.6 134,98.6 			"/>
			
				<line fill="none" stroke="#FFC000" stroke-width="5" stroke-miterlimit="10" stroke-dasharray="5.8118,5.8118" x1="139.8" y1="98.6" x2="160.2" y2="98.6"/>
			<line fill="none" stroke="#FFC000" stroke-width="5" stroke-miterlimit="10" x1="163.1" y1="98.6" x2="165.6" y2="98.6"/>
		</g>
	</g>
	
		<radialGradient id="SVGID_3_" cx="46.082" cy="109.8411" r="23.2206" gradientTransform="matrix(2.1173 0 0 0.1196 -39.9222 96.4297)" gradientUnits="userSpaceOnUse">
		<stop  offset="0" style="stop-color:#999999"/>
		<stop  offset="1" style="stop-color:#999999;stop-opacity:0"/>
	</radialGradient>
	<ellipse fill="url(#SVGID_3_)" cx="57.6" cy="109.6" rx="50.6" ry="6"/>
</g>
<g id="lines">
	<g>
		<g>
			<linearGradient id="SVGID_4_" gradientUnits="userSpaceOnUse" x1="58.013" y1="25.3175" x2="58.013" y2="80.4756">
				<stop  offset="0" style="stop-color:#FFFFFF"/>
				<stop  offset="0.9997" style="stop-color:#E6E6E6"/>
			</linearGradient>
			<path fill-rule="evenodd" clip-rule="evenodd" fill="url(#SVGID_4_)" stroke="#000000" stroke-miterlimit="10" d="M103.7,25.3
				H12.3c-1.8,0-3.3,1.5-3.3,3.3v48.5c0,1.8,1.5,3.3,3.3,3.3h91.4c1.8,0,3.3-1.5,3.3-3.3V28.6C107,26.8,105.5,25.3,103.7,25.3z"/>
		</g>
		<path fill="#BFBFBF" stroke="#000000" stroke-miterlimit="10" d="M61.2,85.8c0,9.8,5.4,18.9,10.8,18.9h2.2v4.3H41.8v-4.3H44
			c5.4,0,10.8-9,10.8-18.9H61.2z"/>
	</g>
	<g>
		<g>
			<line fill="none" stroke="#FFC000" stroke-width="5" stroke-miterlimit="10" x1="110.3" y1="56.3" x2="112.8" y2="56.3"/>
			
				<line fill="none" stroke="#FFC000" stroke-width="5" stroke-miterlimit="10" stroke-dasharray="6.0588,6.0588" x1="118.9" y1="56.3" x2="128" y2="56.3"/>
			<polyline fill="none" stroke="#FFC000" stroke-width="5" stroke-miterlimit="10" points="131,56.3 133.5,56.3 133.5,58.8 			"/>
			
				<line fill="none" stroke="#FFC000" stroke-width="5" stroke-miterlimit="10" stroke-dasharray="5.3361,5.3361" x1="133.5" y1="64.1" x2="133.5" y2="93.5"/>
			<polyline fill="none" stroke="#FFC000" stroke-width="5" stroke-miterlimit="10" points="133.5,96.1 133.5,98.6 136,98.6 			"/>
			
				<line fill="none" stroke="#FFC000" stroke-width="5" stroke-miterlimit="10" stroke-dasharray="5.4118,5.4118" x1="141.4" y1="98.6" x2="160.4" y2="98.6"/>
			<line fill="none" stroke="#FFC000" stroke-width="5" stroke-miterlimit="10" x1="163.1" y1="98.6" x2="165.6" y2="98.6"/>
		</g>
	</g>
	<g>
		<g>
			<path d="M76.6,42.4c-0.4,0.4-1,0.7-1.6,0.9c2.1,3.1,3.3,6.9,3.3,10.9c0,11-8.9,19.9-19.9,19.9c-11,0-19.9-8.9-19.9-19.9
				c0-10.6,8.4-19.3,18.9-19.9c-0.2-0.6-0.3-1.2-0.4-1.8c-11.3,0.7-20.3,10.2-20.3,21.7c0,12,9.7,21.7,21.7,21.7
				c12,0,21.7-9.7,21.7-21.7C80.1,49.9,78.8,45.9,76.6,42.4z"/>
			<path fill-rule="evenodd" clip-rule="evenodd" fill="#FFC000" d="M76.6,54.2c0,10.1-8.2,18.2-18.2,18.2s-18.2-8.2-18.2-18.2
				S48.3,36,58.4,36c2.3,0,5.1,0,7.1,0.7c2.1,0.8,3.4,2.5,5.1,3.9C74.3,44,76.6,48.9,76.6,54.2z"/>
			<g>
				<ellipse transform="matrix(0.9631 -0.2692 0.2692 0.9631 -16.5847 19.3547)" cx="62.3" cy="70.2" rx="1" ry="1"/>
				<ellipse transform="matrix(0.9631 -0.2692 0.2692 0.9631 -15.932 19.8836)" cx="64.5" cy="68" rx="1.1" ry="1.1"/>
				<ellipse transform="matrix(0.9631 -0.2692 0.2692 0.9631 -14.8913 20.3786)" cx="66.9" cy="64.5" rx="1.3" ry="1.3"/>
				<ellipse transform="matrix(0.9631 -0.2692 0.2692 0.9631 -13.7349 20.4562)" cx="67.7" cy="60.3" rx="1.5" ry="1.5"/>
				<ellipse transform="matrix(0.9631 -0.2692 0.2692 0.9631 -12.8014 19.5227)" cx="64.8" cy="56.4" rx="1.7" ry="1.7"/>
			</g>
			<g>
				<ellipse transform="matrix(0.9631 -0.2692 0.2692 0.9631 -9.6344 16.1516)" cx="54.1" cy="43.2" rx="1.1" ry="1.1"/>
				<ellipse transform="matrix(0.9631 -0.2692 0.2692 0.9631 -10.7563 16.2969)" cx="54.1" cy="47.4" rx="1.3" ry="1.3"/>
				<ellipse transform="matrix(0.9631 -0.2692 0.2692 0.9631 -11.6171 16.9009)" cx="55.8" cy="50.8" rx="1.5" ry="1.5"/>
				<ellipse transform="matrix(0.9631 -0.2692 0.2692 0.9631 -12.1602 18.0884)" cx="59.9" cy="53.4" rx="1.8" ry="1.8"/>
			</g>
			<g>
				<ellipse transform="matrix(0.9631 -0.2692 0.2692 0.9631 -16.8354 18.2307)" cx="58.1" cy="70.5" rx="0.9" ry="0.9"/>
				<ellipse transform="matrix(0.9631 -0.2692 0.2692 0.9631 -16.148 18.7892)" cx="60.4" cy="68.3" rx="1" ry="1"/>
				<ellipse transform="matrix(0.9631 -0.2692 0.2692 0.9631 -15.2565 19.1584)" cx="62.2" cy="65.2" rx="1.2" ry="1.2"/>
				<ellipse transform="matrix(0.9631 -0.2692 0.2692 0.9631 -14.1544 19.1616)" cx="62.8" cy="61.2" rx="1.4" ry="1.4"/>
				<ellipse transform="matrix(0.9631 -0.2692 0.2692 0.9631 -13.4103 18.2029)" cx="59.7" cy="58" rx="1.6" ry="1.6"/>
			</g>
			<g>
				<ellipse transform="matrix(0.9631 -0.2692 0.2692 0.9631 -10.538 15.434)" cx="51" cy="46.1" rx="1" ry="1"/>
				<ellipse transform="matrix(0.9631 -0.2692 0.2692 0.9631 -11.5212 15.2955)" cx="50" cy="49.7" rx="1.2" ry="1.2"/>
				<ellipse transform="matrix(0.9631 -0.2692 0.2692 0.9631 -12.2938 16.0247)" cx="52.3" cy="52.8" rx="1.3" ry="1.3"/>
				<ellipse transform="matrix(0.9631 -0.2692 0.2692 0.9631 -12.8684 17.0583)" cx="55.8" cy="55.5" rx="1.6" ry="1.6"/>
			</g>
			<g>
				<ellipse transform="matrix(0.9631 -0.2692 0.2692 0.9631 -16.7691 17.3214)" cx="54.8" cy="69.8" rx="0.8" ry="0.8"/>
				<ellipse transform="matrix(0.9631 -0.2692 0.2692 0.9631 -16.2035 17.9132)" cx="57.2" cy="68" rx="0.8" ry="0.8"/>
				<ellipse transform="matrix(0.9631 -0.2692 0.2692 0.9631 -15.4947 18.1289)" cx="58.4" cy="65.6" rx="1" ry="1"/>
				<ellipse transform="matrix(0.9631 -0.2692 0.2692 0.9631 -14.5925 18.1315)" cx="58.8" cy="62.3" rx="1.1" ry="1.1"/>
				<ellipse transform="matrix(0.9631 -0.2692 0.2692 0.9631 -13.9921 17.3234)" cx="56.2" cy="59.7" rx="1.3" ry="1.3"/>
			</g>
			<g>
				<ellipse transform="matrix(0.9631 -0.2692 0.2692 0.9631 -12.4635 15.0872)" cx="48.8" cy="53" rx="1" ry="1"/>
				<ellipse transform="matrix(0.9631 -0.2692 0.2692 0.9631 -13.1475 15.5725)" cx="50.2" cy="55.7" rx="1.1" ry="1.1"/>
				<ellipse transform="matrix(0.9631 -0.2692 0.2692 0.9631 -13.6291 16.4025)" cx="53" cy="57.9" rx="1.3" ry="1.3"/>
			</g>
			<ellipse transform="matrix(0.9631 -0.2692 0.2692 0.9631 -10.5283 17.1071)" cx="57.1" cy="46.9" rx="0.8" ry="0.8"/>
			<g>
				<path fill-rule="evenodd" clip-rule="evenodd" fill="#FFFFFF" d="M69.2,36.1c-0.5-0.9-0.2-2.1,0.6-2.8
					C70.3,34.2,70,35.4,69.2,36.1z"/>
				<path d="M59.4,39.4c-0.2,0.5-0.3,1-0.3,1.6l3.8,3.1c0.5-0.1,1-0.3,1.5-0.6L59.4,39.4z"/>
				<path d="M59,45c1.2-0.5,1.7-0.6,2.3-0.7l-2.2-1.8C59.2,43.1,59.2,43.7,59,45z"/>
				<path d="M66.2,41.2c-0.3-1.1-0.7-2.3-1.1-3.6c-1.3-0.2-2.6-0.3-3.7-0.4c-0.5,0.3-0.9,0.7-1.3,1.2l5.3,4.3
					C65.7,42.2,66,41.7,66.2,41.2z"/>
				<path fill="none" d="M65.7,33.1c1,0.3,2.1-0.2,2.6-1.1C67.3,31.8,66.2,32.2,65.7,33.1z"/>
				<path d="M70.7,42c-0.2,0-0.4,0.2-0.4,0.4l0,0.1c3-0.1,4.9-0.4,5.2-1.7c0.1-1.3-2.7-2.9-6.7-4c0.4-0.2,0.7-0.5,1-0.8
					c0.1-0.1,0.2-0.3,0.3-0.4c0.3-0.5,0.4-1.1,0.4-1.7c0-0.3-0.1-0.6-0.3-0.9l0,0l0,0l0.6-0.3c0.1,0,0.1-0.2,0.1-0.3
					c0-0.1-0.2-0.1-0.3-0.1L70,32.8c-0.3-0.5-0.8-0.8-1.3-1l0.2-0.7c0-0.1,0-0.2-0.1-0.2c-0.1,0-0.2,0-0.2,0.1l-0.2,0.7l0,0.1
					c-0.3-0.1-0.6-0.1-0.9-0.1c-0.8,0.1-1.5,0.5-1.9,1.1c-0.2,0.3-0.4,0.7-0.5,1.1c-0.5-1-3.3-6.2-5.2-5.7c-1.7,0.5-0.9,4.3-0.7,5.4
					l0.1,0c0.2,0,0.4-0.2,0.3-0.4c-0.1-0.6-0.2-1.4-0.1-2.2c0.1-1,0.3-1.4,0.7-1.4c1.2-0.1,3,2.8,3.6,3.8c0.5,0.9,1,1.9,1.5,3.1
					c-5.9-0.9-10.9-0.4-11.1,1.2c-0.2,1,1.6,2.3,4.3,3.3l0-0.2c0-0.2-0.1-0.3-0.2-0.4c-1.9-0.8-3-1.3-2.9-2c0.2-1.1,4.6-2,9.8-1.1
					l0.4,0.1c0,0.1,0.1,0.2,0.1,0.4c1.9,4.9,2,9.4,0.9,9.9c-0.7,0.2-1.5-0.8-2.6-2.4c-0.1-0.2-0.3-0.2-0.5-0.2l-0.2,0.1
					c1.5,2.5,3.1,4,4.1,3.6c1.5-0.6,1.1-5.6-1-11.1c4,0.8,7.1,2.2,7.6,3.5C74.6,41.7,71.9,42,70.7,42z M65.7,33.1
					c0.5-0.9,1.6-1.4,2.6-1.1C67.8,32.9,66.7,33.4,65.7,33.1z M69.2,36.1c-0.5-0.9-0.2-2.1,0.6-2.8C70.3,34.2,70,35.4,69.2,36.1z"/>
				<path fill-rule="evenodd" clip-rule="evenodd" fill="#FFFFFF" d="M65.7,33.1c0.5-0.9,1.6-1.4,2.6-1.1
					C67.8,32.9,66.7,33.4,65.7,33.1z"/>
				<path fill-rule="evenodd" clip-rule="evenodd" fill="#FFFFFF" d="M59.4,33.3c0,0,0.2-0.1,0.2-0.4c-0.2-1.2-0.4-3.8,0.8-3.6
					c1.3,0.3,3.3,3,4.9,6.8c-2.1-0.3-3.6-0.5-5.3-0.5C59.5,33.9,59.4,33.5,59.4,33.3z"/>
				<path fill-rule="evenodd" clip-rule="evenodd" fill="#FFFFFF" d="M66.6,47.2c-0.7,0.2-1.5-0.8-2.6-2.4c-0.1-0.1-0.1-0.1-0.2-0.2
					c1-0.3,2.1-1.4,2.7-2.4c0,0,0,0,0,0c0,0,0,0,0,0c0.2-0.4,0.4-0.7,0.4-0.9C67.5,44.4,67.4,46.9,66.6,47.2z"/>
				<path fill-rule="evenodd" clip-rule="evenodd" fill="#FFFFFF" d="M68,42.3c-0.3-1.7-0.8-3.2-1.5-5.2c4,0.8,7.1,2.2,7.6,3.5
					c0.5,1.1-2.2,1.4-3.4,1.5c-0.2,0-0.2,0.1-0.3,0.2C70.1,42.3,69.8,42.4,68,42.3z"/>
				<path fill-rule="evenodd" clip-rule="evenodd" fill="#FFFFFF" d="M61.2,36.5c-0.2,0.1-0.5,0.3-0.8,0.6c0,0,0,0,0,0c0,0,0,0,0,0
					c-0.9,0.8-1.8,2.1-1.9,3.1c0-0.1-0.1-0.1-0.2-0.2c-1.9-0.8-3-1.3-2.9-2C55.5,37.2,57.9,36.5,61.2,36.5z"/>
			</g>
		</g>
	</g>
</g>
</svg>
