<?xml version="1.0" encoding="utf-8"?>
<!-- Generator: Adobe Illustrator 25.2.0, SVG Export Plug-In . SVG Version: 6.00 Build 0)  -->
<svg version="1.1" xmlns="http://www.w3.org/2000/svg" xmlns:xlink="http://www.w3.org/1999/xlink" x="0px" y="0px"
	 viewBox="0 0 218.8 127.6" enable-background="new 0 0 218.8 127.6" xml:space="preserve">
<g id="bg">
	
		<radialGradient id="SVGID_1_" cx="-149.0584" cy="110.0113" r="17.0758" gradientTransform="matrix(2.555 0 0 0.1449 432.7052 94.6259)" gradientUnits="userSpaceOnUse">
		<stop  offset="0" style="stop-color:#999999"/>
		<stop  offset="1" style="stop-color:#999999;stop-opacity:0"/>
	</radialGradient>
	<ellipse fill="url(#SVGID_1_)" cx="51.9" cy="110.6" rx="44.9" ry="5.4"/>
	<g>
		<g>
			<linearGradient id="SVGID_2_" gradientUnits="userSpaceOnUse" x1="50.1541" y1="10.075" x2="50.1541" y2="91.752">
				<stop  offset="0" style="stop-color:#FFFFFF"/>
				<stop  offset="0.9997" style="stop-color:#DDDDDD"/>
			</linearGradient>
			<path fill-rule="evenodd" clip-rule="evenodd" fill="url(#SVGID_2_)" stroke="#FFFFFF" stroke-miterlimit="10" d="M87.3,10.1H13
				c-2,0-3.7,1.7-3.7,3.7v74.3c0,2,1.7,3.7,3.7,3.7h74.3c2,0,3.7-1.7,3.7-3.7V13.8C91,11.7,89.3,10.1,87.3,10.1z"/>
		</g>
	</g>
	<g>
		<linearGradient id="SVGID_3_" gradientUnits="userSpaceOnUse" x1="27.2785" y1="43.8243" x2="78.3347" y2="43.8243">
			<stop  offset="0" style="stop-color:#FFFFFF"/>
			<stop  offset="0.9997" style="stop-color:#003E6E"/>
		</linearGradient>
		<path fill="url(#SVGID_3_)" stroke="#000000" stroke-miterlimit="10" d="M75.9,51H29.7c-1.3,0-2.4-1.1-2.4-2.4V39
			c0-1.3,1.1-2.4,2.4-2.4h46.3c1.3,0,2.4,1.1,2.4,2.4v9.6C78.3,50,77.3,51,75.9,51z"/>
		<circle fill="#FFFFFF" stroke="#000000" stroke-miterlimit="10" cx="35.7" cy="44.2" r="1.8"/>
		<circle fill="#FFFFFF" stroke="#000000" stroke-miterlimit="10" cx="42" cy="44.2" r="1.8"/>
		<circle fill="#FFFFFF" stroke="#000000" stroke-miterlimit="10" cx="48.3" cy="44.2" r="1.8"/>
		<linearGradient id="SVGID_4_" gradientUnits="userSpaceOnUse" x1="27.2785" y1="61.8441" x2="78.3347" y2="61.8441">
			<stop  offset="0" style="stop-color:#FFFFFF"/>
			<stop  offset="0.9997" style="stop-color:#003E6E"/>
		</linearGradient>
		<path fill="url(#SVGID_4_)" stroke="#000000" stroke-miterlimit="10" d="M75.9,69.1H29.7c-1.3,0-2.4-1.1-2.4-2.4V57
			c0-1.3,1.1-2.4,2.4-2.4h46.3c1.3,0,2.4,1.1,2.4,2.4v9.6C78.3,68,77.3,69.1,75.9,69.1z"/>
		<circle fill="#FFFFFF" stroke="#000000" stroke-miterlimit="10" cx="35.7" cy="62.2" r="1.8"/>
		<circle fill="#FFFFFF" stroke="#000000" stroke-miterlimit="10" cx="42" cy="62.2" r="1.8"/>
		<circle fill="#FFFFFF" stroke="#000000" stroke-miterlimit="10" cx="48.3" cy="62.2" r="1.8"/>
		<linearGradient id="SVGID_5_" gradientUnits="userSpaceOnUse" x1="33.5854" y1="71.0042" x2="33.5854" y2="71.0042">
			<stop  offset="0" style="stop-color:#FFFFFF"/>
			<stop  offset="0.9997" style="stop-color:#003E6E"/>
		</linearGradient>
		<line fill="url(#SVGID_5_)" stroke="#000000" stroke-miterlimit="10" x1="33.6" y1="72.8" x2="33.6" y2="69.2"/>
		<linearGradient id="SVGID_6_" gradientUnits="userSpaceOnUse" x1="72.6284" y1="71.0042" x2="72.6284" y2="71.0042">
			<stop  offset="0" style="stop-color:#FFFFFF"/>
			<stop  offset="0.9997" style="stop-color:#003E6E"/>
		</linearGradient>
		<line fill="url(#SVGID_6_)" stroke="#000000" stroke-miterlimit="10" x1="72.6" y1="72.8" x2="72.6" y2="69.2"/>
	</g>
	<g>
		<g>
			<linearGradient id="SVGID_7_" gradientUnits="userSpaceOnUse" x1="99.4478" y1="18.3388" x2="215.45" y2="18.3388">
				<stop  offset="0" style="stop-color:#FFC000;stop-opacity:0.98"/>
				<stop  offset="1" style="stop-color:#FFFFFF"/>
			</linearGradient>
			
				<line fill="none" stroke="url(#SVGID_7_)" stroke-width="3" stroke-linecap="round" stroke-linejoin="round" x1="100.9" y1="18.3" x2="100.9" y2="18.3"/>
			<linearGradient id="SVGID_8_" gradientUnits="userSpaceOnUse" x1="99.4478" y1="18.3388" x2="215.4501" y2="18.3388">
				<stop  offset="0" style="stop-color:#FFC000;stop-opacity:0.98"/>
				<stop  offset="1" style="stop-color:#FFFFFF"/>
			</linearGradient>
			
				<line fill="none" stroke="url(#SVGID_8_)" stroke-width="3" stroke-linecap="round" stroke-linejoin="round" stroke-dasharray="0,5.9475" x1="106.9" y1="18.3" x2="211" y2="18.3"/>
			<linearGradient id="SVGID_9_" gradientUnits="userSpaceOnUse" x1="99.4478" y1="18.3388" x2="215.4501" y2="18.3388">
				<stop  offset="0" style="stop-color:#FFC000;stop-opacity:0.98"/>
				<stop  offset="1" style="stop-color:#FFFFFF"/>
			</linearGradient>
			
				<line fill="none" stroke="url(#SVGID_9_)" stroke-width="3" stroke-linecap="round" stroke-linejoin="round" x1="214" y1="18.3" x2="214" y2="18.3"/>
		</g>
	</g>
	<g>
		<g>
			<linearGradient id="SVGID_10_" gradientUnits="userSpaceOnUse" x1="99.4478" y1="29.2291" x2="215.45" y2="29.2291">
				<stop  offset="0" style="stop-color:#FFC000;stop-opacity:0.98"/>
				<stop  offset="1" style="stop-color:#FFFFFF"/>
			</linearGradient>
			
				<line fill="none" stroke="url(#SVGID_10_)" stroke-width="3" stroke-linecap="round" stroke-linejoin="round" x1="100.9" y1="29.2" x2="100.9" y2="29.2"/>
			<linearGradient id="SVGID_11_" gradientUnits="userSpaceOnUse" x1="99.4478" y1="29.2291" x2="215.4501" y2="29.2291">
				<stop  offset="0" style="stop-color:#FFC000;stop-opacity:0.98"/>
				<stop  offset="1" style="stop-color:#FFFFFF"/>
			</linearGradient>
			
				<line fill="none" stroke="url(#SVGID_11_)" stroke-width="3" stroke-linecap="round" stroke-linejoin="round" stroke-dasharray="0,5.9475" x1="106.9" y1="29.2" x2="211" y2="29.2"/>
			<linearGradient id="SVGID_12_" gradientUnits="userSpaceOnUse" x1="99.4478" y1="29.2291" x2="215.4501" y2="29.2291">
				<stop  offset="0" style="stop-color:#FFC000;stop-opacity:0.98"/>
				<stop  offset="1" style="stop-color:#FFFFFF"/>
			</linearGradient>
			
				<line fill="none" stroke="url(#SVGID_12_)" stroke-width="3" stroke-linecap="round" stroke-linejoin="round" x1="214" y1="29.2" x2="214" y2="29.2"/>
		</g>
	</g>
	<g>
		<g>
			<linearGradient id="SVGID_13_" gradientUnits="userSpaceOnUse" x1="99.4478" y1="40.1193" x2="215.45" y2="40.1193">
				<stop  offset="0" style="stop-color:#FFC000;stop-opacity:0.98"/>
				<stop  offset="1" style="stop-color:#FFFFFF"/>
			</linearGradient>
			
				<line fill="none" stroke="url(#SVGID_13_)" stroke-width="3" stroke-linecap="round" stroke-linejoin="round" x1="100.9" y1="40.1" x2="100.9" y2="40.1"/>
			<linearGradient id="SVGID_14_" gradientUnits="userSpaceOnUse" x1="99.4478" y1="40.1193" x2="215.4501" y2="40.1193">
				<stop  offset="0" style="stop-color:#FFC000;stop-opacity:0.98"/>
				<stop  offset="1" style="stop-color:#FFFFFF"/>
			</linearGradient>
			
				<line fill="none" stroke="url(#SVGID_14_)" stroke-width="3" stroke-linecap="round" stroke-linejoin="round" stroke-dasharray="0,5.9475" x1="106.9" y1="40.1" x2="211" y2="40.1"/>
			<linearGradient id="SVGID_15_" gradientUnits="userSpaceOnUse" x1="99.4478" y1="40.1193" x2="215.4501" y2="40.1193">
				<stop  offset="0" style="stop-color:#FFC000;stop-opacity:0.98"/>
				<stop  offset="1" style="stop-color:#FFFFFF"/>
			</linearGradient>
			
				<line fill="none" stroke="url(#SVGID_15_)" stroke-width="3" stroke-linecap="round" stroke-linejoin="round" x1="214" y1="40.1" x2="214" y2="40.1"/>
		</g>
	</g>
	<g>
		<g>
			<linearGradient id="SVGID_16_" gradientUnits="userSpaceOnUse" x1="99.4478" y1="51.0096" x2="215.45" y2="51.0096">
				<stop  offset="0" style="stop-color:#FFC000;stop-opacity:0.98"/>
				<stop  offset="1" style="stop-color:#FFFFFF"/>
			</linearGradient>
			
				<line fill="none" stroke="url(#SVGID_16_)" stroke-width="3" stroke-linecap="round" stroke-linejoin="round" x1="100.9" y1="51" x2="100.9" y2="51"/>
			<linearGradient id="SVGID_17_" gradientUnits="userSpaceOnUse" x1="99.4478" y1="51.0096" x2="215.4501" y2="51.0096">
				<stop  offset="0" style="stop-color:#FFC000;stop-opacity:0.98"/>
				<stop  offset="1" style="stop-color:#FFFFFF"/>
			</linearGradient>
			
				<line fill="none" stroke="url(#SVGID_17_)" stroke-width="3" stroke-linecap="round" stroke-linejoin="round" stroke-dasharray="0,5.9475" x1="106.9" y1="51" x2="211" y2="51"/>
			<linearGradient id="SVGID_18_" gradientUnits="userSpaceOnUse" x1="99.4478" y1="51.0096" x2="215.4501" y2="51.0096">
				<stop  offset="0" style="stop-color:#FFC000;stop-opacity:0.98"/>
				<stop  offset="1" style="stop-color:#FFFFFF"/>
			</linearGradient>
			
				<line fill="none" stroke="url(#SVGID_18_)" stroke-width="3" stroke-linecap="round" stroke-linejoin="round" x1="214" y1="51" x2="214" y2="51"/>
		</g>
	</g>
	<g>
		<g>
			<linearGradient id="SVGID_19_" gradientUnits="userSpaceOnUse" x1="99.4478" y1="61.8999" x2="215.45" y2="61.8999">
				<stop  offset="0" style="stop-color:#FFC000;stop-opacity:0.98"/>
				<stop  offset="1" style="stop-color:#FFFFFF"/>
			</linearGradient>
			
				<line fill="none" stroke="url(#SVGID_19_)" stroke-width="3" stroke-linecap="round" stroke-linejoin="round" x1="100.9" y1="61.9" x2="100.9" y2="61.9"/>
			<linearGradient id="SVGID_20_" gradientUnits="userSpaceOnUse" x1="99.4478" y1="61.8999" x2="215.4501" y2="61.8999">
				<stop  offset="0" style="stop-color:#FFC000;stop-opacity:0.98"/>
				<stop  offset="1" style="stop-color:#FFFFFF"/>
			</linearGradient>
			
				<line fill="none" stroke="url(#SVGID_20_)" stroke-width="3" stroke-linecap="round" stroke-linejoin="round" stroke-dasharray="0,5.9475" x1="106.9" y1="61.9" x2="211" y2="61.9"/>
			<linearGradient id="SVGID_21_" gradientUnits="userSpaceOnUse" x1="99.4478" y1="61.8999" x2="215.4501" y2="61.8999">
				<stop  offset="0" style="stop-color:#FFC000;stop-opacity:0.98"/>
				<stop  offset="1" style="stop-color:#FFFFFF"/>
			</linearGradient>
			
				<line fill="none" stroke="url(#SVGID_21_)" stroke-width="3" stroke-linecap="round" stroke-linejoin="round" x1="214" y1="61.9" x2="214" y2="61.9"/>
		</g>
	</g>
	<g>
		<g>
			<linearGradient id="SVGID_22_" gradientUnits="userSpaceOnUse" x1="99.4478" y1="72.7901" x2="215.45" y2="72.7901">
				<stop  offset="0" style="stop-color:#FFC000;stop-opacity:0.98"/>
				<stop  offset="1" style="stop-color:#FFFFFF"/>
			</linearGradient>
			
				<line fill="none" stroke="url(#SVGID_22_)" stroke-width="3" stroke-linecap="round" stroke-linejoin="round" x1="100.9" y1="72.8" x2="100.9" y2="72.8"/>
			<linearGradient id="SVGID_23_" gradientUnits="userSpaceOnUse" x1="99.4478" y1="72.7901" x2="215.4501" y2="72.7901">
				<stop  offset="0" style="stop-color:#FFC000;stop-opacity:0.98"/>
				<stop  offset="1" style="stop-color:#FFFFFF"/>
			</linearGradient>
			
				<line fill="none" stroke="url(#SVGID_23_)" stroke-width="3" stroke-linecap="round" stroke-linejoin="round" stroke-dasharray="0,5.9475" x1="106.9" y1="72.8" x2="211" y2="72.8"/>
			<linearGradient id="SVGID_24_" gradientUnits="userSpaceOnUse" x1="99.4478" y1="72.7901" x2="215.4501" y2="72.7901">
				<stop  offset="0" style="stop-color:#FFC000;stop-opacity:0.98"/>
				<stop  offset="1" style="stop-color:#FFFFFF"/>
			</linearGradient>
			
				<line fill="none" stroke="url(#SVGID_24_)" stroke-width="3" stroke-linecap="round" stroke-linejoin="round" x1="214" y1="72.8" x2="214" y2="72.8"/>
		</g>
	</g>
</g>
<g id="lines">
</g>
</svg>
