<?xml version="1.0" encoding="utf-8"?>
<!-- Generator: Adobe Illustrator 25.2.0, SVG Export Plug-In . SVG Version: 6.00 Build 0)  -->
<svg version="1.1" xmlns="http://www.w3.org/2000/svg" xmlns:xlink="http://www.w3.org/1999/xlink" x="0px" y="0px"
	 viewBox="0 0 143.9 127.6" enable-background="new 0 0 143.9 127.6" xml:space="preserve">
<g id="bg">
	
		<radialGradient id="SVGID_1_" cx="39.8865" cy="112.5878" r="24.5677" gradientTransform="matrix(2.555 0 0 0.1449 -30.9409 101.2766)" gradientUnits="userSpaceOnUse">
		<stop  offset="0" style="stop-color:#999999"/>
		<stop  offset="1" style="stop-color:#999999;stop-opacity:0"/>
	</radialGradient>
	<ellipse fill="url(#SVGID_1_)" cx="71" cy="117.6" rx="64.6" ry="7.7"/>
	<g>
		<g>
			<linearGradient id="SVGID_2_" gradientUnits="userSpaceOnUse" x1="51.8315" y1="23.3417" x2="51.8315" y2="102.6924">
				<stop  offset="0" style="stop-color:#FFFFFF"/>
				<stop  offset="0.9997" style="stop-color:#DDDDDD"/>
			</linearGradient>
			<path fill-rule="evenodd" clip-rule="evenodd" fill="url(#SVGID_2_)" stroke="#FFFFFF" stroke-miterlimit="10" d="M87.9,23.3
				H15.7c-2,0-3.6,1.6-3.6,3.6v72.2c0,2,1.6,3.6,3.6,3.6h72.2c2,0,3.6-1.6,3.6-3.6V26.9C91.5,25,89.9,23.3,87.9,23.3z"/>
		</g>
	</g>
	<g>
		<g>
			<linearGradient id="SVGID_3_" gradientUnits="userSpaceOnUse" x1="72.9917" y1="12.7616" x2="72.9917" y2="92.1123">
				<stop  offset="0" style="stop-color:#FFFFFF"/>
				<stop  offset="0.9997" style="stop-color:#DDDDDD"/>
			</linearGradient>
			<path fill-rule="evenodd" clip-rule="evenodd" fill="url(#SVGID_3_)" stroke="#FFFFFF" stroke-miterlimit="10" d="M109.1,12.8
				H36.9c-2,0-3.6,1.6-3.6,3.6v72.2c0,2,1.6,3.6,3.6,3.6h72.2c2,0,3.6-1.6,3.6-3.6V16.3C112.7,14.4,111.1,12.8,109.1,12.8z"/>
		</g>
	</g>
	<g>
		<g>
			<linearGradient id="SVGID_4_" gradientUnits="userSpaceOnUse" x1="93.0367" y1="2.1815" x2="93.0367" y2="81.5322">
				<stop  offset="0" style="stop-color:#004B91"/>
				<stop  offset="1" style="stop-color:#003363"/>
			</linearGradient>
			<path fill-rule="evenodd" clip-rule="evenodd" fill="url(#SVGID_4_)" stroke="#FFFFFF" stroke-miterlimit="10" d="M129.1,2.2
				H56.9c-2,0-3.6,1.6-3.6,3.6v72.2c0,2,1.6,3.6,3.6,3.6h72.2c2,0,3.6-1.6,3.6-3.6V5.8C132.7,3.8,131.1,2.2,129.1,2.2z"/>
		</g>
	</g>
</g>
<g id="lines">
	<g>
		<path fill="#FFFFFF" d="M116.8,26.1c0.2-0.3,0.3-0.6,0.3-0.9l0,0l0,0c0.1-2.4-3.6-4.2-6.6-5.3c-0.4-0.3-0.7-0.5-1.1-0.8
			c0.1-0.1,0.2-0.2,0.2-0.4c0.5-0.9,0.7-1.8,0.6-2.8c0-0.2-0.1-0.4-0.1-0.6l0.1,0c0.3-0.1,0.5-0.4,0.6-0.7c0.1-0.3,0.1-0.7-0.1-1
			c-0.2-0.4-0.7-0.7-1.1-0.7c-0.2,0-0.4,0-0.6,0.1L109,13c-0.2-0.3-0.5-0.5-0.8-0.7l0.1-0.2c0.1-0.3,0-0.7-0.1-1
			c-0.2-0.3-0.4-0.5-0.8-0.6c-0.1,0-0.2,0-0.3,0c-0.6,0-1.1,0.4-1.2,0.9l0,0.1c-0.1,0-0.1,0-0.2,0c-0.2,0-0.3,0-0.5,0
			c-1.3,0.1-2.4,0.7-3.2,1.7c-0.5-0.8-1.1-1.8-1.8-2.8c-1.8-2.6-3.4-3.8-4.8-3.8c-0.2,0-0.4,0-0.6,0.1c-2.6,0.7-2.2,4.7-1.8,7.1
			C76.9,14,63.8,27.1,63.8,43.1c0,16.1,13.1,29.2,29.2,29.2s29.2-13.1,29.2-29.2C122.3,36.8,120.2,30.9,116.8,26.1z M93,69.9
			c-14.8,0-26.8-12-26.8-26.8c0-14.8,12-26.8,26.8-26.8c14.8,0,26.8,12,26.8,26.8C119.8,57.9,107.8,69.9,93,69.9z"/>
		<g>
			<path fill-rule="evenodd" clip-rule="evenodd" fill="#FFC000" d="M117.5,43.1c0,13.5-11,24.5-24.5,24.5s-24.5-11-24.5-24.5
				s11-24.5,24.5-24.5c3.1,0,6.8-0.1,9.5,1c2.9,1.1,4.6,3.3,6.9,5.3C114.4,29.3,117.5,35.8,117.5,43.1z"/>
			<g>
				<ellipse transform="matrix(0.9631 -0.2692 0.2692 0.9631 -13.706 28.8294)" cx="98.3" cy="64.4" rx="1.3" ry="1.3"/>
				<ellipse transform="matrix(0.9631 -0.2692 0.2692 0.9631 -12.8294 29.5398)" cx="101.3" cy="61.6" rx="1.5" ry="1.5"/>
				<ellipse transform="matrix(0.9631 -0.2692 0.2692 0.9631 -11.4317 30.2046)" cx="104.4" cy="56.8" rx="1.8" ry="1.8"/>
				<ellipse transform="matrix(0.9631 -0.2692 0.2692 0.9631 -9.8786 30.3088)" cx="105.6" cy="51.2" rx="2" ry="2"/>
				<ellipse transform="matrix(0.9631 -0.2692 0.2692 0.9631 -8.6248 29.055)" cx="101.6" cy="46" rx="2.3" ry="2.3"/>
			</g>
			<g>
				<path fill-rule="evenodd" clip-rule="evenodd" fill="#FFFFFF" d="M107.6,18.6c-0.6-1.3-0.3-2.8,0.7-3.8
					C109,16.2,108.7,17.7,107.6,18.6z"/>
				<path d="M94.4,23.1c-0.3,0.7-0.4,1.4-0.4,2.1l5.1,4.2c0.7-0.2,1.4-0.4,2-0.9L94.4,23.1z"/>
				<path d="M93.9,30.6c1.6-0.7,2.3-0.8,3.1-0.9l-2.9-2.4C94.2,28.1,94.2,28.8,93.9,30.6z"/>
				<path d="M103.5,25.5c-0.4-1.5-0.9-3.1-1.5-4.8c-1.8-0.3-3.4-0.5-5-0.5c-0.7,0.4-1.2,0.9-1.7,1.6l7.1,5.8
					C102.8,26.9,103.2,26.2,103.5,25.5z"/>
				<path fill="none" d="M102.8,14.7c1.4,0.3,2.8-0.3,3.5-1.5C105,12.9,103.5,13.5,102.8,14.7z"/>
				<path fill="#FFFFFF" d="M107.1,20.2c-0.5,0-0.8-0.1-0.9-0.1l0,0l0,0c-0.1,0-3.4-1.1-4.7-3.9c-0.7-1.5,0.3-2.9,0.3-2.9
					c0.8-1,2-1.7,3.3-1.8c0.2,0,0.3,0,0.5,0c0,0,0.1,0,0.1,0l0-0.1c0.2-0.6,0.7-1,1.3-1c0.1,0,0.2,0,0.3,0c0.3,0.1,0.6,0.3,0.8,0.6
					c0.2,0.3,0.2,0.7,0.1,1l-0.1,0.2c0.3,0.2,0.5,0.4,0.8,0.6l0.2-0.1c0.2-0.1,0.4-0.1,0.6-0.1c0.5,0,1,0.3,1.2,0.7
					c0.2,0.3,0.2,0.7,0.1,1c-0.1,0.3-0.3,0.6-0.7,0.7l-0.1,0c0,0.2,0.1,0.4,0.1,0.6c0.1,1-0.1,2-0.6,2.8c-0.1,0.2-0.3,0.4-0.5,0.7
					c-0.1,0.2-0.3,0.3-0.4,0.5C108.4,20.1,107.9,20.2,107.1,20.2z"/>
				<path fill-rule="evenodd" clip-rule="evenodd" fill="#FFFFFF" d="M94.4,14.8c0,0,0.3-0.1,0.2-0.5c-0.2-1.6-0.5-5.2,1-4.8
					c1.8,0.4,4.4,4.1,6.6,9.2c-2.8-0.5-4.9-0.6-7.1-0.6C94.5,15.7,94.4,15.2,94.4,14.8z"/>
				<path fill-rule="evenodd" clip-rule="evenodd" fill="#FFFFFF" d="M104,33.5c-1,0.3-2-1-3.5-3.3c-0.1-0.1-0.2-0.2-0.3-0.2
					c1.3-0.4,2.8-1.9,3.6-3.3c0,0,0,0,0,0c0,0,0,0,0,0c0.3-0.5,0.5-1,0.5-1.2C105.3,29.8,105.1,33.1,104,33.5z"/>
				<path fill-rule="evenodd" clip-rule="evenodd" fill="#FFFFFF" d="M105.9,26.9c-0.4-2.2-1-4.3-2-6.9c5.4,1.1,9.5,3,10.3,4.6
					c0.7,1.5-2.9,1.9-4.5,2c-0.3,0-0.3,0.1-0.4,0.3C108.8,27,108.4,27.1,105.9,26.9z"/>
				<path fill-rule="evenodd" clip-rule="evenodd" fill="#FFFFFF" d="M96.8,19.2c-0.3,0.1-0.7,0.4-1.1,0.8c0,0,0,0,0,0c0,0,0,0,0,0
					c-1.2,1-2.4,2.8-2.5,4.1c-0.1-0.1-0.1-0.2-0.3-0.2c-2.5-1-4-1.8-3.9-2.8C89.2,20.1,92.4,19.2,96.8,19.2z"/>
			</g>
			<g>
				<ellipse transform="matrix(0.9631 -0.2692 0.2692 0.9631 -4.3715 24.5274)" cx="87.3" cy="28.2" rx="1.4" ry="1.4"/>
				<ellipse transform="matrix(0.9631 -0.2692 0.2692 0.9631 -5.8782 24.7226)" cx="87.2" cy="33.8" rx="1.8" ry="1.8"/>
				<ellipse transform="matrix(0.9631 -0.2692 0.2692 0.9631 -7.0343 25.5338)" cx="89.6" cy="38.4" rx="2" ry="2"/>
				<ellipse transform="matrix(0.9631 -0.2692 0.2692 0.9631 -7.7637 27.1287)" cx="95" cy="41.9" rx="2.4" ry="2.4"/>
			</g>
			<g>
				<ellipse transform="matrix(0.9631 -0.2692 0.2692 0.9631 -14.0427 27.3199)" cx="92.6" cy="64.9" rx="1.2" ry="1.2"/>
				<ellipse transform="matrix(0.9631 -0.2692 0.2692 0.9631 -13.1196 28.0699)" cx="95.8" cy="61.9" rx="1.4" ry="1.4"/>
				<ellipse transform="matrix(0.9631 -0.2692 0.2692 0.9631 -11.9222 28.5657)" cx="98.2" cy="57.8" rx="1.7" ry="1.7"/>
				<ellipse transform="matrix(0.9631 -0.2692 0.2692 0.9631 -10.442 28.5701)" cx="99" cy="52.4" rx="1.8" ry="1.8"/>
				<ellipse transform="matrix(0.9631 -0.2692 0.2692 0.9631 -9.4427 27.2825)" cx="94.8" cy="48.1" rx="2.1" ry="2.1"/>
			</g>
			<g>
				<ellipse transform="matrix(0.9631 -0.2692 0.2692 0.9631 -5.585 23.5637)" cx="83.1" cy="32.1" rx="1.3" ry="1.3"/>
				<ellipse transform="matrix(0.9631 -0.2692 0.2692 0.9631 -6.9055 23.3778)" cx="81.8" cy="36.9" rx="1.6" ry="1.6"/>
				<ellipse transform="matrix(0.9631 -0.2692 0.2692 0.9631 -7.9432 24.3571)" cx="84.8" cy="41.1" rx="1.8" ry="1.8"/>
				<ellipse transform="matrix(0.9631 -0.2692 0.2692 0.9631 -8.7148 25.7453)" cx="89.5" cy="44.7" rx="2.1" ry="2.1"/>
			</g>
			<g>
				<ellipse transform="matrix(0.9631 -0.2692 0.2692 0.9631 -13.9536 26.0986)" cx="88.2" cy="63.9" rx="1" ry="1"/>
				<ellipse transform="matrix(0.9631 -0.2692 0.2692 0.9631 -13.194 26.8934)" cx="91.5" cy="61.6" rx="1.1" ry="1.1"/>
				<ellipse transform="matrix(0.9631 -0.2692 0.2692 0.9631 -12.2421 27.183)" cx="93" cy="58.2" rx="1.4" ry="1.4"/>
				<ellipse transform="matrix(0.9631 -0.2692 0.2692 0.9631 -11.0305 27.1866)" cx="93.6" cy="53.8" rx="1.5" ry="1.5"/>
				<ellipse transform="matrix(0.9631 -0.2692 0.2692 0.9631 -10.224 26.1012)" cx="90.1" cy="50.3" rx="1.7" ry="1.7"/>
			</g>
			<g>
				<ellipse transform="matrix(0.9631 -0.2692 0.2692 0.9631 -8.171 23.098)" cx="80.1" cy="41.3" rx="1.3" ry="1.3"/>
				<ellipse transform="matrix(0.9631 -0.2692 0.2692 0.9631 -9.0897 23.7497)" cx="82.1" cy="45" rx="1.5" ry="1.5"/>
				<ellipse transform="matrix(0.9631 -0.2692 0.2692 0.9631 -9.7366 24.8644)" cx="85.8" cy="47.9" rx="1.7" ry="1.7"/>
			</g>
			<ellipse transform="matrix(0.9631 -0.2692 0.2692 0.9631 -5.572 25.8107)" cx="91.3" cy="33.2" rx="1" ry="1"/>
			<path d="M109.6,26.6c-0.3,0-0.5,0.3-0.5,0.6l0,0.1c4-0.1,6.6-0.5,6.9-2.3c0.1-1.7-3.6-3.9-9-5.3c0.5-0.2,1-0.6,1.4-1
				c0.1-0.2,0.3-0.3,0.4-0.5c0.4-0.7,0.6-1.4,0.5-2.2c0-0.4-0.2-0.9-0.3-1.2l0,0l0,0l0.9-0.4c0.1-0.1,0.2-0.2,0.1-0.4
				c-0.1-0.1-0.2-0.2-0.4-0.1l-0.9,0.4c-0.4-0.6-1-1.1-1.7-1.4l0.3-1c0-0.1-0.1-0.3-0.2-0.3c-0.1,0-0.3,0.1-0.3,0.2l-0.2,0.9l0,0.1
				c-0.4-0.1-0.8-0.1-1.3-0.1c-1.1,0.1-2,0.6-2.6,1.4c-0.3,0.4-0.6,0.9-0.7,1.4c-0.7-1.3-4.4-8.4-6.9-7.7c-2.2,0.6-1.1,5.8-0.9,7.3
				l0.1,0c0.3,0,0.5-0.3,0.5-0.6c-0.1-0.7-0.2-1.9-0.2-3c0.1-1.3,0.5-1.8,1-1.9c1.6-0.1,4.1,3.8,4.8,5c0.7,1.2,1.4,2.6,2,4.1
				c-7.9-1.3-14.6-0.5-14.9,1.7c-0.2,1.4,2.1,3.1,5.8,4.4l0-0.3c0-0.2-0.1-0.5-0.3-0.6c-2.5-1-4-1.8-3.9-2.8
				c0.2-1.5,6.2-2.6,13.2-1.5l0.5,0.1c0.1,0.2,0.1,0.3,0.2,0.5c2.5,6.6,2.6,12.7,1.2,13.2c-1,0.3-2-1-3.5-3.3
				c-0.1-0.2-0.4-0.3-0.6-0.2l-0.2,0.1c2.1,3.4,4.2,5.3,5.5,4.8c2.1-0.8,1.5-7.5-1.4-15c5.4,1.1,9.5,3,10.3,4.6
				C114.8,26.1,111.2,26.5,109.6,26.6z M102.8,14.7c0.7-1.2,2.2-1.8,3.5-1.5C105.6,14.4,104.2,15,102.8,14.7z M107.6,18.6
				c-0.6-1.3-0.3-2.8,0.7-3.8C109,16.1,108.7,17.7,107.6,18.6z"/>
			<path d="M109.6,26.6c-0.3,0-0.5,0.3-0.5,0.6l0,0.1c4-0.1,6.6-0.5,6.9-2.3c0.1-1.7-3.6-3.9-9-5.3c0.5-0.2,1-0.6,1.4-1
				c0.1-0.2,0.3-0.3,0.4-0.5c0.4-0.7,0.6-1.4,0.5-2.2c0-0.4-0.2-0.9-0.3-1.2l0,0l0,0l0.9-0.4c0.1-0.1,0.2-0.2,0.1-0.4
				c-0.1-0.1-0.2-0.2-0.4-0.1l-0.9,0.4c-0.4-0.6-1-1.1-1.7-1.4l0.3-1c0-0.1-0.1-0.3-0.2-0.3c-0.1,0-0.3,0.1-0.3,0.2l-0.2,0.9l0,0.1
				c-0.4-0.1-0.8-0.1-1.3-0.1c-1.1,0.1-2,0.6-2.6,1.4c-0.3,0.4-0.6,0.9-0.7,1.4c-0.7-1.3-4.4-8.4-6.9-7.7c-2.2,0.6-1.1,5.8-0.9,7.3
				l0.1,0c0.3,0,0.5-0.3,0.5-0.6c-0.1-0.7-0.2-1.9-0.2-3c0.1-1.3,0.5-1.8,1-1.9c1.6-0.1,4.1,3.8,4.8,5c0.7,1.2,1.4,2.6,2,4.1
				c-7.9-1.3-14.6-0.5-14.9,1.7c-0.2,1.4,2.1,3.1,5.8,4.4l0-0.3c0-0.2-0.1-0.5-0.3-0.6c-2.5-1-4-1.8-3.9-2.8
				c0.2-1.5,6.2-2.6,13.2-1.5l0.5,0.1c0.1,0.2,0.1,0.3,0.2,0.5c2.5,6.6,2.6,12.7,1.2,13.2c-1,0.3-2-1-3.5-3.3
				c-0.1-0.2-0.4-0.3-0.6-0.2l-0.2,0.1c2.1,3.4,4.2,5.3,5.5,4.8c2.1-0.8,1.5-7.5-1.4-15c5.4,1.1,9.5,3,10.3,4.6
				C114.8,26.1,111.2,26.5,109.6,26.6z M102.8,14.7c0.7-1.2,2.2-1.8,3.5-1.5C105.6,14.4,104.2,15,102.8,14.7z M107.6,18.6
				c-0.6-1.3-0.3-2.8,0.7-3.8C109,16.1,108.7,17.7,107.6,18.6z"/>
		</g>
	</g>
</g>
</svg>
