<?xml version="1.0" encoding="utf-8"?>
<!-- Generator: Adobe Illustrator 25.2.0, SVG Export Plug-In . SVG Version: 6.00 Build 0)  -->
<svg version="1.1" xmlns="http://www.w3.org/2000/svg" xmlns:xlink="http://www.w3.org/1999/xlink" x="0px" y="0px"
	 viewBox="0 0 223.1 127.6" enable-background="new 0 0 223.1 127.6" xml:space="preserve">
<g id="bg">
	<g transform="translate(0,-952.36218)">
		<linearGradient id="SVGID_1_" gradientUnits="userSpaceOnUse" x1="65.7907" y1="967.1614" x2="65.7907" y2="1043.2515">
			<stop  offset="0" style="stop-color:#FFFFFF"/>
			<stop  offset="0.9997" style="stop-color:#FFFFFF"/>
		</linearGradient>
		<path fill="url(#SVGID_1_)" stroke="#000000" stroke-miterlimit="10" d="M78.5,967.2c-11.7,0-20.3,6.8-24.3,14.8
			c-1.2,2.3-4.1,3.3-6.4,2.1c-4.9-2.4-10.7-2.1-15.3,0.6c-4.6,2.7-8,7.7-8,15.8c0,2.3-1.7,4.3-4,4.7c-8.7,1.5-15.1,10.3-15.1,19.1
			c0,10.6,8.2,19,22.2,19h77.7c11.4,0,20.6-9.2,20.6-20.6c0-10.1-7.1-18.4-16.6-20.3c-2.4-0.5-4.1-2.7-3.9-5.2
			C107.1,982.5,95.4,967.2,78.5,967.2z"/>
	</g>
	
		<radialGradient id="SVGID_2_" cx="-734.9731" cy="111.2666" r="25.5345" gradientTransform="matrix(2.2455 0 0 0.1196 1718.5497 99.4681)" gradientUnits="userSpaceOnUse">
		<stop  offset="0" style="stop-color:#999999"/>
		<stop  offset="1" style="stop-color:#999999;stop-opacity:0"/>
	</radialGradient>
	<ellipse fill="url(#SVGID_2_)" cx="68.2" cy="112.8" rx="59" ry="6.6"/>
	<g transform="translate(0,-952.36218)">
		<linearGradient id="SVGID_3_" gradientUnits="userSpaceOnUse" x1="153.7623" y1="957.2646" x2="153.7623" y2="1033.3546">
			<stop  offset="0" style="stop-color:#FFFFFF"/>
			<stop  offset="0.9997" style="stop-color:#FFFFFF"/>
		</linearGradient>
		<path fill="url(#SVGID_3_)" stroke="#000000" stroke-miterlimit="10" d="M166.4,957.3c-11.7,0-20.3,6.8-24.3,14.8
			c-1.2,2.3-4.1,3.3-6.4,2.1c-4.9-2.4-10.7-2.1-15.3,0.6c-4.6,2.7-8,7.7-8,15.8c0,2.3-1.7,4.3-4,4.7c-8.7,1.5-15.1,10.3-15.1,19.1
			c0,10.6,8.2,19,22.2,19h77.7c11.4,0,20.6-9.2,20.6-20.6c0-10.1-7.1-18.4-16.6-20.3c-2.4-0.5-4.1-2.7-3.9-5.2
			C195,972.6,183.4,957.3,166.4,957.3z"/>
	</g>
	
		<radialGradient id="SVGID_4_" cx="-695.7956" cy="111.2666" r="25.5345" gradientTransform="matrix(2.2455 0 0 0.1196 1718.5497 99.4681)" gradientUnits="userSpaceOnUse">
		<stop  offset="0" style="stop-color:#999999"/>
		<stop  offset="1" style="stop-color:#999999;stop-opacity:0"/>
	</radialGradient>
	<ellipse fill="url(#SVGID_4_)" cx="156.2" cy="112.8" rx="59" ry="6.6"/>
	<g>
		<path fill="#252F3E" d="M53.2,56c0,0.6,0.1,1.1,0.2,1.4c0.1,0.4,0.3,0.7,0.5,1.2C54,58.7,54,58.9,54,59c0,0.2-0.1,0.3-0.3,0.5
			l-1,0.7c-0.1,0.1-0.3,0.1-0.4,0.1c-0.2,0-0.3-0.1-0.5-0.2c-0.2-0.2-0.4-0.5-0.6-0.8c-0.2-0.3-0.3-0.6-0.5-0.9
			c-1.2,1.5-2.8,2.2-4.7,2.2c-1.3,0-2.4-0.4-3.2-1.2c-0.8-0.8-1.2-1.8-1.2-3.1c0-1.4,0.5-2.5,1.5-3.3c1-0.8,2.3-1.2,3.9-1.2
			c0.5,0,1.1,0,1.7,0.1s1.2,0.2,1.8,0.4v-1.2c0-1.2-0.3-2.1-0.8-2.6c-0.5-0.5-1.4-0.7-2.6-0.7c-0.6,0-1.1,0.1-1.7,0.2
			c-0.6,0.1-1.2,0.3-1.7,0.5c-0.3,0.1-0.4,0.2-0.6,0.2s-0.2,0-0.3,0c-0.2,0-0.3-0.2-0.3-0.5v-0.8c0-0.3,0-0.4,0.1-0.6
			c0.1-0.1,0.2-0.2,0.4-0.3c0.6-0.3,1.2-0.5,2-0.7c0.8-0.2,1.6-0.3,2.5-0.3c1.9,0,3.3,0.4,4.2,1.3c0.9,0.9,1.3,2.2,1.3,3.9L53.2,56
			L53.2,56z M46.7,58.5c0.5,0,1.1-0.1,1.6-0.3c0.6-0.2,1.1-0.5,1.5-1c0.3-0.3,0.4-0.6,0.5-1c0.1-0.4,0.2-0.8,0.2-1.4v-0.7
			c-0.5-0.1-1-0.2-1.5-0.3c-0.5-0.1-1-0.1-1.5-0.1c-1.1,0-1.9,0.2-2.4,0.6c-0.5,0.4-0.8,1-0.8,1.8c0,0.8,0.2,1.3,0.6,1.7
			C45.4,58.3,46,58.5,46.7,58.5z M59.5,60.2c-0.3,0-0.5,0-0.6-0.2c-0.1-0.1-0.2-0.3-0.3-0.6l-3.8-12.4c-0.1-0.3-0.1-0.5-0.1-0.6
			c0-0.3,0.1-0.4,0.4-0.4h1.6c0.3,0,0.5,0,0.6,0.2c0.1,0.1,0.2,0.3,0.3,0.6l2.7,10.6l2.5-10.6c0.1-0.3,0.2-0.5,0.3-0.6
			c0.1-0.1,0.4-0.2,0.6-0.2H65c0.3,0,0.5,0,0.6,0.2c0.1,0.1,0.2,0.3,0.3,0.6l2.5,10.7l2.8-10.7c0.1-0.3,0.2-0.5,0.3-0.6
			c0.1-0.1,0.3-0.2,0.6-0.2h1.5c0.3,0,0.4,0.1,0.4,0.4c0,0.1,0,0.2,0,0.3c0,0.1,0,0.2-0.1,0.4l-3.9,12.4C70,59.7,69.9,60,69.7,60
			c-0.1,0.1-0.3,0.2-0.6,0.2h-1.4c-0.3,0-0.5,0-0.6-0.2c-0.1-0.1-0.2-0.3-0.3-0.6l-2.5-10.3l-2.5,10.3c-0.1,0.3-0.2,0.5-0.3,0.6
			c-0.1,0.1-0.4,0.2-0.6,0.2H59.5z M80.1,60.6c-0.8,0-1.7-0.1-2.5-0.3s-1.4-0.4-1.8-0.6c-0.3-0.1-0.4-0.3-0.5-0.4
			c-0.1-0.1-0.1-0.3-0.1-0.4V58c0-0.3,0.1-0.5,0.4-0.5c0.1,0,0.2,0,0.3,0c0.1,0,0.2,0.1,0.4,0.2c0.5,0.2,1.1,0.4,1.8,0.6
			c0.6,0.1,1.3,0.2,1.9,0.2c1,0,1.8-0.2,2.3-0.5s0.8-0.9,0.8-1.5c0-0.4-0.1-0.8-0.4-1.1c-0.3-0.3-0.8-0.6-1.6-0.8l-2.3-0.7
			c-1.2-0.4-2-0.9-2.6-1.6c-0.5-0.7-0.8-1.5-0.8-2.3c0-0.7,0.1-1.3,0.4-1.8c0.3-0.5,0.7-1,1.2-1.3c0.5-0.4,1-0.6,1.7-0.8
			c0.6-0.2,1.3-0.3,2-0.3c0.4,0,0.7,0,1.1,0.1c0.4,0,0.7,0.1,1,0.2c0.3,0.1,0.6,0.2,0.9,0.3c0.3,0.1,0.5,0.2,0.7,0.3
			c0.2,0.1,0.4,0.3,0.5,0.4c0.1,0.1,0.1,0.3,0.1,0.5v0.8c0,0.3-0.1,0.5-0.4,0.5c-0.1,0-0.3-0.1-0.6-0.2C83,48,82,47.8,80.9,47.8
			c-0.9,0-1.6,0.1-2.1,0.4C78.3,48.5,78,49,78,49.6c0,0.4,0.2,0.8,0.5,1.1c0.3,0.3,0.9,0.6,1.8,0.9l2.3,0.7c1.2,0.4,2,0.9,2.5,1.5
			c0.5,0.7,0.7,1.4,0.7,2.2c0,0.7-0.1,1.3-0.4,1.9c-0.3,0.5-0.7,1-1.2,1.4c-0.5,0.4-1.1,0.7-1.8,0.9C81.6,60.5,80.9,60.6,80.1,60.6z
			"/>
		<g>
			<path fill-rule="evenodd" clip-rule="evenodd" fill="#FF9900" d="M83.1,68.4c-5.3,3.9-12.9,5.9-19.5,5.9
				c-9.2,0-17.5-3.4-23.8-9.1c-0.5-0.4,0-1.1,0.5-0.7c6.8,3.9,15.1,6.3,23.8,6.3c5.8,0,12.2-1.2,18.1-3.7
				C83.2,66.8,84,67.7,83.1,68.4z"/>
			<path fill-rule="evenodd" clip-rule="evenodd" fill="#FF9900" d="M85.3,65.9c-0.7-0.9-4.4-0.4-6.2-0.2c-0.5,0.1-0.6-0.4-0.1-0.7
				c3-2.1,7.9-1.5,8.5-0.8c0.6,0.7-0.2,5.7-3,8c-0.4,0.4-0.8,0.2-0.7-0.3C84.5,70.3,86,66.7,85.3,65.9z"/>
		</g>
	</g>
	<g id="layer1" transform="translate(677.9313,-313.85407)">
		<g id="layer1-1" transform="matrix(0.03978217,0,0,0.03978217,-658.51488,317.36166)">
			<path id="path21" fill="#0089D6" d="M2714.1,1456c102.8-18.2,187.7-33.2,188.7-33.4l1.8-0.4l-97-115.4
				c-53.4-63.5-97-115.7-97-116c0-0.6,100.2-276.5,100.8-277.5c0.2-0.3,68.4,117.4,165.3,285.4c90.7,157.3,165.6,287,166.3,288.2
				l1.3,2.2l-308.4,0l-308.4,0C2527.2,1489,2714.1,1456,2714.1,1456z M3896.9,1428.1c-46.9-3-74.3-29.7-81.5-79.8
				c-1.9-13.3-1.9-13.7-2.1-100.1l-0.2-83.6h20.8h20.8l0.2,80.9c0.1,72.9,0.2,81.5,0.9,86.6c2.8,20.8,8.5,34.8,18.1,44.9
				c7.7,8,16.7,12.7,29.1,15.2c5.9,1.2,22.6,1.2,27.9,0c12.6-2.8,22.7-8.3,31.6-17.2c10.2-10.2,17.7-24.6,21.3-40.9l1.2-5.5
				l0.1-81.6l0.1-81.6h21.2h21.2v128.3V1422h-21h-21v-20.3c0-13.8-0.2-20.3-0.5-20.2c-0.3,0.1-1.3,1.7-2.4,3.7
				c-7.2,13.2-19.3,25.3-32.5,32.5C3934.4,1426.4,3918.6,1429.5,3896.9,1428.1L3896.9,1428.1z M4373.4,1427.9
				c-16.6-1.2-34-6.9-48.3-15.8c-30.1-18.6-47.8-49.2-53.1-91.4c-1.8-14.6-2-34.2-0.5-46.6c3.4-27.7,14.3-54.9,29.8-74.3
				c4-5,13-14,18-18c13.4-10.7,29.2-18.2,45.9-21.9c9.7-2.1,26.9-3.1,37.2-2.2c26,2.4,49.8,14.6,65.9,33.9
				c16.4,19.5,25.5,46.9,26.6,80.5c0.2,5.3,0.2,14.5,0.1,20.5l-0.2,11l-90.9,0.1l-90.9,0.1v4.1c0,12.4,3,26.4,8.2,38.4
				c4.5,10.3,12.2,21.6,18.5,27.1c12.9,11.2,28.8,17.9,46.1,19.5c6.4,0.6,22.8,0,30.1-1.2c20.9-3.2,40.8-11.4,56.8-23.4
				c1.9-1.4,3.7-2.7,4-2.9c0.5-0.3,0.6,3.4,0.6,18.9l0,19.3l-4.3,2.7c-18.1,11.2-38.9,18.4-60.9,21.1
				C4405.3,1428.1,4381.2,1428.5,4373.4,1427.9L4373.4,1427.9z M4452.5,1265c0-20.7-8.7-43.7-21.1-55.5
				c-8.8-8.4-19.5-13.6-32.1-15.6c-6-0.9-18.6-0.6-24.9,0.7c-13.3,2.7-24.4,8.6-34,18.1c-10.1,10-17.7,22.2-22.5,36
				c-1.7,5-3.7,13.2-4.4,17.7l-0.3,2.2h69.6h69.6V1265z M3219,1421.4c0.1-0.3,31-81.4,68.6-180.3l68.4-179.7l22,0l22,0l1.8,4.7
				c5.6,14.3,137,355.5,137,355.7c0,0.1-10.5,0.2-23.4,0.2l-23.4,0l-18.9-50.4l-18.9-50.4l-76.3,0l-76.3,0l-0.7,1.7
				c-0.4,0.9-8.5,23.6-18,50.4l-17.3,48.7l-23.4,0C3223.6,1422,3218.8,1421.9,3219,1421.4L3219,1421.4z M3440.2,1282.7
				c0-0.1-12.7-34.6-28.3-76.8c-29.1-78.9-30.8-83.6-33.1-96.3c-1.1-5.9-1.6-6.1-2.3-0.7c-0.5,3.9-2.4,12.5-4,17.3
				c-0.8,2.4-13.9,38.4-29.2,80.1c-15.3,41.6-27.8,75.9-27.8,76.1c0,0.2,28,0.4,62.3,0.4S3440.2,1282.7,3440.2,1282.7z
				 M3552.9,1415.4v-6.6l76-104.5l76-104.5l-68.8-0.2l-68.8-0.2l-0.1-17.5l-0.1-17.5h99.5h99.5v5.9v5.9l-76,105
				c-41.8,57.8-76,105.1-76,105.2c0,0.1,33.8,0.2,75.1,0.2h75.1v17.6v17.6h-105.7h-105.7V1415.4z M4110.5,1421.7
				c-0.2-0.2-0.3-58.1-0.3-128.7v-128.4h20.8h20.8v26.5c0,14.6,0.2,26.5,0.4,26.5s1.2-2.4,2.2-5.3c4.7-13.3,12.8-25.8,23.2-35.7
				c9.4-8.9,20.1-14.3,32.8-16.3c3.6-0.6,6.6-0.7,13.7-0.5c8.9,0.2,13.6,0.9,19.1,2.7l1.7,0.6v21.6v21.6l-4.9-2.5
				c-8.7-4.3-17.2-6.1-27.5-5.5c-6.7,0.3-11.1,1.2-16.4,3.2c-11,4.1-19.9,11.4-26.2,21.4c-9,14.4-15.5,32.9-17.4,49.9
				c-0.3,3.1-0.5,27.9-0.6,77l-0.1,72.5h-20.5C4120,1422,4110.7,1421.9,4110.5,1421.7z M2343.9,1420.8c0-0.2,45.7-79.5,101.6-176.4
				l101.6-176.1l118.4-99.4c65.1-54.7,118.6-99.5,118.8-99.5s-0.6,2.1-1.9,4.8c-1.3,2.7-59.1,126.8-128.6,275.8l-126.3,270.9
				l-91.8,0.1C2385.2,1421,2343.9,1421,2343.9,1420.8z"/>
		</g>
	</g>
</g>
<g id="lines">
</g>
</svg>
