<?xml version="1.0" encoding="UTF-8"?><svg id="Ebene_2" xmlns="http://www.w3.org/2000/svg" viewBox="0 0 1440 700"><circle cx="715.48" cy="195.47" r="142.53" style="fill:#d3d4e3; stroke:#000; stroke-miterlimit:10;"/><g><line x1="339.83" y1="105.07" x2="339.83" y2="75.84" style="fill:none; stroke:#89989f; stroke-miterlimit:10; stroke-width:2px;"/><polygon points="347.31 102.88 339.83 115.84 332.35 102.88 347.31 102.88" style="fill:#89989f;"/><polygon points="347.31 78.03 339.83 65.08 332.35 78.03 347.31 78.03" style="fill:#89989f;"/></g><g><line x1="443.22" y1="206.79" x2="555.77" y2="206.79" style="fill:none; stroke:#89989f; stroke-miterlimit:10; stroke-width:2px;"/><polygon points="445.41 214.27 432.46 206.79 445.41 199.31 445.41 214.27" style="fill:#89989f;"/><polygon points="553.58 214.27 566.53 206.79 553.58 199.31 553.58 214.27" style="fill:#89989f;"/></g><rect x="294.83" y="15.46" width="90" height="50" rx="3.92" ry="3.92" style="fill:#003e6e; stroke:#fff; stroke-miterlimit:10;"/><g><path d="M315.55,43.79c0-.85-.23-1.5-.69-1.96s-1.29-.89-2.5-1.32-2.12-.88-2.76-1.35-1.11-1.01-1.43-1.62-.47-1.3-.47-2.08c0-1.35,.45-2.46,1.35-3.34s2.08-1.31,3.54-1.31c1,0,1.89,.22,2.67,.67,.78,.45,1.38,1.07,1.8,1.86,.42,.8,.63,1.67,.63,2.62h-2.16c0-1.05-.25-1.87-.76-2.45s-1.24-.87-2.19-.87c-.87,0-1.54,.24-2.02,.73-.48,.48-.71,1.17-.71,2.04,0,.72,.26,1.32,.77,1.81,.52,.49,1.31,.92,2.39,1.3,1.68,.56,2.88,1.24,3.6,2.05s1.08,1.88,1.08,3.19c0,1.38-.45,2.49-1.35,3.32s-2.12,1.25-3.67,1.25c-.99,0-1.91-.22-2.75-.65s-1.5-1.04-1.98-1.83-.72-1.69-.72-2.7h2.16c0,1.05,.29,1.88,.88,2.46s1.39,.88,2.41,.88c.95,0,1.66-.24,2.13-.73s.71-1.14,.71-1.98Z" style="fill:#fff;"/><path d="M331.23,42.67c-.09,1.83-.61,3.23-1.54,4.2s-2.25,1.46-3.96,1.46-3.07-.65-4.08-1.95-1.51-3.06-1.51-5.29v-3.09c0-2.22,.52-3.97,1.55-5.26s2.45-1.93,4.24-1.93c1.65,0,2.92,.49,3.83,1.48s1.39,2.39,1.47,4.23h-2.17c-.09-1.39-.39-2.38-.88-2.98s-1.24-.89-2.25-.89c-1.16,0-2.06,.46-2.68,1.37s-.94,2.24-.94,4v3.13c0,1.73,.29,3.05,.87,3.97s1.43,1.38,2.55,1.38,1.92-.28,2.41-.83,.8-1.55,.91-2.99h2.17Z" style="fill:#fff;"/><path d="M342.1,43.63h-5.77l-1.32,4.46h-2.2l5.5-17.06h1.84l5.51,17.06h-2.2l-1.35-4.46Zm-5.2-1.84h4.65l-2.33-7.76-2.32,7.76Z" style="fill:#fff;"/><path d="M347.97,48.1V31.04h4.07c1.99,0,3.54,.62,4.64,1.87s1.65,3,1.65,5.26v2.86c0,2.26-.56,4-1.68,5.23s-2.74,1.85-4.86,1.85h-3.82Zm2.14-15.22v13.38h1.72c1.51,0,2.61-.43,3.3-1.3,.7-.86,1.05-2.14,1.07-3.84v-3.03c0-1.8-.35-3.12-1.04-3.96-.69-.84-1.74-1.26-3.13-1.26h-1.92Z" style="fill:#fff;"/><path d="M369.38,43.63h-5.77l-1.32,4.46h-2.2l5.5-17.06h1.84l5.51,17.06h-2.2l-1.35-4.46Zm-5.2-1.84h4.65l-2.33-7.76-2.32,7.76Z" style="fill:#fff;"/></g><g><line x1="339.83" y1="337.07" x2="339.83" y2="307.85" style="fill:none; stroke:#89989f; stroke-miterlimit:10; stroke-width:2px;"/><polygon points="347.31 334.89 339.83 347.84 332.35 334.89 347.31 334.89" style="fill:#89989f;"/><polygon points="347.31 310.03 339.83 297.08 332.35 310.03 347.31 310.03" style="fill:#89989f;"/></g><rect x="294.83" y="350.46" width="90" height="50" rx="3.92" ry="3.92" style="fill:#003e6e; stroke:#fff; stroke-miterlimit:10;"/><g><path d="M330.77,375.21h-6.04v6.05h7.03v1.84h-9.18v-17.06h9.06v1.84h-6.91v5.5h6.04v1.84Z" style="fill:#fff;"/><path d="M339.67,376.2h-3v6.9h-2.16v-17.06h4.78c1.67,0,2.94,.44,3.8,1.31s1.29,2.15,1.29,3.83c0,1.05-.23,1.97-.7,2.76s-1.12,1.38-1.97,1.78l3.3,7.25v.14h-2.31l-3.04-6.9Zm-3-1.84h2.6c.9,0,1.62-.29,2.15-.87s.8-1.35,.8-2.32c0-2.19-.99-3.29-2.98-3.29h-2.58v6.48Z" style="fill:#fff;"/><path d="M349.39,376.42v6.68h-2.14v-17.06h5.44c1.59,0,2.83,.47,3.74,1.42s1.36,2.21,1.36,3.79-.43,2.9-1.29,3.79-2.08,1.35-3.65,1.38h-3.45Zm0-1.84h3.29c.95,0,1.68-.29,2.19-.86s.76-1.39,.76-2.45-.26-1.85-.79-2.47c-.52-.62-1.24-.93-2.16-.93h-3.3v6.7Z" style="fill:#fff;"/></g><g><line x1="203.22" y1="206.79" x2="240.45" y2="206.79" style="fill:none; stroke:#89989f; stroke-miterlimit:10; stroke-width:2px;"/><polygon points="205.41 214.27 192.46 206.79 205.41 199.31 205.41 214.27" style="fill:#89989f;"/><polygon points="238.26 214.27 251.21 206.79 238.26 199.31 238.26 214.27" style="fill:#89989f;"/></g><rect x="100.83" y="181.79" width="90" height="50" rx="3.92" ry="3.92" style="fill:#003e6e; stroke:#fff; stroke-miterlimit:10;"/><g><path d="M129.2,197.44l4.45,13.92,4.45-13.92h2.77v17.06h-2.14v-6.64l.2-6.66-4.46,13.3h-1.64l-4.44-13.25,.2,6.61v6.64h-2.14v-17.06h2.77Z" style="fill:#fff;"/><path d="M152.74,206.61h-6.04v6.05h7.03v1.84h-9.18v-17.06h9.06v1.84h-6.91v5.5h6.04v1.84Z" style="fill:#fff;"/><path d="M163.93,210.19c0-.85-.23-1.5-.69-1.96s-1.29-.89-2.5-1.32-2.12-.88-2.76-1.35-1.11-1.01-1.43-1.62-.47-1.3-.47-2.08c0-1.35,.45-2.46,1.35-3.34s2.08-1.31,3.54-1.31c1,0,1.89,.22,2.67,.67,.78,.45,1.38,1.07,1.8,1.86,.42,.8,.63,1.67,.63,2.62h-2.16c0-1.05-.25-1.87-.76-2.45s-1.24-.87-2.19-.87c-.87,0-1.54,.24-2.02,.73-.48,.48-.71,1.17-.71,2.04,0,.72,.26,1.32,.77,1.81,.52,.49,1.31,.92,2.39,1.3,1.68,.56,2.88,1.24,3.6,2.05s1.08,1.88,1.08,3.19c0,1.38-.45,2.49-1.35,3.32s-2.12,1.25-3.67,1.25c-.99,0-1.91-.22-2.75-.65s-1.5-1.04-1.98-1.83-.72-1.69-.72-2.7h2.16c0,1.05,.29,1.88,.88,2.46s1.39,.88,2.41,.88c.95,0,1.66-.24,2.13-.73s.71-1.14,.71-1.98Z" style="fill:#fff;"/></g><path d="M573.95,178.67h283.07c-8.32-70.79-68.51-125.72-141.53-125.72s-133.22,54.93-141.53,125.72Z" style="fill:#003e6e; stroke:#000; stroke-miterlimit:10;"/><g><path d="M656.3,115v-25.59h7.91c2.67,0,4.7,.59,6.09,1.78s2.08,2.93,2.08,5.23c0,1.3-.29,2.42-.86,3.36s-1.36,1.62-2.36,2.06c1.15,.33,2.03,.99,2.65,1.98s.93,2.21,.93,3.67c0,2.48-.68,4.36-2.05,5.62s-3.34,1.9-5.93,1.9h-8.47Zm5.17-14.89h2.69c2.03,0,3.04-1.05,3.04-3.15,0-1.16-.23-1.99-.7-2.5s-1.23-.76-2.29-.76h-2.74v6.4Zm0,3.76v6.84h3.3c.93,0,1.63-.29,2.11-.86s.72-1.39,.72-2.44c0-2.3-.83-3.47-2.5-3.53h-3.64Z" style="fill:#fff;"/><path d="M675.67,104.87c0-2.88,.68-5.14,2.04-6.79s3.24-2.46,5.64-2.46,4.32,.82,5.68,2.46,2.04,3.91,2.04,6.82v1.21c0,2.89-.67,5.16-2.02,6.79s-3.23,2.44-5.66,2.44-4.33-.82-5.69-2.45-2.03-3.91-2.03-6.81v-1.21Zm4.99,1.25c0,3.4,.91,5.1,2.72,5.1,1.68,0,2.58-1.42,2.71-4.25l.02-2.09c0-1.73-.24-3.02-.72-3.86s-1.16-1.26-2.04-1.26-1.5,.42-1.98,1.26-.71,2.12-.71,3.86v1.25Z" style="fill:#fff;"/><path d="M699.94,91.3v4.68h2.55v3.73h-2.55v9.45c0,.75,.1,1.27,.31,1.55s.6,.42,1.19,.42c.48,0,.87-.04,1.18-.12l-.04,3.87c-.84,.32-1.76,.47-2.74,.47-3.21,0-4.83-1.84-4.87-5.53v-10.12h-2.2v-3.73h2.2v-4.68h4.97Z" style="fill:#fff;"/><path d="M711,91.3v4.68h2.55v3.73h-2.55v9.45c0,.75,.1,1.27,.31,1.55s.6,.42,1.19,.42c.48,0,.87-.04,1.18-.12l-.04,3.87c-.84,.32-1.76,.47-2.74,.47-3.21,0-4.83-1.84-4.87-5.53v-10.12h-2.2v-3.73h2.2v-4.68h4.97Z" style="fill:#fff;"/><path d="M721.5,115h-4.99v-27h4.99v27Z" style="fill:#fff;"/><path d="M725.34,91.05c0-.77,.25-1.41,.74-1.9s1.15-.74,1.97-.74,1.48,.25,1.97,.74,.74,1.12,.74,1.9-.24,1.39-.73,1.9-1.15,.76-1.98,.76-1.49-.25-1.98-.76-.73-1.14-.73-1.9Zm5.22,23.94h-4.99v-19.02h4.99v19.02Z" style="fill:#fff;"/><path d="M738.97,95.98l.14,1.88c1.12-1.49,2.6-2.23,4.41-2.23,3.27,0,4.95,2.29,5.04,6.87v12.5h-4.99v-12.13c0-1.08-.16-1.86-.48-2.35s-.89-.73-1.7-.73c-.9,0-1.61,.46-2.11,1.39v13.82h-4.99v-19.02h4.68Z" style="fill:#fff;"/><path d="M751.54,104.91c0-3.12,.56-5.44,1.69-6.98s2.7-2.3,4.73-2.3c1.72,0,3.05,.68,3.99,2.04l.19-1.69h4.48v19.02c0,2.43-.68,4.28-2.04,5.56s-3.31,1.92-5.85,1.92c-1.04,0-2.14-.21-3.29-.62s-2-.95-2.57-1.59l1.67-3.45c.47,.49,1.08,.89,1.83,1.2s1.46,.47,2.13,.47c1.11,0,1.91-.27,2.4-.8s.74-1.39,.75-2.58v-1.63c-.95,1.24-2.19,1.86-3.71,1.86-2.03,0-3.59-.79-4.7-2.36s-1.67-3.8-1.7-6.67v-1.41Zm4.97,1.25c0,1.76,.23,3.04,.69,3.84s1.18,1.2,2.18,1.2,1.78-.37,2.27-1.11v-9.09c-.52-.81-1.26-1.21-2.23-1.21s-1.71,.4-2.19,1.21-.71,2.11-.71,3.9v1.25Z" style="fill:#fff;"/><path d="M632.87,146.47c-.13,2.92-.95,5.13-2.46,6.63s-3.64,2.25-6.4,2.25c-2.89,0-5.11-.95-6.65-2.86s-2.31-4.62-2.31-8.15v-4.31c0-3.52,.8-6.23,2.39-8.13s3.81-2.86,6.64-2.86,4.91,.78,6.35,2.34,2.27,3.8,2.47,6.71h-5.19c-.05-1.8-.33-3.05-.83-3.74s-1.44-1.03-2.8-1.03-2.36,.48-2.94,1.45-.88,2.56-.91,4.77v4.83c0,2.54,.28,4.29,.85,5.24s1.54,1.42,2.93,1.42,2.3-.33,2.81-.99,.81-1.86,.88-3.59h5.17Z" style="fill:#fff;"/><path d="M635.22,144.87c0-2.88,.68-5.14,2.04-6.79s3.24-2.46,5.64-2.46,4.32,.82,5.68,2.46,2.04,3.91,2.04,6.82v1.21c0,2.89-.67,5.16-2.02,6.79s-3.23,2.44-5.66,2.44-4.33-.82-5.69-2.45-2.03-3.91-2.03-6.81v-1.21Zm4.99,1.25c0,3.4,.91,5.1,2.72,5.1,1.68,0,2.58-1.42,2.71-4.25l.02-2.09c0-1.73-.24-3.02-.72-3.86s-1.16-1.26-2.04-1.26-1.5,.42-1.98,1.26-.71,2.12-.71,3.86v1.25Z" style="fill:#fff;"/><path d="M658.39,135.98l.14,1.76c1.11-1.41,2.58-2.11,4.41-2.11s3.24,.86,4.03,2.57c1.09-1.71,2.64-2.57,4.66-2.57,3.33,0,5.03,2.3,5.12,6.91v12.46h-4.97v-12.15c0-1.1-.15-1.89-.46-2.36s-.82-.7-1.55-.7c-.93,0-1.62,.57-2.07,1.71l.04,.6v12.9h-4.97v-12.11c0-1.09-.15-1.88-.44-2.36s-.81-.73-1.56-.73c-.86,0-1.54,.46-2.04,1.39v13.82h-4.97v-19.02h4.66Z" style="fill:#fff;"/><path d="M695.23,146.08c0,2.99-.51,5.28-1.54,6.87s-2.55,2.39-4.58,2.39c-1.55,0-2.79-.63-3.73-1.88v8.84h-4.97v-26.33h4.61l.18,1.74c.95-1.39,2.24-2.09,3.88-2.09,2.03,0,3.55,.74,4.58,2.21s1.55,3.74,1.57,6.79v1.46Zm-4.96-1.25c0-1.84-.2-3.14-.61-3.9s-1.09-1.14-2.05-1.14c-1.02,0-1.76,.43-2.23,1.28v8.91c.45,.82,1.2,1.23,2.27,1.23,.98,0,1.67-.42,2.05-1.25s.57-2.13,.57-3.88v-1.25Z" style="fill:#fff;"/><path d="M707.27,155c-.14-.29-.28-.79-.42-1.48-.89,1.22-2.1,1.83-3.62,1.83s-2.92-.53-3.96-1.58-1.57-2.42-1.57-4.1c0-1.99,.64-3.53,1.91-4.62s3.1-1.65,5.49-1.67h1.51v-1.53c0-.86-.15-1.46-.44-1.81s-.72-.53-1.28-.53c-1.24,0-1.86,.73-1.86,2.18h-4.97c0-1.76,.66-3.21,1.98-4.35s2.99-1.71,5-1.71,3.7,.54,4.84,1.63,1.71,2.63,1.71,4.65v8.95c.02,1.64,.26,2.92,.7,3.85v.3h-5.01Zm-2.94-3.55c.55,0,1.02-.11,1.41-.33s.67-.49,.86-.79v-3.96h-1.2c-.84,0-1.51,.27-2,.81s-.73,1.26-.73,2.16c0,1.41,.55,2.11,1.65,2.11Z" style="fill:#fff;"/><path d="M719.74,135.98l.14,1.88c1.12-1.49,2.6-2.23,4.41-2.23,3.27,0,4.95,2.29,5.04,6.87v12.5h-4.99v-12.13c0-1.08-.16-1.86-.48-2.35s-.89-.73-1.7-.73c-.9,0-1.61,.46-2.11,1.39v13.82h-4.99v-19.02h4.68Z" style="fill:#fff;"/><path d="M739,146.72l2.53-10.74h5.31l-6.26,21.87c-.94,3.22-2.7,4.83-5.29,4.83-.6,0-1.28-.11-2.04-.33v-3.88l.58,.02c.77,0,1.36-.15,1.75-.45s.69-.82,.89-1.56l.39-1.28-5.48-19.21h5.34l2.29,10.74Z" style="fill:#fff;"/><path d="M774.16,129.4v17.72c-.02,2.66-.76,4.7-2.2,6.11s-3.51,2.12-6.21,2.12-4.84-.71-6.28-2.14-2.17-3.5-2.17-6.21v-17.6h5.2v17.61c0,1.45,.23,2.49,.7,3.11s1.32,.93,2.55,.93,2.07-.31,2.53-.92,.69-1.63,.7-3.03v-17.7h5.17Z" style="fill:#fff;"/><path d="M795.97,155h-5.17l-7.56-16.79v16.79h-5.17v-25.59h5.17l7.58,16.8v-16.8h5.15v25.59Z" style="fill:#fff;"/><path d="M810.93,148.28c0-1.04-.27-1.83-.8-2.36s-1.5-1.09-2.91-1.66c-2.57-.97-4.41-2.11-5.54-3.42s-1.69-2.85-1.69-4.63c0-2.16,.76-3.89,2.29-5.19s3.47-1.96,5.83-1.96c1.57,0,2.97,.33,4.2,.99s2.18,1.6,2.84,2.8,.99,2.58,.99,4.11h-5.15c0-1.2-.25-2.11-.76-2.73s-1.25-.94-2.21-.94c-.9,0-1.61,.27-2.11,.8s-.76,1.25-.76,2.15c0,.7,.28,1.34,.84,1.91s1.56,1.16,2.99,1.77c2.5,.9,4.31,2.01,5.44,3.32s1.7,2.98,1.7,5.01c0,2.23-.71,3.97-2.13,5.22s-3.35,1.88-5.78,1.88c-1.65,0-3.16-.34-4.52-1.02s-2.42-1.65-3.19-2.92-1.15-2.76-1.15-4.48h5.19c0,1.48,.29,2.55,.86,3.22s1.51,1,2.81,1c1.8,0,2.71-.96,2.71-2.87Z" style="fill:#fff;"/></g><circle cx="339.83" cy="204.5" r="86" style="fill:#ebe3cb; stroke:#000; stroke-miterlimit:10;"/><path d="M254.43,194.36h170.8c-5.02-42.72-41.34-75.86-85.4-75.86s-80.38,33.14-85.4,75.86Z" style="fill:#89989f; stroke:#000; stroke-miterlimit:10;"/><g><path d="M303.79,177.57v-22.75h7.03c2.38,0,4.18,.53,5.41,1.59,1.23,1.06,1.85,2.61,1.85,4.65,0,1.16-.26,2.15-.77,2.98-.51,.83-1.21,1.44-2.09,1.83,1.02,.29,1.81,.88,2.36,1.76,.55,.88,.83,1.97,.83,3.26,0,2.21-.61,3.88-1.82,5-1.21,1.12-2.97,1.69-5.27,1.69h-7.53Zm4.59-13.23h2.39c1.8,0,2.7-.93,2.7-2.8,0-1.03-.21-1.77-.62-2.22-.42-.45-1.09-.67-2.03-.67h-2.44v5.69Zm0,3.34v6.08h2.94c.82,0,1.45-.25,1.88-.77,.43-.51,.64-1.23,.64-2.17,0-2.04-.74-3.09-2.22-3.14h-3.23Z" style="fill:#fff;"/><path d="M328.35,177.89c-2.27,0-4.04-.68-5.31-2.03-1.27-1.35-1.91-3.29-1.91-5.81v-1.34c0-2.67,.58-4.72,1.75-6.17,1.17-1.45,2.84-2.17,5.02-2.17s3.72,.68,4.8,2.04c1.07,1.36,1.62,3.37,1.64,6.03v2.17h-8.8c.06,1.26,.34,2.17,.83,2.75,.49,.58,1.24,.87,2.27,.87,1.48,0,2.71-.5,3.7-1.52l1.73,2.67c-.54,.75-1.33,1.36-2.36,1.82s-2.15,.7-3.36,.7Zm-2.78-10.38h4.42v-.41c-.02-1.01-.19-1.78-.5-2.3-.31-.52-.85-.78-1.62-.78s-1.33,.28-1.68,.83c-.35,.55-.55,1.44-.62,2.66Z" style="fill:#fff;"/><path d="M345.18,164.93l-1.47-.12c-1.21,0-2.03,.53-2.45,1.59v11.17h-4.44v-16.91h4.17l.12,1.83c.7-1.43,1.66-2.14,2.89-2.14,.5,0,.91,.07,1.22,.2l-.05,4.38Z" style="fill:#fff;"/><path d="M352.08,177.57h-4.44v-24h4.44v24Z" style="fill:#fff;"/><path d="M355.51,156.29c0-.69,.22-1.25,.66-1.69s1.02-.66,1.75-.66,1.31,.22,1.75,.66,.66,1,.66,1.69-.22,1.24-.65,1.69c-.43,.45-1.02,.67-1.76,.67s-1.33-.22-1.76-.67c-.43-.45-.65-1.01-.65-1.69Zm4.64,21.28h-4.44v-16.91h4.44v16.91Z" style="fill:#fff;"/><path d="M367.62,160.67l.12,1.67c1-1.32,2.31-1.98,3.92-1.98,2.91,0,4.4,2.04,4.48,6.11v11.11h-4.44v-10.78c0-.96-.14-1.65-.43-2.09-.29-.43-.79-.65-1.51-.65-.8,0-1.43,.41-1.88,1.23v12.28h-4.44v-16.91h4.16Z" style="fill:#fff;"/></g><g><path d="M674.99,241.95l-8.82,7.19v-17.3c0-.58-.47-1.06-1.05-1.06-.24,0-.48,.08-.67,.24l-22.19,18.13v-17.33c0-.41-.23-.78-.6-.96-.37-.17-.8-.12-1.12,.14l-24.03,19.55c-.24,.2-.38,.5-.38,.81v24.7c0,.58,.47,1.06,1.06,1.06h71.86c.58,0,1.06-.47,1.06-1.06v-44.24c0-.39-.23-.75-.58-.93-.37-.18-.8-.13-1.12,.13l-3.58,2.92-9.82,8.02Zm9.82-8.02l-.89-18.46h0l-.32-6.8c-.03-.56-.49-1-1.06-1h-4.91c-.56,0-1.03,.44-1.06,1l-1.6,33.28m-28.7,35.33v-11.38h13.62v11.38" style="fill:none; stroke:#000; stroke-miterlimit:10; stroke-width:2px;"/><line x1="676.07" y1="214.79" x2="683.8" y2="214.79" style="fill:none; stroke:#000; stroke-miterlimit:10; stroke-width:2px;"/></g><g><path d="M717.66,246.34c-3.16-2.82-2.82-11.05-2.82-11.05h-5.19s.56,8.57-2.82,11.05c-2.83,2.08-2.48,5.64-2.48,5.64v25.27h15.79v-25.27s.14-3.3-2.48-5.64Z" style="fill:none; stroke:#000; stroke-miterlimit:10; stroke-width:2px;"/><rect x="708.57" y="231.54" width="7.33" height="3.52" rx="1.14" ry="1.14" style="fill:none; stroke:#000; stroke-miterlimit:10; stroke-width:2px;"/><rect x="708.49" y="255.75" width="7.5" height="13.67" rx="1.38" ry="1.38" style="fill:none; stroke:#000; stroke-miterlimit:10; stroke-width:2px;"/><line x1="708.4" y1="260.33" x2="704.73" y2="260.33" style="fill:none; stroke:#000; stroke-miterlimit:10; stroke-width:2px;"/><line x1="708.4" y1="265.33" x2="704.73" y2="265.33" style="fill:none; stroke:#000; stroke-miterlimit:10; stroke-width:2px;"/><line x1="720.4" y1="260.33" x2="716.73" y2="260.33" style="fill:none; stroke:#000; stroke-miterlimit:10; stroke-width:2px;"/><line x1="720.4" y1="265.33" x2="716.73" y2="265.33" style="fill:none; stroke:#000; stroke-miterlimit:10; stroke-width:2px;"/></g><g><path d="M742.66,246.34c-3.16-2.82-2.82-11.05-2.82-11.05h-5.19s.56,8.57-2.82,11.05c-2.83,2.08-2.48,5.64-2.48,5.64v25.27h15.79v-25.27s.14-3.3-2.48-5.64Z" style="fill:none; stroke:#000; stroke-miterlimit:10; stroke-width:2px;"/><rect x="733.57" y="231.54" width="7.33" height="3.52" rx="1.14" ry="1.14" style="fill:none; stroke:#000; stroke-miterlimit:10; stroke-width:2px;"/><rect x="733.49" y="255.75" width="7.5" height="13.67" rx="1.38" ry="1.38" style="fill:none; stroke:#000; stroke-miterlimit:10; stroke-width:2px;"/><line x1="733.4" y1="260.33" x2="729.73" y2="260.33" style="fill:none; stroke:#000; stroke-miterlimit:10; stroke-width:2px;"/><line x1="733.4" y1="265.33" x2="729.73" y2="265.33" style="fill:none; stroke:#000; stroke-miterlimit:10; stroke-width:2px;"/><line x1="745.4" y1="260.33" x2="741.73" y2="260.33" style="fill:none; stroke:#000; stroke-miterlimit:10; stroke-width:2px;"/><line x1="745.4" y1="265.33" x2="741.73" y2="265.33" style="fill:none; stroke:#000; stroke-miterlimit:10; stroke-width:2px;"/></g><g><path d="M767.66,246.34c-3.16-2.82-2.82-11.05-2.82-11.05h-5.19s.56,8.57-2.82,11.05c-2.83,2.08-2.48,5.64-2.48,5.64v25.27h15.79v-25.27s.14-3.3-2.48-5.64Z" style="fill:none; stroke:#000; stroke-miterlimit:10; stroke-width:2px;"/><rect x="758.57" y="231.54" width="7.33" height="3.52" rx="1.14" ry="1.14" style="fill:none; stroke:#000; stroke-miterlimit:10; stroke-width:2px;"/><rect x="758.49" y="255.75" width="7.5" height="13.67" rx="1.38" ry="1.38" style="fill:none; stroke:#000; stroke-miterlimit:10; stroke-width:2px;"/><line x1="758.4" y1="260.33" x2="754.73" y2="260.33" style="fill:none; stroke:#000; stroke-miterlimit:10; stroke-width:2px;"/><line x1="758.4" y1="265.33" x2="754.73" y2="265.33" style="fill:none; stroke:#000; stroke-miterlimit:10; stroke-width:2px;"/><line x1="770.4" y1="260.33" x2="766.73" y2="260.33" style="fill:none; stroke:#000; stroke-miterlimit:10; stroke-width:2px;"/><line x1="770.4" y1="265.33" x2="766.73" y2="265.33" style="fill:none; stroke:#000; stroke-miterlimit:10; stroke-width:2px;"/></g><g><path d="M792.66,246.34c-3.16-2.82-2.82-11.05-2.82-11.05h-5.19s.56,8.57-2.82,11.05c-2.83,2.08-2.48,5.64-2.48,5.64v25.27h15.79v-25.27s.14-3.3-2.48-5.64Z" style="fill:none; stroke:#000; stroke-miterlimit:10; stroke-width:2px;"/><rect x="783.57" y="231.54" width="7.33" height="3.52" rx="1.14" ry="1.14" style="fill:none; stroke:#000; stroke-miterlimit:10; stroke-width:2px;"/><rect x="783.49" y="255.75" width="7.5" height="13.67" rx="1.38" ry="1.38" style="fill:none; stroke:#000; stroke-miterlimit:10; stroke-width:2px;"/><line x1="783.4" y1="260.33" x2="779.73" y2="260.33" style="fill:none; stroke:#000; stroke-miterlimit:10; stroke-width:2px;"/><line x1="783.4" y1="265.33" x2="779.73" y2="265.33" style="fill:none; stroke:#000; stroke-miterlimit:10; stroke-width:2px;"/><line x1="795.4" y1="260.33" x2="791.73" y2="260.33" style="fill:none; stroke:#000; stroke-miterlimit:10; stroke-width:2px;"/><line x1="795.4" y1="265.33" x2="791.73" y2="265.33" style="fill:none; stroke:#000; stroke-miterlimit:10; stroke-width:2px;"/></g><g><path d="M817.66,246.34c-3.16-2.82-2.82-11.05-2.82-11.05h-5.19s.56,8.57-2.82,11.05c-2.83,2.08-2.48,5.64-2.48,5.64v25.27h15.79v-25.27s.14-3.3-2.48-5.64Z" style="fill:none; stroke:#000; stroke-miterlimit:10; stroke-width:2px;"/><rect x="808.57" y="231.54" width="7.33" height="3.52" rx="1.14" ry="1.14" style="fill:none; stroke:#000; stroke-miterlimit:10; stroke-width:2px;"/><rect x="808.49" y="255.75" width="7.5" height="13.67" rx="1.38" ry="1.38" style="fill:none; stroke:#000; stroke-miterlimit:10; stroke-width:2px;"/><line x1="808.4" y1="260.33" x2="804.73" y2="260.33" style="fill:none; stroke:#000; stroke-miterlimit:10; stroke-width:2px;"/><line x1="808.4" y1="265.33" x2="804.73" y2="265.33" style="fill:none; stroke:#000; stroke-miterlimit:10; stroke-width:2px;"/><line x1="820.4" y1="260.33" x2="816.73" y2="260.33" style="fill:none; stroke:#000; stroke-miterlimit:10; stroke-width:2px;"/><line x1="820.4" y1="265.33" x2="816.73" y2="265.33" style="fill:none; stroke:#000; stroke-miterlimit:10; stroke-width:2px;"/></g><g><path d="M327.27,225.41v18.19c-.02,2.43-.73,4.32-2.11,5.7s-3.31,2.06-5.78,2.06-4.46-.67-5.8-2.01-2.02-3.25-2.04-5.74v-18.19h3.2v18.06c0,1.72,.37,3.01,1.1,3.86,.73,.85,1.91,1.27,3.54,1.27s2.83-.42,3.56-1.27c.73-.85,1.1-2.13,1.1-3.86v-18.06h3.23Z"/><path d="M348.95,251h-3.23l-10.25-19.72v19.72h-3.23v-25.59h3.23l10.28,19.81v-19.81h3.2v25.59Z"/><path d="M365.7,244.53c0-1.28-.35-2.26-1.04-2.94s-1.94-1.34-3.74-1.99-3.18-1.32-4.14-2.03-1.67-1.52-2.14-2.43-.71-1.95-.71-3.12c0-2.03,.68-3.7,2.03-5.01s3.13-1.97,5.32-1.97c1.5,0,2.84,.33,4.01,1s2.07,1.6,2.71,2.79,.95,2.51,.95,3.94h-3.23c0-1.58-.38-2.81-1.14-3.67s-1.86-1.3-3.29-1.3c-1.3,0-2.31,.36-3.02,1.09s-1.07,1.75-1.07,3.06c0,1.08,.39,1.98,1.16,2.71,.77,.73,1.97,1.38,3.59,1.95,2.52,.83,4.32,1.86,5.41,3.08s1.63,2.81,1.63,4.78c0,2.07-.67,3.74-2.02,4.98s-3.18,1.87-5.5,1.87c-1.49,0-2.86-.33-4.12-.98s-2.25-1.56-2.97-2.74-1.08-2.53-1.08-4.05h3.23c0,1.58,.44,2.81,1.33,3.69s2.09,1.32,3.61,1.32c1.42,0,2.48-.36,3.2-1.09s1.07-1.72,1.07-2.97Z"/></g><g><line x1="1091.17" y1="105.07" x2="1091.17" y2="78.84" style="fill:none; stroke:#89989f; stroke-miterlimit:10; stroke-width:2px;"/><polygon points="1098.65 102.88 1091.17 115.84 1083.69 102.88 1098.65 102.88" style="fill:#89989f;"/><polygon points="1098.65 81.03 1091.17 68.08 1083.69 81.03 1098.65 81.03" style="fill:#89989f;"/></g><g><line x1="981.8" y1="206.79" x2="874.55" y2="206.79" style="fill:none; stroke:#89989f; stroke-miterlimit:10; stroke-width:2px;"/><polygon points="979.61 199.31 992.56 206.79 979.61 214.27 979.61 199.31" style="fill:#89989f;"/><polygon points="876.74 199.31 863.79 206.79 876.74 214.27 876.74 199.31" style="fill:#89989f;"/></g><rect x="1045.17" y="18.46" width="90" height="50" rx="3.92" ry="3.92" style="fill:#003e6e; stroke:#fff; stroke-miterlimit:10;"/><g><path d="M1065.88,46.79c0-.85-.23-1.5-.69-1.96s-1.29-.89-2.5-1.32-2.12-.88-2.76-1.35-1.11-1.01-1.43-1.62-.47-1.3-.47-2.08c0-1.35,.45-2.46,1.35-3.34s2.08-1.31,3.54-1.31c1,0,1.89,.22,2.67,.67,.78,.45,1.38,1.07,1.8,1.86,.42,.8,.63,1.67,.63,2.62h-2.16c0-1.05-.25-1.87-.76-2.45s-1.24-.87-2.19-.87c-.87,0-1.54,.24-2.02,.73-.48,.48-.71,1.17-.71,2.04,0,.72,.26,1.32,.77,1.81,.52,.49,1.31,.92,2.39,1.3,1.68,.56,2.88,1.24,3.6,2.05s1.08,1.88,1.08,3.19c0,1.38-.45,2.49-1.35,3.32s-2.12,1.25-3.67,1.25c-.99,0-1.91-.22-2.75-.65s-1.5-1.04-1.98-1.83-.72-1.69-.72-2.7h2.16c0,1.05,.29,1.88,.88,2.46s1.39,.88,2.41,.88c.95,0,1.66-.24,2.13-.73s.71-1.14,.71-1.98Z" style="fill:#fff;"/><path d="M1081.56,45.67c-.09,1.83-.61,3.23-1.54,4.2s-2.25,1.46-3.96,1.46-3.07-.65-4.08-1.95-1.51-3.06-1.51-5.29v-3.09c0-2.22,.52-3.97,1.55-5.26s2.45-1.93,4.24-1.93c1.65,0,2.92,.49,3.83,1.48s1.39,2.39,1.47,4.23h-2.17c-.09-1.39-.39-2.38-.88-2.98s-1.24-.89-2.25-.89c-1.16,0-2.06,.46-2.68,1.37s-.94,2.24-.94,4v3.13c0,1.73,.29,3.05,.87,3.97s1.43,1.38,2.55,1.38,1.92-.28,2.41-.83,.8-1.55,.91-2.99h2.17Z" style="fill:#fff;"/><path d="M1092.43,46.63h-5.77l-1.32,4.46h-2.2l5.5-17.06h1.84l5.51,17.06h-2.2l-1.35-4.46Zm-5.2-1.84h4.65l-2.33-7.76-2.32,7.76Z" style="fill:#fff;"/><path d="M1098.3,51.1v-17.06h4.07c1.99,0,3.54,.62,4.64,1.87s1.65,3,1.65,5.26v2.86c0,2.26-.56,4-1.68,5.23s-2.74,1.85-4.86,1.85h-3.82Zm2.14-15.22v13.38h1.72c1.51,0,2.61-.43,3.3-1.3,.7-.86,1.05-2.14,1.07-3.84v-3.03c0-1.8-.35-3.12-1.04-3.96-.69-.84-1.74-1.26-3.13-1.26h-1.92Z" style="fill:#fff;"/><path d="M1119.71,46.63h-5.77l-1.32,4.46h-2.2l5.5-17.06h1.84l5.51,17.06h-2.2l-1.35-4.46Zm-5.2-1.84h4.65l-2.33-7.76-2.32,7.76Z" style="fill:#fff;"/></g><g><line x1="1091.17" y1="333.07" x2="1091.17" y2="306.85" style="fill:none; stroke:#89989f; stroke-miterlimit:10; stroke-width:2px;"/><polygon points="1098.65 330.89 1091.17 343.84 1083.69 330.89 1098.65 330.89" style="fill:#89989f;"/><polygon points="1098.65 309.03 1091.17 296.08 1083.69 309.03 1098.65 309.03" style="fill:#89989f;"/></g><rect x="1045.17" y="347.46" width="90" height="50" rx="3.92" ry="3.92" style="fill:#003e6e; stroke:#fff; stroke-miterlimit:10;"/><g><path d="M1081.1,372.21h-6.04v6.05h7.03v1.84h-9.18v-17.06h9.06v1.84h-6.91v5.5h6.04v1.84Z" style="fill:#fff;"/><path d="M1090,373.2h-3v6.9h-2.16v-17.06h4.78c1.67,0,2.94,.44,3.8,1.31s1.29,2.15,1.29,3.83c0,1.05-.23,1.97-.7,2.76s-1.12,1.38-1.97,1.78l3.3,7.25v.14h-2.31l-3.04-6.9Zm-3-1.84h2.6c.9,0,1.62-.29,2.15-.87s.8-1.35,.8-2.32c0-2.19-.99-3.29-2.98-3.29h-2.58v6.48Z" style="fill:#fff;"/><path d="M1099.72,373.42v6.68h-2.14v-17.06h5.44c1.59,0,2.83,.47,3.74,1.42s1.36,2.21,1.36,3.79-.43,2.9-1.29,3.79-2.08,1.35-3.65,1.38h-3.45Zm0-1.84h3.29c.95,0,1.68-.29,2.19-.86s.76-1.39,.76-2.45-.26-1.85-.79-2.47c-.52-.62-1.24-.93-2.16-.93h-3.3v6.7Z" style="fill:#fff;"/></g><g><line x1="1228.95" y1="206.79" x2="1191.72" y2="206.79" style="fill:none; stroke:#89989f; stroke-miterlimit:10; stroke-width:2px;"/><polygon points="1226.76 199.31 1239.72 206.79 1226.76 214.27 1226.76 199.31" style="fill:#89989f;"/><polygon points="1193.91 199.31 1180.96 206.79 1193.91 214.27 1193.91 199.31" style="fill:#89989f;"/></g><rect x="1244.17" y="181.79" width="90" height="50" rx="3.92" ry="3.92" style="fill:#003e6e; stroke:#fff; stroke-miterlimit:10;"/><g><path d="M1272.53,197.44l4.45,13.92,4.45-13.92h2.77v17.06h-2.14v-6.64l.2-6.66-4.46,13.3h-1.64l-4.44-13.25,.2,6.61v6.64h-2.14v-17.06h2.77Z" style="fill:#fff;"/><path d="M1296.07,206.61h-6.04v6.05h7.03v1.84h-9.18v-17.06h9.06v1.84h-6.91v5.5h6.04v1.84Z" style="fill:#fff;"/><path d="M1307.27,210.19c0-.85-.23-1.5-.69-1.96s-1.29-.89-2.5-1.32-2.12-.88-2.76-1.35-1.11-1.01-1.43-1.62-.47-1.3-.47-2.08c0-1.35,.45-2.46,1.35-3.34s2.08-1.31,3.54-1.31c1,0,1.89,.22,2.67,.67,.78,.45,1.38,1.07,1.8,1.86,.42,.8,.63,1.67,.63,2.62h-2.16c0-1.05-.25-1.87-.76-2.45s-1.24-.87-2.19-.87c-.87,0-1.54,.24-2.02,.73-.48,.48-.71,1.17-.71,2.04,0,.72,.26,1.32,.77,1.81,.52,.49,1.31,.92,2.39,1.3,1.68,.56,2.88,1.24,3.6,2.05s1.08,1.88,1.08,3.19c0,1.38-.45,2.49-1.35,3.32s-2.12,1.25-3.67,1.25c-.99,0-1.91-.22-2.75-.65s-1.5-1.04-1.98-1.83-.72-1.69-.72-2.7h2.16c0,1.05,.29,1.88,.88,2.46s1.39,.88,2.41,.88c.95,0,1.66-.24,2.13-.73s.71-1.14,.71-1.98Z" style="fill:#fff;"/></g><circle cx="1090.17" cy="204.5" r="86" style="fill:#ebe3cb; stroke:#000; stroke-miterlimit:10;"/><path d="M1004.76,194.36h170.8c-5.02-42.72-41.34-75.86-85.4-75.86s-80.38,33.14-85.4,75.86Z" style="fill:#f60; stroke:#000; stroke-miterlimit:10;"/><g><path d="M1049.73,177.57h-4.58v-9.73h-6.78v9.73h-4.59v-22.75h4.59v9.2h6.78v-9.2h4.58v22.75Z" style="fill:#fff;"/><path d="M1061.23,177.57c-.12-.26-.25-.7-.38-1.31-.79,1.08-1.87,1.62-3.22,1.62s-2.59-.47-3.52-1.41c-.93-.94-1.4-2.15-1.4-3.64,0-1.77,.56-3.14,1.7-4.11,1.13-.97,2.76-1.46,4.88-1.48h1.34v-1.36c0-.76-.13-1.3-.39-1.61-.26-.31-.64-.47-1.14-.47-1.1,0-1.66,.65-1.66,1.94h-4.42c0-1.56,.59-2.85,1.76-3.87s2.65-1.52,4.45-1.52,3.29,.48,4.3,1.45c1.02,.96,1.52,2.34,1.52,4.13v7.95c.02,1.46,.23,2.6,.62,3.42v.27h-4.45Zm-2.61-3.16c.49,0,.91-.1,1.25-.3,.34-.2,.6-.43,.77-.7v-3.52h-1.06c-.75,0-1.34,.24-1.77,.72-.43,.48-.65,1.12-.65,1.92,0,1.25,.49,1.88,1.47,1.88Z" style="fill:#fff;"/><path d="M1072.42,160.67l.12,1.56c.99-1.25,2.3-1.88,3.92-1.88s2.88,.76,3.58,2.28c.97-1.52,2.35-2.28,4.14-2.28,2.96,0,4.47,2.05,4.55,6.14v11.08h-4.42v-10.8c0-.98-.14-1.68-.41-2.09-.27-.42-.73-.62-1.38-.62-.82,0-1.44,.51-1.84,1.52l.03,.53v11.47h-4.42v-10.77c0-.97-.13-1.67-.39-2.1-.26-.43-.72-.65-1.39-.65-.76,0-1.37,.41-1.81,1.23v12.28h-4.42v-16.91h4.14Z" style="fill:#fff;"/><path d="M1105.18,169.67c0,2.74-.44,4.79-1.31,6.16-.88,1.37-2.25,2.05-4.12,2.05-1.47,0-2.65-.66-3.53-1.98l-.14,1.67h-4.08v-24h4.42v8.47c.83-1.12,1.93-1.69,3.3-1.69,1.88,0,3.25,.68,4.12,2.04s1.32,3.35,1.34,5.98v1.3Zm-4.42-1.11c0-1.78-.17-2.98-.52-3.59s-.94-.91-1.8-.91c-.93,0-1.6,.42-2.03,1.27v7.7c.4,.79,1.08,1.19,2.06,1.19,.84,0,1.43-.28,1.76-.83,.33-.55,.5-1.62,.52-3.22v-1.61Z" style="fill:#fff;"/><path d="M1116.15,176.03c-.92,1.24-2.15,1.86-3.69,1.86s-2.73-.53-3.53-1.6c-.8-1.07-1.2-2.62-1.2-4.66v-10.95h4.42v11.06c.02,1.65,.57,2.47,1.64,2.47,1.01,0,1.74-.44,2.19-1.31v-12.22h4.45v16.91h-4.16l-.12-1.55Z" style="fill:#fff;"/><path d="M1131.93,164.93l-1.47-.12c-1.21,0-2.03,.53-2.45,1.59v11.17h-4.44v-16.91h4.17l.12,1.83c.7-1.43,1.66-2.14,2.89-2.14,.5,0,.91,.07,1.22,.2l-.05,4.38Z" style="fill:#fff;"/><path d="M1133.37,168.61c0-2.77,.5-4.84,1.5-6.2,1-1.36,2.4-2.05,4.2-2.05,1.53,0,2.71,.6,3.55,1.81l.17-1.5h3.98v16.91c0,2.16-.6,3.8-1.81,4.95-1.21,1.14-2.94,1.71-5.2,1.71-.93,0-1.9-.19-2.92-.55-1.02-.37-1.78-.84-2.28-1.41l1.48-3.06c.42,.44,.96,.79,1.62,1.07,.67,.28,1.3,.41,1.89,.41,.99,0,1.7-.24,2.13-.71,.43-.47,.65-1.24,.66-2.29v-1.45c-.84,1.1-1.94,1.66-3.3,1.66-1.8,0-3.2-.7-4.18-2.1-.98-1.4-1.49-3.38-1.51-5.93v-1.25Zm4.42,1.11c0,1.56,.2,2.7,.61,3.41,.41,.71,1.05,1.07,1.94,1.07s1.58-.33,2.02-.98v-8.08c-.46-.72-1.12-1.08-1.98-1.08s-1.52,.36-1.95,1.08-.63,1.88-.63,3.47v1.11Z" style="fill:#fff;"/></g><g><path d="M1077.61,225.41v18.19c-.02,2.43-.73,4.32-2.11,5.7s-3.31,2.06-5.78,2.06-4.46-.67-5.8-2.01-2.02-3.25-2.04-5.74v-18.19h3.2v18.06c0,1.72,.37,3.01,1.1,3.86,.73,.85,1.91,1.27,3.54,1.27s2.83-.42,3.56-1.27c.73-.85,1.1-2.13,1.1-3.86v-18.06h3.23Z"/><path d="M1099.28,251h-3.23l-10.25-19.72v19.72h-3.23v-25.59h3.23l10.28,19.81v-19.81h3.2v25.59Z"/><path d="M1116.03,244.53c0-1.28-.35-2.26-1.04-2.94s-1.94-1.34-3.74-1.99-3.18-1.32-4.14-2.03-1.67-1.52-2.14-2.43-.71-1.95-.71-3.12c0-2.03,.68-3.7,2.03-5.01s3.13-1.97,5.32-1.97c1.5,0,2.84,.33,4.01,1s2.07,1.6,2.71,2.79,.95,2.51,.95,3.94h-3.23c0-1.58-.38-2.81-1.14-3.67s-1.86-1.3-3.29-1.3c-1.3,0-2.31,.36-3.02,1.09s-1.07,1.75-1.07,3.06c0,1.08,.39,1.98,1.16,2.71,.77,.73,1.97,1.38,3.59,1.95,2.52,.83,4.32,1.86,5.41,3.08s1.63,2.81,1.63,4.78c0,2.07-.67,3.74-2.02,4.98s-3.18,1.87-5.5,1.87c-1.49,0-2.86-.33-4.12-.98s-2.25-1.56-2.97-2.74-1.08-2.53-1.08-4.05h3.23c0,1.58,.44,2.81,1.33,3.69s2.09,1.32,3.61,1.32c1.42,0,2.48-.36,3.2-1.09s1.07-1.72,1.07-2.97Z"/></g><g><line x1="717.83" y1="383.07" x2="717.83" y2="351.37" style="fill:none; stroke:#89989f; stroke-miterlimit:10; stroke-width:2px;"/><polygon points="725.31 380.88 717.83 393.84 710.35 380.88 725.31 380.88" style="fill:#89989f;"/><polygon points="725.31 353.55 717.83 340.6 710.35 353.55 725.31 353.55" style="fill:#89989f;"/></g><rect x="870.83" y="460.46" width="90" height="50" rx="3.92" ry="3.92" style="fill:#003e6e; stroke:#fff; stroke-miterlimit:10;"/><g><path d="M891.55,488.79c0-.85-.23-1.5-.69-1.96s-1.29-.89-2.5-1.32-2.12-.88-2.76-1.35-1.11-1.01-1.43-1.62-.47-1.3-.47-2.08c0-1.35,.45-2.46,1.35-3.34s2.08-1.31,3.54-1.31c1,0,1.89,.22,2.67,.67s1.38,1.07,1.8,1.86,.63,1.67,.63,2.62h-2.16c0-1.05-.25-1.87-.76-2.45s-1.24-.87-2.19-.87c-.87,0-1.54,.24-2.02,.73-.48,.48-.71,1.17-.71,2.04,0,.72,.26,1.32,.77,1.81,.52,.49,1.31,.92,2.39,1.3,1.68,.56,2.88,1.24,3.6,2.05s1.08,1.88,1.08,3.19c0,1.38-.45,2.49-1.35,3.32s-2.12,1.25-3.67,1.25c-.99,0-1.91-.22-2.75-.65s-1.5-1.04-1.98-1.83-.72-1.69-.72-2.7h2.16c0,1.05,.29,1.88,.88,2.46s1.39,.88,2.41,.88c.95,0,1.66-.24,2.13-.73s.71-1.14,.71-1.98Z" style="fill:#fff;"/><path d="M907.23,487.67c-.09,1.83-.61,3.23-1.54,4.2s-2.25,1.46-3.96,1.46-3.07-.65-4.08-1.95-1.51-3.06-1.51-5.29v-3.09c0-2.22,.52-3.97,1.55-5.26s2.45-1.93,4.24-1.93c1.65,0,2.92,.49,3.83,1.48s1.39,2.39,1.47,4.23h-2.17c-.09-1.39-.39-2.38-.88-2.98s-1.24-.89-2.25-.89c-1.16,0-2.06,.46-2.68,1.37s-.94,2.24-.94,4v3.13c0,1.73,.29,3.05,.87,3.97s1.43,1.38,2.55,1.38,1.92-.28,2.41-.83,.8-1.55,.91-2.99h2.17Z" style="fill:#fff;"/><path d="M918.09,488.63h-5.77l-1.32,4.46h-2.2l5.5-17.06h1.84l5.51,17.06h-2.2l-1.35-4.46Zm-5.2-1.84h4.65l-2.33-7.76-2.32,7.76Z" style="fill:#fff;"/><path d="M923.97,493.1v-17.06h4.07c1.99,0,3.54,.62,4.64,1.87s1.65,3,1.65,5.26v2.86c0,2.26-.56,4-1.68,5.23s-2.74,1.85-4.86,1.85h-3.82Zm2.14-15.22v13.38h1.72c1.51,0,2.61-.43,3.3-1.3s1.05-2.14,1.07-3.84v-3.03c0-1.8-.35-3.12-1.04-3.96-.69-.84-1.74-1.26-3.13-1.26h-1.92Z" style="fill:#fff;"/><path d="M945.38,488.63h-5.77l-1.32,4.46h-2.2l5.5-17.06h1.84l5.51,17.06h-2.2l-1.35-4.46Zm-5.2-1.84h4.65l-2.33-7.76-2.32,7.76Z" style="fill:#fff;"/></g><g><line x1="717.83" y1="622.07" x2="717.83" y2="584.85" style="fill:none; stroke:#89989f; stroke-miterlimit:10; stroke-width:2px;"/><polygon points="725.31 619.89 717.83 632.84 710.35 619.89 725.31 619.89" style="fill:#89989f;"/><polygon points="725.31 587.03 717.83 574.08 710.35 587.03 725.31 587.03" style="fill:#89989f;"/></g><rect x="672.83" y="635.46" width="90" height="50" rx="3.92" ry="3.92" style="fill:#003e6e; stroke:#fff; stroke-miterlimit:10;"/><g><path d="M708.77,660.21h-6.04v6.05h7.03v1.84h-9.18v-17.06h9.06v1.84h-6.91v5.5h6.04v1.84Z" style="fill:#fff;"/><path d="M717.67,661.2h-3v6.9h-2.16v-17.06h4.78c1.67,0,2.94,.44,3.8,1.31s1.29,2.15,1.29,3.83c0,1.05-.23,1.97-.7,2.76s-1.12,1.38-1.97,1.78l3.3,7.25v.14h-2.31l-3.04-6.9Zm-3-1.84h2.6c.9,0,1.62-.29,2.15-.87s.8-1.35,.8-2.32c0-2.19-.99-3.29-2.98-3.29h-2.58v6.48Z" style="fill:#fff;"/><path d="M727.39,661.42v6.68h-2.14v-17.06h5.44c1.59,0,2.83,.47,3.74,1.42s1.36,2.21,1.36,3.79-.43,2.9-1.29,3.79-2.08,1.35-3.65,1.38h-3.45Zm0-1.84h3.29c.95,0,1.68-.29,2.19-.86s.76-1.39,.76-2.45-.26-1.85-.79-2.47c-.52-.62-1.24-.93-2.16-.93h-3.3v6.7Z" style="fill:#fff;"/></g><g><line x1="581.22" y1="485.79" x2="618.45" y2="485.79" style="fill:none; stroke:#89989f; stroke-miterlimit:10; stroke-width:2px;"/><polygon points="583.41 493.27 570.46 485.79 583.41 478.31 583.41 493.27" style="fill:#89989f;"/><polygon points="616.26 493.27 629.21 485.79 616.26 478.31 616.26 493.27" style="fill:#89989f;"/></g><g><line x1="821.22" y1="485.79" x2="858.45" y2="485.79" style="fill:none; stroke:#89989f; stroke-miterlimit:10; stroke-width:2px;"/><polygon points="823.41 493.27 810.46 485.79 823.41 478.31 823.41 493.27" style="fill:#89989f;"/><polygon points="856.26 493.27 869.21 485.79 856.26 478.31 856.26 493.27" style="fill:#89989f;"/></g><rect x="478.83" y="460.79" width="90" height="50" rx="3.92" ry="3.92" style="fill:#003e6e; stroke:#fff; stroke-miterlimit:10;"/><g><path d="M507.2,476.44l4.45,13.92,4.45-13.92h2.77v17.06h-2.14v-6.64l.2-6.66-4.46,13.3h-1.64l-4.44-13.25,.2,6.61v6.64h-2.14v-17.06h2.77Z" style="fill:#fff;"/><path d="M530.74,485.61h-6.04v6.05h7.03v1.84h-9.18v-17.06h9.06v1.84h-6.91v5.5h6.04v1.84Z" style="fill:#fff;"/><path d="M541.93,489.19c0-.85-.23-1.5-.69-1.96s-1.29-.89-2.5-1.32-2.12-.88-2.76-1.35-1.11-1.01-1.43-1.62-.47-1.3-.47-2.08c0-1.35,.45-2.46,1.35-3.34s2.08-1.31,3.54-1.31c1,0,1.89,.22,2.67,.67,.78,.45,1.38,1.07,1.8,1.86,.42,.8,.63,1.67,.63,2.62h-2.16c0-1.05-.25-1.87-.76-2.45s-1.24-.87-2.19-.87c-.87,0-1.54,.24-2.02,.73s-.71,1.17-.71,2.04c0,.72,.26,1.32,.77,1.81s1.31,.92,2.39,1.3c1.68,.56,2.88,1.24,3.6,2.05s1.08,1.88,1.08,3.19c0,1.38-.45,2.49-1.35,3.32s-2.12,1.25-3.67,1.25c-.99,0-1.91-.22-2.75-.65s-1.5-1.04-1.98-1.83-.72-1.69-.72-2.7h2.16c0,1.05,.29,1.88,.88,2.46s1.39,.88,2.41,.88c.95,0,1.66-.24,2.13-.73s.71-1.14,.71-1.98Z" style="fill:#fff;"/></g><circle cx="717.83" cy="483.5" r="86" style="fill:#ebe3cb; stroke:#000; stroke-miterlimit:10;"/><path d="M632.43,473.36h170.8c-5.02-42.72-41.34-75.86-85.4-75.86s-80.38,33.14-85.4,75.86Z" style="fill:#b0b574; stroke:#000; stroke-miterlimit:10;"/><g><path d="M678.51,433.82l4.3,16.45,4.28-16.45h6v22.75h-4.61v-6.16l.42-9.48-4.55,15.64h-3.12l-4.55-15.64,.42,9.48v6.16h-4.59v-22.75h6Z" style="fill:#fff;"/><path d="M704.87,455.03c-.92,1.24-2.15,1.86-3.69,1.86s-2.73-.53-3.53-1.6c-.8-1.07-1.2-2.62-1.2-4.66v-10.95h4.42v11.06c.02,1.65,.57,2.47,1.64,2.47,1.01,0,1.74-.44,2.19-1.31v-12.22h4.45v16.91h-4.16l-.12-1.55Z" style="fill:#fff;"/><path d="M716.36,439.67l.12,1.67c1-1.32,2.31-1.98,3.92-1.98,2.91,0,4.4,2.04,4.48,6.11v11.11h-4.44v-10.78c0-.96-.14-1.65-.43-2.09-.29-.43-.79-.65-1.51-.65-.8,0-1.43,.41-1.88,1.23v12.28h-4.44v-16.91h4.16Z" style="fill:#fff;"/><path d="M728.06,435.29c0-.69,.22-1.25,.66-1.69s1.02-.66,1.75-.66,1.31,.22,1.75,.66,.66,1,.66,1.69-.22,1.24-.65,1.69c-.43,.45-1.02,.67-1.76,.67s-1.33-.22-1.76-.67c-.43-.45-.65-1.01-.65-1.69Zm4.64,21.28h-4.44v-16.91h4.44v16.91Z" style="fill:#fff;"/><path d="M742.23,453.21c1.28,0,1.93-.83,1.95-2.5h4.16c-.02,1.84-.59,3.33-1.7,4.47-1.12,1.14-2.55,1.7-4.31,1.7-2.18,0-3.84-.68-4.98-2.03-1.15-1.35-1.73-3.35-1.75-5.98v-1.34c0-2.66,.56-4.68,1.7-6.08,1.13-1.4,2.8-2.09,5.01-2.09,1.86,0,3.33,.58,4.41,1.73,1.07,1.15,1.62,2.78,1.64,4.9h-4.16c-.01-.95-.17-1.68-.47-2.19-.3-.51-.8-.77-1.5-.77-.77,0-1.32,.27-1.66,.82-.33,.55-.51,1.61-.53,3.18v1.72c0,1.38,.07,2.34,.2,2.88,.13,.55,.36,.95,.67,1.2,.31,.26,.75,.38,1.33,.38Z" style="fill:#fff;"/><path d="M755.15,441.15c.96-1.2,2.13-1.8,3.53-1.8,1.54,0,2.71,.54,3.52,1.62,.8,1.08,1.21,2.7,1.22,4.84v10.75h-4.44v-10.7c0-.99-.15-1.71-.46-2.15-.31-.44-.8-.66-1.49-.66-.8,0-1.43,.37-1.88,1.11v12.41h-4.42v-24h4.42v8.58Z" style="fill:#fff;"/></g><g><path d="M705.27,506.41v18.19c-.02,2.43-.73,4.32-2.11,5.7s-3.31,2.06-5.78,2.06-4.46-.67-5.8-2.01-2.02-3.25-2.04-5.74v-18.19h3.2v18.06c0,1.72,.37,3.01,1.1,3.86s1.91,1.27,3.54,1.27,2.83-.42,3.56-1.27,1.1-2.13,1.1-3.86v-18.06h3.23Z"/><path d="M726.95,532h-3.23l-10.25-19.72v19.72h-3.23v-25.59h3.23l10.28,19.81v-19.81h3.2v25.59Z"/><path d="M743.7,525.53c0-1.28-.35-2.26-1.04-2.94s-1.94-1.34-3.74-1.99-3.18-1.32-4.14-2.03-1.67-1.52-2.14-2.43-.71-1.95-.71-3.12c0-2.03,.68-3.7,2.03-5.01s3.13-1.97,5.32-1.97c1.5,0,2.84,.33,4.01,1,1.17,.67,2.07,1.6,2.71,2.79,.63,1.19,.95,2.5,.95,3.93h-3.23c0-1.58-.38-2.81-1.14-3.67s-1.86-1.3-3.29-1.3c-1.3,0-2.31,.36-3.02,1.09s-1.07,1.75-1.07,3.06c0,1.08,.39,1.98,1.16,2.71,.77,.73,1.97,1.38,3.59,1.95,2.52,.83,4.32,1.86,5.41,3.08s1.63,2.81,1.63,4.78c0,2.07-.67,3.74-2.02,4.98s-3.18,1.87-5.5,1.87c-1.49,0-2.86-.33-4.12-.98s-2.25-1.56-2.97-2.74-1.08-2.53-1.08-4.05h3.23c0,1.58,.44,2.81,1.33,3.69s2.09,1.32,3.61,1.32c1.42,0,2.48-.36,3.2-1.09s1.07-1.72,1.07-2.97Z"/></g></svg>