<?xml version="1.0" encoding="utf-8"?>
<!-- Generator: Adobe Illustrator 26.5.2, SVG Export Plug-In . SVG Version: 6.00 Build 0)  -->
<svg version="1.1" xmlns="http://www.w3.org/2000/svg" xmlns:xlink="http://www.w3.org/1999/xlink" x="0px" y="0px"
	 viewBox="0 0 1080 490" style="enable-background:new 0 0 1080 490;" xml:space="preserve">
<style type="text/css">
	.st0{fill:#D3D4E3;stroke:#000000;stroke-miterlimit:10;}
	.st1{fill:#003E6E;}
	.st2{fill:#003E6E;stroke:#000000;stroke-miterlimit:10;}
	.st3{fill:#FFFFFF;}
	.st4{fill:#FFFFFF;stroke:#000000;stroke-miterlimit:10;}
	.st5{fill:none;stroke:#000000;stroke-miterlimit:10;}
	.st6{fill:#FF6600;}
	.st7{fill:none;stroke:#89989F;stroke-width:2;stroke-miterlimit:10;}
	.st8{fill:#89989F;}
	.st9{fill:#003E6E;stroke:#FFFFFF;stroke-miterlimit:10;}
	.st10{fill:#FF6600;stroke:#FFFFFF;stroke-miterlimit:10;}
	.st11{fill:none;stroke:#FF6600;stroke-width:2;stroke-miterlimit:10;}
	.st12{fill:#EBE3CB;stroke:#000000;stroke-miterlimit:10;}
	.st13{fill:#B0B574;stroke:#000000;stroke-miterlimit:10;}
	.st14{fill:#0E558C;stroke:#000000;stroke-miterlimit:10;}
	.st15{fill:#33658B;stroke:#000000;stroke-miterlimit:10;}
	.st16{fill:#578BB6;stroke:#000000;stroke-miterlimit:10;}
	.st17{fill:#428EC8;stroke:#000000;stroke-miterlimit:10;}
	
		.st18{fill-rule:evenodd;clip-rule:evenodd;fill:none;stroke:#FFFFFF;stroke-linecap:round;stroke-linejoin:round;stroke-miterlimit:10;}
	.st19{fill-rule:evenodd;clip-rule:evenodd;fill:#FFFFFF;}
	.st20{fill-rule:evenodd;clip-rule:evenodd;fill:none;stroke:#FFFFFF;stroke-miterlimit:10;}
	.st21{fill:none;stroke:#FFFFFF;stroke-miterlimit:10;}
	.st22{fill:none;stroke:#FFFFFF;stroke-linecap:round;stroke-miterlimit:10;}
	.st23{fill:none;stroke:#FF6600;stroke-width:10;stroke-miterlimit:10;}
	.st24{fill:#115285;stroke:#FFFFFF;stroke-miterlimit:10;}
	.st25{fill:#21669B;stroke:#FFFFFF;stroke-miterlimit:10;}
	.st26{fill:#327AB2;stroke:#FFFFFF;stroke-miterlimit:10;}
	.st27{fill:#428EC8;stroke:#FFFFFF;stroke-miterlimit:10;}
	.st28{fill:#89989F;stroke:#000000;stroke-miterlimit:10;}
	.st29{fill:none;stroke:#000000;stroke-width:2;stroke-miterlimit:10;}
	.st30{fill:#FF6600;stroke:#000000;stroke-miterlimit:10;}
</style>
<g id="Ebene_1">
</g>
<g id="Ebene_2">
	<g>
		<g>
			<path class="st9" d="M945.5,468.2h-811c-6.4,0-11.7-5.3-11.7-11.7v-415c0-6.4,5.3-11.7,11.7-11.7h811c6.4,0,11.7,5.3,11.7,11.7
				v415C957.2,462.9,952,468.2,945.5,468.2z"/>
			<path class="st24" d="M938.1,459H271.2c-5.3,0-9.6-4.3-9.6-9.6V111c0-5.3,4.3-9.6,9.6-9.6h666.9c5.3,0,9.6,4.3,9.6,9.6v338.4
				C947.7,454.7,943.3,459,938.1,459z"/>
			<path class="st25" d="M930.6,449.8H407.9c-4.1,0-7.5-3.4-7.5-7.5V180.5c0-4.1,3.4-7.5,7.5-7.5h522.7c4.1,0,7.5,3.4,7.5,7.5v261.9
				C938.1,446.4,934.7,449.8,930.6,449.8z"/>
			<path class="st26" d="M923.2,440.6H544.7c-2.9,0-5.3-2.4-5.3-5.3V249.9c0-2.9,2.4-5.3,5.3-5.3h378.5c2.9,0,5.3,2.4,5.3,5.3v185.3
				C928.5,438.2,926.1,440.6,923.2,440.6z"/>
			<path class="st27" d="M915.8,431.4H681.4c-1.8,0-3.2-1.4-3.2-3.2V319.4c0-1.8,1.4-3.2,3.2-3.2h234.4c1.8,0,3.2,1.4,3.2,3.2v108.7
				C919,429.9,917.5,431.4,915.8,431.4z"/>
		</g>
		<g>
			<path class="st3" d="M156,66.9h-7.7v7.7h8.9v2.3h-11.6V55.3h11.5v2.3h-8.8v7h7.7V66.9z"/>
			<path class="st3" d="M162.9,60.8l0.1,1.7c1-1.4,2.3-2,3.9-2c2.8,0,4.3,1.9,4.3,5.7v10.7h-2.6V66.4c0-1.3-0.2-2.2-0.6-2.7
				c-0.4-0.5-1.1-0.8-1.9-0.8c-0.7,0-1.2,0.2-1.8,0.7c-0.5,0.4-0.9,1-1.3,1.7v11.7h-2.6V60.8H162.9z"/>
			<path class="st3" d="M178.6,57v3.9h2.4V63h-2.4v10c0,0.6,0.1,1.1,0.3,1.4s0.6,0.5,1.1,0.5c0.3,0,0.7-0.1,1.1-0.2l0,2.2
				c-0.6,0.2-1.2,0.3-1.8,0.3c-1,0-1.8-0.4-2.4-1.1c-0.5-0.7-0.8-1.8-0.8-3.1V63h-2.5v-2.1h2.5V57H178.6z"/>
			<path class="st3" d="M189.9,77.2c-2,0-3.5-0.6-4.6-1.8c-1.1-1.2-1.6-2.9-1.6-5.3v-1.9c0-2.4,0.5-4.3,1.6-5.6c1-1.4,2.5-2,4.4-2
				c1.9,0,3.3,0.6,4.2,1.8c0.9,1.2,1.4,3.1,1.4,5.6v1.7h-9V70c0,1.7,0.3,3,1,3.8c0.6,0.8,1.6,1.2,2.8,1.2c0.8,0,1.5-0.1,2-0.4
				s1.1-0.8,1.7-1.4l1.4,1.7C193.9,76.4,192.2,77.2,189.9,77.2z M189.6,62.8c-1.1,0-1.9,0.4-2.4,1.1c-0.5,0.7-0.8,1.9-0.9,3.5h6.3
				v-0.4c-0.1-1.5-0.3-2.6-0.8-3.3C191.3,63.1,190.6,62.8,189.6,62.8z"/>
			<path class="st3" d="M205,63.3c-0.4-0.1-0.8-0.1-1.2-0.1c-1.3,0-2.3,0.7-2.8,2.2v11.5h-2.6V60.8h2.6l0,1.6c0.7-1.3,1.7-1.9,3-1.9
				c0.4,0,0.8,0.1,1,0.2L205,63.3z"/>
			<path class="st3" d="M219.2,69.7c0,2.5-0.5,4.4-1.4,5.7s-2.2,1.9-3.9,1.9c-1.6,0-2.9-0.6-3.7-1.8v7.7h-2.6V60.8h2.4l0.1,1.8
				c0.9-1.4,2.1-2.1,3.8-2.1c1.8,0,3.1,0.6,4,1.8c0.9,1.2,1.3,3.1,1.4,5.5V69.7z M216.6,68.2c0-1.8-0.3-3.1-0.8-4
				c-0.6-0.9-1.4-1.3-2.7-1.3c-1.3,0-2.2,0.6-2.9,1.9v8.4c0.6,1.2,1.6,1.8,2.9,1.8c1.2,0,2.1-0.4,2.6-1.3c0.6-0.9,0.8-2.2,0.9-3.9
				V68.2z"/>
			<path class="st3" d="M229.3,63.3c-0.4-0.1-0.8-0.1-1.2-0.1c-1.3,0-2.3,0.7-2.8,2.2v11.5h-2.6V60.8h2.6l0,1.6
				c0.7-1.3,1.7-1.9,3-1.9c0.4,0,0.8,0.1,1,0.2L229.3,63.3z"/>
			<path class="st3" d="M234.9,56.6c0,0.4-0.1,0.8-0.4,1.1c-0.2,0.3-0.6,0.4-1.1,0.4c-0.5,0-0.9-0.1-1.1-0.4
				c-0.2-0.3-0.4-0.7-0.4-1.1c0-0.4,0.1-0.8,0.4-1.1c0.2-0.3,0.6-0.5,1.1-0.5s0.9,0.2,1.1,0.5C234.8,55.8,234.9,56.2,234.9,56.6z
				 M234.7,76.9h-2.6V60.8h2.6V76.9z"/>
			<path class="st3" d="M246.7,72.8c0-0.6-0.2-1-0.6-1.5c-0.4-0.4-1.2-0.9-2.5-1.4c-1.4-0.6-2.4-1.1-3-1.5s-1-0.9-1.3-1.4
				c-0.3-0.5-0.4-1.2-0.4-1.9c0-1.3,0.5-2.4,1.4-3.3c1-0.9,2.2-1.3,3.7-1.3c1.6,0,2.8,0.5,3.8,1.4c1,0.9,1.4,2.1,1.4,3.5h-2.6
				c0-0.7-0.2-1.3-0.7-1.8c-0.5-0.5-1.1-0.8-1.9-0.8c-0.8,0-1.4,0.2-1.8,0.6s-0.7,0.9-0.7,1.6c0,0.5,0.2,1,0.5,1.3
				c0.3,0.3,1.1,0.8,2.3,1.3c2,0.8,3.3,1.5,4,2.2c0.7,0.7,1.1,1.7,1.1,2.8c0,1.4-0.5,2.5-1.4,3.4c-1,0.8-2.2,1.3-3.9,1.3
				c-1.7,0-3-0.5-4.1-1.4c-1-1-1.6-2.2-1.6-3.7h2.6c0,0.9,0.3,1.6,0.8,2.1c0.5,0.5,1.2,0.8,2.2,0.8c0.9,0,1.5-0.2,2-0.6
				C246.4,74,246.7,73.5,246.7,72.8z"/>
			<path class="st3" d="M258.5,77.2c-2,0-3.5-0.6-4.6-1.8c-1.1-1.2-1.6-2.9-1.6-5.3v-1.9c0-2.4,0.5-4.3,1.6-5.6c1-1.4,2.5-2,4.4-2
				c1.9,0,3.3,0.6,4.2,1.8c0.9,1.2,1.4,3.1,1.4,5.6v1.7h-9V70c0,1.7,0.3,3,1,3.8c0.6,0.8,1.6,1.2,2.8,1.2c0.8,0,1.5-0.1,2-0.4
				s1.1-0.8,1.7-1.4l1.4,1.7C262.5,76.4,260.8,77.2,258.5,77.2z M258.2,62.8c-1.1,0-1.9,0.4-2.4,1.1c-0.5,0.7-0.8,1.9-0.9,3.5h6.3
				v-0.4c-0.1-1.5-0.3-2.6-0.8-3.3C259.9,63.1,259.1,62.8,258.2,62.8z"/>
		</g>
		<g>
			<path class="st3" d="M293.6,141.6c0-1.1-0.3-1.9-0.9-2.5c-0.6-0.6-1.6-1.1-3.2-1.7c-1.5-0.5-2.7-1.1-3.5-1.7s-1.4-1.3-1.8-2.1
				s-0.6-1.6-0.6-2.6c0-1.7,0.6-3.1,1.7-4.2c1.1-1.1,2.6-1.7,4.5-1.7c1.3,0,2.4,0.3,3.4,0.8s1.8,1.4,2.3,2.4s0.8,2.1,0.8,3.3h-2.7
				c0-1.3-0.3-2.4-1-3.1c-0.6-0.7-1.6-1.1-2.8-1.1c-1.1,0-2,0.3-2.6,0.9c-0.6,0.6-0.9,1.5-0.9,2.6c0,0.9,0.3,1.7,1,2.3
				c0.7,0.6,1.7,1.2,3,1.7c2.1,0.7,3.7,1.6,4.6,2.6c0.9,1,1.4,2.4,1.4,4c0,1.8-0.6,3.2-1.7,4.2s-2.7,1.6-4.6,1.6
				c-1.3,0-2.4-0.3-3.5-0.8c-1.1-0.5-1.9-1.3-2.5-2.3c-0.6-1-0.9-2.1-0.9-3.4h2.7c0,1.3,0.4,2.4,1.1,3.1c0.7,0.7,1.8,1.1,3.1,1.1
				c1.2,0,2.1-0.3,2.7-0.9C293.3,143.5,293.6,142.7,293.6,141.6z"/>
			<path class="st3" d="M302.6,126.8c0,0.4-0.1,0.8-0.4,1.1c-0.2,0.3-0.6,0.4-1.1,0.4c-0.5,0-0.9-0.1-1.1-0.4
				c-0.2-0.3-0.4-0.7-0.4-1.1c0-0.4,0.1-0.8,0.4-1.1c0.2-0.3,0.6-0.5,1.1-0.5s0.9,0.2,1.1,0.5C302.5,126,302.6,126.3,302.6,126.8z
				 M302.4,147.1h-2.6V131h2.6V147.1z"/>
			<path class="st3" d="M310,127.1v3.9h2.4v2.1H310v10c0,0.6,0.1,1.1,0.3,1.4s0.6,0.5,1.1,0.5c0.3,0,0.7-0.1,1.1-0.2l0,2.2
				c-0.6,0.2-1.2,0.3-1.8,0.3c-1,0-1.8-0.4-2.4-1.1c-0.5-0.7-0.8-1.8-0.8-3.1v-10h-2.5V131h2.5v-3.9H310z"/>
			<path class="st3" d="M321.3,147.4c-2,0-3.5-0.6-4.6-1.8c-1.1-1.2-1.6-2.9-1.6-5.3v-1.9c0-2.4,0.5-4.3,1.6-5.6c1-1.4,2.5-2,4.4-2
				c1.9,0,3.3,0.6,4.2,1.8c0.9,1.2,1.4,3.1,1.4,5.6v1.7h-9v0.4c0,1.7,0.3,3,1,3.8c0.6,0.8,1.6,1.2,2.8,1.2c0.8,0,1.5-0.1,2-0.4
				s1.1-0.8,1.7-1.4l1.4,1.7C325.4,146.6,323.6,147.4,321.3,147.4z M321,133c-1.1,0-1.9,0.4-2.4,1.1c-0.5,0.7-0.8,1.9-0.9,3.5h6.3
				v-0.4c-0.1-1.5-0.3-2.6-0.8-3.3C322.7,133.3,322,133,321,133z"/>
		</g>
		<g>
			<path class="st3" d="M433.6,213.3h-7.3l-1.7,5.7h-2.8l7-21.6h2.3l7,21.6h-2.8L433.6,213.3z M427,210.9h5.9l-3-9.8L427,210.9z"/>
			<path class="st3" d="M447.4,205.3c-0.4-0.1-0.8-0.1-1.2-0.1c-1.3,0-2.3,0.7-2.8,2.2v11.5h-2.6v-16.1h2.6l0,1.6
				c0.7-1.3,1.7-1.9,3-1.9c0.4,0,0.8,0.1,1,0.2L447.4,205.3z"/>
			<path class="st3" d="M455.4,219.2c-2,0-3.5-0.6-4.6-1.8c-1.1-1.2-1.6-2.9-1.6-5.3v-1.9c0-2.4,0.5-4.3,1.6-5.6c1-1.4,2.5-2,4.4-2
				c1.9,0,3.3,0.6,4.2,1.8c0.9,1.2,1.4,3.1,1.4,5.6v1.7h-9v0.4c0,1.7,0.3,3,1,3.8c0.6,0.8,1.6,1.2,2.8,1.2c0.8,0,1.5-0.1,2-0.4
				s1.1-0.8,1.7-1.4l1.4,1.7C459.5,218.4,457.8,219.2,455.4,219.2z M455.1,204.8c-1.1,0-1.9,0.4-2.4,1.1c-0.5,0.7-0.8,1.9-0.9,3.5
				h6.3v-0.4c-0.1-1.5-0.3-2.6-0.8-3.3C456.8,205.1,456.1,204.8,455.1,204.8z"/>
			<path class="st3" d="M472.2,218.9c-0.2-0.3-0.3-0.9-0.3-1.8c-0.9,1.4-2.1,2-3.6,2c-1.5,0-2.6-0.4-3.4-1.2c-0.8-0.8-1.2-2-1.2-3.5
				c0-1.6,0.6-2.9,1.7-3.9c1.1-1,2.6-1.5,4.6-1.5h1.9v-1.7c0-1-0.2-1.6-0.6-2s-1.1-0.6-1.9-0.6c-0.8,0-1.4,0.2-1.9,0.7
				c-0.5,0.5-0.7,1.1-0.7,1.8h-2.6c0-0.8,0.2-1.6,0.7-2.4c0.5-0.7,1.1-1.3,2-1.8c0.8-0.4,1.7-0.6,2.7-0.6c1.6,0,2.9,0.4,3.8,1.2
				c0.9,0.8,1.3,2,1.3,3.6v8.1c0,1.2,0.2,2.3,0.5,3.2v0.2H472.2z M468.7,216.8c0.6,0,1.3-0.2,1.8-0.5c0.6-0.4,1-0.8,1.3-1.3v-3.8
				h-1.5c-1.2,0-2.2,0.3-3,0.8c-0.7,0.5-1.1,1.3-1.1,2.3c0,0.9,0.2,1.6,0.5,2C467.2,216.6,467.8,216.8,468.7,216.8z"/>
		</g>
		<g>
			<path class="st3" d="M564.8,282.7v8.5h-2.7v-21.6h6.9c2,0,3.6,0.6,4.7,1.8c1.1,1.2,1.7,2.8,1.7,4.8c0,2.1-0.5,3.7-1.6,4.8
				c-1.1,1.1-2.6,1.7-4.6,1.7H564.8z M564.8,280.3h4.2c1.2,0,2.1-0.4,2.8-1.1c0.6-0.7,1-1.8,1-3.1c0-1.3-0.3-2.3-1-3.1
				c-0.7-0.8-1.6-1.2-2.7-1.2h-4.2V280.3z"/>
			<path class="st3" d="M585.2,277.5c-0.4-0.1-0.8-0.1-1.2-0.1c-1.3,0-2.3,0.7-2.8,2.2v11.5h-2.6v-16.1h2.6l0,1.6
				c0.7-1.3,1.7-1.9,3-1.9c0.4,0,0.8,0.1,1,0.2L585.2,277.5z"/>
			<path class="st3" d="M587,282.4c0-2.3,0.6-4.2,1.7-5.5c1.1-1.4,2.6-2,4.5-2c1.9,0,3.4,0.7,4.5,2c1.1,1.3,1.7,3.1,1.7,5.4v1.7
				c0,2.3-0.6,4.2-1.7,5.5c-1.1,1.4-2.6,2-4.5,2c-1.9,0-3.4-0.7-4.5-2c-1.1-1.3-1.7-3.1-1.7-5.3V282.4z M589.6,283.9
				c0,1.7,0.3,3,1,3.9s1.5,1.4,2.6,1.4c2.3,0,3.5-1.7,3.6-5v-1.8c0-1.6-0.3-2.9-1-3.9c-0.7-1-1.5-1.4-2.6-1.4
				c-1.1,0-1.9,0.5-2.6,1.4c-0.6,1-1,2.3-1,3.9V283.9z"/>
			<path class="st3" d="M602.2,282.4c0-2.5,0.5-4.4,1.4-5.7c0.9-1.3,2.3-1.9,4-1.9c1.5,0,2.7,0.6,3.6,1.9v-8.3h2.6v22.8h-2.4
				l-0.1-1.7c-0.9,1.3-2.1,2-3.7,2c-1.7,0-3-0.6-3.9-1.9c-0.9-1.3-1.4-3.1-1.4-5.5V282.4z M604.9,283.9c0,1.8,0.3,3.1,0.8,4
				c0.5,0.8,1.4,1.3,2.6,1.3c1.3,0,2.3-0.7,2.9-2V279c-0.7-1.3-1.6-1.9-2.9-1.9c-1.2,0-2.1,0.4-2.6,1.3c-0.5,0.8-0.8,2.1-0.8,3.9
				V283.9z"/>
			<path class="st3" d="M626.1,289.7c-0.9,1.1-2.1,1.7-3.8,1.7c-1.5,0-2.6-0.5-3.3-1.5c-0.7-1-1.1-2.5-1.1-4.4v-10.5h2.6v10.3
				c0,2.5,0.8,3.8,2.3,3.8c1.6,0,2.7-0.7,3.3-2.1v-11.9h2.6v16.1h-2.5L626.1,289.7z"/>
			<path class="st3" d="M638.2,289.2c0.9,0,1.6-0.3,2.1-0.8c0.5-0.5,0.8-1.3,0.9-2.3h2.5c-0.1,1.5-0.6,2.8-1.6,3.8
				c-1,1-2.3,1.5-3.8,1.5c-2,0-3.5-0.6-4.6-1.9s-1.6-3.1-1.6-5.6v-1.8c0-2.4,0.5-4.3,1.6-5.5s2.6-1.9,4.5-1.9c1.6,0,2.9,0.5,3.9,1.6
				c1,1,1.5,2.5,1.5,4.3h-2.5c-0.1-1.2-0.3-2.1-0.9-2.7c-0.5-0.6-1.2-0.9-2.1-0.9c-1.2,0-2,0.4-2.6,1.2c-0.6,0.8-0.9,2-0.9,3.8v2.1
				c0,1.9,0.3,3.2,0.8,4S637,289.2,638.2,289.2z"/>
			<path class="st3" d="M650.1,271.2v3.9h2.4v2.1h-2.4v10c0,0.6,0.1,1.1,0.3,1.4s0.6,0.5,1.1,0.5c0.3,0,0.7-0.1,1.1-0.2l0,2.2
				c-0.6,0.2-1.2,0.3-1.8,0.3c-1,0-1.8-0.4-2.4-1.1c-0.5-0.7-0.8-1.8-0.8-3.1v-10H645v-2.1h2.5v-3.9H650.1z"/>
			<path class="st3" d="M658.7,270.8c0,0.4-0.1,0.8-0.4,1.1c-0.2,0.3-0.6,0.4-1.1,0.4c-0.5,0-0.9-0.1-1.1-0.4
				c-0.2-0.3-0.4-0.7-0.4-1.1c0-0.4,0.1-0.8,0.4-1.1c0.2-0.3,0.6-0.5,1.1-0.5s0.9,0.2,1.1,0.5C658.5,270,658.7,270.4,658.7,270.8z
				 M658.5,291.1h-2.6v-16.1h2.6V291.1z"/>
			<path class="st3" d="M662,282.4c0-2.3,0.6-4.2,1.7-5.5c1.1-1.4,2.6-2,4.5-2c1.9,0,3.4,0.7,4.5,2c1.1,1.3,1.7,3.1,1.7,5.4v1.7
				c0,2.3-0.6,4.2-1.7,5.5c-1.1,1.4-2.6,2-4.5,2c-1.9,0-3.4-0.7-4.5-2c-1.1-1.3-1.7-3.1-1.7-5.3V282.4z M664.7,283.9
				c0,1.7,0.3,3,1,3.9s1.5,1.4,2.6,1.4c2.3,0,3.5-1.7,3.6-5v-1.8c0-1.6-0.3-2.9-1-3.9c-0.7-1-1.5-1.4-2.6-1.4
				c-1.1,0-1.9,0.5-2.6,1.4c-0.6,1-1,2.3-1,3.9V283.9z"/>
			<path class="st3" d="M680.4,275.1l0.1,1.7c1-1.4,2.3-2,3.9-2c2.8,0,4.3,1.9,4.3,5.7v10.7H686v-10.6c0-1.3-0.2-2.2-0.6-2.7
				c-0.4-0.5-1.1-0.8-1.9-0.8c-0.7,0-1.2,0.2-1.8,0.7c-0.5,0.4-0.9,1-1.3,1.7v11.7h-2.6v-16.1H680.4z"/>
			<path class="st3" d="M702.7,288.8h8.5v2.3h-11.2v-21.6h2.7V288.8z"/>
			<path class="st3" d="M717.1,270.8c0,0.4-0.1,0.8-0.4,1.1c-0.2,0.3-0.6,0.4-1.1,0.4c-0.5,0-0.9-0.1-1.1-0.4
				c-0.2-0.3-0.4-0.7-0.4-1.1c0-0.4,0.1-0.8,0.4-1.1c0.2-0.3,0.6-0.5,1.1-0.5s0.9,0.2,1.1,0.5C716.9,270,717.1,270.4,717.1,270.8z
				 M716.9,291.1h-2.6v-16.1h2.6V291.1z"/>
			<path class="st3" d="M723.5,275.1l0.1,1.7c1-1.4,2.3-2,3.9-2c2.8,0,4.3,1.9,4.3,5.7v10.7h-2.6v-10.6c0-1.3-0.2-2.2-0.6-2.7
				c-0.4-0.5-1.1-0.8-1.9-0.8c-0.7,0-1.2,0.2-1.8,0.7c-0.5,0.4-0.9,1-1.3,1.7v11.7H721v-16.1H723.5z"/>
			<path class="st3" d="M741.5,291.4c-2,0-3.5-0.6-4.6-1.8c-1.1-1.2-1.6-2.9-1.6-5.3v-1.9c0-2.4,0.5-4.3,1.6-5.6c1-1.4,2.5-2,4.4-2
				c1.9,0,3.3,0.6,4.2,1.8c0.9,1.2,1.4,3.1,1.4,5.6v1.7h-9v0.4c0,1.7,0.3,3,1,3.8c0.6,0.8,1.6,1.2,2.8,1.2c0.8,0,1.5-0.1,2-0.4
				s1.1-0.8,1.7-1.4l1.4,1.7C745.5,290.6,743.8,291.4,741.5,291.4z M741.2,277c-1.1,0-1.9,0.4-2.4,1.1c-0.5,0.7-0.8,1.9-0.9,3.5h6.3
				v-0.4c-0.1-1.5-0.3-2.6-0.8-3.3C742.9,277.4,742.1,277,741.2,277z"/>
		</g>
		<g>
			<path class="st3" d="M705.7,355.4l0.3,2.4l0.4-2.1l3.5-15.1h2.3l3.4,15.1l0.4,2.2l0.3-2.5l2.6-14.8h2.7l-4.3,21.6h-2.5l-3.6-15.8
				l-0.2-1.3l-0.2,1.3l-3.7,15.8h-2.5l-4.3-21.6h2.7L705.7,355.4z"/>
			<path class="st3" d="M723.4,353.4c0-2.3,0.6-4.2,1.7-5.5s2.6-2,4.5-2c1.9,0,3.4,0.7,4.5,2c1.1,1.3,1.7,3.1,1.7,5.4v1.7
				c0,2.3-0.6,4.2-1.7,5.5c-1.1,1.4-2.6,2-4.5,2c-1.9,0-3.4-0.7-4.5-2c-1.1-1.3-1.7-3.1-1.7-5.3V353.4z M726,354.9
				c0,1.7,0.3,3,1,3.9c0.6,0.9,1.5,1.4,2.6,1.4c2.3,0,3.5-1.7,3.6-5v-1.8c0-1.6-0.3-2.9-1-3.9c-0.7-1-1.5-1.4-2.6-1.4
				c-1.1,0-1.9,0.5-2.6,1.4c-0.6,1-1,2.3-1,3.9V354.9z"/>
			<path class="st3" d="M745.8,348.6c-0.4-0.1-0.8-0.1-1.2-0.1c-1.3,0-2.3,0.7-2.8,2.2v11.5h-2.6v-16.1h2.6l0,1.6
				c0.7-1.3,1.7-1.9,3-1.9c0.4,0,0.8,0.1,1,0.2L745.8,348.6z"/>
			<path class="st3" d="M752.5,354.8l-1.4,1.6v5.7h-2.6v-22.8h2.6V353l5-6.9h3.1l-5.1,6.7l5.8,9.4h-3.1L752.5,354.8z"/>
			<path class="st3" d="M783.1,355.3c-0.1,2.3-0.8,4.1-2,5.3c-1.2,1.2-2.9,1.8-5,1.8c-2.2,0-3.9-0.8-5.2-2.5
				c-1.3-1.6-1.9-3.9-1.9-6.7v-3.9c0-2.8,0.7-5,2-6.7c1.3-1.6,3.1-2.5,5.4-2.5c2.1,0,3.7,0.6,4.9,1.9c1.1,1.2,1.8,3,1.9,5.4h-2.7
				c-0.1-1.8-0.5-3-1.1-3.8c-0.6-0.8-1.6-1.1-2.9-1.1c-1.5,0-2.6,0.6-3.4,1.7c-0.8,1.2-1.2,2.8-1.2,5.1v4c0,2.2,0.4,3.9,1.1,5
				c0.7,1.2,1.8,1.8,3.2,1.8c1.4,0,2.4-0.4,3.1-1.1c0.6-0.7,1-2,1.2-3.8H783.1z"/>
			<path class="st3" d="M792.1,362.5c-2,0-3.5-0.6-4.6-1.8c-1.1-1.2-1.6-2.9-1.6-5.3v-1.9c0-2.4,0.5-4.3,1.6-5.6s2.5-2,4.4-2
				c1.9,0,3.3,0.6,4.2,1.8s1.4,3.1,1.4,5.6v1.7h-9v0.4c0,1.7,0.3,3,1,3.8c0.6,0.8,1.6,1.2,2.8,1.2c0.8,0,1.5-0.1,2-0.4
				s1.1-0.8,1.7-1.4l1.4,1.7C796.2,361.7,794.5,362.5,792.1,362.5z M791.8,348.1c-1.1,0-1.9,0.4-2.4,1.1c-0.5,0.7-0.8,1.9-0.9,3.5
				h6.3v-0.4c-0.1-1.5-0.3-2.6-0.8-3.3C793.5,348.4,792.8,348.1,791.8,348.1z"/>
			<path class="st3" d="M803.4,362.2h-2.6v-22.8h2.6V362.2z"/>
			<path class="st3" d="M810.4,362.2h-2.6v-22.8h2.6V362.2z"/>
		</g>
	</g>
</g>
</svg>
