<?xml version="1.0" encoding="UTF-8"?><svg id="Ebene_2" xmlns="http://www.w3.org/2000/svg" viewBox="0 0 1440 578"><rect x="296.9" y="34.35" width="846.2" height="63.59" style="fill:#003e6e; stroke:#000; stroke-miterlimit:10;"/><g><path d="M697.96,68.51c-.14,2.73-.9,4.81-2.3,6.26-1.39,1.45-3.36,2.17-5.89,2.17s-4.58-.97-6.08-2.91c-1.5-1.94-2.25-4.57-2.25-7.89v-4.61c0-3.31,.77-5.92,2.31-7.84s3.65-2.88,6.31-2.88c2.46,0,4.36,.73,5.7,2.2,1.35,1.47,2.08,3.57,2.19,6.31h-3.23c-.14-2.07-.58-3.55-1.31-4.44-.73-.88-1.85-1.33-3.35-1.33-1.73,0-3.07,.68-4,2.03-.93,1.36-1.4,3.34-1.4,5.96v4.66c0,2.57,.43,4.55,1.3,5.92,.87,1.37,2.13,2.06,3.8,2.06s2.86-.41,3.6-1.24c.73-.83,1.19-2.31,1.36-4.45h3.23Z" style="fill:#fff;"/><path d="M705.19,76.6h-3.09v-26.83h3.09v26.83Z" style="fill:#fff;"/><path d="M709.4,66.27c0-2.75,.67-4.92,2-6.52,1.33-1.6,3.09-2.4,5.28-2.4s3.95,.78,5.28,2.34c1.33,1.56,2.02,3.68,2.05,6.38v1.99c0,2.74-.66,4.9-1.99,6.5-1.33,1.6-3.1,2.39-5.31,2.39s-3.94-.77-5.27-2.32c-1.32-1.55-2.01-3.64-2.05-6.29v-2.06Zm3.09,1.78c0,1.94,.38,3.47,1.14,4.59s1.79,1.67,3.08,1.67c2.72,0,4.13-1.97,4.21-5.9v-2.13c0-1.93-.38-3.46-1.15-4.59-.77-1.12-1.8-1.69-3.09-1.69s-2.29,.56-3.05,1.69c-.76,1.12-1.14,2.65-1.14,4.57v1.8Z" style="fill:#fff;"/><path d="M737.64,74.94c-1.02,1.34-2.52,2.01-4.49,2.01-1.71,0-3-.59-3.88-1.77-.87-1.18-1.32-2.9-1.33-5.16v-12.31h3.07v12.09c0,2.95,.88,4.42,2.65,4.42,1.87,0,3.17-.84,3.88-2.51v-13.99h3.09v18.9h-2.93l-.07-1.66Z" style="fill:#fff;"/><path d="M744.64,66.29c0-2.91,.54-5.13,1.63-6.65,1.09-1.53,2.65-2.29,4.69-2.29,1.8,0,3.21,.73,4.23,2.2v-9.78h3.09v26.83h-2.83l-.16-2.03c-1.01,1.58-2.46,2.37-4.35,2.37s-3.49-.76-4.6-2.28c-1.11-1.52-1.68-3.66-1.7-6.44v-1.94Zm3.09,1.75c0,2.12,.31,3.67,.94,4.67,.63,.99,1.65,1.49,3.07,1.49,1.54,0,2.68-.77,3.44-2.32v-9.52c-.79-1.51-1.93-2.27-3.42-2.27s-2.45,.5-3.07,1.49c-.63,.99-.95,2.52-.96,4.58v1.88Z" style="fill:#fff;"/></g><rect x="296.9" y="146.04" width="846.2" height="63.59" style="fill:#0e558c; stroke:#000; stroke-miterlimit:10;"/><g><path d="M706.65,176.53h-9v9.01h10.48v2.74h-13.68v-25.43h13.5v2.74h-10.31v8.19h9v2.74Z" style="fill:#fff;"/><path d="M719.9,178h-4.47v10.29h-3.21v-25.43h7.13c2.49,0,4.38,.65,5.66,1.95,1.28,1.3,1.92,3.2,1.92,5.7,0,1.57-.35,2.94-1.04,4.11-.69,1.17-1.67,2.05-2.94,2.65l4.93,10.81v.21h-3.44l-4.52-10.29Zm-4.47-2.74h3.88c1.34,0,2.41-.43,3.2-1.29,.8-.86,1.2-2.02,1.2-3.47,0-3.27-1.48-4.9-4.44-4.9h-3.84v9.66Z" style="fill:#fff;"/><path d="M734.4,178.33v9.96h-3.2v-25.43h8.1c2.36,0,4.22,.71,5.57,2.12,1.35,1.41,2.03,3.3,2.03,5.65s-.64,4.33-1.93,5.65c-1.29,1.32-3.1,2.01-5.44,2.05h-5.14Zm0-2.74h4.91c1.42,0,2.51-.43,3.27-1.28,.76-.85,1.13-2.07,1.13-3.66s-.39-2.75-1.17-3.67c-.78-.92-1.85-1.38-3.21-1.38h-4.93v9.99Z" style="fill:#fff;"/></g><rect x="296.9" y="257.73" width="846.2" height="63.59" style="fill:#33658b; stroke:#000; stroke-miterlimit:10;"/><g><path d="M695.2,277.97l6.64,20.75,6.64-20.75h4.12v25.43h-3.2v-9.9l.3-9.92-6.65,19.82h-2.45l-6.62-19.75,.3,9.85v9.9h-3.2v-25.43h4.12Z" style="fill:#fff;"/><path d="M730.3,291.64h-9v9.01h10.48v2.74h-13.68v-25.43h13.5v2.74h-10.31v8.19h9v2.74Z" style="fill:#fff;"/><path d="M746.97,296.97c0-1.27-.34-2.24-1.03-2.92-.69-.68-1.93-1.33-3.72-1.97-1.79-.64-3.16-1.31-4.11-2.02s-1.66-1.51-2.13-2.41-.71-1.94-.71-3.1c0-2.01,.67-3.67,2.02-4.98,1.35-1.3,3.11-1.96,5.28-1.96,1.49,0,2.82,.33,3.98,1s2.06,1.59,2.69,2.78,.94,2.49,.94,3.91h-3.21c0-1.57-.38-2.79-1.13-3.65-.76-.86-1.85-1.29-3.27-1.29-1.29,0-2.29,.36-3,1.08-.71,.72-1.07,1.74-1.07,3.04,0,1.07,.38,1.97,1.15,2.69,.77,.72,1.96,1.37,3.56,1.94,2.5,.83,4.29,1.85,5.37,3.06,1.08,1.21,1.62,2.79,1.62,4.75,0,2.06-.67,3.71-2.01,4.95s-3.16,1.86-5.47,1.86c-1.48,0-2.84-.32-4.1-.97-1.25-.65-2.24-1.55-2.95-2.72-.72-1.17-1.07-2.51-1.07-4.03h3.21c0,1.57,.44,2.79,1.32,3.67,.88,.87,2.07,1.31,3.59,1.31,1.41,0,2.47-.36,3.18-1.08,.71-.72,1.06-1.71,1.06-2.95Z" style="fill:#fff;"/></g><rect x="296.9" y="369.42" width="846.2" height="63.59" style="fill:#578bb6; stroke:#000; stroke-miterlimit:10;"/><g><path d="M683.81,407.59c0-1.27-.34-2.24-1.03-2.92-.69-.68-1.93-1.33-3.72-1.97-1.79-.64-3.16-1.31-4.11-2.02-.95-.7-1.66-1.51-2.13-2.41s-.71-1.94-.71-3.1c0-2.01,.67-3.67,2.02-4.98,1.35-1.3,3.11-1.96,5.28-1.96,1.49,0,2.82,.33,3.98,1,1.16,.67,2.06,1.59,2.69,2.78s.94,2.49,.94,3.91h-3.21c0-1.57-.38-2.79-1.13-3.65-.76-.86-1.85-1.29-3.27-1.29-1.29,0-2.29,.36-3,1.08-.71,.72-1.07,1.74-1.07,3.04,0,1.07,.38,1.97,1.15,2.69,.77,.72,1.96,1.37,3.56,1.94,2.5,.83,4.29,1.85,5.37,3.06,1.08,1.21,1.62,2.79,1.62,4.75,0,2.06-.67,3.71-2.01,4.95-1.34,1.24-3.16,1.86-5.47,1.86-1.48,0-2.84-.32-4.1-.97-1.25-.65-2.24-1.55-2.95-2.72-.72-1.17-1.07-2.51-1.07-4.03h3.21c0,1.57,.44,2.79,1.32,3.67,.88,.87,2.07,1.31,3.59,1.31,1.41,0,2.47-.36,3.18-1.08,.71-.72,1.06-1.7,1.06-2.95Z" style="fill:#fff;"/><path d="M707.18,405.93c-.14,2.73-.9,4.81-2.3,6.26s-3.36,2.17-5.89,2.17-4.58-.97-6.08-2.91c-1.5-1.94-2.25-4.57-2.25-7.89v-4.61c0-3.31,.77-5.92,2.31-7.84,1.54-1.92,3.65-2.88,6.31-2.88,2.46,0,4.36,.73,5.7,2.2,1.35,1.47,2.08,3.57,2.19,6.31h-3.23c-.14-2.07-.58-3.55-1.31-4.44s-1.85-1.33-3.35-1.33c-1.73,0-3.07,.68-4,2.03-.93,1.36-1.4,3.34-1.4,5.96v4.66c0,2.57,.43,4.55,1.3,5.92,.87,1.37,2.13,2.06,3.8,2.06s2.86-.41,3.6-1.24c.73-.83,1.19-2.31,1.36-4.45h3.23Z" style="fill:#fff;"/><path d="M723.37,407.37h-8.59l-1.97,6.65h-3.28l8.19-25.43h2.74l8.21,25.43h-3.28l-2.01-6.65Zm-7.76-2.74h6.93l-3.48-11.56-3.46,11.56Z" style="fill:#fff;"/><path d="M732.12,414.02v-25.43h6.06c2.97,0,5.27,.93,6.92,2.79,1.64,1.86,2.46,4.47,2.46,7.83v4.26c0,3.37-.83,5.96-2.5,7.8-1.67,1.83-4.08,2.75-7.25,2.75h-5.69Zm3.2-22.69v19.95h2.57c2.25,0,3.89-.64,4.93-1.93,1.04-1.29,1.57-3.2,1.59-5.73v-4.51c0-2.68-.52-4.65-1.55-5.9-1.03-1.25-2.59-1.88-4.67-1.88h-2.86Z" style="fill:#fff;"/><path d="M764.03,407.37h-8.59l-1.97,6.65h-3.28l8.19-25.43h2.74l8.21,25.43h-3.28l-2.01-6.65Zm-7.76-2.74h6.93l-3.48-11.56-3.46,11.56Z" style="fill:#fff;"/></g><rect x="296.9" y="481.11" width="846.2" height="63.59" style="fill:#428ec8; stroke:#000; stroke-miterlimit:10;"/><g><path d="M578.53,516.93c0-1.27-.34-2.24-1.03-2.92-.69-.68-1.93-1.33-3.72-1.97-1.79-.64-3.16-1.31-4.11-2.02-.95-.7-1.66-1.51-2.13-2.41s-.71-1.94-.71-3.1c0-2.01,.67-3.67,2.02-4.98,1.35-1.3,3.11-1.96,5.28-1.96,1.49,0,2.82,.33,3.98,1,1.16,.67,2.06,1.59,2.69,2.78s.94,2.49,.94,3.91h-3.21c0-1.57-.38-2.79-1.13-3.65-.76-.86-1.85-1.29-3.27-1.29-1.29,0-2.29,.36-3,1.08-.71,.72-1.07,1.74-1.07,3.04,0,1.07,.38,1.97,1.15,2.69,.77,.72,1.96,1.37,3.56,1.94,2.5,.83,4.29,1.85,5.37,3.06,1.08,1.21,1.62,2.79,1.62,4.75,0,2.06-.67,3.71-2.01,4.95s-3.16,1.86-5.47,1.86c-1.48,0-2.84-.32-4.1-.97-1.25-.65-2.24-1.55-2.95-2.72-.72-1.17-1.07-2.51-1.07-4.03h3.21c0,1.57,.44,2.79,1.32,3.67,.88,.87,2.07,1.31,3.59,1.31,1.41,0,2.47-.36,3.18-1.08,.71-.72,1.06-1.7,1.06-2.95Z" style="fill:#fff;"/><path d="M588.61,506.4c1.18-1.52,2.68-2.29,4.51-2.29,3.34,0,5.04,2.23,5.08,6.69v12.56h-3.07v-12.42c0-1.48-.25-2.53-.74-3.15s-1.24-.93-2.23-.93c-.77,0-1.46,.26-2.07,.77-.61,.51-1.1,1.18-1.48,2.01v13.73h-3.09v-26.83h3.09v9.87Z" style="fill:#fff;"/><path d="M602.15,513.04c0-2.75,.67-4.92,2-6.52,1.33-1.6,3.09-2.4,5.28-2.4s3.95,.78,5.28,2.34c1.33,1.56,2.02,3.69,2.05,6.38v1.99c0,2.74-.66,4.9-1.99,6.5s-3.1,2.39-5.31,2.39-3.94-.77-5.27-2.32c-1.32-1.55-2.01-3.64-2.05-6.29v-2.06Zm3.09,1.78c0,1.94,.38,3.47,1.14,4.58,.76,1.11,1.79,1.67,3.08,1.67,2.72,0,4.13-1.97,4.21-5.9v-2.13c0-1.93-.38-3.46-1.15-4.58-.77-1.12-1.8-1.69-3.09-1.69s-2.29,.56-3.05,1.69-1.14,2.65-1.14,4.57v1.8Z" style="fill:#fff;"/><path d="M634.41,514.82c0,2.99-.54,5.22-1.62,6.69-1.08,1.47-2.6,2.2-4.57,2.2s-3.36-.72-4.38-2.15v9.06h-3.07v-26.16h2.79l.16,2.1c1.04-1.63,2.52-2.44,4.45-2.44,2.07,0,3.62,.72,4.65,2.17,1.02,1.44,1.55,3.6,1.59,6.48v2.06Zm-3.07-1.76c0-2.12-.33-3.68-.98-4.69s-1.7-1.51-3.14-1.51-2.6,.74-3.37,2.22v9.83c.76,1.44,1.89,2.17,3.41,2.17,1.4,0,2.42-.5,3.08-1.51s.99-2.55,1-4.62v-1.89Z" style="fill:#fff;"/><path d="M644.12,513.88h-7.21v-2.64h7.21v2.64Z" style="fill:#fff;"/><path d="M659.49,512.13h-8.59v11.23h-3.2v-25.43h13.24v2.74h-10.04v8.72h8.59v2.74Z" style="fill:#fff;"/><path d="M667.78,523.36h-3.09v-26.83h3.09v26.83Z" style="fill:#fff;"/><path d="M671.99,513.04c0-2.75,.67-4.92,2-6.52,1.33-1.6,3.09-2.4,5.28-2.4s3.95,.78,5.28,2.34c1.33,1.56,2.02,3.69,2.05,6.38v1.99c0,2.74-.66,4.9-1.99,6.5s-3.1,2.39-5.31,2.39-3.94-.77-5.27-2.32c-1.32-1.55-2.01-3.64-2.05-6.29v-2.06Zm3.09,1.78c0,1.94,.38,3.47,1.14,4.58,.76,1.11,1.79,1.67,3.08,1.67,2.72,0,4.13-1.97,4.21-5.9v-2.13c0-1.93-.38-3.46-1.15-4.58-.77-1.12-1.8-1.69-3.09-1.69s-2.29,.56-3.05,1.69-1.14,2.65-1.14,4.57v1.8Z" style="fill:#fff;"/><path d="M689.95,513.04c0-2.75,.67-4.92,2-6.52,1.33-1.6,3.09-2.4,5.28-2.4s3.95,.78,5.28,2.34c1.33,1.56,2.02,3.69,2.05,6.38v1.99c0,2.74-.66,4.9-1.99,6.5s-3.1,2.39-5.31,2.39-3.94-.77-5.27-2.32c-1.32-1.55-2.01-3.64-2.05-6.29v-2.06Zm3.09,1.78c0,1.94,.38,3.47,1.14,4.58,.76,1.11,1.79,1.67,3.08,1.67,2.72,0,4.13-1.97,4.21-5.9v-2.13c0-1.93-.38-3.46-1.15-4.58-.77-1.12-1.8-1.69-3.09-1.69s-2.29,.56-3.05,1.69-1.14,2.65-1.14,4.57v1.8Z" style="fill:#fff;"/><path d="M716.36,507.36c-.43-.08-.9-.12-1.4-.12-1.58,0-2.69,.87-3.32,2.6v13.52h-3.09v-18.9h3l.05,1.92c.83-1.51,2-2.27,3.51-2.27,.49,0,.9,.08,1.22,.24l.02,3Z" style="fill:#fff;"/><path d="M740.25,511.61h-9v9.01h10.48v2.74h-13.68v-25.43h13.5v2.74h-10.31v8.19h9v2.74Z" style="fill:#fff;"/><path d="M744.41,513.05c0-2.94,.54-5.17,1.61-6.68,1.07-1.51,2.67-2.26,4.79-2.26,1.83,0,3.25,.73,4.26,2.2l.14-1.85h2.83v26.16h-3.09v-8.92c-1,1.34-2.39,2.01-4.16,2.01-2.04,0-3.6-.74-4.7-2.23-1.1-1.48-1.65-3.65-1.68-6.49v-1.94Zm3.09,1.76c0,2.12,.33,3.69,.98,4.72,.65,1.03,1.69,1.54,3.11,1.54s2.56-.69,3.35-2.08v-10.13c-.84-1.4-1.95-2.1-3.34-2.1s-2.46,.51-3.11,1.54c-.65,1.02-.98,2.57-1,4.63v1.89Z" style="fill:#fff;"/><path d="M772.6,521.7c-1.02,1.34-2.52,2.01-4.49,2.01-1.71,0-3-.59-3.88-1.77-.87-1.18-1.32-2.9-1.33-5.16v-12.31h3.07v12.09c0,2.95,.88,4.42,2.65,4.42,1.87,0,3.17-.84,3.88-2.52v-13.99h3.09v18.9h-2.93l-.07-1.66Z" style="fill:#fff;"/><path d="M783.83,499.45c0,.52-.15,.96-.44,1.31-.29,.35-.73,.52-1.33,.52s-1.02-.17-1.31-.52c-.29-.35-.44-.79-.44-1.31s.15-.97,.44-1.33c.29-.36,.73-.54,1.31-.54s1.02,.18,1.32,.55c.3,.37,.45,.81,.45,1.32Zm-.24,23.91h-3.09v-18.9h3.09v18.9Z" style="fill:#fff;"/><path d="M802.1,514.82c0,2.99-.54,5.22-1.62,6.69s-2.6,2.2-4.57,2.2-3.36-.72-4.38-2.15v9.06h-3.07v-26.16h2.79l.16,2.1c1.04-1.63,2.52-2.44,4.45-2.44,2.07,0,3.62,.72,4.65,2.17,1.02,1.44,1.55,3.6,1.59,6.48v2.06Zm-3.07-1.76c0-2.12-.33-3.68-.98-4.69s-1.7-1.51-3.14-1.51-2.6,.74-3.37,2.22v9.83c.76,1.44,1.89,2.17,3.41,2.17,1.4,0,2.42-.5,3.08-1.51s.99-2.55,1-4.62v-1.89Z" style="fill:#fff;"/><path d="M809,504.46l.07,1.75c1.15-1.4,2.67-2.1,4.56-2.1,2.11,0,3.58,.91,4.42,2.74,1.19-1.83,2.84-2.74,4.96-2.74,3.48,0,5.26,2.17,5.34,6.51v12.73h-3.07v-12.44c0-1.37-.24-2.4-.73-3.06s-1.32-1-2.48-1c-.93,0-1.69,.36-2.27,1.08s-.92,1.64-1.01,2.76v12.66h-3.11v-12.58c-.04-2.62-1.1-3.93-3.2-3.93-1.56,0-2.66,.78-3.3,2.34v14.17h-3.07v-18.9h2.9Z" style="fill:#fff;"/><path d="M839.75,523.71c-2.35,0-4.16-.7-5.41-2.1-1.26-1.4-1.9-3.46-1.92-6.17v-2.29c0-2.82,.61-5.03,1.84-6.63,1.23-1.6,2.94-2.4,5.14-2.4s3.87,.7,4.96,2.11c1.09,1.41,1.65,3.6,1.68,6.58v2.03h-10.55v.44c0,2.03,.38,3.5,1.14,4.42,.76,.92,1.86,1.38,3.29,1.38,.91,0,1.71-.17,2.4-.52s1.34-.89,1.95-1.63l1.61,1.96c-1.34,1.89-3.38,2.83-6.13,2.83Zm-.35-16.94c-1.28,0-2.23,.44-2.85,1.32-.62,.88-.97,2.24-1.05,4.1h7.44v-.42c-.08-1.79-.4-3.07-.97-3.84s-1.42-1.15-2.58-1.15Z" style="fill:#fff;"/><path d="M852.66,504.46l.09,2.04c1.2-1.6,2.73-2.39,4.59-2.39,3.34,0,5.04,2.23,5.08,6.69v12.56h-3.07v-12.42c0-1.48-.25-2.53-.74-3.15s-1.24-.93-2.23-.93c-.77,0-1.46,.26-2.07,.77-.61,.51-1.1,1.18-1.48,2.01v13.73h-3.09v-18.9h2.92Z" style="fill:#fff;"/><path d="M871.1,499.89v4.58h2.85v2.5h-2.85v11.74c0,.75,.12,1.31,.37,1.7s.66,.58,1.26,.58c.41,0,.82-.07,1.24-.21l-.03,2.61c-.7,.23-1.41,.35-2.15,.35-1.22,0-2.16-.44-2.79-1.31-.64-.87-.96-2.11-.96-3.7v-11.74h-2.88v-2.5h2.88v-4.58h3.07Z" style="fill:#fff;"/></g><g><path d="M371.19,88.16c-12.14,0-22.02-9.88-22.02-22.02s9.88-22.02,22.02-22.02,22.02,9.88,22.02,22.02-9.88,22.02-22.02,22.02Z" style="fill:#f60;"/><path d="M371.19,49.12c9.38,0,17.02,7.64,17.02,17.02s-7.64,17.02-17.02,17.02-17.02-7.64-17.02-17.02,7.64-17.02,17.02-17.02m0-10c-14.92,0-27.02,12.1-27.02,27.02s12.1,27.02,27.02,27.02,27.02-12.1,27.02-27.02-12.1-27.02-27.02-27.02h0Z" style="fill:#fff;"/></g><g><path d="M1069.55,88.16c-12.14,0-22.02-9.88-22.02-22.02s9.88-22.02,22.02-22.02,22.02,9.88,22.02,22.02-9.88,22.02-22.02,22.02Z" style="fill:#f60;"/><path d="M1069.55,49.12c9.38,0,17.02,7.64,17.02,17.02s-7.64,17.02-17.02,17.02-17.02-7.64-17.02-17.02,7.64-17.02,17.02-17.02m0-10c-14.92,0-27.02,12.1-27.02,27.02s12.1,27.02,27.02,27.02,27.02-12.1,27.02-27.02-12.1-27.02-27.02-27.02h0Z" style="fill:#fff;"/></g><g><path d="M371.19,199.85c-12.14,0-22.02-9.88-22.02-22.02s9.88-22.02,22.02-22.02,22.02,9.88,22.02,22.02-9.88,22.02-22.02,22.02Z" style="fill:#f60;"/><path d="M371.19,160.81c9.38,0,17.02,7.64,17.02,17.02s-7.64,17.02-17.02,17.02-17.02-7.64-17.02-17.02,7.64-17.02,17.02-17.02m0-10c-14.92,0-27.02,12.1-27.02,27.02s12.1,27.02,27.02,27.02,27.02-12.1,27.02-27.02-12.1-27.02-27.02-27.02h0Z" style="fill:#fff;"/></g><g><path d="M1069.55,199.85c-12.14,0-22.02-9.88-22.02-22.02s9.88-22.02,22.02-22.02,22.02,9.88,22.02,22.02-9.88,22.02-22.02,22.02Z" style="fill:#f60;"/><path d="M1069.55,160.81c9.38,0,17.02,7.64,17.02,17.02s-7.64,17.02-17.02,17.02-17.02-7.64-17.02-17.02,7.64-17.02,17.02-17.02m0-10c-14.92,0-27.02,12.1-27.02,27.02s12.1,27.02,27.02,27.02,27.02-12.1,27.02-27.02-12.1-27.02-27.02-27.02h0Z" style="fill:#fff;"/></g><g><path d="M371.19,316.32c-12.14,0-22.02-9.88-22.02-22.02s9.88-22.02,22.02-22.02,22.02,9.88,22.02,22.02-9.88,22.02-22.02,22.02Z" style="fill:#f60;"/><path d="M371.19,277.28c9.38,0,17.02,7.64,17.02,17.02s-7.64,17.02-17.02,17.02-17.02-7.64-17.02-17.02,7.64-17.02,17.02-17.02m0-10c-14.92,0-27.02,12.1-27.02,27.02s12.1,27.02,27.02,27.02,27.02-12.1,27.02-27.02-12.1-27.02-27.02-27.02h0Z" style="fill:#fff;"/></g><g><path d="M1069.55,316.32c-12.14,0-22.02-9.88-22.02-22.02s9.88-22.02,22.02-22.02,22.02,9.88,22.02,22.02-9.88,22.02-22.02,22.02Z" style="fill:#f60;"/><path d="M1069.55,277.28c9.38,0,17.02,7.64,17.02,17.02s-7.64,17.02-17.02,17.02-17.02-7.64-17.02-17.02,7.64-17.02,17.02-17.02m0-10c-14.92,0-27.02,12.1-27.02,27.02s12.1,27.02,27.02,27.02,27.02-12.1,27.02-27.02-12.1-27.02-27.02-27.02h0Z" style="fill:#fff;"/></g><g><path d="M371.19,423.24c-12.14,0-22.02-9.88-22.02-22.02s9.88-22.02,22.02-22.02,22.02,9.88,22.02,22.02-9.88,22.02-22.02,22.02Z" style="fill:#f60;"/><path d="M371.19,384.2c9.38,0,17.02,7.64,17.02,17.02s-7.64,17.02-17.02,17.02-17.02-7.64-17.02-17.02,7.64-17.02,17.02-17.02m0-10c-14.92,0-27.02,12.1-27.02,27.02s12.1,27.02,27.02,27.02,27.02-12.1,27.02-27.02-12.1-27.02-27.02-27.02h0Z" style="fill:#fff;"/></g><g><path d="M1069.55,423.24c-12.14,0-22.02-9.88-22.02-22.02s9.88-22.02,22.02-22.02,22.02,9.88,22.02,22.02-9.88,22.02-22.02,22.02Z" style="fill:#f60;"/><path d="M1069.55,384.2c9.38,0,17.02,7.64,17.02,17.02s-7.64,17.02-17.02,17.02-17.02-7.64-17.02-17.02,7.64-17.02,17.02-17.02m0-10c-14.92,0-27.02,12.1-27.02,27.02s12.1,27.02,27.02,27.02,27.02-12.1,27.02-27.02-12.1-27.02-27.02-27.02h0Z" style="fill:#fff;"/></g><g><path d="M371.19,534.93c-12.14,0-22.02-9.88-22.02-22.02s9.88-22.02,22.02-22.02,22.02,9.88,22.02,22.02-9.88,22.02-22.02,22.02Z" style="fill:#f60;"/><path d="M371.19,495.89c9.38,0,17.02,7.64,17.02,17.02s-7.64,17.02-17.02,17.02-17.02-7.64-17.02-17.02,7.64-17.02,17.02-17.02m0-10c-14.92,0-27.02,12.1-27.02,27.02s12.1,27.02,27.02,27.02,27.02-12.1,27.02-27.02-12.1-27.02-27.02-27.02h0Z" style="fill:#fff;"/></g><g><path d="M1069.55,534.93c-12.14,0-22.02-9.88-22.02-22.02s9.88-22.02,22.02-22.02,22.02,9.88,22.02,22.02-9.88,22.02-22.02,22.02Z" style="fill:#f60;"/><path d="M1069.55,495.89c9.38,0,17.02,7.64,17.02,17.02s-7.64,17.02-17.02,17.02-17.02-7.64-17.02-17.02,7.64-17.02,17.02-17.02m0-10c-14.92,0-27.02,12.1-27.02,27.02s12.1,27.02,27.02,27.02,27.02-12.1,27.02-27.02-12.1-27.02-27.02-27.02h0Z" style="fill:#fff;"/></g><g><g id="Robot"><path d="M504.61,528.62l2.48-10.49-11.88-11.88c-1.49-1.49-1.49-3.91,0-5.4,.58-.58,1.31-.94,2.13-1.06l10.32-10.32c.68-.68,1.59-1.06,2.56-1.06s1.88,.38,2.56,1.06c.74,.74,1.11,1.74,1.04,2.78l5.33,4.6h7.08l2.13,9.39-.93,.41-3.96-5.72h-3.16c-.13,.41-.36,.78-.67,1.09-.36,.36-.81,.61-1.3,.73v3.22l5.72,3.96-.41,.93-9.44-2.14,.81-6.65-4.5-5.2-6.94,6.94,9.65,9.65h2.47l3.58,15.16h-14.65Z" style="fill:none; fill-rule:evenodd; stroke:#fff; stroke-linecap:round; stroke-linejoin:round;"/></g><path d="M517.19,498.2c.09,0,.18,.01,.26,.03,.14,.03,.27,.08,.39,.15,.02,.01,.04,.02,.05,.03,.11,.07,.21,.16,.3,.26,.01,.02,.03,.03,.04,.05,.08,.1,.15,.22,.2,.35,0,.02,.01,.04,.02,.05,.05,.14,.08,.28,.08,.43,0,.74-.6,1.34-1.34,1.34-.02,0-.03,0-.05,0-.14,0-.27-.03-.4-.08-.01,0-.03,0-.04-.01-.13-.05-.24-.12-.34-.2-.02-.01-.03-.03-.05-.04-.1-.09-.18-.19-.25-.3-.01-.02-.02-.04-.03-.05-.07-.12-.12-.25-.15-.38-.02-.09-.03-.18-.03-.27,0-.74,.6-1.34,1.34-1.34Z" style="fill:#fff; fill-rule:evenodd;"/><path d="M509.93,490.86c.88,0,1.6,.72,1.6,1.6s-.72,1.6-1.6,1.6-1.6-.72-1.6-1.6,.72-1.6,1.6-1.6Z" style="fill:#fff; fill-rule:evenodd;"/><path d="M498.31,505.81c-1.12,0-2.03-.91-2.03-2.02s.91-2.03,2.03-2.03,2.03,.91,2.03,2.03-.91,2.02-2.03,2.02Z" style="fill:#fff; fill-rule:evenodd;"/><path d="M511.31,519.19c-.88,0-1.6-.72-1.6-1.6s.72-1.6,1.6-1.6,1.6,.72,1.6,1.6-.72,1.6-1.6,1.6Z" style="fill:#fff; fill-rule:evenodd;"/><path d="M522.76,537.4h-22.26c-.79,0-1.44-.65-1.44-1.44l.78-3.6c0-.79,.65-1.44,1.44-1.44h20.71c.79,0,1.44,.65,1.44,1.44l.78,3.6c0,.79-.65,1.44-1.44,1.44Z" style="fill:none; fill-rule:evenodd; stroke:#fff; stroke-miterlimit:10;"/></g><path d="M930.19,517.65h3.48l.04-.04c1.22-1.23,2.8-2.11,4.55-2.48l6.33-20.22,.54-1.72h19.78v21.5h5.59v.79c1.26,.46,2.4,1.19,3.33,2.13,1.65,1.65,2.68,3.94,2.68,6.46s-1.02,4.81-2.68,6.46c-1.65,1.66-3.94,2.68-6.46,2.68s-4.81-1.02-6.46-2.68c-.93-.93-1.66-2.06-2.12-3.31h-10.03c-.46,1.26-1.19,2.39-2.12,3.31-1.65,1.66-3.94,2.68-6.46,2.68s-4.81-1.02-6.46-2.68c-.7-.7-1.29-1.51-1.73-2.41h-1.79v1.16l-22.05-1.51v-2.45h16.26v-27.59h5.79v19.91h0Zm-10.2-25.05h-15.61v13.24h16.86v-13.24h-1.24Zm0,16.46h-15.61v13.24h16.86v-13.24h-1.24Zm23.84,4.66l.69,2.32c.78,.42,1.49,.96,2.11,1.58,.79,.79,1.43,1.72,1.89,2.75l10.32-4.28,1.18-.49v-17.51h-11.3l-4.89,15.62h0Zm26.55,7.36c-.77-.77-1.83-1.24-3-1.24s-2.23,.47-3,1.24c-.77,.77-1.24,1.83-1.24,3s.47,2.23,1.24,3,1.83,1.24,3,1.24,2.23-.47,3-1.24c.77-.77,1.24-1.83,1.24-3s-.48-2.23-1.24-3h0Zm-27.2,0c-.77-.77-1.83-1.24-3-1.24s-2.23,.47-3,1.24c-.77,.77-1.24,1.83-1.24,3s.47,2.23,1.24,3c.77,.77,1.83,1.24,3,1.24s2.23-.47,3-1.24c.77-.77,1.24-1.83,1.24-3s-.47-2.23-1.24-3Z" style="fill:none; fill-rule:evenodd; stroke:#fff; stroke-miterlimit:10;"/><line x1="951.93" y1="515.65" x2="957.41" y2="510.16" style="fill:none; stroke:#fff; stroke-miterlimit:10;"/><line x1="954.88" y1="510.9" x2="958.89" y2="514.91" style="fill:none; stroke:#fff; stroke-miterlimit:10;"/><g><polyline points="932.17 283.79 932.17 298.7 924.39 298.7 924.39 283.79" style="fill:none; stroke:#fff; stroke-miterlimit:10;"/><circle cx="928.28" cy="275.36" r="9.08" style="fill:none; stroke:#fff; stroke-miterlimit:10;"/><line x1="920.5" y1="302.59" x2="936.07" y2="302.59" style="fill:none; stroke:#fff; stroke-linecap:round; stroke-miterlimit:10;"/><line x1="917.91" y1="306.48" x2="938.66" y2="306.48" style="fill:none; stroke:#fff; stroke-linecap:round; stroke-miterlimit:10;"/><line x1="915.31" y1="310.38" x2="941.25" y2="310.38" style="fill:none; stroke:#fff; stroke-linecap:round; stroke-miterlimit:10;"/><line x1="912.72" y1="314.27" x2="943.85" y2="314.27" style="fill:none; stroke:#fff; stroke-linecap:round; stroke-miterlimit:10;"/></g><path d="M935.72,43.84c-6.86,0-11.88,3.98-14.23,8.68-.7,1.37-2.38,1.92-3.75,1.22-2.84-1.42-6.27-1.23-8.95,.38-2.67,1.6-4.68,4.51-4.68,9.24,0,1.35-.99,2.5-2.32,2.73-5.08,.85-8.83,6.05-8.83,11.21,0,6.22,4.78,11.15,13.01,11.15h45.54c6.71,0,12.08-5.38,12.08-12.08,0-5.9-4.19-10.79-9.73-11.88-1.43-.26-2.41-1.58-2.27-3.02,.88-8.66-5.95-17.63-15.89-17.63Z" style="fill:none; stroke:#fff; stroke-miterlimit:10;"/><g><path d="M941.99,197.42c0,1.56-1.36,1.86-2.92,1.86h-7.81c-1.64,0-3.25-.3-3.25-1.86h-27.31v2.73c0,1.23,.85,2.67,2.08,2.67h65.45c1.23,0,1.93-1.36,1.93-2.67l.03-2.71-28.19-.03Z" style="fill:none; fill-rule:evenodd; stroke:#fff; stroke-miterlimit:10;"/><path d="M900.71,198.19v-1.54l7.02-6.72c.41-.39,.96-.61,1.53-.61h52.24c.57,0,1.12,.22,1.53,.61l7.13,6.72v1.54" style="fill:none; stroke:#fff; stroke-miterlimit:10;"/><rect x="907.54" y="152.85" width="55.56" height="32.8" rx="1.93" ry="1.93" style="fill:none; stroke:#fff; stroke-miterlimit:10;"/></g><g><g><rect x="902.47" y="385.79" width="24.95" height="22.48" rx="1.94" ry="1.94" style="fill:none; stroke:#fff; stroke-miterlimit:10;"/><line x1="902.48" y1="389.16" x2="927.42" y2="389.16" style="fill:none; stroke:#fff; stroke-miterlimit:10;"/><circle cx="904.85" cy="387.38" r=".59" style="fill:#fff;"/><circle cx="907.08" cy="387.38" r=".59" style="fill:#fff;"/><circle cx="909.31" cy="387.38" r=".59" style="fill:#fff;"/></g><g><rect x="906.53" y="412.73" width="8.14" height="10.44" rx="3.79" ry="3.79" style="fill:none; stroke:#fff; stroke-miterlimit:10;"/><path d="M901.28,428.31v-3.02s-.17-.98,.79-1.28c.74-.23,5.52-1.82,5.52-1.82" style="fill:none; stroke:#fff; stroke-miterlimit:10;"/><path d="M919.99,428.31v-3.02s.17-.98-.79-1.28c-.74-.23-5.52-1.82-5.52-1.82" style="fill:none; stroke:#fff; stroke-miterlimit:10;"/></g><g><path d="M946.19,373.07c.28,0,.56,.01,.83,.04l.87,2.27c.68,.17,1.32,.44,1.91,.79l2.22-.99c.43,.36,.82,.75,1.18,1.18l-.99,2.22c.35,.58,.62,1.23,.79,1.91l2.27,.87c.02,.27,.04,.55,.04,.83s-.01,.56-.04,.83l-2.27,.87c-.17,.68-.44,1.32-.79,1.91l.99,2.22c-.36,.43-.75,.82-1.18,1.18l-2.22-.99c-.58,.35-1.23,.62-1.91,.79l-.87,2.27c-.27,.02-.55,.04-.83,.04s-.56-.01-.83-.04l-.87-2.27c-.68-.17-1.32-.44-1.91-.79l-2.22,.99c-.43-.36-.82-.75-1.18-1.18l.99-2.22c-.35-.58-.62-1.23-.79-1.91l-2.27-.87c-.02-.27-.04-.55-.04-.83s.01-.56,.04-.83l2.27-.87c.17-.68,.44-1.32,.79-1.91l-.99-2.22c.36-.43,.75-.82,1.18-1.18l2.22,.99c.58-.35,1.23-.62,1.91-.79l.87-2.27c.27-.02,.55-.04,.83-.04m0-1c-.3,0-.6,.01-.92,.04l-.62,.06-.22,.58-.69,1.8c-.41,.13-.81,.3-1.2,.5l-1.76-.79-.57-.25-.48,.4c-.47,.39-.91,.83-1.3,1.3l-.4,.48,.25,.57,.79,1.76c-.2,.39-.36,.79-.5,1.2l-1.8,.69-.58,.22-.06,.62c-.03,.32-.04,.63-.04,.92s.01,.6,.04,.92l.06,.62,.58,.22,1.8,.69c.13,.41,.3,.81,.5,1.2l-.79,1.76-.25,.57,.4,.48c.39,.47,.83,.91,1.3,1.3l.48,.4,.57-.25,1.76-.79c.39,.2,.79,.36,1.2,.5l.69,1.8,.22,.58,.62,.06c.32,.03,.63,.04,.92,.04s.6-.01,.92-.04l.62-.06,.22-.58,.69-1.8c.41-.13,.81-.3,1.2-.5l1.76,.79,.57,.25,.48-.4c.47-.39,.91-.83,1.31-1.31l.4-.48-.25-.57-.79-1.76c.2-.39,.36-.79,.5-1.2l1.8-.69,.58-.22,.06-.62c.03-.32,.04-.63,.04-.92s-.01-.6-.04-.92l-.06-.62-.58-.22-1.8-.69c-.13-.41-.3-.81-.5-1.2l.79-1.76,.25-.57-.4-.48c-.39-.47-.83-.91-1.31-1.31l-.48-.4-.57,.25-1.76,.79c-.39-.2-.79-.36-1.2-.5l-.69-1.8-.22-.58-.62-.06c-.32-.03-.63-.04-.92-.04h0Z" style="fill:#fff;"/><path d="M946.19,377.47c2.6,0,4.71,2.11,4.71,4.71s-2.11,4.71-4.71,4.71-4.71-2.11-4.71-4.71,2.11-4.71,4.71-4.71m0-1c-3.15,0-5.71,2.56-5.71,5.71s2.56,5.71,5.71,5.71,5.71-2.56,5.71-5.71-2.56-5.71-5.71-5.71h0Z" style="fill:#fff;"/></g><rect x="936.94" y="409.38" width="18.12" height="5.04" style="fill:none; stroke:#fff; stroke-miterlimit:10;"/><rect x="936.94" y="416.74" width="18.12" height="5.04" style="fill:none; stroke:#fff; stroke-miterlimit:10;"/><rect x="936.94" y="424.1" width="18.12" height="5.04" style="fill:none; stroke:#fff; stroke-miterlimit:10;"/><polyline points="929.28 401.75 946.18 401.75 946.18 406.61" style="fill:none; stroke:#fff; stroke-miterlimit:10;"/><polyline points="929.13 398.51 946.18 398.51 946.18 393.35" style="fill:none; stroke:#fff; stroke-miterlimit:10;"/><rect x="911.31" y="398.59" width="2.5" height="5.51" style="fill:none; stroke:#fff; stroke-miterlimit:10;"/><rect x="916.32" y="395.81" width="2.5" height="8.3" style="fill:none; stroke:#fff; stroke-miterlimit:10;"/><rect x="921.32" y="392.51" width="2.5" height="11.59" style="fill:none; stroke:#fff; stroke-miterlimit:10;"/></g><g><line x1="371.19" y1="107.98" x2="371.19" y2="519.83" style="fill:none; stroke:#f60; stroke-miterlimit:10; stroke-width:10px;"/><polygon points="353.74 113.09 371.19 82.87 388.64 113.09 353.74 113.09" style="fill:#f60;"/></g><g><line x1="1069.55" y1="66.14" x2="1069.55" y2="471.42" style="fill:none; stroke:#f60; stroke-miterlimit:10; stroke-width:10px;"/><polygon points="1052.1 466.31 1069.55 496.53 1087 466.31 1052.1 466.31" style="fill:#f60;"/></g><g><path d="M403.17,122.08v6.17h-3.55v-17.55h5.98c1.74,0,3.12,.54,4.15,1.62,1.03,1.08,1.55,2.48,1.55,4.2s-.51,3.08-1.53,4.07c-1.02,1-2.44,1.49-4.24,1.49h-2.36Zm0-2.95h2.43c.68,0,1.2-.22,1.57-.66,.37-.44,.55-1.08,.55-1.93s-.19-1.57-.57-2.09c-.38-.52-.88-.78-1.52-.79h-2.47v5.47Z" style="fill:#f60;"/><path d="M412.94,121.31c0-1.98,.47-3.53,1.4-4.65s2.22-1.69,3.87-1.69,2.96,.56,3.89,1.69,1.4,2.68,1.4,4.68v.83c0,1.99-.46,3.54-1.39,4.65-.93,1.12-2.22,1.68-3.88,1.68s-2.97-.56-3.9-1.68c-.93-1.12-1.39-2.68-1.39-4.67v-.83Zm3.42,.86c0,2.33,.62,3.5,1.87,3.5,1.15,0,1.77-.97,1.86-2.92v-1.43c.01-1.19-.15-2.07-.48-2.65-.33-.57-.8-.86-1.4-.86s-1.03,.29-1.36,.86c-.32,.58-.49,1.46-.49,2.65v.86Z" style="fill:#f60;"/><path d="M425.63,111.83c0-.53,.17-.96,.51-1.3s.79-.51,1.35-.51,1.01,.17,1.35,.51,.51,.77,.51,1.3-.17,.96-.5,1.3c-.33,.35-.79,.52-1.36,.52s-1.02-.17-1.36-.52c-.33-.35-.5-.78-.5-1.3Zm3.58,16.42h-3.42v-13.04h3.42v13.04Z" style="fill:#f60;"/><path d="M434.97,115.21l.1,1.29c.77-1.02,1.78-1.53,3.03-1.53,2.24,0,3.4,1.57,3.46,4.71v8.57h-3.42v-8.32c0-.74-.11-1.28-.33-1.61-.22-.33-.61-.5-1.16-.5-.62,0-1.1,.32-1.45,.95v9.48h-3.42v-13.04h3.21Z" style="fill:#f60;"/><path d="M447.96,112v3.21h1.75v2.56h-1.75v6.48c0,.52,.07,.87,.21,1.06,.14,.19,.41,.29,.81,.29,.33,0,.6-.03,.81-.08l-.02,2.65c-.58,.22-1.21,.33-1.88,.33-2.2,0-3.31-1.26-3.34-3.79v-6.94h-1.51v-2.56h1.51v-3.21h3.41Z" style="fill:#f60;"/><path d="M457.72,122.15h-5.89v-2.85h5.89v2.85Z" style="fill:#f60;"/><path d="M464.52,112v3.21h1.75v2.56h-1.75v6.48c0,.52,.07,.87,.21,1.06,.14,.19,.41,.29,.81,.29,.33,0,.6-.03,.81-.08l-.02,2.65c-.58,.22-1.21,.33-1.88,.33-2.2,0-3.31-1.26-3.34-3.79v-6.94h-1.51v-2.56h1.51v-3.21h3.41Z" style="fill:#f60;"/><path d="M467.37,121.31c0-1.98,.47-3.53,1.4-4.65s2.22-1.69,3.87-1.69,2.96,.56,3.89,1.69,1.4,2.68,1.4,4.68v.83c0,1.99-.46,3.54-1.39,4.65-.93,1.12-2.22,1.68-3.88,1.68s-2.97-.56-3.9-1.68c-.93-1.12-1.39-2.68-1.39-4.67v-.83Zm3.42,.86c0,2.33,.62,3.5,1.87,3.5,1.15,0,1.77-.97,1.86-2.92v-1.43c.01-1.19-.15-2.07-.48-2.65-.33-.57-.8-.86-1.4-.86s-1.03,.29-1.36,.86c-.32,.58-.49,1.46-.49,2.65v.86Z" style="fill:#f60;"/><path d="M486.19,122.15h-5.89v-2.85h5.89v2.85Z" style="fill:#f60;"/><path d="M499.19,122.14c0,2.05-.35,3.62-1.06,4.71-.7,1.09-1.75,1.64-3.14,1.64-1.06,0-1.91-.43-2.56-1.29v6.06h-3.41v-18.06h3.16l.12,1.19c.65-.96,1.54-1.43,2.66-1.43,1.39,0,2.44,.51,3.14,1.52,.7,1.01,1.06,2.56,1.08,4.65v1Zm-3.4-.86c0-1.26-.14-2.15-.42-2.68-.28-.52-.75-.78-1.41-.78-.7,0-1.21,.29-1.53,.88v6.11c.31,.56,.82,.84,1.56,.84,.68,0,1.14-.29,1.4-.86,.26-.57,.39-1.46,.39-2.66v-.86Z" style="fill:#f60;"/><path d="M500.85,121.31c0-1.98,.47-3.53,1.4-4.65s2.22-1.69,3.87-1.69,2.96,.56,3.89,1.69,1.4,2.68,1.4,4.68v.83c0,1.99-.46,3.54-1.39,4.65-.93,1.12-2.22,1.68-3.88,1.68s-2.97-.56-3.9-1.68c-.93-1.12-1.39-2.68-1.39-4.67v-.83Zm3.42,.86c0,2.33,.62,3.5,1.87,3.5,1.15,0,1.77-.97,1.86-2.92v-1.43c.01-1.19-.15-2.07-.48-2.65-.33-.57-.8-.86-1.4-.86s-1.03,.29-1.36,.86c-.32,.58-.49,1.46-.49,2.65v.86Z" style="fill:#f60;"/><path d="M513.53,111.83c0-.53,.17-.96,.51-1.3s.79-.51,1.35-.51,1.01,.17,1.35,.51,.51,.77,.51,1.3-.17,.96-.5,1.3c-.33,.35-.79,.52-1.36,.52s-1.02-.17-1.36-.52c-.33-.35-.5-.78-.5-1.3Zm3.58,16.42h-3.42v-13.04h3.42v13.04Z" style="fill:#f60;"/><path d="M522.87,115.21l.1,1.29c.77-1.02,1.78-1.53,3.03-1.53,2.24,0,3.4,1.57,3.46,4.71v8.57h-3.42v-8.32c0-.74-.11-1.28-.33-1.61-.22-.33-.61-.5-1.16-.5-.62,0-1.1,.32-1.45,.95v9.48h-3.42v-13.04h3.21Z" style="fill:#f60;"/><path d="M535.87,112v3.21h1.75v2.56h-1.75v6.48c0,.52,.07,.87,.21,1.06,.14,.19,.41,.29,.81,.29,.33,0,.6-.03,.81-.08l-.02,2.65c-.58,.22-1.21,.33-1.88,.33-2.2,0-3.31-1.26-3.34-3.79v-6.94h-1.51v-2.56h1.51v-3.21h3.41Z" style="fill:#f60;"/><path d="M544.72,121.33c0-2.14,.36-3.73,1.09-4.79s1.78-1.58,3.16-1.58c1,0,1.84,.43,2.51,1.3v-6.53h3.44v18.52h-3.1l-.16-1.33c-.7,1.04-1.6,1.57-2.7,1.57-1.37,0-2.41-.52-3.13-1.57-.72-1.04-1.09-2.58-1.1-4.61v-.99Zm3.42,.86c0,1.29,.14,2.18,.41,2.69,.27,.51,.73,.77,1.39,.77s1.18-.3,1.53-.9v-5.96c-.34-.64-.84-.96-1.52-.96-.63,0-1.09,.25-1.38,.76s-.43,1.41-.43,2.7v.9Z" style="fill:#f60;"/><path d="M563.61,128.25c-.1-.2-.19-.54-.29-1.01-.61,.84-1.44,1.25-2.48,1.25s-2-.36-2.72-1.08c-.72-.72-1.08-1.66-1.08-2.81,0-1.37,.44-2.42,1.31-3.17,.87-.75,2.13-1.13,3.77-1.15h1.04v-1.05c0-.59-.1-1-.3-1.24s-.49-.36-.88-.36c-.85,0-1.28,.5-1.28,1.49h-3.41c0-1.21,.45-2.2,1.36-2.98,.9-.78,2.05-1.18,3.43-1.18s2.54,.37,3.32,1.11c.78,.74,1.18,1.81,1.18,3.19v6.14c.02,1.13,.18,2.01,.48,2.64v.2h-3.44Zm-2.01-2.44c.38,0,.7-.08,.96-.23s.46-.33,.59-.54v-2.71h-.82c-.58,0-1.04,.18-1.37,.55-.33,.37-.5,.86-.5,1.48,0,.96,.38,1.45,1.13,1.45Z" style="fill:#f60;"/><path d="M573,112v3.21h1.75v2.56h-1.75v6.48c0,.52,.07,.87,.21,1.06,.14,.19,.41,.29,.81,.29,.33,0,.6-.03,.81-.08l-.02,2.65c-.58,.22-1.21,.33-1.88,.33-2.2,0-3.31-1.26-3.34-3.79v-6.94h-1.51v-2.56h1.51v-3.21h3.41Z" style="fill:#f60;"/><path d="M582.81,128.25c-.1-.2-.19-.54-.29-1.01-.61,.84-1.44,1.25-2.48,1.25s-2-.36-2.72-1.08c-.72-.72-1.08-1.66-1.08-2.81,0-1.37,.44-2.42,1.31-3.17,.87-.75,2.13-1.13,3.77-1.15h1.04v-1.05c0-.59-.1-1-.3-1.24s-.49-.36-.88-.36c-.85,0-1.28,.5-1.28,1.49h-3.41c0-1.21,.45-2.2,1.36-2.98,.9-.78,2.05-1.18,3.43-1.18s2.54,.37,3.32,1.11c.78,.74,1.18,1.81,1.18,3.19v6.14c.02,1.13,.18,2.01,.48,2.64v.2h-3.44Zm-2.01-2.44c.38,0,.7-.08,.96-.23s.46-.33,.59-.54v-2.71h-.82c-.58,0-1.04,.18-1.37,.55-.33,.37-.5,.86-.5,1.48,0,.96,.38,1.45,1.13,1.45Z" style="fill:#f60;"/><path d="M593.93,111.83c0-.53,.17-.96,.51-1.3s.79-.51,1.35-.51,1.01,.17,1.35,.51,.51,.77,.51,1.3-.17,.96-.5,1.3c-.33,.35-.79,.52-1.36,.52s-1.02-.17-1.36-.52c-.33-.35-.5-.78-.5-1.3Zm3.58,16.42h-3.42v-13.04h3.42v13.04Z" style="fill:#f60;"/><path d="M603.27,115.21l.1,1.29c.77-1.02,1.78-1.53,3.03-1.53,2.24,0,3.4,1.57,3.46,4.71v8.57h-3.42v-8.32c0-.74-.11-1.28-.33-1.61-.22-.33-.61-.5-1.16-.5-.62,0-1.1,.32-1.45,.95v9.48h-3.42v-13.04h3.21Z" style="fill:#f60;"/><path d="M616.27,112v3.21h1.75v2.56h-1.75v6.48c0,.52,.07,.87,.21,1.06,.14,.19,.41,.29,.81,.29,.33,0,.6-.03,.81-.08l-.02,2.65c-.58,.22-1.21,.33-1.88,.33-2.2,0-3.31-1.26-3.34-3.79v-6.94h-1.51v-2.56h1.51v-3.21h3.41Z" style="fill:#f60;"/><path d="M625.15,128.49c-1.75,0-3.12-.52-4.1-1.57s-1.47-2.54-1.47-4.48v-1.04c0-2.06,.45-3.64,1.35-4.76s2.19-1.68,3.87-1.68,2.87,.52,3.7,1.57c.83,1.05,1.25,2.6,1.27,4.65v1.67h-6.79c.05,.97,.26,1.68,.64,2.13,.38,.45,.96,.67,1.75,.67,1.14,0,2.09-.39,2.86-1.17l1.34,2.06c-.42,.58-1.03,1.05-1.82,1.4-.8,.36-1.66,.54-2.59,.54Zm-2.15-8h3.41v-.31c-.02-.78-.14-1.37-.39-1.77s-.66-.6-1.25-.6-1.03,.21-1.3,.64c-.27,.43-.43,1.11-.48,2.05Z" style="fill:#f60;"/><path d="M631.29,121.33c0-2.14,.39-3.73,1.16-4.79s1.85-1.58,3.24-1.58c1.18,0,2.09,.47,2.74,1.4l.13-1.16h3.07v13.04c0,1.66-.47,2.94-1.4,3.82-.93,.88-2.27,1.32-4.02,1.32-.72,0-1.47-.14-2.25-.43-.79-.29-1.38-.65-1.76-1.09l1.15-2.36c.32,.34,.74,.61,1.25,.83s1,.32,1.46,.32c.76,0,1.31-.18,1.65-.55,.33-.37,.5-.95,.51-1.77v-1.12c-.65,.85-1.5,1.28-2.54,1.28-1.39,0-2.47-.54-3.22-1.62-.76-1.08-1.15-2.61-1.16-4.58v-.96Zm3.41,.86c0,1.21,.16,2.08,.47,2.63,.31,.55,.81,.83,1.49,.83s1.22-.25,1.55-.76v-6.23c-.35-.55-.86-.83-1.53-.83s-1.17,.28-1.5,.83c-.32,.55-.49,1.45-.49,2.68v.86Z" style="fill:#f60;"/><path d="M650.55,118.5l-1.13-.1c-.93,0-1.56,.41-1.89,1.23v8.62h-3.42v-13.04h3.22l.1,1.41c.54-1.1,1.28-1.65,2.23-1.65,.39,0,.7,.05,.94,.16l-.04,3.38Z" style="fill:#f60;"/><path d="M658.14,128.25c-.1-.2-.19-.54-.29-1.01-.61,.84-1.44,1.25-2.48,1.25s-2-.36-2.72-1.08c-.72-.72-1.08-1.66-1.08-2.81,0-1.37,.44-2.42,1.31-3.17,.87-.75,2.13-1.13,3.77-1.15h1.04v-1.05c0-.59-.1-1-.3-1.24s-.49-.36-.88-.36c-.85,0-1.28,.5-1.28,1.49h-3.41c0-1.21,.45-2.2,1.36-2.98,.9-.78,2.05-1.18,3.43-1.18s2.54,.37,3.32,1.11c.78,.74,1.18,1.81,1.18,3.19v6.14c.02,1.13,.18,2.01,.48,2.64v.2h-3.44Zm-2.01-2.44c.38,0,.7-.08,.96-.23s.46-.33,.59-.54v-2.71h-.82c-.58,0-1.04,.18-1.37,.55-.33,.37-.5,.86-.5,1.48,0,.96,.38,1.45,1.13,1.45Z" style="fill:#f60;"/><path d="M667.53,112v3.21h1.75v2.56h-1.75v6.48c0,.52,.07,.87,.21,1.06,.14,.19,.41,.29,.81,.29,.33,0,.6-.03,.81-.08l-.02,2.65c-.58,.22-1.21,.33-1.88,.33-2.2,0-3.31-1.26-3.34-3.79v-6.94h-1.51v-2.56h1.51v-3.21h3.41Z" style="fill:#f60;"/><path d="M671.14,111.83c0-.53,.17-.96,.51-1.3s.79-.51,1.35-.51,1.01,.17,1.35,.51,.51,.77,.51,1.3-.17,.96-.5,1.3c-.33,.35-.79,.52-1.36,.52s-1.02-.17-1.36-.52c-.33-.35-.5-.78-.5-1.3Zm3.58,16.42h-3.42v-13.04h3.42v13.04Z" style="fill:#f60;"/><path d="M676.97,121.31c0-1.98,.47-3.53,1.4-4.65s2.22-1.69,3.87-1.69,2.96,.56,3.89,1.69,1.4,2.68,1.4,4.68v.83c0,1.99-.46,3.54-1.39,4.65-.93,1.12-2.22,1.68-3.88,1.68s-2.97-.56-3.9-1.68c-.93-1.12-1.39-2.68-1.39-4.67v-.83Zm3.42,.86c0,2.33,.62,3.5,1.87,3.5,1.15,0,1.77-.97,1.86-2.92v-1.43c.01-1.19-.15-2.07-.48-2.65-.33-.57-.8-.86-1.4-.86s-1.03,.29-1.36,.86c-.32,.58-.49,1.46-.49,2.65v.86Z" style="fill:#f60;"/><path d="M692.77,115.21l.1,1.29c.77-1.02,1.78-1.53,3.03-1.53,2.24,0,3.4,1.57,3.46,4.71v8.57h-3.42v-8.32c0-.74-.11-1.28-.33-1.61-.22-.33-.61-.5-1.16-.5-.62,0-1.1,.32-1.45,.95v9.48h-3.42v-13.04h3.21Z" style="fill:#f60;"/></g><g><path d="M403.17,233.77v6.17h-3.55v-17.55h5.98c1.74,0,3.12,.54,4.15,1.62,1.03,1.08,1.55,2.48,1.55,4.2s-.51,3.08-1.53,4.07c-1.02,1-2.44,1.49-4.24,1.49h-2.36Zm0-2.95h2.43c.68,0,1.2-.22,1.57-.66,.37-.44,.55-1.08,.55-1.93s-.19-1.57-.57-2.09c-.38-.52-.88-.78-1.52-.79h-2.47v5.47Z" style="fill:#f60;"/><path d="M412.94,233c0-1.98,.47-3.53,1.4-4.65s2.22-1.69,3.87-1.69,2.96,.56,3.89,1.69,1.4,2.68,1.4,4.68v.83c0,1.99-.46,3.54-1.39,4.65-.93,1.12-2.22,1.68-3.88,1.68s-2.97-.56-3.9-1.68c-.93-1.12-1.39-2.68-1.39-4.67v-.83Zm3.42,.86c0,2.33,.62,3.5,1.87,3.5,1.15,0,1.77-.97,1.86-2.92v-1.43c.01-1.19-.15-2.07-.48-2.65-.33-.57-.8-.86-1.4-.86s-1.03,.29-1.36,.86c-.32,.58-.49,1.46-.49,2.65v.86Z" style="fill:#f60;"/><path d="M425.63,223.52c0-.53,.17-.96,.51-1.3s.79-.51,1.35-.51,1.01,.17,1.35,.51,.51,.77,.51,1.3-.17,.96-.5,1.3c-.33,.35-.79,.52-1.36,.52s-1.02-.17-1.36-.52c-.33-.35-.5-.78-.5-1.3Zm3.58,16.42h-3.42v-13.04h3.42v13.04Z" style="fill:#f60;"/><path d="M434.97,226.9l.1,1.29c.77-1.02,1.78-1.53,3.03-1.53,2.24,0,3.4,1.57,3.46,4.71v8.57h-3.42v-8.32c0-.74-.11-1.28-.33-1.61-.22-.33-.61-.5-1.16-.5-.62,0-1.1,.32-1.45,.95v9.48h-3.42v-13.04h3.21Z" style="fill:#f60;"/><path d="M447.96,223.69v3.21h1.75v2.56h-1.75v6.48c0,.52,.07,.87,.21,1.06,.14,.19,.41,.29,.81,.29,.33,0,.6-.03,.81-.08l-.02,2.65c-.58,.22-1.21,.33-1.88,.33-2.2,0-3.31-1.26-3.34-3.79v-6.94h-1.51v-2.56h1.51v-3.21h3.41Z" style="fill:#f60;"/><path d="M457.72,233.84h-5.89v-2.85h5.89v2.85Z" style="fill:#f60;"/><path d="M464.52,223.69v3.21h1.75v2.56h-1.75v6.48c0,.52,.07,.87,.21,1.06,.14,.19,.41,.29,.81,.29,.33,0,.6-.03,.81-.08l-.02,2.65c-.58,.22-1.21,.33-1.88,.33-2.2,0-3.31-1.26-3.34-3.79v-6.94h-1.51v-2.56h1.51v-3.21h3.41Z" style="fill:#f60;"/><path d="M467.37,233c0-1.98,.47-3.53,1.4-4.65s2.22-1.69,3.87-1.69,2.96,.56,3.89,1.69,1.4,2.68,1.4,4.68v.83c0,1.99-.46,3.54-1.39,4.65-.93,1.12-2.22,1.68-3.88,1.68s-2.97-.56-3.9-1.68c-.93-1.12-1.39-2.68-1.39-4.67v-.83Zm3.42,.86c0,2.33,.62,3.5,1.87,3.5,1.15,0,1.77-.97,1.86-2.92v-1.43c.01-1.19-.15-2.07-.48-2.65-.33-.57-.8-.86-1.4-.86s-1.03,.29-1.36,.86c-.32,.58-.49,1.46-.49,2.65v.86Z" style="fill:#f60;"/><path d="M486.19,233.84h-5.89v-2.85h5.89v2.85Z" style="fill:#f60;"/><path d="M499.19,233.83c0,2.05-.35,3.62-1.06,4.71-.7,1.09-1.75,1.64-3.14,1.64-1.06,0-1.91-.43-2.56-1.29v6.06h-3.41v-18.06h3.16l.12,1.19c.65-.96,1.54-1.43,2.66-1.43,1.39,0,2.44,.51,3.14,1.52,.7,1.01,1.06,2.56,1.08,4.65v1Zm-3.4-.86c0-1.26-.14-2.15-.42-2.68-.28-.52-.75-.78-1.41-.78-.7,0-1.21,.29-1.53,.88v6.11c.31,.56,.82,.84,1.56,.84,.68,0,1.14-.29,1.4-.86,.26-.57,.39-1.46,.39-2.66v-.86Z" style="fill:#f60;"/><path d="M500.85,233c0-1.98,.47-3.53,1.4-4.65s2.22-1.69,3.87-1.69,2.96,.56,3.89,1.69,1.4,2.68,1.4,4.68v.83c0,1.99-.46,3.54-1.39,4.65-.93,1.12-2.22,1.68-3.88,1.68s-2.97-.56-3.9-1.68c-.93-1.12-1.39-2.68-1.39-4.67v-.83Zm3.42,.86c0,2.33,.62,3.5,1.87,3.5,1.15,0,1.77-.97,1.86-2.92v-1.43c.01-1.19-.15-2.07-.48-2.65-.33-.57-.8-.86-1.4-.86s-1.03,.29-1.36,.86c-.32,.58-.49,1.46-.49,2.65v.86Z" style="fill:#f60;"/><path d="M513.53,223.52c0-.53,.17-.96,.51-1.3s.79-.51,1.35-.51,1.01,.17,1.35,.51,.51,.77,.51,1.3-.17,.96-.5,1.3c-.33,.35-.79,.52-1.36,.52s-1.02-.17-1.36-.52c-.33-.35-.5-.78-.5-1.3Zm3.58,16.42h-3.42v-13.04h3.42v13.04Z" style="fill:#f60;"/><path d="M522.87,226.9l.1,1.29c.77-1.02,1.78-1.53,3.03-1.53,2.24,0,3.4,1.57,3.46,4.71v8.57h-3.42v-8.32c0-.74-.11-1.28-.33-1.61-.22-.33-.61-.5-1.16-.5-.62,0-1.1,.32-1.45,.95v9.48h-3.42v-13.04h3.21Z" style="fill:#f60;"/><path d="M535.87,223.69v3.21h1.75v2.56h-1.75v6.48c0,.52,.07,.87,.21,1.06,.14,.19,.41,.29,.81,.29,.33,0,.6-.03,.81-.08l-.02,2.65c-.58,.22-1.21,.33-1.88,.33-2.2,0-3.31-1.26-3.34-3.79v-6.94h-1.51v-2.56h1.51v-3.21h3.41Z" style="fill:#f60;"/><path d="M544.72,233.02c0-2.14,.36-3.73,1.09-4.79s1.78-1.58,3.16-1.58c1,0,1.84,.43,2.51,1.3v-6.53h3.44v18.52h-3.1l-.16-1.33c-.7,1.04-1.6,1.57-2.7,1.57-1.37,0-2.41-.52-3.13-1.57-.72-1.04-1.09-2.58-1.1-4.61v-.99Zm3.42,.86c0,1.29,.14,2.18,.41,2.69,.27,.51,.73,.77,1.39,.77s1.18-.3,1.53-.9v-5.96c-.34-.64-.84-.96-1.52-.96-.63,0-1.09,.25-1.38,.76s-.43,1.41-.43,2.7v.9Z" style="fill:#f60;"/><path d="M563.61,239.94c-.1-.2-.19-.54-.29-1.01-.61,.84-1.44,1.25-2.48,1.25s-2-.36-2.72-1.08c-.72-.72-1.08-1.66-1.08-2.81,0-1.37,.44-2.42,1.31-3.17,.87-.75,2.13-1.13,3.77-1.15h1.04v-1.05c0-.59-.1-1-.3-1.24s-.49-.36-.88-.36c-.85,0-1.28,.5-1.28,1.49h-3.41c0-1.21,.45-2.2,1.36-2.98,.9-.78,2.05-1.18,3.43-1.18s2.54,.37,3.32,1.11c.78,.74,1.18,1.81,1.18,3.19v6.14c.02,1.13,.18,2.01,.48,2.64v.2h-3.44Zm-2.01-2.44c.38,0,.7-.08,.96-.23s.46-.33,.59-.54v-2.71h-.82c-.58,0-1.04,.18-1.37,.55-.33,.37-.5,.86-.5,1.48,0,.96,.38,1.45,1.13,1.45Z" style="fill:#f60;"/><path d="M573,223.69v3.21h1.75v2.56h-1.75v6.48c0,.52,.07,.87,.21,1.06,.14,.19,.41,.29,.81,.29,.33,0,.6-.03,.81-.08l-.02,2.65c-.58,.22-1.21,.33-1.88,.33-2.2,0-3.31-1.26-3.34-3.79v-6.94h-1.51v-2.56h1.51v-3.21h3.41Z" style="fill:#f60;"/><path d="M582.81,239.94c-.1-.2-.19-.54-.29-1.01-.61,.84-1.44,1.25-2.48,1.25s-2-.36-2.72-1.08c-.72-.72-1.08-1.66-1.08-2.81,0-1.37,.44-2.42,1.31-3.17,.87-.75,2.13-1.13,3.77-1.15h1.04v-1.05c0-.59-.1-1-.3-1.24s-.49-.36-.88-.36c-.85,0-1.28,.5-1.28,1.49h-3.41c0-1.21,.45-2.2,1.36-2.98,.9-.78,2.05-1.18,3.43-1.18s2.54,.37,3.32,1.11c.78,.74,1.18,1.81,1.18,3.19v6.14c.02,1.13,.18,2.01,.48,2.64v.2h-3.44Zm-2.01-2.44c.38,0,.7-.08,.96-.23s.46-.33,.59-.54v-2.71h-.82c-.58,0-1.04,.18-1.37,.55-.33,.37-.5,.86-.5,1.48,0,.96,.38,1.45,1.13,1.45Z" style="fill:#f60;"/><path d="M593.93,223.52c0-.53,.17-.96,.51-1.3s.79-.51,1.35-.51,1.01,.17,1.35,.51,.51,.77,.51,1.3-.17,.96-.5,1.3c-.33,.35-.79,.52-1.36,.52s-1.02-.17-1.36-.52c-.33-.35-.5-.78-.5-1.3Zm3.58,16.42h-3.42v-13.04h3.42v13.04Z" style="fill:#f60;"/><path d="M603.27,226.9l.1,1.29c.77-1.02,1.78-1.53,3.03-1.53,2.24,0,3.4,1.57,3.46,4.71v8.57h-3.42v-8.32c0-.74-.11-1.28-.33-1.61-.22-.33-.61-.5-1.16-.5-.62,0-1.1,.32-1.45,.95v9.48h-3.42v-13.04h3.21Z" style="fill:#f60;"/><path d="M616.27,223.69v3.21h1.75v2.56h-1.75v6.48c0,.52,.07,.87,.21,1.06,.14,.19,.41,.29,.81,.29,.33,0,.6-.03,.81-.08l-.02,2.65c-.58,.22-1.21,.33-1.88,.33-2.2,0-3.31-1.26-3.34-3.79v-6.94h-1.51v-2.56h1.51v-3.21h3.41Z" style="fill:#f60;"/><path d="M625.15,240.19c-1.75,0-3.12-.52-4.1-1.57s-1.47-2.54-1.47-4.48v-1.04c0-2.06,.45-3.64,1.35-4.76s2.19-1.68,3.87-1.68,2.87,.52,3.7,1.57c.83,1.05,1.25,2.6,1.27,4.65v1.67h-6.79c.05,.97,.26,1.68,.64,2.13,.38,.45,.96,.67,1.75,.67,1.14,0,2.09-.39,2.86-1.17l1.34,2.06c-.42,.58-1.03,1.05-1.82,1.4-.8,.36-1.66,.54-2.59,.54Zm-2.15-8h3.41v-.31c-.02-.78-.14-1.37-.39-1.77s-.66-.6-1.25-.6-1.03,.21-1.3,.64c-.27,.43-.43,1.11-.48,2.05Z" style="fill:#f60;"/><path d="M631.29,233.02c0-2.14,.39-3.73,1.16-4.79s1.85-1.58,3.24-1.58c1.18,0,2.09,.47,2.74,1.4l.13-1.16h3.07v13.04c0,1.66-.47,2.94-1.4,3.82-.93,.88-2.27,1.32-4.02,1.32-.72,0-1.47-.14-2.25-.43-.79-.29-1.38-.65-1.76-1.09l1.15-2.36c.32,.34,.74,.61,1.25,.83s1,.32,1.46,.32c.76,0,1.31-.18,1.65-.55,.33-.37,.5-.95,.51-1.77v-1.12c-.65,.85-1.5,1.28-2.54,1.28-1.39,0-2.47-.54-3.22-1.62-.76-1.08-1.15-2.61-1.16-4.58v-.96Zm3.41,.86c0,1.21,.16,2.08,.47,2.63,.31,.55,.81,.83,1.49,.83s1.22-.25,1.55-.76v-6.23c-.35-.55-.86-.83-1.53-.83s-1.17,.28-1.5,.83c-.32,.55-.49,1.45-.49,2.68v.86Z" style="fill:#f60;"/><path d="M650.55,230.19l-1.13-.1c-.93,0-1.56,.41-1.89,1.23v8.62h-3.42v-13.04h3.22l.1,1.41c.54-1.1,1.28-1.65,2.23-1.65,.39,0,.7,.05,.94,.16l-.04,3.38Z" style="fill:#f60;"/><path d="M658.14,239.94c-.1-.2-.19-.54-.29-1.01-.61,.84-1.44,1.25-2.48,1.25s-2-.36-2.72-1.08c-.72-.72-1.08-1.66-1.08-2.81,0-1.37,.44-2.42,1.31-3.17,.87-.75,2.13-1.13,3.77-1.15h1.04v-1.05c0-.59-.1-1-.3-1.24s-.49-.36-.88-.36c-.85,0-1.28,.5-1.28,1.49h-3.41c0-1.21,.45-2.2,1.36-2.98,.9-.78,2.05-1.18,3.43-1.18s2.54,.37,3.32,1.11c.78,.74,1.18,1.81,1.18,3.19v6.14c.02,1.13,.18,2.01,.48,2.64v.2h-3.44Zm-2.01-2.44c.38,0,.7-.08,.96-.23s.46-.33,.59-.54v-2.71h-.82c-.58,0-1.04,.18-1.37,.55-.33,.37-.5,.86-.5,1.48,0,.96,.38,1.45,1.13,1.45Z" style="fill:#f60;"/><path d="M667.53,223.69v3.21h1.75v2.56h-1.75v6.48c0,.52,.07,.87,.21,1.06,.14,.19,.41,.29,.81,.29,.33,0,.6-.03,.81-.08l-.02,2.65c-.58,.22-1.21,.33-1.88,.33-2.2,0-3.31-1.26-3.34-3.79v-6.94h-1.51v-2.56h1.51v-3.21h3.41Z" style="fill:#f60;"/><path d="M671.14,223.52c0-.53,.17-.96,.51-1.3s.79-.51,1.35-.51,1.01,.17,1.35,.51,.51,.77,.51,1.3-.17,.96-.5,1.3c-.33,.35-.79,.52-1.36,.52s-1.02-.17-1.36-.52c-.33-.35-.5-.78-.5-1.3Zm3.58,16.42h-3.42v-13.04h3.42v13.04Z" style="fill:#f60;"/><path d="M676.97,233c0-1.98,.47-3.53,1.4-4.65s2.22-1.69,3.87-1.69,2.96,.56,3.89,1.69,1.4,2.68,1.4,4.68v.83c0,1.99-.46,3.54-1.39,4.65-.93,1.12-2.22,1.68-3.88,1.68s-2.97-.56-3.9-1.68c-.93-1.12-1.39-2.68-1.39-4.67v-.83Zm3.42,.86c0,2.33,.62,3.5,1.87,3.5,1.15,0,1.77-.97,1.86-2.92v-1.43c.01-1.19-.15-2.07-.48-2.65-.33-.57-.8-.86-1.4-.86s-1.03,.29-1.36,.86c-.32,.58-.49,1.46-.49,2.65v.86Z" style="fill:#f60;"/><path d="M692.77,226.9l.1,1.29c.77-1.02,1.78-1.53,3.03-1.53,2.24,0,3.4,1.57,3.46,4.71v8.57h-3.42v-8.32c0-.74-.11-1.28-.33-1.61-.22-.33-.61-.5-1.16-.5-.62,0-1.1,.32-1.45,.95v9.48h-3.42v-13.04h3.21Z" style="fill:#f60;"/></g><g><path d="M403.17,346.64v6.17h-3.55v-17.55h5.98c1.74,0,3.12,.54,4.15,1.62,1.03,1.08,1.55,2.48,1.55,4.2s-.51,3.08-1.53,4.07c-1.02,1-2.44,1.49-4.24,1.49h-2.36Zm0-2.95h2.43c.68,0,1.2-.22,1.57-.66,.37-.44,.55-1.08,.55-1.93s-.19-1.57-.57-2.09c-.38-.52-.88-.78-1.52-.79h-2.47v5.47Z" style="fill:#f60;"/><path d="M412.94,345.87c0-1.98,.47-3.53,1.4-4.65s2.22-1.69,3.87-1.69,2.96,.56,3.89,1.69,1.4,2.68,1.4,4.68v.83c0,1.99-.46,3.54-1.39,4.65-.93,1.12-2.22,1.68-3.88,1.68s-2.97-.56-3.9-1.68c-.93-1.12-1.39-2.68-1.39-4.67v-.83Zm3.42,.86c0,2.33,.62,3.5,1.87,3.5,1.15,0,1.77-.97,1.86-2.92v-1.43c.01-1.19-.15-2.07-.48-2.65-.33-.57-.8-.86-1.4-.86s-1.03,.29-1.36,.86c-.32,.58-.49,1.46-.49,2.65v.86Z" style="fill:#f60;"/><path d="M425.63,336.39c0-.53,.17-.96,.51-1.3s.79-.51,1.35-.51,1.01,.17,1.35,.51,.51,.77,.51,1.3-.17,.96-.5,1.3c-.33,.35-.79,.52-1.36,.52s-1.02-.17-1.36-.52c-.33-.35-.5-.78-.5-1.3Zm3.58,16.42h-3.42v-13.04h3.42v13.04Z" style="fill:#f60;"/><path d="M434.97,339.77l.1,1.29c.77-1.02,1.78-1.53,3.03-1.53,2.24,0,3.4,1.57,3.46,4.71v8.57h-3.42v-8.32c0-.74-.11-1.28-.33-1.61-.22-.33-.61-.5-1.16-.5-.62,0-1.1,.32-1.45,.95v9.48h-3.42v-13.04h3.21Z" style="fill:#f60;"/><path d="M447.96,336.56v3.21h1.75v2.56h-1.75v6.48c0,.52,.07,.87,.21,1.06,.14,.19,.41,.29,.81,.29,.33,0,.6-.03,.81-.08l-.02,2.65c-.58,.22-1.21,.33-1.88,.33-2.2,0-3.31-1.26-3.34-3.79v-6.94h-1.51v-2.56h1.51v-3.21h3.41Z" style="fill:#f60;"/><path d="M457.72,346.71h-5.89v-2.85h5.89v2.85Z" style="fill:#f60;"/><path d="M464.52,336.56v3.21h1.75v2.56h-1.75v6.48c0,.52,.07,.87,.21,1.06,.14,.19,.41,.29,.81,.29,.33,0,.6-.03,.81-.08l-.02,2.65c-.58,.22-1.21,.33-1.88,.33-2.2,0-3.31-1.26-3.34-3.79v-6.94h-1.51v-2.56h1.51v-3.21h3.41Z" style="fill:#f60;"/><path d="M467.37,345.87c0-1.98,.47-3.53,1.4-4.65s2.22-1.69,3.87-1.69,2.96,.56,3.89,1.69,1.4,2.68,1.4,4.68v.83c0,1.99-.46,3.54-1.39,4.65-.93,1.12-2.22,1.68-3.88,1.68s-2.97-.56-3.9-1.68c-.93-1.12-1.39-2.68-1.39-4.67v-.83Zm3.42,.86c0,2.33,.62,3.5,1.87,3.5,1.15,0,1.77-.97,1.86-2.92v-1.43c.01-1.19-.15-2.07-.48-2.65-.33-.57-.8-.86-1.4-.86s-1.03,.29-1.36,.86c-.32,.58-.49,1.46-.49,2.65v.86Z" style="fill:#f60;"/><path d="M486.19,346.71h-5.89v-2.85h5.89v2.85Z" style="fill:#f60;"/><path d="M499.19,346.7c0,2.05-.35,3.62-1.06,4.71-.7,1.09-1.75,1.64-3.14,1.64-1.06,0-1.91-.43-2.56-1.29v6.06h-3.41v-18.06h3.16l.12,1.19c.65-.96,1.54-1.43,2.66-1.43,1.39,0,2.44,.51,3.14,1.52,.7,1.01,1.06,2.56,1.08,4.65v1Zm-3.4-.86c0-1.26-.14-2.15-.42-2.68-.28-.52-.75-.78-1.41-.78-.7,0-1.21,.29-1.53,.88v6.11c.31,.56,.82,.84,1.56,.84,.68,0,1.14-.29,1.4-.86,.26-.57,.39-1.46,.39-2.66v-.86Z" style="fill:#f60;"/><path d="M500.85,345.87c0-1.98,.47-3.53,1.4-4.65s2.22-1.69,3.87-1.69,2.96,.56,3.89,1.69,1.4,2.68,1.4,4.68v.83c0,1.99-.46,3.54-1.39,4.65-.93,1.12-2.22,1.68-3.88,1.68s-2.97-.56-3.9-1.68c-.93-1.12-1.39-2.68-1.39-4.67v-.83Zm3.42,.86c0,2.33,.62,3.5,1.87,3.5,1.15,0,1.77-.97,1.86-2.92v-1.43c.01-1.19-.15-2.07-.48-2.65-.33-.57-.8-.86-1.4-.86s-1.03,.29-1.36,.86c-.32,.58-.49,1.46-.49,2.65v.86Z" style="fill:#f60;"/><path d="M513.53,336.39c0-.53,.17-.96,.51-1.3s.79-.51,1.35-.51,1.01,.17,1.35,.51,.51,.77,.51,1.3-.17,.96-.5,1.3c-.33,.35-.79,.52-1.36,.52s-1.02-.17-1.36-.52c-.33-.35-.5-.78-.5-1.3Zm3.58,16.42h-3.42v-13.04h3.42v13.04Z" style="fill:#f60;"/><path d="M522.87,339.77l.1,1.29c.77-1.02,1.78-1.53,3.03-1.53,2.24,0,3.4,1.57,3.46,4.71v8.57h-3.42v-8.32c0-.74-.11-1.28-.33-1.61-.22-.33-.61-.5-1.16-.5-.62,0-1.1,.32-1.45,.95v9.48h-3.42v-13.04h3.21Z" style="fill:#f60;"/><path d="M535.87,336.56v3.21h1.75v2.56h-1.75v6.48c0,.52,.07,.87,.21,1.06,.14,.19,.41,.29,.81,.29,.33,0,.6-.03,.81-.08l-.02,2.65c-.58,.22-1.21,.33-1.88,.33-2.2,0-3.31-1.26-3.34-3.79v-6.94h-1.51v-2.56h1.51v-3.21h3.41Z" style="fill:#f60;"/><path d="M544.72,345.89c0-2.14,.36-3.73,1.09-4.79s1.78-1.58,3.16-1.58c1,0,1.84,.43,2.51,1.3v-6.53h3.44v18.52h-3.1l-.16-1.33c-.7,1.04-1.6,1.57-2.7,1.57-1.37,0-2.41-.52-3.13-1.57-.72-1.04-1.09-2.58-1.1-4.61v-.99Zm3.42,.86c0,1.29,.14,2.18,.41,2.69,.27,.51,.73,.77,1.39,.77s1.18-.3,1.53-.9v-5.96c-.34-.64-.84-.96-1.52-.96-.63,0-1.09,.25-1.38,.76s-.43,1.41-.43,2.7v.9Z" style="fill:#f60;"/><path d="M563.61,352.81c-.1-.2-.19-.54-.29-1.01-.61,.84-1.44,1.25-2.48,1.25s-2-.36-2.72-1.08c-.72-.72-1.08-1.66-1.08-2.81,0-1.37,.44-2.42,1.31-3.17,.87-.75,2.13-1.13,3.77-1.15h1.04v-1.05c0-.59-.1-1-.3-1.24s-.49-.36-.88-.36c-.85,0-1.28,.5-1.28,1.49h-3.41c0-1.21,.45-2.2,1.36-2.98,.9-.78,2.05-1.18,3.43-1.18s2.54,.37,3.32,1.11c.78,.74,1.18,1.81,1.18,3.19v6.14c.02,1.13,.18,2.01,.48,2.64v.2h-3.44Zm-2.01-2.44c.38,0,.7-.08,.96-.23s.46-.33,.59-.54v-2.71h-.82c-.58,0-1.04,.18-1.37,.55-.33,.37-.5,.86-.5,1.48,0,.96,.38,1.45,1.13,1.45Z" style="fill:#f60;"/><path d="M573,336.56v3.21h1.75v2.56h-1.75v6.48c0,.52,.07,.87,.21,1.06,.14,.19,.41,.29,.81,.29,.33,0,.6-.03,.81-.08l-.02,2.65c-.58,.22-1.21,.33-1.88,.33-2.2,0-3.31-1.26-3.34-3.79v-6.94h-1.51v-2.56h1.51v-3.21h3.41Z" style="fill:#f60;"/><path d="M582.81,352.81c-.1-.2-.19-.54-.29-1.01-.61,.84-1.44,1.25-2.48,1.25s-2-.36-2.72-1.08c-.72-.72-1.08-1.66-1.08-2.81,0-1.37,.44-2.42,1.31-3.17,.87-.75,2.13-1.13,3.77-1.15h1.04v-1.05c0-.59-.1-1-.3-1.24s-.49-.36-.88-.36c-.85,0-1.28,.5-1.28,1.49h-3.41c0-1.21,.45-2.2,1.36-2.98,.9-.78,2.05-1.18,3.43-1.18s2.54,.37,3.32,1.11c.78,.74,1.18,1.81,1.18,3.19v6.14c.02,1.13,.18,2.01,.48,2.64v.2h-3.44Zm-2.01-2.44c.38,0,.7-.08,.96-.23s.46-.33,.59-.54v-2.71h-.82c-.58,0-1.04,.18-1.37,.55-.33,.37-.5,.86-.5,1.48,0,.96,.38,1.45,1.13,1.45Z" style="fill:#f60;"/><path d="M593.93,336.39c0-.53,.17-.96,.51-1.3s.79-.51,1.35-.51,1.01,.17,1.35,.51,.51,.77,.51,1.3-.17,.96-.5,1.3c-.33,.35-.79,.52-1.36,.52s-1.02-.17-1.36-.52c-.33-.35-.5-.78-.5-1.3Zm3.58,16.42h-3.42v-13.04h3.42v13.04Z" style="fill:#f60;"/><path d="M603.27,339.77l.1,1.29c.77-1.02,1.78-1.53,3.03-1.53,2.24,0,3.4,1.57,3.46,4.71v8.57h-3.42v-8.32c0-.74-.11-1.28-.33-1.61-.22-.33-.61-.5-1.16-.5-.62,0-1.1,.32-1.45,.95v9.48h-3.42v-13.04h3.21Z" style="fill:#f60;"/><path d="M616.27,336.56v3.21h1.75v2.56h-1.75v6.48c0,.52,.07,.87,.21,1.06,.14,.19,.41,.29,.81,.29,.33,0,.6-.03,.81-.08l-.02,2.65c-.58,.22-1.21,.33-1.88,.33-2.2,0-3.31-1.26-3.34-3.79v-6.94h-1.51v-2.56h1.51v-3.21h3.41Z" style="fill:#f60;"/><path d="M625.15,353.05c-1.75,0-3.12-.52-4.1-1.57s-1.47-2.54-1.47-4.48v-1.04c0-2.06,.45-3.64,1.35-4.76s2.19-1.68,3.87-1.68,2.87,.52,3.7,1.57c.83,1.05,1.25,2.6,1.27,4.65v1.67h-6.79c.05,.97,.26,1.68,.64,2.13,.38,.45,.96,.67,1.75,.67,1.14,0,2.09-.39,2.86-1.17l1.34,2.06c-.42,.58-1.03,1.05-1.82,1.4-.8,.36-1.66,.54-2.59,.54Zm-2.15-8h3.41v-.31c-.02-.78-.14-1.37-.39-1.77s-.66-.6-1.25-.6-1.03,.21-1.3,.64c-.27,.43-.43,1.11-.48,2.05Z" style="fill:#f60;"/><path d="M631.29,345.89c0-2.14,.39-3.73,1.16-4.79s1.85-1.58,3.24-1.58c1.18,0,2.09,.47,2.74,1.4l.13-1.16h3.07v13.04c0,1.66-.47,2.94-1.4,3.82-.93,.88-2.27,1.32-4.02,1.32-.72,0-1.47-.14-2.25-.43-.79-.29-1.38-.65-1.76-1.09l1.15-2.36c.32,.34,.74,.61,1.25,.83s1,.32,1.46,.32c.76,0,1.31-.18,1.65-.55,.33-.37,.5-.95,.51-1.77v-1.12c-.65,.85-1.5,1.28-2.54,1.28-1.39,0-2.47-.54-3.22-1.62-.76-1.08-1.15-2.61-1.16-4.58v-.96Zm3.41,.86c0,1.21,.16,2.08,.47,2.63,.31,.55,.81,.83,1.49,.83s1.22-.25,1.55-.76v-6.23c-.35-.55-.86-.83-1.53-.83s-1.17,.28-1.5,.83c-.32,.55-.49,1.45-.49,2.68v.86Z" style="fill:#f60;"/><path d="M650.55,343.06l-1.13-.1c-.93,0-1.56,.41-1.89,1.23v8.62h-3.42v-13.04h3.22l.1,1.41c.54-1.1,1.28-1.65,2.23-1.65,.39,0,.7,.05,.94,.16l-.04,3.38Z" style="fill:#f60;"/><path d="M658.14,352.81c-.1-.2-.19-.54-.29-1.01-.61,.84-1.44,1.25-2.48,1.25s-2-.36-2.72-1.08c-.72-.72-1.08-1.66-1.08-2.81,0-1.37,.44-2.42,1.31-3.17,.87-.75,2.13-1.13,3.77-1.15h1.04v-1.05c0-.59-.1-1-.3-1.24s-.49-.36-.88-.36c-.85,0-1.28,.5-1.28,1.49h-3.41c0-1.21,.45-2.2,1.36-2.98,.9-.78,2.05-1.18,3.43-1.18s2.54,.37,3.32,1.11c.78,.74,1.18,1.81,1.18,3.19v6.14c.02,1.13,.18,2.01,.48,2.64v.2h-3.44Zm-2.01-2.44c.38,0,.7-.08,.96-.23s.46-.33,.59-.54v-2.71h-.82c-.58,0-1.04,.18-1.37,.55-.33,.37-.5,.86-.5,1.48,0,.96,.38,1.45,1.13,1.45Z" style="fill:#f60;"/><path d="M667.53,336.56v3.21h1.75v2.56h-1.75v6.48c0,.52,.07,.87,.21,1.06,.14,.19,.41,.29,.81,.29,.33,0,.6-.03,.81-.08l-.02,2.65c-.58,.22-1.21,.33-1.88,.33-2.2,0-3.31-1.26-3.34-3.79v-6.94h-1.51v-2.56h1.51v-3.21h3.41Z" style="fill:#f60;"/><path d="M671.14,336.39c0-.53,.17-.96,.51-1.3s.79-.51,1.35-.51,1.01,.17,1.35,.51,.51,.77,.51,1.3-.17,.96-.5,1.3c-.33,.35-.79,.52-1.36,.52s-1.02-.17-1.36-.52c-.33-.35-.5-.78-.5-1.3Zm3.58,16.42h-3.42v-13.04h3.42v13.04Z" style="fill:#f60;"/><path d="M676.97,345.87c0-1.98,.47-3.53,1.4-4.65s2.22-1.69,3.87-1.69,2.96,.56,3.89,1.69,1.4,2.68,1.4,4.68v.83c0,1.99-.46,3.54-1.39,4.65-.93,1.12-2.22,1.68-3.88,1.68s-2.97-.56-3.9-1.68c-.93-1.12-1.39-2.68-1.39-4.67v-.83Zm3.42,.86c0,2.33,.62,3.5,1.87,3.5,1.15,0,1.77-.97,1.86-2.92v-1.43c.01-1.19-.15-2.07-.48-2.65-.33-.57-.8-.86-1.4-.86s-1.03,.29-1.36,.86c-.32,.58-.49,1.46-.49,2.65v.86Z" style="fill:#f60;"/><path d="M692.77,339.77l.1,1.29c.77-1.02,1.78-1.53,3.03-1.53,2.24,0,3.4,1.57,3.46,4.71v8.57h-3.42v-8.32c0-.74-.11-1.28-.33-1.61-.22-.33-.61-.5-1.16-.5-.62,0-1.1,.32-1.45,.95v9.48h-3.42v-13.04h3.21Z" style="fill:#f60;"/></g><g><path d="M403.17,458.33v6.17h-3.55v-17.55h5.98c1.74,0,3.12,.54,4.15,1.62,1.03,1.08,1.55,2.48,1.55,4.2s-.51,3.08-1.53,4.07c-1.02,1-2.44,1.49-4.24,1.49h-2.36Zm0-2.95h2.43c.68,0,1.2-.22,1.57-.66,.37-.44,.55-1.08,.55-1.93s-.19-1.57-.57-2.09c-.38-.52-.88-.78-1.52-.79h-2.47v5.47Z" style="fill:#f60;"/><path d="M412.94,457.56c0-1.98,.47-3.53,1.4-4.65s2.22-1.69,3.87-1.69,2.96,.56,3.89,1.69,1.4,2.68,1.4,4.68v.83c0,1.99-.46,3.54-1.39,4.65-.93,1.12-2.22,1.68-3.88,1.68s-2.97-.56-3.9-1.68c-.93-1.12-1.39-2.68-1.39-4.67v-.83Zm3.42,.86c0,2.33,.62,3.5,1.87,3.5,1.15,0,1.77-.97,1.86-2.92v-1.44c.01-1.19-.15-2.07-.48-2.65-.33-.57-.8-.86-1.4-.86s-1.03,.29-1.36,.86c-.32,.58-.49,1.46-.49,2.65v.86Z" style="fill:#f60;"/><path d="M425.63,448.08c0-.53,.17-.96,.51-1.3s.79-.51,1.35-.51,1.01,.17,1.35,.51,.51,.77,.51,1.3-.17,.96-.5,1.3c-.33,.35-.79,.52-1.36,.52s-1.02-.17-1.36-.52c-.33-.35-.5-.78-.5-1.3Zm3.58,16.42h-3.42v-13.04h3.42v13.04Z" style="fill:#f60;"/><path d="M434.97,451.46l.1,1.29c.77-1.02,1.78-1.53,3.03-1.53,2.24,0,3.4,1.57,3.46,4.71v8.57h-3.42v-8.32c0-.74-.11-1.28-.33-1.61-.22-.33-.61-.5-1.16-.5-.62,0-1.1,.32-1.45,.95v9.48h-3.42v-13.04h3.21Z" style="fill:#f60;"/><path d="M447.96,448.25v3.21h1.75v2.56h-1.75v6.48c0,.52,.07,.87,.21,1.06,.14,.19,.41,.29,.81,.29,.33,0,.6-.03,.81-.08l-.02,2.65c-.58,.22-1.21,.32-1.88,.32-2.2,0-3.31-1.26-3.34-3.79v-6.94h-1.51v-2.56h1.51v-3.21h3.41Z" style="fill:#f60;"/><path d="M457.72,458.4h-5.89v-2.85h5.89v2.85Z" style="fill:#f60;"/><path d="M464.52,448.25v3.21h1.75v2.56h-1.75v6.48c0,.52,.07,.87,.21,1.06,.14,.19,.41,.29,.81,.29,.33,0,.6-.03,.81-.08l-.02,2.65c-.58,.22-1.21,.32-1.88,.32-2.2,0-3.31-1.26-3.34-3.79v-6.94h-1.51v-2.56h1.51v-3.21h3.41Z" style="fill:#f60;"/><path d="M467.37,457.56c0-1.98,.47-3.53,1.4-4.65s2.22-1.69,3.87-1.69,2.96,.56,3.89,1.69,1.4,2.68,1.4,4.68v.83c0,1.99-.46,3.54-1.39,4.65-.93,1.12-2.22,1.68-3.88,1.68s-2.97-.56-3.9-1.68c-.93-1.12-1.39-2.68-1.39-4.67v-.83Zm3.42,.86c0,2.33,.62,3.5,1.87,3.5,1.15,0,1.77-.97,1.86-2.92v-1.44c.01-1.19-.15-2.07-.48-2.65-.33-.57-.8-.86-1.4-.86s-1.03,.29-1.36,.86c-.32,.58-.49,1.46-.49,2.65v.86Z" style="fill:#f60;"/><path d="M486.19,458.4h-5.89v-2.85h5.89v2.85Z" style="fill:#f60;"/><path d="M499.19,458.39c0,2.05-.35,3.62-1.06,4.71-.7,1.09-1.75,1.64-3.14,1.64-1.06,0-1.91-.43-2.56-1.29v6.06h-3.41v-18.06h3.16l.12,1.19c.65-.96,1.54-1.44,2.66-1.44,1.39,0,2.44,.51,3.14,1.52,.7,1.01,1.06,2.56,1.08,4.65v1Zm-3.4-.86c0-1.26-.14-2.15-.42-2.68-.28-.52-.75-.78-1.41-.78-.7,0-1.21,.29-1.53,.88v6.11c.31,.56,.82,.84,1.56,.84,.68,0,1.14-.29,1.4-.86,.26-.57,.39-1.46,.39-2.66v-.86Z" style="fill:#f60;"/><path d="M500.85,457.56c0-1.98,.47-3.53,1.4-4.65s2.22-1.69,3.87-1.69,2.96,.56,3.89,1.69,1.4,2.68,1.4,4.68v.83c0,1.99-.46,3.54-1.39,4.65-.93,1.12-2.22,1.68-3.88,1.68s-2.97-.56-3.9-1.68c-.93-1.12-1.39-2.68-1.39-4.67v-.83Zm3.42,.86c0,2.33,.62,3.5,1.87,3.5,1.15,0,1.77-.97,1.86-2.92v-1.44c.01-1.19-.15-2.07-.48-2.65-.33-.57-.8-.86-1.4-.86s-1.03,.29-1.36,.86c-.32,.58-.49,1.46-.49,2.65v.86Z" style="fill:#f60;"/><path d="M513.53,448.08c0-.53,.17-.96,.51-1.3s.79-.51,1.35-.51,1.01,.17,1.35,.51,.51,.77,.51,1.3-.17,.96-.5,1.3c-.33,.35-.79,.52-1.36,.52s-1.02-.17-1.36-.52c-.33-.35-.5-.78-.5-1.3Zm3.58,16.42h-3.42v-13.04h3.42v13.04Z" style="fill:#f60;"/><path d="M522.87,451.46l.1,1.29c.77-1.02,1.78-1.53,3.03-1.53,2.24,0,3.4,1.57,3.46,4.71v8.57h-3.42v-8.32c0-.74-.11-1.28-.33-1.61-.22-.33-.61-.5-1.16-.5-.62,0-1.1,.32-1.45,.95v9.48h-3.42v-13.04h3.21Z" style="fill:#f60;"/><path d="M535.87,448.25v3.21h1.75v2.56h-1.75v6.48c0,.52,.07,.87,.21,1.06,.14,.19,.41,.29,.81,.29,.33,0,.6-.03,.81-.08l-.02,2.65c-.58,.22-1.21,.32-1.88,.32-2.2,0-3.31-1.26-3.34-3.79v-6.94h-1.51v-2.56h1.51v-3.21h3.41Z" style="fill:#f60;"/><path d="M544.72,457.58c0-2.14,.36-3.73,1.09-4.79s1.78-1.58,3.16-1.58c1,0,1.84,.43,2.51,1.3v-6.53h3.44v18.52h-3.1l-.16-1.33c-.7,1.04-1.6,1.57-2.7,1.57-1.37,0-2.41-.52-3.13-1.57-.72-1.04-1.09-2.58-1.1-4.61v-.99Zm3.42,.86c0,1.29,.14,2.18,.41,2.69,.27,.51,.73,.77,1.39,.77s1.18-.3,1.53-.9v-5.96c-.34-.64-.84-.96-1.52-.96-.63,0-1.09,.25-1.38,.76s-.43,1.41-.43,2.7v.9Z" style="fill:#f60;"/><path d="M563.61,464.5c-.1-.2-.19-.54-.29-1.01-.61,.84-1.44,1.25-2.48,1.25s-2-.36-2.72-1.08c-.72-.72-1.08-1.66-1.08-2.81,0-1.37,.44-2.42,1.31-3.17,.87-.75,2.13-1.13,3.77-1.14h1.04v-1.05c0-.59-.1-1-.3-1.24s-.49-.36-.88-.36c-.85,0-1.28,.5-1.28,1.49h-3.41c0-1.21,.45-2.2,1.36-2.98,.9-.78,2.05-1.18,3.43-1.18s2.54,.37,3.32,1.11c.78,.74,1.18,1.81,1.18,3.19v6.14c.02,1.13,.18,2.01,.48,2.64v.2h-3.44Zm-2.01-2.44c.38,0,.7-.08,.96-.23s.46-.33,.59-.54v-2.71h-.82c-.58,0-1.04,.18-1.37,.55-.33,.37-.5,.86-.5,1.48,0,.96,.38,1.45,1.13,1.45Z" style="fill:#f60;"/><path d="M573,448.25v3.21h1.75v2.56h-1.75v6.48c0,.52,.07,.87,.21,1.06,.14,.19,.41,.29,.81,.29,.33,0,.6-.03,.81-.08l-.02,2.65c-.58,.22-1.21,.32-1.88,.32-2.2,0-3.31-1.26-3.34-3.79v-6.94h-1.51v-2.56h1.51v-3.21h3.41Z" style="fill:#f60;"/><path d="M582.81,464.5c-.1-.2-.19-.54-.29-1.01-.61,.84-1.44,1.25-2.48,1.25s-2-.36-2.72-1.08c-.72-.72-1.08-1.66-1.08-2.81,0-1.37,.44-2.42,1.31-3.17,.87-.75,2.13-1.13,3.77-1.14h1.04v-1.05c0-.59-.1-1-.3-1.24s-.49-.36-.88-.36c-.85,0-1.28,.5-1.28,1.49h-3.41c0-1.21,.45-2.2,1.36-2.98,.9-.78,2.05-1.18,3.43-1.18s2.54,.37,3.32,1.11c.78,.74,1.18,1.81,1.18,3.19v6.14c.02,1.13,.18,2.01,.48,2.64v.2h-3.44Zm-2.01-2.44c.38,0,.7-.08,.96-.23s.46-.33,.59-.54v-2.71h-.82c-.58,0-1.04,.18-1.37,.55-.33,.37-.5,.86-.5,1.48,0,.96,.38,1.45,1.13,1.45Z" style="fill:#f60;"/><path d="M593.93,448.08c0-.53,.17-.96,.51-1.3s.79-.51,1.35-.51,1.01,.17,1.35,.51,.51,.77,.51,1.3-.17,.96-.5,1.3c-.33,.35-.79,.52-1.36,.52s-1.02-.17-1.36-.52c-.33-.35-.5-.78-.5-1.3Zm3.58,16.42h-3.42v-13.04h3.42v13.04Z" style="fill:#f60;"/><path d="M603.27,451.46l.1,1.29c.77-1.02,1.78-1.53,3.03-1.53,2.24,0,3.4,1.57,3.46,4.71v8.57h-3.42v-8.32c0-.74-.11-1.28-.33-1.61-.22-.33-.61-.5-1.16-.5-.62,0-1.1,.32-1.45,.95v9.48h-3.42v-13.04h3.21Z" style="fill:#f60;"/><path d="M616.27,448.25v3.21h1.75v2.56h-1.75v6.48c0,.52,.07,.87,.21,1.06,.14,.19,.41,.29,.81,.29,.33,0,.6-.03,.81-.08l-.02,2.65c-.58,.22-1.21,.32-1.88,.32-2.2,0-3.31-1.26-3.34-3.79v-6.94h-1.51v-2.56h1.51v-3.21h3.41Z" style="fill:#f60;"/><path d="M625.15,464.74c-1.75,0-3.12-.52-4.1-1.57s-1.47-2.54-1.47-4.48v-1.04c0-2.06,.45-3.64,1.35-4.76s2.19-1.68,3.87-1.68,2.87,.52,3.7,1.57c.83,1.05,1.25,2.6,1.27,4.65v1.67h-6.79c.05,.97,.26,1.68,.64,2.13,.38,.45,.96,.67,1.75,.67,1.14,0,2.09-.39,2.86-1.17l1.34,2.06c-.42,.58-1.03,1.05-1.82,1.4-.8,.36-1.66,.54-2.59,.54Zm-2.15-8h3.41v-.31c-.02-.78-.14-1.37-.39-1.77s-.66-.6-1.25-.6-1.03,.21-1.3,.64c-.27,.43-.43,1.11-.48,2.05Z" style="fill:#f60;"/><path d="M631.29,457.58c0-2.14,.39-3.73,1.16-4.79s1.85-1.58,3.24-1.58c1.18,0,2.09,.47,2.74,1.4l.13-1.16h3.07v13.04c0,1.66-.47,2.94-1.4,3.82-.93,.88-2.27,1.32-4.02,1.32-.72,0-1.47-.14-2.25-.43-.79-.28-1.38-.65-1.76-1.09l1.15-2.36c.32,.34,.74,.61,1.25,.83,.51,.21,1,.32,1.46,.32,.76,0,1.31-.18,1.65-.55,.33-.37,.5-.95,.51-1.77v-1.12c-.65,.85-1.5,1.28-2.54,1.28-1.39,0-2.47-.54-3.22-1.62-.76-1.08-1.15-2.61-1.16-4.58v-.96Zm3.41,.86c0,1.21,.16,2.08,.47,2.63,.31,.55,.81,.83,1.49,.83s1.22-.25,1.55-.76v-6.23c-.35-.55-.86-.83-1.53-.83s-1.17,.28-1.5,.83c-.32,.55-.49,1.45-.49,2.68v.86Z" style="fill:#f60;"/><path d="M650.55,454.75l-1.13-.1c-.93,0-1.56,.41-1.89,1.23v8.62h-3.42v-13.04h3.22l.1,1.41c.54-1.1,1.28-1.65,2.23-1.65,.39,0,.7,.05,.94,.16l-.04,3.38Z" style="fill:#f60;"/><path d="M658.14,464.5c-.1-.2-.19-.54-.29-1.01-.61,.84-1.44,1.25-2.48,1.25s-2-.36-2.72-1.08c-.72-.72-1.08-1.66-1.08-2.81,0-1.37,.44-2.42,1.31-3.17,.87-.75,2.13-1.13,3.77-1.14h1.04v-1.05c0-.59-.1-1-.3-1.24s-.49-.36-.88-.36c-.85,0-1.28,.5-1.28,1.49h-3.41c0-1.21,.45-2.2,1.36-2.98,.9-.78,2.05-1.18,3.43-1.18s2.54,.37,3.32,1.11c.78,.74,1.18,1.81,1.18,3.19v6.14c.02,1.13,.18,2.01,.48,2.64v.2h-3.44Zm-2.01-2.44c.38,0,.7-.08,.96-.23s.46-.33,.59-.54v-2.71h-.82c-.58,0-1.04,.18-1.37,.55-.33,.37-.5,.86-.5,1.48,0,.96,.38,1.45,1.13,1.45Z" style="fill:#f60;"/><path d="M667.53,448.25v3.21h1.75v2.56h-1.75v6.48c0,.52,.07,.87,.21,1.06,.14,.19,.41,.29,.81,.29,.33,0,.6-.03,.81-.08l-.02,2.65c-.58,.22-1.21,.32-1.88,.32-2.2,0-3.31-1.26-3.34-3.79v-6.94h-1.51v-2.56h1.51v-3.21h3.41Z" style="fill:#f60;"/><path d="M671.14,448.08c0-.53,.17-.96,.51-1.3s.79-.51,1.35-.51,1.01,.17,1.35,.51,.51,.77,.51,1.3-.17,.96-.5,1.3c-.33,.35-.79,.52-1.36,.52s-1.02-.17-1.36-.52c-.33-.35-.5-.78-.5-1.3Zm3.58,16.42h-3.42v-13.04h3.42v13.04Z" style="fill:#f60;"/><path d="M676.97,457.56c0-1.98,.47-3.53,1.4-4.65s2.22-1.69,3.87-1.69,2.96,.56,3.89,1.69,1.4,2.68,1.4,4.68v.83c0,1.99-.46,3.54-1.39,4.65-.93,1.12-2.22,1.68-3.88,1.68s-2.97-.56-3.9-1.68c-.93-1.12-1.39-2.68-1.39-4.67v-.83Zm3.42,.86c0,2.33,.62,3.5,1.87,3.5,1.15,0,1.77-.97,1.86-2.92v-1.44c.01-1.19-.15-2.07-.48-2.65-.33-.57-.8-.86-1.4-.86s-1.03,.29-1.36,.86c-.32,.58-.49,1.46-.49,2.65v.86Z" style="fill:#f60;"/><path d="M692.77,451.46l.1,1.29c.77-1.02,1.78-1.53,3.03-1.53,2.24,0,3.4,1.57,3.46,4.71v8.57h-3.42v-8.32c0-.74-.11-1.28-.33-1.61-.22-.33-.61-.5-1.16-.5-.62,0-1.1,.32-1.45,.95v9.48h-3.42v-13.04h3.21Z" style="fill:#f60;"/></g></svg>