<?xml version="1.0" encoding="UTF-8"?><svg id="Ebene_2" xmlns="http://www.w3.org/2000/svg" viewBox="0 0 1440 750"><circle cx="927.34" cy="380.47" r="237.06" style="fill:#d3d4e3; stroke:#000; stroke-miterlimit:10;"/><path d="M725.98,255.33h402.72c-41.85-67.19-116.38-111.92-201.36-111.92s-159.51,44.73-201.36,111.92Z" style="fill:#003e6e; stroke:#000; stroke-miterlimit:10;"/><g><path d="M890.25,173.4v17.72c-.02,2.66-.76,4.7-2.2,6.11s-3.51,2.12-6.21,2.12-4.84-.71-6.28-2.14-2.17-3.5-2.17-6.21v-17.6h5.2v17.61c0,1.45,.23,2.49,.7,3.11s1.32,.93,2.55,.93,2.07-.31,2.53-.92,.69-1.63,.7-3.03v-17.7h5.17Z" style="fill:#fff;"/><path d="M898.48,179.98l.14,1.88c1.12-1.49,2.6-2.23,4.41-2.23,3.27,0,4.95,2.29,5.04,6.87v12.5h-4.99v-12.13c0-1.08-.16-1.86-.48-2.35s-.89-.73-1.7-.73c-.9,0-1.61,.46-2.11,1.39v13.82h-4.99v-19.02h4.68Z" style="fill:#fff;"/><path d="M911.64,175.05c0-.77,.25-1.41,.74-1.9s1.15-.74,1.97-.74,1.48,.25,1.97,.74,.74,1.12,.74,1.9-.24,1.39-.73,1.9-1.15,.76-1.98,.76-1.49-.25-1.98-.76-.73-1.14-.73-1.9Zm5.22,23.94h-4.99v-19.02h4.99v19.02Z" style="fill:#fff;"/><path d="M921.85,199v-15.29h-2.3v-3.73h2.3v-1.71c.01-2.1,.57-3.73,1.66-4.9s2.61-1.75,4.54-1.75c.59,0,1.34,.12,2.25,.35l-.04,3.97c-.34-.11-.74-.16-1.21-.16-1.48,0-2.21,.88-2.21,2.64v1.55h2.97v3.73h-2.97v15.29h-4.99Z" style="fill:#fff;"/><path d="M932.51,175.05c0-.77,.25-1.41,.74-1.9s1.15-.74,1.97-.74,1.48,.25,1.97,.74,.74,1.12,.74,1.9-.24,1.39-.73,1.9-1.15,.76-1.98,.76-1.49-.25-1.98-.76-.73-1.14-.73-1.9Zm5.22,23.94h-4.99v-19.02h4.99v19.02Z" style="fill:#fff;"/><path d="M949.26,199.35c-2.55,0-4.55-.76-5.98-2.29s-2.14-3.7-2.14-6.54v-1.51c0-3,.66-5.31,1.97-6.94s3.19-2.44,5.64-2.44,4.19,.76,5.4,2.29c1.21,1.53,1.82,3.79,1.85,6.78v2.44h-9.9c.07,1.41,.38,2.45,.93,3.1,.55,.65,1.4,.98,2.55,.98,1.66,0,3.05-.57,4.17-1.71l1.95,3.01c-.61,.84-1.49,1.53-2.65,2.05s-2.42,.78-3.78,.78Zm-3.13-11.67h4.97v-.46c-.02-1.14-.21-2-.56-2.58s-.96-.88-1.83-.88-1.5,.31-1.89,.93-.62,1.62-.69,2.99Z" style="fill:#fff;"/><path d="M958.14,188.91c0-3.12,.53-5.44,1.58-6.98s2.59-2.3,4.61-2.3c1.46,0,2.68,.63,3.66,1.9v-9.53h5.01v27h-4.52l-.23-1.93c-1.02,1.52-2.33,2.29-3.94,2.29-1.99,0-3.51-.76-4.56-2.29s-1.58-3.76-1.61-6.71v-1.44Zm4.99,1.25c0,1.88,.2,3.18,.6,3.93s1.07,1.12,2.02,1.12,1.73-.44,2.23-1.32v-8.68c-.49-.94-1.23-1.41-2.21-1.41-.91,0-1.58,.37-2,1.11s-.63,2.05-.63,3.94v1.32Z" style="fill:#fff;"/><path d="M816.57,235h-5.17l-7.56-16.79v16.79h-5.17v-25.59h5.17l7.58,16.8v-16.8h5.15v25.59Z" style="fill:#fff;"/><path d="M829.51,235c-.14-.29-.28-.79-.42-1.48-.89,1.22-2.1,1.83-3.62,1.83s-2.92-.53-3.96-1.58-1.57-2.42-1.57-4.1c0-1.99,.64-3.53,1.91-4.62s3.1-1.65,5.49-1.67h1.51v-1.53c0-.86-.15-1.46-.44-1.81s-.72-.53-1.28-.53c-1.24,0-1.86,.73-1.86,2.18h-4.97c0-1.76,.66-3.21,1.98-4.35s2.99-1.71,5-1.71,3.7,.54,4.84,1.63,1.71,2.63,1.71,4.65v8.95c.02,1.64,.26,2.92,.7,3.85v.3h-5.01Zm-2.94-3.55c.55,0,1.02-.11,1.41-.33s.67-.49,.86-.79v-3.96h-1.2c-.84,0-1.51,.27-2,.81s-.73,1.26-.73,2.16c0,1.41,.55,2.11,1.65,2.11Z" style="fill:#fff;"/><path d="M842.09,215.98l.14,1.76c1.11-1.41,2.58-2.11,4.41-2.11s3.24,.86,4.03,2.57c1.09-1.71,2.64-2.57,4.66-2.57,3.33,0,5.03,2.3,5.12,6.91v12.46h-4.97v-12.15c0-1.1-.15-1.89-.46-2.36s-.82-.7-1.55-.7c-.93,0-1.62,.57-2.07,1.71l.04,.6v12.9h-4.97v-12.11c0-1.09-.15-1.88-.44-2.36s-.81-.73-1.56-.73c-.86,0-1.54,.46-2.04,1.39v13.82h-4.97v-19.02h4.66Z" style="fill:#fff;"/><path d="M871.8,235.35c-2.55,0-4.55-.76-5.98-2.29s-2.14-3.7-2.14-6.54v-1.51c0-3,.66-5.31,1.97-6.94s3.19-2.44,5.64-2.44,4.19,.76,5.4,2.29c1.21,1.53,1.82,3.79,1.85,6.78v2.44h-9.9c.07,1.41,.38,2.45,.93,3.1,.55,.65,1.4,.98,2.55,.98,1.66,0,3.05-.57,4.17-1.71l1.95,3.01c-.61,.84-1.49,1.53-2.65,2.05s-2.42,.78-3.78,.78Zm-3.13-11.67h4.97v-.46c-.02-1.14-.21-2-.56-2.58s-.96-.88-1.83-.88-1.5,.31-1.89,.93-.62,1.62-.69,2.99Z" style="fill:#fff;"/><path d="M889.77,229.9c0-.42-.2-.81-.61-1.17s-1.3-.84-2.7-1.45c-2.05-.83-3.46-1.69-4.23-2.58s-1.15-2-1.15-3.32c0-1.66,.6-3.04,1.8-4.12s2.79-1.63,4.77-1.63c2.09,0,3.76,.54,5.01,1.62s1.88,2.53,1.88,4.34h-4.97c0-1.55-.64-2.32-1.93-2.32-.53,0-.96,.16-1.3,.49s-.51,.79-.51,1.37c0,.42,.19,.79,.56,1.12s1.26,.78,2.65,1.38c2.03,.75,3.46,1.58,4.3,2.5s1.26,2.11,1.26,3.58c0,1.7-.64,3.06-1.92,4.1s-2.95,1.55-5.03,1.55c-1.39,0-2.62-.27-3.69-.82s-1.9-1.3-2.5-2.28-.91-2.02-.91-3.15h4.73c.02,.87,.23,1.52,.61,1.95s1,.65,1.87,.65c1.34,0,2-.6,2-1.81Z" style="fill:#fff;"/><path d="M912.51,226.08c0,2.99-.51,5.28-1.54,6.87s-2.55,2.39-4.58,2.39c-1.55,0-2.79-.63-3.73-1.88v8.84h-4.97v-26.33h4.61l.18,1.74c.95-1.39,2.24-2.09,3.88-2.09,2.03,0,3.55,.74,4.58,2.21s1.55,3.74,1.57,6.79v1.46Zm-4.96-1.25c0-1.84-.2-3.14-.61-3.9s-1.09-1.14-2.05-1.14c-1.02,0-1.76,.43-2.23,1.28v8.91c.45,.82,1.2,1.23,2.27,1.23,.98,0,1.67-.42,2.05-1.25s.57-2.13,.57-3.88v-1.25Z" style="fill:#fff;"/><path d="M924.55,235c-.14-.29-.28-.79-.42-1.48-.89,1.22-2.1,1.83-3.62,1.83s-2.92-.53-3.96-1.58-1.57-2.42-1.57-4.1c0-1.99,.64-3.53,1.91-4.62s3.1-1.65,5.49-1.67h1.51v-1.53c0-.86-.15-1.46-.44-1.81s-.72-.53-1.28-.53c-1.24,0-1.86,.73-1.86,2.18h-4.97c0-1.76,.66-3.21,1.98-4.35s2.99-1.71,5-1.71,3.7,.54,4.84,1.63,1.71,2.63,1.71,4.65v8.95c.02,1.64,.26,2.92,.7,3.85v.3h-5.01Zm-2.94-3.55c.55,0,1.02-.11,1.41-.33s.67-.49,.86-.79v-3.96h-1.2c-.84,0-1.51,.27-2,.81s-.73,1.26-.73,2.16c0,1.41,.55,2.11,1.65,2.11Z" style="fill:#fff;"/><path d="M939.34,231.22c1.44,0,2.17-.94,2.2-2.81h4.68c-.02,2.07-.66,3.75-1.92,5.03s-2.87,1.92-4.85,1.92c-2.45,0-4.32-.76-5.61-2.29s-1.95-3.77-1.97-6.73v-1.51c0-2.99,.64-5.27,1.91-6.84s3.15-2.36,5.63-2.36c2.1,0,3.75,.65,4.96,1.94s1.82,3.13,1.85,5.51h-4.68c-.01-1.07-.19-1.89-.53-2.46s-.9-.86-1.69-.86c-.87,0-1.49,.31-1.86,.92s-.57,1.81-.6,3.58v1.93c0,1.55,.08,2.63,.23,3.24s.4,1.07,.76,1.35,.85,.43,1.49,.43Z" style="fill:#fff;"/><path d="M956.7,235.35c-2.55,0-4.55-.76-5.98-2.29s-2.14-3.7-2.14-6.54v-1.51c0-3,.66-5.31,1.97-6.94s3.19-2.44,5.64-2.44,4.19,.76,5.4,2.29c1.21,1.53,1.82,3.79,1.85,6.78v2.44h-9.9c.07,1.41,.38,2.45,.93,3.1,.55,.65,1.4,.98,2.55,.98,1.66,0,3.05-.57,4.17-1.71l1.95,3.01c-.61,.84-1.49,1.53-2.65,2.05s-2.42,.78-3.78,.78Zm-3.13-11.67h4.97v-.46c-.02-1.14-.21-2-.56-2.58s-.96-.88-1.83-.88-1.5,.31-1.89,.93-.62,1.62-.69,2.99Z" style="fill:#fff;"/><path d="M974.84,224.59c0-2.62,.31-5.14,.92-7.56s1.54-4.57,2.76-6.48,2.53-3.22,3.93-3.95l.93,2.74c-1.32,1.24-2.37,3.15-3.15,5.72s-1.18,5.55-1.21,8.92v1.05c0,3.52,.38,6.61,1.15,9.27s1.84,4.66,3.21,5.97l-.93,2.71c-1.38-.73-2.68-2.02-3.89-3.88s-2.13-3.98-2.75-6.36-.94-4.86-.97-7.44v-.72Z" style="fill:#fff;"/><path d="M1003.07,209.4v17.72c-.02,2.66-.76,4.7-2.2,6.11s-3.51,2.12-6.21,2.12-4.84-.71-6.28-2.14-2.17-3.5-2.17-6.21v-17.6h5.2v17.61c0,1.45,.23,2.49,.7,3.11s1.32,.93,2.55,.93,2.07-.31,2.53-.92,.69-1.63,.7-3.03v-17.7h5.17Z" style="fill:#fff;"/><path d="M1024.89,235h-5.17l-7.56-16.79v16.79h-5.17v-25.59h5.17l7.58,16.8v-16.8h5.15v25.59Z" style="fill:#fff;"/><path d="M1039.85,228.28c0-1.04-.27-1.83-.8-2.36s-1.5-1.09-2.91-1.66c-2.57-.97-4.41-2.11-5.54-3.42s-1.69-2.85-1.69-4.63c0-2.16,.76-3.89,2.29-5.19s3.47-1.96,5.83-1.96c1.57,0,2.97,.33,4.2,.99s2.18,1.6,2.84,2.8,.99,2.58,.99,4.11h-5.15c0-1.2-.25-2.11-.76-2.73s-1.25-.94-2.21-.94c-.9,0-1.61,.27-2.11,.8s-.76,1.25-.76,2.15c0,.7,.28,1.34,.84,1.91s1.56,1.16,2.99,1.77c2.5,.9,4.31,2.01,5.44,3.32s1.7,2.98,1.7,5.01c0,2.23-.71,3.97-2.13,5.22s-3.35,1.88-5.78,1.88c-1.65,0-3.16-.34-4.52-1.02s-2.42-1.65-3.19-2.92-1.15-2.76-1.15-4.48h5.19c0,1.48,.29,2.55,.86,3.22s1.51,1,2.81,1c1.8,0,2.71-.96,2.71-2.87Z" style="fill:#fff;"/><path d="M1056.2,225.01c0,2.73-.35,5.31-1.05,7.75s-1.66,4.58-2.9,6.42-2.55,3.11-3.93,3.81l-.91-2.71c1.34-1.28,2.39-3.23,3.16-5.86s1.17-5.61,1.2-8.94v-.93c0-3.41-.38-6.46-1.15-9.15s-1.84-4.72-3.21-6.09l.91-2.71c.9,.46,1.83,1.22,2.77,2.29s1.8,2.38,2.56,3.96,1.38,3.34,1.85,5.3,.7,4.25,.7,6.86Z" style="fill:#fff;"/></g><g><rect x="834.6" y="274.95" width="185.48" height="54.09" style="fill:#fff; stroke:#000; stroke-miterlimit:10;"/><g><path d="M867.3,301.97c0,2.95-.63,5.22-1.89,6.82-1.26,1.59-3.05,2.39-5.36,2.39s-3.99-.77-5.28-2.32c-1.29-1.55-1.96-3.74-2.01-6.57v-4.07c0-2.89,.64-5.16,1.92-6.8s3.06-2.46,5.35-2.46,4.05,.79,5.33,2.35c1.27,1.57,1.92,3.81,1.95,6.72v3.94Zm-2.72-3.79c0-2.29-.37-3.99-1.12-5.1s-1.89-1.67-3.44-1.67-2.63,.56-3.39,1.69c-.77,1.13-1.16,2.79-1.17,4.99v3.88c0,2.21,.38,3.89,1.15,5.05,.77,1.16,1.91,1.74,3.44,1.74s2.65-.53,3.39-1.6c.73-1.07,1.11-2.71,1.14-4.92v-4.06Z"/><path d="M877.77,297.27c-.37-.07-.76-.1-1.19-.1-1.35,0-2.29,.74-2.82,2.21v11.5h-2.63v-16.07h2.56l.04,1.63c.7-1.29,1.7-1.93,2.99-1.93,.42,0,.76,.07,1.04,.21v2.56Z"/><path d="M879.58,302.11c0-2.51,.46-4.4,1.37-5.68s2.24-1.92,4-1.92c1.63,0,2.88,.7,3.73,2.09l.13-1.8h2.38v16.22c0,1.99-.51,3.52-1.53,4.58-1.02,1.06-2.44,1.6-4.26,1.6-.79,0-1.68-.2-2.67-.59s-1.73-.87-2.22-1.45l1.07-1.81c1.09,1.07,2.29,1.6,3.61,1.6,2.19,0,3.31-1.19,3.37-3.58v-2.09c-.85,1.26-2.06,1.89-3.62,1.89-1.66,0-2.96-.63-3.89-1.88-.93-1.25-1.42-3.05-1.46-5.4v-1.78Zm2.63,1.49c0,1.8,.26,3.12,.79,3.97,.53,.85,1.4,1.27,2.61,1.27,1.31,0,2.29-.67,2.94-2v-8.03c-.68-1.32-1.65-1.97-2.91-1.97s-2.08,.42-2.61,1.27c-.54,.85-.81,2.14-.82,3.9v1.6Z"/><path d="M903.37,310.88c-.16-.35-.27-.93-.34-1.75-.93,1.37-2.12,2.05-3.57,2.05s-2.59-.41-3.41-1.23c-.82-.82-1.23-1.97-1.23-3.45,0-1.63,.55-2.93,1.66-3.89,1.11-.96,2.63-1.45,4.56-1.47h1.93v-1.71c0-.96-.21-1.64-.64-2.05s-1.08-.61-1.95-.61c-.79,0-1.44,.24-1.93,.71-.5,.47-.74,1.07-.74,1.79h-2.63c0-.82,.24-1.61,.73-2.35,.49-.75,1.14-1.33,1.96-1.76,.82-.43,1.74-.64,2.75-.64,1.64,0,2.89,.41,3.75,1.23,.86,.82,1.29,2.01,1.31,3.57v8.11c0,1.24,.18,2.31,.5,3.22v.24h-2.73Zm-3.51-2.09c.64,0,1.26-.18,1.84-.53,.58-.36,1.01-.8,1.28-1.34v-3.83h-1.49c-1.25,.02-2.23,.3-2.96,.84-.72,.54-1.08,1.29-1.08,2.27,0,.91,.18,1.57,.55,1.98,.37,.41,.99,.62,1.86,.62Z"/><path d="M912.15,294.81l.07,1.74c1.02-1.36,2.32-2.04,3.91-2.04,2.84,0,4.28,1.9,4.32,5.69v10.68h-2.61v-10.56c0-1.26-.21-2.15-.63-2.68-.42-.53-1.05-.79-1.89-.79-.65,0-1.24,.22-1.76,.65-.52,.44-.94,1.01-1.25,1.71v11.68h-2.63v-16.07h2.48Z"/><path d="M927.43,290.54c0,.45-.12,.82-.37,1.11-.25,.3-.62,.45-1.13,.45s-.87-.15-1.11-.45c-.25-.3-.37-.67-.37-1.11s.12-.82,.37-1.13c.25-.31,.62-.46,1.11-.46s.87,.16,1.12,.47c.25,.31,.38,.69,.38,1.12Zm-.21,20.34h-2.63v-16.07h2.63v16.07Z"/><path d="M939.17,306.76c0-.56-.21-1.05-.64-1.46-.43-.41-1.25-.88-2.47-1.43-1.42-.58-2.41-1.08-2.99-1.5s-1.01-.89-1.3-1.42c-.29-.53-.43-1.16-.43-1.89,0-1.31,.48-2.39,1.43-3.26,.96-.87,2.18-1.3,3.66-1.3,1.56,0,2.82,.46,3.77,1.37,.95,.91,1.43,2.08,1.43,3.51h-2.61c0-.72-.24-1.34-.73-1.85-.49-.51-1.1-.77-1.86-.77s-1.38,.2-1.82,.6-.66,.94-.66,1.61c0,.53,.16,.96,.48,1.29,.32,.33,1.1,.76,2.32,1.29,1.95,.76,3.28,1.51,3.98,2.24,.7,.73,1.05,1.65,1.05,2.77,0,1.4-.48,2.52-1.44,3.36-.96,.84-2.25,1.26-3.86,1.26s-3.03-.48-4.07-1.44c-1.04-.96-1.56-2.18-1.56-3.65h2.64c.03,.89,.3,1.59,.82,2.09,.51,.5,1.24,.76,2.17,.76,.87,0,1.53-.2,1.99-.59,.46-.39,.68-.92,.68-1.58Z"/><path d="M953.49,310.88c-.16-.35-.27-.93-.34-1.75-.93,1.37-2.12,2.05-3.57,2.05s-2.59-.41-3.41-1.23c-.82-.82-1.23-1.97-1.23-3.45,0-1.63,.55-2.93,1.66-3.89,1.11-.96,2.63-1.45,4.56-1.47h1.93v-1.71c0-.96-.21-1.64-.64-2.05s-1.08-.61-1.95-.61c-.79,0-1.44,.24-1.93,.71-.5,.47-.74,1.07-.74,1.79h-2.63c0-.82,.24-1.61,.73-2.35,.49-.75,1.14-1.33,1.96-1.76,.82-.43,1.74-.64,2.75-.64,1.64,0,2.89,.41,3.75,1.23,.86,.82,1.29,2.01,1.31,3.57v8.11c0,1.24,.18,2.31,.5,3.22v.24h-2.73Zm-3.51-2.09c.64,0,1.26-.18,1.84-.53,.58-.36,1.01-.8,1.28-1.34v-3.83h-1.49c-1.25,.02-2.23,.3-2.96,.84-.72,.54-1.08,1.29-1.08,2.27,0,.91,.18,1.57,.55,1.98,.37,.41,.99,.62,1.86,.62Z"/><path d="M963.24,290.91v3.89h2.42v2.12h-2.42v9.98c0,.63,.1,1.12,.31,1.44s.56,.49,1.07,.49c.35,0,.7-.06,1.05-.18l-.03,2.22c-.59,.2-1.2,.29-1.83,.29-1.04,0-1.83-.37-2.38-1.11-.54-.74-.82-1.79-.82-3.15v-9.98h-2.45v-2.12h2.45v-3.89h2.61Z"/><path d="M971.82,290.54c0,.45-.12,.82-.37,1.11-.25,.3-.62,.45-1.13,.45s-.87-.15-1.11-.45c-.25-.3-.37-.67-.37-1.11s.12-.82,.37-1.13c.25-.31,.62-.46,1.11-.46s.87,.16,1.12,.47c.25,.31,.38,.69,.38,1.12Zm-.21,20.34h-2.63v-16.07h2.63v16.07Z"/><path d="M975.2,302.1c0-2.34,.57-4.19,1.7-5.55,1.13-1.36,2.63-2.04,4.49-2.04s3.36,.66,4.49,1.99c1.13,1.33,1.72,3.13,1.75,5.42v1.69c0,2.33-.56,4.17-1.69,5.53-1.13,1.36-2.63,2.04-4.52,2.04s-3.35-.66-4.48-1.98c-1.12-1.32-1.71-3.1-1.75-5.35v-1.75Zm2.63,1.52c0,1.65,.32,2.95,.97,3.9s1.52,1.42,2.62,1.42c2.32,0,3.51-1.67,3.58-5.02v-1.81c0-1.64-.33-2.94-.98-3.9-.65-.96-1.53-1.43-2.63-1.43s-1.94,.48-2.59,1.43c-.65,.96-.97,2.25-.97,3.88v1.53Z"/><path d="M993.5,294.81l.07,1.74c1.02-1.36,2.32-2.04,3.91-2.04,2.84,0,4.28,1.9,4.32,5.69v10.68h-2.61v-10.56c0-1.26-.21-2.15-.63-2.68-.42-.53-1.05-.79-1.89-.79-.65,0-1.24,.22-1.76,.65-.52,.44-.94,1.01-1.25,1.71v11.68h-2.63v-16.07h2.48Z"/></g></g><g><rect x="834.6" y="385.88" width="185.48" height="54.09" style="fill:#fff; stroke:#000; stroke-miterlimit:10;"/><g><path d="M882.1,421.82v-21.63h5.16c2.53,0,4.49,.79,5.88,2.37,1.4,1.58,2.09,3.8,2.09,6.66v3.62c0,2.86-.71,5.07-2.12,6.63-1.42,1.56-3.47,2.34-6.17,2.34h-4.84Zm2.72-19.3v16.97h2.18c1.91,0,3.31-.55,4.19-1.64,.88-1.09,1.33-2.72,1.35-4.87v-3.84c0-2.28-.44-3.95-1.32-5.02-.88-1.07-2.2-1.6-3.97-1.6h-2.44Z"/><path d="M902.14,401.48c0,.45-.12,.82-.37,1.11-.25,.3-.62,.45-1.13,.45s-.87-.15-1.11-.45c-.25-.3-.37-.67-.37-1.11s.12-.82,.37-1.13c.25-.31,.62-.46,1.11-.46s.87,.16,1.12,.47c.25,.31,.38,.69,.38,1.12Zm-.21,20.34h-2.63v-16.07h2.63v16.07Z"/><path d="M910.63,417.82l3.05-12.08h2.67l-4.77,16.07h-1.96l-4.83-16.07h2.67l3.16,12.08Z"/><path d="M922.12,401.48c0,.45-.12,.82-.37,1.11-.25,.3-.62,.45-1.13,.45s-.87-.15-1.11-.45c-.25-.3-.37-.67-.37-1.11s.12-.82,.37-1.13c.25-.31,.62-.46,1.11-.46s.87,.16,1.12,.47c.25,.31,.38,.69,.38,1.12Zm-.21,20.34h-2.63v-16.07h2.63v16.07Z"/><path d="M933.86,417.7c0-.56-.21-1.05-.64-1.46-.43-.41-1.25-.88-2.47-1.43-1.42-.58-2.41-1.08-2.99-1.5-.58-.42-1.01-.89-1.3-1.42-.29-.53-.43-1.16-.43-1.89,0-1.31,.48-2.39,1.43-3.26,.96-.87,2.18-1.3,3.66-1.3,1.56,0,2.82,.46,3.77,1.37,.95,.91,1.43,2.08,1.43,3.51h-2.61c0-.72-.24-1.34-.73-1.85-.49-.51-1.1-.77-1.86-.77s-1.38,.2-1.82,.6c-.44,.4-.66,.94-.66,1.61,0,.53,.16,.96,.48,1.29,.32,.33,1.1,.76,2.32,1.29,1.95,.76,3.28,1.51,3.98,2.24,.7,.73,1.05,1.65,1.05,2.77,0,1.4-.48,2.52-1.44,3.36-.96,.84-2.25,1.26-3.86,1.26s-3.03-.48-4.07-1.44c-1.04-.96-1.56-2.18-1.56-3.66h2.64c.03,.89,.3,1.59,.82,2.09,.51,.51,1.24,.76,2.17,.76,.87,0,1.53-.2,1.99-.59,.46-.39,.68-.92,.68-1.58Z"/><path d="M942.95,401.48c0,.45-.12,.82-.37,1.11-.25,.3-.62,.45-1.13,.45s-.87-.15-1.11-.45c-.25-.3-.37-.67-.37-1.11s.12-.82,.37-1.13c.25-.31,.62-.46,1.11-.46s.87,.16,1.12,.47c.25,.31,.38,.69,.38,1.12Zm-.21,20.34h-2.63v-16.07h2.63v16.07Z"/><path d="M946.33,413.04c0-2.34,.57-4.19,1.7-5.55,1.13-1.36,2.63-2.04,4.49-2.04s3.36,.66,4.49,1.99c1.13,1.33,1.72,3.13,1.75,5.42v1.69c0,2.33-.56,4.17-1.69,5.53-1.13,1.36-2.63,2.04-4.52,2.04s-3.35-.66-4.48-1.98c-1.12-1.32-1.71-3.1-1.75-5.35v-1.75Zm2.63,1.52c0,1.65,.32,2.95,.97,3.9,.65,.95,1.52,1.42,2.62,1.42,2.32,0,3.51-1.67,3.58-5.02v-1.81c0-1.64-.33-2.94-.98-3.9-.65-.96-1.53-1.43-2.63-1.43s-1.94,.48-2.59,1.43c-.65,.96-.97,2.25-.97,3.88v1.53Z"/><path d="M964.63,405.74l.07,1.74c1.02-1.36,2.32-2.04,3.91-2.04,2.84,0,4.28,1.9,4.32,5.69v10.68h-2.61v-10.56c0-1.26-.21-2.15-.63-2.68-.42-.53-1.05-.79-1.89-.79-.65,0-1.24,.22-1.76,.65-.52,.44-.94,1-1.25,1.71v11.68h-2.63v-16.07h2.48Z"/></g></g><g><rect x="834.6" y="517.11" width="185.48" height="54.09" style="fill:#fff; stroke:#000; stroke-miterlimit:10;"/><g><path d="M865.04,547.57c0-1.08-.29-1.91-.88-2.48-.58-.57-1.64-1.13-3.16-1.68-1.53-.54-2.69-1.12-3.5-1.72-.81-.6-1.41-1.28-1.81-2.05s-.6-1.65-.6-2.64c0-1.71,.57-3.12,1.72-4.23,1.14-1.11,2.64-1.66,4.49-1.66,1.27,0,2.4,.28,3.39,.85,.99,.57,1.75,1.35,2.29,2.36s.8,2.12,.8,3.33h-2.73c0-1.34-.32-2.37-.96-3.1-.64-.73-1.57-1.1-2.78-1.1-1.1,0-1.95,.31-2.56,.92-.6,.62-.91,1.48-.91,2.59,0,.91,.33,1.68,.98,2.29,.65,.62,1.66,1.17,3.03,1.65,2.13,.7,3.65,1.57,4.57,2.6,.92,1.03,1.37,2.38,1.37,4.04,0,1.75-.57,3.16-1.71,4.21s-2.69,1.58-4.65,1.58c-1.26,0-2.42-.27-3.48-.82-1.07-.55-1.9-1.32-2.51-2.32-.61-1-.91-2.14-.91-3.42h2.73c0,1.34,.37,2.38,1.12,3.12,.75,.74,1.76,1.11,3.05,1.11,1.2,0,2.1-.31,2.7-.92,.6-.61,.91-1.45,.91-2.51Z"/><path d="M879.18,551.63c-.87,1.14-2.14,1.71-3.82,1.71-1.46,0-2.56-.5-3.3-1.51-.74-1-1.12-2.47-1.13-4.39v-10.47h2.62v10.28c0,2.51,.75,3.76,2.26,3.76,1.59,0,2.69-.71,3.3-2.14v-11.9h2.63v16.07h-2.5l-.06-1.41Z"/><path d="M897.34,545.78c0,2.51-.45,4.39-1.35,5.66s-2.21,1.9-3.92,1.9-2.98-.73-3.83-2.2l-.13,1.9h-2.39v-22.82h2.62v8.51c.86-1.38,2.1-2.06,3.71-2.06,1.76,0,3.08,.62,3.97,1.87,.88,1.25,1.33,3.13,1.34,5.64v1.59Zm-2.62-1.51c0-1.9-.26-3.25-.79-4.06-.53-.81-1.39-1.21-2.58-1.21-1.36,0-2.37,.73-3.03,2.2v7.64c.65,1.44,1.67,2.17,3.06,2.17,1.19,0,2.04-.42,2.56-1.25s.78-2.12,.79-3.87v-1.62Z"/><path d="M905.57,544.97h-6.14v-2.24h6.14v2.24Z"/><path d="M908.61,553.04v-21.63h5.16c2.53,0,4.49,.79,5.88,2.37,1.4,1.58,2.09,3.8,2.09,6.66v3.62c0,2.86-.71,5.07-2.12,6.63-1.42,1.56-3.47,2.34-6.17,2.34h-4.84Zm2.72-19.3v16.97h2.18c1.91,0,3.31-.55,4.19-1.64,.88-1.09,1.33-2.72,1.35-4.87v-3.84c0-2.28-.44-3.95-1.32-5.02-.88-1.07-2.2-1.6-3.97-1.6h-2.44Z"/><path d="M928.65,532.7c0,.45-.12,.82-.37,1.11-.25,.3-.62,.45-1.13,.45s-.87-.15-1.11-.45c-.25-.3-.37-.67-.37-1.11s.12-.82,.37-1.13c.25-.31,.62-.46,1.11-.46s.87,.16,1.12,.47c.25,.31,.38,.69,.38,1.12Zm-.21,20.34h-2.63v-16.07h2.63v16.07Z"/><path d="M937.14,549.04l3.05-12.08h2.67l-4.77,16.07h-1.96l-4.83-16.07h2.67l3.16,12.08Z"/><path d="M948.63,532.7c0,.45-.12,.82-.37,1.11-.25,.3-.62,.45-1.13,.45s-.87-.15-1.11-.45c-.25-.3-.37-.67-.37-1.11s.12-.82,.37-1.13c.25-.31,.62-.46,1.11-.46s.87,.16,1.12,.47c.25,.31,.38,.69,.38,1.12Zm-.21,20.34h-2.63v-16.07h2.63v16.07Z"/><path d="M960.37,548.92c0-.56-.21-1.05-.64-1.46-.43-.41-1.25-.88-2.47-1.43-1.42-.58-2.41-1.08-2.99-1.5-.58-.42-1.01-.89-1.3-1.42-.29-.53-.43-1.16-.43-1.89,0-1.31,.48-2.39,1.43-3.26,.96-.87,2.18-1.3,3.66-1.3,1.56,0,2.82,.46,3.77,1.37,.95,.91,1.43,2.08,1.43,3.51h-2.61c0-.72-.24-1.34-.73-1.85-.49-.51-1.1-.77-1.86-.77s-1.38,.2-1.82,.6c-.44,.4-.66,.94-.66,1.61,0,.53,.16,.96,.48,1.29,.32,.33,1.1,.76,2.32,1.29,1.95,.76,3.28,1.51,3.98,2.24,.7,.73,1.05,1.65,1.05,2.77,0,1.4-.48,2.52-1.44,3.36-.96,.84-2.25,1.26-3.86,1.26s-3.03-.48-4.07-1.44c-1.04-.96-1.56-2.18-1.56-3.66h2.64c.03,.89,.3,1.59,.82,2.09,.51,.51,1.24,.76,2.17,.76,.87,0,1.53-.2,1.99-.59,.46-.39,.68-.92,.68-1.58Z"/><path d="M969.46,532.7c0,.45-.12,.82-.37,1.11-.25,.3-.62,.45-1.13,.45s-.87-.15-1.11-.45c-.25-.3-.37-.67-.37-1.11s.12-.82,.37-1.13c.25-.31,.62-.46,1.11-.46s.87,.16,1.12,.47c.25,.31,.38,.69,.38,1.12Zm-.21,20.34h-2.63v-16.07h2.63v16.07Z"/><path d="M972.83,544.26c0-2.34,.57-4.19,1.7-5.55,1.13-1.36,2.63-2.04,4.49-2.04s3.36,.66,4.49,1.99c1.13,1.33,1.72,3.13,1.75,5.42v1.69c0,2.33-.56,4.17-1.69,5.53-1.13,1.36-2.63,2.04-4.52,2.04s-3.35-.66-4.48-1.98c-1.12-1.32-1.71-3.1-1.75-5.35v-1.75Zm2.63,1.52c0,1.65,.32,2.95,.97,3.9,.65,.95,1.52,1.42,2.62,1.42,2.32,0,3.51-1.67,3.58-5.02v-1.81c0-1.64-.33-2.94-.98-3.9-.65-.96-1.53-1.43-2.63-1.43s-1.94,.48-2.59,1.43c-.65,.96-.97,2.25-.97,3.88v1.53Z"/><path d="M991.14,536.97l.07,1.74c1.02-1.36,2.32-2.04,3.91-2.04,2.84,0,4.28,1.9,4.32,5.69v10.68h-2.61v-10.56c0-1.26-.21-2.15-.63-2.68-.42-.53-1.05-.79-1.89-.79-.65,0-1.24,.22-1.76,.65-.52,.44-.94,1-1.25,1.71v11.68h-2.63v-16.07h2.48Z"/></g></g><g><line x1="927.34" y1="333.11" x2="927.34" y2="375.23" style="fill:none; stroke:#000; stroke-miterlimit:10;"/><polygon points="922.35 373.77 927.34 382.4 932.33 373.77 922.35 373.77"/></g><g><line x1="927.34" y1="445.04" x2="927.34" y2="504.23" style="fill:none; stroke:#000; stroke-miterlimit:10;"/><polygon points="922.35 502.77 927.34 511.4 932.33 502.77 922.35 502.77"/></g><g><path d="M823.65,357.24h-7.65v7.67h8.91v2.33h-11.63v-21.63h11.48v2.33h-8.77v6.97h7.65v2.33Z"/><path d="M832.19,363.24l3.05-12.08h2.67l-4.77,16.07h-1.96l-4.83-16.07h2.67l3.16,12.08Z"/><path d="M846.2,367.53c-2,0-3.54-.6-4.61-1.79-1.07-1.19-1.61-2.94-1.63-5.25v-1.95c0-2.4,.52-4.28,1.57-5.64,1.04-1.36,2.5-2.04,4.38-2.04s3.29,.6,4.22,1.8c.93,1.2,1.41,3.07,1.43,5.6v1.72h-8.97v.37c0,1.72,.32,2.98,.97,3.76,.65,.78,1.58,1.17,2.8,1.17,.77,0,1.45-.15,2.04-.44,.59-.29,1.14-.76,1.66-1.39l1.37,1.66c-1.14,1.6-2.88,2.41-5.21,2.41Zm-.3-14.41c-1.09,0-1.9,.37-2.42,1.12-.52,.75-.82,1.91-.89,3.48h6.33v-.36c-.07-1.52-.34-2.61-.82-3.27-.48-.65-1.21-.98-2.19-.98Z"/><path d="M857.18,351.16l.07,1.74c1.02-1.36,2.32-2.04,3.91-2.04,2.84,0,4.28,1.9,4.32,5.69v10.68h-2.61v-10.56c0-1.26-.21-2.15-.63-2.68-.42-.53-1.05-.79-1.89-.79-.65,0-1.24,.22-1.76,.65-.52,.44-.94,1.01-1.25,1.71v11.68h-2.63v-16.07h2.48Z"/><path d="M872.87,347.27v3.89h2.42v2.12h-2.42v9.98c0,.63,.1,1.12,.31,1.44,.21,.33,.56,.49,1.07,.49,.35,0,.7-.06,1.05-.18l-.03,2.22c-.59,.2-1.2,.29-1.83,.29-1.04,0-1.83-.37-2.38-1.11-.54-.74-.82-1.79-.82-3.15v-9.98h-2.45v-2.12h2.45v-3.89h2.61Z"/><path d="M892.98,367.24h-2.64v-18.32l-4.55,2.04v-2.5l6.77-2.96h.42v21.73Z"/></g><g><path d="M282.94,381.81v8.47h-2.72v-21.63h6.89c2.01,0,3.59,.6,4.74,1.8s1.72,2.81,1.72,4.81-.55,3.68-1.64,4.81c-1.09,1.12-2.64,1.71-4.63,1.75h-4.37Zm0-2.33h4.17c1.21,0,2.13-.36,2.78-1.09,.64-.72,.97-1.76,.97-3.11s-.33-2.34-1-3.12c-.66-.78-1.57-1.18-2.73-1.18h-4.19v8.5Z" style="fill:#f60;"/><path d="M295.97,381.5c0-2.34,.57-4.19,1.7-5.55,1.13-1.36,2.63-2.04,4.49-2.04s3.36,.66,4.49,1.99c1.13,1.33,1.72,3.13,1.75,5.42v1.69c0,2.33-.56,4.17-1.69,5.53-1.13,1.36-2.63,2.04-4.52,2.04s-3.35-.66-4.48-1.98-1.71-3.1-1.75-5.35v-1.75Zm2.63,1.52c0,1.65,.32,2.95,.97,3.9,.65,.95,1.52,1.42,2.62,1.42,2.32,0,3.51-1.67,3.58-5.02v-1.81c0-1.64-.33-2.94-.98-3.9-.65-.96-1.53-1.43-2.63-1.43s-1.94,.48-2.59,1.43c-.65,.96-.97,2.25-.97,3.88v1.53Z" style="fill:#f60;"/><path d="M314.84,369.94c0,.45-.12,.82-.37,1.11-.25,.3-.62,.45-1.13,.45s-.87-.15-1.11-.45-.37-.67-.37-1.11,.12-.82,.37-1.13,.62-.46,1.11-.46,.87,.16,1.12,.47c.25,.31,.38,.69,.38,1.12Zm-.21,20.34h-2.63v-16.07h2.63v16.07Z" style="fill:#f60;"/><path d="M321.24,374.21l.07,1.74c1.02-1.36,2.32-2.04,3.91-2.04,2.84,0,4.28,1.9,4.32,5.69v10.68h-2.61v-10.56c0-1.26-.21-2.15-.63-2.68-.42-.53-1.05-.79-1.89-.79-.65,0-1.24,.22-1.76,.65-.52,.44-.94,1-1.26,1.71v11.68h-2.63v-16.07h2.48Z" style="fill:#f60;"/><path d="M336.93,370.31v3.89h2.42v2.12h-2.42v9.98c0,.63,.1,1.12,.31,1.44,.21,.33,.56,.49,1.07,.49,.35,0,.7-.06,1.05-.18l-.03,2.22c-.59,.2-1.2,.29-1.83,.29-1.04,0-1.83-.37-2.38-1.11-.54-.74-.82-1.79-.82-3.15v-9.98h-2.45v-2.12h2.45v-3.89h2.61Z" style="fill:#f60;"/><path d="M347.34,382.21h-6.14v-2.24h6.14v2.24Z" style="fill:#f60;"/><path d="M353.46,370.31v3.89h2.42v2.12h-2.42v9.98c0,.63,.1,1.12,.31,1.44,.21,.33,.56,.49,1.07,.49,.35,0,.7-.06,1.05-.18l-.03,2.22c-.59,.2-1.2,.29-1.83,.29-1.04,0-1.83-.37-2.38-1.11-.54-.74-.82-1.79-.82-3.15v-9.98h-2.45v-2.12h2.45v-3.89h2.61Z" style="fill:#f60;"/><path d="M358.16,381.5c0-2.34,.57-4.19,1.7-5.55,1.13-1.36,2.63-2.04,4.49-2.04s3.36,.66,4.49,1.99c1.13,1.33,1.72,3.13,1.75,5.42v1.69c0,2.33-.56,4.17-1.69,5.53-1.13,1.36-2.63,2.04-4.52,2.04s-3.35-.66-4.48-1.98-1.71-3.1-1.75-5.35v-1.75Zm2.63,1.52c0,1.65,.32,2.95,.97,3.9,.65,.95,1.52,1.42,2.62,1.42,2.32,0,3.51-1.67,3.58-5.02v-1.81c0-1.64-.33-2.94-.98-3.9-.65-.96-1.53-1.43-2.63-1.43s-1.94,.48-2.59,1.43c-.65,.96-.97,2.25-.97,3.88v1.53Z" style="fill:#f60;"/><path d="M378.85,382.21h-6.14v-2.24h6.14v2.24Z" style="fill:#f60;"/><path d="M384.62,381.81v8.47h-2.72v-21.63h6.89c2.01,0,3.59,.6,4.74,1.8s1.72,2.81,1.72,4.81-.55,3.68-1.64,4.81c-1.09,1.12-2.64,1.71-4.63,1.75h-4.37Zm0-2.33h4.17c1.21,0,2.13-.36,2.78-1.09,.64-.72,.97-1.76,.97-3.11s-.33-2.34-1-3.12c-.66-.78-1.57-1.18-2.73-1.18h-4.19v8.5Z" style="fill:#f60;"/><path d="M397.65,381.5c0-2.34,.57-4.19,1.7-5.55,1.13-1.36,2.63-2.04,4.49-2.04s3.36,.66,4.49,1.99c1.13,1.33,1.72,3.13,1.75,5.42v1.69c0,2.33-.56,4.17-1.69,5.53-1.13,1.36-2.63,2.04-4.52,2.04s-3.35-.66-4.48-1.98-1.71-3.1-1.75-5.35v-1.75Zm2.63,1.52c0,1.65,.32,2.95,.97,3.9,.65,.95,1.52,1.42,2.62,1.42,2.32,0,3.51-1.67,3.58-5.02v-1.81c0-1.64-.33-2.94-.98-3.9-.65-.96-1.53-1.43-2.63-1.43s-1.94,.48-2.59,1.43c-.65,.96-.97,2.25-.97,3.88v1.53Z" style="fill:#f60;"/><path d="M416.51,369.94c0,.45-.12,.82-.37,1.11-.25,.3-.62,.45-1.13,.45s-.87-.15-1.11-.45-.37-.67-.37-1.11,.12-.82,.37-1.13,.62-.46,1.11-.46,.87,.16,1.12,.47c.25,.31,.38,.69,.38,1.12Zm-.21,20.34h-2.63v-16.07h2.63v16.07Z" style="fill:#f60;"/><path d="M422.92,374.21l.07,1.74c1.02-1.36,2.32-2.04,3.91-2.04,2.84,0,4.28,1.9,4.32,5.69v10.68h-2.61v-10.56c0-1.26-.21-2.15-.63-2.68-.42-.53-1.05-.79-1.89-.79-.65,0-1.24,.22-1.76,.65-.52,.44-.94,1-1.26,1.71v11.68h-2.63v-16.07h2.48Z" style="fill:#f60;"/><path d="M438.6,370.31v3.89h2.42v2.12h-2.42v9.98c0,.63,.1,1.12,.31,1.44,.21,.33,.56,.49,1.07,.49,.35,0,.7-.06,1.05-.18l-.03,2.22c-.59,.2-1.2,.29-1.83,.29-1.04,0-1.83-.37-2.38-1.11-.54-.74-.82-1.79-.82-3.15v-9.98h-2.45v-2.12h2.45v-3.89h2.61Z" style="fill:#f60;"/></g><g><path d="M962.74,459.43h-7.65v7.67h8.91v2.33h-11.63v-21.63h11.48v2.33h-8.77v6.97h7.65v2.33Z"/><path d="M971.29,465.43l3.05-12.08h2.67l-4.77,16.07h-1.96l-4.83-16.07h2.67l3.16,12.08Z"/><path d="M985.29,469.72c-2,0-3.54-.6-4.61-1.79-1.07-1.19-1.61-2.94-1.63-5.25v-1.95c0-2.4,.52-4.28,1.57-5.64,1.04-1.36,2.5-2.04,4.38-2.04s3.29,.6,4.22,1.8,1.41,3.07,1.43,5.6v1.72h-8.97v.37c0,1.72,.32,2.98,.97,3.76,.65,.78,1.58,1.17,2.8,1.17,.77,0,1.45-.15,2.04-.44,.59-.29,1.14-.75,1.66-1.39l1.37,1.66c-1.14,1.6-2.88,2.41-5.21,2.41Zm-.3-14.41c-1.09,0-1.9,.37-2.42,1.12-.52,.75-.82,1.91-.89,3.48h6.33v-.36c-.07-1.53-.34-2.61-.82-3.27-.48-.65-1.21-.98-2.19-.98Z"/><path d="M996.27,453.35l.07,1.74c1.02-1.36,2.32-2.04,3.91-2.04,2.84,0,4.28,1.9,4.32,5.69v10.68h-2.61v-10.56c0-1.26-.21-2.15-.63-2.68-.42-.53-1.05-.79-1.89-.79-.65,0-1.24,.22-1.76,.65-.52,.44-.94,1-1.25,1.71v11.68h-2.63v-16.07h2.48Z"/><path d="M1011.96,449.46v3.89h2.42v2.12h-2.42v9.98c0,.63,.1,1.12,.31,1.44,.21,.33,.56,.49,1.07,.49,.35,0,.7-.06,1.05-.18l-.03,2.22c-.59,.2-1.2,.29-1.83,.29-1.04,0-1.83-.37-2.38-1.11-.54-.74-.82-1.79-.82-3.15v-9.98h-2.45v-2.12h2.45v-3.89h2.61Z"/><path d="M1032.08,469.42h-2.64v-18.32l-4.55,2.04v-2.5l6.77-2.96h.42v21.73Z"/><path d="M962.74,495.94h-7.65v7.67h8.91v2.33h-11.63v-21.63h11.48v2.33h-8.77v6.97h7.65v2.33Z"/><path d="M971.29,501.94l3.05-12.08h2.67l-4.77,16.07h-1.96l-4.83-16.07h2.67l3.16,12.08Z"/><path d="M985.29,506.23c-2,0-3.54-.6-4.61-1.79-1.07-1.19-1.61-2.94-1.63-5.25v-1.95c0-2.4,.52-4.28,1.57-5.64,1.04-1.36,2.5-2.04,4.38-2.04s3.29,.6,4.22,1.8,1.41,3.07,1.43,5.6v1.72h-8.97v.37c0,1.72,.32,2.98,.97,3.76,.65,.78,1.58,1.17,2.8,1.17,.77,0,1.45-.15,2.04-.44,.59-.29,1.14-.75,1.66-1.39l1.37,1.66c-1.14,1.6-2.88,2.41-5.21,2.41Zm-.3-14.41c-1.09,0-1.9,.37-2.42,1.12-.52,.75-.82,1.91-.89,3.48h6.33v-.36c-.07-1.53-.34-2.61-.82-3.27-.48-.65-1.21-.98-2.19-.98Z"/><path d="M996.27,489.86l.07,1.74c1.02-1.36,2.32-2.04,3.91-2.04,2.84,0,4.28,1.9,4.32,5.69v10.68h-2.61v-10.56c0-1.26-.21-2.15-.63-2.68-.42-.53-1.05-.79-1.89-.79-.65,0-1.24,.22-1.76,.65-.52,.44-.94,1-1.25,1.71v11.68h-2.63v-16.07h2.48Z"/><path d="M1011.96,485.97v3.89h2.42v2.12h-2.42v9.98c0,.63,.1,1.12,.31,1.44,.21,.33,.56,.49,1.07,.49,.35,0,.7-.06,1.05-.18l-.03,2.22c-.59,.2-1.2,.29-1.83,.29-1.04,0-1.83-.37-2.38-1.11-.54-.74-.82-1.79-.82-3.15v-9.98h-2.45v-2.12h2.45v-3.89h2.61Z"/><path d="M1036.34,505.93h-12.09v-1.98l6.17-8.17c.93-1.26,1.58-2.29,1.94-3.1,.36-.81,.54-1.66,.54-2.56,0-1.15-.27-2.08-.8-2.79s-1.24-1.07-2.11-1.07c-1.1,0-1.95,.38-2.55,1.14-.6,.76-.9,1.85-.9,3.28h-2.63c0-1.99,.54-3.6,1.63-4.83,1.09-1.23,2.57-1.84,4.44-1.84,1.72,0,3.08,.53,4.07,1.58,.99,1.05,1.49,2.46,1.49,4.21,0,2.14-1.11,4.67-3.34,7.59l-4.81,6.3h8.96v2.24Z"/></g><g><line x1="671.46" y1="379.28" x2="610.63" y2="379.28" style="fill:none; stroke:#89989f; stroke-miterlimit:10; stroke-width:2px;"/><polygon points="669.27 371.8 682.23 379.28 669.27 386.76 669.27 371.8" style="fill:#89989f;"/><polygon points="612.81 371.8 599.86 379.28 612.81 386.76 612.81 371.8" style="fill:#89989f;"/></g><g><line x1="807.29" y1="314.38" x2="707.03" y2="203.69" style="fill:none; stroke:#89989f; stroke-miterlimit:10; stroke-width:2px;"/><polygon points="811.37 307.74 814.52 322.36 800.28 317.78 811.37 307.74" style="fill:#89989f;"/><polygon points="714.05 200.29 699.81 195.71 702.96 210.33 714.05 200.29" style="fill:#89989f;"/></g><g><polyline points="1183.94 192.87 1077.84 266.95 1077.84 458.01 1054.8 457.49" style="fill:none; stroke:#89989f; stroke-miterlimit:10; stroke-width:2px;"/><polygon points="1177.86 187.99 1192.76 186.71 1186.42 200.26 1177.86 187.99" style="fill:#89989f;"/><polygon points="1057.15 450.06 1044.04 457.24 1056.81 465.01 1057.15 450.06" style="fill:#89989f;"/></g><g><line x1="1054.41" y1="495.53" x2="1178.38" y2="568.91" style="fill:none; stroke:#89989f; stroke-miterlimit:10; stroke-width:2px;"/><polygon points="1052.49 503.08 1045.15 490.05 1060.11 490.21 1052.49 503.08" style="fill:#89989f;"/><polygon points="1172.69 574.24 1187.65 574.4 1180.31 561.36 1172.69 574.24" style="fill:#89989f;"/></g><g><line x1="737.67" y1="552.11" x2="709.05" y2="583.52" style="fill:none; stroke:#89989f; stroke-miterlimit:10; stroke-width:2px;"/><polygon points="730.67 548.69 744.92 544.15 741.73 558.76 730.67 548.69" style="fill:#89989f;"/><polygon points="704.99 576.87 701.8 591.48 716.05 586.94 704.99 576.87" style="fill:#89989f;"/></g><circle cx="641.04" cy="634.6" r="63.39" style="fill:#003e6e;"/><g><path d="M620.68,636.09c-.11,2.47-.8,4.33-2.08,5.6-1.28,1.27-3.08,1.9-5.41,1.9-2.45,0-4.32-.8-5.62-2.41s-1.95-3.9-1.95-6.89v-3.64c0-2.97,.67-5.26,2.02-6.87,1.35-1.61,3.22-2.41,5.62-2.41s4.15,.66,5.37,1.98,1.92,3.21,2.09,5.67h-4.38c-.04-1.53-.27-2.58-.71-3.16-.43-.58-1.22-.87-2.37-.87s-2,.41-2.48,1.23c-.49,.82-.74,2.16-.77,4.03v4.09c0,2.15,.24,3.62,.72,4.43,.48,.8,1.3,1.2,2.47,1.2s1.94-.28,2.38-.84c.44-.56,.68-1.57,.74-3.04h4.37Z" style="fill:#fff;"/><path d="M627.57,643.29h-4.22v-22.82h4.22v22.82Z" style="fill:#fff;"/><path d="M630.34,634.73c0-2.44,.57-4.35,1.72-5.73s2.74-2.08,4.77-2.08,3.65,.69,4.8,2.08c1.15,1.39,1.72,3.31,1.72,5.76v1.03c0,2.45-.57,4.36-1.71,5.73-1.14,1.38-2.73,2.06-4.78,2.06s-3.66-.69-4.81-2.07-1.72-3.3-1.72-5.76v-1.02Zm4.22,1.05c0,2.87,.77,4.31,2.3,4.31,1.42,0,2.18-1.2,2.29-3.59v-1.77c.01-1.47-.19-2.55-.59-3.26-.41-.71-.98-1.06-1.72-1.06s-1.27,.35-1.67,1.06c-.4,.71-.6,1.79-.6,3.26v1.05Z" style="fill:#fff;"/><path d="M653.87,641.82c-.87,1.18-2.04,1.77-3.51,1.77s-2.6-.51-3.36-1.52c-.76-1.01-1.14-2.49-1.14-4.43v-10.41h4.2v10.52c.02,1.56,.54,2.35,1.56,2.35,.96,0,1.65-.42,2.08-1.25v-11.62h4.23v16.07h-3.95l-.12-1.47Z" style="fill:#fff;"/><path d="M660.37,634.76c0-2.63,.45-4.6,1.34-5.9,.89-1.3,2.19-1.95,3.89-1.95,1.24,0,2.27,.54,3.09,1.6v-8.05h4.23v22.82h-3.82l-.19-1.63c-.86,1.29-1.97,1.93-3.33,1.93-1.68,0-2.97-.64-3.86-1.93-.89-1.29-1.34-3.18-1.36-5.68v-1.22Zm4.22,1.05c0,1.58,.17,2.69,.51,3.32,.34,.63,.91,.94,1.71,.94s1.46-.37,1.89-1.11v-7.34c-.42-.79-1.04-1.19-1.87-1.19-.77,0-1.34,.31-1.69,.94-.36,.62-.54,1.73-.54,3.33v1.11Z" style="fill:#fff;"/></g><g><rect x="634.41" y="69.07" width="114.12" height="114.12" rx="10.14" ry="10.14" style="fill:#003e6e; stroke:#fff; stroke-miterlimit:10;"/><rect x="632.72" y="89.35" width="97.17" height="28.31" style="fill:#fff;"/><g><path d="M642.36,110.9h-1.81v-14.42h1.81v14.42Z"/><path d="M647.43,110.9h-1.81v-14.42h1.81v14.42Z"/><path d="M649.99,105.05c0-1.56,.38-2.79,1.13-3.7,.76-.91,1.75-1.36,3-1.36s2.24,.44,3,1.33c.76,.88,1.14,2.09,1.16,3.61v1.13c0,1.55-.38,2.78-1.13,3.68-.75,.9-1.76,1.36-3.01,1.36s-2.24-.44-2.99-1.32c-.75-.88-1.14-2.07-1.16-3.57v-1.17Zm1.75,1.01c0,1.1,.22,1.97,.65,2.6,.43,.63,1.02,.95,1.75,.95,1.54,0,2.34-1.12,2.39-3.35v-1.21c0-1.1-.22-1.96-.65-2.6-.44-.64-1.02-.96-1.75-.96s-1.3,.32-1.73,.96c-.43,.64-.65,1.5-.65,2.59v1.02Z"/><path d="M669.22,98.04h-3.79v12.87h-1.81v-12.87h-3.78v-1.55h9.39v1.55Z"/><path d="M679.95,105.07h-2.54v5.83h-1.82v-14.42h4.04c1.41,0,2.48,.37,3.21,1.1,.73,.74,1.09,1.81,1.09,3.23,0,.89-.2,1.67-.59,2.33-.39,.66-.95,1.16-1.67,1.5l2.79,6.13v.12h-1.95l-2.56-5.83Zm-2.54-1.55h2.2c.76,0,1.37-.24,1.82-.73,.45-.49,.68-1.14,.68-1.96,0-1.85-.84-2.78-2.52-2.78h-2.18v5.48Z"/><path d="M689.95,111.1c-1.33,0-2.36-.4-3.07-1.19-.71-.8-1.08-1.96-1.09-3.5v-1.3c0-1.6,.35-2.85,1.04-3.76,.7-.91,1.67-1.36,2.92-1.36s2.19,.4,2.81,1.2,.94,2.04,.95,3.73v1.15h-5.98v.25c0,1.15,.22,1.98,.65,2.51,.43,.52,1.06,.78,1.87,.78,.52,0,.97-.1,1.36-.29,.39-.19,.76-.5,1.1-.93l.91,1.11c-.76,1.07-1.92,1.6-3.48,1.6Zm-.2-9.61c-.73,0-1.26,.25-1.61,.75s-.55,1.27-.59,2.32h4.22v-.24c-.05-1.02-.23-1.74-.55-2.18-.32-.44-.81-.65-1.46-.65Z"/><path d="M701.13,110.9c-.11-.23-.18-.62-.23-1.17-.62,.91-1.41,1.37-2.38,1.37s-1.73-.27-2.27-.82c-.54-.54-.82-1.31-.82-2.3,0-1.09,.37-1.95,1.11-2.59,.74-.64,1.75-.97,3.04-.98h1.29v-1.14c0-.64-.14-1.1-.43-1.37-.28-.27-.72-.41-1.3-.41-.53,0-.96,.16-1.29,.47-.33,.31-.5,.71-.5,1.19h-1.75c0-.55,.16-1.07,.49-1.57,.32-.5,.76-.89,1.31-1.17,.55-.28,1.16-.43,1.83-.43,1.1,0,1.93,.27,2.5,.82,.57,.54,.86,1.34,.88,2.38v5.41c0,.83,.12,1.54,.34,2.15v.16h-1.82Zm-2.34-1.4c.43,0,.84-.12,1.23-.36s.67-.53,.85-.89v-2.56h-.99c-.83,.01-1.49,.2-1.97,.56s-.72,.86-.72,1.51c0,.61,.12,1.05,.37,1.32,.24,.27,.66,.41,1.24,.41Z"/><path d="M704.96,105.06c0-1.65,.31-2.91,.93-3.77,.62-.86,1.5-1.3,2.66-1.3,1.02,0,1.82,.42,2.4,1.25v-5.55h1.75v15.21h-1.6l-.09-1.15c-.57,.9-1.4,1.35-2.47,1.35s-1.98-.43-2.61-1.29c-.63-.86-.95-2.08-.97-3.65v-1.1Zm1.75,.99c0,1.2,.18,2.08,.53,2.65,.36,.56,.94,.85,1.74,.85,.87,0,1.52-.44,1.95-1.32v-5.4c-.45-.86-1.1-1.29-1.94-1.29s-1.39,.28-1.74,.85c-.36,.56-.54,1.43-.54,2.6v1.07Z"/><path d="M718.32,107.99l1.95-7.8h1.86l-3.51,12.23c-.26,.92-.64,1.62-1.12,2.09s-1.03,.72-1.64,.72c-.24,0-.54-.05-.91-.16v-1.49l.39,.04c.51,0,.91-.12,1.19-.36,.29-.24,.52-.66,.7-1.25l.35-1.2-3.15-10.63h1.91l1.98,7.8Z"/></g><g><path d="M679.84,151.23h-6.8v5.73h8.05v3.62h-12.42v-21.63h12.39v3.64h-8.02v5.11h6.8v3.52Z" style="fill:#fff;"/><path d="M690.15,152.68h-2.17v7.9h-4.37v-21.63h6.97c2.19,0,3.88,.57,5.07,1.7,1.19,1.13,1.79,2.75,1.79,4.84,0,2.87-1.04,4.88-3.13,6.03l3.79,8.85v.21h-4.69l-3.25-7.9Zm-2.17-3.64h2.48c.87,0,1.52-.29,1.96-.87,.44-.58,.65-1.35,.65-2.32,0-2.17-.85-3.25-2.54-3.25h-2.56v6.45Z" style="fill:#fff;"/><path d="M704.81,152.98v7.61h-4.37v-21.63h7.37c2.14,0,3.85,.66,5.12,1.99,1.27,1.33,1.91,3.05,1.91,5.17s-.63,3.79-1.89,5.02-3,1.84-5.23,1.84h-2.91Zm0-3.64h3c.83,0,1.48-.27,1.93-.82,.46-.54,.68-1.34,.68-2.38s-.23-1.94-.7-2.58c-.47-.64-1.09-.96-1.87-.97h-3.05v6.74Z" style="fill:#fff;"/></g></g><g><rect x="1200.33" y="69.07" width="114.12" height="114.12" rx="10.14" ry="10.14" style="fill:#003e6e; stroke:#fff; stroke-miterlimit:10;"/><rect x="1198.64" y="89.35" width="97.17" height="28.31" style="fill:#fff;"/><g><path d="M1208.27,110.9h-1.81v-14.42h1.81v14.42Z"/><path d="M1213.34,110.9h-1.81v-14.42h1.81v14.42Z"/><path d="M1215.91,105.05c0-1.56,.38-2.79,1.13-3.7,.76-.91,1.75-1.36,3-1.36s2.24,.44,3,1.33,1.14,2.09,1.16,3.61v1.13c0,1.55-.38,2.78-1.13,3.68s-1.76,1.36-3.01,1.36-2.24-.44-2.99-1.32c-.75-.88-1.14-2.07-1.16-3.57v-1.17Zm1.75,1.01c0,1.1,.22,1.97,.65,2.6s1.01,.95,1.75,.95c1.54,0,2.34-1.12,2.39-3.35v-1.21c0-1.1-.22-1.96-.65-2.6-.44-.64-1.02-.96-1.75-.96s-1.3,.32-1.73,.96-.65,1.5-.65,2.59v1.02Z"/><path d="M1235.13,98.04h-3.79v12.87h-1.81v-12.87h-3.78v-1.55h9.39v1.55Z"/><path d="M1245.87,105.07h-2.54v5.83h-1.82v-14.42h4.04c1.41,0,2.48,.37,3.21,1.1,.73,.74,1.09,1.81,1.09,3.23,0,.89-.2,1.67-.59,2.33s-.95,1.16-1.67,1.5l2.79,6.13v.12h-1.95l-2.56-5.83Zm-2.54-1.55h2.2c.76,0,1.37-.24,1.82-.73,.45-.49,.68-1.14,.68-1.96,0-1.85-.84-2.78-2.52-2.78h-2.18v5.48Z"/><path d="M1255.86,111.1c-1.33,0-2.36-.4-3.07-1.19-.71-.8-1.08-1.96-1.09-3.5v-1.3c0-1.6,.35-2.85,1.04-3.76s1.67-1.36,2.92-1.36,2.19,.4,2.81,1.2c.62,.8,.94,2.04,.95,3.73v1.15h-5.98v.25c0,1.15,.22,1.98,.65,2.51,.43,.52,1.05,.78,1.87,.78,.51,0,.97-.1,1.36-.29,.39-.19,.76-.5,1.1-.93l.91,1.11c-.76,1.07-1.92,1.6-3.48,1.6Zm-.2-9.61c-.73,0-1.26,.25-1.61,.75-.35,.5-.55,1.27-.59,2.32h4.22v-.24c-.05-1.02-.23-1.74-.55-2.18-.32-.44-.81-.65-1.46-.65Z"/><path d="M1267.04,110.9c-.11-.23-.18-.62-.23-1.17-.62,.91-1.41,1.37-2.38,1.37s-1.73-.27-2.27-.82c-.54-.54-.82-1.31-.82-2.3,0-1.09,.37-1.95,1.11-2.59,.74-.64,1.75-.97,3.04-.98h1.29v-1.14c0-.64-.14-1.1-.43-1.37-.28-.27-.72-.41-1.3-.41-.53,0-.96,.16-1.29,.47-.33,.31-.5,.71-.5,1.19h-1.75c0-.55,.16-1.07,.49-1.57,.32-.5,.76-.89,1.31-1.17,.55-.28,1.16-.43,1.83-.43,1.1,0,1.93,.27,2.5,.82,.57,.54,.86,1.34,.88,2.38v5.41c0,.83,.12,1.54,.34,2.15v.16h-1.82Zm-2.34-1.4c.43,0,.84-.12,1.23-.36s.67-.53,.85-.89v-2.56h-.99c-.83,.01-1.49,.2-1.97,.56-.48,.36-.72,.86-.72,1.51,0,.61,.12,1.05,.37,1.32,.25,.27,.66,.41,1.24,.41Z"/><path d="M1270.88,105.06c0-1.65,.31-2.91,.93-3.77,.62-.86,1.5-1.3,2.66-1.3,1.02,0,1.82,.42,2.4,1.25v-5.55h1.75v15.21h-1.6l-.09-1.15c-.57,.9-1.4,1.35-2.47,1.35s-1.98-.43-2.61-1.29c-.63-.86-.95-2.08-.97-3.65v-1.1Zm1.75,.99c0,1.2,.18,2.08,.53,2.65,.36,.56,.94,.85,1.74,.85,.87,0,1.52-.44,1.95-1.32v-5.4c-.45-.86-1.1-1.29-1.94-1.29s-1.39,.28-1.74,.85c-.36,.56-.54,1.43-.54,2.6v1.07Z"/><path d="M1284.24,107.99l1.95-7.8h1.86l-3.51,12.23c-.26,.92-.64,1.62-1.12,2.09-.48,.48-1.03,.72-1.64,.72-.24,0-.54-.05-.91-.16v-1.49l.39,.04c.51,0,.91-.12,1.19-.36,.29-.24,.52-.66,.7-1.25l.35-1.2-3.15-10.63h1.91l1.98,7.8Z"/></g><g><path d="M1224.77,154.91c0-.88-.23-1.55-.68-2-.45-.45-1.27-.92-2.46-1.4-2.17-.82-3.73-1.78-4.68-2.89-.95-1.1-1.43-2.41-1.43-3.91,0-1.82,.65-3.29,1.94-4.39,1.29-1.1,2.93-1.66,4.92-1.66,1.33,0,2.51,.28,3.55,.84s1.84,1.35,2.4,2.37,.84,2.18,.84,3.48h-4.35c0-1.01-.21-1.78-.65-2.31-.43-.53-1.05-.79-1.87-.79-.76,0-1.36,.23-1.78,.68s-.64,1.06-.64,1.82c0,.59,.24,1.13,.71,1.61s1.32,.98,2.53,1.49c2.11,.76,3.64,1.7,4.6,2.81,.96,1.11,1.43,2.52,1.43,4.23,0,1.88-.6,3.35-1.8,4.41-1.2,1.06-2.83,1.59-4.89,1.59-1.4,0-2.67-.29-3.82-.86-1.15-.57-2.05-1.4-2.7-2.47-.65-1.07-.97-2.33-.97-3.79h4.38c0,1.25,.24,2.15,.73,2.72s1.28,.85,2.38,.85c1.52,0,2.29-.81,2.29-2.42Z" style="fill:#fff;"/><path d="M1246.72,153.38c-.11,2.47-.8,4.33-2.08,5.6-1.28,1.27-3.08,1.9-5.41,1.9-2.45,0-4.32-.8-5.62-2.41-1.3-1.61-1.95-3.9-1.95-6.89v-3.64c0-2.97,.67-5.26,2.02-6.87s3.22-2.41,5.62-2.41,4.15,.66,5.37,1.98c1.22,1.32,1.92,3.21,2.09,5.68h-4.38c-.04-1.53-.27-2.58-.71-3.16-.43-.58-1.22-.87-2.37-.87s-2,.41-2.48,1.23c-.49,.82-.74,2.16-.77,4.03v4.09c0,2.15,.24,3.62,.72,4.43,.48,.8,1.3,1.2,2.47,1.2s1.94-.28,2.38-.84c.44-.56,.68-1.57,.74-3.04h4.37Z" style="fill:#fff;"/><path d="M1259.74,156.16h-5.96l-1.16,4.43h-4.62l6.76-21.63h4l6.8,21.63h-4.67l-1.16-4.43Zm-5.01-3.64h4.04l-2.02-7.71-2.02,7.71Z" style="fill:#fff;"/><path d="M1267.58,160.58v-21.63h5.72c2.53,0,4.54,.8,6.04,2.41,1.5,1.6,2.26,3.8,2.29,6.6v3.51c0,2.84-.75,5.07-2.25,6.69-1.5,1.62-3.57,2.43-6.2,2.43h-5.6Zm4.37-17.99v14.37h1.31c1.46,0,2.48-.38,3.08-1.15,.59-.77,.91-2.09,.94-3.97v-3.76c0-2.02-.28-3.43-.85-4.23-.56-.8-1.53-1.22-2.88-1.26h-1.59Z" style="fill:#fff;"/><path d="M1294.78,156.16h-5.96l-1.16,4.43h-4.62l6.76-21.63h4l6.8,21.63h-4.67l-1.16-4.43Zm-5.01-3.64h4.04l-2.02-7.71-2.02,7.71Z" style="fill:#fff;"/></g></g><g><rect x="1201.18" y="571.19" width="114.12" height="114.12" rx="10.14" ry="10.14" style="fill:#003e6e; stroke:#fff; stroke-miterlimit:10;"/><rect x="1199.49" y="591.48" width="97.17" height="28.31" style="fill:#fff;"/><g><path d="M1209.12,613.03h-1.81v-14.42h1.81v14.42Z"/><path d="M1214.19,613.03h-1.81v-14.42h1.81v14.42Z"/><path d="M1216.76,607.17c0-1.56,.38-2.79,1.13-3.7,.76-.91,1.75-1.36,3-1.36s2.24,.44,3,1.33,1.14,2.09,1.16,3.62v1.13c0,1.55-.38,2.78-1.13,3.68-.75,.91-1.76,1.36-3.01,1.36s-2.24-.44-2.99-1.32-1.14-2.07-1.16-3.57v-1.17Zm1.75,1.01c0,1.1,.22,1.97,.65,2.6s1.01,.95,1.75,.95c1.54,0,2.34-1.12,2.39-3.35v-1.21c0-1.1-.22-1.96-.65-2.6-.44-.64-1.02-.96-1.75-.96s-1.3,.32-1.73,.96c-.43,.64-.65,1.5-.65,2.59v1.02Z"/><path d="M1235.98,600.16h-3.79v12.87h-1.81v-12.87h-3.78v-1.55h9.39v1.55Z"/><path d="M1246.72,607.19h-2.54v5.83h-1.82v-14.42h4.04c1.41,0,2.48,.37,3.21,1.1s1.09,1.81,1.09,3.23c0,.89-.2,1.67-.59,2.33-.39,.66-.95,1.16-1.67,1.5l2.79,6.13v.12h-1.95l-2.56-5.83Zm-2.54-1.56h2.2c.76,0,1.37-.24,1.82-.73,.45-.49,.68-1.14,.68-1.96,0-1.85-.84-2.78-2.52-2.78h-2.18v5.48Z"/><path d="M1256.71,613.23c-1.33,0-2.36-.4-3.07-1.19-.71-.8-1.08-1.96-1.09-3.5v-1.3c0-1.6,.35-2.85,1.04-3.76,.7-.91,1.67-1.36,2.92-1.36s2.19,.4,2.81,1.2c.62,.8,.94,2.04,.95,3.73v1.15h-5.98v.25c0,1.15,.22,1.98,.65,2.51s1.05,.78,1.87,.78c.51,0,.97-.1,1.36-.29,.39-.19,.76-.5,1.1-.93l.91,1.11c-.76,1.07-1.92,1.6-3.48,1.6Zm-.2-9.61c-.73,0-1.26,.25-1.61,.75-.35,.5-.55,1.27-.59,2.32h4.22v-.24c-.05-1.02-.23-1.74-.55-2.18-.32-.44-.81-.65-1.46-.65Z"/><path d="M1267.89,613.03c-.11-.23-.18-.62-.23-1.17-.62,.91-1.41,1.37-2.38,1.37s-1.73-.27-2.27-.82-.82-1.31-.82-2.3c0-1.09,.37-1.95,1.11-2.59s1.75-.97,3.04-.98h1.29v-1.14c0-.64-.14-1.1-.43-1.37-.28-.27-.72-.41-1.3-.41-.53,0-.96,.16-1.29,.47s-.5,.71-.5,1.19h-1.75c0-.55,.16-1.07,.49-1.57,.32-.5,.76-.89,1.31-1.17s1.16-.43,1.83-.43c1.1,0,1.93,.27,2.5,.82,.57,.54,.86,1.34,.88,2.38v5.41c0,.83,.12,1.54,.34,2.15v.16h-1.82Zm-2.34-1.4c.43,0,.84-.12,1.23-.36s.67-.54,.85-.89v-2.55h-.99c-.83,.01-1.49,.2-1.97,.56-.48,.36-.72,.86-.72,1.51,0,.61,.12,1.05,.37,1.32,.25,.27,.66,.41,1.24,.41Z"/><path d="M1271.72,607.18c0-1.65,.31-2.91,.93-3.77,.62-.86,1.5-1.3,2.66-1.3,1.02,0,1.82,.42,2.4,1.25v-5.55h1.75v15.21h-1.6l-.09-1.15c-.57,.9-1.4,1.35-2.47,1.35s-1.98-.43-2.61-1.29c-.63-.86-.95-2.08-.97-3.65v-1.1Zm1.75,1c0,1.2,.18,2.08,.53,2.65,.36,.56,.94,.85,1.74,.85,.87,0,1.52-.44,1.95-1.32v-5.4c-.45-.86-1.1-1.29-1.94-1.29s-1.39,.28-1.74,.85c-.36,.56-.54,1.43-.54,2.6v1.07Z"/><path d="M1285.08,610.12l1.95-7.8h1.86l-3.51,12.23c-.26,.92-.64,1.62-1.12,2.09-.48,.48-1.03,.72-1.64,.72-.24,0-.54-.05-.91-.16v-1.49l.39,.04c.51,0,.91-.12,1.19-.36s.52-.66,.7-1.25l.35-1.2-3.15-10.63h1.91l1.98,7.8Z"/></g><g><path d="M1238.46,641.08l4.09,15.64,4.07-15.64h5.71v21.63h-4.38v-5.85l.4-9.02-4.32,14.87h-2.97l-4.32-14.87,.4,9.02v5.85h-4.37v-21.63h5.7Z" style="fill:#fff;"/><path d="M1267,653.35h-6.8v5.73h8.05v3.62h-12.42v-21.63h12.39v3.64h-8.02v5.11h6.8v3.52Z" style="fill:#fff;"/><path d="M1279.9,657.04c0-.88-.23-1.55-.68-2-.45-.45-1.27-.92-2.46-1.4-2.17-.82-3.73-1.79-4.68-2.89-.95-1.1-1.43-2.41-1.43-3.91,0-1.82,.65-3.29,1.94-4.39,1.29-1.1,2.93-1.66,4.92-1.66,1.33,0,2.51,.28,3.55,.84s1.84,1.35,2.4,2.37c.56,1.02,.84,2.18,.84,3.48h-4.35c0-1.01-.21-1.78-.65-2.31-.43-.53-1.05-.79-1.87-.79-.76,0-1.36,.22-1.78,.68-.43,.45-.64,1.06-.64,1.82,0,.59,.24,1.13,.71,1.61s1.32,.98,2.53,1.49c2.11,.76,3.64,1.7,4.6,2.81,.96,1.11,1.43,2.52,1.43,4.23,0,1.88-.6,3.35-1.8,4.41-1.2,1.06-2.83,1.59-4.89,1.59-1.4,0-2.67-.29-3.82-.86-1.15-.57-2.05-1.4-2.7-2.47-.65-1.07-.97-2.33-.97-3.79h4.38c0,1.25,.24,2.15,.73,2.72s1.28,.85,2.38,.85c1.52,0,2.29-.81,2.29-2.42Z" style="fill:#fff;"/></g></g><g><rect x="461.43" y="327.22" width="114.12" height="114.12" rx="10.14" ry="10.14" style="fill:#003e6e; stroke:#fff; stroke-miterlimit:10;"/><rect x="459.74" y="347.51" width="97.17" height="28.31" style="fill:#fff;"/><g><path d="M469.38,369.06h-1.81v-14.42h1.81v14.42Z"/><path d="M474.45,369.06h-1.81v-14.42h1.81v14.42Z"/><path d="M477.01,363.2c0-1.56,.38-2.79,1.13-3.7,.76-.91,1.75-1.36,3-1.36s2.24,.44,3,1.33c.76,.88,1.14,2.09,1.16,3.62v1.13c0,1.55-.38,2.78-1.13,3.68-.75,.91-1.76,1.36-3.01,1.36s-2.24-.44-2.99-1.32-1.14-2.07-1.16-3.57v-1.17Zm1.75,1.01c0,1.1,.22,1.97,.65,2.6,.43,.63,1.02,.95,1.75,.95,1.54,0,2.34-1.12,2.39-3.35v-1.21c0-1.1-.22-1.96-.65-2.6-.44-.64-1.02-.96-1.75-.96s-1.3,.32-1.73,.96c-.43,.64-.65,1.5-.65,2.59v1.02Z"/><path d="M496.24,356.19h-3.79v12.87h-1.81v-12.87h-3.78v-1.55h9.39v1.55Z"/><path d="M506.97,363.22h-2.54v5.83h-1.82v-14.42h4.04c1.41,0,2.48,.37,3.21,1.1,.73,.74,1.09,1.81,1.09,3.23,0,.89-.2,1.67-.59,2.33-.39,.66-.95,1.16-1.67,1.5l2.79,6.13v.12h-1.95l-2.56-5.83Zm-2.54-1.56h2.2c.76,0,1.37-.24,1.82-.73,.45-.49,.68-1.14,.68-1.96,0-1.85-.84-2.78-2.52-2.78h-2.18v5.48Z"/><path d="M516.97,369.26c-1.33,0-2.36-.4-3.07-1.19-.71-.8-1.08-1.96-1.09-3.5v-1.3c0-1.6,.35-2.85,1.04-3.76,.7-.91,1.67-1.36,2.92-1.36s2.19,.4,2.81,1.2,.94,2.04,.95,3.73v1.15h-5.98v.25c0,1.15,.22,1.98,.65,2.51,.43,.52,1.06,.78,1.87,.78,.52,0,.97-.1,1.36-.29,.39-.19,.76-.5,1.1-.93l.91,1.11c-.76,1.07-1.92,1.6-3.48,1.6Zm-.2-9.61c-.73,0-1.26,.25-1.61,.75s-.55,1.27-.59,2.32h4.22v-.24c-.05-1.02-.23-1.74-.55-2.18-.32-.44-.81-.65-1.46-.65Z"/><path d="M528.15,369.06c-.11-.23-.18-.62-.23-1.17-.62,.91-1.41,1.37-2.38,1.37s-1.73-.27-2.27-.82c-.54-.54-.82-1.31-.82-2.3,0-1.09,.37-1.95,1.11-2.59,.74-.64,1.75-.97,3.04-.98h1.29v-1.14c0-.64-.14-1.1-.43-1.37-.28-.27-.72-.41-1.3-.41-.53,0-.96,.16-1.29,.47-.33,.31-.5,.71-.5,1.19h-1.75c0-.55,.16-1.07,.49-1.57,.32-.5,.76-.89,1.31-1.17,.55-.28,1.16-.43,1.83-.43,1.1,0,1.93,.27,2.5,.82,.57,.54,.86,1.34,.88,2.38v5.41c0,.83,.12,1.54,.34,2.15v.16h-1.82Zm-2.34-1.4c.43,0,.84-.12,1.23-.36s.67-.54,.85-.89v-2.55h-.99c-.83,.01-1.49,.2-1.97,.56-.48,.36-.72,.86-.72,1.51,0,.61,.12,1.05,.37,1.32,.24,.27,.66,.41,1.24,.41Z"/><path d="M531.98,363.21c0-1.65,.31-2.91,.93-3.77,.62-.86,1.5-1.3,2.66-1.3,1.02,0,1.82,.42,2.4,1.25v-5.55h1.75v15.21h-1.6l-.09-1.15c-.57,.9-1.4,1.35-2.47,1.35s-1.98-.43-2.61-1.29c-.63-.86-.95-2.08-.97-3.65v-1.1Zm1.75,1c0,1.2,.18,2.08,.53,2.65,.36,.56,.94,.85,1.74,.85,.87,0,1.52-.44,1.95-1.32v-5.4c-.45-.86-1.1-1.29-1.94-1.29s-1.39,.28-1.74,.85c-.36,.56-.54,1.43-.54,2.6v1.07Z"/><path d="M545.34,366.14l1.95-7.8h1.86l-3.51,12.23c-.26,.92-.64,1.62-1.12,2.09-.48,.48-1.03,.72-1.64,.72-.24,0-.54-.05-.91-.16v-1.49l.39,.04c.51,0,.91-.12,1.19-.36s.52-.66,.7-1.25l.35-1.2-3.15-10.63h1.91l1.98,7.8Z"/></g><g><path d="M479.51,418.74v-21.63h5.72c2.53,0,4.54,.8,6.04,2.41s2.27,3.8,2.3,6.6v3.51c0,2.84-.75,5.07-2.25,6.69s-3.57,2.43-6.2,2.43h-5.6Zm4.37-17.99v14.37h1.31c1.46,0,2.48-.38,3.08-1.15s.91-2.09,.94-3.97v-3.76c0-2.02-.28-3.43-.85-4.23-.56-.8-1.53-1.22-2.88-1.25h-1.59Z" style="fill:#fff;"/><path d="M502.98,419.04c-2.16,0-3.84-.64-5.05-1.93-1.21-1.29-1.81-3.13-1.81-5.53v-1.28c0-2.54,.55-4.49,1.66-5.87,1.11-1.38,2.7-2.06,4.77-2.06s3.54,.65,4.56,1.94c1.02,1.29,1.54,3.2,1.56,5.73v2.06h-8.36c.06,1.19,.32,2.07,.79,2.62,.47,.55,1.18,.83,2.15,.83,1.41,0,2.58-.48,3.52-1.44l1.65,2.54c-.52,.71-1.26,1.29-2.24,1.73s-2.05,.66-3.19,.66Zm-2.64-9.86h4.2v-.39c-.02-.96-.18-1.69-.48-2.18-.3-.5-.81-.74-1.54-.74s-1.27,.26-1.6,.79c-.33,.53-.53,1.37-.59,2.53Z" style="fill:#fff;"/><path d="M516.13,412.8l2.04-10.13h4.38l-4.41,16.07h-4.01l-4.43-16.07h4.4l2.04,10.13Z" style="fill:#fff;"/><path d="M524.52,398.51c0-.65,.21-1.19,.62-1.6s.97-.62,1.66-.62,1.25,.21,1.66,.62,.62,.95,.62,1.6-.21,1.18-.62,1.6c-.41,.43-.97,.64-1.67,.64s-1.26-.21-1.67-.64-.62-.96-.62-1.6Zm4.41,20.23h-4.22v-16.07h4.22v16.07Z" style="fill:#fff;"/><path d="M538,415.55c1.22,0,1.84-.79,1.86-2.38h3.95c-.02,1.75-.56,3.17-1.62,4.25-1.06,1.08-2.43,1.62-4.1,1.62-2.07,0-3.65-.64-4.74-1.93-1.09-1.29-1.64-3.18-1.66-5.69v-1.28c0-2.53,.54-4.45,1.61-5.78s2.66-1.99,4.76-1.99c1.77,0,3.17,.55,4.19,1.64s1.54,2.65,1.56,4.66h-3.95c0-.9-.16-1.59-.45-2.08s-.76-.73-1.43-.73c-.73,0-1.26,.26-1.57,.78-.32,.52-.49,1.53-.5,3.02v1.63c0,1.31,.06,2.22,.19,2.74,.13,.52,.34,.9,.64,1.14,.3,.24,.72,.36,1.26,.36Z" style="fill:#fff;"/><path d="M552.68,419.04c-2.16,0-3.84-.64-5.05-1.93-1.21-1.29-1.81-3.13-1.81-5.53v-1.28c0-2.54,.55-4.49,1.66-5.87,1.11-1.38,2.7-2.06,4.77-2.06s3.54,.65,4.56,1.94c1.02,1.29,1.54,3.2,1.56,5.73v2.06h-8.36c.06,1.19,.32,2.07,.79,2.62,.47,.55,1.18,.83,2.15,.83,1.41,0,2.58-.48,3.52-1.44l1.65,2.54c-.52,.71-1.26,1.29-2.24,1.73s-2.05,.66-3.19,.66Zm-2.64-9.86h4.2v-.39c-.02-.96-.18-1.69-.48-2.18-.3-.5-.81-.74-1.54-.74s-1.27,.26-1.6,.79c-.33,.53-.53,1.37-.59,2.53Z" style="fill:#fff;"/></g></g><g><rect x="88.46" y="241.23" width="174.25" height="114.12" rx="13.69" ry="13.69" style="fill:#f60; stroke:#fff; stroke-miterlimit:10;"/><rect x="86.77" y="261.51" width="153.87" height="28.31" style="fill:#fff;"/><g><path d="M110.69,283.06h-1.82l-5.77-11.11v11.11h-1.82v-14.42h1.82l5.79,11.16v-11.16h1.8v14.42Z"/><path d="M113.21,277.21c0-1.56,.38-2.79,1.13-3.7,.76-.91,1.75-1.36,3-1.36s2.24,.44,3,1.33c.76,.88,1.14,2.09,1.16,3.61v1.13c0,1.55-.38,2.78-1.13,3.68-.75,.9-1.76,1.36-3.01,1.36s-2.24-.44-2.99-1.32c-.75-.88-1.14-2.07-1.16-3.57v-1.17Zm1.75,1.01c0,1.1,.22,1.97,.65,2.6,.43,.63,1.02,.95,1.75,.95,1.54,0,2.34-1.12,2.39-3.35v-1.21c0-1.1-.22-1.96-.65-2.6-.44-.64-1.02-.96-1.75-.96s-1.3,.32-1.73,.96c-.43,.64-.65,1.5-.65,2.59v1.02Z"/><path d="M125.41,272.35l.05,1.16c.68-.9,1.55-1.36,2.6-1.36,1.89,0,2.86,1.26,2.88,3.79v7.12h-1.74v-7.04c0-.84-.14-1.43-.42-1.79-.28-.35-.7-.53-1.26-.53-.44,0-.83,.15-1.17,.44-.35,.29-.63,.67-.84,1.14v7.78h-1.75v-10.72h1.65Z"/><path d="M140.36,283.06h-1.81v-14.42h1.81v14.42Z"/><path d="M145.43,283.06h-1.81v-14.42h1.81v14.42Z"/><path d="M147.99,277.21c0-1.56,.38-2.79,1.13-3.7,.76-.91,1.75-1.36,3-1.36s2.24,.44,3,1.33c.76,.88,1.14,2.09,1.16,3.61v1.13c0,1.55-.38,2.78-1.13,3.68-.75,.9-1.76,1.36-3.01,1.36s-2.24-.44-2.99-1.32c-.75-.88-1.14-2.07-1.16-3.57v-1.17Zm1.75,1.01c0,1.1,.22,1.97,.65,2.6,.43,.63,1.02,.95,1.75,.95,1.54,0,2.34-1.12,2.39-3.35v-1.21c0-1.1-.22-1.96-.65-2.6-.44-.64-1.02-.96-1.75-.96s-1.3,.32-1.73,.96c-.43,.64-.65,1.5-.65,2.59v1.02Z"/><path d="M167.22,270.2h-3.79v12.87h-1.81v-12.87h-3.78v-1.55h9.39v1.55Z"/><path d="M177.95,277.23h-2.54v5.83h-1.82v-14.42h4.04c1.41,0,2.48,.37,3.21,1.1,.73,.74,1.09,1.81,1.09,3.23,0,.89-.2,1.67-.59,2.33-.39,.66-.95,1.16-1.67,1.5l2.79,6.13v.12h-1.95l-2.56-5.83Zm-2.54-1.55h2.2c.76,0,1.37-.24,1.82-.73,.45-.49,.68-1.14,.68-1.96,0-1.85-.84-2.78-2.52-2.78h-2.18v5.48Z"/><path d="M187.95,283.26c-1.33,0-2.36-.4-3.07-1.19-.71-.8-1.08-1.96-1.09-3.5v-1.3c0-1.6,.35-2.85,1.04-3.76,.7-.91,1.67-1.36,2.92-1.36s2.19,.4,2.81,1.2,.94,2.04,.95,3.73v1.15h-5.98v.25c0,1.15,.22,1.98,.65,2.51,.43,.52,1.06,.78,1.87,.78,.52,0,.97-.1,1.36-.29,.39-.19,.76-.5,1.1-.93l.91,1.11c-.76,1.07-1.92,1.6-3.48,1.6Zm-.2-9.61c-.73,0-1.26,.25-1.61,.75s-.55,1.27-.59,2.32h4.22v-.24c-.05-1.02-.23-1.74-.55-2.18-.32-.44-.81-.65-1.46-.65Z"/><path d="M199.13,283.06c-.11-.23-.18-.62-.23-1.17-.62,.91-1.41,1.37-2.38,1.37s-1.73-.27-2.27-.82c-.54-.54-.82-1.31-.82-2.3,0-1.09,.37-1.95,1.11-2.59,.74-.64,1.75-.97,3.04-.98h1.29v-1.14c0-.64-.14-1.1-.43-1.37-.28-.27-.72-.41-1.3-.41-.53,0-.96,.16-1.29,.47-.33,.31-.5,.71-.5,1.19h-1.75c0-.55,.16-1.07,.49-1.57,.32-.5,.76-.89,1.31-1.17,.55-.28,1.16-.43,1.83-.43,1.1,0,1.93,.27,2.5,.82,.57,.54,.86,1.34,.88,2.38v5.41c0,.83,.12,1.54,.34,2.15v.16h-1.82Zm-2.34-1.4c.43,0,.84-.12,1.23-.36s.67-.53,.85-.89v-2.56h-.99c-.83,.01-1.49,.2-1.97,.56s-.72,.86-.72,1.51c0,.61,.12,1.05,.37,1.32,.24,.27,.66,.41,1.24,.41Z"/><path d="M202.96,277.22c0-1.65,.31-2.91,.93-3.77,.62-.86,1.5-1.3,2.66-1.3,1.02,0,1.82,.42,2.4,1.25v-5.55h1.75v15.21h-1.6l-.09-1.15c-.57,.9-1.4,1.35-2.47,1.35s-1.98-.43-2.61-1.29c-.63-.86-.95-2.08-.97-3.65v-1.1Zm1.75,.99c0,1.2,.18,2.08,.53,2.65,.36,.56,.94,.85,1.74,.85,.87,0,1.52-.44,1.95-1.32v-5.4c-.45-.86-1.1-1.29-1.94-1.29s-1.39,.28-1.74,.85c-.36,.56-.54,1.43-.54,2.6v1.07Z"/><path d="M216.32,280.15l1.95-7.8h1.86l-3.51,12.23c-.26,.92-.64,1.62-1.12,2.09s-1.03,.72-1.64,.72c-.24,0-.54-.05-.91-.16v-1.49l.39,.04c.51,0,.91-.12,1.19-.36,.29-.24,.52-.66,.7-1.25l.35-1.2-3.15-10.63h1.91l1.98,7.8Z"/></g></g><g><rect x="88.46" y="405.19" width="174.25" height="114.12" rx="13.69" ry="13.69" style="fill:#f60; stroke:#fff; stroke-miterlimit:10;"/><rect x="86.77" y="425.47" width="153.87" height="28.31" style="fill:#fff;"/><g><path d="M110.69,447.02h-1.82l-5.77-11.11v11.11h-1.82v-14.42h1.82l5.79,11.16v-11.16h1.8v14.42Z"/><path d="M113.21,441.17c0-1.56,.38-2.79,1.13-3.7,.76-.91,1.75-1.36,3-1.36s2.24,.44,3,1.33c.76,.88,1.14,2.09,1.16,3.62v1.13c0,1.55-.38,2.78-1.13,3.68-.75,.91-1.76,1.36-3.01,1.36s-2.24-.44-2.99-1.32-1.14-2.07-1.16-3.57v-1.17Zm1.75,1.01c0,1.1,.22,1.97,.65,2.6,.43,.63,1.02,.95,1.75,.95,1.54,0,2.34-1.12,2.39-3.35v-1.21c0-1.1-.22-1.96-.65-2.6-.44-.64-1.02-.96-1.75-.96s-1.3,.32-1.73,.96c-.43,.64-.65,1.5-.65,2.59v1.02Z"/><path d="M125.41,436.3l.05,1.16c.68-.9,1.55-1.36,2.6-1.36,1.89,0,2.86,1.26,2.88,3.79v7.12h-1.74v-7.04c0-.84-.14-1.43-.42-1.79s-.7-.53-1.26-.53c-.44,0-.83,.15-1.17,.44-.35,.29-.63,.67-.84,1.14v7.78h-1.75v-10.72h1.65Z"/><path d="M140.36,447.02h-1.81v-14.42h1.81v14.42Z"/><path d="M145.43,447.02h-1.81v-14.42h1.81v14.42Z"/><path d="M147.99,441.17c0-1.56,.38-2.79,1.13-3.7,.76-.91,1.75-1.36,3-1.36s2.24,.44,3,1.33c.76,.88,1.14,2.09,1.16,3.62v1.13c0,1.55-.38,2.78-1.13,3.68-.75,.91-1.76,1.36-3.01,1.36s-2.24-.44-2.99-1.32-1.14-2.07-1.16-3.57v-1.17Zm1.75,1.01c0,1.1,.22,1.97,.65,2.6,.43,.63,1.02,.95,1.75,.95,1.54,0,2.34-1.12,2.39-3.35v-1.21c0-1.1-.22-1.96-.65-2.6-.44-.64-1.02-.96-1.75-.96s-1.3,.32-1.73,.96c-.43,.64-.65,1.5-.65,2.59v1.02Z"/><path d="M167.22,434.15h-3.79v12.87h-1.81v-12.87h-3.78v-1.55h9.39v1.55Z"/><path d="M177.95,441.19h-2.54v5.83h-1.82v-14.42h4.04c1.41,0,2.48,.37,3.21,1.1,.73,.74,1.09,1.81,1.09,3.23,0,.89-.2,1.67-.59,2.33-.39,.66-.95,1.16-1.67,1.5l2.79,6.13v.12h-1.95l-2.56-5.83Zm-2.54-1.56h2.2c.76,0,1.37-.24,1.82-.73,.45-.49,.68-1.14,.68-1.96,0-1.85-.84-2.78-2.52-2.78h-2.18v5.48Z"/><path d="M187.95,447.22c-1.33,0-2.36-.4-3.07-1.19-.71-.8-1.08-1.96-1.09-3.5v-1.3c0-1.6,.35-2.85,1.04-3.76,.7-.91,1.67-1.36,2.92-1.36s2.19,.4,2.81,1.2,.94,2.04,.95,3.73v1.15h-5.98v.25c0,1.15,.22,1.98,.65,2.51,.43,.52,1.06,.78,1.87,.78,.52,0,.97-.1,1.36-.29,.39-.19,.76-.5,1.1-.93l.91,1.11c-.76,1.07-1.92,1.6-3.48,1.6Zm-.2-9.61c-.73,0-1.26,.25-1.61,.75-.35,.5-.55,1.27-.59,2.32h4.22v-.24c-.05-1.02-.23-1.74-.55-2.18s-.81-.65-1.46-.65Z"/><path d="M199.13,447.02c-.11-.23-.18-.62-.23-1.17-.62,.91-1.41,1.37-2.38,1.37s-1.73-.27-2.27-.82c-.54-.54-.82-1.31-.82-2.3,0-1.09,.37-1.95,1.11-2.59,.74-.64,1.75-.97,3.04-.98h1.29v-1.14c0-.64-.14-1.1-.43-1.37-.28-.27-.72-.41-1.3-.41-.53,0-.96,.16-1.29,.47-.33,.31-.5,.71-.5,1.19h-1.75c0-.55,.16-1.07,.49-1.57,.32-.5,.76-.89,1.31-1.17,.55-.28,1.16-.43,1.83-.43,1.1,0,1.93,.27,2.5,.82,.57,.54,.86,1.34,.88,2.38v5.41c0,.83,.12,1.54,.34,2.15v.16h-1.82Zm-2.34-1.4c.43,0,.84-.12,1.23-.36s.67-.54,.85-.89v-2.55h-.99c-.83,.01-1.49,.2-1.97,.56-.48,.36-.72,.86-.72,1.51,0,.61,.12,1.05,.37,1.32,.24,.27,.66,.41,1.24,.41Z"/><path d="M202.96,441.17c0-1.65,.31-2.91,.93-3.77,.62-.86,1.5-1.3,2.66-1.3,1.02,0,1.82,.42,2.4,1.25v-5.55h1.75v15.21h-1.6l-.09-1.15c-.57,.9-1.4,1.35-2.47,1.35s-1.98-.43-2.61-1.29c-.63-.86-.95-2.08-.97-3.65v-1.1Zm1.75,1c0,1.2,.18,2.08,.53,2.65,.36,.56,.94,.85,1.74,.85,.87,0,1.52-.44,1.95-1.32v-5.4c-.45-.86-1.1-1.29-1.94-1.29s-1.39,.28-1.74,.85c-.36,.56-.54,1.43-.54,2.6v1.07Z"/><path d="M216.32,444.11l1.95-7.8h1.86l-3.51,12.23c-.26,.92-.64,1.62-1.12,2.09-.48,.48-1.03,.72-1.64,.72-.24,0-.54-.05-.91-.16v-1.49l.39,.04c.51,0,.91-.12,1.19-.36s.52-.66,.7-1.25l.35-1.2-3.15-10.63h1.91l1.98,7.8Z"/></g></g><g><polyline points="284.42 299.07 424.65 299.07 447.25 322.81" style="fill:none; stroke:#f60; stroke-miterlimit:10; stroke-width:2px;"/><polygon points="286.61 306.55 273.65 299.07 286.61 291.59 286.61 306.55" style="fill:#f60;"/><polygon points="440.32 326.38 454.67 330.6 451.16 316.07 440.32 326.38" style="fill:#f60;"/></g><g><polyline points="284.42 460.75 424.65 460.75 447.25 437.01" style="fill:none; stroke:#f60; stroke-miterlimit:10; stroke-width:2px;"/><polygon points="286.61 468.23 273.65 460.75 286.61 453.28 286.61 468.23" style="fill:#f60;"/><polygon points="451.16 443.76 454.67 429.22 440.32 433.44 451.16 443.76" style="fill:#f60;"/></g></svg>