<?xml version="1.0" encoding="UTF-8"?><svg id="Ebene_2" xmlns="http://www.w3.org/2000/svg" viewBox="0 0 500 375"><rect x="14.16" y="12.5" width="471.68" height="350.01" rx="9.63" ry="9.63" style="fill:#b6cee0; stroke:#000; stroke-miterlimit:10;"/><rect x="40.75" y="58.37" width="190" height="40" style="fill:#b0b574; stroke:#000; stroke-miterlimit:10;"/><g><polyline points="136.97 98.37 136.97 241.79 155.04 241.79" style="fill:none; stroke:#000; stroke-miterlimit:10;"/><polygon points="153.58 246.78 162.22 241.79 153.58 236.81 153.58 246.78"/></g><g><polyline points="246.97 153.56 246.97 190.79 265.04 190.79" style="fill:none; stroke:#000; stroke-miterlimit:10;"/><polygon points="263.58 195.78 272.22 190.79 263.58 185.81 263.58 195.78"/></g><g><polyline points="246.97 255.56 246.97 292.79 265.04 292.79" style="fill:none; stroke:#000; stroke-miterlimit:10;"/><polygon points="263.58 297.78 272.22 292.79 263.58 287.81 263.58 297.78"/></g><g><line x1="137.29" y1="139.44" x2="157.34" y2="139.44" style="fill:none; stroke:#000; stroke-miterlimit:10;"/><polygon points="155.88 144.43 164.51 139.44 155.88 134.45 155.88 144.43"/></g><text transform="translate(112.41 85.28)" style="font-family:RobotoCondensed-Bold, &apos;Roboto Condensed&apos;; font-size:24px;"><tspan x="0" y="0">A</tspan><tspan x="14.33" y="0" style="letter-spacing:0em;">r</tspan><tspan x="22.07" y="0">ea</tspan></text><g><rect x="167.75" y="123.37" width="160" height="30" style="fill:#ebe3cb; stroke:#000; stroke-miterlimit:10;"/><text transform="translate(223.77 145.28)" style="font-family:RobotoCondensed-Regular, &apos;Roboto Condensed&apos;; font-size:20px;"><tspan x="0" y="0">Line 1</tspan></text></g><g><rect x="277.75" y="175.18" width="160" height="30" style="fill:#ebe3cb; stroke:#000; stroke-miterlimit:10;"/><text transform="translate(335.59 196.48)" style="font-family:RobotoCondensed-Regular, &apos;Roboto Condensed&apos;; font-size:20px;"><tspan x="0" y="0">Cell 1</tspan></text></g><g><rect x="166.75" y="226.99" width="160" height="30" style="fill:#89989f; stroke:#000; stroke-miterlimit:10;"/><text transform="translate(222.96 248.2)" style="fill:#fff; font-family:RobotoCondensed-Regular, &apos;Roboto Condensed&apos;; font-size:20px;"><tspan x="0" y="0">Line 2</tspan></text></g><g><rect x="276.75" y="278.8" width="160" height="30" style="fill:#89989f; stroke:#000; stroke-miterlimit:10;"/><text transform="translate(334.4 301.28)" style="fill:#fff; font-family:RobotoCondensed-Regular, &apos;Roboto Condensed&apos;; font-size:20px;"><tspan x="0" y="0">Cell 2</tspan></text></g></svg>