<?xml version="1.0" encoding="UTF-8"?><svg id="Ebene_2" xmlns="http://www.w3.org/2000/svg" viewBox="0 0 1440 700"><rect x="620.32" y="58.87" width="529.65" height="572.53" rx="13.05" ry="13.05" style="fill:#d3d4e3; stroke:#000; stroke-miterlimit:10;"/><rect x="666.91" y="150.11" width="190" height="40" style="fill:#ebe3cb; stroke:#000; stroke-miterlimit:10;"/><g><line x1="733.13" y1="190.11" x2="733.13" y2="556.62" style="fill:none; stroke:#000; stroke-miterlimit:10;"/><polygon points="728.15 555.16 733.13 563.79 738.12 555.16 728.15 555.16"/></g><g><line x1="733.45" y1="231.18" x2="753.5" y2="231.18" style="fill:none; stroke:#000; stroke-miterlimit:10;"/><polygon points="752.04 236.16 760.67 231.18 752.04 226.19 752.04 236.16"/></g><g><line x1="813.13" y1="244.41" x2="813.13" y2="512.36" style="fill:none; stroke:#000; stroke-miterlimit:10;"/><polygon points="808.15 510.9 813.13 519.54 818.12 510.9 808.15 510.9"/></g><g><line x1="813.45" y1="274.18" x2="833.5" y2="274.18" style="fill:none; stroke:#000; stroke-miterlimit:10;"/><polygon points="832.04 279.16 840.67 274.18 832.04 269.19 832.04 279.16"/></g><g><line x1="893.13" y1="290.79" x2="893.13" y2="468.81" style="fill:none; stroke:#000; stroke-miterlimit:10;"/><polygon points="888.15 467.35 893.13 475.98 898.12 467.35 888.15 467.35"/></g><g><line x1="893.45" y1="339.18" x2="913.5" y2="339.18" style="fill:none; stroke:#000; stroke-miterlimit:10;"/><polygon points="912.04 344.16 920.67 339.18 912.04 334.19 912.04 344.16"/></g><g><polyline points="973.13 353.79 973.13 447.5 991.8 447.5" style="fill:none; stroke:#000; stroke-miterlimit:10;"/><polygon points="990.34 452.49 998.98 447.5 990.34 442.51 990.34 452.49"/></g><g><line x1="973.45" y1="404.18" x2="993.5" y2="404.18" style="fill:none; stroke:#000; stroke-miterlimit:10;"/><polygon points="992.04 409.16 1000.67 404.18 992.04 399.19 992.04 409.16"/></g><g><line x1="604.41" y1="361.28" x2="514.63" y2="361.28" style="fill:none; stroke:#89989f; stroke-miterlimit:10; stroke-width:2px;"/><polygon points="602.22 353.8 615.17 361.28 602.22 368.76 602.22 353.8" style="fill:#89989f;"/><polygon points="516.81 353.8 503.86 361.28 516.81 368.76 516.81 353.8" style="fill:#89989f;"/></g><g><line x1="604.21" y1="159.98" x2="558.19" y2="159.98" style="fill:none; stroke:#89989f; stroke-miterlimit:10; stroke-width:2px;"/><polygon points="602.02 152.5 614.98 159.98 602.02 167.46 602.02 152.5" style="fill:#89989f;"/><polygon points="560.38 152.5 547.43 159.98 560.38 167.46 560.38 152.5" style="fill:#89989f;"/></g><g><line x1="1199.34" y1="304.01" x2="957.01" y2="304.6" style="fill:none; stroke:#89989f; stroke-miterlimit:10; stroke-width:2px;"/><polygon points="1197.13 296.53 1210.1 303.98 1197.17 311.49 1197.13 296.53" style="fill:#89989f;"/><polygon points="959.18 297.11 946.24 304.62 959.21 312.07 959.18 297.11" style="fill:#89989f;"/></g><g><line x1="1199.35" y1="370.98" x2="1086.61" y2="370.98" style="fill:none; stroke:#89989f; stroke-miterlimit:10; stroke-width:2px;"/><polygon points="1197.16 363.5 1210.11 370.98 1197.16 378.46 1197.16 363.5" style="fill:#89989f;"/><polygon points="1088.8 363.5 1075.84 370.98 1088.8 378.46 1088.8 363.5" style="fill:#89989f;"/></g><g><line x1="606.24" y1="563.61" x2="571.12" y2="563.61" style="fill:none; stroke:#89989f; stroke-miterlimit:10; stroke-width:2px;"/><polygon points="604.05 556.13 617 563.61 604.05 571.09 604.05 556.13" style="fill:#89989f;"/><polygon points="573.31 556.13 560.35 563.61 573.31 571.09 573.31 556.13" style="fill:#89989f;"/></g><g><circle cx="486.4" cy="562.71" r="63.39" style="fill:#003e6e;"/><g><path d="M465.71,565.2c-.11,2.47-.8,4.33-2.08,5.6-1.28,1.27-3.08,1.9-5.41,1.9-2.45,0-4.32-.8-5.62-2.41s-1.95-3.9-1.95-6.89v-3.64c0-2.97,.67-5.26,2.02-6.87,1.35-1.61,3.22-2.41,5.62-2.41s4.15,.66,5.37,1.98,1.92,3.21,2.09,5.67h-4.38c-.04-1.53-.28-2.58-.71-3.16s-1.22-.87-2.37-.87-2,.41-2.48,1.23c-.48,.82-.74,2.16-.77,4.03v4.09c0,2.15,.24,3.62,.72,4.43,.48,.8,1.3,1.2,2.47,1.2s1.94-.28,2.38-.84,.68-1.57,.74-3.04h4.37Z" style="fill:#fff;"/><path d="M472.61,572.4h-4.22v-22.82h4.22v22.82Z" style="fill:#fff;"/><path d="M475.37,563.85c0-2.44,.57-4.35,1.72-5.73,1.15-1.39,2.74-2.08,4.77-2.08s3.65,.69,4.8,2.08,1.72,3.31,1.72,5.76v1.03c0,2.45-.57,4.36-1.71,5.73-1.14,1.38-2.73,2.06-4.78,2.06s-3.66-.69-4.81-2.07-1.72-3.3-1.72-5.76v-1.02Zm4.22,1.05c0,2.87,.77,4.31,2.3,4.31,1.42,0,2.18-1.2,2.29-3.59v-1.77c.01-1.47-.19-2.55-.59-3.26-.41-.71-.98-1.06-1.72-1.06s-1.27,.35-1.67,1.06c-.4,.71-.6,1.79-.6,3.26v1.05Z" style="fill:#fff;"/><path d="M498.9,570.93c-.87,1.18-2.04,1.77-3.51,1.77s-2.6-.51-3.36-1.52c-.76-1.01-1.14-2.49-1.14-4.43v-10.41h4.2v10.52c.02,1.56,.54,2.35,1.56,2.35,.96,0,1.65-.42,2.08-1.25v-11.62h4.23v16.07h-3.95l-.12-1.47Z" style="fill:#fff;"/><path d="M505.41,563.88c0-2.63,.45-4.6,1.34-5.9,.89-1.3,2.19-1.95,3.89-1.95,1.24,0,2.27,.54,3.09,1.6v-8.05h4.23v22.82h-3.82l-.19-1.63c-.86,1.29-1.97,1.93-3.33,1.93-1.68,0-2.97-.64-3.86-1.93-.89-1.29-1.34-3.18-1.36-5.68v-1.22Zm4.22,1.05c0,1.58,.17,2.69,.51,3.32,.34,.63,.91,.94,1.71,.94s1.46-.37,1.89-1.11v-7.34c-.42-.79-1.04-1.19-1.87-1.19-.77,0-1.34,.31-1.69,.94-.36,.62-.54,1.73-.54,3.33v1.11Z" style="fill:#fff;"/></g></g><g><rect x="426.78" y="103.13" width="114.12" height="114.12" rx="10.14" ry="10.14" style="fill:#003e6e; stroke:#fff; stroke-miterlimit:10;"/><rect x="425.09" y="123.41" width="97.17" height="28.31" style="fill:#fff;"/><g><path d="M434.73,144.96h-1.81v-14.42h1.81v14.42Z"/><path d="M439.8,144.96h-1.81v-14.42h1.81v14.42Z"/><path d="M442.36,139.11c0-1.56,.38-2.79,1.13-3.7s1.75-1.36,3-1.36,2.24,.44,3,1.33c.76,.88,1.14,2.09,1.16,3.61v1.13c0,1.55-.38,2.78-1.13,3.68s-1.76,1.36-3.01,1.36-2.24-.44-2.99-1.32c-.75-.88-1.14-2.07-1.16-3.57v-1.17Zm1.75,1.01c0,1.1,.22,1.97,.65,2.6,.43,.63,1.02,.95,1.75,.95,1.54,0,2.34-1.12,2.39-3.35v-1.21c0-1.1-.22-1.96-.65-2.6-.44-.64-1.02-.96-1.75-.96s-1.3,.32-1.73,.96c-.43,.64-.65,1.5-.65,2.59v1.02Z"/><path d="M461.59,132.09h-3.79v12.87h-1.81v-12.87h-3.78v-1.55h9.39v1.55Z"/><path d="M472.32,139.13h-2.54v5.83h-1.82v-14.42h4.04c1.41,0,2.48,.37,3.21,1.1,.73,.74,1.09,1.81,1.09,3.23,0,.89-.2,1.67-.59,2.33s-.95,1.16-1.67,1.5l2.79,6.13v.12h-1.95l-2.57-5.83Zm-2.54-1.55h2.2c.76,0,1.37-.24,1.82-.73,.45-.49,.68-1.14,.68-1.96,0-1.85-.84-2.78-2.52-2.78h-2.18v5.48Z"/><path d="M482.32,145.16c-1.33,0-2.36-.4-3.07-1.19-.71-.8-1.08-1.96-1.09-3.5v-1.3c0-1.6,.35-2.85,1.04-3.76,.7-.91,1.67-1.36,2.92-1.36s2.19,.4,2.81,1.2c.62,.8,.94,2.04,.95,3.73v1.15h-5.98v.25c0,1.15,.22,1.98,.65,2.51,.43,.52,1.05,.78,1.87,.78,.51,0,.97-.1,1.36-.29s.76-.5,1.1-.93l.91,1.11c-.76,1.07-1.92,1.6-3.48,1.6Zm-.2-9.61c-.73,0-1.26,.25-1.61,.75s-.55,1.27-.59,2.32h4.22v-.24c-.05-1.02-.23-1.74-.55-2.18-.32-.44-.81-.65-1.46-.65Z"/><path d="M493.5,144.96c-.11-.23-.18-.62-.23-1.17-.62,.91-1.41,1.37-2.38,1.37s-1.73-.27-2.27-.82c-.54-.54-.82-1.31-.82-2.3,0-1.09,.37-1.95,1.11-2.59,.74-.64,1.75-.97,3.04-.98h1.29v-1.14c0-.64-.14-1.1-.43-1.37-.28-.27-.72-.41-1.3-.41-.53,0-.96,.16-1.29,.47-.33,.31-.5,.71-.5,1.19h-1.75c0-.55,.16-1.07,.49-1.57,.32-.5,.76-.89,1.31-1.17,.55-.28,1.16-.43,1.83-.43,1.1,0,1.93,.27,2.5,.82,.57,.54,.86,1.34,.88,2.38v5.41c0,.83,.12,1.54,.34,2.15v.16h-1.82Zm-2.34-1.4c.43,0,.84-.12,1.23-.36s.67-.53,.85-.89v-2.56h-.99c-.83,.01-1.49,.2-1.97,.56s-.72,.86-.72,1.51c0,.61,.12,1.05,.37,1.32,.24,.27,.66,.41,1.24,.41Z"/><path d="M497.33,139.12c0-1.65,.31-2.91,.93-3.77,.62-.86,1.5-1.3,2.66-1.3,1.02,0,1.82,.42,2.4,1.25v-5.55h1.75v15.21h-1.61l-.09-1.15c-.58,.9-1.4,1.35-2.47,1.35s-1.98-.43-2.61-1.29c-.63-.86-.95-2.08-.97-3.65v-1.1Zm1.75,.99c0,1.2,.18,2.08,.54,2.65,.36,.56,.94,.85,1.74,.85,.87,0,1.52-.44,1.95-1.32v-5.4c-.45-.86-1.1-1.29-1.94-1.29s-1.39,.28-1.74,.85c-.36,.56-.54,1.43-.54,2.6v1.07Z"/><path d="M510.69,142.05l1.95-7.8h1.86l-3.51,12.23c-.26,.92-.64,1.62-1.12,2.09-.48,.48-1.03,.72-1.64,.72-.24,0-.54-.05-.91-.16v-1.49l.39,.04c.51,0,.91-.12,1.19-.36,.29-.24,.52-.66,.7-1.25l.35-1.2-3.15-10.63h1.91l1.98,7.8Z"/></g><g><path d="M451.22,188.97c0-.88-.23-1.55-.68-2-.45-.45-1.27-.92-2.46-1.4-2.17-.82-3.73-1.78-4.68-2.89-.95-1.1-1.43-2.41-1.43-3.91,0-1.82,.65-3.29,1.94-4.39,1.29-1.1,2.93-1.66,4.92-1.66,1.33,0,2.51,.28,3.55,.84s1.84,1.35,2.4,2.37c.56,1.02,.84,2.18,.84,3.48h-4.35c0-1.01-.21-1.78-.65-2.31-.43-.53-1.05-.79-1.86-.79-.76,0-1.36,.23-1.78,.68s-.64,1.06-.64,1.82c0,.59,.24,1.13,.71,1.61,.47,.48,1.32,.98,2.53,1.49,2.11,.76,3.64,1.7,4.6,2.81,.96,1.11,1.43,2.52,1.43,4.23,0,1.88-.6,3.35-1.8,4.41-1.2,1.06-2.83,1.59-4.89,1.59-1.4,0-2.67-.29-3.82-.86-1.15-.57-2.05-1.4-2.7-2.47-.65-1.07-.97-2.33-.97-3.79h4.38c0,1.25,.24,2.15,.73,2.72,.49,.56,1.28,.85,2.38,.85,1.53,0,2.29-.81,2.29-2.42Z" style="fill:#fff;"/><path d="M473.18,187.44c-.11,2.47-.8,4.33-2.08,5.6-1.28,1.27-3.08,1.9-5.41,1.9-2.45,0-4.32-.8-5.62-2.41-1.3-1.61-1.95-3.9-1.95-6.89v-3.64c0-2.97,.67-5.26,2.02-6.87,1.35-1.61,3.22-2.41,5.62-2.41s4.15,.66,5.37,1.98c1.22,1.32,1.92,3.21,2.09,5.68h-4.38c-.04-1.53-.28-2.58-.71-3.16-.43-.58-1.22-.87-2.37-.87s-2,.41-2.48,1.23c-.48,.82-.74,2.16-.77,4.03v4.09c0,2.15,.24,3.62,.72,4.43s1.3,1.2,2.47,1.2,1.94-.28,2.38-.84,.68-1.57,.74-3.04h4.37Z" style="fill:#fff;"/><path d="M486.19,190.22h-5.96l-1.16,4.43h-4.62l6.76-21.63h4l6.8,21.63h-4.66l-1.16-4.43Zm-5.01-3.64h4.04l-2.02-7.71-2.02,7.71Z" style="fill:#fff;"/><path d="M494.03,194.64v-21.63h5.72c2.53,0,4.54,.8,6.04,2.41s2.27,3.8,2.29,6.6v3.51c0,2.84-.75,5.07-2.25,6.69-1.5,1.62-3.57,2.43-6.2,2.43h-5.6Zm4.37-17.99v14.37h1.31c1.46,0,2.48-.38,3.08-1.15,.59-.77,.91-2.09,.94-3.97v-3.76c0-2.02-.28-3.43-.85-4.23-.57-.8-1.53-1.22-2.88-1.26h-1.59Z" style="fill:#fff;"/><path d="M521.24,190.22h-5.96l-1.16,4.43h-4.62l6.76-21.63h4l6.8,21.63h-4.66l-1.16-4.43Zm-5.01-3.64h4.04l-2.02-7.71-2.02,7.71Z" style="fill:#fff;"/></g></g><g><rect x="1224.01" y="347.03" width="114.12" height="114.12" rx="10.14" ry="10.14" style="fill:#003e6e; stroke:#fff; stroke-miterlimit:10;"/><rect x="1222.32" y="367.32" width="97.17" height="28.31" style="fill:#fff;"/><g><path d="M1231.96,388.87h-1.81v-14.42h1.81v14.42Z"/><path d="M1237.03,388.87h-1.81v-14.42h1.81v14.42Z"/><path d="M1239.59,383.01c0-1.56,.38-2.79,1.13-3.7,.76-.91,1.75-1.36,3-1.36s2.24,.44,3,1.33,1.14,2.09,1.16,3.62v1.13c0,1.55-.38,2.78-1.13,3.68-.75,.91-1.76,1.36-3.01,1.36s-2.24-.44-2.99-1.32-1.14-2.07-1.16-3.57v-1.17Zm1.75,1.01c0,1.1,.22,1.97,.65,2.6s1.01,.95,1.75,.95c1.54,0,2.34-1.12,2.39-3.35v-1.21c0-1.1-.22-1.96-.65-2.6-.44-.64-1.02-.96-1.75-.96s-1.3,.32-1.73,.96c-.43,.64-.65,1.5-.65,2.59v1.02Z"/><path d="M1258.82,376h-3.79v12.87h-1.81v-12.87h-3.78v-1.55h9.39v1.55Z"/><path d="M1269.55,383.03h-2.54v5.83h-1.82v-14.42h4.04c1.41,0,2.48,.37,3.21,1.1s1.09,1.81,1.09,3.23c0,.89-.2,1.67-.59,2.33-.39,.66-.95,1.16-1.67,1.5l2.79,6.13v.12h-1.95l-2.56-5.83Zm-2.54-1.56h2.2c.76,0,1.37-.24,1.82-.73,.45-.49,.68-1.14,.68-1.96,0-1.85-.84-2.78-2.52-2.78h-2.18v5.48Z"/><path d="M1279.54,389.06c-1.33,0-2.36-.4-3.07-1.19-.71-.8-1.08-1.96-1.09-3.5v-1.3c0-1.6,.35-2.85,1.04-3.76,.7-.91,1.67-1.36,2.92-1.36s2.19,.4,2.81,1.2c.62,.8,.94,2.04,.95,3.73v1.15h-5.98v.25c0,1.15,.22,1.98,.65,2.51s1.05,.78,1.87,.78c.51,0,.97-.1,1.36-.29,.39-.19,.76-.5,1.1-.93l.91,1.11c-.76,1.07-1.92,1.6-3.48,1.6Zm-.2-9.61c-.73,0-1.26,.25-1.61,.75-.35,.5-.55,1.27-.59,2.32h4.22v-.24c-.05-1.02-.23-1.74-.55-2.18-.32-.44-.81-.65-1.46-.65Z"/><path d="M1290.73,388.87c-.11-.23-.18-.62-.23-1.17-.62,.91-1.41,1.37-2.38,1.37s-1.73-.27-2.27-.82-.82-1.31-.82-2.3c0-1.09,.37-1.95,1.11-2.59s1.75-.97,3.04-.98h1.29v-1.14c0-.64-.14-1.1-.43-1.37-.28-.27-.72-.41-1.3-.41-.53,0-.96,.16-1.29,.47s-.5,.71-.5,1.19h-1.75c0-.55,.16-1.07,.49-1.57,.32-.5,.76-.89,1.31-1.17s1.16-.43,1.83-.43c1.1,0,1.93,.27,2.5,.82,.57,.54,.86,1.34,.88,2.38v5.41c0,.83,.12,1.54,.34,2.15v.16h-1.82Zm-2.34-1.4c.43,0,.84-.12,1.23-.36s.67-.54,.85-.89v-2.55h-.99c-.83,.01-1.49,.2-1.97,.56-.48,.36-.72,.86-.72,1.51,0,.61,.12,1.05,.37,1.32,.25,.27,.66,.41,1.24,.41Z"/><path d="M1294.56,383.02c0-1.65,.31-2.91,.93-3.77,.62-.86,1.5-1.3,2.66-1.3,1.02,0,1.82,.42,2.4,1.25v-5.55h1.75v15.21h-1.6l-.09-1.15c-.57,.9-1.4,1.35-2.47,1.35s-1.98-.43-2.61-1.29c-.63-.86-.95-2.08-.97-3.65v-1.1Zm1.75,1c0,1.2,.18,2.08,.53,2.65,.36,.56,.94,.85,1.74,.85,.87,0,1.52-.44,1.95-1.32v-5.4c-.45-.86-1.1-1.29-1.94-1.29s-1.39,.28-1.74,.85c-.36,.56-.54,1.43-.54,2.6v1.07Z"/><path d="M1307.92,385.95l1.95-7.8h1.86l-3.51,12.23c-.26,.92-.64,1.62-1.12,2.09-.48,.48-1.03,.72-1.64,.72-.24,0-.54-.05-.91-.16v-1.49l.39,.04c.51,0,.91-.12,1.19-.36s.52-.66,.7-1.25l.35-1.2-3.15-10.63h1.91l1.98,7.8Z"/></g><g><path d="M1269.44,429.19h-6.8v5.73h8.05v3.62h-12.42v-21.63h12.39v3.64h-8.02v5.11h6.8v3.52Z" style="fill:#fff;"/><path d="M1279.75,430.64h-2.17v7.9h-4.37v-21.63h6.97c2.19,0,3.88,.57,5.07,1.7,1.19,1.13,1.79,2.75,1.79,4.83,0,2.87-1.04,4.88-3.13,6.03l3.79,8.85v.21h-4.69l-3.25-7.9Zm-2.17-3.64h2.48c.87,0,1.53-.29,1.96-.87s.65-1.35,.65-2.33c0-2.17-.85-3.25-2.54-3.25h-2.55v6.45Z" style="fill:#fff;"/><path d="M1294.41,430.94v7.61h-4.37v-21.63h7.37c2.14,0,3.85,.66,5.12,1.99s1.91,3.05,1.91,5.17-.63,3.79-1.89,5.02-3,1.84-5.23,1.84h-2.91Zm0-3.64h3c.83,0,1.48-.27,1.93-.82,.46-.54,.68-1.34,.68-2.38s-.23-1.94-.7-2.58c-.47-.64-1.09-.96-1.87-.97h-3.05v6.74Z" style="fill:#fff;"/></g></g><g><rect x="1224.01" y="207.03" width="114.12" height="114.12" rx="10.14" ry="10.14" style="fill:#003e6e; stroke:#fff; stroke-miterlimit:10;"/><rect x="1222.32" y="227.32" width="97.17" height="28.31" style="fill:#fff;"/><g><path d="M1231.96,248.87h-1.81v-14.42h1.81v14.42Z"/><path d="M1237.03,248.87h-1.81v-14.42h1.81v14.42Z"/><path d="M1239.59,243.01c0-1.56,.38-2.79,1.13-3.7,.76-.91,1.75-1.36,3-1.36s2.24,.44,3,1.33,1.14,2.09,1.16,3.62v1.13c0,1.55-.38,2.78-1.13,3.68-.75,.91-1.76,1.36-3.01,1.36s-2.24-.44-2.99-1.32-1.14-2.07-1.16-3.57v-1.17Zm1.75,1.01c0,1.1,.22,1.97,.65,2.6s1.01,.95,1.75,.95c1.54,0,2.34-1.12,2.39-3.35v-1.21c0-1.1-.22-1.96-.65-2.6-.44-.64-1.02-.96-1.75-.96s-1.3,.32-1.73,.96c-.43,.64-.65,1.5-.65,2.59v1.02Z"/><path d="M1258.82,236h-3.79v12.87h-1.81v-12.87h-3.78v-1.55h9.39v1.55Z"/><path d="M1269.55,243.03h-2.54v5.83h-1.82v-14.42h4.04c1.41,0,2.48,.37,3.21,1.1s1.09,1.81,1.09,3.23c0,.89-.2,1.67-.59,2.33-.39,.66-.95,1.16-1.67,1.5l2.79,6.13v.12h-1.95l-2.56-5.83Zm-2.54-1.56h2.2c.76,0,1.37-.24,1.82-.73,.45-.49,.68-1.14,.68-1.96,0-1.85-.84-2.78-2.52-2.78h-2.18v5.48Z"/><path d="M1279.54,249.06c-1.33,0-2.36-.4-3.07-1.19-.71-.8-1.08-1.96-1.09-3.5v-1.3c0-1.6,.35-2.85,1.04-3.76,.7-.91,1.67-1.36,2.92-1.36s2.19,.4,2.81,1.2c.62,.8,.94,2.04,.95,3.73v1.15h-5.98v.25c0,1.15,.22,1.98,.65,2.51s1.05,.78,1.87,.78c.51,0,.97-.1,1.36-.29,.39-.19,.76-.5,1.1-.93l.91,1.11c-.76,1.07-1.92,1.6-3.48,1.6Zm-.2-9.61c-.73,0-1.26,.25-1.61,.75-.35,.5-.55,1.27-.59,2.32h4.22v-.24c-.05-1.02-.23-1.74-.55-2.18-.32-.44-.81-.65-1.46-.65Z"/><path d="M1290.73,248.87c-.11-.23-.18-.62-.23-1.17-.62,.91-1.41,1.37-2.38,1.37s-1.73-.27-2.27-.82-.82-1.31-.82-2.3c0-1.09,.37-1.95,1.11-2.59s1.75-.97,3.04-.98h1.29v-1.14c0-.64-.14-1.1-.43-1.37-.28-.27-.72-.41-1.3-.41-.53,0-.96,.16-1.29,.47s-.5,.71-.5,1.19h-1.75c0-.55,.16-1.07,.49-1.57,.32-.5,.76-.89,1.31-1.17s1.16-.43,1.83-.43c1.1,0,1.93,.27,2.5,.82,.57,.54,.86,1.34,.88,2.38v5.41c0,.83,.12,1.54,.34,2.15v.16h-1.82Zm-2.34-1.4c.43,0,.84-.12,1.23-.36s.67-.54,.85-.89v-2.55h-.99c-.83,.01-1.49,.2-1.97,.56-.48,.36-.72,.86-.72,1.51,0,.61,.12,1.05,.37,1.32,.25,.27,.66,.41,1.24,.41Z"/><path d="M1294.56,243.02c0-1.65,.31-2.91,.93-3.77,.62-.86,1.5-1.3,2.66-1.3,1.02,0,1.82,.42,2.4,1.25v-5.55h1.75v15.21h-1.6l-.09-1.15c-.57,.9-1.4,1.35-2.47,1.35s-1.98-.43-2.61-1.29c-.63-.86-.95-2.08-.97-3.65v-1.1Zm1.75,1c0,1.2,.18,2.08,.53,2.65,.36,.56,.94,.85,1.74,.85,.87,0,1.52-.44,1.95-1.32v-5.4c-.45-.86-1.1-1.29-1.94-1.29s-1.39,.28-1.74,.85c-.36,.56-.54,1.43-.54,2.6v1.07Z"/><path d="M1307.92,245.95l1.95-7.8h1.86l-3.51,12.23c-.26,.92-.64,1.62-1.12,2.09-.48,.48-1.03,.72-1.64,.72-.24,0-.54-.05-.91-.16v-1.49l.39,.04c.51,0,.91-.12,1.19-.36s.52-.66,.7-1.25l.35-1.2-3.15-10.63h1.91l1.98,7.8Z"/></g></g><g><rect x="381.43" y="307.22" width="114.12" height="114.12" rx="10.14" ry="10.14" style="fill:#003e6e; stroke:#fff; stroke-miterlimit:10;"/><rect x="379.74" y="327.51" width="97.17" height="28.31" style="fill:#fff;"/><g><path d="M389.38,349.06h-1.81v-14.42h1.81v14.42Z"/><path d="M394.45,349.06h-1.81v-14.42h1.81v14.42Z"/><path d="M397.01,343.2c0-1.56,.38-2.79,1.13-3.7,.76-.91,1.76-1.36,3-1.36s2.24,.44,3,1.33,1.14,2.09,1.16,3.62v1.13c0,1.55-.38,2.78-1.13,3.68-.75,.91-1.76,1.36-3.01,1.36s-2.24-.44-2.99-1.32-1.14-2.07-1.16-3.57v-1.17Zm1.75,1.01c0,1.1,.22,1.97,.65,2.6s1.01,.95,1.75,.95c1.54,0,2.34-1.12,2.39-3.35v-1.21c0-1.1-.22-1.96-.65-2.6s-1.02-.96-1.75-.96-1.29,.32-1.73,.96-.65,1.5-.65,2.59v1.02Z"/><path d="M416.24,336.19h-3.79v12.87h-1.81v-12.87h-3.78v-1.55h9.39v1.55Z"/><path d="M426.97,343.22h-2.54v5.83h-1.82v-14.42h4.04c1.41,0,2.48,.37,3.21,1.1,.73,.74,1.09,1.81,1.09,3.23,0,.89-.2,1.67-.59,2.33-.39,.66-.95,1.16-1.67,1.5l2.79,6.13v.12h-1.95l-2.56-5.83Zm-2.54-1.56h2.2c.76,0,1.37-.24,1.82-.73,.45-.49,.68-1.14,.68-1.96,0-1.85-.84-2.78-2.52-2.78h-2.18v5.48Z"/><path d="M436.97,349.26c-1.33,0-2.36-.4-3.07-1.19-.71-.8-1.08-1.96-1.09-3.5v-1.3c0-1.6,.35-2.85,1.04-3.76,.7-.91,1.67-1.36,2.92-1.36s2.19,.4,2.81,1.2c.62,.8,.94,2.04,.95,3.73v1.15h-5.98v.25c0,1.15,.22,1.98,.65,2.51,.43,.52,1.06,.78,1.87,.78,.52,0,.97-.1,1.36-.29,.39-.19,.76-.5,1.1-.93l.91,1.11c-.76,1.07-1.92,1.6-3.48,1.6Zm-.2-9.61c-.73,0-1.26,.25-1.61,.75s-.55,1.27-.59,2.32h4.22v-.24c-.05-1.02-.23-1.74-.55-2.18-.32-.44-.81-.65-1.46-.65Z"/><path d="M448.15,349.06c-.11-.23-.18-.62-.23-1.17-.62,.91-1.41,1.37-2.38,1.37s-1.73-.27-2.27-.82-.82-1.31-.82-2.3c0-1.09,.37-1.95,1.11-2.59,.74-.64,1.75-.97,3.04-.98h1.29v-1.14c0-.64-.14-1.1-.43-1.37-.29-.27-.72-.41-1.3-.41-.53,0-.96,.16-1.29,.47-.33,.31-.49,.71-.49,1.19h-1.75c0-.55,.16-1.07,.49-1.57s.76-.89,1.31-1.17c.55-.28,1.16-.43,1.83-.43,1.1,0,1.93,.27,2.5,.82,.57,.54,.86,1.34,.88,2.38v5.41c0,.83,.12,1.54,.34,2.15v.16h-1.82Zm-2.34-1.4c.43,0,.84-.12,1.23-.36s.67-.54,.85-.89v-2.55h-.99c-.83,.01-1.49,.2-1.97,.56-.48,.36-.72,.86-.72,1.51,0,.61,.12,1.05,.37,1.32,.24,.27,.66,.41,1.24,.41Z"/><path d="M451.98,343.21c0-1.65,.31-2.91,.93-3.77,.62-.86,1.5-1.3,2.66-1.3,1.02,0,1.82,.42,2.4,1.25v-5.55h1.75v15.21h-1.6l-.09-1.15c-.57,.9-1.4,1.35-2.47,1.35s-1.98-.43-2.61-1.29c-.63-.86-.95-2.08-.97-3.65v-1.1Zm1.75,1c0,1.2,.18,2.08,.53,2.65,.36,.56,.94,.85,1.74,.85,.87,0,1.52-.44,1.95-1.32v-5.4c-.45-.86-1.1-1.29-1.94-1.29s-1.39,.28-1.74,.85c-.36,.56-.54,1.43-.54,2.6v1.07Z"/><path d="M465.34,346.14l1.95-7.8h1.86l-3.51,12.23c-.26,.92-.64,1.62-1.12,2.09-.48,.48-1.03,.72-1.64,.72-.24,0-.54-.05-.91-.16v-1.49l.39,.04c.51,0,.91-.12,1.19-.36s.52-.66,.7-1.25l.35-1.2-3.15-10.63h1.91l1.98,7.8Z"/></g><g><path d="M399.51,398.74v-21.63h5.72c2.53,0,4.54,.8,6.04,2.41,1.5,1.6,2.27,3.8,2.29,6.6v3.51c0,2.84-.75,5.07-2.25,6.69s-3.57,2.43-6.2,2.43h-5.6Zm4.37-17.99v14.37h1.31c1.46,0,2.48-.38,3.08-1.15s.91-2.09,.94-3.97v-3.76c0-2.02-.28-3.43-.85-4.23-.56-.8-1.53-1.22-2.88-1.25h-1.59Z" style="fill:#fff;"/><path d="M422.98,399.04c-2.16,0-3.84-.64-5.05-1.93-1.21-1.29-1.81-3.13-1.81-5.53v-1.28c0-2.54,.55-4.49,1.66-5.87,1.11-1.38,2.7-2.06,4.77-2.06s3.54,.65,4.56,1.94c1.02,1.29,1.54,3.2,1.56,5.73v2.06h-8.36c.06,1.19,.32,2.07,.79,2.62,.47,.55,1.18,.83,2.15,.83,1.41,0,2.58-.48,3.52-1.44l1.65,2.54c-.51,.71-1.26,1.29-2.24,1.73s-2.05,.66-3.2,.66Zm-2.64-9.86h4.2v-.39c-.02-.96-.18-1.69-.48-2.18-.3-.5-.81-.74-1.54-.74s-1.26,.26-1.6,.79c-.33,.53-.53,1.37-.59,2.53Z" style="fill:#fff;"/><path d="M436.13,392.8l2.04-10.13h4.38l-4.41,16.07h-4.01l-4.43-16.07h4.4l2.04,10.13Z" style="fill:#fff;"/><path d="M444.52,378.51c0-.65,.21-1.19,.62-1.6s.97-.62,1.66-.62,1.25,.21,1.66,.62,.62,.95,.62,1.6-.21,1.18-.62,1.6-.97,.64-1.67,.64-1.26-.21-1.67-.64-.62-.96-.62-1.6Zm4.41,20.23h-4.22v-16.07h4.22v16.07Z" style="fill:#fff;"/><path d="M458,395.55c1.22,0,1.84-.79,1.86-2.38h3.95c-.02,1.75-.56,3.17-1.62,4.25-1.06,1.08-2.43,1.62-4.1,1.62-2.07,0-3.65-.64-4.74-1.93-1.09-1.29-1.64-3.18-1.66-5.69v-1.28c0-2.53,.54-4.45,1.61-5.78s2.66-1.99,4.76-1.99c1.77,0,3.17,.55,4.19,1.64,1.02,1.09,1.54,2.65,1.56,4.66h-3.95c0-.9-.16-1.59-.45-2.08s-.76-.73-1.43-.73c-.73,0-1.26,.26-1.57,.78-.32,.52-.49,1.53-.5,3.02v1.63c0,1.31,.06,2.22,.19,2.74,.13,.52,.34,.9,.64,1.14,.3,.24,.72,.36,1.26,.36Z" style="fill:#fff;"/><path d="M472.68,399.04c-2.16,0-3.84-.64-5.05-1.93-1.21-1.29-1.81-3.13-1.81-5.53v-1.28c0-2.54,.55-4.49,1.66-5.87,1.11-1.38,2.7-2.06,4.77-2.06s3.54,.65,4.56,1.94c1.02,1.29,1.54,3.2,1.56,5.73v2.06h-8.36c.06,1.19,.32,2.07,.79,2.62,.46,.55,1.18,.83,2.15,.83,1.41,0,2.58-.48,3.52-1.44l1.65,2.54c-.52,.71-1.26,1.29-2.24,1.73s-2.04,.66-3.19,.66Zm-2.64-9.86h4.2v-.39c-.02-.96-.18-1.69-.48-2.18-.3-.5-.81-.74-1.54-.74s-1.27,.26-1.6,.79c-.33,.53-.53,1.37-.59,2.53Z" style="fill:#fff;"/></g></g><g><rect x="80.46" y="183.23" width="174.25" height="114.12" rx="13.69" ry="13.69" style="fill:#f60; stroke:#fff; stroke-miterlimit:10;"/><rect x="78.77" y="203.51" width="153.87" height="28.31" style="fill:#fff;"/><g><path d="M102.69,225.06h-1.82l-5.77-11.11v11.11h-1.82v-14.42h1.82l5.79,11.16v-11.16h1.8v14.42Z"/><path d="M105.21,219.21c0-1.56,.38-2.79,1.13-3.7s1.75-1.36,3-1.36,2.24,.44,3,1.33,1.14,2.09,1.16,3.61v1.13c0,1.55-.38,2.78-1.13,3.68-.75,.9-1.76,1.36-3.01,1.36s-2.24-.44-2.99-1.32c-.75-.88-1.14-2.07-1.16-3.57v-1.17Zm1.75,1.01c0,1.1,.22,1.97,.65,2.6,.43,.63,1.02,.95,1.75,.95,1.54,0,2.34-1.12,2.39-3.35v-1.21c0-1.1-.22-1.96-.65-2.6-.44-.64-1.02-.96-1.75-.96s-1.3,.32-1.73,.96c-.43,.64-.65,1.5-.65,2.59v1.02Z"/><path d="M117.41,214.35l.05,1.16c.68-.9,1.55-1.36,2.61-1.36,1.89,0,2.86,1.26,2.88,3.79v7.12h-1.74v-7.04c0-.84-.14-1.43-.42-1.79-.28-.35-.7-.53-1.26-.53-.44,0-.83,.15-1.17,.44-.35,.29-.63,.67-.84,1.14v7.78h-1.75v-10.72h1.65Z"/><path d="M132.36,225.06h-1.81v-14.42h1.81v14.42Z"/><path d="M137.43,225.06h-1.81v-14.42h1.81v14.42Z"/><path d="M139.99,219.21c0-1.56,.38-2.79,1.13-3.7s1.75-1.36,3-1.36,2.24,.44,3,1.33c.76,.88,1.14,2.09,1.16,3.61v1.13c0,1.55-.38,2.78-1.13,3.68s-1.76,1.36-3.01,1.36-2.24-.44-2.99-1.32c-.75-.88-1.14-2.07-1.16-3.57v-1.17Zm1.75,1.01c0,1.1,.22,1.97,.65,2.6,.43,.63,1.02,.95,1.75,.95,1.54,0,2.34-1.12,2.39-3.35v-1.21c0-1.1-.22-1.96-.65-2.6-.44-.64-1.02-.96-1.75-.96s-1.3,.32-1.73,.96c-.43,.64-.65,1.5-.65,2.59v1.02Z"/><path d="M159.22,212.2h-3.79v12.87h-1.81v-12.87h-3.78v-1.55h9.39v1.55Z"/><path d="M169.95,219.23h-2.54v5.83h-1.82v-14.42h4.04c1.41,0,2.48,.37,3.21,1.1,.73,.74,1.09,1.81,1.09,3.23,0,.89-.2,1.67-.59,2.33s-.95,1.16-1.67,1.5l2.79,6.13v.12h-1.95l-2.57-5.83Zm-2.54-1.55h2.2c.76,0,1.37-.24,1.82-.73,.45-.49,.68-1.14,.68-1.96,0-1.85-.84-2.78-2.52-2.78h-2.18v5.48Z"/><path d="M179.95,225.26c-1.33,0-2.36-.4-3.07-1.19-.71-.8-1.08-1.96-1.09-3.5v-1.3c0-1.6,.35-2.85,1.04-3.76,.7-.91,1.67-1.36,2.92-1.36s2.19,.4,2.81,1.2c.62,.8,.94,2.04,.95,3.73v1.15h-5.98v.25c0,1.15,.22,1.98,.65,2.51,.43,.52,1.05,.78,1.87,.78,.51,0,.97-.1,1.36-.29s.76-.5,1.1-.93l.91,1.11c-.76,1.07-1.92,1.6-3.48,1.6Zm-.2-9.61c-.73,0-1.26,.25-1.61,.75s-.55,1.27-.59,2.32h4.22v-.24c-.05-1.02-.23-1.74-.55-2.18-.32-.44-.81-.65-1.46-.65Z"/><path d="M191.13,225.06c-.11-.23-.18-.62-.23-1.17-.62,.91-1.41,1.37-2.38,1.37s-1.73-.27-2.27-.82c-.54-.54-.82-1.31-.82-2.3,0-1.09,.37-1.95,1.11-2.59,.74-.64,1.75-.97,3.04-.98h1.29v-1.14c0-.64-.14-1.1-.43-1.37-.28-.27-.72-.41-1.3-.41-.53,0-.96,.16-1.29,.47-.33,.31-.5,.71-.5,1.19h-1.75c0-.55,.16-1.07,.49-1.57,.32-.5,.76-.89,1.31-1.17,.55-.28,1.16-.43,1.83-.43,1.1,0,1.93,.27,2.5,.82,.57,.54,.86,1.34,.88,2.38v5.41c0,.83,.12,1.54,.34,2.15v.16h-1.82Zm-2.34-1.4c.43,0,.84-.12,1.23-.36s.67-.53,.85-.89v-2.56h-.99c-.83,.01-1.49,.2-1.97,.56s-.72,.86-.72,1.51c0,.61,.12,1.05,.37,1.32,.24,.27,.66,.41,1.24,.41Z"/><path d="M194.96,219.22c0-1.65,.31-2.91,.93-3.77,.62-.86,1.5-1.3,2.66-1.3,1.02,0,1.82,.42,2.4,1.25v-5.55h1.75v15.21h-1.61l-.09-1.15c-.58,.9-1.4,1.35-2.47,1.35s-1.98-.43-2.61-1.29c-.63-.86-.95-2.08-.97-3.65v-1.1Zm1.75,.99c0,1.2,.18,2.08,.54,2.65,.36,.56,.94,.85,1.74,.85,.87,0,1.52-.44,1.95-1.32v-5.4c-.45-.86-1.1-1.29-1.94-1.29s-1.39,.28-1.74,.85c-.36,.56-.54,1.43-.54,2.6v1.07Z"/><path d="M208.32,222.15l1.95-7.8h1.86l-3.51,12.23c-.26,.92-.64,1.62-1.12,2.09-.48,.48-1.03,.72-1.64,.72-.24,0-.54-.05-.91-.16v-1.49l.39,.04c.51,0,.91-.12,1.19-.36,.29-.24,.52-.66,.7-1.25l.35-1.2-3.15-10.63h1.91l1.98,7.8Z"/></g></g><g><rect x="80.46" y="415.63" width="174.25" height="114.12" rx="13.69" ry="13.69" style="fill:#f60; stroke:#fff; stroke-miterlimit:10;"/><rect x="78.77" y="435.92" width="153.87" height="28.31" style="fill:#fff;"/><g><path d="M102.69,457.47h-1.82l-5.77-11.11v11.11h-1.82v-14.42h1.82l5.79,11.16v-11.16h1.8v14.42Z"/><path d="M105.21,451.61c0-1.56,.38-2.79,1.13-3.7,.76-.91,1.75-1.36,3-1.36s2.24,.44,3,1.33,1.14,2.09,1.16,3.62v1.13c0,1.55-.38,2.78-1.13,3.68-.75,.91-1.76,1.36-3.01,1.36s-2.24-.44-2.99-1.32c-.75-.88-1.14-2.07-1.16-3.57v-1.17Zm1.75,1.01c0,1.1,.22,1.97,.65,2.6,.43,.63,1.02,.95,1.75,.95,1.54,0,2.34-1.12,2.39-3.35v-1.21c0-1.1-.22-1.96-.65-2.6-.44-.64-1.02-.96-1.75-.96s-1.3,.32-1.73,.96c-.43,.64-.65,1.5-.65,2.59v1.02Z"/><path d="M117.41,446.75l.05,1.16c.68-.9,1.55-1.36,2.61-1.36,1.89,0,2.86,1.26,2.88,3.79v7.12h-1.74v-7.04c0-.84-.14-1.43-.42-1.79-.28-.35-.7-.53-1.26-.53-.44,0-.83,.15-1.17,.44-.35,.29-.63,.67-.84,1.14v7.78h-1.75v-10.72h1.65Z"/><path d="M132.36,457.47h-1.81v-14.42h1.81v14.42Z"/><path d="M137.43,457.47h-1.81v-14.42h1.81v14.42Z"/><path d="M139.99,451.61c0-1.56,.38-2.79,1.13-3.7,.76-.91,1.75-1.36,3-1.36s2.24,.44,3,1.33c.76,.88,1.14,2.09,1.16,3.62v1.13c0,1.55-.38,2.78-1.13,3.68-.75,.91-1.76,1.36-3.01,1.36s-2.24-.44-2.99-1.32-1.14-2.07-1.16-3.57v-1.17Zm1.75,1.01c0,1.1,.22,1.97,.65,2.6,.43,.63,1.02,.95,1.75,.95,1.54,0,2.34-1.12,2.39-3.35v-1.21c0-1.1-.22-1.96-.65-2.6-.44-.64-1.02-.96-1.75-.96s-1.3,.32-1.73,.96c-.43,.64-.65,1.5-.65,2.59v1.02Z"/><path d="M159.22,444.6h-3.79v12.87h-1.81v-12.87h-3.78v-1.55h9.39v1.55Z"/><path d="M169.95,451.63h-2.54v5.83h-1.82v-14.42h4.04c1.41,0,2.48,.37,3.21,1.1s1.09,1.81,1.09,3.23c0,.89-.2,1.67-.59,2.33-.39,.66-.95,1.16-1.67,1.5l2.79,6.13v.12h-1.95l-2.57-5.83Zm-2.54-1.56h2.2c.76,0,1.37-.24,1.82-.73,.45-.49,.68-1.14,.68-1.96,0-1.85-.84-2.78-2.52-2.78h-2.18v5.48Z"/><path d="M179.95,457.67c-1.33,0-2.36-.4-3.07-1.19s-1.08-1.96-1.09-3.5v-1.3c0-1.6,.35-2.85,1.04-3.76,.7-.91,1.67-1.36,2.92-1.36s2.19,.4,2.81,1.2c.62,.8,.94,2.04,.95,3.73v1.15h-5.98v.25c0,1.15,.22,1.98,.65,2.51,.43,.52,1.05,.78,1.87,.78,.51,0,.97-.1,1.36-.29,.39-.19,.76-.5,1.1-.93l.91,1.11c-.76,1.07-1.92,1.6-3.48,1.6Zm-.2-9.61c-.73,0-1.26,.25-1.61,.75-.35,.5-.55,1.27-.59,2.32h4.22v-.24c-.05-1.02-.23-1.74-.55-2.18s-.81-.65-1.46-.65Z"/><path d="M191.13,457.47c-.11-.23-.18-.62-.23-1.17-.62,.91-1.41,1.37-2.38,1.37s-1.73-.27-2.27-.82c-.54-.54-.82-1.31-.82-2.3,0-1.09,.37-1.95,1.11-2.59,.74-.64,1.75-.97,3.04-.98h1.29v-1.14c0-.64-.14-1.1-.43-1.37-.28-.27-.72-.41-1.3-.41-.53,0-.96,.16-1.29,.47-.33,.31-.5,.71-.5,1.19h-1.75c0-.55,.16-1.07,.49-1.57,.32-.5,.76-.89,1.31-1.17s1.16-.43,1.83-.43c1.1,0,1.93,.27,2.5,.82,.57,.54,.86,1.34,.88,2.38v5.41c0,.83,.12,1.54,.34,2.15v.16h-1.82Zm-2.34-1.4c.43,0,.84-.12,1.23-.36s.67-.54,.85-.89v-2.55h-.99c-.83,.01-1.49,.2-1.97,.56-.48,.36-.72,.86-.72,1.51,0,.61,.12,1.05,.37,1.32,.24,.27,.66,.41,1.24,.41Z"/><path d="M194.96,451.62c0-1.65,.31-2.91,.93-3.77,.62-.86,1.5-1.3,2.66-1.3,1.02,0,1.82,.42,2.4,1.25v-5.55h1.75v15.21h-1.61l-.09-1.15c-.58,.9-1.4,1.35-2.47,1.35s-1.98-.43-2.61-1.29c-.63-.86-.95-2.08-.97-3.65v-1.1Zm1.75,1c0,1.2,.18,2.08,.54,2.65,.36,.56,.94,.85,1.74,.85,.87,0,1.52-.44,1.95-1.32v-5.4c-.45-.86-1.1-1.29-1.94-1.29s-1.39,.28-1.74,.85c-.36,.56-.54,1.43-.54,2.6v1.07Z"/><path d="M208.32,454.56l1.95-7.8h1.86l-3.51,12.23c-.26,.92-.64,1.62-1.12,2.09-.48,.48-1.03,.72-1.64,.72-.24,0-.54-.05-.91-.16v-1.49l.39,.04c.51,0,.91-.12,1.19-.36s.52-.66,.7-1.25l.35-1.2-3.15-10.63h1.91l1.98,7.8Z"/></g></g><g><polyline points="278.42 279.07 344.65 279.07 367.25 302.81" style="fill:none; stroke:#f60; stroke-miterlimit:10; stroke-width:2px;"/><polygon points="280.61 286.55 267.65 279.07 280.61 271.59 280.61 286.55" style="fill:#f60;"/><polygon points="360.32 306.38 374.67 310.6 371.16 296.07 360.32 306.38" style="fill:#f60;"/></g><g><polyline points="278.42 446.75 344.65 446.75 367.25 423.01" style="fill:none; stroke:#f60; stroke-miterlimit:10; stroke-width:2px;"/><polygon points="280.61 454.23 267.65 446.75 280.61 439.28 280.61 454.23" style="fill:#f60;"/><polygon points="371.16 429.76 374.67 415.22 360.32 419.44 371.16 429.76" style="fill:#f60;"/></g><text transform="translate(171 367.01)" style="fill:#f60; font-family:RobotoCondensed-Regular, &apos;Roboto Condensed&apos;; font-size:32px;"><tspan x="0" y="0" style="letter-spacing:0em;">P</tspan><tspan x="17.53" y="0">oint-</tspan><tspan x="73.8" y="0" style="letter-spacing:0em;">t</tspan><tspan x="82.94" y="0">o-</tspan><tspan x="106.94" y="0" style="letter-spacing:0em;">P</tspan><tspan x="124.47" y="0">oint</tspan></text><text transform="translate(675.6 177.01)" style="font-family:RobotoCondensed-Bold, &apos;Roboto Condensed&apos;; font-size:24px;"><tspan x="0" y="0">Bottling Company</tspan></text><rect x="761.91" y="215.11" width="160" height="30" style="fill:#ebe3cb; stroke:#000; stroke-miterlimit:10;"/><text transform="translate(812.26 237.01)" style="font-family:RobotoCondensed-Bold, &apos;Roboto Condensed&apos;; font-size:20px;"><tspan x="0" y="0">Munich</tspan></text><rect x="680.91" y="569.11" width="160" height="30" style="fill:#b0b574; stroke:#000; stroke-miterlimit:10;"/><text transform="translate(737.05 591.01)" style="fill:#fff; font-family:RobotoCondensed-Bold, &apos;Roboto Condensed&apos;; font-size:20px;"><tspan x="0" y="0">Berlin</tspan></text><rect x="841.91" y="259.39" width="160" height="30" style="fill:#ebe3cb; stroke:#000; stroke-miterlimit:10;"/><text transform="translate(870.48 280.7)" style="font-family:RobotoCondensed-Regular, &apos;Roboto Condensed&apos;; font-size:20px;"><tspan x="0" y="0">Filling A</tspan><tspan x="63.56" y="0" style="letter-spacing:0em;">r</tspan><tspan x="69.46" y="0">ea 1</tspan></text><text transform="translate(901.66 312.7)" style="font-family:RobotoCondensed-Regular, &apos;Roboto Condensed&apos;; font-size:20px;"><tspan x="0" y="0">OEE</tspan></text><text transform="translate(981.66 377.7)" style="font-family:RobotoCondensed-Regular, &apos;Roboto Condensed&apos;; font-size:20px;"><tspan x="0" y="0" style="letter-spacing:-.02em;">W</tspan><tspan x="14.93" y="0">ork O</tspan><tspan x="56.66" y="0" style="letter-spacing:0em;">r</tspan><tspan x="62.56" y="0">der</tspan></text><rect x="760.91" y="524.82" width="160" height="30" style="fill:#89989f; stroke:#000; stroke-miterlimit:10;"/><text transform="translate(789.48 547.03)" style="fill:#fff; font-family:RobotoCondensed-Regular, &apos;Roboto Condensed&apos;; font-size:20px;"><tspan x="0" y="0">Filling A</tspan><tspan x="63.56" y="0" style="letter-spacing:0em;">r</tspan><tspan x="69.46" y="0">ea 2</tspan></text><rect x="921.91" y="323.68" width="160" height="30" style="fill:#ebe3cb; stroke:#000; stroke-miterlimit:10;"/><text transform="translate(951.91 345.51)" style="font-family:RobotoCondensed-Regular, &apos;Roboto Condensed&apos;; font-size:20px;"><tspan x="0" y="0">Filling Line 1</tspan></text><rect x="840.91" y="480.53" width="160" height="30" style="fill:#89989f; stroke:#000; stroke-miterlimit:10;"/><text transform="translate(870.91 503.01)" style="fill:#fff; font-family:RobotoCondensed-Regular, &apos;Roboto Condensed&apos;; font-size:20px;"><tspan x="0" y="0">Filling Line 2</tspan></text><rect x="1002.58" y="387.96" width="79.06" height="30" style="fill:#ebe3cb; stroke:#000; stroke-miterlimit:10;"/><text transform="translate(1019.96 411.01)" style="font-family:RobotoCondensed-Regular, &apos;Roboto Condensed&apos;; font-size:20px;"><tspan x="0" y="0">Cell 1</tspan></text><rect x="1002.58" y="432.25" width="79.06" height="30" style="fill:#ebe3cb; stroke:#000; stroke-miterlimit:10;"/><text transform="translate(1019.96 454.51)" style="font-family:RobotoCondensed-Regular, &apos;Roboto Condensed&apos;; font-size:20px;"><tspan x="0" y="0">Cell 2</tspan></text><text transform="translate(1251.6 298.17)" style="fill:#fff; font-family:RobotoCondensed-Bold, &apos;Roboto Condensed&apos;; font-size:32px;"><tspan x="0" y="0">MES</tspan></text><path d="M1136.61,58.87h-502.93c-7.35,0-13.36,5.73-13.36,12.74v49.39h529.65v-49.39c0-7.01-6.01-12.74-13.36-12.74Z" style="fill:#003e6e;"/><text transform="translate(853.63 588.78)" style="font-family:RobotoCondensed-Bold, &apos;Roboto Condensed&apos;; font-size:32px;"><tspan x="0" y="0">...</tspan></text><text transform="translate(930.13 541.43)" style="font-family:RobotoCondensed-Bold, &apos;Roboto Condensed&apos;; font-size:32px;"><tspan x="0" y="0">...</tspan></text><text transform="translate(1006.62 498.93)" style="font-family:RobotoCondensed-Bold, &apos;Roboto Condensed&apos;; font-size:32px;"><tspan x="0" y="0">...</tspan></text><text transform="translate(802.5 100.01)" style="fill:#fff; font-family:RobotoCondensed-Bold, &apos;Roboto Condensed&apos;; font-size:32px;"><tspan x="0" y="0">UNS / ISA 95 </tspan></text></svg>