<?xml version="1.0" encoding="UTF-8"?><svg id="Ebene_2" xmlns="http://www.w3.org/2000/svg" viewBox="0 0 925 500"><rect x="49.31" y="25.28" width="826.38" height="449.44" rx="11.78" ry="11.78" style="fill:#003e6e; stroke:#fff; stroke-miterlimit:10;"/><rect x="356.54" y="92.01" width="471.68" height="348.93" rx="9.61" ry="9.61" style="fill:#b6cee0; stroke:#fff; stroke-miterlimit:10;"/><rect x="383.13" y="156.64" width="190" height="40" style="fill:#b0b574; stroke:#000; stroke-miterlimit:10;"/><g><polyline points="479.35 196.64 479.35 340.06 497.43 340.06" style="fill:none; stroke:#000; stroke-miterlimit:10;"/><polygon points="495.97 345.05 504.6 340.06 495.97 335.07 495.97 345.05"/></g><g><polyline points="589.35 251.82 589.35 289.06 607.43 289.06" style="fill:none; stroke:#000; stroke-miterlimit:10;"/><polygon points="605.97 294.05 614.6 289.06 605.97 284.07 605.97 294.05"/></g><g><polyline points="589.35 353.82 589.35 391.06 607.43 391.06" style="fill:none; stroke:#000; stroke-miterlimit:10;"/><polygon points="605.97 396.05 614.6 391.06 605.97 386.07 605.97 396.05"/></g><g><line x1="479.67" y1="237.71" x2="499.72" y2="237.71" style="fill:none; stroke:#000; stroke-miterlimit:10;"/><polygon points="498.26 242.69 506.89 237.71 498.26 232.72 498.26 242.69"/></g><g><line x1="324.4" y1="177.71" x2="372.82" y2="177.71" style="fill:none; stroke:#fff; stroke-miterlimit:10;"/><polygon points="371.36 182.69 380 177.71 371.36 172.72 371.36 182.69" style="fill:#fff;"/></g><g><polyline points="178.37 106.62 178.37 129.42 228.27 129.42 228.27 148.74" style="fill:none; stroke:#fff; stroke-miterlimit:10;"/><polygon points="223.28 147.28 228.27 155.91 233.26 147.28 223.28 147.28" style="fill:#fff;"/></g><text transform="translate(454.79 183.54)" style="font-family:RobotoCondensed-Bold, &apos;Roboto Condensed&apos;; font-size:24px;"><tspan x="0" y="0">A</tspan><tspan x="14.33" y="0" style="letter-spacing:0em;">r</tspan><tspan x="22.07" y="0">ea</tspan></text><rect x="83.13" y="66.64" width="190" height="40" style="fill:#b0b574; stroke:#fff; stroke-miterlimit:10;"/><rect x="133.13" y="156.64" width="190" height="40" style="fill:#b0b574; stroke:#fff; stroke-miterlimit:10;"/><text transform="translate(127.88 93.54)" style="font-family:RobotoCondensed-Bold, &apos;Roboto Condensed&apos;; font-size:24px;"><tspan x="0" y="0">Enterprise</tspan></text><g><rect x="510.13" y="221.64" width="160" height="30" style="fill:#ebe3cb; stroke:#000; stroke-miterlimit:10;"/><text transform="translate(566.16 243.54)" style="font-family:RobotoCondensed-Regular, &apos;Roboto Condensed&apos;; font-size:20px;"><tspan x="0" y="0">Line 1</tspan></text></g><g><rect x="620.13" y="273.45" width="160" height="30" style="fill:#ebe3cb; stroke:#000; stroke-miterlimit:10;"/><text transform="translate(677.97 294.75)" style="font-family:RobotoCondensed-Regular, &apos;Roboto Condensed&apos;; font-size:20px;"><tspan x="0" y="0">Cell 1</tspan></text></g><g><rect x="509.13" y="325.26" width="160" height="30" style="fill:#89989f; stroke:#000; stroke-miterlimit:10;"/><text transform="translate(565.34 346.47)" style="fill:#fff; font-family:RobotoCondensed-Regular, &apos;Roboto Condensed&apos;; font-size:20px;"><tspan x="0" y="0">Line 2</tspan></text></g><g><rect x="619.13" y="377.06" width="160" height="30" style="fill:#89989f; stroke:#000; stroke-miterlimit:10;"/><text transform="translate(676.79 399.54)" style="fill:#fff; font-family:RobotoCondensed-Regular, &apos;Roboto Condensed&apos;; font-size:20px;"><tspan x="0" y="0">Cell 2</tspan></text></g><text transform="translate(691.66 62.86)" style="fill:#fff; font-family:RobotoCondensed-Bold, &apos;Roboto Condensed&apos;; font-size:24px;"><tspan x="0" y="0">Enterprise UNS</tspan></text><text transform="translate(703 128.91)" style="font-family:RobotoCondensed-Bold, &apos;Roboto Condensed&apos;; font-size:24px;"><tspan x="0" y="0" xml:space="preserve">Local  UNS</tspan></text><text transform="translate(208.3 184.03)" style="font-family:RobotoCondensed-Bold, &apos;Roboto Condensed&apos;; font-size:24px;"><tspan x="0" y="0">Site</tspan></text></svg>