<?xml version="1.0" encoding="UTF-8"?><svg id="Icon" xmlns="http://www.w3.org/2000/svg" viewBox="0 0 200 200"><g><path d="M101.09,159.4c.71,0,1.39-.23,1.95-.65,3.47-2.67,18.17-12.63,43.72-12.17,17.07,.31,34.15,8.15,42.11,12.35,2.09,1.1,4.64-.35,4.64-2.64V43.54c0-1.06-.58-2.04-1.53-2.59-5.56-3.18-25.39-13.7-45.22-14.06-25.67-.47-40.39,7.97-43.77,10.17-.52,.34-1.12,.52-1.75,.52h-.33c-.57,0-1.13-.15-1.62-.44-3.55-2.06-20.03-10.72-46.03-10.25-19.82,.36-39.65,10.87-45.22,14.06-.95,.54-1.53,1.52-1.53,2.59v112.76c0,2.29,2.55,3.74,4.64,2.64,7.96-4.2,25.04-12.04,42.11-12.35,25.81-.47,42.25,9.7,45.95,12.25,.54,.37,1.18,.57,1.84,.57h.05Z" style="fill:none; stroke:#ffbf00; stroke-miterlimit:10; stroke-width:4px;"/><line x1="101.11" y1="37.58" x2="101.11" y2="159.4" style="fill:none; stroke:#ffbf00; stroke-miterlimit:10; stroke-width:4px;"/></g><path d="M10.77,158.33v7.58c0,2.29,2.45,3.74,4.45,2.64,7.65-4.2,24.04-12.04,40.43-12.35,24.78-.47,40.56,3.29,44.11,5.84,.52,.37,1.13,.57,1.77,.57h.04c.68,0,1.34-.23,1.87-.65,3.34-2.67,17.44-6.22,41.97-5.76,16.39,.31,32.78,8.15,40.43,12.35,2.01,1.1,4.45-.35,4.45-2.64v-8.65" style="fill:none; stroke:#ffbf00; stroke-miterlimit:10; stroke-width:4px;"/></svg>