<?xml version="1.0" encoding="UTF-8"?>
<svg id="Icon" xmlns="http://www.w3.org/2000/svg" viewBox="0 0 200 200">
    <path d="M118.95,43.16c-17.47,0-30.28,10.15-36.27,22.13-1.78,3.49-6.05,4.88-9.55,3.11-7.25-3.62-15.99-3.12-22.8,.96-6.81,4.09-11.92,11.5-11.92,23.54-.02,3.45-2.52,6.38-5.92,6.96-12.95,2.17-22.5,15.41-22.5,28.57,0,15.84,12.18,28.42,33.16,28.42h116.05c17.09,0,30.79-13.7,30.79-30.79,0-15.03-10.67-27.5-24.79-30.27-3.63-.67-6.14-4.02-5.77-7.7,2.24-22.07-15.17-44.93-40.49-44.93Z"
          style="fill:none; stroke:#ffbf00; stroke-miterlimit:10; stroke-width:4px;"/>
</svg>